<?xml version="1.0" encoding="utf-8"?>
<!-- Generator: Adobe Illustrator 16.0.0, SVG Export Plug-In . SVG Version: 6.00 Build 0)  -->
<!DOCTYPE svg PUBLIC "-//W3C//DTD SVG 1.1//EN" "http://www.w3.org/Graphics/SVG/1.1/DTD/svg11.dtd">
<svg version="1.1" id="Capa_1" xmlns="http://www.w3.org/2000/svg" xmlns:xlink="http://www.w3.org/1999/xlink" x="0px" y="0px"
	 width="230px" height="310px" viewBox="0 0 230 310" style="enable-background:new 0 0 230 310;" xml:space="preserve">
<style type="text/css">
<![CDATA[
	.st0{fill-rule:evenodd;clip-rule:evenodd;}
	.st1{fill:none;stroke:#E5E6E7;stroke-width:0.7087;stroke-miterlimit:22.9256;}
	.st2{fill-rule:evenodd;clip-rule:evenodd;fill:#FFF100;}
	.st3{fill-rule:evenodd;clip-rule:evenodd;fill:#FFFFFF;}
	.st4{fill:none;stroke:#E5E6E7;stroke-width:0.216;stroke-miterlimit:22.9256;}
]]>
</style>
<path class="st3" d="M11.4,0h207.3c6.2,0,11.4,5.1,11.4,11.4v287.3c0,6.3-5.1,11.4-11.4,11.4H11.4C5.1,310,0,304.9,0,298.6V11.4
	C0,5.1,5.1,0,11.4,0z"/>
<path class="st4" d="M11.4,0h207.3c6.2,0,11.4,5.1,11.4,11.4v287.3c0,6.3-5.1,11.4-11.4,11.4H11.4C5.1,310,0,304.9,0,298.6V11.4
	C0,5.1,5.1,0,11.4,0z"/>
<path class="st3" d="M18.1,10h193.9c5.8,0,10.6,4.8,10.6,10.6v268.6c0,5.9-4.8,10.6-10.6,10.6H18.1c-5.8,0-10.6-4.8-10.6-10.6V20.7
	C7.4,14.8,12.2,10,18.1,10z"/>
<path class="st1" d="M18.1,10h193.9c5.8,0,10.6,4.8,10.6,10.6v268.6c0,5.9-4.8,10.6-10.6,10.6H18.1c-5.8,0-10.6-4.8-10.6-10.6V20.7
	C7.4,14.8,12.2,10,18.1,10z"/>
<path class="st2" d="M63.3,195h101.2c1.4,0,2.5-1.1,2.5-2.5v-16.8c0-1.4-1.1-2.5-2.5-2.5H63.3c-1.4,0-2.5,1.1-2.5,2.5v16.8
	C60.9,193.9,62,195,63.3,195"/>
<path class="st0" d="M154.3,186.8h0.9c0.3,0,0.6-0.1,0.9-0.2l0,0c0.3-0.1,0.5-0.2,0.7-0.4c0.2-0.2,0.3-0.5,0.4-0.9
	c0.1-0.4,0.1-0.9,0.1-1.5c0-1.2-0.2-2-0.6-2.6c-0.4-0.6-1-0.8-1.9-0.8h-0.5V186.8z M155.1,188.6h-3.6h-0.1l0-0.1l-0.1-1.2l0-0.1l0,0
	c0.1-0.1,0.2-0.2,0.3-0.3c0.1-0.1,0.3-0.1,0.4-0.2v-6.3c-0.2-0.1-0.3-0.1-0.4-0.2c-0.1-0.1-0.3-0.2-0.3-0.3l0,0l0-0.1l0.1-1.2l0-0.1
	h0.1h3.2c0.8,0,1.5,0.1,2.1,0.3c0.6,0.2,1.2,0.6,1.6,1c0.5,0.4,0.8,1,1,1.6c0.2,0.6,0.3,1.4,0.3,2.2c0,0.8-0.1,1.6-0.3,2.2
	c-0.2,0.6-0.5,1.1-0.9,1.5c-0.4,0.4-0.9,0.7-1.5,0.9C156.4,188.5,155.8,188.6,155.1,188.6z M146.2,181.3c0,0.1,0,0.2,0,0.3
	c-0.1,0.3-0.2,0.7-0.3,1.1l0,0l-0.5,1.6h1.6l-0.5-1.5h0c-0.1-0.3-0.2-0.7-0.3-1C146.2,181.6,146.2,181.4,146.2,181.3z M147.4,178.6
	l2.8,8.1c0.2,0.1,0.3,0.1,0.5,0.2c0.2,0.1,0.3,0.2,0.4,0.3l0,0l0,0.1l-0.1,1.2l0,0.1h-0.1h-3.3h-0.1l0-0.1l-0.1-1.2l0-0.1l0,0
	c0.1-0.1,0.2-0.2,0.3-0.3v0c0.1-0.1,0.2-0.1,0.3-0.2l-0.3-1h-2.6l-0.3,0.9c0.1,0.1,0.2,0.1,0.3,0.2l0,0c0.1,0.1,0.2,0.2,0.3,0.3l0,0
	l0,0.1l-0.1,1.2l0,0.1H145h-3.2h-0.1l0-0.1l-0.1-1.2l0-0.1l0,0c0.1-0.1,0.2-0.2,0.4-0.3c0.2-0.1,0.3-0.2,0.5-0.2l2.7-8.1l0-0.1h0.1
	h1.9h0.1L147.4,178.6z M136.4,186.8h0.9c0.3,0,0.6-0.1,0.9-0.2l0,0c0.3-0.1,0.5-0.2,0.7-0.4c0.2-0.2,0.3-0.5,0.4-0.9
	c0.1-0.4,0.1-0.9,0.1-1.5c0-1.2-0.2-2-0.6-2.6c-0.4-0.6-1-0.8-1.9-0.8h-0.5V186.8z M137.1,188.6h-3.6h-0.1l0-0.1l-0.1-1.2l0-0.1l0,0
	c0.1-0.1,0.2-0.2,0.3-0.3c0.1-0.1,0.3-0.1,0.4-0.2v-6.3c-0.2-0.1-0.3-0.1-0.4-0.2c-0.1-0.1-0.3-0.2-0.3-0.3l0,0l0-0.1l0.1-1.2l0-0.1
	h0.1h3.2c0.8,0,1.5,0.1,2.1,0.3c0.6,0.2,1.2,0.6,1.6,1c0.5,0.4,0.8,1,1,1.6c0.2,0.6,0.3,1.4,0.3,2.2c0,0.8-0.1,1.6-0.3,2.2
	c-0.2,0.6-0.5,1.1-0.9,1.5c-0.4,0.4-0.9,0.7-1.5,0.9C138.5,188.5,137.9,188.6,137.1,188.6z M132.5,178.7l0.1,1.2l0,0.1l0,0
	c-0.1,0.1-0.2,0.2-0.3,0.3c-0.1,0.1-0.2,0.1-0.4,0.2v6.3c0.2,0.1,0.3,0.1,0.4,0.2c0.1,0.1,0.3,0.2,0.3,0.3l0,0l0,0.1l-0.1,1.2l0,0.1
	h-0.1H129h-0.1l0-0.1l-0.1-1.2l0-0.1l0,0c0.1-0.1,0.2-0.2,0.3-0.3c0.1-0.1,0.3-0.1,0.4-0.2v-6.3c-0.2-0.1-0.3-0.1-0.4-0.2
	c-0.1-0.1-0.3-0.2-0.3-0.3l0,0l0-0.1l0.1-1.2l0-0.1h0.1h3.3h0.1L132.5,178.7z M128.4,188.6h-6.5h-0.1l0-0.1l-0.1-1.2l0-0.1l0,0
	c0.1-0.1,0.2-0.2,0.3-0.3c0.1-0.1,0.3-0.1,0.4-0.2v-6.3c-0.2-0.1-0.3-0.1-0.4-0.2c-0.1-0.1-0.3-0.2-0.3-0.3l0,0l0-0.1l0.1-1.2l0-0.1
	h0.1h3.3h0.1l0,0.1l0.1,1.2l0,0.1l0,0c-0.1,0.1-0.2,0.2-0.3,0.3c-0.1,0.1-0.2,0.1-0.4,0.2v6.3h2c0.1-0.2,0.1-0.4,0.2-0.5h0
	c0.1-0.2,0.2-0.3,0.3-0.5l0.1,0l0.1,0l1,0.1l0.1,0v0.1v2.5v0.2H128.4z M116.6,181.3c0,0.1,0,0.2,0,0.3c-0.1,0.3-0.2,0.7-0.3,1.1l0,0
	l-0.5,1.6h1.6l-0.5-1.5h0c-0.1-0.3-0.2-0.7-0.3-1C116.7,181.6,116.6,181.4,116.6,181.3z M117.8,178.6l2.8,8.1
	c0.2,0.1,0.3,0.1,0.5,0.2c0.2,0.1,0.3,0.2,0.4,0.3l0,0l0,0.1l-0.1,1.2l0,0.1h-0.1h-3.3h-0.1l0-0.1l-0.1-1.2l0-0.1l0,0
	c0.1-0.1,0.2-0.2,0.3-0.3v0c0.1-0.1,0.2-0.1,0.3-0.2l-0.3-1h-2.6l-0.3,0.9c0.1,0.1,0.2,0.1,0.3,0.2l0,0c0.1,0.1,0.2,0.2,0.3,0.3l0,0
	l0,0.1l-0.1,1.2l0,0.1h-0.1h-3.2h-0.1l0-0.1l-0.1-1.2l0-0.1l0,0c0.1-0.1,0.2-0.2,0.4-0.3c0.2-0.1,0.3-0.2,0.5-0.2l2.7-8.1l0-0.1h0.1
	h1.9h0.1L117.8,178.6z M111.7,184.9c0,1.3-0.3,2.2-0.9,2.9c-0.3,0.3-0.7,0.6-1.2,0.7c-0.5,0.2-1,0.2-1.7,0.2c-1.3,0-2.2-0.3-2.8-0.9
	c-0.3-0.3-0.5-0.7-0.6-1.2c-0.1-0.5-0.2-1-0.2-1.7v-4.5c-0.1-0.1-0.3-0.1-0.4-0.2c-0.1-0.1-0.3-0.2-0.4-0.3l0,0l0-0.1l0.1-1.2l0-0.1
	h0.1h3.3h0.1l0,0.1l0.1,1.2l0,0.1l0,0c-0.1,0.1-0.2,0.2-0.3,0.3c-0.1,0.1-0.2,0.1-0.4,0.2v4.5c0,0.3,0,0.6,0.1,0.9h0
	c0.1,0.2,0.1,0.4,0.2,0.6l0,0c0.1,0.1,0.2,0.2,0.4,0.3h0c0.2,0.1,0.4,0.1,0.7,0.1c0.3,0,0.5,0,0.7-0.1c0.2-0.1,0.3-0.2,0.4-0.3
	c0.1-0.2,0.2-0.3,0.2-0.6l0,0c0.1-0.2,0.1-0.5,0.1-0.8v-4.5c-0.2-0.1-0.3-0.1-0.4-0.2c-0.1-0.1-0.3-0.2-0.3-0.3l0,0l0-0.1l0.1-1.2
	l0-0.1h0.1h3.1h0.1l0,0.1l0.1,1.2l0,0.1l0,0c-0.1,0.1-0.2,0.2-0.3,0.3c-0.1,0.1-0.2,0.1-0.4,0.2V184.9z M103.6,178.7v2v0.1l-0.1,0
	l-0.9,0.1l-0.1,0l0,0c-0.1-0.1-0.1-0.1-0.2-0.3h0c0-0.1-0.1-0.2-0.1-0.3h-1.5v6.3c0.2,0.1,0.3,0.1,0.4,0.2c0.1,0.1,0.3,0.2,0.3,0.3
	l0,0l0,0.1l-0.1,1.2l0,0.1h-0.1h-3.3h-0.1l0-0.1l-0.1-1.2l0-0.1l0,0c0.1-0.1,0.2-0.2,0.3-0.3c0.1-0.1,0.3-0.1,0.4-0.2v-6.3h-1.5
	c0,0.1-0.1,0.2-0.1,0.3v0c-0.1,0.1-0.1,0.2-0.2,0.3l0,0l-0.1,0l-0.9-0.1l-0.1,0v-0.1v-2v-0.1h0.1h7.9h0.1V178.7z M88.7,183.1v3.6
	c0.1,0.1,0.3,0.1,0.4,0.2h0c0.1,0.1,0.3,0.2,0.4,0.3l0,0l0,0.1l-0.1,1.1l0,0.1h-0.1h-2.8h-0.1l0-0.1l-0.1-1.1l0-0.1l0,0
	c0.1-0.1,0.2-0.2,0.4-0.3h0c0.1-0.1,0.2-0.1,0.4-0.2v-6.4c-0.2-0.1-0.3-0.1-0.4-0.2c-0.2-0.1-0.3-0.2-0.4-0.3l0,0l0-0.1l0.1-1.1
	l0-0.1h0.1h2.9h0.1l0,0.1l2.8,5.5c0.1,0.2,0.2,0.4,0.3,0.7h0c0.1,0.1,0.1,0.3,0.2,0.4c-0.1-0.5-0.1-0.9-0.1-1.3v-3.6
	c-0.1-0.1-0.3-0.1-0.4-0.2c-0.1-0.1-0.3-0.2-0.4-0.3l0,0l0-0.1l0.1-1.1l0-0.1h0.1h2.8h0.1l0,0.1l0.1,1.1l0,0.1l0,0
	c-0.1,0.1-0.2,0.2-0.4,0.3c-0.1,0.1-0.2,0.1-0.4,0.2v8.1v0.2h-0.1h-2.2H92l0-0.1l-2.8-5.5c-0.1-0.2-0.2-0.4-0.3-0.7
	c-0.1-0.1-0.1-0.3-0.2-0.4c0,0.1,0,0.2,0,0.3C88.7,182.5,88.7,182.8,88.7,183.1z M85,184.9c0,1.3-0.3,2.2-0.9,2.9
	c-0.3,0.3-0.7,0.6-1.2,0.7c-0.5,0.2-1,0.2-1.7,0.2c-1.3,0-2.2-0.3-2.8-0.9c-0.3-0.3-0.5-0.7-0.6-1.2c-0.1-0.5-0.2-1-0.2-1.7v-4.5
	c-0.1-0.1-0.3-0.1-0.4-0.2c-0.1-0.1-0.3-0.2-0.4-0.3l0,0l0-0.1l0.1-1.2l0-0.1h0.1h3.3h0.1l0,0.1l0.1,1.2l0,0.1l0,0
	c-0.1,0.1-0.2,0.2-0.3,0.3c-0.1,0.1-0.2,0.1-0.4,0.2v4.5c0,0.3,0,0.6,0.1,0.9l0,0c0.1,0.2,0.1,0.4,0.2,0.6l0,0
	c0.1,0.1,0.2,0.2,0.4,0.3l0,0c0.2,0.1,0.4,0.1,0.7,0.1s0.5,0,0.7-0.1c0.2-0.1,0.3-0.2,0.4-0.3c0.1-0.2,0.2-0.3,0.2-0.6l0,0
	c0.1-0.2,0.1-0.5,0.1-0.8v-4.5c-0.2-0.1-0.3-0.1-0.4-0.2c-0.1-0.1-0.3-0.2-0.3-0.3l0,0l0-0.1l0.1-1.2l0-0.1h0.1h3.1h0.1l0,0.1
	l0.1,1.2l0,0.1l0,0c-0.1,0.1-0.2,0.2-0.3,0.3c-0.1,0.1-0.2,0.1-0.4,0.2V184.9z M72.4,180.4h-0.7v3h0.8c0.3,0,0.6,0,0.8-0.1h0
	c0.2-0.1,0.4-0.1,0.5-0.3c0.1-0.1,0.2-0.3,0.3-0.5h0c0.1-0.2,0.1-0.5,0.1-0.8c0-0.3,0-0.5-0.1-0.7c-0.1-0.2-0.2-0.3-0.3-0.4l0,0
	c-0.2-0.1-0.4-0.2-0.6-0.2C73,180.4,72.7,180.4,72.4,180.4z M72.2,185.2h-0.5v1.4c0.3,0.1,0.6,0.1,0.7,0.2l0,0
	c0.2,0.1,0.4,0.2,0.5,0.3l0,0l0,0.1l-0.1,1.2l0,0.1h-0.1h-3.8h-0.1l0-0.1l-0.1-1.2l0-0.1l0,0c0.1-0.1,0.2-0.2,0.3-0.3
	c0.1-0.1,0.3-0.1,0.4-0.2v-6.3c-0.2-0.1-0.3-0.1-0.4-0.2c-0.1-0.1-0.3-0.2-0.3-0.3l0,0l0-0.1l0.1-1.2l0-0.1h0.1h3.8h0
	c0.7,0,1.3,0.1,1.8,0.2c0.5,0.1,0.9,0.3,1.3,0.5c0.3,0.2,0.6,0.6,0.8,1c0.2,0.4,0.3,0.9,0.3,1.5c0,1.1-0.4,2-1.1,2.5
	C74.8,184.9,73.6,185.2,72.2,185.2z"/>
<g>
	<path d="M36.9,241.5h-6.2c-0.2,0.7-0.4,1.4-0.7,2.1c-0.2,0.7-0.4,1.4-0.6,1.8c-0.2,0.1-0.4,0.1-0.6,0.2c-0.2,0.1-0.5,0.1-0.8,0.1
		c-0.6,0-1.1-0.1-1.5-0.4c-0.4-0.3-0.5-0.6-0.5-1.1c0-0.2,0-0.4,0.1-0.7c0.1-0.2,0.1-0.5,0.2-0.7c0.1-0.5,0.3-1.1,0.6-1.9
		c0.2-0.7,0.5-1.5,0.8-2.4s0.6-1.8,0.9-2.7c0.3-0.9,0.7-1.8,1-2.7c0.3-0.9,0.6-1.7,0.9-2.4s0.5-1.4,0.7-1.9c0.2-0.1,0.6-0.3,1.1-0.4
		c0.5-0.1,0.9-0.2,1.4-0.2c0.6,0,1.2,0.1,1.8,0.3c0.5,0.2,0.9,0.5,1,0.9c0.4,1,0.8,2.2,1.2,3.5c0.4,1.3,0.9,2.7,1.3,4.1
		c0.5,1.4,0.9,2.8,1.3,4.1c0.4,1.4,0.8,2.6,1.1,3.6c-0.2,0.2-0.4,0.4-0.8,0.5c-0.3,0.1-0.7,0.2-1.2,0.2c-0.6,0-1.1-0.1-1.4-0.3
		c-0.3-0.2-0.5-0.6-0.6-1.1L36.9,241.5z M33.8,231.6c-0.2,0.5-0.3,1-0.5,1.6c-0.2,0.6-0.4,1.2-0.6,1.8c-0.2,0.6-0.4,1.3-0.7,1.9
		c-0.2,0.6-0.4,1.3-0.6,1.9h4.8l-2.2-7.1H33.8z"/>
	<path d="M52.1,235.3c-0.5-0.4-1.1-0.6-1.8-0.6c-0.5,0-1,0.1-1.5,0.2s-0.8,0.3-1.2,0.5v10.1c-0.2,0-0.4,0.1-0.7,0.1
		s-0.6,0.1-0.9,0.1c-0.6,0-1.1-0.1-1.4-0.4c-0.3-0.2-0.5-0.7-0.5-1.3v-8.9c0-0.4,0.1-0.8,0.3-1.1c0.2-0.3,0.5-0.5,0.9-0.8
		c0.5-0.4,1.2-0.7,2.1-0.9s1.9-0.4,2.9-0.4c1.9,0,3.4,0.4,4.4,1.3c1,0.8,1.6,2.1,1.6,3.7v8.6c-0.1,0-0.4,0.1-0.7,0.1
		s-0.6,0.1-0.9,0.1c-0.7,0-1.2-0.1-1.5-0.4c-0.3-0.2-0.5-0.7-0.5-1.3v-7C52.8,236.3,52.5,235.7,52.1,235.3z"/>
	<path d="M63.9,242.7c0.4,0.3,0.9,0.4,1.5,0.4c0.3,0,0.6,0,1-0.1s0.6-0.2,0.9-0.3c0.1,0.1,0.3,0.3,0.4,0.5s0.2,0.5,0.2,0.7
		c0,0.6-0.3,1-0.7,1.4c-0.5,0.4-1.3,0.5-2.4,0.5c-1.5,0-2.6-0.3-3.5-1c-0.8-0.7-1.3-1.7-1.3-3.3v-12.8c0.1,0,0.4-0.1,0.7-0.1
		s0.6-0.1,0.9-0.1c0.6,0,1.1,0.1,1.4,0.4c0.3,0.2,0.5,0.7,0.5,1.3v2.3h4.1c0.1,0.1,0.2,0.3,0.2,0.6c0.1,0.2,0.1,0.5,0.1,0.8
		c0,0.5-0.1,0.8-0.3,1.1c-0.2,0.2-0.5,0.3-0.9,0.3h-3.2v6.1C63.3,242,63.5,242.5,63.9,242.7z"/>
</g>
<g>
	<path d="M73.1,240.5c0.3,0.9,0.7,1.6,1.4,2.1s1.6,0.6,2.6,0.6c0.8,0,1.5-0.1,2.2-0.3c0.7-0.2,1.2-0.5,1.6-0.7
		c0.3,0.1,0.5,0.4,0.6,0.6c0.2,0.3,0.2,0.5,0.2,0.8c0,0.4-0.1,0.7-0.4,1s-0.6,0.5-1,0.7c-0.4,0.2-0.9,0.4-1.5,0.5s-1.2,0.2-1.9,0.2
		c-1.1,0-2.1-0.1-3-0.4c-0.9-0.3-1.7-0.7-2.3-1.3s-1.1-1.3-1.5-2.2c-0.4-0.9-0.5-1.9-0.5-3.1c0-1.1,0.2-2.1,0.5-3
		c0.4-0.9,0.8-1.6,1.4-2.1c0.6-0.6,1.3-1,2.1-1.3c0.8-0.3,1.6-0.4,2.5-0.4c0.9,0,1.7,0.1,2.5,0.4s1.4,0.7,1.9,1.2
		c0.5,0.5,1,1.1,1.3,1.8c0.3,0.7,0.5,1.5,0.5,2.3c0,0.5-0.1,0.9-0.4,1.2c-0.3,0.3-0.6,0.4-1.1,0.5L73.1,240.5z M76.2,234.6
		c-0.9,0-1.7,0.3-2.3,0.9s-1,1.5-1,2.6l6.2-0.9c-0.1-0.7-0.3-1.3-0.8-1.8C77.7,234.9,77.1,234.6,76.2,234.6z"/>
	<path d="M97.4,234.8c-0.6,0-1.1,0.1-1.5,0.3c-0.5,0.2-0.9,0.5-1.2,0.8c-0.3,0.4-0.6,0.8-0.8,1.3c-0.2,0.5-0.3,1.1-0.3,1.8
		c0,1.4,0.4,2.4,1.1,3.1c0.7,0.7,1.7,1,2.8,1c0.6,0,1.2-0.1,1.7-0.3c0.5-0.2,0.9-0.4,1.3-0.6c0.3,0.2,0.5,0.4,0.6,0.6
		c0.2,0.2,0.2,0.5,0.2,0.8c0,0.6-0.4,1.1-1.1,1.6c-0.7,0.4-1.7,0.6-3,0.6c-1.1,0-2-0.1-2.9-0.4c-0.9-0.3-1.6-0.7-2.3-1.3
		c-0.6-0.6-1.1-1.3-1.5-2.2c-0.3-0.9-0.5-1.9-0.5-3c0-1.2,0.2-2.2,0.6-3.1c0.4-0.9,0.9-1.6,1.5-2.2s1.4-1,2.2-1.3
		c0.9-0.3,1.8-0.4,2.7-0.4c1.2,0,2.2,0.2,3,0.7c0.7,0.4,1.1,1,1.1,1.6c0,0.3-0.1,0.6-0.2,0.8c-0.2,0.2-0.3,0.4-0.5,0.6
		c-0.4-0.2-0.8-0.4-1.2-0.6C98.6,234.9,98,234.8,97.4,234.8z"/>
	<path d="M116,244c-0.1,0.3-0.4,0.5-0.8,0.8c-0.5,0.3-1.2,0.6-2,0.8c-0.8,0.2-1.8,0.3-2.8,0.3c-1,0-1.8-0.1-2.6-0.3
		c-0.8-0.2-1.4-0.5-2-1c-0.6-0.4-1-1-1.3-1.7c-0.3-0.7-0.4-1.5-0.4-2.4v-8.1c0.1-0.1,0.4-0.1,0.7-0.2c0.3,0,0.6-0.1,1-0.1
		c0.6,0,1.1,0.1,1.4,0.3c0.3,0.2,0.5,0.7,0.5,1.3v6.6c0,1,0.2,1.7,0.7,2.1c0.5,0.4,1.2,0.6,2.1,0.6c0.6,0,1.1-0.1,1.5-0.2
		c0.4-0.1,0.7-0.2,0.9-0.4v-10.2c0.1-0.1,0.4-0.1,0.7-0.2c0.3,0,0.6-0.1,0.9-0.1c0.7,0,1.2,0.1,1.5,0.3c0.3,0.2,0.5,0.7,0.5,1.3v9.1
		C116.2,243.4,116.1,243.7,116,244z"/>
	<path d="M124.8,232c1.8,0,3.3,0.4,4.3,1.2c1.1,0.8,1.6,2,1.6,3.6v6.4c0,0.4-0.1,0.8-0.3,1.1c-0.2,0.3-0.5,0.5-0.8,0.7
		c-0.5,0.3-1.2,0.6-2,0.8c-0.8,0.2-1.7,0.3-2.7,0.3c-1.8,0-3.3-0.4-4.4-1.1c-1.1-0.7-1.6-1.8-1.6-3.2c0-1.2,0.4-2.2,1.2-2.8
		c0.8-0.7,1.9-1.1,3.4-1.2l3.8-0.4v-0.5c0-0.7-0.3-1.2-0.8-1.6c-0.5-0.3-1.2-0.5-2.2-0.5c-0.7,0-1.4,0.1-2.1,0.3
		c-0.7,0.2-1.3,0.4-1.8,0.7c-0.2-0.1-0.4-0.3-0.5-0.6s-0.2-0.5-0.2-0.8c0-0.4,0.1-0.7,0.3-0.9s0.5-0.4,0.8-0.6
		c0.5-0.2,1.1-0.4,1.8-0.5C123.4,232,124.1,232,124.8,232z M124.9,243.3c0.5,0,1-0.1,1.5-0.2s0.8-0.2,1-0.4v-3.1l-2.7,0.3
		c-0.7,0.1-1.3,0.2-1.7,0.5c-0.4,0.3-0.6,0.6-0.6,1.2s0.2,1,0.6,1.3C123.4,243.1,124,243.3,124.9,243.3z"/>
	<path d="M137.2,245.6c-0.3,0.1-0.6,0.1-0.9,0.1c-0.7,0-1.2-0.1-1.5-0.4c-0.3-0.2-0.5-0.7-0.5-1.3v-16.6c0.1-0.1,0.4-0.1,0.7-0.2
		c0.3,0,0.6-0.1,0.9-0.1c0.7,0,1.2,0.1,1.5,0.4c0.3,0.2,0.5,0.7,0.5,1.3v16.6C137.7,245.5,137.5,245.6,137.2,245.6z"/>
	<path d="M153.8,250.6c-0.1,0-0.4,0.1-0.7,0.1s-0.6,0.1-0.9,0.1c-0.7,0-1.2-0.1-1.5-0.4c-0.3-0.2-0.5-0.7-0.5-1.3v-3.8
		c-0.4,0.1-0.8,0.3-1.2,0.4s-1,0.2-1.5,0.2c-1,0-1.8-0.1-2.7-0.4c-0.8-0.3-1.5-0.7-2.1-1.3c-0.6-0.6-1-1.3-1.4-2.2
		c-0.3-0.9-0.5-1.9-0.5-3.1c0-1.2,0.2-2.2,0.5-3.1c0.4-0.9,0.8-1.6,1.5-2.2c0.6-0.6,1.4-1,2.2-1.3c0.9-0.3,1.8-0.4,2.9-0.4
		c1,0,1.9,0.1,2.7,0.3s1.5,0.5,2,0.8c0.3,0.2,0.6,0.4,0.8,0.7c0.2,0.3,0.3,0.6,0.3,1.1V250.6z M148.1,243.1c0.5,0,0.9-0.1,1.2-0.2
		s0.7-0.3,1-0.5v-7.2c-0.2-0.1-0.5-0.3-0.9-0.4s-0.8-0.2-1.2-0.2c-1.1,0-2,0.3-2.6,1c-0.7,0.7-1,1.8-1,3.2c0,1.4,0.3,2.5,1,3.2
		C146.1,242.8,147,243.1,148.1,243.1z"/>
	<path d="M169.3,244c-0.1,0.3-0.4,0.5-0.8,0.8c-0.5,0.3-1.2,0.6-2,0.8c-0.8,0.2-1.8,0.3-2.8,0.3c-1,0-1.8-0.1-2.6-0.3
		c-0.8-0.2-1.4-0.5-2-1s-1-1-1.3-1.7c-0.3-0.7-0.4-1.5-0.4-2.4v-8.1c0.1-0.1,0.4-0.1,0.7-0.2c0.3,0,0.6-0.1,1-0.1
		c0.6,0,1.1,0.1,1.4,0.3c0.3,0.2,0.5,0.7,0.5,1.3v6.6c0,1,0.2,1.7,0.7,2.1c0.5,0.4,1.2,0.6,2.1,0.6c0.6,0,1.1-0.1,1.5-0.2
		c0.4-0.1,0.7-0.2,0.9-0.4v-10.2c0.1-0.1,0.4-0.1,0.7-0.2c0.3,0,0.6-0.1,0.9-0.1c0.7,0,1.2,0.1,1.5,0.3c0.3,0.2,0.5,0.7,0.5,1.3v9.1
		C169.5,243.4,169.4,243.7,169.3,244z"/>
	<path d="M172.9,228.4c0-0.5,0.2-1,0.6-1.4c0.4-0.4,0.9-0.6,1.5-0.6c0.6,0,1.1,0.2,1.4,0.6c0.4,0.4,0.6,0.8,0.6,1.4
		c0,0.6-0.2,1-0.6,1.4c-0.4,0.4-0.9,0.6-1.4,0.6c-0.6,0-1.1-0.2-1.5-0.6C173.1,229.5,172.9,229,172.9,228.4z M173.1,232.5
		c0.1,0,0.4-0.1,0.7-0.1c0.3-0.1,0.6-0.1,0.9-0.1c0.7,0,1.2,0.1,1.5,0.4c0.3,0.2,0.5,0.7,0.5,1.3v11.6c-0.1,0-0.4,0.1-0.7,0.1
		c-0.3,0.1-0.6,0.1-0.9,0.1c-0.7,0-1.2-0.1-1.5-0.4c-0.3-0.2-0.5-0.7-0.5-1.3V232.5z"/>
	<path d="M183.1,240.5c0.3,0.9,0.7,1.6,1.4,2.1s1.6,0.6,2.6,0.6c0.8,0,1.5-0.1,2.1-0.3s1.2-0.5,1.6-0.7c0.3,0.1,0.5,0.4,0.6,0.6
		c0.2,0.3,0.3,0.5,0.3,0.8c0,0.4-0.1,0.7-0.4,1c-0.3,0.3-0.6,0.5-1,0.7c-0.4,0.2-0.9,0.4-1.5,0.5c-0.6,0.1-1.2,0.2-1.9,0.2
		c-1.1,0-2.1-0.1-3-0.4c-0.9-0.3-1.7-0.7-2.3-1.3c-0.6-0.6-1.1-1.3-1.5-2.2c-0.4-0.9-0.5-1.9-0.5-3.1c0-1.1,0.2-2.1,0.5-3
		c0.4-0.9,0.8-1.6,1.4-2.1c0.6-0.6,1.3-1,2.1-1.3c0.8-0.3,1.6-0.4,2.5-0.4c0.9,0,1.7,0.1,2.5,0.4s1.4,0.7,1.9,1.2
		c0.5,0.5,1,1.1,1.3,1.8c0.3,0.7,0.5,1.5,0.5,2.3c0,0.5-0.1,0.9-0.4,1.2c-0.3,0.3-0.6,0.4-1.1,0.5L183.1,240.5z M186.2,234.6
		c-0.9,0-1.7,0.3-2.3,0.9s-1,1.5-1,2.6l6.2-0.9c-0.1-0.7-0.3-1.3-0.8-1.8C187.8,234.9,187.1,234.6,186.2,234.6z"/>
	<path d="M198.6,245.5c-0.2,0-0.4,0.1-0.7,0.1s-0.6,0.1-0.9,0.1c-0.6,0-1.1-0.1-1.4-0.4c-0.3-0.2-0.5-0.7-0.5-1.3v-8.8
		c0-0.5,0.1-0.9,0.3-1.2c0.2-0.3,0.5-0.6,1-0.9c0.6-0.4,1.3-0.6,2.1-0.9c0.8-0.2,1.8-0.3,2.7-0.3c1.8,0,2.6,0.5,2.6,1.6
		c0,0.3,0,0.5-0.1,0.7c-0.1,0.2-0.2,0.4-0.3,0.6c-0.4-0.1-1-0.1-1.6-0.1c-0.6,0-1.3,0.1-1.8,0.2s-1.1,0.3-1.5,0.6V245.5z"/>
</g>
<g>
	<path d="M90.6,268.5c-0.6,0-1.1,0.1-1.5,0.3c-0.5,0.2-0.9,0.5-1.2,0.8c-0.3,0.4-0.6,0.8-0.8,1.3c-0.2,0.5-0.3,1.1-0.3,1.8
		c0,1.4,0.4,2.4,1.1,3.1c0.7,0.7,1.7,1,2.8,1c0.6,0,1.2-0.1,1.7-0.3c0.5-0.2,0.9-0.4,1.3-0.6c0.3,0.2,0.5,0.4,0.6,0.6
		c0.2,0.2,0.2,0.5,0.2,0.8c0,0.6-0.4,1.1-1.1,1.6c-0.7,0.4-1.7,0.6-3,0.6c-1.1,0-2-0.1-2.9-0.4c-0.9-0.3-1.6-0.7-2.3-1.3
		c-0.6-0.6-1.1-1.3-1.5-2.2c-0.3-0.9-0.5-1.9-0.5-3c0-1.2,0.2-2.2,0.6-3.1c0.4-0.9,0.9-1.6,1.5-2.2s1.4-1,2.2-1.3
		c0.9-0.3,1.8-0.4,2.7-0.4c1.2,0,2.2,0.2,3,0.7c0.7,0.4,1.1,1,1.1,1.6c0,0.3-0.1,0.6-0.2,0.8c-0.2,0.2-0.3,0.4-0.5,0.6
		c-0.4-0.2-0.8-0.4-1.2-0.6C91.8,268.6,91.2,268.5,90.6,268.5z"/>
	<path d="M100.3,279.4c-0.3,0.1-0.6,0.1-0.9,0.1c-0.7,0-1.2-0.1-1.5-0.4c-0.3-0.2-0.5-0.7-0.5-1.3v-16.6c0.1-0.1,0.4-0.1,0.7-0.2
		c0.3,0,0.6-0.1,0.9-0.1c0.7,0,1.2,0.1,1.5,0.4c0.3,0.2,0.5,0.7,0.5,1.3v16.6C100.8,279.3,100.5,279.4,100.3,279.4z"/>
	<path d="M104.5,262.2c0-0.5,0.2-1,0.6-1.4c0.4-0.4,0.9-0.6,1.5-0.6s1.1,0.2,1.4,0.6c0.4,0.4,0.6,0.8,0.6,1.4c0,0.6-0.2,1-0.6,1.4
		c-0.4,0.4-0.9,0.6-1.4,0.6s-1.1-0.2-1.5-0.6C104.6,263.2,104.5,262.8,104.5,262.2z M104.7,266.2c0.1,0,0.4-0.1,0.7-0.1
		c0.3-0.1,0.6-0.1,0.9-0.1c0.7,0,1.2,0.1,1.5,0.4c0.3,0.2,0.5,0.7,0.5,1.3v11.6c-0.1,0-0.4,0.1-0.7,0.1c-0.3,0.1-0.6,0.1-0.9,0.1
		c-0.7,0-1.2-0.1-1.5-0.4c-0.3-0.2-0.5-0.7-0.5-1.3V266.2z"/>
	<path d="M131.4,279.3c-0.1,0-0.4,0.1-0.7,0.1s-0.6,0.1-0.9,0.1c-0.7,0-1.2-0.1-1.5-0.4c-0.3-0.2-0.5-0.7-0.5-1.3v-7.2
		c0-0.7-0.2-1.3-0.6-1.6c-0.4-0.3-0.9-0.5-1.6-0.5c-0.4,0-0.9,0.1-1.3,0.3c-0.4,0.2-0.8,0.4-1.1,0.7c0.1,0.3,0.1,0.5,0.1,0.8v9.1
		c-0.1,0-0.4,0.1-0.7,0.1c-0.3,0.1-0.6,0.1-0.9,0.1c-0.7,0-1.2-0.1-1.5-0.4c-0.3-0.2-0.5-0.7-0.5-1.3v-7.2c0-0.7-0.2-1.3-0.6-1.6
		c-0.4-0.3-1-0.5-1.6-0.5c-0.5,0-0.9,0.1-1.3,0.2c-0.4,0.1-0.7,0.3-1,0.4v10.1c-0.2,0-0.4,0.1-0.7,0.1s-0.6,0.1-0.9,0.1
		c-0.6,0-1.1-0.1-1.4-0.4c-0.3-0.2-0.5-0.7-0.5-1.3v-8.9c0-0.4,0.1-0.8,0.3-1.1c0.2-0.3,0.5-0.6,0.9-0.8c0.6-0.4,1.3-0.7,2.1-0.9
		s1.7-0.4,2.6-0.4c1.7,0,3.1,0.5,4.1,1.4c0.5-0.4,1.2-0.7,1.8-1c0.7-0.3,1.5-0.4,2.5-0.4c0.7,0,1.4,0.1,2.1,0.3
		c0.6,0.2,1.2,0.5,1.7,0.8s0.8,0.9,1.1,1.5s0.4,1.3,0.4,2.2V279.3z"/>
	<path d="M140,265.7c1.8,0,3.3,0.4,4.3,1.2c1.1,0.8,1.6,2,1.6,3.6v6.4c0,0.4-0.1,0.8-0.3,1.1c-0.2,0.3-0.5,0.5-0.8,0.7
		c-0.5,0.3-1.2,0.6-2,0.8c-0.8,0.2-1.7,0.3-2.7,0.3c-1.8,0-3.3-0.4-4.4-1.1c-1.1-0.7-1.6-1.8-1.6-3.2c0-1.2,0.4-2.2,1.2-2.8
		c0.8-0.7,1.9-1.1,3.4-1.2l3.8-0.4v-0.5c0-0.7-0.3-1.2-0.8-1.6c-0.5-0.3-1.2-0.5-2.2-0.5c-0.7,0-1.4,0.1-2.1,0.3
		c-0.7,0.2-1.3,0.4-1.8,0.7c-0.2-0.1-0.4-0.3-0.5-0.6s-0.2-0.5-0.2-0.8c0-0.4,0.1-0.7,0.3-0.9s0.5-0.4,0.8-0.6
		c0.5-0.2,1.1-0.4,1.8-0.5C138.6,265.8,139.3,265.7,140,265.7z M140.1,277c0.5,0,1-0.1,1.5-0.2s0.8-0.2,1-0.4v-3.1l-2.7,0.3
		c-0.7,0.1-1.3,0.2-1.7,0.5c-0.4,0.3-0.6,0.6-0.6,1.2s0.2,1,0.6,1.3C138.6,276.9,139.2,277,140.1,277z"/>
</g>
<path class="st0" d="M183,103.5c-0.4,0-0.9,0-1.3,0.1c-2.1-4-6.3-6.6-10.8-6.5c-4.5,0.1-8.6,2.7-10.6,6.9c-0.9-0.3-1.9-0.5-2.8-0.5
	c-4.4-0.1-8.1,3.4-8.3,7.8c0,0.7,0.1,1.3,0.3,2c0.2,0.6,0.7,1.1,1.4,1.1h38.6c0.7,0,1.2-0.4,1.4-1.1c0.2-0.6,0.3-1.3,0.3-2
	C191.1,106.9,187.4,103.4,183,103.5 M106.2,73.8h46.1c0.4,0.2,0.8,0.4,1.2,0.7c0.6,0.5,1.2,1.1,1.7,1.7c1,1.4,2.4,2.4,3.9,3.1
	c0.6,0.2,1.2,0.3,1.8,0.3c1,0,2.1-0.2,3.1-0.4c0.8-0.2,1.7-0.3,2.6-0.4c0.6,0,1.3,0.1,1.9,0.2l-0.8,1.5c-2.2,4.4-1,9.7,2.8,12.8
	c3.8,3.1,9.2,3.1,13,0c3.8-3.1,5-8.4,2.8-12.8l-3.7-7.4c1.3-0.5,2.5-1.4,3.5-2.5c0.9-1.4,1.3-3.1,1.4-4.7c0.1-0.8,0.2-1.7,0.4-2.5
	c0.3-0.8,0.7-1.5,1.1-2.2c1-1.4,1.6-3,1.7-4.7c-0.1-1.7-0.7-3.3-1.7-4.7c-0.4-0.7-0.8-1.4-1.1-2.2c-0.2-0.8-0.4-1.7-0.4-2.5
	c0-1.7-0.5-3.3-1.4-4.7c-1.1-1.3-2.5-2.2-4.1-2.8c-0.8-0.3-1.5-0.7-2.2-1.1c-0.6-0.5-1.2-1.1-1.7-1.7c-1-1.4-2.4-2.4-3.9-3.1
	c-1.6-0.4-3.3-0.3-4.9,0.2c-0.8,0.2-1.7,0.3-2.6,0.4c-0.9,0-1.7-0.2-2.6-0.4c-1.6-0.5-3.3-0.6-4.9-0.2c-1.6,0.7-2.9,1.7-3.9,3.1
	c-0.5,0.6-1.1,1.2-1.7,1.7c-0.7,0.5-1.4,0.8-2.2,1.1c-1.6,0.5-3,1.5-4.1,2.8c-0.9,1.4-1.3,3.1-1.4,4.7c-0.1,0.7-0.2,1.5-0.3,2.2
	c-2.3-1-4.7-1.5-7.2-1.5c-7.4-0.1-14,4.4-16.7,11.3c-1.6-0.7-3.3-1-5-1c-6.6-0.1-12.1,5.1-12.3,11.7c0,1,0.2,2,0.4,3
	C105,73.4,105.6,73.8,106.2,73.8z M183.4,89.1c-2.1,3.4-6.5,4.6-10,2.6c-3.5-2-4.8-6.3-3-9.9l6.6-13.2c0,0,0.1-0.1,0.1-0.1l6.7,13.4
	C184.9,84.1,184.8,86.9,183.4,89.1z M177.4,63.8c-0.6-0.2-1.3,0.1-1.6,0.7l-1.1,2.2c-5.4,4.2-13,3.5-17.5-1.5
	c-4.6-5-4.5-12.7,0.2-17.6c4.6-4.9,12.3-5.5,17.6-1.2C180.1,50.6,181.2,58.2,177.4,63.8z M148.2,50.4c0.3-1,0.5-2.1,0.5-3.1
	c0-1.2,0.3-2.3,0.8-3.3c0.8-0.8,1.8-1.5,2.9-1.8c1-0.4,1.9-0.9,2.8-1.5c0.8-0.6,1.6-1.4,2.2-2.2c0.7-1,1.6-1.7,2.7-2.2
	c1.1-0.2,2.3-0.1,3.4,0.3c1,0.3,2.1,0.4,3.2,0.5c1.1,0,2.1-0.2,3.2-0.5c1.1-0.4,2.2-0.4,3.4-0.3c1.1,0.5,2,1.3,2.7,2.2
	c0.7,0.8,1.4,1.5,2.2,2.2c0.9,0.6,1.8,1.1,2.8,1.5c1.1,0.4,2.1,1,2.9,1.8c0.5,1,0.8,2.2,0.8,3.3c0.1,1.1,0.2,2.1,0.5,3.1
	c0.3,1,0.8,1.9,1.4,2.7c0.7,1,1.2,2.1,1.3,3.3c-0.2,1.2-0.6,2.3-1.3,3.3c-0.6,0.9-1,1.8-1.4,2.7c-0.3,1-0.5,2.1-0.5,3.1
	c0,1.2-0.3,2.3-0.8,3.3c-0.7,0.7-1.5,1.3-2.4,1.6l-2.1-4.3c4.9-6.3,4.4-15.3-1.2-21c-5.6-5.7-14.5-6.4-21-1.7
	c-6.4,4.8-8.3,13.6-4.5,20.6c3.9,7,12.3,10.1,19.8,7.2l-2.5,5h0c-1-0.3-2.1-0.4-3.2-0.5c-1.1,0-2.1,0.2-3.2,0.5
	c-1.1,0.4-2.2,0.4-3.4,0.3c-1.1-0.5-2-1.3-2.7-2.2c-0.7-0.8-1.4-1.5-2.2-2.2c-0.6-0.4-1.3-0.8-1.9-1.1c0,0-0.1,0-0.1,0
	c-0.3-0.1-0.5-0.2-0.7-0.3c-1.1-0.4-2.1-1-2.9-1.8c-0.5-1-0.8-2.2-0.8-3.3c-0.1-1.1-0.2-2.1-0.5-3.1c-0.4-1-0.8-1.9-1.4-2.7
	c-0.7-1-1.2-2.1-1.3-3.3c0.2-1.2,0.6-2.3,1.3-3.3C147.4,52.3,147.8,51.4,148.2,50.4z M116.7,60.9c1.8,0,3.6,0.5,5.1,1.4
	c0.4,0.2,0.9,0.3,1.3,0.1c0.4-0.2,0.7-0.5,0.9-1c1.7-6.5,7.7-11,14.4-10.8c2,0,4,0.4,5.9,1.2c-0.9,1.3-1.5,2.9-1.6,4.6
	c0.1,1.7,0.7,3.3,1.7,4.7c0.4,0.7,0.8,1.4,1.1,2.2c0.2,0.8,0.4,1.7,0.4,2.5c0,1.7,0.5,3.3,1.4,4.7c0.1,0.1,0.2,0.2,0.3,0.4h-40.1
	c-0.1-0.4-0.1-0.7-0.1-1.1C107.5,64.7,111.7,60.8,116.7,60.9z M176.8,88.3c-0.8,0-1.4,0.6-1.4,1.4s0.6,1.4,1.4,1.4l0,0
	c0.8,0,1.4-0.7,1.4-1.5C178.2,88.9,177.6,88.3,176.8,88.3z M180.1,85.3c-0.1,0.7-0.6,1.4-1.2,1.8c-0.7,0.4-0.8,1.3-0.4,2
	c0.4,0.7,1.3,0.8,2,0.4c1.3-0.8,2.2-2.2,2.5-3.7c0.6-3.3-1.9-6.7-2.1-7.1c-0.5-0.6-1.4-0.8-2-0.3c-0.6,0.5-0.8,1.4-0.3,2
	C179.6,81.8,180.1,83.5,180.1,85.3z M121.7,78.8L121.7,78.8c0.3-0.3,0.5-0.7,0.5-1.1c0-0.4-0.2-0.7-0.4-1c-0.6-0.6-1.5-0.5-2.1,0
	c-0.4,0.4-0.5,0.9-0.4,1.4c0.1,0.5,0.5,0.9,1,1C120.8,79.3,121.4,79.2,121.7,78.8z M111.1,98.5c-0.2,0.1-0.3,0.2-0.5,0.3
	c-0.6,0.6-0.6,1.5,0,2.1c0.1,0.1,0.3,0.2,0.5,0.3c0.4,0.2,0.8,0.2,1.1,0c0.2-0.1,0.3-0.2,0.5-0.3c0.1-0.1,0.1-0.1,0.2-0.2
	c0.1-0.1,0.1-0.2,0.1-0.2c0-0.1,0.1-0.2,0.1-0.3c0-0.1,0-0.2,0-0.3c0-0.4-0.2-0.8-0.4-1c-0.1-0.1-0.3-0.2-0.5-0.3
	C111.8,98.4,111.4,98.4,111.1,98.5z M146.4,89.7c0.7,0,1.3-0.5,1.4-1.2c0.1-0.7-0.2-1.3-0.9-1.6c-0.6-0.3-1.4,0-1.7,0.5
	s-0.3,1.3,0.2,1.8C145.6,89.6,146,89.7,146.4,89.7z M121.8,102.8c0.7,0,1.3-0.5,1.4-1.2c0.1-0.7-0.2-1.3-0.9-1.6
	c-0.6-0.3-1.4,0-1.7,0.5c-0.4,0.6-0.3,1.3,0.2,1.8C121,102.6,121.4,102.8,121.8,102.8z M105.9,94.1c0.4,0,0.8-0.2,1-0.4l11.6-11.6
	c0.5-0.6,0.5-1.5,0-2c-0.6-0.6-1.5-0.6-2,0l-11.6,11.6c-0.4,0.4-0.5,1-0.3,1.6C104.7,93.7,105.3,94.1,105.9,94.1z M115.4,96.2
	c0.6,0.6,1.5,0.6,2,0l17-17c0.5-0.6,0.5-1.5,0-2c-0.6-0.6-1.5-0.6-2,0l-17,17C114.8,94.7,114.8,95.6,115.4,96.2z M123.6,112.5
	c0.4,0,0.8-0.2,1-0.4l18.4-18.4c0.5-0.6,0.5-1.5,0-2c-0.6-0.6-1.5-0.6-2,0l-18.4,18.4c-0.4,0.4-0.5,1-0.3,1.6
	C122.5,112.2,123,112.5,123.6,112.5z M145.6,77.5c-0.6-0.6-1.5-0.6-2,0L125.1,96c-0.4,0.4-0.5,0.9-0.4,1.4c0.1,0.5,0.5,0.9,1,1
	c0.5,0.1,1,0,1.4-0.4l18.4-18.4C146.1,79,146.1,78.1,145.6,77.5z M106,43.4h25.7c0.7,0,1.2-0.4,1.4-1.1c0.1-0.5,0.2-1,0.2-1.5
	c0-1.7-0.7-3.3-1.9-4.4c-1.2-1.1-2.9-1.7-4.6-1.5c-1.4-2.8-4.3-4.6-7.5-4.6c-3.2,0-6,1.9-7.4,4.8c-0.6-0.2-1.1-0.2-1.7-0.2
	c-1.4,0.1-2.7,0.6-3.7,1.6c-1.8,1.4-2.6,3.7-2,5.9C104.8,42.9,105.4,43.4,106,43.4z M108.6,38.5c0.5-0.5,1.1-0.7,1.7-0.8
	c0.6,0,1.2,0.2,1.7,0.5c0.4,0.3,0.9,0.3,1.3,0.1c0.4-0.2,0.8-0.6,0.9-1c0.6-2.3,2.6-4,5-4.1c2.4-0.1,4.6,1.4,5.3,3.7
	c0.1,0.4,0.4,0.7,0.7,0.9c0.3,0.2,0.8,0.2,1.1,0.1c0.9-0.3,1.9-0.2,2.6,0.3c0.8,0.5,1.3,1.3,1.4,2.3l-23.1,0
	C107.5,39.7,108,39,108.6,38.5z M188.3,111.5h-36.2c0-0.1,0-0.1,0-0.1c0.1-2.8,2.5-5,5.4-4.9c1,0,2,0.3,2.9,0.8
	c0.4,0.2,0.9,0.3,1.3,0.1c0.4-0.2,0.7-0.5,0.9-1c1.1-3.6,4.4-6.2,8.2-6.3c3.8-0.1,7.3,2.2,8.6,5.7c0.3,0.8,1.1,1.2,1.8,0.9
	c0.6-0.2,1.1-0.3,1.7-0.3c2.8-0.1,5.2,2.1,5.3,4.9L188.3,111.5L188.3,111.5z"/>
<path class="st0" d="M52.6,119v23.5c0,1.6,1.3,2.9,2.9,2.9h8.8v-29.3h-8.8C54,116.1,52.6,117.4,52.6,119"/>
<path class="st0" d="M94.1,119h-8.7c-0.8,0-1.1-0.5-1.3-0.7c-0.1-0.2-0.4-0.8,0-1.5l3.1-5.5c0.7-1.2,0.7-2.6,0.2-3.9
	c-0.5-1.3-1.6-2.2-3-2.5l-2.2-0.5c-0.5-0.1-1.1,0-1.4,0.4l-11.7,13c-1.2,1.4-1.9,3.1-1.9,4.9v15.3c0,4,3.3,7.3,7.3,7.3l14.6,0
	c3.3,0,6.2-2.2,7.1-5.4l3.1-14.4c0.1-0.4,0.1-0.8,0.1-1.2C99.5,121.5,97.1,119,94.1,119"/>
<path class="st0" d="M81.4,37.6c-11.3,1.7-14-3.2-18.7-7.3c-2.7,1.4-2.9,3.6-7,5.7c-4.4,2.2-6.9,2.3-11.8,1.4c1,9-1.1,13.4-7.3,18.7
	c1,1.2,1.9,1.3,3.3,3.3c0.5,0.7,1.9,2.7,2.5,4c1.7,3.4,2,7.2,1.5,11.4c14.1-1.1,15.1,5.7,19.4,7.9C64.9,77.4,73,73.4,81,75
	c-0.5-5.7,0.1-11.3,4.2-15.3l3.5-3.8c-2.6-1-4.5-3.4-6.1-6.7C80.8,45.3,80.5,42,81.4,37.6 M65.8,69.7c16.4-4.1,12.5-30.2-5.9-27.2
	C53,43.7,47.1,51,49,59.2C50.4,65.9,57.1,71.9,65.8,69.7z M59.9,38.8c10.2-1.5,18.6,5.9,19.9,14.3c2.7,17.2-17.2,26.4-28,17
	C38.3,58.3,46.8,40.7,59.9,38.8"/>
</svg>
