<?xml version="1.0" encoding="utf-8"?>
<!-- Generator: Adobe Illustrator 16.0.0, SVG Export Plug-In . SVG Version: 6.00 Build 0)  -->
<!DOCTYPE svg PUBLIC "-//W3C//DTD SVG 1.1//EN" "http://www.w3.org/Graphics/SVG/1.1/DTD/svg11.dtd">
<svg version="1.1" id="Capa_1" xmlns="http://www.w3.org/2000/svg" xmlns:xlink="http://www.w3.org/1999/xlink" x="0px" y="0px"
	 width="230px" height="310px" viewBox="0 0 230 310" style="enable-background:new 0 0 230 310;" xml:space="preserve">
<style type="text/css">
<![CDATA[
	.st0{fill:none;stroke:#403F41;stroke-width:0.216;stroke-miterlimit:22.9256;}
	.st1{fill-rule:evenodd;clip-rule:evenodd;fill:#E5E6E7;}
	.st2{fill-rule:evenodd;clip-rule:evenodd;}
	.st3{fill:none;stroke:#221E1F;stroke-width:0.5669;stroke-miterlimit:22.9256;}
	.st4{fill-rule:evenodd;clip-rule:evenodd;fill:#FFF100;}
	.st5{fill-rule:evenodd;clip-rule:evenodd;fill:#FFFFFF;}
]]>
</style>
<path class="st1" d="M11.4,0h207.3c6.2,0,11.4,5.1,11.4,11.4v287.3c0,6.3-5.1,11.4-11.4,11.4H11.4C5.1,310,0,304.9,0,298.6V11.4
	C0,5.1,5.1,0,11.4,0"/>
<path class="st4" d="M18.1,10h193.9c5.8,0,10.6,4.8,10.6,10.6v268.6c0,5.9-4.8,10.6-10.6,10.6H18.1c-5.8,0-10.6-4.8-10.6-10.6V20.7
	C7.4,14.8,12.2,10,18.1,10z"/>
<path class="st0" d="M18.1,10h193.9c5.8,0,10.6,4.8,10.6,10.6v268.6c0,5.9-4.8,10.6-10.6,10.6H18.1c-5.8,0-10.6-4.8-10.6-10.6V20.7
	C7.4,14.8,12.2,10,18.1,10z"/>
<path class="st2" d="M63.1,205.8h101.2c1.4,0,2.5-1.1,2.5-2.5v-16.8c0-1.4-1.1-2.5-2.5-2.5H63.1c-1.4,0-2.5,1.1-2.5,2.5v16.8
	C60.6,204.7,61.7,205.8,63.1,205.8z"/>
<path class="st3" d="M63.1,205.8h101.2c1.4,0,2.5-1.1,2.5-2.5v-16.8c0-1.4-1.1-2.5-2.5-2.5H63.1c-1.4,0-2.5,1.1-2.5,2.5v16.8
	C60.6,204.7,61.7,205.8,63.1,205.8z"/>
<path class="st5" d="M151.2,193.1c-0.2,0.2-0.3,0.6-0.4,1c-0.1,0.4-0.1,1-0.1,1.6c0,0.6,0,1.2,0.1,1.6c0.1,0.4,0.2,0.8,0.4,1.1
	c0.2,0.3,0.4,0.5,0.6,0.6l0,0c0.2,0.1,0.5,0.2,0.8,0.2s0.6-0.1,0.8-0.2c0.2-0.1,0.4-0.3,0.6-0.6h0c0.2-0.3,0.3-0.6,0.4-1
	c0.1-0.4,0.1-1,0.1-1.6c0-1.2-0.2-2-0.5-2.6c-0.3-0.5-0.8-0.8-1.5-0.8c-0.3,0-0.6,0.1-0.8,0.2C151.6,192.7,151.4,192.9,151.2,193.1
	 M152.5,201.2c-0.7,0-1.3-0.1-1.9-0.3c-0.5-0.2-1-0.5-1.4-0.9c-0.4-0.4-0.6-1-0.8-1.6c-0.2-0.7-0.3-1.5-0.3-2.4
	c0-0.9,0.1-1.7,0.3-2.4c0.2-0.7,0.5-1.3,0.9-1.7c0.4-0.4,0.9-0.8,1.4-1c0.6-0.2,1.2-0.3,1.9-0.3c0.7,0,1.4,0.1,1.9,0.3
	c0.5,0.2,1,0.5,1.4,0.9c0.7,0.8,1.1,2.1,1.1,4c0,0.9-0.1,1.7-0.3,2.4c-0.2,0.7-0.5,1.3-0.9,1.8c-0.4,0.5-0.9,0.8-1.5,1.1
	C153.9,201.1,153.2,201.2,152.5,201.2z M140.9,195.4v3.8c0.2,0.1,0.3,0.1,0.4,0.2c0.1,0.1,0.3,0.2,0.4,0.3l0,0l0,0.1l-0.1,1.1l0,0.1
	h-0.1h-2.9h-0.1l0-0.1l-0.1-1.1l0-0.1l0,0c0.1-0.1,0.2-0.2,0.4-0.3h0c0.1-0.1,0.3-0.2,0.4-0.2v-6.6c-0.2-0.1-0.3-0.1-0.4-0.2
	c-0.2-0.1-0.3-0.2-0.4-0.3l0,0l0-0.1l0.1-1.1l0-0.1h0.1h3h0.1l0,0.1l2.9,5.7c0.1,0.2,0.2,0.5,0.3,0.7c0.1,0.2,0.1,0.3,0.2,0.5
	c0-0.1,0-0.3,0-0.4c0-0.4-0.1-0.7-0.1-1v-3.7c-0.1-0.1-0.3-0.1-0.4-0.2c-0.1-0.1-0.3-0.2-0.4-0.3l0,0l0-0.1l0.1-1.1l0-0.1h0.1h2.9
	h0.1l0,0.1l0.1,1.1l0,0.1l0,0.1c-0.1,0.1-0.2,0.2-0.4,0.3c-0.1,0.1-0.3,0.2-0.4,0.2v8.4v0.1h-0.2h-2.3h-0.1l0-0.1l-3-5.8l0,0
	c-0.1-0.2-0.2-0.5-0.3-0.7c-0.1-0.2-0.1-0.3-0.2-0.5c0,0.1,0,0.3,0,0.4C140.9,194.7,140.9,195.1,140.9,195.4z M139.9,188.2
	c0.1-0.1,0.1-0.1,0.2-0.2c0.1-0.1,0.2-0.2,0.4-0.2c0.2-0.1,0.3-0.2,0.5-0.2l0,0c0.2,0,0.3-0.1,0.5-0.1c0.3,0,0.7,0.1,1.2,0.2
	c0.2,0.1,0.4,0.1,0.6,0.1c0.2,0,0.3,0,0.5,0c0.3,0,0.5,0,0.7-0.1c0.2,0,0.4-0.1,0.6-0.2l0.2-0.1l0.1-0.1l0.1,0.1l0.6,0.9l0.1,0.1
	l-0.1,0.1c0,0-0.1,0.1-0.1,0.1c-0.1,0.1-0.1,0.1-0.2,0.2c-0.1,0.1-0.2,0.1-0.3,0.2h0c-0.1,0.1-0.2,0.1-0.2,0.2l0,0
	c-0.2,0.1-0.4,0.2-0.6,0.3c-0.2,0.1-0.4,0.1-0.6,0.1c-0.4,0-0.8-0.1-1.3-0.2c-0.5-0.1-0.8-0.2-1-0.2c-0.4,0-0.8,0.1-1.1,0.3l0,0
	l-0.2,0.1l-0.1,0.1l-0.1-0.1l-0.6-1l0-0.1l0.1-0.1C139.8,188.4,139.9,188.3,139.9,188.2z M133,193.4c0,0.1,0,0.2-0.1,0.3
	c-0.1,0.4-0.2,0.7-0.3,1.1l0,0l-0.5,1.6h1.7l-0.5-1.6l0,0C133.2,194.4,133.1,193.9,133,193.4z M134.3,190.6l2.9,8.5
	c0.2,0.1,0.3,0.1,0.5,0.2l0,0c0.2,0.1,0.3,0.2,0.4,0.3l0,0l0,0.1l-0.1,1.2l0,0.1h-0.1h-3.5h-0.1l0-0.1l-0.1-1.2l0-0.1l0,0
	c0.1-0.2,0.3-0.3,0.6-0.4l-0.3-1h-2.7l-0.3,1c0.1,0.1,0.2,0.1,0.3,0.2c0.1,0.1,0.3,0.2,0.3,0.3l0,0.1l0,0.1l-0.1,1.2l0,0.1h-0.1
	h-3.4h-0.1l0-0.1l-0.1-1.2l0-0.1l0,0c0.1-0.1,0.2-0.2,0.4-0.3c0.2-0.1,0.3-0.2,0.6-0.2l2.8-8.4l0-0.1h0.1h2h0.1L134.3,190.6z
	 M125.1,201.1h-6.8h-0.1l0-0.1l-0.1-1.2l0-0.1l0,0c0.1-0.1,0.2-0.2,0.3-0.3c0.1-0.1,0.3-0.1,0.4-0.2v-6.5c-0.2-0.1-0.3-0.1-0.4-0.2
	l0,0c-0.2-0.1-0.3-0.2-0.3-0.3l0,0l0-0.1l0.1-1.2l0-0.1h0.1h3.5h0.1l0,0.1l0.1,1.2l0,0.1l0,0c-0.1,0.1-0.2,0.2-0.4,0.3
	c-0.1,0.1-0.3,0.1-0.4,0.2v6.6h2.1c0.1-0.2,0.1-0.4,0.2-0.6l0,0c0.1-0.2,0.2-0.4,0.3-0.5l0.1,0l0.1,0l1.1,0.1l0.1,0v0.1v2.6v0.1
	H125.1z M117.2,201.1h-6.8h-0.1l0-0.1l-0.1-1.2l0-0.1l0,0c0.1-0.1,0.2-0.2,0.3-0.3c0.1-0.1,0.3-0.1,0.4-0.2v-6.5
	c-0.2-0.1-0.3-0.1-0.4-0.2h0c-0.2-0.1-0.3-0.2-0.3-0.3l0,0l0-0.1l0.1-1.2l0-0.1h0.1h6.7h0.1v0.1v2.6v0.1l-0.1,0l-1.1,0.1l-0.1,0
	l-0.1,0c-0.1-0.1-0.2-0.3-0.3-0.5l0,0c-0.1-0.2-0.2-0.4-0.2-0.6h-2v2.2h1.8c0-0.1,0.1-0.2,0.2-0.3c0.1-0.1,0.1-0.2,0.2-0.3l0,0
	l0.1,0l0.9,0.1l0.1,0v0.1v2.6v0.1l-0.1,0l-0.9,0.1l-0.1,0l0,0c-0.1-0.1-0.2-0.2-0.2-0.3l0,0c-0.1-0.1-0.1-0.2-0.2-0.3h-1.8v2.5h2.2
	c0.1-0.2,0.1-0.4,0.2-0.6h0c0.1-0.2,0.2-0.4,0.3-0.5l0.1,0l0.1,0l1.1,0.1l0.1,0v0.1v2.6v0.1H117.2z M100.3,193.1
	c-0.2,0.2-0.3,0.6-0.4,1c-0.1,0.4-0.1,1-0.1,1.6c0,0.6,0,1.2,0.1,1.6c0.1,0.4,0.2,0.8,0.4,1.1c0.2,0.3,0.4,0.5,0.6,0.6l0,0
	c0.2,0.1,0.5,0.2,0.8,0.2c0.3,0,0.6-0.1,0.8-0.2c0.2-0.1,0.4-0.3,0.6-0.6h0c0.2-0.3,0.3-0.6,0.4-1c0.1-0.4,0.1-1,0.1-1.6
	c0-1.2-0.2-2-0.5-2.6c-0.3-0.5-0.8-0.8-1.5-0.8c-0.3,0-0.6,0.1-0.8,0.2C100.6,192.7,100.4,192.9,100.3,193.1z M101.6,201.2
	c-0.7,0-1.3-0.1-1.9-0.3c-0.5-0.2-1-0.5-1.4-0.9c-0.4-0.4-0.6-1-0.8-1.6c-0.2-0.7-0.3-1.5-0.3-2.4c0-0.9,0.1-1.7,0.3-2.4
	c0.2-0.7,0.5-1.3,0.9-1.7c0.4-0.4,0.9-0.8,1.4-1c0.6-0.2,1.2-0.3,1.9-0.3c0.7,0,1.4,0.1,1.9,0.3c0.5,0.2,1,0.5,1.4,0.9
	c0.7,0.8,1.1,2.1,1.1,4c0,0.9-0.1,1.7-0.3,2.4c-0.2,0.7-0.5,1.3-0.9,1.8c-0.4,0.5-0.9,0.8-1.5,1.1
	C102.9,201.1,102.3,201.2,101.6,201.2z M91,199.2h0.9c0.3,0,0.7-0.1,0.9-0.2c0.3-0.1,0.5-0.3,0.7-0.5l0,0c0.2-0.2,0.3-0.5,0.4-0.9
	c0.1-0.4,0.2-0.9,0.2-1.6c0-2.4-0.9-3.5-2.6-3.5H91V199.2z M91.8,201.1h-3.8H88l0-0.1l-0.1-1.2l0-0.1l0,0c0.1-0.1,0.2-0.2,0.3-0.3
	c0.1-0.1,0.3-0.1,0.4-0.2v-6.5c-0.2-0.1-0.3-0.1-0.4-0.2l0,0c-0.2-0.1-0.3-0.2-0.3-0.3l0,0l0-0.1l0.1-1.2l0-0.1h0.1h3.3
	c0.8,0,1.5,0.1,2.2,0.3c0.6,0.2,1.2,0.6,1.7,1c0.5,0.5,0.8,1,1.1,1.7c0.2,0.7,0.4,1.4,0.4,2.3c0,0.9-0.1,1.6-0.3,2.3
	c-0.2,0.6-0.5,1.2-1,1.6c-0.4,0.4-1,0.7-1.5,0.9C93.2,201,92.6,201.1,91.8,201.1z M81.3,193.1c-0.2,0.2-0.3,0.6-0.4,1
	c-0.1,0.4-0.1,1-0.1,1.6c0,0.6,0,1.2,0.1,1.6c0.1,0.4,0.2,0.8,0.4,1.1c0.2,0.3,0.4,0.5,0.6,0.6l0,0c0.2,0.1,0.5,0.2,0.8,0.2
	c0.3,0,0.6-0.1,0.8-0.2c0.2-0.1,0.4-0.3,0.6-0.6h0c0.2-0.3,0.3-0.6,0.4-1c0.1-0.4,0.1-1,0.1-1.6c0-1.2-0.2-2-0.5-2.6
	c-0.3-0.5-0.8-0.8-1.5-0.8c-0.3,0-0.6,0.1-0.8,0.2C81.7,192.7,81.5,192.9,81.3,193.1z M82.6,201.2c-0.7,0-1.3-0.1-1.9-0.3
	c-0.5-0.2-1-0.5-1.4-0.9c-0.4-0.4-0.6-1-0.8-1.6c-0.2-0.7-0.3-1.5-0.3-2.4c0-0.9,0.1-1.7,0.3-2.4c0.2-0.7,0.5-1.3,0.9-1.7
	c0.4-0.4,0.9-0.8,1.4-1c0.6-0.2,1.2-0.3,1.9-0.3c0.7,0,1.4,0.1,1.9,0.3c0.5,0.2,1,0.5,1.4,0.9c0.7,0.8,1.1,2.1,1.1,4
	c0,0.9-0.1,1.7-0.3,2.4c-0.2,0.7-0.5,1.3-0.9,1.8c-0.4,0.5-0.9,0.8-1.5,1.1C84,201.1,83.3,201.2,82.6,201.2z M78.2,190.8v2.1v0.1
	l-0.1,0l-0.9,0.1l-0.1,0l0,0c-0.1-0.1-0.2-0.2-0.2-0.3l0,0c-0.1-0.1-0.1-0.2-0.2-0.3h-1.5v6.6c0.2,0.1,0.3,0.1,0.4,0.2
	c0.1,0.1,0.3,0.2,0.3,0.3l0,0l0,0.1l-0.1,1.2l0,0.1h-0.1h-3.5h-0.1l0-0.1l-0.1-1.2l0-0.1l0,0c0.1-0.1,0.2-0.2,0.3-0.3
	c0.1-0.1,0.3-0.1,0.4-0.2v-6.6h-1.5c-0.1,0.1-0.1,0.2-0.2,0.3l0,0c-0.1,0.1-0.1,0.2-0.2,0.3l0,0l-0.1,0l-0.9-0.1l-0.1,0v-0.1v-2.1
	v-0.2h0.1h8.3h0.2V190.8z"/>
<path class="st2" d="M192.4,245.6h-2.6c-0.1,1.1-0.4,1.9-0.7,2.5l-2.8-0.2c-0.4-0.7-0.6-1.9-0.6-3.5c0-0.7,0.1-1.3,0.2-1.8h13.6
	l0.4,2.3l-7.5,18h-4.5l5.8-13.9c0.4-0.9,0.9-1.9,1.5-2.9l0.3-0.5l-0.1-0.3C194.4,245.5,193.4,245.6,192.4,245.6 M174.2,268.6
	c-0.2-0.4-0.4-1.1-0.4-2c0-0.3,0.1-0.6,0.2-0.9l7.9-23.9l1.9,0.3c0.1,0.2,0.2,0.5,0.3,1c0,0.4,0.1,0.8,0.1,1c0,0.3-0.1,0.6-0.2,0.9
	l-7.9,23.9L174.2,268.6z M170.4,254.7h2.2v3h-2.2v2c0.8,0.3,1.3,0.6,1.6,1l-0.3,2.3h-7.5l-0.3-2.3c0.4-0.5,1.2-0.8,2.4-1.2v-1.9
	h-8.5l-0.8-2.3l6.3-13.4l3,1.3l-3.8,9c-0.4,0.9-0.8,1.6-1.3,2.2l-0.3,0.3l0.1,0.3c0.7-0.2,1.5-0.4,2.5-0.4h2.7v-4.2
	c0-2.5,0.3-4.3,1-5.3l3.1,0.3V254.7z M149,242.4c4.2,0,6.4,1.7,6.4,5.2c0,0.8-0.2,1.5-0.6,2.4c-0.4,0.8-0.8,1.6-1.3,2.2l-4.3,5.1
	c-0.6,0.7-1.4,1.5-2.3,2.2l-0.5,0.4l0.1,0.3c0.9-0.2,1.9-0.3,2.9-0.3h2.3c0.1-1.1,0.4-1.9,0.7-2.5l2.8,0.2c0.4,0.7,0.6,1.9,0.6,3.6
	c0,0.7-0.1,1.3-0.2,1.9h-13.5l-0.7-3.7l7.3-8c1.4-1.5,2.1-2.9,2.1-4.3c0-0.7-0.2-1.2-0.5-1.6c-0.4-0.3-1-0.5-1.9-0.5
	c-0.9,0-1.7,0.1-2.3,0.4c-0.2,1.5-0.4,2.4-0.7,2.9l-2.6-0.1c-0.4-0.6-0.6-1.7-0.6-3.3c0-0.3,0-0.6,0-0.7
	C144.1,243,146.3,242.4,149,242.4z M123.6,255.5c0,3.1,0.9,4.7,2.8,4.7c1,0,1.7-0.4,2.1-1.1c0.5-0.7,0.7-1.9,0.7-3.5
	c0-3.1-1-4.6-2.9-4.6c-0.9,0-1.6,0.3-2.1,1C123.8,252.7,123.6,253.9,123.6,255.5z M126.2,263.2c-2.3,0-4.1-0.6-5.2-1.9
	c-1.1-1.2-1.7-3.1-1.7-5.6s0.6-4.4,1.9-5.8c1.2-1.3,3-2,5.4-2c2.3,0,4.1,0.6,5.2,1.8c1.1,1.2,1.7,3,1.7,5.5c0,2.5-0.6,4.5-1.9,5.8
	C130.3,262.5,128.5,263.2,126.2,263.2z M114.5,246.2c-1.6,0-2.5-0.7-2.5-2.2c0-1.5,0.8-2.2,2.5-2.2c1.6,0,2.5,0.7,2.5,2.2
	C116.9,245.5,116.1,246.2,114.5,246.2z M111.1,248.2c1.1-0.3,2.1-0.4,3.1-0.4s1.7,0,2.4,0.1v11.8c0.8,0.3,1.3,0.6,1.6,1l-0.3,2.3
	h-6.8l-0.3-2.3c0.3-0.4,0.8-0.7,1.6-1v-8.2c-0.7-0.2-1.2-0.6-1.6-1L111.1,248.2z M104.4,251c-1.8,0-2.7,1.6-2.7,4.7
	c0,1.6,0.3,2.7,0.8,3.3c0.5,0.6,1.2,0.9,2.2,0.9c1.5,0,2.8-0.1,4-0.4l0.9,2.3c-0.6,0.4-1.5,0.8-2.5,1c-1.1,0.3-2.1,0.4-3.1,0.4
	c-4.2,0-6.4-2.5-6.4-7.4c0-2.9,0.7-4.9,2.2-6.2c1.3-1.1,2.9-1.7,4.8-1.7c1.9,0,3.5,0.4,4.7,1.1c0,0.2,0,0.4,0,0.6
	c0,1.1-0.3,2.2-0.8,3.2h-2.6c-0.3-0.5-0.4-1.1-0.5-1.8C105.1,251,104.8,251,104.4,251z M92.6,246.2c-1.6,0-2.5-0.7-2.5-2.2
	c0-1.5,0.8-2.2,2.5-2.2c1.6,0,2.5,0.7,2.5,2.2C95.1,245.5,94.2,246.2,92.6,246.2z M89.2,248.2c1.1-0.3,2.1-0.4,3.1-0.4
	s1.7,0,2.4,0.1v11.8c0.8,0.3,1.3,0.6,1.6,1L96,263h-6.8l-0.3-2.3c0.3-0.4,0.8-0.7,1.6-1v-8.2c-0.7-0.2-1.2-0.6-1.6-1L89.2,248.2z
	 M81.1,263.2h-3.2L73,251.7c-1-0.3-1.6-0.7-2-1.2l0.3-2.3h6.8l0.3,2.3c-0.3,0.3-0.7,0.6-1.3,0.9l1.6,4.5c0.4,0.9,0.6,1.8,0.8,2.7
	l0.1,0.4H80c0.2-1,0.4-2,0.8-3.1l1.6-4.4c-0.7-0.3-1.2-0.6-1.5-1l0.3-2.3h6.5l0.3,2.3c-0.4,0.5-1,0.8-1.9,1.2L81.1,263.2z M69,251.9
	c-1.5,0-2.5,0.3-3.1,0.9v6.8c1.6,0.3,2.7,0.7,3.3,1.2l-0.3,2.3h-8.4l-0.3-2.3c0.3-0.4,0.8-0.7,1.6-1v-8.2c-0.7-0.2-1.2-0.6-1.6-1
	l0.3-2.3c1.1-0.2,2.1-0.4,2.9-0.4c0.9,0,1.6,0,2.2,0.1v1.9c0.5-0.5,1-1,1.7-1.3c0.7-0.3,1.4-0.5,1.9-0.5c0.6,0,1,0,1.2,0.1l-0.1,3.8
	C69.9,251.9,69.5,251.9,69,251.9z M54.9,253.9c0-0.3,0.1-0.6,0.1-1c0-0.4-0.2-0.8-0.5-1.3c-0.3-0.4-0.9-0.7-1.6-0.7
	c-0.8,0-1.4,0.2-1.8,0.7c-0.4,0.5-0.7,1.3-0.8,2.4L54.9,253.9z M53,263.2c-2.4,0-4.1-0.6-5.3-1.9c-1.2-1.3-1.8-3.1-1.8-5.5
	c0-1.5,0.2-2.7,0.6-3.8c0.4-1.1,1-1.9,1.7-2.4c1.4-1.1,3-1.7,4.8-1.7c1.8,0,3.2,0.5,4.2,1.4c1,0.9,1.5,2.6,1.5,5
	c0,1.4-0.7,2.1-2.1,2.1h-6.4c0.1,1.2,0.4,2.1,1,2.6c0.6,0.5,1.4,0.8,2.7,0.8c0.7,0,1.3-0.1,1.9-0.2c0.6-0.2,1.1-0.3,1.3-0.5l0.4-0.2
	l0.9,2.4c-0.1,0.1-0.3,0.3-0.5,0.5c-0.2,0.2-0.8,0.5-1.7,0.8C55.2,263.1,54.2,263.2,53,263.2z M39.3,245.9c-0.7-0.2-1.4-0.3-2.1-0.3
	c-0.7,0-1.3,0.2-1.8,0.5c-0.4,0.4-0.7,0.9-0.7,1.5s0.2,1.2,0.5,1.5c0.3,0.4,1,0.7,2,1l2.6,0.8c1.4,0.4,2.5,1.1,3.4,1.9
	c0.8,0.9,1.3,2.2,1.3,3.9c0,2-0.7,3.6-2.2,4.8c-1.4,1.2-3.2,1.7-5.4,1.7c-1.2,0-2.4-0.2-3.6-0.5c-1.2-0.3-2.3-0.7-3.1-1.3
	c0-0.1,0-0.3,0-0.7c0-0.3,0.1-0.9,0.2-1.7c0.1-0.8,0.3-1.5,0.6-2h2.8c0.3,0.6,0.5,1.4,0.6,2.4c0.7,0.3,1.5,0.4,2.4,0.4
	c0.9,0,1.7-0.2,2.3-0.6c0.6-0.4,0.9-1.1,0.9-1.9c0-0.4,0-0.7-0.1-0.9c-0.1-0.2-0.2-0.5-0.5-0.8c-0.3-0.3-0.7-0.5-1.3-0.7l-3-0.9
	c-3.1-0.9-4.6-2.9-4.6-5.9c0-1.8,0.6-3.2,1.9-4.3c1.3-1.1,3-1.6,5.1-1.6c2.1,0,4.1,0.5,6.1,1.4c0,0.1,0,0.3,0,0.7
	c0,0.3-0.1,0.9-0.2,1.7c-0.1,0.8-0.3,1.5-0.6,2h-2.8C39.6,247.7,39.4,246.9,39.3,245.9z"/>
<path class="st2" d="M54.6,63.9c0.2,0,0.5-0.1,0.6-0.3c0.3-0.3,0.3-0.9,0-1.2l-0.1-0.1c0,0-0.1-0.1-0.2-0.1c0,0-0.1,0-0.2-0.1
	c-0.1,0-0.1,0-0.2,0c-0.2,0-0.5,0.1-0.6,0.3c-0.3,0.4-0.3,0.9,0,1.2c0.1,0.1,0.2,0.1,0.3,0.2C54.4,63.8,54.5,63.9,54.6,63.9"/>
<path class="st2" d="M101.8,45.5h-6.1v-1.8c0-1.4-1.2-2.6-2.6-2.6c-1.4,0-2.6,1.2-2.6,2.6v1.8H87v-1.8c0-1.4-1.2-2.6-2.6-2.6
	c-1.4,0-2.6,1.2-2.6,2.6v1.8h-3.5v-1.8c0-1.4-1.2-2.6-2.6-2.6c-1.4,0-2.6,1.2-2.6,2.6v1.8h-3.5v-1.8c0-1.4-1.2-2.6-2.6-2.6
	c-1.5,0-2.6,1.2-2.6,2.6v1.8h-6.1c-2.4,0-4.4,2-4.4,4.4v9.6c0,0.5,0.4,0.9,0.9,0.9c0.5,0,0.9-0.4,0.9-0.9l0-2.6h49v32.4
	c0,1.5-1.2,2.6-2.6,2.6l-43.8,0c-1.4,0-2.6-1.2-2.6-2.6V66.5c0-0.5-0.4-0.9-0.9-0.9s-0.9,0.4-0.9,0.9l0,22.8c0,2.4,2,4.4,4.4,4.4
	l43.8,0c2.4,0,4.4-2,4.4-4.4V49.9C106.2,47.4,104.3,45.5,101.8,45.5 M92.2,43.7c0-0.5,0.4-0.9,0.9-0.9c0.5,0,0.9,0.4,0.9,0.9v6.1
	c0,0.5-0.4,0.9-0.9,0.9c-0.5,0-0.9-0.4-0.9-0.9V43.7z M83.5,43.7c0-0.5,0.4-0.9,0.9-0.9s0.9,0.4,0.9,0.9v6.1c0,0.5-0.4,0.9-0.9,0.9
	s-0.9-0.4-0.9-0.9V43.7z M74.7,43.7c0-0.5,0.4-0.9,0.9-0.9c0.5,0,0.9,0.4,0.9,0.9v6.1c0,0.5-0.4,0.9-0.9,0.9c-0.5,0-0.9-0.4-0.9-0.9
	V43.7z M66,43.7c0-0.5,0.4-0.9,0.9-0.9c0.5,0,0.9,0.4,0.9,0.9v6.1c0,0.5-0.4,0.9-0.9,0.9c-0.5,0-0.9-0.4-0.9-0.9V43.7z M55.5,55.1
	v-5.3c0-1.5,1.2-2.6,2.6-2.6h6.1v2.6c0,1.4,1.2,2.6,2.6,2.6c1.4,0,2.6-1.2,2.6-2.6v-2.6H73v2.6c0,1.4,1.2,2.6,2.6,2.6
	c1.4,0,2.6-1.2,2.6-2.6v-2.6h3.5v2.6c0,1.4,1.2,2.6,2.6,2.6c1.5,0,2.6-1.2,2.6-2.6l0-2.6h3.5v2.6c0,1.4,1.2,2.6,2.6,2.6
	s2.6-1.2,2.6-2.6l0-2.6h6.1c1.4,0,2.6,1.2,2.6,2.6v5.3L55.5,55.1z"/>
<path class="st2" d="M78.7,76.7l0,2.9c0,3.9-5.5,4.9-4.6,7.5c0.6,0.9,1.5,0.9,2.6-0.1c0.6-0.5,1.2-1.3,2-2.1c0,4.7-0.6,5.3,1.9,5.1
	c0.9-1.5,0.6-3.4,0.5-5.1c1.7,0.9,2.1,2.9,4.3,2.7c2.2-3.5-4.3-2.7-4.3-8.4l0-2.6c7.4,1.3,3.7,9.3,7.8,9c1.1-1.5,0.1-3.1-0.4-4.9
	l3.7,1.9c2.4,0.2,0.8-0.1,1.5-0.5c-0.1-2.1-0.9-1.8-2.5-2.8l-1.3-1.1c2.2-0.2,4.8-0.4,4.1-2.8c-4.4-1.5-3.5,3.8-11.5-0.9
	c4.2-5.2,9.6,0,11.2-1.6c1.3-2.4-2-2.3-4-2.9c1.9-2.2,3.9-0.8,3.7-4.1c-2.4-0.5-3,0.9-5.1,1.8c0.4-2.1,1.4-3.4,0.2-4.9
	c-2.5-0.1-1.3-0.2-2.8,5.7c-0.5,1.9-2.6,3-4.6,3.7c0.1-3.8-0.7-4.4,1.5-6.5c0.8-0.8,1.2-1.2,2-2c0.6-0.6,1.7-1.9,0.9-2.6
	c-2.1-0.8-2.3,1.7-4.3,2.5L81,58.6c-3.3,0.2-2.1,1.8-2.4,5c-1.3-1.1-2.3-3-4.3-2.6c-1,2.1,1.1,3.3,2.4,4.5c2.7,2.6,2.1,1.8,2,6.6
	c-3.6-1.7-4-1.7-4.6-3.9c-0.6-1.9-0.9-6.1-3-5c-0.6,0.5-0.5,1.3-0.4,2.2c0.2,0.7,0.5,1.6,0.7,2.5c-1.9-0.7-3.4-2.7-5.3-1.5
	c-0.2,2.2,2.2,2.8,4,3.7c-2.1,1.2-4.5,0.3-4.2,3.1c3.7,1.7,5.3-3.8,11.5,1.2c-1.2,1-3.3,2.5-5.1,2.3c-0.7-0.1-2.1-0.5-2.9-0.7
	c-1.4-0.4-2.7-0.9-3.4,0c-0.9,2.7,2.1,1.7,4,2.9c-1.6,1.4-3.9,1.6-3.7,3.9c1.6,1,3.9-0.7,5.3-1.7L71,85.6c0,0.1,0.1,0.3,0.1,0.4
	c2.5,0.4,1.8-0.4,3-5.1C74.8,78.3,76.7,77.7,78.7,76.7"/>
<path class="st2" d="M139,70c-2.8,4.7-1,8.5,2.3,11.7c-1.7,1.7-3.9,4.2-3.9,7.5l1.7,0.9c0.8-1.6-0.6-2.3,2.6-6.2
	c0.7-0.9,1.2-1.2,2.2-2c1.1-0.8,1.5-1.4,2.4-2.3c1.2-1.1,1.2-0.7,2.1-2.2c2-3,3.3-4.9,4.4-9c-0.4,10.3-7,13.8-7.1,14.7
	c16.4,3.2,12.1-20,8-24.6c-0.7,1.1-0.5,2-1.6,3.3C147.7,67.1,141.3,66.1,139,70"/>
<path class="st2" d="M122,63.9c0.2,0,0.5-0.1,0.6-0.3c0.3-0.3,0.3-0.9,0-1.2l-0.1-0.1c-0.1,0-0.1-0.1-0.2-0.1c-0.1,0-0.1,0-0.2-0.1
	c-0.1,0-0.1,0-0.2,0c-0.2,0-0.5,0.1-0.6,0.3c-0.3,0.3-0.3,0.9,0,1.2c0.1,0.1,0.2,0.1,0.3,0.2C121.8,63.8,121.9,63.9,122,63.9"/>
<path class="st2" d="M169.3,45.5h-6.1v-1.8c0-1.4-1.2-2.6-2.6-2.6c-1.5,0-2.6,1.2-2.6,2.6v1.8h-3.5v-1.8c0-1.4-1.2-2.6-2.6-2.6
	c-1.5,0-2.6,1.2-2.6,2.6v1.8h-3.5v-1.8c0-1.4-1.2-2.6-2.6-2.6c-1.4,0-2.6,1.2-2.6,2.6v1.8h-3.5v-1.8c0-1.4-1.2-2.6-2.6-2.6
	c-1.5,0-2.6,1.2-2.6,2.6v1.8h-6.1c-2.4,0-4.4,2-4.4,4.4v9.6c0,0.5,0.4,0.9,0.9,0.9s0.9-0.4,0.9-0.9v-2.6h49v32.4
	c0,1.5-1.2,2.6-2.6,2.6l-43.8,0c-1.4,0-2.6-1.2-2.6-2.6V66.5c0-0.5-0.4-0.9-0.9-0.9c-0.5,0-0.9,0.4-0.9,0.9v22.8
	c0,2.4,2,4.4,4.4,4.4l43.8,0c2.4,0,4.4-2,4.4-4.4V49.9C173.6,47.4,171.7,45.5,169.3,45.5 M159.6,43.7c0-0.5,0.4-0.9,0.9-0.9
	c0.5,0,0.9,0.4,0.9,0.9v6.1c0,0.5-0.4,0.9-0.9,0.9c-0.5,0-0.9-0.4-0.9-0.9V43.7z M150.9,43.7c0-0.5,0.4-0.9,0.9-0.9s0.9,0.4,0.9,0.9
	v6.1c0,0.5-0.4,0.9-0.9,0.9s-0.9-0.4-0.9-0.9V43.7z M142.1,43.7c0-0.5,0.4-0.9,0.9-0.9c0.5,0,0.9,0.4,0.9,0.9v6.1
	c0,0.5-0.4,0.9-0.9,0.9c-0.5,0-0.9-0.4-0.9-0.9V43.7z M133.4,43.7c0-0.5,0.4-0.9,0.9-0.9s0.9,0.4,0.9,0.9v6.1c0,0.5-0.4,0.9-0.9,0.9
	c-0.5,0-0.9-0.4-0.9-0.9V43.7z M122.9,55.1v-5.3c0-1.5,1.2-2.6,2.6-2.6h6.1v2.6c0,1.4,1.2,2.6,2.6,2.6s2.6-1.2,2.6-2.6v-2.6h3.5v2.6
	c0,1.4,1.2,2.6,2.6,2.6c1.5,0,2.6-1.2,2.6-2.6v-2.6h3.5v2.6c0,1.4,1.2,2.6,2.6,2.6c1.4,0,2.6-1.2,2.6-2.6v-2.6h3.5v2.6
	c0,1.4,1.2,2.6,2.6,2.6c1.4,0,2.6-1.2,2.6-2.6v-2.6h6.1c1.5,0,2.6,1.2,2.6,2.6v5.3L122.9,55.1z"/>
<path class="st2" d="M91.2,125.6c-6.8,1-8.4-1.9-11.2-4.4c-1.6,0.8-1.8,2.2-4.2,3.4c-2.6,1.3-4.1,1.4-7.1,0.8
	c0.6,5.4-0.7,8-4.4,11.3c0.6,0.7,1.1,0.8,2,2c0.3,0.5,1.1,1.6,1.5,2.4c1,2,1.2,4.3,0.9,6.8c8.5-0.7,9.1,3.4,11.7,4.8
	c0.9-3.2,5.8-5.6,10.6-4.6c-0.3-3.4,0-6.8,2.6-9.2l2.1-2.3c-1.6-0.6-2.7-2.1-3.7-4C90.9,130.3,90.7,128.2,91.2,125.6 M81.9,144.9
	c9.9-2.5,7.5-18.2-3.5-16.3c-4.2,0.7-7.7,5.1-6.6,10C72.6,142.6,76.6,146.3,81.9,144.9z M78.3,126.3c6.1-0.9,11.2,3.6,12,8.6
	c1.6,10.4-10.4,15.9-16.8,10.3C65.3,138.1,70.4,127.5,78.3,126.3"/>
<path class="st2" d="M54.6,126.4c0.2,0,0.5-0.1,0.6-0.3c0.3-0.3,0.3-0.9,0-1.2l-0.1-0.1c0,0-0.1-0.1-0.2-0.1c-0.1,0-0.1,0-0.2-0.1
	c-0.1,0-0.1,0-0.2,0c-0.2,0-0.5,0.1-0.6,0.3c-0.3,0.4-0.3,0.9,0,1.2c0.1,0.1,0.2,0.1,0.3,0.2C54.4,126.4,54.5,126.4,54.6,126.4"/>
<path class="st2" d="M101.8,108h-6.1v-1.8c0-1.4-1.2-2.6-2.6-2.6c-1.4,0-2.6,1.2-2.6,2.6v1.8H87v-1.8c0-1.4-1.2-2.6-2.6-2.6
	c-1.4,0-2.6,1.2-2.6,2.6v1.8h-3.5v-1.8c0-1.4-1.2-2.6-2.6-2.6c-1.4,0-2.6,1.2-2.6,2.6v1.8h-3.5v-1.8c0-1.4-1.2-2.6-2.6-2.6
	c-1.5,0-2.6,1.2-2.6,2.6v1.8h-6.1c-2.4,0-4.4,2-4.4,4.4v9.6c0,0.5,0.4,0.9,0.9,0.9c0.5,0,0.9-0.4,0.9-0.9v-2.6l49,0v32.4
	c0,1.4-1.2,2.6-2.6,2.6H58.1c-1.4,0-2.6-1.2-2.6-2.6v-22.8c0-0.5-0.4-0.9-0.9-0.9s-0.9,0.4-0.9,0.9v22.8c0,2.4,2,4.4,4.4,4.4h43.8
	c2.4,0,4.4-2,4.4-4.4v-39.4C106.2,110,104.3,108,101.8,108 M92.2,106.3c0-0.5,0.4-0.9,0.9-0.9c0.5,0,0.9,0.4,0.9,0.9v6.1
	c0,0.5-0.4,0.9-0.9,0.9c-0.5,0-0.9-0.4-0.9-0.9V106.3z M83.5,106.3c0-0.5,0.4-0.9,0.9-0.9s0.9,0.4,0.9,0.9v6.1
	c0,0.5-0.4,0.9-0.9,0.9s-0.9-0.4-0.9-0.9V106.3z M74.7,106.3c0-0.5,0.4-0.9,0.9-0.9c0.5,0,0.9,0.4,0.9,0.9v6.1
	c0,0.5-0.4,0.9-0.9,0.9c-0.5,0-0.9-0.4-0.9-0.9V106.3z M66,106.3c0-0.5,0.4-0.9,0.9-0.9c0.5,0,0.9,0.4,0.9,0.9v6.1
	c0,0.5-0.4,0.9-0.9,0.9c-0.5,0-0.9-0.4-0.9-0.9V106.3z M55.5,117.7v-5.3c0-1.5,1.2-2.6,2.6-2.6l6.1,0v2.6c0,1.5,1.2,2.6,2.6,2.6
	c1.4,0,2.6-1.2,2.6-2.6v-2.6H73v2.6c0,1.5,1.2,2.6,2.6,2.6c1.4,0,2.6-1.2,2.6-2.6v-2.6h3.5v2.6c0,1.5,1.2,2.6,2.6,2.6
	c1.5,0,2.6-1.2,2.6-2.6v-2.6h3.5v2.6c0,1.5,1.2,2.6,2.6,2.6s2.6-1.2,2.6-2.6v-2.6h6.1c1.4,0,2.6,1.2,2.6,2.6v5.3L55.5,117.7z"/>
<path class="st2" d="M142.5,141.6c-0.2,0.2-0.3,0.3-0.5,0.4L142.5,141.6z M133.7,132.8c-0.5,1.1-0.3,0.2-0.4,1.5
	c2.5,1.4,4.3,1,7.1,1.5c-3.1,1.3-4.7,3.2-6.9,3.9c1.4,3,2,1.6,3.7,3c-0.9,1.5-2,3.9-2.2,6c2.5,0.2,4.3-1.1,6-2
	c1.5,1.8,0.5,2.3,2.7,3.5c1.2-0.8,3.2-4,3.8-6c0.7,0.8,0.4,0.2,0.8,1.5c0.5,1.4,0.1,3.2,1.6,4.9c0.7-0.6,0.8-0.8,1.8-1.7
	c1.4,1.9,1.3,2.3,3.1,3.8c1.3-1.7,1.4-5.4,1.7-7.7c0.8,0.7,1.4,1.2,2.7,1.6c1.3-3.7-0.5-5.9-1.9-8.9l4.8,1.3
	c-0.8-4.6-2.5-7.2-5.5-8.8c-6.2,4.1-2.8,3.2-4.8,10.7c-0.8-2.6-0.5-3.5-0.6-6.3c-0.7,0.8-1.1,0.6-2.1,1.4l-6.3,5.6
	c0.9-0.9,1.8-2.7,2.9-3.7l4.2-4.5c-2.2-1.1-3.9-1.1-5.5-2.7c2.8,0.6,5.3,1.3,8.2,1.1c1.6-2.1,7.5-6.8,11.6-6.9
	c-1.7-3-2.4-1.8-5.4-0.2c-1.3,0.7-4,2.3-4.6,3.2c-2.9-3.5-3.1-5.5-8.8-6.7l-1.2,3.5l-7.1-1.1l0.6,3.5c-2.6,0.1-4.3,0.4-6.1,1.8
	c1,1.5,2,1.7,3.4,2.7L133.7,132.8z"/>
<path class="st2" d="M122,126.4c0.2,0,0.5-0.1,0.6-0.3c0.3-0.3,0.3-0.9,0-1.2l-0.1-0.1c-0.1,0-0.1-0.1-0.2-0.1c-0.1,0-0.1,0-0.2-0.1
	c-0.1,0-0.1,0-0.2,0c-0.2,0-0.5,0.1-0.6,0.3c-0.3,0.4-0.3,0.9,0,1.2c0.1,0.1,0.2,0.1,0.3,0.2C121.8,126.4,121.9,126.4,122,126.4"/>
<path class="st2" d="M169.3,108h-6.1v-1.8c0-1.4-1.2-2.6-2.6-2.6c-1.5,0-2.6,1.2-2.6,2.6v1.8h-3.5v-1.8c0-1.4-1.2-2.6-2.6-2.6
	c-1.5,0-2.6,1.2-2.6,2.6v1.8h-3.5v-1.8c0-1.4-1.2-2.6-2.6-2.6c-1.4,0-2.6,1.2-2.6,2.6v1.8h-3.5v-1.8c0-1.4-1.2-2.6-2.6-2.6
	c-1.5,0-2.6,1.2-2.6,2.6v1.8h-6.1c-2.4,0-4.4,2-4.4,4.4v9.6c0,0.5,0.4,0.9,0.9,0.9s0.9-0.4,0.9-0.9v-2.6l49,0v32.4
	c0,1.4-1.2,2.6-2.6,2.6h-43.8c-1.4,0-2.6-1.2-2.6-2.6v-22.8c0-0.5-0.4-0.9-0.9-0.9c-0.5,0-0.9,0.4-0.9,0.9v22.8c0,2.4,2,4.4,4.4,4.4
	h43.8c2.4,0,4.4-2,4.4-4.4v-39.4C173.6,110,171.7,108,169.3,108 M159.6,106.3c0-0.5,0.4-0.9,0.9-0.9c0.5,0,0.9,0.4,0.9,0.9v6.1
	c0,0.5-0.4,0.9-0.9,0.9c-0.5,0-0.9-0.4-0.9-0.9V106.3z M150.9,106.3c0-0.5,0.4-0.9,0.9-0.9s0.9,0.4,0.9,0.9v6.1
	c0,0.5-0.4,0.9-0.9,0.9s-0.9-0.4-0.9-0.9V106.3z M142.1,106.3c0-0.5,0.4-0.9,0.9-0.9c0.5,0,0.9,0.4,0.9,0.9v6.1
	c0,0.5-0.4,0.9-0.9,0.9c-0.5,0-0.9-0.4-0.9-0.9V106.3z M133.4,106.3c0-0.5,0.4-0.9,0.9-0.9s0.9,0.4,0.9,0.9v6.1
	c0,0.5-0.4,0.9-0.9,0.9c-0.5,0-0.9-0.4-0.9-0.9V106.3z M122.9,117.7v-5.3c0-1.5,1.2-2.6,2.6-2.6l6.1,0v2.6c0,1.5,1.2,2.6,2.6,2.6
	s2.6-1.2,2.6-2.6v-2.6h3.5v2.6c0,1.5,1.2,2.6,2.6,2.6c1.5,0,2.6-1.2,2.6-2.6v-2.6h3.5v2.6c0,1.5,1.2,2.6,2.6,2.6
	c1.4,0,2.6-1.2,2.6-2.6v-2.6h3.5v2.6c0,1.5,1.2,2.6,2.6,2.6c1.4,0,2.6-1.2,2.6-2.6v-2.6h6.1c1.5,0,2.6,1.2,2.6,2.6v5.3L122.9,117.7z
	"/>
</svg>
