<?xml version="1.0" encoding="utf-8"?>
<!-- Generator: Adobe Illustrator 16.0.0, SVG Export Plug-In . SVG Version: 6.00 Build 0)  -->
<!DOCTYPE svg PUBLIC "-//W3C//DTD SVG 1.1//EN" "http://www.w3.org/Graphics/SVG/1.1/DTD/svg11.dtd">
<svg version="1.1" id="Capa_1" xmlns="http://www.w3.org/2000/svg" xmlns:xlink="http://www.w3.org/1999/xlink" x="0px" y="0px"
	 width="230px" height="310px" viewBox="0 0 230 310" style="enable-background:new 0 0 230 310;" xml:space="preserve">
<style type="text/css">
<![CDATA[
	.st0{fill:#E5E6E7;}
	.st1{fill:none;stroke:#403F41;stroke-width:0.216;stroke-miterlimit:22.9256;}
	.st2{fill:#FFF100;}
	.st3{fill:#FFFFFF;}
]]>
</style>
<path class="st0" d="M11.4,0h207.3c6.2,0,11.4,5.1,11.4,11.4v287.3c0,6.3-5.1,11.4-11.4,11.4H11.4C5.1,310,0,304.9,0,298.6V11.4
	C0,5.1,5.1,0,11.4,0"/>
<path class="st2" d="M18.1,10H212c5.8,0,10.6,4.8,10.6,10.6v268.6c0,5.9-4.8,10.6-10.6,10.6H18.1c-5.8,0-10.6-4.8-10.6-10.6V20.7
	C7.4,14.8,12.2,10,18.1,10z"/>
<path class="st1" d="M18.1,10H212c5.8,0,10.6,4.8,10.6,10.6v268.6c0,5.9-4.8,10.6-10.6,10.6H18.1c-5.8,0-10.6-4.8-10.6-10.6V20.7
	C7.4,14.8,12.2,10,18.1,10z"/>
<path d="M63.4,191.1h101.2c1.4,0,2.5-1.1,2.5-2.5v-16.8c0-1.4-1.1-2.5-2.5-2.5H63.4c-1.4,0-2.5,1.1-2.5,2.5v16.8
	C60.9,189.9,62,191.1,63.4,191.1"/>
<path class="st3" d="M151.4,177c-0.2,0.2-0.3,0.5-0.4,1l0,0c-0.1,0.4-0.1,0.9-0.1,1.5s0,1.1,0.1,1.6c0.1,0.4,0.2,0.8,0.4,1
	c0.3,0.5,0.8,0.8,1.4,0.8c0.6,0,1-0.2,1.3-0.7l0,0c0.2-0.2,0.3-0.6,0.4-1l0,0c0.1-0.4,0.1-0.9,0.1-1.5c0-1.1-0.2-1.9-0.5-2.5
	c-0.3-0.5-0.8-0.8-1.4-0.8C152.1,176.4,151.7,176.6,151.4,177 M152.6,184.8c-0.7,0-1.3-0.1-1.8-0.3s-1-0.5-1.3-0.9l0,0
	c-0.3-0.4-0.6-0.9-0.8-1.6c-0.2-0.6-0.3-1.4-0.3-2.3c0-0.9,0.1-1.6,0.3-2.3c0.2-0.7,0.5-1.2,0.9-1.6c0.4-0.4,0.8-0.8,1.4-1
	c0.5-0.2,1.2-0.3,1.9-0.3c0.7,0,1.3,0.1,1.8,0.3s1,0.5,1.3,0.9l0,0c0.3,0.4,0.6,0.9,0.8,1.5c0.2,0.6,0.3,1.4,0.3,2.3
	s-0.1,1.7-0.3,2.3c-0.2,0.7-0.5,1.2-0.9,1.7c-0.4,0.5-0.9,0.8-1.4,1C153.9,184.7,153.3,184.8,152.6,184.8z M148.4,174.7v2v0.1h-0.1
	l-0.9,0.1h-0.1l0,0c-0.1-0.1-0.2-0.1-0.2-0.3l0,0c-0.1-0.1-0.1-0.2-0.1-0.3h-1.4v6.3c0.2,0.1,0.3,0.1,0.4,0.2
	c0.1,0.1,0.3,0.2,0.3,0.3l0,0v0.1l-0.1,1.2v0.1h-0.1h-3.3h-0.1v-0.1l-0.1-1.2v-0.1l0,0c0.1-0.1,0.2-0.2,0.3-0.3
	c0.1-0.1,0.3-0.1,0.4-0.2v-6.3h-1.5c0,0.1-0.1,0.2-0.1,0.3l0,0c-0.1,0.1-0.1,0.2-0.2,0.3l0,0h-0.1l-0.9-0.1h-0.1v-0.1v-2v-0.1h0.2
	h7.9h0.1v0.1H148.4z M137.3,176.4c-0.1,0-0.2,0-0.4-0.1c-0.2,0-0.3,0-0.5,0c-0.2,0-0.3,0-0.4,0.1c-0.1,0.1-0.2,0.1-0.3,0.2l0,0
	c-0.1,0.1-0.2,0.2-0.2,0.3l0,0c0,0.1-0.1,0.2-0.1,0.4c0,0.1,0,0.3,0.1,0.4l0,0c0,0.1,0.1,0.2,0.2,0.3c0.1,0.1,0.2,0.1,0.3,0.2
	c0.2,0.1,0.3,0.1,0.6,0.2l0,0l1.3,0.4c0.4,0.1,0.7,0.2,0.9,0.4l0,0c0.3,0.2,0.5,0.4,0.7,0.6s0.4,0.5,0.5,0.8
	c0.1,0.3,0.2,0.7,0.2,1.1c0,0.5-0.1,1-0.3,1.4c-0.2,0.4-0.5,0.7-0.8,1c-0.4,0.3-0.8,0.5-1.2,0.7c-0.4,0.1-0.9,0.2-1.5,0.2
	c-0.6,0-1.2-0.1-1.8-0.2c-0.6-0.2-1.1-0.4-1.5-0.6H133v-0.1v-0.3c0-0.2,0-0.5,0.1-0.8c0-0.2,0.1-0.4,0.1-0.5c0-0.2,0.1-0.3,0.2-0.4
	V182h0.1h1.3h0.1v0.1c0.1,0.2,0.1,0.3,0.2,0.6c0,0.2,0.1,0.4,0.1,0.6c0.1,0.1,0.3,0.1,0.4,0.1c0.2,0,0.4,0.1,0.6,0.1s0.4,0,0.6-0.1
	c0.2,0,0.3-0.1,0.4-0.2c0.1-0.1,0.2-0.2,0.3-0.3c0.1-0.1,0.1-0.3,0.1-0.5c0-0.2,0-0.3,0-0.4c0,0,0-0.1-0.1-0.1
	c0-0.1-0.1-0.1-0.2-0.2l0,0c-0.1-0.1-0.1-0.1-0.2-0.2c-0.1,0-0.2-0.1-0.3-0.1l-1.5-0.4c-0.8-0.2-1.4-0.6-1.7-1.1
	c-0.4-0.5-0.6-1.1-0.6-1.9c0-0.5,0.1-0.9,0.2-1.2c0.2-0.4,0.4-0.7,0.7-1l0,0c0.7-0.5,1.5-0.8,2.5-0.8c0.5,0,1,0.1,1.5,0.2
	c0.5,0.1,1,0.3,1.5,0.5h0.1v0.1v0.3c0,0.1,0,0.2,0,0.3c0,0.1,0,0.3-0.1,0.5c0,0.2-0.1,0.4-0.1,0.5c0,0.2-0.1,0.3-0.2,0.4v0.1H139
	h-1.3h-0.1v-0.1c-0.1-0.1-0.2-0.3-0.2-0.5C137.3,176.8,137.3,176.6,137.3,176.4z M131.7,181c0,1.3-0.3,2.2-0.9,2.9
	c-0.3,0.3-0.7,0.6-1.2,0.7c-0.5,0.2-1,0.2-1.7,0.2c-1.3,0-2.2-0.3-2.8-0.9c-0.3-0.3-0.5-0.7-0.6-1.2s-0.2-1-0.2-1.7v-4.5
	c-0.1-0.1-0.3-0.1-0.4-0.2c-0.1-0.1-0.3-0.2-0.4-0.3l0,0v-0.1l0.1-1.2v-0.1h0.1h3.3h0.1v0.1l0.1,1.2v0.1l0,0
	c-0.1,0.1-0.2,0.2-0.3,0.3c-0.1,0.1-0.2,0.1-0.4,0.2v4.5c0,0.3,0,0.6,0.1,0.9l0,0c0.1,0.2,0.1,0.4,0.2,0.6l0,0
	c0.1,0.1,0.2,0.2,0.4,0.3l0,0c0.2,0.1,0.4,0.1,0.7,0.1c0.3,0,0.5,0,0.7-0.1c0.2-0.1,0.3-0.2,0.4-0.3c0.1-0.2,0.2-0.3,0.2-0.6l0,0
	c0.1-0.2,0.1-0.5,0.1-0.8v-4.5c-0.2-0.1-0.3-0.1-0.4-0.2c-0.1-0.1-0.3-0.2-0.3-0.3l0,0V176l0.1-1.2v-0.1h0.1h3.1h0.1v0.1l0.1,1.2
	v0.1l0,0c-0.1,0.1-0.2,0.2-0.3,0.3c-0.1,0.1-0.2,0.1-0.4,0.2v4.4H131.7z M119.5,185.8c0.2,0,0.3,0,0.4-0.1c0.1,0,0.2-0.1,0.2-0.2
	c0.1-0.1,0.1-0.2,0.1-0.3c0-0.2,0-0.4,0-0.6v-8.2c-0.2-0.1-0.3-0.1-0.4-0.2c-0.1-0.1-0.3-0.2-0.3-0.3l0,0v-0.1l0.1-1.2v-0.1h0.1h3.3
	h0.1v0.1l0.1,1.2v0.1v0.1c-0.1,0.1-0.2,0.2-0.3,0.3c-0.1,0.1-0.2,0.1-0.4,0.2v8l0,0c0,0.6-0.1,1-0.2,1.4l0,0c-0.1,0.4-0.3,0.7-0.5,1
	l0,0c-0.2,0.2-0.5,0.4-0.9,0.5c-0.4,0.1-0.8,0.2-1.3,0.2s-0.9-0.1-1.4-0.2c-0.4-0.1-0.8-0.3-1.2-0.6h-0.1v-0.1v-0.3
	c0-0.1,0-0.2,0-0.3c0-0.1,0-0.3,0.1-0.4c0-0.2,0.1-0.3,0.1-0.5c0-0.1,0.1-0.3,0.2-0.4v-0.1h0.1h1.3h0.1v0.1c0.1,0.1,0.1,0.3,0.2,0.5
	l0,0C119.4,185.4,119.4,185.6,119.5,185.8L119.5,185.8z M110.2,177c-0.2,0.2-0.3,0.5-0.4,1l0,0c-0.1,0.4-0.1,0.9-0.1,1.5
	s0,1.1,0.1,1.6c0.1,0.4,0.2,0.8,0.4,1c0.3,0.5,0.8,0.8,1.4,0.8s1-0.2,1.3-0.7l0,0c0.2-0.2,0.3-0.6,0.4-1l0,0
	c0.1-0.4,0.1-0.9,0.1-1.5c0-1.1-0.2-1.9-0.5-2.5c-0.3-0.5-0.8-0.8-1.4-0.8C111,176.4,110.5,176.6,110.2,177z M111.5,184.8
	c-0.7,0-1.3-0.1-1.8-0.3s-1-0.5-1.3-0.9l0,0c-0.3-0.4-0.6-0.9-0.8-1.6c-0.2-0.6-0.3-1.4-0.3-2.3c0-0.9,0.1-1.6,0.3-2.3
	c0.2-0.7,0.5-1.2,0.9-1.6c0.4-0.4,0.8-0.8,1.4-1c0.5-0.2,1.2-0.3,1.9-0.3c0.7,0,1.3,0.1,1.8,0.3s1,0.5,1.3,0.9l0,0
	c0.3,0.4,0.6,0.9,0.8,1.5c0.2,0.6,0.3,1.4,0.3,2.3s-0.1,1.7-0.3,2.3c-0.2,0.7-0.5,1.2-0.9,1.7c-0.4,0.5-0.9,0.8-1.4,1
	C112.8,184.7,112.2,184.8,111.5,184.8z M106.7,174.7l0.1,1.2v0.1l0,0c-0.1,0.1-0.2,0.2-0.3,0.3c-0.1,0.1-0.2,0.1-0.4,0.2v6.3
	c0.2,0.1,0.3,0.1,0.4,0.2s0.3,0.2,0.3,0.3l0,0v0.1l-0.1,1.2v0.1h-0.1h-3.3h-0.1v-0.1l-0.1-1.2v-0.1l0,0c0.1-0.1,0.2-0.2,0.3-0.3
	s0.3-0.1,0.4-0.2v-6.3c-0.2-0.1-0.3-0.1-0.4-0.2c-0.1-0.1-0.3-0.2-0.3-0.3l0,0v-0.1l0.1-1.2v-0.1h0.1h3.3h0.1V174.7z M100.1,176.5
	c-0.1,0-0.3-0.1-0.4-0.1c-0.2,0-0.4,0-0.7,0c-0.5,0-0.9,0.2-1.3,0.7c-0.2,0.2-0.3,0.5-0.4,1l0,0c-0.1,0.4-0.1,0.9-0.1,1.5
	c0,0.6,0,1.1,0.1,1.5c0.1,0.4,0.2,0.7,0.4,1c0.3,0.5,0.8,0.7,1.4,0.7c0.5,0,1,0,1.4-0.1c0.4-0.1,0.9-0.2,1.3-0.3l0.1-0.1l0.1,0.1
	l0.5,1.3v0.1l-0.1,0.1c-0.5,0.3-1.1,0.5-1.7,0.7c-0.6,0.2-1.2,0.2-1.9,0.2c-0.7,0-1.3-0.1-1.8-0.3s-0.9-0.5-1.2-0.9
	c-0.6-0.8-0.9-2.1-0.9-3.9c0-0.9,0.1-1.7,0.3-2.3l0,0c0.2-0.7,0.5-1.2,0.9-1.6c0.4-0.4,0.9-0.8,1.4-1s1.2-0.3,1.8-0.3
	c1.1,0,2.2,0.3,3.2,0.9h0.1v0.1v0.3c0,0.2,0,0.5-0.1,0.8l0,0c0,0.2-0.1,0.4-0.1,0.5c0,0.2-0.1,0.3-0.2,0.4v0.1h-0.1h-1.3h-0.1v-0.1
	c-0.1-0.1-0.1-0.3-0.2-0.5C100.2,177,100.1,176.7,100.1,176.5z M94.1,184.7h-6.6h-0.1v-0.1l-0.1-1.2v-0.1l0,0
	c0.1-0.1,0.2-0.2,0.3-0.3s0.3-0.1,0.4-0.2v-6.3c-0.2-0.1-0.3-0.1-0.4-0.2c-0.1-0.1-0.3-0.2-0.3-0.3l0,0v-0.1l0.1-1.2v-0.1h0.1H94
	h0.1v0.1v2.5v0.1H94l-1,0.1h-0.1h-0.1c-0.1-0.1-0.2-0.3-0.3-0.5l0,0c-0.1-0.2-0.1-0.3-0.2-0.6h-1.9v2.1H92c0-0.1,0.1-0.2,0.1-0.3
	l0,0c0.1-0.1,0.1-0.2,0.2-0.3l0,0h0.1l0.9,0.1h0.1v0.1v2.5v0.1h-0.1l-0.9,0.1h-0.1l0,0c-0.1-0.1-0.1-0.1-0.2-0.3
	c-0.1-0.1-0.1-0.2-0.1-0.3h-1.7v2.4h2.1c0.1-0.2,0.1-0.4,0.2-0.5l0,0c0.1-0.2,0.2-0.3,0.3-0.5H93h0.1l1,0.1h0.1v0.1v2.5v0.1h-0.1
	V184.7z M82.1,176.4h-0.7v2.4h0.7c0.3,0,0.6,0,0.8-0.1c0.2,0,0.4-0.1,0.5-0.2s0.2-0.2,0.3-0.3l0,0c0.1-0.2,0.1-0.3,0.1-0.6
	c0-0.2,0-0.4-0.1-0.6c-0.1-0.1-0.2-0.3-0.3-0.4c-0.1-0.1-0.3-0.2-0.5-0.2C82.6,176.4,82.4,176.4,82.1,176.4z M86.3,177.6
	c0,0.7-0.2,1.3-0.6,1.7l0,0c-0.2,0.2-0.4,0.4-0.7,0.6l0,0c-0.2,0.1-0.4,0.2-0.5,0.3c0.1,0.1,0.2,0.1,0.3,0.2
	c0.2,0.1,0.3,0.3,0.4,0.4l0,0l1,1.9c0.2,0.1,0.4,0.2,0.5,0.2l0,0c0.2,0.1,0.3,0.2,0.4,0.3v0.1v0.1l-0.1,1.1v0.1h-0.1h-2.4h-0.1v-0.1
	l-1.6-3.5l0,0c-0.1-0.2-0.1-0.3-0.2-0.3l0,0c-0.1-0.1-0.1-0.1-0.2-0.1h-0.8v2c0.3,0.1,0.6,0.1,0.7,0.2l0,0c0.2,0.1,0.4,0.2,0.5,0.3
	l0,0v0.1l-0.1,1.2v0.1h-0.1h-3.8h-0.1v-0.1l-0.1-1.2v-0.1l0,0c0.1-0.1,0.2-0.2,0.3-0.3c0.1-0.1,0.3-0.1,0.4-0.2v-6.3
	c-0.2-0.1-0.3-0.1-0.4-0.2c-0.1-0.1-0.3-0.2-0.3-0.3l0,0v-0.1l0.1-1.2v-0.1h0.1h3.6l0,0c1.4,0,2.4,0.2,3,0.7
	c0.3,0.2,0.6,0.5,0.8,0.9C86.2,176.5,86.3,177,86.3,177.6z M73.5,176.4h-0.7v3h0.8c0.3,0,0.6,0,0.8-0.1l0,0c0.2-0.1,0.4-0.1,0.5-0.3
	c0.1-0.1,0.2-0.3,0.3-0.5l0,0c0.1-0.2,0.1-0.5,0.1-0.8s0-0.5-0.1-0.7c-0.1-0.2-0.2-0.3-0.3-0.4l0,0c-0.2-0.1-0.4-0.2-0.6-0.2
	C74.1,176.4,73.8,176.4,73.5,176.4z M73.3,181.3h-0.5v1.4c0.3,0.1,0.6,0.1,0.7,0.2l0,0c0.2,0.1,0.4,0.2,0.5,0.3l0,0v0.1l-0.1,1.2
	v0.1h-0.1H70h-0.1v-0.1l-0.1-1.2v-0.1l0,0c0.1-0.1,0.2-0.2,0.3-0.3c0.1-0.1,0.3-0.1,0.4-0.2v-6.3c-0.2-0.1-0.3-0.1-0.4-0.2
	c-0.1-0.1-0.3-0.2-0.3-0.3l0,0v-0.1l0.1-1.2v-0.1H70h3.8l0,0c0.7,0,1.3,0.1,1.8,0.2c0.5,0.1,0.9,0.3,1.3,0.5c0.3,0.2,0.6,0.6,0.8,1
	c0.2,0.4,0.3,0.9,0.3,1.5c0,1.1-0.4,2-1.1,2.5C75.9,181,74.8,181.3,73.3,181.3z"/>
<path d="M194.3,259.4c0,3,0.9,4.4,2.7,4.4c0.9,0,1.6-0.3,2-1s0.7-1.8,0.7-3.3c0-2.9-0.9-4.3-2.7-4.3c-0.9,0-1.5,0.3-2,1
	C194.5,256.8,194.3,257.9,194.3,259.4 M196.7,266.7c-2.2,0-3.8-0.6-4.9-1.8c-1.1-1.2-1.6-2.9-1.6-5.3c0-2.4,0.6-4.2,1.8-5.4
	c1.2-1.3,2.9-1.9,5.1-1.9c2.2,0,3.8,0.6,4.9,1.7s1.6,2.8,1.6,5.2c0,2.4-0.6,4.2-1.8,5.5S198.9,266.7,196.7,266.7z M185,249.1v3.5h4
	v2.3h-4v7c0,0.6,0.1,1,0.3,1.3s0.6,0.4,1.2,0.4s1.3-0.1,2-0.4l0.8,2.2c-1.4,0.7-2.9,1.1-4.4,1.1s-2.5-0.3-3-1
	c-0.5-0.6-0.8-1.6-0.8-2.8v-7.8h-1.2l-0.3-1.7c0.3-0.4,0.9-0.7,1.8-1.1c0.2-1.5,0.7-2.5,1.6-3.1L185,249.1L185,249.1z M173,254.9
	c-1.2,0-1.8,0.4-1.8,1.1s0.6,1.2,1.9,1.5l2.2,0.6c2.3,0.6,3.4,1.9,3.4,3.9c0,1.4-0.5,2.5-1.5,3.4c-1,0.9-2.5,1.3-4.6,1.3
	c-2.1,0-3.8-0.3-5-0.9c0-0.2,0-0.4,0-0.6c0-1,0.2-1.9,0.6-2.7h2.3c0.2,0.4,0.4,0.9,0.5,1.4c0.4,0.1,0.9,0.2,1.6,0.2
	c1.6,0,2.4-0.5,2.4-1.4c0-0.3-0.1-0.5-0.3-0.7s-0.7-0.4-1.3-0.6l-2.2-0.6c-1.1-0.3-2-0.8-2.6-1.4c-0.6-0.6-0.9-1.5-0.9-2.8
	c0-1.2,0.5-2.2,1.5-3c1-0.8,2.4-1.2,4.2-1.2c1.8,0,3.4,0.3,4.6,0.8c0,0.2,0,0.4,0,0.6c0,1-0.2,1.9-0.6,2.7H175
	c-0.2-0.4-0.4-0.9-0.5-1.3C174,254.9,173.5,254.9,173,254.9z M156.7,259.4c0,3,0.9,4.4,2.7,4.4c0.9,0,1.6-0.3,2-1
	c0.4-0.7,0.7-1.8,0.7-3.3c0-2.9-0.9-4.3-2.7-4.3c-0.9,0-1.5,0.3-2,1C156.9,256.8,156.7,257.9,156.7,259.4z M159.2,266.7
	c-2.2,0-3.8-0.6-4.9-1.8c-1.1-1.2-1.6-2.9-1.6-5.3c0-2.4,0.6-4.2,1.8-5.4c1.2-1.3,2.9-1.9,5.1-1.9c2.2,0,3.8,0.6,4.9,1.7
	s1.6,2.8,1.6,5.2c0,2.4-0.6,4.2-1.8,5.5S161.4,266.7,159.2,266.7z M146.9,255.2c-1.7,0-2.6,1.5-2.6,4.4c0,1.5,0.2,2.5,0.7,3.1
	c0.5,0.6,1.2,0.9,2,0.9c1.4,0,2.6-0.1,3.7-0.4l0.8,2.1c-0.6,0.4-1.4,0.7-2.4,1s-2,0.4-2.9,0.4c-4,0-6-2.3-6-6.9
	c0-2.7,0.7-4.6,2.1-5.8c1.2-1,2.7-1.6,4.5-1.6s3.3,0.3,4.4,1c0,0.2,0,0.4,0,0.5c0,1.1-0.2,2.1-0.7,3h-2.4c-0.3-0.5-0.4-1-0.5-1.7
	C147.6,255.2,147.3,255.2,146.9,255.2z M131.7,256c-1.4,0-2.4,0.3-2.9,0.8v6.4c1.5,0.3,2.5,0.7,3.1,1.2l-0.3,2.1h-7.9l-0.3-2.1
	c0.3-0.4,0.8-0.7,1.5-0.9v-7.7c-0.6-0.2-1.2-0.5-1.5-0.9l0.3-2.1c1-0.2,1.9-0.3,2.7-0.3c0.8,0,1.5,0,2,0.1v1.8
	c0.4-0.5,1-0.9,1.6-1.2c0.7-0.3,1.3-0.5,1.8-0.5s0.9,0,1.1,0.1l-0.1,3.6C132.5,256,132.1,256,131.7,256z M112.6,259.4
	c0,3,0.9,4.4,2.7,4.4c0.9,0,1.6-0.3,2-1c0.4-0.7,0.7-1.8,0.7-3.3c0-2.9-0.9-4.3-2.7-4.3c-0.9,0-1.5,0.3-2,1
	C112.8,256.8,112.6,257.9,112.6,259.4z M115.1,266.7c-2.2,0-3.8-0.6-4.9-1.8c-1.1-1.2-1.6-2.9-1.6-5.3c0-2.4,0.6-4.2,1.8-5.4
	c1.2-1.3,2.9-1.9,5.1-1.9s3.8,0.6,4.9,1.7c1.1,1.1,1.6,2.8,1.6,5.2c0,2.4-0.6,4.2-1.8,5.5S117.3,266.7,115.1,266.7z M92.4,252.6
	c1-0.2,1.9-0.3,2.7-0.3c0.8,0,1.5,0,2,0.1v1.4c0.5-0.4,1.1-0.7,1.8-1c0.8-0.2,1.5-0.4,2.2-0.4c1.8,0,3.1,0.4,3.8,1.3
	c0.7,0.9,1.1,2.3,1.1,4.4v5.3c0.7,0.3,1.2,0.6,1.5,0.9l-0.3,2.1H101l-0.3-2.1c0.3-0.4,0.8-0.7,1.5-0.9v-5.5c0-1-0.2-1.7-0.5-2
	c-0.3-0.3-0.9-0.5-1.7-0.5s-1.7,0.3-2.5,0.9v7.1c0.7,0.3,1.2,0.6,1.5,0.9l-0.3,2.1h-6.4l-0.3-2.1c0.3-0.4,0.8-0.7,1.5-0.9v-7.7
	c-0.6-0.2-1.2-0.5-1.5-0.9L92.4,252.6z M87.2,257.9c0-0.3,0.1-0.6,0.1-0.9c0-0.4-0.1-0.8-0.4-1.2c-0.3-0.4-0.8-0.6-1.5-0.6
	c-0.7,0-1.3,0.2-1.7,0.7c-0.4,0.4-0.6,1.2-0.8,2.2L87.2,257.9z M85.4,266.7c-2.2,0-3.9-0.6-5-1.8c-1.1-1.2-1.7-2.9-1.7-5.2
	c0-1.4,0.2-2.5,0.6-3.5c0.4-1,0.9-1.8,1.6-2.3c1.3-1,2.8-1.6,4.5-1.6c1.7,0,3,0.4,4,1.3c0.9,0.9,1.4,2.5,1.4,4.7c0,1.3-0.7,2-2,2h-6
	c0.1,1.2,0.4,2,0.9,2.5s1.4,0.7,2.5,0.7c0.6,0,1.2-0.1,1.8-0.2c0.6-0.1,1-0.3,1.2-0.4l0.4-0.2l0.8,2.2c-0.1,0.1-0.3,0.3-0.5,0.5
	c-0.2,0.2-0.7,0.5-1.6,0.8C87.5,266.5,86.5,266.7,85.4,266.7z M54.7,252.6c1-0.2,1.9-0.3,2.7-0.3c0.8,0,1.5,0,2,0.1v1.4
	c0.4-0.4,1-0.7,1.7-0.9c0.7-0.3,1.3-0.4,1.8-0.4c2.1,0,3.5,0.5,4.2,1.6c0.5-0.4,1.1-0.8,1.8-1.1c0.8-0.3,1.5-0.5,2.1-0.5
	c2,0,3.4,0.5,4.1,1.4c0.7,0.9,1.1,2.6,1.1,5.2v4.5c0.7,0.3,1.2,0.6,1.5,0.9l-0.3,2.1H71l-0.3-2.1c0.3-0.4,0.8-0.7,1.5-0.9v-5.5
	c0-1-0.1-1.7-0.4-2c-0.3-0.3-0.8-0.5-1.7-0.5c-0.8,0-1.6,0.3-2.3,0.9c0.1,0.6,0.1,1.5,0.1,2.6v4.5c0.7,0.3,1.2,0.6,1.5,0.9l-0.3,2.1
	H63l-0.3-2.1c0.3-0.4,0.8-0.7,1.5-0.9v-5.5c0-1-0.1-1.7-0.4-2c-0.3-0.3-0.8-0.5-1.6-0.5c-0.8,0-1.6,0.3-2.3,0.9v7.1
	c0.7,0.3,1.2,0.6,1.5,0.9l-0.3,2.1h-6.4l-0.3-2.1c0.3-0.4,0.8-0.7,1.5-0.9v-7.7c-0.6-0.2-1.2-0.5-1.5-0.9L54.7,252.6z M40.4,246.7
	c1-0.2,2-0.4,2.9-0.4c0.9,0,1.6,0,2.2,0.1v16.9c0.7,0.3,1.2,0.6,1.5,0.9l-0.3,2.1h-6.4l-0.3-2.1c0.3-0.4,0.8-0.7,1.5-0.9v-13.6
	c-0.6-0.2-1.2-0.5-1.5-0.9L40.4,246.7z M31.8,263.9c0.9,0,1.7-0.3,2.2-0.8v-2.3h-1.9c-1.3,0-2,0.5-2,1.5c0,0.5,0.1,0.8,0.4,1.1
	C30.8,263.7,31.3,263.9,31.8,263.9z M26.8,254.6c0-0.3,0-0.6,0-0.9c1.7-0.9,3.6-1.4,5.5-1.4c2,0,3.4,0.4,4.3,1.1
	c0.9,0.8,1.3,2,1.3,3.7v5.9c0.6,0.1,1.2,0.3,1.5,0.5v2.4c-0.9,0.4-2.3,0.7-4.1,0.7c-0.2-0.5-0.3-1.1-0.5-1.8
	c-0.8,1.2-2.2,1.8-4.3,1.8c-1.2,0-2.3-0.4-3.2-1.1c-0.9-0.7-1.3-1.7-1.3-2.9c0-1.2,0.4-2.2,1.2-2.9c0.8-0.7,2-1.1,3.7-1.1h3v-1.3
	c0-1.4-0.8-2.2-2.3-2.2c-0.6,0-1,0.1-1.4,0.2c0,0.8-0.1,1.4-0.3,1.8h-2.7C27,256.5,26.8,255.7,26.8,254.6z M205.8,226.9
	c0,3,0.9,4.4,2.7,4.4c0.9,0,1.6-0.3,2-1s0.7-1.8,0.7-3.3c0-2.9-0.9-4.3-2.7-4.3c-0.9,0-1.5,0.3-2,1
	C206,224.3,205.8,225.4,205.8,226.9z M208.3,234.2c-2.2,0-3.8-0.6-4.9-1.8c-1.1-1.2-1.6-2.9-1.6-5.3c0-2.4,0.6-4.2,1.8-5.4
	c1.2-1.2,2.9-1.9,5.1-1.9s3.8,0.6,4.9,1.7c1.1,1.1,1.6,2.8,1.6,5.2c0,2.4-0.6,4.2-1.8,5.5C212.2,233.6,210.5,234.2,208.3,234.2z
	 M197.2,218.2c-1.5,0-2.3-0.7-2.3-2.1c0-1.4,0.8-2.1,2.3-2.1s2.3,0.7,2.3,2.1C199.6,217.5,198.8,218.2,197.2,218.2z M194.1,220.1
	c1-0.2,2-0.4,2.9-0.4s1.6,0,2.2,0.1v11.1c0.7,0.3,1.2,0.6,1.5,0.9l-0.3,2.1H194l-0.3-2.1c0.3-0.4,0.8-0.7,1.5-0.9v-7.7
	c-0.6-0.2-1.2-0.5-1.5-0.9L194.1,220.1z M187.8,222.7c-1.7,0-2.6,1.5-2.6,4.4c0,1.5,0.2,2.5,0.7,3.1c0.5,0.6,1.2,0.9,2,0.9
	c1.4,0,2.6-0.1,3.7-0.4l0.8,2.1c-0.6,0.4-1.4,0.7-2.4,1s-2,0.4-2.9,0.4c-4,0-6-2.3-6-6.9c0-2.7,0.7-4.6,2.1-5.8
	c1.2-1,2.7-1.6,4.5-1.6s3.3,0.3,4.4,1c0,0.2,0,0.4,0,0.5c0,1.1-0.2,2.1-0.7,3H189c-0.3-0.5-0.4-1-0.5-1.7
	C188.5,222.7,188.2,222.7,187.8,222.7z M176.7,218.2c-1.5,0-2.3-0.7-2.3-2.1c0-1.4,0.8-2.1,2.3-2.1s2.3,0.7,2.3,2.1
	C179,217.5,178.2,218.2,176.7,218.2z M173.5,220.1c1-0.2,2-0.4,2.9-0.4c0.9,0,1.6,0,2.2,0.1v11.1c0.7,0.3,1.2,0.6,1.5,0.9l-0.3,2.1
	h-6.4l-0.3-2.1c0.3-0.4,0.8-0.7,1.5-0.9v-7.7c-0.6-0.2-1.2-0.5-1.5-0.9L173.5,220.1z M165.9,234.2h-3.1l-4.5-10.8
	c-0.9-0.3-1.5-0.7-1.9-1.1l0.3-2.1h6.4l0.3,2.1c-0.2,0.3-0.6,0.6-1.2,0.8l1.5,4.2c0.3,0.9,0.6,1.7,0.7,2.6l0.1,0.4h0.4
	c0.1-0.9,0.4-1.9,0.8-2.9l1.5-4.1c-0.7-0.3-1.2-0.6-1.4-0.9l0.3-2.1h6.1l0.3,2.1c-0.3,0.4-0.9,0.8-1.8,1.1L165.9,234.2z
	 M154.5,223.5c-1.4,0-2.4,0.3-2.9,0.8v6.4c1.5,0.3,2.5,0.7,3.1,1.2l-0.3,2.1h-7.9l-0.3-2.1c0.3-0.4,0.8-0.7,1.5-0.9v-7.7
	c-0.6-0.2-1.2-0.5-1.5-0.9l0.3-2.1c1-0.2,1.9-0.3,2.7-0.3s1.5,0,2,0.1v1.8c0.4-0.5,1-0.9,1.6-1.2c0.7-0.3,1.3-0.5,1.8-0.5
	s0.9,0,1.1,0.1l-0.1,3.6C155.3,223.6,154.9,223.5,154.5,223.5z M141.2,225.5c0-0.3,0.1-0.6,0.1-0.9c0-0.4-0.1-0.8-0.4-1.2
	c-0.3-0.4-0.8-0.6-1.5-0.6c-0.7,0-1.3,0.2-1.7,0.7c-0.4,0.4-0.6,1.2-0.8,2.3L141.2,225.5z M139.4,234.2c-2.2,0-3.9-0.6-5-1.8
	c-1.1-1.2-1.7-2.9-1.7-5.2c0-1.4,0.2-2.5,0.6-3.5c0.4-1,0.9-1.8,1.6-2.3c1.3-1,2.8-1.6,4.5-1.6c1.7,0,3,0.4,4,1.3
	c0.9,0.9,1.4,2.5,1.4,4.7c0,1.3-0.7,2-2,2h-6c0.1,1.2,0.4,2,0.9,2.5s1.4,0.7,2.5,0.7c0.6,0,1.2-0.1,1.8-0.2c0.6-0.1,1-0.3,1.2-0.4
	l0.4-0.2l0.8,2.2c-0.1,0.1-0.3,0.3-0.5,0.5c-0.2,0.2-0.7,0.5-1.6,0.8C141.5,234.1,140.5,234.2,139.4,234.2z M125.8,222.4
	c-1.2,0-1.8,0.4-1.8,1.1s0.6,1.2,1.9,1.5l2.2,0.6c2.3,0.6,3.4,1.9,3.4,3.9c0,1.4-0.5,2.5-1.5,3.4c-1,0.9-2.5,1.3-4.6,1.3
	c-2.1,0-3.8-0.3-5-0.9c0-0.2,0-0.4,0-0.6c0-1,0.2-1.9,0.6-2.8h2.3c0.2,0.4,0.4,0.9,0.5,1.4c0.4,0.1,0.9,0.2,1.6,0.2
	c1.6,0,2.4-0.5,2.4-1.4c0-0.3-0.1-0.5-0.3-0.7c-0.2-0.2-0.7-0.4-1.3-0.6l-2.2-0.6c-1.1-0.3-2-0.8-2.6-1.4c-0.6-0.6-0.9-1.5-0.9-2.8
	c0-1.2,0.5-2.2,1.5-3s2.4-1.2,4.2-1.2s3.4,0.3,4.6,0.8c0,0.2,0,0.4,0,0.6c0,1-0.2,1.9-0.6,2.7h-2.3c-0.2-0.4-0.4-0.9-0.5-1.3
	C126.8,222.5,126.3,222.4,125.8,222.4z M111.6,223.5c-1.4,0-2.4,0.3-2.9,0.8v6.4c1.5,0.3,2.5,0.7,3.1,1.2l-0.3,2.1h-7.9l-0.3-2.1
	c0.3-0.4,0.8-0.7,1.5-0.9v-7.7c-0.6-0.2-1.2-0.5-1.5-0.9l0.3-2.1c1-0.2,1.9-0.3,2.7-0.3c0.8,0,1.5,0,2,0.1v1.8
	c0.4-0.5,1-0.9,1.6-1.2c0.7-0.3,1.3-0.5,1.8-0.5s0.9,0,1.1,0.1l-0.1,3.6C112.4,223.6,112,223.5,111.6,223.5z M92.5,226.9
	c0,3,0.9,4.4,2.7,4.4c0.9,0,1.6-0.3,2-1c0.4-0.7,0.7-1.8,0.7-3.3c0-2.9-0.9-4.3-2.7-4.3c-0.9,0-1.5,0.3-2,1
	C92.7,224.3,92.5,225.4,92.5,226.9z M95,234.2c-2.2,0-3.8-0.6-4.9-1.8c-1.1-1.2-1.6-2.9-1.6-5.3c0-2.4,0.6-4.2,1.8-5.4
	c1.2-1.2,2.9-1.9,5.1-1.9c2.2,0,3.8,0.6,4.9,1.7c1.1,1.1,1.6,2.8,1.6,5.2c0,2.4-0.6,4.2-1.8,5.5C98.8,233.6,97.1,234.2,95,234.2z
	 M84.4,218.2c-1.5,0-2.3-0.7-2.3-2.1c0-1.4,0.8-2.1,2.3-2.1s2.3,0.7,2.3,2.1C86.8,217.5,86,218.2,84.4,218.2z M81.3,220.1
	c1-0.2,2-0.4,2.9-0.4c0.9,0,1.6,0,2.2,0.1V234c0,2.1-0.4,3.6-1.2,4.5c-0.8,0.9-2.2,1.3-4,1.3c-0.6,0-1.1,0-1.6-0.1l0.3-2.7
	c0.1,0,0.5,0,1,0s0.9-0.2,1.2-0.6c0.3-0.4,0.4-1.1,0.4-2.1v-11.1c-0.6-0.2-1.2-0.5-1.5-0.9L81.3,220.1z M76.3,225.5
	c0-0.3,0.1-0.6,0.1-0.9c0-0.4-0.1-0.8-0.4-1.2c-0.3-0.4-0.8-0.6-1.5-0.6s-1.3,0.2-1.7,0.7c-0.4,0.4-0.6,1.2-0.8,2.3L76.3,225.5z
	 M74.6,234.2c-2.2,0-3.9-0.6-5-1.8c-1.1-1.2-1.7-2.9-1.7-5.2c0-1.4,0.2-2.5,0.6-3.5s0.9-1.8,1.6-2.3c1.3-1,2.8-1.6,4.5-1.6
	c1.7,0,3,0.4,4,1.3c0.9,0.9,1.4,2.5,1.4,4.7c0,1.3-0.7,2-2,2h-6c0.1,1.2,0.4,2,0.9,2.5s1.4,0.7,2.5,0.7c0.6,0,1.2-0.1,1.8-0.2
	c0.6-0.1,1-0.3,1.2-0.4l0.4-0.2l0.8,2.2c-0.1,0.1-0.3,0.3-0.5,0.5c-0.2,0.2-0.7,0.5-1.6,0.8C76.6,234.1,75.7,234.2,74.6,234.2z
	 M43.9,220.1c1-0.2,1.9-0.3,2.7-0.3c0.8,0,1.5,0,2,0.1v1.4c0.4-0.4,1-0.7,1.7-0.9c0.7-0.3,1.3-0.4,1.8-0.4c2.1,0,3.5,0.5,4.2,1.6
	c0.5-0.4,1.1-0.8,1.8-1.1c0.8-0.3,1.5-0.5,2.1-0.5c2,0,3.4,0.5,4.1,1.4c0.7,0.9,1.1,2.6,1.1,5.2v4.5c0.7,0.3,1.2,0.6,1.5,0.9
	l-0.3,2.1h-6.4l-0.3-2.1c0.3-0.4,0.8-0.7,1.5-0.9v-5.5c0-1-0.1-1.7-0.4-2c-0.3-0.3-0.8-0.5-1.7-0.5c-0.8,0-1.6,0.3-2.3,0.9
	c0.1,0.6,0.1,1.5,0.1,2.6v4.5c0.7,0.3,1.2,0.6,1.5,0.9l-0.3,2.1h-6.4l-0.3-2.1c0.3-0.4,0.8-0.7,1.5-0.9v-5.5c0-1-0.1-1.7-0.4-2
	c-0.3-0.3-0.8-0.5-1.6-0.5c-0.8,0-1.6,0.3-2.3,0.9v7.1c0.7,0.3,1.2,0.6,1.5,0.9l-0.3,2.1h-6.4l-0.3-2.1c0.3-0.4,0.8-0.7,1.5-0.9
	v-7.7c-0.6-0.2-1.2-0.5-1.5-0.9L43.9,220.1z M29.6,214.3c1-0.2,2-0.4,2.9-0.4s1.6,0,2.2,0.1v16.9c0.7,0.3,1.2,0.6,1.5,0.9L36,234
	h-6.4l-0.3-2.1c0.3-0.4,0.8-0.7,1.5-0.9v-13.6c-0.6-0.2-1.2-0.5-1.5-0.9L29.6,214.3z M28,234H15.1l-0.3-2.3c0.2-0.3,0.7-0.6,1.5-0.9
	v-12.7c-0.8-0.3-1.3-0.6-1.5-0.9l0.3-2.3h12.7v4.8l-2.1,0.2c-0.4-0.4-0.8-1.1-1-2.1h-4.3v4.8h3.9c0.2-0.6,0.5-0.9,0.7-1.2l1.7,0.2
	v4.9l-1.7,0.2c-0.2-0.2-0.5-0.6-0.7-1.2h-3.9v5.3h4.5c0.2-1,0.6-1.6,1-2.1L28,229V234z"/>
<path d="M143.1,86.9h-5.5v-1.6c0-1.9-1.6-3.5-3.5-3.5c-1.9,0-3.5,1.6-3.5,3.5v1.6H111v-1.6c0-1.9-1.6-3.5-3.5-3.5s-3.5,1.6-3.5,3.5
	V87c-0.1,0-0.2,0-0.3,0h-4.6c-3.2,0-5.8,2.6-5.8,5.8v19.8c0,0.6,0.5,1.2,1.2,1.2c0.6,0,1.2-0.5,1.2-1.2V98.9h41.9
	c0.6,0,1.2-0.5,1.2-1.2c0-0.7-0.5-1.2-1.2-1.2h-42v-3.8c0-1.9,1.6-3.5,3.5-3.5h4.6c0.1,0,0.2,0,0.3,0v1.5c0,1.9,1.6,3.5,3.5,3.5
	s3.5-1.6,3.5-3.5v-1.5h19.5v1.5c0,1.9,1.6,3.5,3.5,3.5s3.5-1.6,3.5-3.5v-1.5h5.5c1.9,0,3.5,1.6,3.5,3.5V137c0,1.2-0.9,2.1-2.1,2.1
	c-1.2,0-2.1-0.9-2.1-2.1v-3c0-0.6-0.5-1.2-1.2-1.2h-13.5c-0.6,0-1.2,0.5-1.2,1.2s0.5,1.2,1.2,1.2H140v1.8c0,0.8,0.2,1.5,0.5,2.1
	H93.8c-1.2,0-2.1-0.9-2.1-2.1v-1.8h26c0.6,0,1.2-0.5,1.2-1.2s-0.5-1.2-1.2-1.2h-11.6c2-1.8,3.3-4.3,3.3-7.2c0-5.3-4.3-9.6-9.5-9.6
	c-5.2,0-9.5,4.3-9.5,9.6c0,2.9,1.3,5.5,3.3,7.2h-3.1c-0.6,0-1.2,0.5-1.2,1.2v3c0,2.4,2,4.4,4.4,4.4h50.7c2.4,0,4.4-2,4.4-4.4V92.7
	C148.9,89.6,146.3,86.9,143.1,86.9 M104,122.8c-0.5-0.5-1.2-0.5-1.6,0l-3.8,3.8l-1.3-1.3c-0.5-0.5-1.2-0.5-1.6,0
	c-0.5,0.5-0.5,1.2,0,1.6l2.1,2.1c0.2,0.2,0.5,0.3,0.8,0.3c0.3,0,0.6-0.1,0.8-0.3l4.6-4.6C104.5,124,104.5,123.2,104,122.8z
	 M115.7,105.1c-2.4,0-4.4,2-4.4,4.4s2,4.4,4.4,4.4c2.4,0,4.4-2,4.4-4.4S118.1,105.1,115.7,105.1z M115.7,111.6
	c-1.2,0-2.1-0.9-2.1-2.1s0.9-2.1,2.1-2.1s2.1,0.9,2.1,2.1S116.8,111.6,115.7,111.6z M137.4,105.1c-2.4,0-4.4,2-4.4,4.4
	s2,4.4,4.4,4.4c2.4,0,4.4-2,4.4-4.4S139.8,105.1,137.4,105.1z M137.4,111.6c-1.2,0-2.1-0.9-2.1-2.1s0.9-2.1,2.1-2.1
	c1.2,0,2.1,0.9,2.1,2.1S138.5,111.6,137.4,111.6z M126.5,105.1c-2.4,0-4.4,2-4.4,4.4s2,4.4,4.4,4.4s4.4-2,4.4-4.4
	C131,107.1,129,105.1,126.5,105.1z M126.5,111.6c-1.2,0-2.1-0.9-2.1-2.1s0.9-2.1,2.1-2.1s2.1,0.9,2.1,2.1S127.7,111.6,126.5,111.6z
	 M104.8,105.1c-2.4,0-4.4,2-4.4,4.4s2,4.4,4.4,4.4c2.4,0,4.4-2,4.4-4.4S107.3,105.1,104.8,105.1z M104.8,111.6
	c-1.2,0-2.1-0.9-2.1-2.1s0.9-2.1,2.1-2.1c1.2,0,2.1,0.9,2.1,2.1S106,111.6,104.8,111.6z M137.4,117.2c-2.4,0-4.4,2-4.4,4.4
	s2,4.4,4.4,4.4c2.4,0,4.4-2,4.4-4.4S139.8,117.2,137.4,117.2z M137.4,123.7c-1.2,0-2.1-0.9-2.1-2.1c0-1.2,0.9-2.1,2.1-2.1
	c1.2,0,2.1,0.9,2.1,2.1C139.5,122.8,138.5,123.7,137.4,123.7z M126.5,117.2c-2.4,0-4.4,2-4.4,4.4s2,4.4,4.4,4.4s4.4-2,4.4-4.4
	C131,119.2,129,117.2,126.5,117.2z M126.5,123.7c-1.2,0-2.1-0.9-2.1-2.1c0-1.2,0.9-2.1,2.1-2.1s2.1,0.9,2.1,2.1
	C128.6,122.8,127.7,123.7,126.5,123.7z M115.7,117.2c-2.4,0-4.4,2-4.4,4.4s2,4.4,4.4,4.4c2.4,0,4.4-2,4.4-4.4
	S118.1,117.2,115.7,117.2z M115.7,123.7c-1.2,0-2.1-0.9-2.1-2.1c0-1.2,0.9-2.1,2.1-2.1s2.1,0.9,2.1,2.1
	C117.8,122.8,116.8,123.7,115.7,123.7z M124.1,133.2c-0.2-0.2-0.5-0.3-0.8-0.3s-0.6,0.1-0.8,0.3c-0.2,0.2-0.3,0.5-0.3,0.8
	s0.1,0.6,0.3,0.8c0.2,0.2,0.5,0.3,0.8,0.3s0.6-0.1,0.8-0.3c0.2-0.2,0.3-0.5,0.3-0.8S124.3,133.4,124.1,133.2z M143.8,97
	c-0.2-0.2-0.5-0.3-0.8-0.3s-0.6,0.1-0.8,0.3s-0.3,0.5-0.3,0.8c0,0.3,0.1,0.6,0.3,0.8c0.2,0.2,0.5,0.3,0.8,0.3s0.6-0.1,0.8-0.3
	c0.2-0.2,0.3-0.5,0.3-0.8C144.2,97.5,144.1,97.2,143.8,97z M108.7,90.7c0,0.6-0.5,1.2-1.2,1.2s-1.2-0.5-1.2-1.2v-5.4
	c0-0.6,0.5-1.2,1.2-1.2c0.6,0,1.2,0.5,1.2,1.2V90.7z M135.2,90.7c0,0.6-0.5,1.2-1.2,1.2c-0.6,0-1.2-0.5-1.2-1.2v-5.4
	c0-0.6,0.5-1.2,1.2-1.2s1.2,0.5,1.2,1.2V90.7z M92.7,125.6c0-4,3.2-7.2,7.2-7.2s7.2,3.2,7.2,7.2s-3.2,7.2-7.2,7.2
	S92.7,129.6,92.7,125.6"/>
<path d="M87.9,60.5c-0.6-5.9-3.2-11.4-7.4-15.6C77,41.4,72.6,39.1,68,38v-3.2c1.9-0.5,3.3-2.2,3.3-4.2c0-2.4-1.9-4.3-4.3-4.3h-9.1
	c-2.4,0-4.3,1.9-4.3,4.3c0,2,1.4,3.7,3.3,4.2V38c-4.6,1-8.9,3.3-12.5,6.9c-0.8,0.8-1.5,1.6-2.2,2.4h-0.1h-9c-0.7,0-1.3,0.6-1.3,1.3
	c0,0.7,0.6,1.3,1.3,1.3h7.4c-0.9,1.6-1.7,3.2-2.3,4.9H24.4c-0.7,0-1.3,0.6-1.3,1.3c0,0.7,0.6,1.3,1.3,1.3h13.1
	c-0.4,1.6-0.6,3.2-0.6,4.9h-5.6c-0.7,0-1.3,0.6-1.3,1.3c0,0.7,0.6,1.3,1.3,1.3h5.6c0.1,1.6,0.4,3.3,0.8,4.9h-8.2
	c-0.7,0-1.3,0.6-1.3,1.3c0,0.7,0.6,1.3,1.3,1.3h9c1.2,3.3,3.2,6.4,5.8,9c4.2,4.2,9.7,6.8,15.6,7.4c0.8,0.1,1.7,0.1,2.5,0.1
	c4.9,0,9.8-1.4,14-4.1c0.6-0.4,0.8-1.2,0.4-1.8c-0.4-0.6-1.2-0.8-1.8-0.4c-9.1,5.9-21.2,4.6-28.9-3c-9-9-9-23.7,0-32.7
	s23.6-9,32.6,0c7.7,7.7,8.9,19.8,3.1,28.9c-0.4,0.6-0.2,1.4,0.4,1.8c0.6,0.4,1.4,0.2,1.8-0.4C87.1,72.2,88.5,66.3,87.9,60.5
	 M56.1,30.6c0-1,0.8-1.8,1.8-1.8H67c1,0,1.8,0.8,1.8,1.8S68,32.4,67,32.4h-0.2h-8.7h-0.2C56.9,32.4,56.1,31.6,56.1,30.6z M59.4,37.6
	v-2.7h6.1v2.7C63.5,37.4,61.4,37.4,59.4,37.6"/>
<path d="M79.7,79c-0.3,0-0.7,0.1-0.9,0.4c-0.2,0.2-0.4,0.6-0.4,0.9c0,0.3,0.1,0.7,0.4,0.9c0.2,0.2,0.6,0.4,0.9,0.4
	c0.3,0,0.7-0.1,0.9-0.4c0.2-0.2,0.4-0.6,0.4-0.9c0-0.3-0.1-0.7-0.4-0.9C80.3,79.2,80,79,79.7,79"/>
<path d="M62.5,43.4c-10.8,0-19.7,8.8-19.7,19.7s8.8,19.7,19.7,19.7c10.8,0,19.7-8.8,19.7-19.7C82.1,52.2,73.3,43.4,62.5,43.4
	 M62.5,80.2c-9.5,0-17.1-7.7-17.1-17.2S53,45.9,62.5,45.9s17.1,7.7,17.1,17.2S71.9,80.2,62.5,80.2"/>
<path d="M70.5,53.2l-6.3,6.3c-0.5-0.3-1.1-0.4-1.7-0.4s-1.2,0.1-1.7,0.4L58,56.7c-0.5-0.5-1.3-0.5-1.8,0s-0.5,1.3,0,1.8l2.8,2.8
	c-0.3,0.5-0.4,1.1-0.4,1.7c0,2.2,1.8,3.9,3.9,3.9c2.2,0,3.9-1.8,3.9-3.9c0-0.6-0.1-1.2-0.4-1.7l6.1-6.1l0.2-0.2
	c0.5-0.5,0.5-1.3,0-1.8S71,52.7,70.5,53.2 M62.5,64.5c-0.8,0-1.4-0.6-1.4-1.4c0-0.8,0.6-1.4,1.4-1.4s1.4,0.6,1.4,1.4
	C63.9,63.8,63.2,64.5,62.5,64.5"/>
<path d="M76,61.8h-1.2c-0.7,0-1.3,0.6-1.3,1.3c0,0.7,0.6,1.3,1.3,1.3H76c0.7,0,1.3-0.6,1.3-1.3C77.3,62.4,76.7,61.8,76,61.8"/>
<path d="M50.1,61.8h-1.2c-0.7,0-1.3,0.6-1.3,1.3c0,0.7,0.6,1.3,1.3,1.3h1.2c0.7,0,1.3-0.6,1.3-1.3C51.3,62.4,50.8,61.8,50.1,61.8"/>
<path d="M62.5,51.9c0.7,0,1.3-0.6,1.3-1.3v-1.2c0-0.7-0.6-1.3-1.3-1.3s-1.3,0.6-1.3,1.3v1.2C61.2,51.4,61.8,51.9,62.5,51.9"/>
<path d="M62.4,74.2c-0.7,0-1.3,0.6-1.3,1.3v1.2c0,0.7,0.6,1.3,1.3,1.3c0.7,0,1.3-0.6,1.3-1.3v-1.2C63.7,74.8,63.1,74.2,62.4,74.2"/>
<path d="M24.4,69.6c-0.3,0-0.7,0.1-0.9,0.4c-0.2,0.2-0.4,0.6-0.4,0.9c0,0.3,0.1,0.7,0.4,0.9c0.2,0.2,0.6,0.4,0.9,0.4
	c0.3,0,0.7-0.1,0.9-0.4c0.2-0.2,0.4-0.6,0.4-0.9c0-0.3-0.1-0.7-0.4-0.9C25.1,69.8,24.7,69.6,24.4,69.6"/>
<path d="M194.3,36L194.3,36z M194.3,36h-12.9v35H195c1.1,0,1.9,0.9,1.9,1.9c0,1.1-0.9,1.9-1.9,1.9h-15.5h-0.1h-0.1h-15.5
	c-1.1,0-1.9-0.9-1.9-1.9c0-1.1,0.9-1.9,1.9-1.9h13.6V36h-12.9l5,14.9l0,0l0,0l0,0l0,0l0,0l0,0l0,0l0,0l0,0V51l0,0c0,0.1,0,0.3,0,0.4
	c-0.1,4.2-3.5,7.6-7.8,7.6s-7.7-3.4-7.8-7.7l0,0l0,0l0,0v-0.1v-0.1l0,0l0,0l0,0l0,0l0,0l0,0V51l0,0l0,0l0,0l0,0v-0.1l0,0l0,0l0,0
	v-0.1l0,0l5.8-17.3l0,0l0,0l0,0l0,0l0,0l0,0l0,0l0,0l0,0l0,0l0,0l0,0l0,0l0,0l0,0l0,0l0,0l0,0l0,0l0,0l0,0l0,0l0,0l0,0l0,0l0,0l0,0
	l0,0l0,0l0,0l0,0l0,0l0,0l0,0l0,0l0,0l0,0l0,0l0,0l0,0l0,0l0,0l0,0l0,0l0,0l0,0l0,0l0,0l0,0l0,0l0,0l0,0l0,0l0.1-0.1l0,0l0,0l0,0
	l0,0l0,0l0.1-0.1l0,0l0,0l0,0l0,0l0,0l0,0l0,0l0,0h0.1l0,0l0,0c0.1-0.1,0.2-0.1,0.4-0.1l0,0c0.1,0,0.2,0,0.2-0.1h0.1l0,0l0,0l0,0
	h0.1l0,0l0,0l0,0l0,0l0,0l0,0l0,0l0,0h15.4v-3.9c0-1.1,0.9-1.9,1.9-1.9c1.1,0,1.9,0.9,1.9,1.9v3.9h15.4h0.1l0,0l0,0l0,0l0,0l0,0l0,0
	l0,0l0,0l0,0l0,0l0,0l0,0l0,0l0,0l0,0l0,0l0,0l0,0l0,0l0,0l0,0l0,0l0,0l0,0l0,0l0,0l0,0l0,0l0,0l0,0 M197.4,32.2L197.4,32.2
	L197.4,32.2 M197.8,32.3L197.8,32.3L197.8,32.3L197.8,32.3L197.8,32.3L197.8,32.3 M197.9,32.4L197.9,32.4c0.2,0.1,0.4,0.3,0.6,0.5
	l0,0l0,0l0,0l0,0l0,0l0,0l0,0l0,0l0,0l0,0l0,0l0,0l0,0l0,0l0,0l0,0l0,0V33l0,0l0,0v0.1v0.1l0,0l0,0l0,0l0,0l0,0l0,0l0,0l5.8,17.5
	l0,0l0,0l0,0l0,0l0,0l0,0l0,0l0,0l0,0v0.1l0,0c0,0.1,0,0.3,0,0.4c-0.1,4.2-3.5,7.6-7.8,7.6l0,0c-4.3,0-7.7-3.4-7.8-7.7l0,0l0,0l0,0
	V51v-0.1l0,0l0,0l0,0l0,0l0,0l0,0v-0.1l0,0l0,0l0,0l0,0v-0.1l0,0l0,0l0,0v-0.1l0,0l4.9-14.9 M191.2,94.4h-23.3
	c-1.1,0-1.9-0.9-1.9-1.9c0-1.1,0.9-1.9,1.9-1.9h23.3c1.1,0,1.9,0.9,1.9,1.9C193.1,93.6,192.2,94.4,191.2,94.4z M197,40.3l-3.1,9.4
	h6.3L197,40.3z M200.4,53.6h-6.7c0.7,1.2,1.9,1.9,3.4,1.9S199.7,54.7,200.4,53.6z M162,40.3l-3.1,9.4h6.3L162,40.3z M165.4,53.6
	h-6.7c0.7,1.2,1.9,1.9,3.4,1.9C163.4,55.5,164.7,54.7,165.4,53.6z M202.8,88.6h-46.7c-1.1,0-1.9-0.9-1.9-1.9c0-1.1,0.9-1.9,1.9-1.9
	h46.7c1.1,0,1.9,0.9,1.9,1.9C204.8,87.7,203.9,88.6,202.8,88.6"/>
</svg>
