<?xml version="1.0" encoding="utf-8"?>
<!-- Generator: Adobe Illustrator 16.0.0, SVG Export Plug-In . SVG Version: 6.00 Build 0)  -->
<!DOCTYPE svg PUBLIC "-//W3C//DTD SVG 1.1//EN" "http://www.w3.org/Graphics/SVG/1.1/DTD/svg11.dtd">
<svg version="1.1" id="Capa_1" xmlns="http://www.w3.org/2000/svg" xmlns:xlink="http://www.w3.org/1999/xlink" x="0px" y="0px"
	 width="230px" height="310px" viewBox="0 0 230 310" style="enable-background:new 0 0 230 310;" xml:space="preserve">
<style type="text/css">
<![CDATA[
	.st0{fill-rule:evenodd;clip-rule:evenodd;}
	.st1{fill:none;stroke:#E5E6E7;stroke-width:0.7087;stroke-miterlimit:22.9256;}
	.st2{fill-rule:evenodd;clip-rule:evenodd;fill:#FFFF00;}
	.st3{fill-rule:evenodd;clip-rule:evenodd;fill:#FFFFFF;}
]]>
</style>
<path class="st3" d="M11.1,0.7h208.1c6.3,0,11.4,5.1,11.4,11.3v286.6c0,6.2-5.1,11.3-11.4,11.3H11.1c-6.3,0-11.4-5.1-11.4-11.3V12
	C-0.3,5.8,4.9,0.7,11.1,0.7z"/>
<path class="st3" d="M17.9,10.7h194.6c5.9,0,10.7,4.8,10.7,10.6v268c0,5.8-4.8,10.6-10.7,10.6H17.9c-5.9,0-10.7-4.8-10.7-10.6v-268
	C7.2,15.5,12,10.7,17.9,10.7z"/>
<path class="st1" d="M17.9,10.7h194.6c5.9,0,10.7,4.8,10.7,10.6v268c0,5.8-4.8,10.6-10.7,10.6H17.9c-5.9,0-10.7-4.8-10.7-10.6v-268
	C7.2,15.5,12,10.7,17.9,10.7z"/>
<path class="st0" d="M132.4,60.2c-3.5-1.9-6.2-2.9-8.6-3.3l0.2-0.3c0.1-0.1,0.2-0.3,0.1-0.5l-0.6-2.2c0.2-0.3,0.4-0.6,0.6-0.9
	c2.2-0.7,3.3-2,3.5-3.9c1,0,1.8-0.9,1.8-1.9l0-4.4c0-1-0.8-1.8-1.8-1.9c-0.1-3.4-1.6-10.1-11.2-10.1c-9.6,0-11.1,6.7-11.2,10.1
	c-1,0.1-1.8,0.9-1.8,1.9v4.4c0,1,0.9,1.9,1.9,1.9l0.9,0c0.3,0,0.6-0.1,0.9-0.3c0.3,1.8,1.1,3.5,2.1,5l-0.6,2.2c0,0.1,0,0.3,0.1,0.5
	l0.2,0.3c-2.4,0.4-5.1,1.4-8.6,3.3c-1.1,0.5-1.8,1.6-1.8,2.9v2.5c0,0.4,0.2,0.6,0.6,0.6h14.2h0.2h5.4h0.2h14.2
	c0.4,0,0.6-0.2,0.6-0.6V63C134.2,61.9,133.5,60.7,132.4,60.2 M116.5,58.8l1.4,3.2H115L116.5,58.8z M114.6,63.2h3.7l0.3,1.8h-4.4
	L114.6,63.2z M122.7,55l0.2,1.1l-0.6,0.8c0,0-0.1,0.1-0.1,0.1l-2.5,3.4l-0.8,1.1l-1.6-3.6c1.9-0.2,3.7-1.2,5.1-2.6
	C122.5,55.2,122.6,55.1,122.7,55z M125,51.3c0.3-0.8,0.6-1.6,0.7-2.5c0.2,0.1,0.5,0.2,0.8,0.3C126.4,49.9,126,50.7,125,51.3z
	 M128.2,42.8v4.4c0,0.4-0.3,0.7-0.7,0.7h-0.9c-0.4,0-0.7-0.3-0.7-0.7v-0.4v-4c0-0.4,0.3-0.7,0.7-0.7h0.9
	C127.9,42.1,128.2,42.3,128.2,42.8z M116.5,32.1c3.6,0,9.8,1.2,10,8.9c-0.2,0-0.5,0.1-0.7,0.2c-0.7-4.5-4.6-7.9-9.3-7.9
	c-4.7,0-8.6,3.4-9.3,7.9c-0.2-0.1-0.4-0.2-0.7-0.2C106.7,33.2,112.8,32.1,116.5,32.1z M107,47.2c0,0.4-0.3,0.7-0.7,0.7h-0.9
	c-0.4,0-0.7-0.3-0.7-0.7v-4.4c0-0.4,0.3-0.7,0.7-0.7h0.9c0.4,0,0.7,0.3,0.7,0.7V47.2z M108.2,42.6c0-4.5,3.7-8.2,8.3-8.2
	c4.5,0,8.3,3.7,8.3,8.2v4.1c0,1.9-0.5,3.7-1.3,5.2c-1.4,0.4-3.4,0.7-6.3,0.7c-0.4,0-0.6,0.2-0.6,0.6c0,0.4,0.2,0.6,0.6,0.6
	c2.1,0,3.9-0.1,5.4-0.4c0,0-0.1,0.1-0.1,0.1c-0.3,0.4-0.6,0.8-0.9,1.1c-1.4,1.3-3,2.1-4.6,2.1c-0.1,0-0.2-0.1-0.3-0.1
	c-0.1,0-0.2,0-0.2,0.1c-1,0-2-0.4-2.9-0.9c-1-0.6-1.9-1.3-2.7-2.3c-0.1-0.1-0.1-0.1-0.2-0.2l0,0c-1.3-1.7-2.2-4-2.2-6.6L108.2,42.6
	L108.2,42.6z M115.6,57.9l-1.6,3.6l-0.8-1.1l-2.5-3.4c0,0,0,0-0.1-0.1L110,56l0.2-1.1c0.1,0.1,0.2,0.2,0.2,0.3
	C111.9,56.6,113.6,57.6,115.6,57.9z M99.9,63c0-0.8,0.4-1.5,1.1-1.8c3.8-2,6.5-3,8.9-3.3l3.5,4.8L113,65l-13.1,0V63z M133,65h-13.1
	l-0.5-2.2l3.6-4.9c2.4,0.4,5.2,1.4,8.8,3.3c0.7,0.4,1.1,1.1,1.1,1.9V65z"/>
<path class="st0" d="M118.4,116.7v2.9c0,2.2-1.8,4.1-4.1,4.1c-2.3,0-4.1-1.8-4.1-4.1v-2.9h-1.2v2.9c0,2.9,2.4,5.2,5.3,5.2
	c2.9,0,5.3-2.3,5.3-5.2v-2.9H118.4z"/>
<path class="st0" d="M130.8,140.7l-3.1-12.5c-0.3-1.3-1.5-2.2-2.8-2.2l-7-0.5v-2.4h-1.2v2.9c0,0.3,0.2,0.6,0.5,0.6l7.6,0.6h0
	c0.8,0,1.5,0.5,1.7,1.3l3.1,12.5c0.1,0.2,0.1,0.5,0.1,0.7c0,1.6-1.3,2.9-2.9,2.9v1.2c2.3,0,4.1-1.8,4.1-4.1
	C130.9,141.4,130.8,141,130.8,140.7"/>
<path class="st0" d="M110.8,123.1v2.4l-6.9,0.5c0,0,0,0,0,0c-1.3,0-2.5,0.9-2.8,2.2l-3.1,12.5c-0.3,1.1-0.1,2.2,0.5,3.1
	c0.6,0.9,1.5,1.6,2.5,1.9c0.3,0.1,0.7,0.1,1,0.1v-1.2c-0.2,0-0.5,0-0.7-0.1c-0.8-0.2-1.4-0.7-1.8-1.3c-0.4-0.7-0.5-1.4-0.3-2.2
	l3.1-12.5c0.2-0.8,0.9-1.3,1.7-1.3l7.5-0.6c0.3,0,0.5-0.3,0.5-0.6v-2.9L110.8,123.1L110.8,123.1z"/>
<path class="st0" d="M116.7,110.9H112c-1.6,0-2.9,1.3-2.9,2.9v3.5c0,0.3,0.3,0.6,0.6,0.6h9.3c0.3,0,0.6-0.3,0.6-0.6v-3.5
	C119.6,112.2,118.3,110.9,116.7,110.9 M118.4,116.7h-8.2v-2.9c0-1,0.8-1.7,1.8-1.7h4.7c1,0,1.8,0.8,1.8,1.7V116.7z"/>
<path class="st0" d="M116.7,114.4H112c-1.6,0-2.9,1.3-2.9,2.9c0,0.3,0.3,0.6,0.6,0.6l9.3,0c0.3,0,0.6-0.3,0.6-0.6
	C119.6,115.7,118.3,114.4,116.7,114.4 M110.3,116.7c0.2-0.7,0.9-1.2,1.7-1.2h4.7c0.8,0,1.4,0.5,1.7,1.2H110.3z"/>
<path class="st0" d="M114.3,119.6v-2.3l-1.2,0v2.9c0,0.3,0.3,0.6,0.6,0.6h1.2v-1.2H114.3z"/>
<path class="st0" d="M109.1,142.3h-4.7v-1.2c0-1-0.8-1.7-1.8-1.7c-1,0-1.8,0.8-1.8,1.7v4.1c0,0.3,0.3,0.6,0.6,0.6h5.3
	c1.6,0,2.9-1.3,2.9-2.9C109.7,142.5,109.4,142.3,109.1,142.3 M106.7,144.6h-4.7v-3.5c0-0.3,0.3-0.6,0.6-0.6c0.3,0,0.6,0.3,0.6,0.6
	v1.7c0,0.3,0.3,0.6,0.6,0.6l4.6,0C108.2,144.1,107.5,144.6,106.7,144.6"/>
<rect x="99.7" y="135.9" class="st0" width="4.1" height="1.2"/>
<rect x="124.8" y="135.9" class="st0" width="4.1" height="1.2"/>
<path class="st0" d="M124.8,128.3h-21c-0.3,0-0.6,0.3-0.6,0.6v13.9c0,0.3,0.3,0.6,0.6,0.6l21,0c0.3,0,0.6-0.3,0.6-0.6v-13.9
	C125.4,128.6,125.2,128.3,124.8,128.3 M124.3,142.3h-19.9v-12.8h19.9V142.3z"/>
<rect x="121.9" y="140" class="st0" width="1.2" height="1.2"/>
<rect x="119.6" y="140" class="st0" width="1.2" height="1.2"/>
<path class="st0" d="M116.8,125.6l-2.5,2.5l-2.5-2.5l-0.8,0.8l2.9,2.9c0.1,0.1,0.3,0.2,0.4,0.2c0.2,0,0.3-0.1,0.4-0.2l2.9-2.9
	L116.8,125.6z"/>
<path class="st0" d="M126,139.4c-1,0-1.8,0.8-1.8,1.7v1.2h-4.7c-0.3,0-0.6,0.3-0.6,0.6c0,1.6,1.3,2.9,2.9,2.9l5.3,0
	c0.3,0,0.6-0.3,0.6-0.6v-4.1C127.8,140.2,127,139.4,126,139.4 M126.6,144.6h-4.7c-0.8,0-1.4-0.5-1.7-1.2h4.6c0.3,0,0.6-0.3,0.6-0.6
	v-1.7c0-0.3,0.3-0.6,0.6-0.6c0.3,0,0.6,0.3,0.6,0.6L126.6,144.6L126.6,144.6z"/>
<rect x="103.8" y="132.4" class="st0" width="21" height="1.2"/>
<path class="st0" d="M116.7,128.3H112c-0.3,0-0.6,0.3-0.6,0.6v7.6c0,0.3,0.3,0.6,0.6,0.6l4.7,0c0.3,0,0.6-0.3,0.6-0.6v-7.6
	C117.3,128.6,117,128.3,116.7,128.3 M116.1,135.9h-3.5v-6.4h3.5V135.9z"/>
<path class="st0" d="M58.6,101.7c-0.4,0-0.7,0.3-0.7,0.7c0,0.4,0.3,0.7,0.7,0.7c0.4,0,0.7-0.3,0.7-0.7C59.3,102,59,101.7,58.6,101.7
	 M70,80.8c-0.3-0.3-0.7-0.3-1,0l-3.6,3.6l-0.9-0.9c-0.3-0.3-0.7-0.3-1,0c-0.3,0.3-0.3,0.7,0,1l1.4,1.4c0.3,0.3,0.7,0.3,1,0l4.1-4.1
	C70.3,81.5,70.3,81.1,70,80.8z M62.9,106.1l-4.1-1.5c-0.4-0.1-0.7,0-0.9,0.4c-0.1,0.4,0,0.7,0.4,0.9l4.1,1.5c0.1,0,0.2,0,0.2,0
	c0.3,0,0.5-0.2,0.6-0.4C63.5,106.7,63.3,106.3,62.9,106.1z M62.9,103.2l-1.5-0.6c-0.4-0.1-0.7,0-0.9,0.4c-0.1,0.4,0,0.7,0.4,0.9
	l1.5,0.6c0.4,0.1,0.8,0,0.9-0.4C63.5,103.8,63.3,103.4,62.9,103.2z M78.7,89.5l4-4c0.2-0.2,0.2-0.4,0.2-0.6
	c-0.1-0.2-0.2-0.4-0.5-0.5l-9.8-3c-0.9-2.8-3.5-4.8-6.5-4.8c-2.8,0-5.3,1.7-6.3,4.3l-11.4,3.5c-0.2,0.1-0.4,0.3-0.5,0.5
	c-0.1,0.2,0,0.5,0.2,0.6l4.1,4.1l-2.6,4.3c-0.1,0.2-0.1,0.4-0.1,0.6c0.1,0.2,0.2,0.3,0.4,0.4l3.8,1.3v10.5c0,0.3,0.2,0.5,0.4,0.6
	c2.3,0.9,10.9,4.1,11,4.1c0.1,0,0.3,0.1,0.4,0c0,0,0,0,0,0l12.3-4.1c0.3-0.1,0.5-0.4,0.5-0.6V95.9l4-1.3c0.2-0.1,0.4-0.3,0.5-0.5
	c0.1-0.2,0-0.5-0.2-0.6L78.7,89.5z M73,83.3c0-0.2,0-0.3,0-0.5l8,2.5l-3.4,3.4L72,86.8C72.6,85.8,73,84.6,73,83.3z M60.9,81.6
	c0.8-2.2,2.8-3.7,5.2-3.7c2.5,0,4.7,1.7,5.3,4.1c0.1,0.4,0.2,0.9,0.2,1.3c0,1.3-0.4,2.4-1.2,3.4c-1,1.3-2.6,2-4.3,2
	c-1.8,0-3.5-0.9-4.5-2.3c-0.6-0.9-1-2-1-3.1C60.6,82.7,60.7,82.1,60.9,81.6z M49.9,85.3l9.5-2.9c0,0.3-0.1,0.7-0.1,1
	c0,1.1,0.3,2.2,0.8,3.1l-6.7,2.2L49.9,85.3z M51.3,93.9l2.2-3.6l11,3.6l-2.2,3.6C61.1,97.1,52.5,94.3,51.3,93.9z M64.7,109.7
	l-9.6-3.6v-9.5c7.5,2.5,7.2,2.4,7.4,2.4c0.2,0,0.5-0.1,0.6-0.3l1.6-2.7L64.7,109.7L64.7,109.7z M65.4,92.8l-10.2-3.4l5.5-1.8
	c1.3,1.6,3.2,2.5,5.3,2.5c1.9,0,3.7-0.8,5-2.2l4.5,1.5L65.4,92.8z M77.1,106.1l-10.9,3.6V95.5l2.4,3c0.2,0.2,0.5,0.3,0.7,0.2
	l7.8-2.4L77.1,106.1z M69.3,97.3l-2.7-3.4l11-3.6l3.4,3.4L69.3,97.3z"/>
<path class="st0" d="M159.5,91.6v-4.7c0-0.6,0-0.9,0.4-1.2c0.3-0.3,0.6-0.4,1.2-0.4c1.2,0,7.5-0.1,7.9,0c1,0.3,0.9,1.2,0.9,2.3
	c0,0.4-0.1,2.9,0,3.1c0,0,0,0,0,0c0,0,0,0,0,0c0,0,0,0,0,0l1.3,0c0.4,0,1-0.1,1,0.4c0,0.8-1.5,0.3-2.4,0.5l0,0.8
	c0.4,0.1,5.7,0,6.7,0c0.3,0,0.6,0.1,0.6,0.4c0,0.6-0.8,0.5-1.5,0.5l-3.8,0c-0.3,0-1.7-0.1-1.9,0c-0.1,0.2,0,0.9,0,1.2
	c-0.1,0.5-0.3,0.6-0.6,0.9l-4,0.1c-0.2,1.3-0.1,2.5-1.4,2.4c0,0.2,0.2,1,0.3,1.2c0.3,0.1,0.5,0.2,0.7,0.4c0.2,0.1,0.5,0.3,0.7,0.4
	l0.9,0.8c0.1,0.1,0.1,0.2,0.3,0.2c0.7,0,1.5,0,2.2,0h3.3c0.4,0,0.7-0.1,0.9,0.2c0.2,0.3,0,0.6-0.3,0.7c-0.6,0.1-5-0.1-5.6,0
	c0.1,0.2,0.3,0.6,0.5,0.8c0.4,0.1,6.4,0,7.5,0c0.4,0,0.7,0,0.8,0.3c0.1,0.3-0.1,0.6-0.4,0.6c-0.4,0.1-6.7,0-7.6,0
	c0,0.2,0.1,0.3,0.1,0.5l-0.2,0l0,0.2c0.2,0.1,0.3,0.1,0.3,0.5c0,0.2-0.1,0.3-0.2,0.5c-0.4,0.4-1.2,0.2-1.7,0.2
	c-0.1,0.3-0.1,0.6-0.2,0.9c-0.3,0.8-0.6,1.5-1.2,2.1c-1.7,1.7-4.6,1.6-6.3,0c-0.7-0.7-1.4-1.7-1.5-3c-0.4-0.1-9.6,0-10.7,0
	c-0.2,0-0.4,0-0.6-0.1c-0.1-0.1-0.2-0.3-0.4-0.4c0,0.5-0.1,1.2-0.5,1.5c-0.5,0.4-1-0.3-1.4-0.4c-0.2,0.5-0.1,0.9-0.9,1.9
	c-2.5,3.2-7.6,1.8-8.2-2.3c-0.2-1.2,0.2-2.4,0.9-3.3c0.2-0.3,0.5-0.5,0.7-0.7c-0.2-0.1-0.5-0.3-0.7-0.4c-0.2-0.2-0.3-0.5-0.2-0.8
	c0.2-0.4,0.8-0.8,1.2-1.1c1.1-0.7,2.2-0.8,3.7-0.7l-0.1-0.1l0,0c0-0.1,0,0-0.1-0.1c-0.2-0.3,0.2-1,0.5-1.4l1.5-3.1
	c0.2-0.3,0.7-1.3,0.8-1.6c0,0,0,0,0,0l-0.1,0c0,0-0.1,0-0.1,0c-0.1,0-0.2,0-0.3,0.1c-0.7,0.1-1.3,0.3-1.4-0.6
	c-0.1-0.4-0.1-0.9-0.1-1.4c-0.2-2.6-0.8-2.8,1.3-2.8c1.4,0,3.1,0.3,4.4,0.9c0.2,0.1,0.3,0.2,0.6,0.1c0.4-0.1,0.8-0.2,1.3-0.3
	c0.4-0.1,0.4-0.4,0.7-0.8c0.4-0.9,1-2.1,1.5-3c0.2-0.3,0.4-0.6,0.6-0.9c-0.6-0.2-1-0.5-1.4-1c-0.2-0.2-0.3-0.5-0.4-0.8
	c-0.2-0.5-0.1-0.7-0.2-1c-0.5-0.1-1.5,0.1-1.4-0.6c0-0.6,1.1-0.3,1.6-0.4c0.3-0.6,0.3-0.8,0.9-1.3c1-0.9,2.5-0.9,3.6-0.2
	c1.2,0.7,1.6,2.3,1,3.6c-0.2,0.4-0.4,0.7-0.7,1c0.4,0.3,0.8,0.5,1.1,0.9c0.9,1.1,1.5,2.6,2,4c0.5,1.3,1,3.4,1,4.9
	c0,0.7-0.1,1.1-0.3,1.7l1.8,0C159.5,93.9,159.5,92.6,159.5,91.6 M168.8,99.3h10c0.4,0,1.3-0.1,1.6,0.1c0.2,0.1,0.2,0.4,0.1,0.6
	c-0.1,0.2-0.4,0.2-0.7,0.2l-5,0c0,0,0,0,0,0c0,0,0,0,0-0.1c-0.1-0.2,0.1-0.1-0.2-0.2c-0.1,0.1,0,0.2-0.1,0.2l-5,0
	c-0.4,0-1.3,0.1-1.5-0.2c-0.1-0.2-0.1-0.5,0.1-0.6C168.2,99.3,168.5,99.3,168.8,99.3z M166.4,97.6h7.4c0.7,0,0.7,0.9,0,0.9h-7.3
	C165.7,98.5,165.7,97.6,166.4,97.6z M156.9,91.5l-3,0.6c0,0.3,0.1,0.5-0.1,0.8c-0.2,0.2-0.4,0.2-0.6,0.3c-0.8,0.2-4.1,0.8-4.6,1.1
	c-0.9,0.5-0.6,1.9-0.6,2.9c0,0.6,0.1,1.2,0.2,1.7c0.1,0.5,0.1,1.1,0.2,1.6c0.2,0.1,1.4,0,1.7,0c0.1-0.2-0.1-0.5,0-0.7
	c0,0,0.2-0.2,0.2-0.2c0.1-0.1,0.1-0.1,0.2-0.1c0,0.3-0.2,0.3-0.2,0.5c0.2,0,0.1-0.3,0.4-0.3c0,0.4-0.3,0.3-0.2,0.5l0.3-0.4l-0.1-0.1
	c-0.1,0-0.1,0-0.1-0.1l-0.1-0.1c-0.1-0.1-0.1-0.2-0.3,0c0,0-0.1,0.1-0.1,0.1c-0.1,0.1,0,0-0.1,0.1c0-0.3,0.3-0.3,0.2-0.5
	c-0.1,0-0.1,0.1-0.2,0.2c0-0.3,0-0.4-0.1-0.7c0-1.1-0.4-2.3,0.4-2.8c0.6-0.3,5.3-0.7,5.9-1c0.1,0.1,0.1,0.1,0.2,0.2
	c0.1,0,0.2,0,0.3,0c0-0.3-0.1-0.1-0.2-0.2c0,0,0,0,0,0c0.1-0.2,0.2-0.2,0.3-0.4c0.1,0.1,0,0.2,0.2,0.2c0.1-0.2,0-0.2,0-0.4
	C157,93.8,157.3,93.6,156.9,91.5z M152.1,96.6c-0.2,0-0.5,0.1-0.7,0.1c-0.2,0-0.4,0-0.6,0.2l0.2,2.4c0,0.4,0,1.4,0.2,1.6
	c0.3,0.5,0.3,0.8,0.4,1.4c0,0.2,0.1,0.1,0.3,0.1c1.1,0,2.3-0.2,2.4-1.6c0.1-1-0.4-1.9-0.8-2.7c-0.4-0.1-1.1,0.1-1.3-0.2
	C151.9,97.6,152.1,96.9,152.1,96.6z M149.3,101.5c-0.5,0-2.5-0.1-2.6,0.4c0.2,0.2,0.4,0.3,0.7,0.4c0.3,0.1,0.5,0.2,0.9,0.2
	c0.3,0,2,0.1,2.1,0c0.1-0.2-0.1-0.8-0.2-0.9C150,101.4,149.6,101.5,149.3,101.5z M151,103.3c-2.4,0-3.8,0.4-5.4-1.3
	c-0.6-0.6-1-1.2-1.4-2c-0.4-0.9-0.3-1.9-0.1-2.9c0-0.2,0.5-2.1,0.6-2.4c0.1-0.2,0.1-0.1,0.2-0.2c0-0.4-0.1-0.3,0-0.7l0.4-1.2
	c0.1-0.2,0.2-0.4,0.2-0.6c-1.3-0.3-1.9-1.9-0.9-2.8l0.4-0.3c0,0,0,0,0,0c-0.6-0.3-2.7-0.5-3.5-0.5c-0.1,0.3,0.2,2.5,0.3,3
	c0.5-0.1,0.9-0.2,1.3-0.3c0.3,0,1-0.2,1,0.5c0,0.2-0.8,1.8-1,2.1c-0.2,0.5-2,4-2,4.2c0.2,0.1,1.5,1.6,1.8,2c0.1,0.1,0.2,0.3,0.3,0.4
	l3.2,3.8c0.1,0.1,0.1,0.2,0.2,0.2c0.1,0.1,4.1,0,4.6,0c0.8,0,1.6,0,2.3,0c0.7,0,1.5,0,2.3,0c0-1.2,0-2,0.4-3c0.2-0.6,0.6-1.1,1-1.5
	c0.8-0.8,1.6-1.1,2.9-1.3c1.3-0.2,1.9,0,3.1,0.1c0-0.1-0.2-0.8-0.2-0.9l-8.4,0c0.1,0.2,0.2,0.4,0.2,0.6c0.6,1.4,0.8,3.4-0.8,4.2
	C153,103.4,152.1,103.3,151,103.3z M145.4,105.9c0.4-0.6-0.4-0.9-0.6-0.6l0-0.1c-0.1-0.6,0.1-1.1-0.3-1.5l-2.6-3
	c-0.6-0.7-0.4-0.6-1.1-0.8c-1.3-0.3-2.8-0.2-3.9,0.6c-0.1,0.1-0.4,0.3-0.5,0.4l3.2,1.9c0.5,0.3,1.1,0.6,1.6,0.9l1.2,0.7
	c0.3,0.2,0.2,0.2,0.2,0.3c0.6,0.3,0.2-0.1,0.7,0.3c0.1,0.1,0,0,0.1,0.1c0.4,0.2,0.9,0.6,1.2,0.7c0.1,0,0.4,0.2,0.4,0.3
	c-0.2,0.2-0.3,0-0.4-0.1l-0.2,0c0,0.2,0.2,0.4,0.4,0.4C145.2,106.3,145.3,106,145.4,105.9z M156.5,95.8c-0.7,0.2-2.6,0.5-3.4,0.6
	c-0.1,0.3-0.3,0.5-0.2,0.8l11.1,0c0.1-0.1,0.3-1.3,0.3-1.5l-6.8,0C156.9,95.7,157,95.6,156.5,95.8z M156.7,90.6c0-0.6-1-3.3-1.3-3.9
	c-0.4-0.9-1.2-2.7-2.3-2.7c-0.8,0-1.3,0.4-1.7,0.9c-0.5,0.7-1.3,2.5-1.7,3.3c-0.4,0.8-0.4,1-1.3,1.2c-0.7,0.2-1.4,0.3-2.2,0.4
	c-0.2,0-0.8,0.1-1,0.3c-0.3,0.3-0.1,0.7,0.1,0.9c0.3,0.3,0.5,0.2,1,0.1c0.4-0.1,0.7-0.1,1.1-0.2l2.7-0.5c0.2,0,0.2-0.2,0.3-0.3
	c0.1-0.1,0.2-0.3,0.2-0.4c0.1-0.1,0.1-0.3,0.2-0.4c0.3-0.5,0.6-1.4,1.1-1.4c0.4,0,0.5,0.3,0.7,0.6c0.4,0.9,0.7,1.8,1.1,2.7
	C153.7,91.2,156.6,90.6,156.7,90.6z M152.9,92.3c0-0.3-0.8-2.4-1-2.9c-0.1-0.1,0-0.1-0.1-0.2l0,0l-0.3,0.6c-0.4,0.9-0.6,1.4-1.5,1.5
	c-1.1,0.2-2.2,0.5-3.3,0.7c-0.1,0.2-0.2,0.4-0.3,0.5c-0.5,1.1-1.1,2.9-1.3,4c-0.2,0.7-0.4,2-0.2,2.7c0.2,0.7,0.8,1.4,1.2,1.9
	c0.5-0.4,0.6-0.5,1.4-0.6c0-0.5-0.1-1.1-0.2-1.7c-0.1-0.6-0.1-1.1-0.2-1.7c-0.1-1.1-0.2-2.4,0.3-3.2c0.5-0.8,1.5-0.9,2.5-1.1
	C151,92.7,151.9,92.5,152.9,92.3z M160.4,86.7v7.7c0,0.5,0.2,0.4,0.7,0.4h3.2l4.4-0.1c0.2,0,0.4-0.1,0.4-0.4l-0.1-0.8
	c-0.5,0-1,0-1.5,0c-0.4,0-1,0.1-1-0.5c0-0.6,0.6-0.4,1.1-0.4c0.5,0,1,0,1.5,0l0-0.9h-2.4c-0.4,0-1.4,0.1-1.6-0.1
	c-0.1-0.1-0.2-0.2-0.2-0.4c0-0.4,0.4-0.4,0.7-0.4l3.5,0c0-0.4,0-3.5,0-4.2c0-0.4-0.2-0.4-0.5-0.4c-0.8,0-1.7,0-2.4,0
	c0,0.3,0,1.5,0,1.7c-0.1,0.2-0.2,0.3-0.5,0.3h-1.7c-0.8,0-0.5-0.9-0.5-2c-0.6,0-1.1,0-1.7,0C160.7,86.2,160.4,86.1,160.4,86.7z
	 M164.2,100.3c-0.9-0.4-2.2-0.6-3.1-0.6c-1.5,0-3,0.5-3.8,1.8c-0.5,0.8-0.7,2-0.5,3.2c0.3,0.1,4.7,0,5.3,0l5.4,0
	c0-0.3-0.2-0.5-0.3-0.9c-0.8,0-1.9,0-2.8,0c-0.3,0-0.5,0-0.6-0.3c-0.1-0.2,0-0.5,0.3-0.6c0.3-0.1,2.2,0,2.6,0c0-0.2-0.1-0.3-0.2-0.5
	c-0.3-0.4-0.1-0.4-0.8-0.4l-2.8,0c-0.3,0-0.7,0.1-0.9-0.1c-0.3-0.2-0.1-0.7,0.1-0.8c0.2-0.1,2.9,0,3.2,0
	C165.1,100.8,164.5,100.4,164.2,100.3z M159.7,105.6l-1.4,0c0,0.9,0.6,1.8,1.2,2.3c1.5,1.3,3.6,1.3,5,0c0.6-0.5,1.2-1.6,1.1-2.3
	l-1.4,0c0,0,0,0,0,0l0,0L164,106c-0.1,0.3-0.3,0.7-0.6,0.9C162,108.1,160,107.3,159.7,105.6z M139.6,104c-0.8-0.2-1.4,0.3-1.6,0.9
	c-0.2,0.7,0.3,1.4,0.9,1.6C140.6,106.9,141.3,104.4,139.6,104z M138,107.1c-1.6-1.1-1.2-3.4,0.5-3.9c-0.1-0.1-1-0.6-1.2-0.8
	c-0.2-0.1-0.3-0.1-0.4,0.1c-1.7,1.5-1.7,3.9-0.2,5.4c2.2,2.2,6,0.6,6.2-2.2c-0.4-0.2-1.1-0.7-1.4-0.8c0,0.6,0,0.8-0.2,1.4
	c-0.2,0.4-0.5,0.7-0.7,0.9C139.8,107.6,138.8,107.6,138,107.1z M153.3,82.6c0.5-0.4,0.5-0.7,0.7-1.2c-0.2-0.1-3.9-0.3-4.1-0.3
	C149.9,82.7,152,83.8,153.3,82.6z M150.1,80.2l3.8,0.2c-0.1-0.4-0.4-0.8-0.7-1C151.8,78.3,150.2,79.6,150.1,80.2z M163.1,105.6
	l-2.5,0c0,0.3,0.3,0.5,0.4,0.7c0.2,0.2,0.5,0.3,0.8,0.3C162.6,106.5,163.2,105.9,163.1,105.6z M164.3,86.2l0,1h0.9h0l0-1L164.3,86.2
	z"/>
<path class="st0" d="M143,129.3l1.1,4.2l-8.6-4.9l4.9-8.5l1.1,4.2c7.8-2.7,13.1-8.6,13.2-14.3c0.5,0.8,0.8,1.6,1,2.4
	C157.7,118.9,152,126.2,143,129.3"/>
<path class="st0" d="M75.8,121.2h-4.3l7-7l7,7h-4.4c0.6,8.2,4.9,14.8,10.5,16.4c-0.8,0.2-1.7,0.4-2.6,0.4
	C82.1,138,76.5,130.6,75.8,121.2"/>
<path class="st0" d="M84.8,55.4l-1.1-4.2l8.6,4.9l-4.9,8.5l-1.1-4.2c-7.8,2.7-13.1,8.6-13.2,14.3c-0.5-0.8-0.8-1.6-1-2.4
	C70.1,65.8,75.8,58.5,84.8,55.4"/>
<path class="st0" d="M153.1,67.8h4.3l-7,7l-7-7h4.4c-0.6-8.2-4.9-14.8-10.5-16.4c0.8-0.2,1.7-0.4,2.6-0.4
	C146.8,50.9,152.4,58.3,153.1,67.8"/>
<path class="st2" d="M63.4,195.3H165c1.4,0,2.5-1.1,2.5-2.5v-16.7c0-1.4-1.1-2.5-2.5-2.5H63.4c-1.4,0-2.5,1.1-2.5,2.5v16.7
	C60.9,194.2,62,195.3,63.4,195.3"/>
<path class="st0" d="M149.1,178.8v2.1v0.1l-0.1,0l-0.9,0.1l-0.1,0l0,0c-0.1-0.1-0.2-0.2-0.2-0.3h0c-0.1-0.1-0.1-0.2-0.2-0.3H146v6.6
	c0.2,0.1,0.3,0.1,0.4,0.2c0.1,0.1,0.3,0.2,0.3,0.3l0,0.1l0,0.1l-0.1,1.2l0,0.1h-0.1h-3.5H143l0-0.1l-0.1-1.2l0-0.1l0,0
	c0.1-0.1,0.2-0.2,0.3-0.3c0.1-0.1,0.3-0.1,0.4-0.2v-6.6h-1.5c-0.1,0.1-0.1,0.2-0.2,0.3l0,0c-0.1,0.1-0.1,0.2-0.2,0.3l0,0l-0.1,0
	l-0.9-0.1l-0.1,0v-0.1v-2.1v-0.1h0.2h8.3h0.2V178.8z M140.1,189.1h-6.9h-0.1l0-0.1l-0.1-1.2l0-0.1l0,0c0.1-0.1,0.2-0.2,0.3-0.3
	c0.1-0.1,0.3-0.1,0.4-0.2v-6.5c-0.2-0.1-0.3-0.1-0.4-0.2v0c-0.2-0.1-0.3-0.2-0.3-0.3l0,0l0-0.1l0.1-1.2l0-0.1h0.1h6.7h0.2v0.1v2.6
	v0.1l-0.1,0l-1.1,0.1l-0.1,0l-0.1,0c-0.1-0.1-0.2-0.3-0.3-0.5l0,0c-0.1-0.2-0.2-0.4-0.2-0.6h-2v2.2h1.8c0.1-0.1,0.1-0.2,0.2-0.3
	c0.1-0.1,0.1-0.2,0.2-0.3l0.1,0l0.1,0l0.9,0.1l0.1,0v0.1v2.6v0.1l-0.1,0l-0.9,0.1l-0.1,0l0,0c-0.1-0.1-0.2-0.2-0.2-0.3v0
	c-0.1-0.1-0.1-0.2-0.2-0.3h-1.8v2.5h2.2c0.1-0.2,0.1-0.4,0.2-0.6h0c0.1-0.2,0.2-0.4,0.3-0.5l0.1,0l0.1,0l1.1,0.1l0.1,0v0.1v2.6v0.1
	H140.1z M129.5,180.5c-0.1,0-0.3-0.1-0.4-0.1c-0.2,0-0.3,0-0.5,0c-0.2,0-0.3,0-0.4,0.1l0,0c-0.1,0-0.2,0.1-0.3,0.2
	c-0.1,0.1-0.2,0.2-0.2,0.3c0,0.1-0.1,0.2-0.1,0.4c0,0.1,0,0.3,0.1,0.4v0c0,0.1,0.1,0.2,0.2,0.3l0,0c0.1,0.1,0.2,0.2,0.3,0.2h0
	c0.2,0.1,0.4,0.1,0.6,0.2h0l1.3,0.4c0.4,0.1,0.7,0.2,1,0.4c0.3,0.2,0.6,0.4,0.8,0.6c0.2,0.2,0.4,0.5,0.5,0.9
	c0.1,0.3,0.2,0.7,0.2,1.2c0,0.5-0.1,1-0.3,1.4c-0.2,0.4-0.5,0.8-0.9,1.1c-0.4,0.3-0.8,0.5-1.3,0.7c-0.5,0.1-1,0.2-1.5,0.2
	c-0.3,0-0.6,0-0.9-0.1c-0.3,0-0.6-0.1-0.9-0.2c-0.3-0.1-0.6-0.2-0.9-0.3c-0.3-0.1-0.5-0.2-0.7-0.4l-0.1,0v-0.1v-0.3
	c0-0.1,0-0.2,0-0.4c0-0.1,0-0.3,0.1-0.5c0-0.2,0.1-0.4,0.1-0.6c0.1-0.2,0.1-0.3,0.2-0.5l0-0.1h0.1h1.4h0.1l0,0.1
	c0.1,0.2,0.2,0.4,0.2,0.6v0c0,0.2,0.1,0.4,0.1,0.6c0.1,0.1,0.3,0.1,0.4,0.1c0.2,0,0.4,0.1,0.6,0.1c0.4,0,0.8-0.1,1-0.3
	c0.1-0.1,0.2-0.2,0.3-0.3l0,0c0.1-0.1,0.1-0.3,0.1-0.5c0-0.1,0-0.2,0-0.2c0-0.1,0-0.1,0-0.2l0,0c0,0,0-0.1-0.1-0.1
	c0-0.1-0.1-0.1-0.2-0.2c-0.1-0.1-0.2-0.1-0.2-0.2c-0.1-0.1-0.2-0.1-0.4-0.1l-1.5-0.4c-0.8-0.2-1.4-0.6-1.8-1.1
	c-0.4-0.5-0.6-1.2-0.6-2c0-0.9,0.3-1.7,1-2.3c0.3-0.3,0.7-0.5,1.2-0.6c0.4-0.1,0.9-0.2,1.5-0.2c1.1,0,2.1,0.2,3.1,0.7l0.1,0v0.1v0.3
	c0,0.1,0,0.2,0,0.4c0,0.1,0,0.3-0.1,0.5l0,0c0,0.2-0.1,0.4-0.1,0.6c-0.1,0.2-0.1,0.3-0.2,0.5l0,0.1h-0.1H130h-0.1l0-0.1
	c-0.1-0.1-0.2-0.3-0.2-0.5C129.6,180.9,129.5,180.7,129.5,180.5z M115.1,181.1c-0.2,0.2-0.3,0.6-0.4,1c-0.1,0.4-0.1,1-0.1,1.6
	s0,1.2,0.1,1.6c0.1,0.4,0.2,0.8,0.4,1.1c0.2,0.3,0.4,0.5,0.6,0.6v0c0.2,0.1,0.5,0.2,0.8,0.2c0.3,0,0.6-0.1,0.8-0.2
	c0.2-0.1,0.4-0.3,0.6-0.6l0,0c0.2-0.3,0.3-0.6,0.4-1c0.1-0.4,0.1-1,0.1-1.6c0-1.2-0.2-2-0.5-2.6c-0.3-0.5-0.8-0.8-1.5-0.8
	c-0.3,0-0.6,0.1-0.8,0.2C115.5,180.7,115.3,180.9,115.1,181.1z M116.4,189.2c-0.7,0-1.3-0.1-1.9-0.3c-0.5-0.2-1-0.5-1.4-0.9
	c-0.4-0.4-0.6-1-0.8-1.6c-0.2-0.7-0.3-1.5-0.3-2.4s0.1-1.7,0.3-2.4c0.2-0.7,0.5-1.3,0.9-1.7c0.4-0.4,0.9-0.8,1.4-1
	c0.6-0.2,1.2-0.3,1.9-0.3c0.7,0,1.4,0.1,1.9,0.3c0.6,0.2,1,0.5,1.4,0.9c0.7,0.8,1.1,2.1,1.1,3.9c0,0.9-0.1,1.7-0.3,2.4
	c-0.2,0.7-0.5,1.3-0.9,1.7c-0.4,0.5-0.9,0.8-1.5,1.1C117.8,189.1,117.1,189.2,116.4,189.2z M112,178.8v2.1v0.1l-0.1,0l-0.9,0.1
	l-0.1,0l0,0c-0.1-0.1-0.2-0.2-0.2-0.3h0c-0.1-0.1-0.1-0.2-0.2-0.3h-1.5v6.6c0.2,0.1,0.3,0.1,0.4,0.2c0.1,0.1,0.3,0.2,0.3,0.3l0,0.1
	l0,0.1l-0.1,1.2l0,0.1h-0.1H106h-0.1l0-0.1l-0.1-1.2l0-0.1l0,0c0.1-0.1,0.2-0.2,0.3-0.3c0.1-0.1,0.3-0.1,0.4-0.2v-6.6H105
	c-0.1,0.1-0.1,0.2-0.2,0.3l0,0c-0.1,0.1-0.1,0.2-0.2,0.3l0,0l-0.1,0l-0.9-0.1l-0.1,0v-0.1v-2.1v-0.1h0.1h8.3h0.1V178.8z M97.4,181.1
	c-0.2,0.2-0.3,0.6-0.4,1c-0.1,0.4-0.1,1-0.1,1.6s0,1.2,0.1,1.6c0.1,0.4,0.2,0.8,0.4,1.1c0.2,0.3,0.4,0.5,0.6,0.6v0
	c0.2,0.1,0.5,0.2,0.8,0.2c0.3,0,0.6-0.1,0.8-0.2c0.2-0.1,0.4-0.3,0.6-0.6l0,0c0.2-0.3,0.3-0.6,0.4-1c0.1-0.4,0.1-1,0.1-1.6
	c0-1.2-0.2-2-0.5-2.6c-0.3-0.5-0.8-0.8-1.5-0.8c-0.3,0-0.6,0.1-0.8,0.2C97.8,180.7,97.6,180.9,97.4,181.1z M98.7,189.2
	c-0.7,0-1.3-0.1-1.9-0.3c-0.5-0.2-1-0.5-1.4-0.9c-0.4-0.4-0.6-1-0.8-1.6c-0.2-0.7-0.3-1.5-0.3-2.4s0.1-1.7,0.3-2.4
	c0.2-0.7,0.5-1.3,0.9-1.7c0.4-0.4,0.9-0.8,1.4-1c0.6-0.2,1.2-0.3,1.9-0.3c0.7,0,1.4,0.1,1.9,0.3c0.6,0.2,1,0.5,1.4,0.9
	c0.7,0.8,1.1,2.1,1.1,3.9c0,0.9-0.1,1.7-0.3,2.4c-0.2,0.7-0.5,1.3-0.9,1.7c-0.4,0.5-0.9,0.8-1.5,1.1
	C100.1,189.1,99.5,189.2,98.7,189.2z M90.6,183.4c0-0.2,0-0.5,0-0.8c0-0.2,0-0.4,0-0.6l-0.1,0.4c-0.1,0.3-0.2,0.6-0.3,0.9l-2,5.8
	l0,0.1h-0.1h-2h-0.1l0-0.1l-2.1-5.8h0c-0.1-0.2-0.2-0.5-0.3-0.8h0c0-0.1-0.1-0.2-0.1-0.3l0,0.3c0,0.4,0,0.7,0,1v3.8
	c0.2,0.1,0.3,0.1,0.4,0.2c0.1,0.1,0.3,0.2,0.4,0.3l0,0l0,0.1l-0.1,1.1l0,0.1h-0.1h-2.9h-0.1l0-0.1l-0.1-1.1l0-0.1l0,0
	c0.1-0.1,0.2-0.2,0.4-0.3l0,0c0.1-0.1,0.3-0.2,0.4-0.2v-6.6c-0.2-0.1-0.3-0.1-0.4-0.2c-0.2-0.1-0.3-0.2-0.4-0.3l0,0l0-0.1l0.1-1.1
	l0-0.1h0.1h3.4h0.1l0,0.1l2.2,5.9c0.3,0.6,0.4,1.2,0.5,1.7c0-0.2,0.1-0.4,0.1-0.6c0.1-0.3,0.2-0.7,0.4-1.1l2.1-5.9l0-0.1h0.1h3.3
	h0.1l0,0.1l0.1,1.1l0,0.1l0,0c-0.1,0.1-0.2,0.2-0.4,0.3c-0.1,0.1-0.3,0.2-0.4,0.2v6.5c0.2,0.1,0.3,0.1,0.4,0.2v0
	c0.1,0.1,0.3,0.2,0.4,0.3l0,0l0,0.1l-0.1,1.2l0,0.1h-0.1h-3.4H90l0-0.1l-0.1-1.2l0-0.1l0,0c0.1-0.1,0.2-0.2,0.4-0.3l0,0
	c0.1-0.1,0.3-0.1,0.4-0.2V183.4z"/>
<path class="st0" d="M179.4,276.8c1,0,1.8-0.3,2.4-0.9v-2.4h-2.1c-1.4,0-2.1,0.5-2.1,1.6c0,0.5,0.2,0.9,0.5,1.2
	C178.4,276.6,178.8,276.8,179.4,276.8 M174.1,267c0-0.3,0-0.6,0-0.9c1.8-1,3.8-1.5,5.9-1.5c2.1,0,3.6,0.4,4.5,1.2
	c0.9,0.8,1.4,2.1,1.4,4v6.3c0.7,0.1,1.2,0.3,1.6,0.5v2.6c-1,0.5-2.4,0.7-4.3,0.7c-0.2-0.5-0.4-1.1-0.5-1.9c-0.8,1.2-2.4,1.9-4.6,1.9
	c-1.3,0-2.5-0.4-3.4-1.1c-0.9-0.8-1.4-1.8-1.4-3.1s0.4-2.4,1.3-3.1c0.9-0.8,2.2-1.1,3.9-1.1h3.2v-1.4c0-1.5-0.8-2.3-2.5-2.3
	c-0.6,0-1.1,0.1-1.5,0.2c0,0.8-0.2,1.5-0.4,1.9h-2.9C174.2,269,174.1,268.1,174.1,267z M163.7,276.8c1.1,0,2-0.3,2.7-1v-7.9
	c-0.8-0.2-1.7-0.3-2.6-0.3c-0.9,0-1.6,0.4-2,1.2c-0.4,0.8-0.6,2-0.6,3.6c0,1.6,0.2,2.7,0.6,3.4C162.3,276.5,162.9,276.8,163.7,276.8
	z M164.7,258.6c1.1-0.3,2.2-0.4,3.2-0.4c1,0,1.9,0,2.6,0.1V276c0.6,0.1,1.1,0.3,1.6,0.5v2.3c-1.2,0.6-2.7,0.9-4.5,0.9
	c-0.2-0.1-0.4-0.3-0.6-0.5s-0.3-0.5-0.3-0.7c-0.4,0.4-1,0.7-1.7,0.9c-0.7,0.2-1.4,0.4-2,0.4c-2.1,0-3.7-0.6-4.6-1.7
	c-1-1.1-1.4-3-1.4-5.6c0-3,0.7-5,2.2-6.2c1.3-1.1,2.9-1.6,4.7-1.6c0.8,0,1.7,0.1,2.5,0.3V262c-0.9-0.3-1.6-0.6-2-1.1L164.7,258.6z
	 M147.8,276.8c1,0,1.8-0.3,2.4-0.9v-2.4h-2.1c-1.4,0-2.1,0.5-2.1,1.6c0,0.5,0.2,0.9,0.5,1.2C146.8,276.6,147.2,276.8,147.8,276.8z
	 M142.5,267c0-0.3,0-0.6,0-0.9c1.8-1,3.8-1.5,5.9-1.5c2.1,0,3.6,0.4,4.5,1.2s1.4,2.1,1.4,4v6.3c0.7,0.1,1.2,0.3,1.6,0.5v2.6
	c-1,0.5-2.4,0.7-4.3,0.7c-0.2-0.5-0.4-1.1-0.5-1.9c-0.8,1.2-2.4,1.9-4.6,1.9c-1.3,0-2.5-0.4-3.4-1.1c-0.9-0.8-1.4-1.8-1.4-3.1
	s0.4-2.4,1.3-3.1s2.2-1.1,3.9-1.1h3.2v-1.4c0-1.5-0.8-2.3-2.5-2.3c-0.6,0-1.1,0.1-1.5,0.2c0,0.8-0.2,1.5-0.4,1.9H143
	C142.7,269,142.5,268.1,142.5,267z M128.2,269c-0.2-1-0.3-1.8-0.3-2.5s0-1.3,0-1.6h12l0.3,2.5l-5.8,7.3c-0.5,0.7-1.1,1.3-1.7,1.8
	l0.1,0.3c0.6-0.2,1.4-0.3,2.4-0.3h1.6c0.3-0.7,0.6-1.2,1-1.6l2.3,0.3c0.2,1,0.3,1.8,0.3,2.6c0,0.7,0,1.3,0,1.7h-12.5l-0.3-2.4
	l5.8-7.4c0.5-0.7,1.1-1.3,1.7-1.8l-0.1-0.3c-0.6,0.2-1.4,0.3-2.4,0.3h-1.2c-0.3,0.7-0.6,1.2-0.9,1.5L128.2,269z M122.8,262.8
	c-1.6,0-2.5-0.7-2.5-2.2c0-1.5,0.8-2.2,2.5-2.2c1.6,0,2.5,0.7,2.5,2.2C125.3,262.1,124.4,262.8,122.8,262.8z M119.4,264.8
	c1.1-0.3,2.1-0.4,3.1-0.4c0.9,0,1.7,0,2.4,0.1v11.8c0.8,0.3,1.3,0.6,1.6,1l-0.3,2.3h-6.8l-0.3-2.3c0.3-0.4,0.8-0.7,1.6-1v-8.2
	c-0.7-0.2-1.2-0.6-1.6-1L119.4,264.8z M116.5,268.5c-1.5,0-2.5,0.3-3.1,0.9v6.7c1.6,0.3,2.7,0.7,3.3,1.2l-0.3,2.3h-8.5l-0.3-2.3
	c0.3-0.4,0.8-0.7,1.6-1v-8.2c-0.7-0.2-1.2-0.6-1.6-1l0.3-2.3c1.1-0.2,2.1-0.4,2.9-0.4c0.9,0,1.6,0,2.2,0.1v1.9c0.5-0.5,1-1,1.7-1.3
	c0.7-0.3,1.4-0.5,1.9-0.5c0.6,0,1,0,1.2,0.1l-0.1,3.8C117.4,268.5,117,268.5,116.5,268.5z M102.3,270.5c0-0.3,0.1-0.6,0.1-1
	c0-0.4-0.2-0.8-0.5-1.3c-0.3-0.4-0.9-0.7-1.6-0.7c-0.8,0-1.4,0.2-1.8,0.7c-0.4,0.5-0.7,1.3-0.8,2.4L102.3,270.5z M100.4,279.8
	c-2.4,0-4.1-0.6-5.3-1.9c-1.2-1.3-1.8-3.1-1.8-5.5c0-1.5,0.2-2.7,0.6-3.8c0.4-1,1-1.9,1.7-2.4c1.4-1.1,3-1.6,4.8-1.6
	c1.8,0,3.2,0.5,4.2,1.4c1,0.9,1.5,2.6,1.5,5c0,1.4-0.7,2.1-2.1,2.1h-6.4c0.1,1.2,0.4,2.1,1,2.6c0.6,0.5,1.5,0.8,2.7,0.8
	c0.7,0,1.3-0.1,1.9-0.2c0.6-0.2,1.1-0.3,1.3-0.5l0.4-0.2l0.9,2.4c-0.1,0.1-0.3,0.3-0.5,0.5c-0.2,0.2-0.8,0.5-1.7,0.8
	C102.6,279.6,101.6,279.8,100.4,279.8z M86.9,267.6c-1.8,0-2.7,1.6-2.7,4.7c0,1.6,0.3,2.7,0.8,3.3c0.5,0.6,1.2,0.9,2.2,0.9
	c1.5,0,2.8-0.1,4-0.4l0.9,2.3c-0.6,0.4-1.5,0.8-2.5,1c-1.1,0.3-2.1,0.4-3.1,0.4c-4.3,0-6.4-2.5-6.4-7.4c0-2.9,0.7-4.9,2.2-6.2
	c1.3-1.1,2.9-1.6,4.8-1.6c1.9,0,3.5,0.4,4.7,1.1c0,0.2,0,0.4,0,0.6c0,1.1-0.3,2.2-0.8,3.2h-2.6c-0.3-0.5-0.4-1.1-0.5-1.8
	C87.6,267.6,87.3,267.6,86.9,267.6z M77.4,268.5c-1.5,0-2.5,0.3-3.1,0.9v6.7c1.6,0.3,2.7,0.7,3.3,1.2l-0.3,2.3h-8.5l-0.3-2.3
	c0.3-0.4,0.8-0.7,1.6-1v-8.2c-0.7-0.2-1.2-0.6-1.6-1l0.3-2.3c1.1-0.2,2.1-0.4,2.9-0.4c0.9,0,1.6,0,2.2,0.1v1.9c0.5-0.5,1-1,1.7-1.3
	c0.7-0.3,1.4-0.5,1.9-0.5c0.6,0,1,0,1.2,0.1l-0.1,3.8C78.3,268.5,77.9,268.5,77.4,268.5z M63.2,270.5c0-0.3,0.1-0.6,0.1-1
	c0-0.4-0.2-0.8-0.5-1.3c-0.3-0.4-0.9-0.7-1.6-0.7s-1.4,0.2-1.8,0.7c-0.4,0.5-0.7,1.3-0.8,2.4L63.2,270.5z M61.3,279.8
	c-2.4,0-4.1-0.6-5.3-1.9c-1.2-1.3-1.8-3.1-1.8-5.5c0-1.5,0.2-2.7,0.6-3.8c0.4-1,1-1.9,1.7-2.4c1.4-1.1,3-1.6,4.8-1.6
	c1.8,0,3.2,0.5,4.2,1.4c1,0.9,1.5,2.6,1.5,5c0,1.4-0.7,2.1-2.1,2.1h-6.4c0.1,1.2,0.4,2.1,1,2.6c0.6,0.5,1.5,0.8,2.7,0.8
	c0.7,0,1.3-0.1,1.9-0.2c0.6-0.2,1.1-0.3,1.3-0.5l0.4-0.2l0.9,2.4c-0.1,0.1-0.3,0.3-0.5,0.5c-0.2,0.2-0.8,0.5-1.7,0.8
	C63.5,279.6,62.5,279.8,61.3,279.8z M48.6,261.1v3.7h4.2v2.5h-4.2v7.5c0,0.6,0.1,1.1,0.3,1.4c0.2,0.3,0.6,0.4,1.3,0.4
	c0.7,0,1.4-0.1,2.2-0.4l0.9,2.3c-1.5,0.8-3.1,1.1-4.7,1.1s-2.7-0.3-3.2-1c-0.6-0.7-0.8-1.7-0.8-3v-8.3h-1.3l-0.3-1.8
	c0.3-0.4,1-0.7,2-1.1c0.2-1.6,0.8-2.7,1.7-3.3H48.6z M156.5,252.9c1,0,1.8-0.3,2.4-0.9v-2.4h-2.1c-1.4,0-2.1,0.5-2.1,1.6
	c0,0.5,0.2,0.9,0.5,1.2C155.5,252.8,155.9,252.9,156.5,252.9z M151.2,243.2c0-0.3,0-0.6,0-0.9c1.8-1,3.8-1.5,5.9-1.5
	s3.6,0.4,4.5,1.2c0.9,0.8,1.4,2.1,1.4,4v6.3c0.7,0.1,1.2,0.3,1.6,0.5v2.6c-1,0.5-2.4,0.7-4.3,0.7c-0.2-0.5-0.4-1.1-0.5-1.9
	c-0.8,1.2-2.4,1.9-4.6,1.9c-1.3,0-2.5-0.4-3.4-1.1c-0.9-0.8-1.4-1.8-1.4-3.1c0-1.3,0.4-2.4,1.3-3.1c0.9-0.8,2.2-1.1,3.9-1.1h3.2V246
	c0-1.5-0.8-2.3-2.5-2.3c-0.6,0-1.1,0.1-1.5,0.2c0,0.8-0.2,1.5-0.4,1.9h-2.9C151.4,245.1,151.2,244.2,151.2,243.2z M138.9,248.1
	c0,1.5,0.2,2.5,0.6,3.1c0.4,0.6,1.1,0.9,2.1,0.9c1,0,1.9-0.3,2.6-0.8v-7c-0.8-0.3-1.6-0.5-2.6-0.5
	C139.8,243.7,138.9,245.2,138.9,248.1z M141.6,258.8c1.8,0,2.6-1.1,2.6-3.2v-1.3c-1,0.6-2.2,0.9-3.6,0.9c-1.9,0-3.3-0.5-4.3-1.6
	c-1-1.1-1.5-2.9-1.5-5.4c0-5,2.3-7.5,6.9-7.5c1.2,0,2.3,0.3,3.3,0.8c0.2-0.4,0.5-0.5,0.9-0.5h2.4v14.5c0,2.2-0.5,3.8-1.6,4.8
	s-2.7,1.6-5,1.6c-1.2,0-2.4-0.1-3.7-0.4c-1.3-0.3-2.2-0.6-2.9-1c0-0.2,0-0.4,0-0.5c0-1.1,0.3-2.1,0.8-3.1h2.6c0.2,0.4,0.4,1,0.5,1.7
	C139.8,258.7,140.6,258.8,141.6,258.8z M129.4,246.7c0-0.3,0.1-0.6,0.1-1c0-0.4-0.2-0.8-0.5-1.3c-0.3-0.4-0.9-0.7-1.6-0.7
	c-0.8,0-1.4,0.2-1.8,0.7c-0.4,0.5-0.7,1.3-0.8,2.4L129.4,246.7z M127.6,255.9c-2.4,0-4.1-0.6-5.3-1.9c-1.2-1.3-1.8-3.1-1.8-5.5
	c0-1.5,0.2-2.7,0.6-3.8c0.4-1,1-1.9,1.7-2.4c1.4-1.1,3-1.7,4.8-1.7c1.8,0,3.2,0.5,4.2,1.4c1,0.9,1.5,2.6,1.5,5
	c0,1.4-0.7,2.1-2.1,2.1h-6.4c0.1,1.2,0.4,2.1,1,2.6c0.6,0.5,1.5,0.8,2.7,0.8c0.7,0,1.3-0.1,1.9-0.2c0.6-0.2,1.1-0.3,1.3-0.5l0.4-0.2
	l0.9,2.4c-0.1,0.1-0.3,0.3-0.5,0.5c-0.2,0.2-0.8,0.5-1.7,0.8C129.8,255.8,128.7,255.9,127.6,255.9z M117.9,244.6
	c-1.5,0-2.5,0.3-3.1,0.9v6.7c1.6,0.3,2.7,0.7,3.3,1.2l-0.3,2.3h-8.5l-0.3-2.3c0.3-0.4,0.8-0.7,1.6-1v-8.2c-0.7-0.2-1.2-0.6-1.6-1
	l0.3-2.3c1.1-0.2,2.1-0.4,2.9-0.4c0.9,0,1.6,0,2.2,0.1v1.9c0.5-0.5,1-1,1.7-1.3c0.7-0.3,1.4-0.5,1.9-0.5c0.6,0,1,0,1.2,0.1l-0.1,3.8
	C118.8,244.6,118.3,244.6,117.9,244.6z M103.4,237.3v3.7h4.2v2.5h-4.2v7.5c0,0.6,0.1,1.1,0.3,1.4c0.2,0.3,0.6,0.4,1.3,0.4
	c0.7,0,1.4-0.1,2.2-0.4l0.9,2.3c-1.5,0.8-3.1,1.1-4.7,1.1s-2.7-0.3-3.2-1c-0.6-0.7-0.8-1.7-0.8-3v-8.3h-1.3l-0.3-1.8
	c0.3-0.4,1-0.7,2-1.1c0.2-1.6,0.8-2.7,1.7-3.3H103.4z M80.7,241c1.1-0.2,2.1-0.4,2.9-0.4c0.9,0,1.6,0,2.2,0.1v1.5
	c0.5-0.4,1.1-0.8,2-1c0.8-0.3,1.6-0.4,2.4-0.4c1.9,0,3.3,0.5,4.1,1.4c0.8,0.9,1.2,2.5,1.2,4.7v5.7c0.8,0.3,1.3,0.6,1.6,1l-0.3,2.3
	h-6.8l-0.3-2.3c0.3-0.4,0.8-0.7,1.6-1v-5.8c0-1.1-0.2-1.8-0.5-2.1c-0.3-0.4-1-0.5-1.9-0.5c-0.9,0-1.8,0.3-2.7,0.9v7.6
	c0.8,0.3,1.3,0.6,1.6,1l-0.3,2.3h-6.8l-0.3-2.3c0.3-0.4,0.8-0.7,1.6-1v-8.2c-0.7-0.2-1.2-0.6-1.6-1L80.7,241z M75,246.7
	c0-0.3,0.1-0.6,0.1-1c0-0.4-0.2-0.8-0.5-1.3c-0.3-0.4-0.9-0.7-1.6-0.7s-1.4,0.2-1.8,0.7c-0.4,0.5-0.7,1.3-0.8,2.4L75,246.7z
	 M73.2,255.9c-2.4,0-4.1-0.6-5.3-1.9c-1.2-1.3-1.8-3.1-1.8-5.5c0-1.5,0.2-2.7,0.6-3.8c0.4-1,1-1.9,1.7-2.4c1.4-1.1,3-1.7,4.8-1.7
	c1.8,0,3.2,0.5,4.2,1.4c1,0.9,1.5,2.6,1.5,5c0,1.4-0.7,2.1-2.1,2.1h-6.4c0.1,1.2,0.4,2.1,1,2.6c0.6,0.5,1.5,0.8,2.7,0.8
	c0.7,0,1.3-0.1,1.9-0.2c0.6-0.2,1.1-0.3,1.3-0.5l0.4-0.2l0.9,2.4c-0.1,0.1-0.3,0.3-0.5,0.5c-0.2,0.2-0.8,0.5-1.7,0.8
	C75.4,255.8,74.3,255.9,73.2,255.9z M181.9,222.8c0-0.3,0.1-0.6,0.1-1c0-0.4-0.2-0.8-0.5-1.3c-0.3-0.4-0.9-0.7-1.6-0.7
	c-0.8,0-1.4,0.2-1.8,0.7c-0.4,0.5-0.7,1.3-0.8,2.4L181.9,222.8z M180.1,232.1c-2.4,0-4.1-0.6-5.3-1.9c-1.2-1.3-1.8-3.1-1.8-5.5
	c0-1.5,0.2-2.7,0.6-3.8c0.4-1.1,1-1.9,1.7-2.4c1.4-1.1,3-1.6,4.8-1.6c1.8,0,3.2,0.5,4.2,1.4s1.5,2.6,1.5,5c0,1.4-0.7,2.1-2.1,2.1
	h-6.4c0.1,1.2,0.4,2.1,1,2.6c0.6,0.5,1.5,0.8,2.7,0.8c0.7,0,1.3-0.1,1.9-0.2c0.6-0.2,1.1-0.3,1.3-0.5l0.4-0.2l0.9,2.4
	c-0.1,0.1-0.3,0.3-0.5,0.5c-0.2,0.2-0.8,0.5-1.7,0.8C182.3,231.9,181.2,232.1,180.1,232.1z M163.2,229.1c1.1,0,2-0.3,2.7-1v-7.9
	c-0.8-0.2-1.7-0.3-2.6-0.3c-0.9,0-1.6,0.4-2,1.2c-0.4,0.8-0.6,2-0.6,3.6c0,1.6,0.2,2.7,0.6,3.4C161.8,228.7,162.4,229.1,163.2,229.1
	z M164.2,210.9c1.1-0.3,2.2-0.4,3.2-0.4c1,0,1.9,0,2.6,0.1v17.7c0.6,0.1,1.1,0.3,1.6,0.5v2.3c-1.2,0.6-2.7,0.9-4.5,0.9
	c-0.2-0.1-0.4-0.3-0.6-0.5c-0.2-0.3-0.3-0.5-0.3-0.7c-0.4,0.4-1,0.7-1.7,0.9c-0.7,0.2-1.4,0.4-2,0.4c-2.1,0-3.7-0.6-4.6-1.7
	c-1-1.1-1.4-3-1.4-5.6c0-3,0.7-5,2.2-6.2c1.3-1.1,2.9-1.6,4.7-1.6c0.8,0,1.7,0.1,2.5,0.3v-2.9c-0.9-0.3-1.6-0.6-2-1.1L164.2,210.9z
	 M138.4,224.4c0,3.1,0.9,4.7,2.8,4.7c1,0,1.7-0.4,2.1-1.1c0.5-0.7,0.7-1.9,0.7-3.5c0-3.1-1-4.6-2.9-4.6c-0.9,0-1.6,0.3-2.1,1
	C138.7,221.6,138.4,222.7,138.4,224.4z M141.1,232.1c-2.3,0-4.1-0.6-5.2-1.9c-1.1-1.2-1.7-3.1-1.7-5.6c0-2.5,0.6-4.4,1.9-5.7
	c1.3-1.3,3.1-2,5.4-2c2.3,0,4.1,0.6,5.2,1.8c1.1,1.2,1.7,3,1.7,5.5c0,2.5-0.6,4.4-1.9,5.8C145.2,231.4,143.4,232.1,141.1,232.1z
	 M129.3,215.1c-1.6,0-2.5-0.7-2.5-2.2c0-1.5,0.8-2.2,2.5-2.2c1.6,0,2.5,0.7,2.5,2.2C131.8,214.3,130.9,215.1,129.3,215.1z
	 M125.9,217.1c1.1-0.3,2.1-0.4,3.1-0.4c0.9,0,1.7,0,2.4,0.1v11.8c0.8,0.3,1.3,0.6,1.6,1l-0.3,2.3h-6.8l-0.3-2.3
	c0.3-0.4,0.8-0.7,1.6-1v-8.2c-0.7-0.2-1.2-0.6-1.6-1L125.9,217.1z M119.2,219.9c-1.8,0-2.7,1.6-2.7,4.7c0,1.6,0.3,2.7,0.8,3.3
	c0.5,0.6,1.2,0.9,2.2,0.9c1.5,0,2.8-0.1,4-0.4l0.9,2.3c-0.6,0.4-1.5,0.8-2.5,1c-1.1,0.3-2.1,0.4-3.1,0.4c-4.3,0-6.4-2.5-6.4-7.4
	c0-2.9,0.7-4.9,2.2-6.2c1.3-1.1,2.9-1.6,4.8-1.6s3.5,0.4,4.7,1.1c0,0.2,0,0.4,0,0.6c0,1.1-0.3,2.2-0.8,3.2h-2.6
	c-0.3-0.5-0.4-1.1-0.5-1.8C119.9,219.9,119.6,219.9,119.2,219.9z M107.3,215.1c-1.6,0-2.5-0.7-2.5-2.2c0-1.5,0.8-2.2,2.5-2.2
	c1.6,0,2.5,0.7,2.5,2.2C109.8,214.3,109,215.1,107.3,215.1z M104,217.1c1.1-0.3,2.1-0.4,3.1-0.4s1.7,0,2.4,0.1v11.8
	c0.8,0.3,1.3,0.6,1.6,1l-0.3,2.3H104l-0.3-2.3c0.3-0.4,0.8-0.7,1.6-1v-8.2c-0.7-0.2-1.2-0.6-1.6-1L104,217.1z M95.8,232h-3.3
	l-4.9-11.5c-1-0.3-1.6-0.7-2-1.1l0.3-2.3h6.8l0.3,2.3c-0.3,0.3-0.7,0.6-1.3,0.9l1.6,4.4c0.4,0.9,0.6,1.8,0.8,2.7l0.1,0.4h0.4
	c0.2-1,0.4-2,0.8-3.1l1.6-4.4c-0.7-0.3-1.2-0.6-1.5-1l0.3-2.3h6.5l0.3,2.3c-0.4,0.5-1,0.8-2,1.1L95.8,232z M83.7,220.7
	c-1.5,0-2.5,0.3-3.1,0.9v6.7c1.6,0.3,2.7,0.7,3.3,1.2l-0.3,2.3h-8.5l-0.3-2.3c0.3-0.4,0.8-0.7,1.6-1v-8.2c-0.7-0.2-1.2-0.6-1.6-1
	l0.3-2.3c1.1-0.2,2.1-0.4,2.9-0.4s1.6,0,2.2,0.1v1.9c0.5-0.5,1-1,1.7-1.3c0.7-0.3,1.4-0.5,1.9-0.5c0.6,0,1,0,1.2,0.1l-0.1,3.8
	C84.6,220.8,84.1,220.7,83.7,220.7z M69.4,222.8c0-0.3,0.1-0.6,0.1-1c0-0.4-0.2-0.8-0.5-1.3c-0.3-0.4-0.9-0.7-1.6-0.7
	c-0.8,0-1.4,0.2-1.8,0.7c-0.4,0.5-0.7,1.3-0.8,2.4L69.4,222.8z M67.6,232.1c-2.4,0-4.1-0.6-5.3-1.9c-1.2-1.3-1.8-3.1-1.8-5.5
	c0-1.5,0.2-2.7,0.6-3.8c0.4-1.1,1-1.9,1.7-2.4c1.4-1.1,3-1.6,4.8-1.6c1.8,0,3.2,0.5,4.2,1.4c1,0.9,1.5,2.6,1.5,5
	c0,1.4-0.7,2.1-2.1,2.1h-6.4c0.1,1.2,0.4,2.1,1,2.6c0.6,0.5,1.5,0.8,2.7,0.8c0.7,0,1.3-0.1,1.9-0.2c0.6-0.2,1.1-0.3,1.3-0.5l0.4-0.2
	l0.9,2.4c-0.1,0.1-0.3,0.3-0.5,0.5c-0.2,0.2-0.8,0.5-1.7,0.8C69.8,231.9,68.7,232.1,67.6,232.1z M53.8,214.7
	c-0.7-0.2-1.4-0.3-2.1-0.3c-0.7,0-1.3,0.2-1.8,0.5c-0.4,0.4-0.7,0.9-0.7,1.5s0.2,1.2,0.5,1.5c0.3,0.4,1,0.7,2,1l2.6,0.8
	c1.4,0.4,2.6,1.1,3.4,1.9c0.8,0.9,1.3,2.2,1.3,3.8c0,2-0.7,3.6-2.2,4.7c-1.5,1.2-3.3,1.7-5.4,1.7c-1.2,0-2.4-0.2-3.7-0.5
	c-1.3-0.3-2.3-0.7-3.1-1.3c0-0.1,0-0.3,0-0.7c0-0.3,0.1-0.9,0.2-1.7s0.3-1.5,0.6-2h2.8c0.3,0.6,0.5,1.4,0.6,2.4
	c0.7,0.3,1.5,0.4,2.4,0.4c0.9,0,1.7-0.2,2.3-0.6c0.6-0.4,0.9-1.1,0.9-1.9c0-0.4,0-0.7-0.1-0.9c-0.1-0.2-0.2-0.5-0.5-0.8
	c-0.3-0.3-0.7-0.5-1.3-0.7l-3-0.9c-3.1-0.9-4.6-2.8-4.6-5.9c0-1.8,0.7-3.2,2-4.3c1.3-1.1,3-1.6,5.1-1.6c2.1,0,4.2,0.5,6.2,1.4
	c0,0.1,0,0.3,0,0.7c0,0.3-0.1,0.9-0.2,1.7c-0.1,0.8-0.3,1.5-0.6,2h-2.8C54.1,216.6,53.9,215.8,53.8,214.7z"/>
</svg>
