<?xml version="1.0" encoding="utf-8"?>
<!-- Generator: Adobe Illustrator 16.0.0, SVG Export Plug-In . SVG Version: 6.00 Build 0)  -->
<!DOCTYPE svg PUBLIC "-//W3C//DTD SVG 1.1//EN" "http://www.w3.org/Graphics/SVG/1.1/DTD/svg11.dtd">
<svg version="1.1" id="Capa_1" xmlns="http://www.w3.org/2000/svg" xmlns:xlink="http://www.w3.org/1999/xlink" x="0px" y="0px"
	 width="200px" height="200px" viewBox="0 0 200 200" enable-background="new 0 0 200 200" xml:space="preserve">
<rect x="-177.5" y="-106.5" display="none" fill="#FF0000" stroke="#000000" stroke-miterlimit="10" width="552" height="414"/>
<g>
	<path d="M176.972,50.025v-0.441c3.005-1.066,5.162-3.935,5.162-7.298c1.424,0,2.579-1.155,2.579-2.58V26.804
		c0-0.685-0.272-1.339-0.755-1.825l-5.162-5.16c-0.785-0.786-1.984-0.979-2.979-0.482l-4.305,2.154l-9.396-2.35
		c-0.6-0.149-1.229-0.08-1.779,0.196l-10.321,5.161c-0.874,0.437-1.426,1.33-1.426,2.307v12.902c0,1.424,1.155,2.58,2.58,2.58
		c0,3.363,2.156,6.232,5.16,7.298v0.441c0,0.401,0.093,0.797,0.272,1.155l1.141,2.283l-7.199,1.8
		c-1.148,0.287-1.954,1.318-1.954,2.503v12.9c0,1.426,1.155,2.581,2.58,2.581h30.963c1.424,0,2.579-1.155,2.579-2.581v-12.9
		c0-1.185-0.807-2.216-1.954-2.503l-7.202-1.8l1.145-2.283C176.88,50.822,176.972,50.426,176.972,50.025z M153.751,28.399
		l8.04-4.021l9.396,2.35c0.597,0.15,1.229,0.08,1.779-0.195l3.497-1.749l3.09,3.089v9.252h-5.161v-2.579
		c0-1.044-0.627-1.985-1.592-2.384c-0.965-0.401-2.074-0.179-2.813,0.559l-6.427,6.425l-3.496-1.748
		c-0.358-0.18-0.753-0.272-1.154-0.272h-5.159V28.399z M166.65,67.019l-2.021-2.022l2.021-4.041l2.022,4.041L166.65,67.019z
		 M153.751,59.781l8.057-2.014h0.668l-3.291,6.586c-0.499,0.994-0.304,2.193,0.482,2.979l0.756,0.756h-6.672V59.781z
		 M179.553,68.088h-6.671l0.756-0.756c0.785-0.786,0.979-1.985,0.482-2.979l-3.293-6.586h0.668l8.058,2.014V68.088z M174.392,44.865
		c-1.426,0-2.579,1.155-2.579,2.581v1.971l-1.595,3.189h-7.133l-1.594-3.189v-1.971c0-1.426-1.155-2.581-2.581-2.581
		c-1.422,0-2.579-1.157-2.579-2.58h1.97l4.616,2.307c0.367,0.184,0.762,0.272,1.154,0.272c0.669,0,1.329-0.259,1.825-0.755
		l3.498-3.5c0.368,0.979,1.31,1.675,2.418,1.675h5.159C176.972,43.708,175.814,44.865,174.392,44.865z"/>
	<path d="M182.948,114.662l-3.819-1.272c1.95-2.654,3.005-5.841,3.005-9.18c0-4.116-1.604-8.006-4.523-10.958
		c-0.382-0.383-0.799-0.743-1.232-1.088c0.388-1.105,0.594-2.263,0.594-3.435c0-5.69-4.63-10.319-10.321-10.319
		c-5.69,0-10.319,4.629-10.319,10.319c0,1.178,0.207,2.34,0.598,3.45c-3.596,2.918-5.758,7.341-5.758,12.032
		c0,3.335,1.052,6.52,3.004,9.18l-3.82,1.272c-1.054,0.353-1.764,1.338-1.764,2.449v12.9c0,1.425,1.155,2.58,2.58,2.58h30.963
		c1.424,0,2.579-1.155,2.579-2.58v-12.9C184.713,116,184.003,115.015,182.948,114.662z M171.813,113.462l-1.069,1.068h-8.183
		l-1.069-1.068v-4.092c1.937,0,3.75-0.7,5.154-1.981c1.37,1.231,3.183,1.981,5.167,1.981V113.462z M168.86,124.154l-2.21,2.209
		l-2.206-2.209l1.486-4.463h1.441L168.86,124.154z M166.65,83.569c2.847,0,5.162,2.314,5.162,5.159c0,0.287-0.027,0.572-0.075,0.854
		c-1.614-0.561-3.334-0.854-5.087-0.854c-1.752,0-3.473,0.293-5.086,0.854c-0.047-0.282-0.073-0.567-0.073-0.854
		C161.491,85.883,163.806,83.569,166.65,83.569z M161.511,95.261c1.522-0.898,3.302-1.372,5.14-1.372
		c1.842,0,3.619,0.474,5.159,1.382c0.834,0.484,1.538,1.017,2.141,1.62c1.949,1.97,3.021,4.571,3.021,7.32
		c0,0.585-0.048,1.163-0.144,1.73c-0.353-1.007-1.311-1.73-2.437-1.73h-2.579c-1.424,0-2.581-1.157-2.581-2.58
		c0-1.425-1.155-2.581-2.581-2.581c-1.424,0-2.579,1.155-2.579,2.581c0,0.688-0.263,1.323-0.741,1.788
		c-0.017,0.016-0.033,0.034-0.051,0.05c-0.465,0.479-1.1,0.742-1.788,0.742h-2.581c-1.126,0-2.084,0.722-2.436,1.729
		c-0.097-0.565-0.144-1.144-0.144-1.729C156.331,100.488,158.262,97.146,161.511,95.261z M153.751,118.971l4.462-1.487l1.454,1.451
		c0.254,0.255,0.557,0.448,0.885,0.577l-1.508,4.523c-0.31,0.927-0.068,1.95,0.623,2.642l0.756,0.754h-6.672V118.971z
		 M179.553,127.431h-6.671l0.756-0.754c0.69-0.691,0.932-1.715,0.622-2.642l-1.509-4.523c0.329-0.129,0.633-0.322,0.887-0.577
		l1.452-1.451l4.463,1.487V127.431z"/>
	<path d="M58.284,99.049H47.963c-1.425,0-2.58,1.155-2.58,2.581v10.321c0,1.424,1.155,2.579,2.58,2.579h10.321
		c1.425,0,2.581-1.155,2.581-2.579V101.63C60.864,100.205,59.708,99.049,58.284,99.049z M55.704,109.37h-5.161v-5.16h5.161V109.37z"
		/>
	<path d="M116.808,146.186l-9.5-8.859v-12.475c0-0.685-0.272-1.341-0.756-1.825l-7.74-7.739c-0.485-0.484-1.141-0.757-1.825-0.757
		h-5.16V86.149c0-1.424-1.155-2.58-2.581-2.58H78.481c-1.065-3.003-3.933-5.161-7.296-5.161c0-2.082-0.809-4.021-2.279-5.463
		c-1.442-1.47-3.38-2.278-5.462-2.278c-4.269,0-7.741,3.472-7.741,7.741c-3.363,0-6.232,2.158-7.297,5.161H37.643
		c-1.425,0-2.58,1.155-2.58,2.58v28.381h-5.161c-0.684,0-1.341,0.272-1.825,0.757l-7.741,7.739
		c-0.483,0.484-0.755,1.141-0.755,1.825v25.803v30.962c0,1.424,1.155,2.581,2.58,2.581h15.481c1.424,0,2.581-1.157,2.581-2.581
		v-15.483h46.442v15.483c0,1.424,1.155,2.581,2.58,2.581h15.482c1.425,0,2.58-1.157,2.58-2.581v-27.262l0.817,0.764
		c0.497,0.466,1.131,0.697,1.762,0.697c0.662,0,1.322-0.255,1.825-0.756l5.16-5.162c0.495-0.495,0.768-1.17,0.756-1.868
		C117.615,147.328,117.319,146.663,116.808,146.186z M102.147,125.921v6.591l-10.671-9.959c-0.342-1.077-0.903-2.049-1.634-2.861
		h6.075L102.147,125.921z M90.315,145.493l-8.81-8.811v-14.41h2.581c0.089,0,0.177-0.004,0.229,0
		c0.014,0.001,0.027,0.003,0.042,0.005c1.054,0.133,1.947,0.914,2.235,1.928l0.075,9.774c0.006,0.709,0.302,1.384,0.82,1.866
		l10.335,9.647H90.315z M76.581,118.619l-2.816-2.63v-1.459h1.564l2.879,2.684C77.483,117.423,76.891,117.942,76.581,118.619z
		 M53.124,86.149c0-1.423,1.158-2.58,2.58-2.58h2.58c1.425,0,2.581-1.157,2.581-2.581v-2.58c0-1.424,1.158-2.581,2.58-2.581
		c0.688,0,1.323,0.264,1.788,0.742c0.017,0.016,0.034,0.034,0.051,0.05c0.478,0.464,0.741,1.1,0.741,1.789v2.58
		c0,1.424,1.155,2.581,2.58,2.581h2.581c1.422,0,2.58,1.157,2.58,2.58v2.579H53.124V86.149z M24.742,125.921l6.229-6.229h4.092v12.9
		c0,1.426,1.155,2.581,2.58,2.581c1.424,0,2.581-1.155,2.581-2.581c0-1.423,1.157-2.58,2.579-2.58h2.581v2.58v6.672l-8.809,8.81
		H24.742V125.921z M50.543,145.493h5.161v5.161h-5.161V145.493z M24.742,179.035v-25.802h10.321v25.802H24.742z M40.223,160.974
		v-9.251l5.16-5.16v6.671c0,1.426,1.155,2.582,2.58,2.582h10.321c1.425,0,2.581-1.156,2.581-2.582v-10.321
		c0-1.424-1.156-2.579-2.581-2.579h-7.741v-5.16h7.741c1.425,0,2.581-1.155,2.581-2.581v-10.319c0-1.426-1.156-2.581-2.581-2.581
		H47.963c-1.425,0-2.58,1.155-2.58,2.581v2.579h-2.581c-0.903,0-1.773,0.156-2.579,0.441v-8.182V88.728h7.74v2.581
		c0,1.424,1.155,2.58,2.58,2.58h25.802c1.425,0,2.581-1.155,2.581-2.58v-2.581h7.74v25.802v2.581v0.448
		c-0.249-0.09-0.502-0.164-0.763-0.228l-7.798-7.27c-0.478-0.444-1.106-0.692-1.759-0.692h-5.16c-1.425,0-2.581,1.155-2.581,2.581
		v5.16c0,0.716,0.297,1.398,0.82,1.886l6.921,6.461v12.294c0,0.685,0.271,1.341,0.755,1.825l9.565,9.564v11.832H40.223z
		 M50.543,130.012v-5.16h5.161v5.16H50.543z M102.147,179.035H91.826v-28.381h10.321V179.035z M109.826,149.646l-3.698-3.458
		c-0.001,0-0.002-0.002-0.003-0.002l-14.307-13.354l-0.023-2.922l11.173,10.427l8.366,7.802L109.826,149.646z"/>
	<path d="M68.604,104.21h10.321c1.424,0,2.579-1.155,2.579-2.58c0-1.425-1.155-2.581-2.579-2.581H68.604
		c-1.425,0-2.58,1.155-2.58,2.581C66.024,103.055,67.18,104.21,68.604,104.21z"/>
	<path d="M68.604,132.592h2.581c1.425,0,2.58-1.155,2.58-2.58c0-1.426-1.155-2.581-2.58-2.581h-2.581
		c-1.425,0-2.58,1.155-2.58,2.581C66.024,131.437,67.18,132.592,68.604,132.592z"/>
	<path d="M78.926,150.654H68.604c-1.425,0-2.58,1.155-2.58,2.579c0,1.426,1.155,2.582,2.58,2.582h10.321
		c1.424,0,2.579-1.156,2.579-2.582C81.505,151.81,80.35,150.654,78.926,150.654z"/>
	<path d="M63.444,65.507c-12.804,0-23.221-10.417-23.221-23.221S50.64,19.064,63.444,19.064s23.221,10.417,23.221,23.221
		S76.249,65.507,63.444,65.507z M63.444,24.225c-9.959,0-18.062,8.102-18.062,18.061c0,9.959,8.102,18.061,18.062,18.061
		c9.959,0,18.061-8.102,18.061-18.061C81.505,32.326,73.403,24.225,63.444,24.225z"/>
	<path d="M68.604,44.865h-5.16c-1.425,0-2.58-1.155-2.58-2.58V31.965c0-1.424,1.155-2.58,2.58-2.58s2.58,1.155,2.58,2.58v7.741h2.58
		c1.425,0,2.581,1.155,2.581,2.58S70.03,44.865,68.604,44.865z"/>
	<path d="M137.515,92.065c-1.008-1.009-2.642-1.009-3.649,0c-1.008,1.007-1.008,2.641,0,3.648l3.335,3.335h-35.053
		c-1.426,0-2.581,1.155-2.581,2.581c0,1.425,1.155,2.58,2.581,2.58H137.2l-3.335,3.335c-1.008,1.009-1.008,2.642,0,3.65
		c0.503,0.503,1.164,0.756,1.824,0.756s1.32-0.253,1.825-0.756l7.74-7.74c1.007-1.009,1.007-2.642,0-3.65L137.515,92.065z"/>
	<path d="M102.147,91.309h12.9c7.113,0,12.9-5.788,12.9-12.9V60.347c0-4.268,3.474-7.74,7.741-7.74h1.511l-3.335,3.335
		c-1.008,1.009-1.008,2.642,0,3.65c0.503,0.504,1.164,0.755,1.824,0.755s1.32-0.251,1.825-0.755l7.74-7.741
		c1.007-1.007,1.007-2.642,0-3.648l-7.74-7.742c-1.008-1.007-2.642-1.007-3.649,0c-1.008,1.009-1.008,2.642,0,3.65l3.335,3.336
		h-1.511c-7.113,0-12.9,5.788-12.9,12.9v18.062c0,4.268-3.474,7.74-7.741,7.74h-12.9c-1.426,0-2.581,1.155-2.581,2.579
		C99.567,90.154,100.722,91.309,102.147,91.309z"/>
	<path d="M137.515,143.668c-1.008-1.007-2.642-1.007-3.649,0c-1.008,1.009-1.008,2.642,0,3.65l3.335,3.336h-1.511
		c-4.268,0-7.741-3.473-7.741-7.742v-18.061c0-7.114-5.787-12.9-12.9-12.9h-12.9c-1.426,0-2.581,1.155-2.581,2.579
		c0,1.426,1.155,2.581,2.581,2.581h12.9c4.268,0,7.741,3.473,7.741,7.74v18.061c0,7.114,5.787,12.903,12.9,12.903h1.511
		l-3.335,3.334c-1.008,1.007-1.008,2.643,0,3.649c0.503,0.502,1.164,0.756,1.824,0.756s1.32-0.254,1.825-0.756l7.74-7.739
		c1.007-1.01,1.007-2.643,0-3.651L137.515,143.668z"/>
	<path d="M183.287,166.406l-3.734-1.867v-1.114c2.939-0.6,5.16-3.207,5.16-6.322c0-3.113-2.22-5.721-5.16-6.318v-5.291
		c0-4.269-3.473-7.741-7.74-7.741h-10.321c-4.269,0-7.74,3.473-7.74,7.741v2.58v2.709c-2.94,0.6-5.16,3.207-5.16,6.32
		c0,3.115,2.22,5.723,5.16,6.322v1.114l-3.734,1.867c-0.874,0.438-1.426,1.33-1.426,2.308v12.902c0,1.424,1.155,2.581,2.58,2.581
		h30.963c1.424,0,2.579-1.157,2.579-2.581v-12.902C184.713,167.736,184.16,166.844,183.287,166.406z M158.91,145.493
		c0-1.422,1.157-2.581,2.581-2.581h10.321c1.423,0,2.579,1.159,2.579,2.581v4.436l-15.481-3.87V145.493z M155.041,155.815h1.29
		c1.426,0,2.579-1.156,2.579-2.582v-1.856l17.436,4.36c0.209,0.052,0.417,0.078,0.626,0.078h1.29c0.712,0,1.291,0.576,1.291,1.287
		c0,0.714-0.579,1.29-1.291,1.29h-1.29c-1.425,0-2.58,1.157-2.58,2.581v4.094l-1.067,1.065h-13.345l-1.069-1.065v-4.094
		c0-1.424-1.153-2.581-2.579-2.581h-1.29c-0.712,0-1.29-0.576-1.29-1.29C153.751,156.392,154.329,155.815,155.041,155.815z
		 M168.86,175.76l-2.21,2.206l-2.206-2.206l1.486-4.465h1.441L168.86,175.76z M153.751,170.311l2.07-1.036l1.265,1.265
		c0.485,0.485,1.141,0.756,1.824,0.756h1.581l-1.447,4.344c-0.31,0.929-0.068,1.949,0.623,2.64l0.756,0.757h-6.672V170.311z
		 M179.553,179.035h-6.671l0.756-0.757c0.69-0.69,0.932-1.711,0.622-2.64l-1.448-4.344h1.58c0.685,0,1.342-0.271,1.825-0.756
		l1.267-1.265l2.069,1.036V179.035z"/>
</g>
</svg>
