<?xml version="1.0" encoding="utf-8"?>
<!-- Generator: Adobe Illustrator 16.0.0, SVG Export Plug-In . SVG Version: 6.00 Build 0)  -->
<!DOCTYPE svg PUBLIC "-//W3C//DTD SVG 1.1//EN" "http://www.w3.org/Graphics/SVG/1.1/DTD/svg11.dtd">
<svg version="1.1" id="Capa_1" xmlns="http://www.w3.org/2000/svg" xmlns:xlink="http://www.w3.org/1999/xlink" x="0px" y="0px"
	 width="200px" height="200px" viewBox="0 0 200 200" enable-background="new 0 0 200 200" xml:space="preserve">
<path d="M29.104,101.028h37.7c1.2,0,2,1,2,2v31.899l10.8,3.601h8c3.2,0,6.4,1.601,8.4,4.2l3.8,5c0.6,0.8,0.6,2-0.2,2.8l-9.2,9.2
	l6.6,8.2h10c1-3.601,1.6-7.2,1.799-11c0.201-9.4-2.399-18.001-8.199-25.4c-0.2-0.399-0.4-0.8-0.4-1.2v-10.5c0-1.199,1-2,2-2h6.2
	v-4.199h-6.2c-1.199,0-2-1-2-2v-8.4c0-1.2,1-2,2-2h4.2c3.399,0,6.2,2.8,6.2,6.199v10.601c4.8,1,8.4,5.2,8.4,10.2v2
	c0,0.6-0.201,1-0.601,1.4c6,3,13.8,8.399,18.601,17.399c7,0.601,13.399,5.4,13.399,10.4c0,1.199-1,2-2,2h-2.601
	c7,7.8,6.201,19.6-1.399,26.6c-7.8,7-19.601,6.2-26.601-1.4c-1.6-1.8-3-4.199-3.799-6.399c-0.4,0.2-0.601,0.2-1,0.2h-47.4
	c-3.4,9.8-14.2,15-24,11.399c-9.8-3.399-15-14.2-11.4-24c2-5.6,6.6-10,12.4-11.8l-3.6-2.8l-6.8,3.8c-1,0.6-2.2,0.2-2.8-0.8
	s-0.2-2.2,0.8-2.8l0,0l6.8-3.8l-3.2-11h-6.8c-1.2,0-2-1-2-2v-33.4C26.903,102.028,27.903,101.028,29.104,101.028 M64.604,122.028
	h-4.2v12.601h4.2V122.028z M56.203,122.028h-16.6v12.601h16.6V122.028z M64.604,117.828v-6.199c-1.8,1.399-4,2-6.2,2h-21
	c-2.2,0-4.4-0.801-6.2-2v6.199H64.604z M37.303,109.428h20.9c2.6,0,5-1.6,6-4.199h-32.7
	C32.303,107.828,34.703,109.428,37.303,109.428z M87.604,142.828h-8.4c-0.2,0-0.4,0-0.6-0.199l-12.2-4h-9.6l20.8,8.399h16.2
	l-1.2-1.601C91.403,143.629,89.604,142.828,87.604,142.828z M104.203,128.229h4.2v-6.2h-4.2V128.229z M108.504,107.428
	c0-1.199-1-2-2-2h-2v4.201h4.199v-2.201H108.504z M112.703,122.229v6h4.2C116.903,125.629,115.104,123.229,112.703,122.229z
	 M138.703,153.328l-3.6,4.2h12.199C145.703,155.528,142.303,153.729,138.703,153.328z M133.504,188.729c8,0,14.6-6.601,14.6-14.601
	c0-5.199-2.6-9.8-7-12.6h-9.4l-3.6,4.2l2.8,2.8c3.2-1.4,6.8-0.2,8.399,3c1.4,3.2,0.201,6.8-3,8.4c-3.199,1.399-6.799,0.199-8.399-3
	c-0.8-1.801-0.8-3.601,0-5.4l-2.399-2.4l-6.4,7.4C120.104,183.528,126.303,188.729,133.504,188.729z M131.504,174.128c0,1.2,1,2,2,2
	c1.199,0,2-1,2-2c0-1.199-1-2-2-2S131.504,172.929,131.504,174.128z M77.803,176.328h35.9l21.4-25.4c-7.6-13.799-23-18-24.801-18.6
	h-4c5.801,9.2,6.801,18.4,6.601,24.8c-0.2,7.801-2.399,13.2-2.399,13.4c-0.4,0.8-1,1.4-2,1.4H95.803c-0.6,0-1.2-0.2-1.6-0.801
	l-8.4-10.399c-0.6-0.8-0.6-2,0.2-2.8l6.8-6.8h-15.8c-0.2,0-0.6,0-0.8-0.201l-28.5-11.5v1c0,3-2.2,5.801-5.4,6.201l0.8,3
	L77.803,176.328z M65.403,172.128h-15.5c-1.2,0-2,1-2,2c0,1.2,1,2,2,2h21L65.403,172.128z M60.003,167.929l-3.4-2.601l-1.2,2.601
	H60.003z M35.303,174.128c0,8,6.6,14.601,14.6,14.601c5.6,0,10.8-3.2,13.2-8.4h-13.2c-3.4,0-6.2-2.8-6.2-6.2
	c0-3.399,2.8-6.199,6.2-6.199h0.8l2.6-5.2l-4.2-3.2C41.303,160.128,35.303,166.528,35.303,174.128z M41.303,142.828h0.2
	c1.2,0,2-1,2-2v-2h-3.4L41.303,142.828z M35.303,122.028h-4.2v12.601h4.2V122.028z"/>
<rect x="129.903" y="44.128" width="3.2" height="3.2"/>
<rect x="139.504" y="44.128" width="3.199" height="3.2"/>
<path d="M183.003,87.328h-22.399v-11.4c0-3.2-1.4-6.4-3.801-8.4v-0.2c0.4-2.6-1.399-5-4-5.6c-0.199,0-0.6,0-0.799,0h-6.801l-2.199-1
	v-2.4c3-1.8,5.199-4.6,6-8c0.199,0,0.199,0,0.399,0c2.601,0,4.8-2.2,4.8-4.8c0-2.4-1.8-4.4-4.199-4.8l2.199-2.2
	c0.2-0.2,0.4-0.8,0.4-1.2v-4.8c0-4.4-3.6-8-8-8h-25.9c-0.8,0-1.6,0.8-1.6,1.6c0,0.2,0,0.4,0.199,0.8l2.801,5.6l-1.2,2.4
	c-0.399,0.6-0.2,1.4,0.399,1.8l3.801,3.8c-2.6,0.4-4.6,2.8-4.2,5.4c0.2,2.4,2.399,4.2,4.8,4.2c0.2,0,0.2,0,0.4,0
	c0.6,2.2,1.8,4.2,3.4,6c0.799,0.8,1.6,1.4,2.6,2v2.4l-2.2,1h-6.8c-2.6,0-4.801,2.2-4.801,4.8c0,0.2,0,0.6,0,0.8v0.2
	c-2.399,2.2-3.799,5.2-3.799,8.4v11.4H89.803c-0.8,0-1.6,0.8-1.6,1.6v6.4c0,0.8,0.8,1.6,1.6,1.6c15,0,78.1,0,93.2,0
	c0.801,0,1.601-0.8,1.601-1.6v-6.4C184.604,88.128,183.804,87.328,183.003,87.328 M157.303,75.928v11.4h-3.6c0.2-0.6,0.2-1,0.2-1.6
	v-3l1.8-11.2C156.703,72.729,157.303,74.328,157.303,75.928z M121.903,85.729v-1.6h28.899v1.6c0,0.8-0.799,1.6-1.6,1.6h-25.699
	C122.703,87.328,121.903,86.729,121.903,85.729z M150.903,45.729c0,0.8-0.8,1.6-1.601,1.6v-3.2
	C150.104,44.128,150.903,44.729,150.903,45.729z M123.303,32.028l-2-4.2h23c2.601,0,4.801,2.2,4.801,4.8v4.2l-2.2,2.2h-0.2
	c-0.6,0-1.4-0.4-1.6-1l-0.801-2.6c-0.199-0.8-1.199-1.2-2-1c-0.199,0-0.399,0.2-0.399,0.2l-3,2.2c-2,1.4-4.399,2.2-6.8,2.2h-6.2
	l-3.601-3.6l1-2.2C123.703,33.028,123.703,32.428,123.303,32.028z M121.903,45.729c0-0.8,0.8-1.6,1.601-1.6v3.2
	C122.703,47.328,121.903,46.528,121.903,45.729z M126.903,48.128c0-0.4,0-0.6,0-1v-4.8h5.399c3.201,0,6.201-1,8.601-2.8l1.2-1
	l0.199,0.6c0.601,1.8,2,3,3.801,3.2v4.8c0,0.4,0,0.6,0,1c-0.6,5.2-5.2,9.2-10.6,8.6c-1-0.2-2.201-0.4-3.201-0.8s-1.799-1.2-2.6-1.8
	C127.903,52.528,127.104,50.328,126.903,48.128z M133.104,59.729c2.199,0.6,4.4,0.6,6.4,0v2h-6.4V59.729z M119.703,65.528
	c0.4-0.4,0.801-0.6,1.2-0.6h31.101c0.799,0,1.6,0.8,1.6,1.6v0.2l-2.4,14.2h-29.5l-2.4-14.2
	C119.303,66.328,119.303,65.729,119.703,65.528z M115.504,75.928c0-1.6,0.399-3.2,1.399-4.4l1.8,11.2v3c0,0.6,0.2,1,0.2,1.6h-3.601
	v-11.4H115.504z M181.403,93.828h-90v-3.2h90V93.828z"/>
<path d="M136.303,77.729c2.601,0,4.801-2.2,4.801-4.8s-2.2-4.8-4.801-4.8c-2.6,0-4.799,2.2-4.799,4.8S133.703,77.729,136.303,77.729
	 M136.303,71.328c0.801,0,1.601,0.8,1.601,1.6c0,0.8-0.8,1.6-1.601,1.6c-0.799,0-1.6-0.8-1.6-1.6
	C134.703,72.128,135.504,71.328,136.303,71.328z"/>
<path d="M158.903,29.428h19.2c3.6,0,6.399-2.8,6.399-6.4s-2.8-6.4-6.399-6.4h-0.2c0.2-0.6,0.2-1,0.2-1.6c0-4.4-3.601-8-8-8
	c-3.2,0-6,2-7.4,4.8c-2.6-0.4-5,1.4-5.4,4.2c0,0.2,0,0.4,0,0.6v0.2c-3.399,0.8-5.399,4.4-4.6,7.8
	C153.303,27.428,155.903,29.428,158.903,29.428 M158.903,19.828h0.4c0.8,0,1.6-0.8,1.6-1.6c0-0.2,0-0.6-0.2-0.8
	c-0.2-0.2-0.2-0.6-0.2-0.8c0-1,0.801-1.6,1.601-1.6c0.2,0,0.6,0,0.8,0.2c0.8,0.6,1.8,0.4,2.2-0.4c0.2-0.2,0.2-0.4,0.2-0.6
	c0.399-2.6,3-4.4,5.6-4c2.4,0.4,4,2.4,4,4.8c0,0.8-0.2,1.6-0.6,2.4c-0.4,0.8-0.2,1.8,0.6,2.2c0.2,0.2,0.4,0.2,0.6,0.2h2.4
	c1.8,0,3.2,1.4,3.2,3.2s-1.4,3.2-3.2,3.2h-19.2c-1.8,0-3.199-1.4-3.199-3.2C155.703,21.229,157.104,19.828,158.903,19.828z"/>
<path d="M96.203,42.528h9.6c4.4,0,8-3.6,8-8v-19.5c0-4.4-3.6-8-8-8h-9.6c-4.4,0-8,3.6-8,8v19.2
	C88.203,38.928,91.803,42.528,96.203,42.528 M91.403,15.028c0-2.6,2.2-4.8,4.8-4.8h9.6c2.601,0,4.801,2.2,4.801,4.8v19.2
	c0,2.6-2.2,4.8-4.801,4.8h-9.6c-2.6,0-4.8-2.2-4.8-4.8V15.028z"/>
<rect x="97.803" y="13.428" width="6.4" height="3.2"/>
<rect x="99.403" y="32.628" width="3.2" height="3.2"/>
<rect x="96.203" y="19.828" width="9.6" height="3.2"/>
<rect x="96.203" y="26.229" width="9.6" height="3.2"/>
<rect x="171.804" y="63.328" width="3.199" height="3.2"/>
<path d="M179.003,59.128c-3.199-3.2-8.199-3.2-11.399,0l2.2,2.2c1.8-1.8,5-1.8,6.8,0L179.003,59.128z"/>
<path d="M183.604,54.729c-5.601-5.6-14.8-5.6-20.4,0l2.2,2.2c4.4-4.4,11.4-4.4,15.8,0l0,0L183.604,54.729z"/>
<path d="M163.804,74.528v3.2h4.8c0.399,0,0.8-0.2,1.2-0.4l4.8-4.8l-2.2-2.2l-4.4,4.4h-4.199V74.528L163.804,74.528z"/>
<path d="M99.403,45.729v6.4c0,0.4,0.2,0.8,0.4,1.2l11.201,11.2l2.199-2.2l-10.8-10.8v-5.8H99.403z"/>
<path d="M170.203,40.928v-8h-3.2v6.4h-9.6v3.2h11.2C169.403,42.528,170.203,41.729,170.203,40.928"/>
</svg>
