<?xml version="1.0" encoding="utf-8"?>
<!-- Generator: Adobe Illustrator 16.0.0, SVG Export Plug-In . SVG Version: 6.00 Build 0)  -->
<!DOCTYPE svg PUBLIC "-//W3C//DTD SVG 1.1//EN" "http://www.w3.org/Graphics/SVG/1.1/DTD/svg11.dtd">
<svg version="1.1" id="Capa_1" xmlns="http://www.w3.org/2000/svg" xmlns:xlink="http://www.w3.org/1999/xlink" x="0px" y="0px"
	 width="200px" height="200px" viewBox="0 0 200 200" enable-background="new 0 0 200 200" xml:space="preserve">
<rect x="-93.5" y="-50.5" display="none" fill="#FF0000" width="386" height="318"/>
<g>
	<path d="M122.436,94.717c-1.899-1.9-2.899-4.5-2.899-7.2v-17.4c0-4.1-1.399-8-3.5-11.1v-0.4c0-3.1-1.2-6.2-3.3-8.6l0.8-6.2
		c0.601-4.7,1-9.3,1-14c0-9.5-7.8-17.5-17.5-17.5c-5.4,0-10.3,2.5-13.6,6.6c-1.9-3.9-6-6.6-10.9-6.6h-5.6c-4.9,0-9.1,2.5-11.5,6.4
		c-2.1-3.9-6-6.4-10.7-6.4h-12.2c-3.9,0-7,3.1-7,7v6.6c0,1.6,0.2,3.3,0.8,4.9c0.8,2.3,2.1,4.5,3.9,6.2l1,0.8
		c0.6,2.3,2.1,4.5,4.1,5.8l-0.6,2.3l-3.1,0.8c-2.1,0.6-4.3,1.7-5.8,3.3c-1.4,1.4-2.3,3.1-2.9,4.9c-4.9,3.5-7.9,9.1-7.9,15.3
		c0,5.8,2.9,11.5,7.6,14.8l2.3,1.6l-1.2,3.1l-0.8,0.8c-2.9,2.9-4.7,7-4.7,11.299c0,3.301,1,6.601,2.9,9.301l2.9,4.1
		c2.3,3.1,6,5.1,9.9,5.1h22.7c3.9,0,7-3.1,7-7c0-1.799-0.8-3.5-1.8-4.699l3.9-23.1h-17.4l-2.7,16.7c-0.8-2.5-2.1-4.7-4.1-6.6
		c-1.2-1.2-2.5-2.1-3.9-2.9v-2.1l0.6,0.2c0.6,0.2,1.4,0.2,1.9,0.2c4.5,0,8-3.5,8-8v-5l3.9-1.9l-3.1-8.9c1-0.6,1.9-1.4,2.7-2.3h31.5
		c0.8,1,1.6,1.8,2.7,2.3l-3.1,8.9l3.9,1.9v4.9c0,4.5,3.5,8,8,8c0.6,0,1.4,0,1.9-0.2l0.6-0.2v2.3c-1.4,0.8-2.7,1.7-3.9,2.9
		c-1.9,1.9-3.3,4.1-4.1,6.599l-2.7-16.699h-17.5l3.9,23.1c-1.2,1.2-1.8,2.9-1.8,4.7c0,3.899,3.1,7,7,7h21.8
		c4.301,0,8.4-2.3,10.5-6.2l1.9-3.3c0.8-1.601,1.4-3.101,1.8-4.899c4.5-1.201,8.2-4.9,9.101-9.701l0.199-1L122.436,94.717z
		 M51.236,37.817l1-0.8c1.2-1.2,2.1-2.5,2.9-3.9c0.8,1.6,1.7,2.7,2.9,3.9l1,0.8c0.6,2.3,2.1,4.5,4.1,5.8l-0.6,2.3l-3.1,0.8
		c-1.6,0.4-2.9,1-4.1,1.9c-1.2-0.9-2.7-1.5-4.3-1.9l-3.1-0.8l-0.6-2.3C49.136,42.217,50.436,40.117,51.236,37.817z M79.036,37.817
		l0.6-0.6c0.2,2.3,0.4,4.5,0.6,6.8l0.4,3.3c-0.6-0.2-1.4-0.6-1.9-0.8l-3.1-0.8l-0.6-2.3C76.936,42.217,78.436,40.117,79.036,37.817z
		 M60.936,49.817l2.5-0.6l2.6,1.8l-2.7,1.9L60.936,49.817z M68.936,48.717l-3.3-2.1l0.4-1.4c1,0.2,1.9,0.4,2.9,0.4s1.9-0.2,2.9-0.4
		l0.4,1.4L68.936,48.717z M75.936,35.117c0,3.9-3.1,7-7,7s-7-3.1-7-7v-3.9c0-0.8,0.6-1.6,1.6-1.7l4.1-0.6c1.8-0.2,3.1-1,4.3-2.1h0.1
		c2.3,0.6,3.9,2.7,3.9,5.1V35.117L75.936,35.117z M46.736,49.217l3.1,0.8c0.8,0.2,1.8,0.6,2.5,1c-0.6,0.8-1.2,1.6-1.6,2.5l-0.2-0.2
		c-1.4-1.5-3.4-2.3-5.3-2.5L46.736,49.217z M53.136,58.817c0-2.3,1-4.7,2.5-6.4c0.6-0.6,1-1,1.6-1.2l7.8,10.1h-12v-2.5H53.136z
		 M65.436,55.717l3.5-2.7l3.5,2.7l-3.5,4.5L65.436,55.717z M74.536,52.917l-2.7-1.9l2.5-1.8l2.5,0.6L74.536,52.917z M85.836,51.817
		c-0.2-0.2-0.4-0.4-0.6-0.6c0.8-0.4,1.6-0.8,2.5-1l1-0.2c2.3-0.6,4.3-2.3,4.9-4.7c1,0.2,1.9,0.4,2.9,0.4s1.9-0.2,2.9-0.4
		c0.8,2.4,2.6,4.1,4.9,4.7l1,0.2c1.6,0.4,2.9,1.2,4.1,2.3c0.601,0.6,1.201,1.4,1.601,2.1c-3.2-2.2-7.101-3.6-11.4-3.6h-10.3
		C88.336,50.817,87.036,51.217,85.836,51.817z M96.736,42.117c-3.9,0-7-3.1-7-7v-3.9c0-0.8,0.6-1.6,1.6-1.7l4.1-0.6
		c1.7-0.2,3.1-1,4.3-2.1h0.2c2.3,0.6,3.9,2.7,3.9,5.1v3.3C103.736,38.917,100.637,42.117,96.736,42.117z M96.736,16.017
		c7.6,0,14,6.2,14,14c0,4.5-0.2,9.1-0.801,13.6l-0.6,4.1c-1-0.4-1.699-0.8-2.699-1.2l-1-0.2c-1.201-0.4-2.101-1.4-2.5-2.5v-0.2
		c2.699-1.9,4.299-5.1,4.299-8.6v-3.3c0-3.7-2.299-6.8-5.6-8.2c0.2-0.8,0.4-1.6,0.4-2.5v-1.6h-3.5v1.8c0,2.1-1.6,3.9-3.7,4.3
		l-4.1,0.6c-2.5,0.4-4.5,2.5-4.5,5.3v3.9c0,3.5,1.8,6.6,4.3,8.6v0.1c-0.4,1.2-1.4,2.1-2.5,2.5l-1,0.2c-1,0.2-1.9,0.6-2.9,1.2
		l-0.6-4.1c-0.4-3.5-0.8-7.2-0.8-10.7c0.4-0.8,0.6-1.4,1-2.1c0.6-1.6,0.8-3.1,0.8-4.9v-1.4c0-0.4,0-1,0-1.4
		C87.036,18.717,91.536,16.017,96.736,16.017z M66.836,16.017h5.6c4.9,0,8.7,3.9,8.7,8.7v1.4c0,1.2-0.2,2.5-0.6,3.7
		c-0.2,0.8-0.6,1.8-1.2,2.3v-0.2c0-3.7-2.3-6.8-5.6-8.2c0.2-0.8,0.4-1.6,0.4-2.5v-1.8h-3.5v1.8c0,2.1-1.6,3.9-3.7,4.3l-4.1,0.6
		c-2.5,0.4-4.5,2.5-4.5,5.3v0.8c-0.4-0.8-0.8-1.6-1.2-2.3c-0.4-1.2-0.6-2.3-0.6-3.7C56.636,20.517,61.136,16.017,66.836,16.017z
		 M29.436,29.617c-0.4-1.2-0.6-2.3-0.6-3.7v-6.4c0-1.9,1.6-3.5,3.5-3.5h12.2c4.9,0,8.7,3.9,8.7,8.7v1.4c0,1.2-0.2,2.5-0.6,3.7
		c-0.2,0.8-0.6,1.8-1.2,2.3v-0.2c0-3.7-2.3-6.8-5.6-8.2c0.2-0.8,0.4-1.6,0.4-2.5v-1.8h-3.5v1.8c0,2.1-1.6,3.9-3.7,4.3l-4.1,0.6
		c-2.5,0.4-4.5,2.5-4.5,5.3v0.8C30.236,31.417,29.836,30.617,29.436,29.617z M34.136,31.217c0-0.8,0.6-1.6,1.6-1.7l4.1-0.6
		c1.7-0.2,3.1-1,4.3-2.1h0.2c2.3,0.6,3.9,2.7,3.9,5.1v3.3c0,3.9-3.1,7-7,7c-3.9,0-7-3.1-7-7v-4H34.136z M41.136,45.617
		c1,0,1.9-0.2,2.9-0.4l0.4,1.6l-3.3,3.2l-3.3-3.3l0.4-1.6C39.236,45.417,39.936,45.617,41.136,45.617z M32.236,50.017l3.1-0.8
		l1.6,1.6h-2.5c-1.9,0-3.7,0.2-5.4,0.8C29.836,50.817,31.036,50.217,32.236,50.017z M24.636,82.117c-3.9-2.7-6.2-7.2-6.2-12.1
		c0-8.7,7.2-15.9,15.9-15.9h10.3c1.4,0,2.7,0.6,3.7,1.6s1.5,2.3,1.5,3.7c0,2.9-2.3,5.3-5.3,5.3h-1.7c-1,0-1.7-0.8-1.7-1.8
		s0.8-1.7,1.7-1.7v-3.6c-2.9,0-5.3,2.3-5.3,5.2v0.2c-3.1,0.8-5.6,3.1-6.6,6.4v0.4c-3.1,0.2-5.6,2.7-5.6,6c0,1,0.2,1.7,0.6,2.7l1,1.9
		l-1,2.7L24.636,82.117z M56.636,116.917h-3.5v-7h3.5c1.9,0,3.5,1.601,3.5,3.5S58.636,116.917,56.636,116.917z M53.036,99.617h-3.5
		l0.6-3.5h3.5L53.036,99.617z M52.436,102.917l-0.6,3.5h-3.5l0.6-3.5H52.436z M58.636,106.816c-0.6-0.199-1.4-0.399-1.9-0.399h-1.4
		l2.9-17.3h3.5L58.636,106.816z M54.736,89.117l-0.6,3.5h-3.5l0.6-3.5H54.736z M42.636,106.417h-5.8l-4.7-9.5l-3.1,1.8l4.7,9.5
		c0.6,1.2,1.7,1.9,3.1,1.9h12.8v7h-15.6c-2.7,0-5.4-1.4-7-3.7l-2.9-4.101c-1.6-2.1-2.3-4.699-2.3-7.199c0-3.3,1.4-6.4,3.7-8.8
		l0.4-0.4l7.6,2.1c2.1,0.6,4.1,1.7,5.6,3.3C41.336,100.417,42.536,103.316,42.636,106.417z M47.536,74.317l-2.9,1.6v7
		c0,2.5-1.9,4.5-4.5,4.5c-0.4,0-0.8,0-1.2-0.2l-6.2-1.6l-0.8,3.3l2.1,0.6v1.9l-6.4-1.9l3.1-9.3l-1.7-3.1c-0.2-0.4-0.2-0.8-0.2-1.2
		c0-1.4,1.2-2.5,2.5-2.5h2.3l0.8-2.9c0.6-2.1,2.3-3.7,4.5-3.9c1,1,2.3,1.8,3.9,1.8h1.7c0.4,0,0.6,0,1-0.2L47.536,74.317z
		 M72.436,61.317l7.8-10.1c0.6,0.4,1.2,0.8,1.6,1.2c0.4,0.4,0.8,1,1.2,1.6c-1.4,1.6-2.1,3.5-2.1,5.6c0,0.6,0,1.2,0.2,1.7H72.436
		L72.436,61.317z M102.336,89.117l-0.8-3.3l-6.2,1.6c-0.4,0-0.8,0.2-1.2,0.2c-2.5,0-4.5-1.9-4.5-4.5v-7l-3.1-1.6l2.1-6.2
		c0.4,0,0.6,0.2,1,0.2h1.8c1.4,0,2.5-0.6,3.5-1.4c1.6,0.6,2.7,1.9,3.1,3.5l0.8,2.9h2.301c1.399,0,2.5,1.2,2.5,2.5
		c0,0.4,0,0.8-0.201,1.2l-1.399,3.4l3.101,9.5l-4.701,1.6v-1.7L102.336,89.117z M84.836,99.617h-3.5l-0.6-3.5h3.5L84.836,99.617z
		 M82.536,106.417l-0.6-3.5h3.5l0.6,3.5H82.536z M83.736,92.617h-3.5l-0.6-3.5h3.5L83.736,92.617z M76.136,89.117l2.9,17.3h-1.4
		c-0.8,0-1.4,0.2-1.9,0.399l-2.9-17.699H76.136z M74.136,113.417c0-1.899,1.6-3.5,3.5-3.5h3.5v7h-3.5
		C75.736,116.917,74.136,115.417,74.136,113.417z M108.836,109.117l-1.9,3.3c-1.6,2.7-4.5,4.5-7.6,4.5h-14.8v-7h12.8
		c1.4,0,2.5-0.8,3.1-1.899l4.701-9.5l-3.101-1.6l-4.7,9.5h-5.8c0.2-3.101,1.6-6,3.7-8.4c1.6-1.6,3.5-2.7,5.6-3.5l5.801-1.9
		c2.5,2.5,3.899,6,3.899,9.5C110.736,104.917,110.137,107.217,108.836,109.117z M114.236,102.316c0-4.5-1.7-8.699-5.1-12.099
		l-0.4-0.4l-3.1-9.3l1-1.9c0.399-0.8,0.6-1.7,0.6-2.7c0-3.1-2.5-5.8-5.6-6v-0.4c-0.601-2.5-2.5-4.7-4.9-5.8c0-0.2,0-0.6,0-0.8
		c0-2.9-2.3-5.2-5.2-5.2v3.7c1,0,1.7,0.8,1.7,1.8s-0.8,1.7-1.7,1.7h-1.8c-2.9,0-5.3-2.3-5.3-5.2c0-1.4,0.6-2.7,1.6-3.7
		s2.3-1.6,3.7-1.6h10.3c8.7,0,15.899,7.2,15.899,15.9v17.5c0,3.3,1.201,6.4,3.301,8.9
		C118.536,99.217,116.536,101.217,114.236,102.316z"/>
	<path d="M141.236,162.816c-0.801-0.6-1.801-0.398-2.1,0.4l-0.201,0.201c-0.6,0.799-0.399,1.799,0.4,2.1c0.2,0.199,0.6,0.4,1,0.4
		c0.6,0,1-0.201,1.4-0.602l0.199-0.199C142.036,164.418,141.836,163.418,141.236,162.816"/>
	<path d="M141.637,178.018l-4.101-7.4l3.899-5.301c0.601-0.799,0.4-1.799-0.399-2.1c-0.8-0.6-1.7-0.4-2.101,0.4l-4.5,6
		c-0.399,0.6-0.399,1.199-0.199,1.699l4.699,8.4c0.4,0.6,0.801,0.801,1.4,0.801c0.2,0,0.6,0,0.801-0.201
		C141.836,179.717,142.036,178.717,141.637,178.018"/>
	<path d="M153.536,169.418l-4.5-6c-0.399-0.602-1-0.801-1.601-0.602c-0.6,0.201-1.199,0.602-1.199,1.201c-0.2,0.4,0,1,0.199,1.4
		l3.9,5.299l-4.1,7.4c-0.2,0.199-0.2,0.6-0.2,0.801c0,0.799,0.601,1.398,1.2,1.6c0.199,0,0.199,0,0.4,0c0.6,0,1.199-0.4,1.399-0.801
		l4.7-8.4C153.936,170.617,153.936,170.018,153.536,169.418"/>
	<path d="M156.036,144.316c-0.6-0.199-1.2-0.199-1.601,0.201c-1,0.6-1.799,1.399-2.5,2.1c-4.299,3.9-8.399,3.3-8.6,3.3
		c0,0-0.199,0-0.4,0c-1.699,0-4.699-1.601-8-4.101c-0.6-0.399-1-0.799-1.6-1.199s-1.199-0.4-1.6,0c-0.6,0.199-0.801,0.8-0.801,1.4
		v5.4c0,0.6,0.201,1,0.601,1.199c0,0,0,0,0.2,0.199l11.3,7.602l0,0l0,0c0.2,0.199,0.601,0.199,1,0.199c0.2,0,0.601,0,0.8-0.199h0.2
		l0,0l0,0l11.3-7.602c0,0,0,0,0.2,0c0.4-0.398,0.6-0.799,0.6-1.199v-5.6C156.836,145.117,156.636,144.717,156.036,144.316
		 M153.736,150.518l-9.7,6.6l-9.7-6.6v-1.4c2.301,1.699,5.801,3.9,8.801,3.9l0,0c1,0.199,5.799,0.4,10.899-3.9v1.4H153.736z"/>
	<path d="M145.536,158.717c-0.2-0.6-0.601-1.199-1.2-1.4c-0.6-0.199-1.4,0-1.699,0.602l-3.701,5.1c-0.6,0.799-0.399,1.799,0.4,2.1
		c0.2,0.199,0.6,0.4,1,0.4c0.6,0,1-0.201,1.4-0.6l3.699-5.102c0.201-0.199,0.4-0.6,0.4-1
		C145.536,158.918,145.536,158.918,145.536,158.717"/>
	<path d="M168.336,107.417c0-0.2-0.8-5.601-5.8-7.8c0.2-1,0.2-2.1-0.4-3.3c-0.8-1.6-2.3-2.7-4.699-3.1c0,0-0.2,0-0.4,0h-21.399
		c-8.701,0-15.701,7-15.701,15.7v8.399c0,2.101,0.801,4.301,2.101,6c0.601,0.801,1.601,2.301,1.601,4.5
		c0,0.801,0.799,1.601,1.6,1.601c0.8,0,1.6-0.8,1.6-1.601v-10.899c1.2-4.5,4.9-5.399,5.4-5.399h7c0.8,0,1.6-0.201,2.3-0.4
		c1.399-0.4,3.5-1.2,4.899-1.7c1-0.399,2.101-0.399,3.101,0l7.4,2.5c3.699,1.399,4.3,4.7,4.5,5.101v13.199c0,0.801,0.6,1.6,1.6,1.6
		c0,0,0,0,0.2,0c0.8,0,1.6-0.6,1.6-1.399c0,0,0.601-4.101,2.7-7.399c0.8-1.201,1.2-2.5,1.2-3.701v-11.5
		C168.336,107.617,168.336,107.417,168.336,107.417 M164.937,119.018c0,0.799-0.2,1.399-0.601,2.1v-4.301v-0.199
		c0-0.2-0.8-5.6-6.6-7.801l0,0l-7.301-2.799c-0.799-0.4-1.799-0.4-2.5-0.4c-1,0-1.899,0.199-2.699,0.6
		c-2.2,0.801-3.801,1.4-4.9,1.801c-0.4,0.199-1,0.199-1.4,0.199h-7h-0.199c-0.2,0-6.6,1-8.2,8.2c0,0.2,0,0.2,0,0.399v3.201
		c-0.399-0.801-0.601-1.801-0.601-2.5v-8.4c0-7,5.601-12.6,12.601-12.6h21.2c1,0.2,1.899,0.6,2.3,1.4c0.6,1,0,2.3,0,2.3
		c-0.2,0.4-0.2,1,0,1.4s0.6,0.8,1,0.8c4.1,1,4.9,4.899,5.1,5.399v11.201H164.937z"/>
	<path d="M164.437,116.518c0-0.201-0.801-5.601-6.601-7.801l0,0l-7.4-2.699c-1.799-0.601-3.699-0.601-5.399,0
		c-2.101,0.799-3.7,1.399-4.899,1.799c-0.4,0.201-1,0.201-1.4,0.201h-7h-0.2c-0.2,0-6.601,1-8.2,8.199c0,0.2,0,0.2,0,0.4v13.8l0,0
		c0,0.399,0.4,11.7,8.2,16.899l0,0c0,0,0,0,0.2,0c0.4,0.4,1,0.601,1.4,1c2.299,1.701,6.6,4.701,9.899,4.701l0,0c0.2,0,0.601,0,1,0
		c1.899,0,6-0.6,10.101-4.301c0.8-0.6,1.399-1.199,2.3-1.8h0.199c0,0,0,0,0.2,0c2.5-1.8,7-6.2,8-16.7c0,0,0,0,0-0.199
		L164.437,116.518C164.437,116.717,164.437,116.717,164.437,116.518 M161.336,129.917c-0.8,9.5-4.899,13.2-6.6,14.399
		c0,0-0.2,0-0.2,0.201l0,0c-1,0.6-1.8,1.399-2.5,2.1c-4.3,3.9-8.399,3.3-8.601,3.3h-0.199c-1.801,0-4.7-1.601-8-4.101
		c-0.6-0.399-1-0.799-1.6-1.199l0,0c0,0,0,0-0.201,0c-6.199-4.1-6.6-13.801-6.6-14.2v-13.5c1.2-4.5,4.9-5.399,5.4-5.399h7
		c0.8,0,1.6-0.201,2.3-0.4c1.399-0.4,3.5-1.2,4.899-1.7c1-0.399,2.101-0.399,3.101,0l7.4,2.5c3.699,1.399,4.3,4.7,4.5,5.101v13
		h-0.101V129.917z"/>
	<path d="M145.336,158.316c-0.199-0.6-0.8-0.799-1.4-1c-0.6,0-1.199,0.201-1.399,0.602l-3.899,5.299
		c-0.601,0.801-0.4,1.701,0.399,2.1c0.2,0.201,0.601,0.4,1,0.4c0.601,0,1-0.199,1.399-0.6l3.9-5.301c0.2-0.199,0.4-0.6,0.4-1
		C145.536,158.918,145.536,158.518,145.336,158.316"/>
	<path d="M145.536,184.018c-0.601-0.6-1.601-0.6-2.101,0l-0.399,0.4c-0.601,0.6-0.601,1.398-0.399,1.898l0,0
		c0.199,0.4,0.6,0.801,1.199,0.801h0.2c0.399,0,0.8-0.199,1.2-0.4l0.4-0.4C146.137,185.717,146.137,184.617,145.536,184.018"/>
	<path d="M144.936,184.418l-0.399-0.4c-0.601-0.6-1.601-0.6-2.101,0c-0.6,0.6-0.6,1.6,0,2.1l0.4,0.4c0.4,0.4,0.801,0.4,1.2,0.4h0.2
		c0.6,0,1-0.4,1.199-0.801l0,0C145.736,185.518,145.536,184.816,144.936,184.418"/>
	<path d="M144.936,184.418L144.936,184.418c-0.199-0.201-0.6-0.4-1-0.4c-0.399,0-1,0.199-1.199,0.4l0,0
		c-0.4,0.398-0.6,0.799-0.6,1.199s0.199,0.801,0.399,1.199l0,0c0.399,0.4,0.8,0.4,1.2,0.4s0.8-0.199,1.199-0.4l0,0
		c0.4-0.398,0.4-0.799,0.4-1.199C145.536,185.018,145.336,184.617,144.936,184.418"/>
	<path d="M144.336,157.518c-0.6-0.201-1.4,0-1.699,0.6c-0.4,0.6-0.4,1.6,0.199,2.1c0.4,0.4,0.801,0.4,1.2,0.4s0.601-0.199,1-0.199
		c0.399-0.4,0.601-0.801,0.601-1.4l0,0C145.536,158.316,145.137,157.717,144.336,157.518"/>
	<path d="M145.137,158.117L145.137,158.117c-0.4-0.6-1.201-0.801-1.801-0.6c-0.6,0.199-1.199,0.799-1.199,1.6l0,0
		c0,0.6,0.399,1.199,0.799,1.4c0.201,0.199,0.601,0.199,0.801,0.199c0.4,0,0.6,0,1-0.199c0.4-0.201,0.6-0.6,0.8-1
		C145.536,158.918,145.536,158.518,145.137,158.117"/>
	<path d="M162.836,153.117c-0.2-0.4-0.6-0.801-1-1l-6-2.1h-0.2c-0.399-0.201-1,0-1.399,0.199l-11.2,7.5l0,0l1,1.4l-1-1.4
		c-0.399,0.201-0.601,0.6-0.601,1c0,0.201,0,0.4,0,0.6c0,0.201,0.201,0.4,0.201,0.801l8.399,11.301c0.399,0.398,0.8,0.6,1.399,0.6
		c0,0,0,0,0.201,0c0.6,0,1-0.4,1.399-0.801l9.1-16.699C163.036,154.018,163.036,153.518,162.836,153.117 M151.936,167.518l-5.799-8
		l9.3-6.201l3.699,1.4L151.936,167.518z"/>
	<path d="M145.536,158.717c0-0.4-0.399-0.799-0.8-1l-11.5-7.6c-0.4-0.2-0.801-0.4-1.2-0.2h-0.2l-6,2.101c-0.4,0.199-0.8,0.6-1,1
		c-0.199,0.4-0.199,1,0,1.4l9.1,16.699c0.201,0.4,0.801,0.801,1.4,0.801c0,0,0,0,0.2,0c0.601,0,1-0.201,1.399-0.602l4.5-6l0,0
		l3.9-5.299C145.536,159.717,145.536,159.316,145.536,158.717 M138.736,163.418L138.736,163.418l-2.9,4.1l-7-12.801l3.7-1.4
		l9.3,6.201L138.736,163.418z"/>
	<path d="M191.036,180.316l-2.1-12.398c-0.601-3.9-3.301-7.201-7.2-8.602l-19.8-7.199c-0.601-0.199-1.4,0-1.7,0.4
		c-0.4,0.6-0.601,1.199-0.2,1.699l4.1,8.4h-4.1c-0.6,0-1,0.4-1.4,0.801c-0.199,0.398-0.399,1,0,1.6l1.801,3.1l-17.101,15.699l0,0
		l-0.4,0.4c-0.6,0.6-0.6,1.4-0.199,1.9l0,0c0.199,0.6,0.8,0.801,1.4,0.801h41.399c1.7,0,3.3-0.801,4.5-2.102
		C190.836,183.816,191.437,182.018,191.036,180.316 M187.336,183.018c-0.6,0.6-1.2,1-1.899,1h-37.4l15.4-14.201
		c0.6-0.6,0.6-1.398,0.399-1.898l-1-1.9h4.101c0.6,0,1-0.4,1.399-0.801c0.2-0.4,0.4-1,0-1.6l-3.7-7l16.101,5.801
		c2.7,1,4.7,3.299,5.1,6l2.101,12.398C188.136,181.717,187.736,182.418,187.336,183.018z"/>
	<path d="M144.936,184.418L144.936,184.418c-0.6-0.602-1.6-0.602-2.1,0l0,0c-0.4,0.398-0.6,1.199-0.4,1.799
		c0.201,0.6,0.801,1,1.601,1l0,0c0.601,0,1.2-0.4,1.601-1C145.736,185.518,145.536,184.816,144.936,184.418"/>
	<path d="M144.936,184.418c-0.399-0.4-0.799-0.4-1.399-0.4c-0.399,0-1,0.4-1.2,0.799l0,0c-0.4,0.602-0.199,1.4,0.2,1.9l0,0
		c0.399,0.4,0.8,0.6,1.2,0.6s0.8-0.199,1.199-0.398l0,0c0.201-0.201,0.201-0.4,0.4-0.4
		C145.736,185.518,145.536,184.816,144.936,184.418"/>
	<path d="M145.137,184.418L145.137,184.418L145.137,184.418l-0.4-0.4l0,0l-17.301-15.701l1.801-3.1c0.199-0.6,0.199-1.199,0-1.6
		c-0.2-0.4-0.801-0.801-1.4-0.801h-4.1l4.1-8.398c0.2-0.602,0.2-1.4-0.199-1.801c-0.4-0.6-1.201-0.6-1.801-0.4l-19.8,7.301
		c-3.7,1.4-6.4,4.699-7.2,8.6l-2.1,12.4c-0.2,1.799,0.2,3.5,1.4,4.699c1.2,1.4,2.7,2.1,4.5,2.1h41.399c0.601,0,1.2-0.398,1.601-1
		C145.736,185.518,145.536,184.816,145.137,184.418 M102.536,184.018c-0.8,0-1.601-0.4-1.899-1c-0.601-0.6-0.801-1.4-0.601-2.1
		l2.101-12.4c0.399-2.701,2.299-5.1,5.1-6l16.1-5.801l-3.5,7c-0.199,0.6-0.199,1.201,0,1.6c0.2,0.4,0.801,0.801,1.4,0.801h4.1
		l-1,1.9c-0.4,0.6-0.199,1.4,0.4,1.9l15.4,14.1H102.536z"/>
	<path d="M149.436,164.717c0.201-0.4,0-1-0.199-1.4l-3.9-5.299c-0.4-0.6-1.199-0.801-1.699-0.6c-0.4,0.199-0.601,0.398-0.801,0.6
		l-3.9,5.299l-0.199,0.201c-0.2,0.6-0.2,1.199,0.199,1.6l1.601,2.301l-1.7,10.898c0,0.4,0,0.801,0.2,1l3.7,6.801
		c0.199,0.6,0.8,0.801,1.4,0.801c0.6,0,1.199-0.4,1.399-0.801l3.7-6.801c0.199-0.199,0.199-0.6,0.199-0.799v-0.201l-1.699-10.898
		l1.6-2.301C149.236,165.117,149.236,164.918,149.436,164.717 M143.936,182.018l-1.899-3.701l1.8-11.1c0-0.4,0-0.799-0.199-1.199
		l-1.4-1.9l1.9-2.5l1.899,2.5l-1.399,1.9c-0.201,0.4-0.4,0.799-0.201,1.199l1.701,10.9L143.936,182.018z"/>
</g>
</svg>
