<?xml version="1.0" encoding="utf-8"?>
<!-- Generator: Adobe Illustrator 16.0.0, SVG Export Plug-In . SVG Version: 6.00 Build 0)  -->
<!DOCTYPE svg PUBLIC "-//W3C//DTD SVG 1.1//EN" "http://www.w3.org/Graphics/SVG/1.1/DTD/svg11.dtd">
<svg version="1.1" id="Capa_1" xmlns="http://www.w3.org/2000/svg" xmlns:xlink="http://www.w3.org/1999/xlink" x="0px" y="0px"
	 width="680px" height="100px" viewBox="-215 -30 680 100" style="enable-background:new -215 -30 680 100;" xml:space="preserve">
<style type="text/css">
<![CDATA[
	.st0{fill:#D70000;}
]]>
</style>
<path class="st0" d="M-189.4-11.1c0-0.5-0.3-1.1-0.5-1.7c-0.3-0.3-0.8-0.8-1.4-1.1c-0.6-0.3-1.1-0.3-1.7-0.5c-0.8,0-1.4-0.3-2.2-0.6
	c-1.1,0-1.9-0.3-2.8-0.5c-1.1-0.3-1.9-0.8-2.5-1.4c-0.5-0.6-1.1-1.1-1.7-1.9c-0.3-0.8-0.6-1.9-0.6-3c0-1.4,0.3-2.5,0.6-3.6
	c0.5-1.1,1.1-1.9,1.9-2.5c0.8-0.6,1.7-1.1,2.8-1.4c1.4-0.3,2.5-0.6,3.9-0.6s2.8,0,4.1,0.3c1.4,0.3,2.5,0.5,3.6,1.1v4.1
	c-1.4-0.6-2.5-0.8-3.9-1.1c-1.1-0.3-2.5-0.3-3.3-0.3c-1.7,0-2.8,0.3-3.6,0.8c-0.8,0.3-1.4,1.1-1.4,2.2c0,0.5,0,1.1,0.3,1.7
	c0.6,0.5,0.8,0.8,1.4,1.1c0.6,0.3,1.1,0.5,1.7,0.5c0.6,0.3,1.1,0.6,1.9,0.6c1.1,0.3,2.2,0.6,3,0.8c1.1,0.3,1.9,0.8,2.5,1.4
	c0.8,0.6,1.4,1.1,1.9,2.2c0.6,0.8,0.6,1.9,0.6,3.3s-0.3,2.5-0.8,3.6c-0.6,1.1-1.1,1.9-2.2,2.5c-0.8,0.6-1.9,1.1-3.3,1.4
	s-2.8,0.6-4.4,0.6c-1.4,0-2.8,0-4.1-0.3c-1.4-0.3-2.5-0.6-3.3-1.1v-4.4c1.4,0.5,2.5,0.8,3.9,1.1c1.1,0.3,2.5,0.3,3.6,0.3
	c0.8,0,1.4,0,2.2-0.3c0.8,0,1.4-0.3,1.9-0.6c0.5-0.3,1.1-0.8,1.4-1.1C-189.7-9.7-189.4-10.5-189.4-11.1 M-174.8-7.8h12.4v3.9h-17.1
	v-25.3h16.5v3.9h-11.8v6.6h10.2v3.9h-10.2V-7.8L-174.8-7.8z M-138.5-21.6c0,1.7-0.5,3.3-1.4,4.4c-1.1,1.1-2.5,2.2-4.7,2.8l0,0
	l7.7,10.5h-5.5l-6.9-9.9h-3.3v9.9h-4.7v-25.3h7.7c1.4,0,2.5,0,3.6,0.3c1.1,0.3,1.9,0.3,2.8,0.6c1.4,0.6,2.8,1.4,3.6,2.5
	C-139-24.9-138.5-23.5-138.5-21.6z M-150.3-17.7c1.1,0,1.9,0,2.8-0.3c0.8,0,1.4-0.3,1.9-0.5c0.8-0.3,1.7-0.8,1.9-1.4
	c0.3-0.6,0.6-1.4,0.6-2.2c0-0.5-0.3-1.4-0.6-1.9c-0.3-0.6-0.8-0.8-1.4-1.4c-0.5-0.3-1.1-0.3-1.7-0.6c-0.5,0-1.4-0.3-2.5-0.3h-3.3
	v7.7L-150.3-17.7L-150.3-17.7z M-123.6-10c0.5-1.4,0.8-2.5,1.1-3c0.3-0.6,0.5-1.9,1.4-3.6l4.7-12.7h5l-9.9,25.3h-4.1l-9.9-25.3h5
	l4.7,12.7c0.6,1.9,1.1,3,1.4,3.6C-124.4-12.5-124.1-11.4-123.6-10L-123.6-10z M-108.2-3.9v-25.3h4.7v25.3H-108.2z M-85-26
	c-1.4,0-2.5,0.3-3.6,0.6c-1.1,0.3-1.9,1.1-2.8,1.9c-0.5,0.8-1.1,1.9-1.7,3c-0.5,1.1-0.5,2.5-0.5,4.1c0,1.4,0.3,2.8,0.5,3.9
	c0.3,1.1,0.8,2.2,1.7,2.8c0.8,0.8,1.7,1.4,2.8,1.7c1.1,0.3,2.2,0.6,3.6,0.6c1.1,0,1.9,0,3-0.3c1.1-0.3,1.9-0.3,2.8-0.6v3.9
	c-0.8,0.3-1.9,0.5-2.8,0.5c-1.1,0.3-2.2,0.3-3.3,0.3c-2.2,0-4.1-0.3-5.8-0.8c-1.7-0.6-3-1.4-4.1-2.5c-1.1-1.1-1.9-2.5-2.5-4.1
	c-0.6-1.7-0.8-3.3-0.8-5.2c0-1.9,0.3-3.9,0.8-5.5c0.5-1.7,1.4-3,2.5-4.4c1.1-1.1,2.5-2.2,4.1-2.8c1.9-0.5,3.9-0.8,5.8-0.8
	c1.1,0,2.2,0,3,0.3c1.1,0.3,1.9,0.3,2.5,0.5v3.9c-1.1-0.3-1.9-0.6-2.8-0.6C-83.1-25.7-84.2-26-85-26z M-74.6-3.9v-25.3h4.7v25.3
	H-74.6z M-45.1-16.6c0-1.7-0.3-3-0.6-4.1c-0.3-1.1-0.8-2.2-1.7-3c-0.5-0.8-1.4-1.4-2.5-1.7c-0.8-0.3-1.9-0.6-3-0.6
	c-1.1,0-2.2,0.3-3,0.6c-0.8,0.3-1.7,1.1-2.5,1.7c-0.5,0.8-1.1,1.7-1.7,3c-0.3,1.1-0.5,2.5-0.5,4.1c0,1.7,0.3,3,0.5,4.1
	c0.3,1.1,0.8,2.2,1.7,3c0.6,0.8,1.4,1.4,2.5,1.7c0.8,0.3,1.9,0.6,3,0.6c1.1,0,2.2-0.3,3-0.6c0.8-0.3,1.7-1.1,2.5-1.7
	c0.8-1.1,1.4-1.9,1.7-3C-45.1-13.8-45.1-14.9-45.1-16.6z M-40.2-16.6c0,1.9-0.3,3.9-0.8,5.2c-0.6,1.7-1.4,3-2.5,4.1
	C-44.6-6.1-46-5-47.3-4.5c-1.7,0.5-3.3,1.1-5.2,1.1c-1.9,0-3.9-0.3-5.2-1.1c-1.7-0.6-2.8-1.7-3.9-2.8c-1.1-1.1-1.9-2.5-2.5-4.1
	c-0.5-1.7-0.8-3.3-0.8-5.2c0-1.9,0.3-3.9,0.8-5.2c0.6-1.7,1.4-3,2.5-4.1c1.1-1.1,2.5-2.2,3.9-2.8c1.4-0.8,3.3-1.1,5.2-1.1
	c1.9,0,3.9,0.3,5.2,1.1c1.7,0.6,2.8,1.7,3.9,2.8c1.1,1.1,1.9,2.5,2.5,4.1C-40.5-20.5-40.2-18.5-40.2-16.6z M-27.2-3.9v-25.3h6.6
	c0.5,0,1.1,0,1.9,0c0.6,0,1.1,0,1.9,0.3c0.6,0,1.1,0.3,1.7,0.3c0.5,0,1.1,0.3,1.4,0.3c1.4,0.6,2.5,1.1,3.6,1.7
	c1.1,0.8,1.9,1.7,2.5,2.5c0.8,1.1,1.4,2.2,1.7,3.3c0.3,1.1,0.6,2.5,0.6,4.1c0,1.4-0.3,2.8-0.6,3.9c0,1.4-0.5,2.5-1.1,3.6
	C-7.7-8.3-8.5-7.5-9.6-7c-0.8,0.8-2.2,1.4-3.3,1.9c-1.1,0.3-2.2,0.8-3.6,0.8c-1.4,0.3-3,0.3-4.7,0.3H-27.2L-27.2-3.9z M-20.6-7.8
	c2.8,0,5-0.3,6.3-1.1c1.4-0.6,2.5-1.7,3-3c0.8-1.4,1.1-3,1.1-5c0-1.1,0-1.9-0.3-2.8c-0.3-0.8-0.5-1.7-1.1-2.2
	c-0.5-0.5-0.8-1.1-1.7-1.7c-0.5-0.5-1.4-0.8-2.2-1.1c-0.8-0.3-1.7-0.5-2.5-0.5c-0.8,0-1.9-0.3-3-0.3h-1.9v17.6H-20.6L-20.6-7.8z
	 M4.1-7.8h12.4v3.9H-0.5v-25.3H16v3.9H4.1v6.6h10.2v3.9H4.1V-7.8L4.1-7.8z M34.4-7.8h12.4v3.9H29.7v-25.3h16.5v3.9H34.4v6.6h10.2
	v3.9H34.4V-7.8z M65.3-17.4c1.9,2.5,3.3,5,4.4,6.9l0,0c-0.3-3.3-0.3-5.8-0.3-7.2v-11.6h4.7v25.3h-5l-8.3-11.8
	c-1.4-1.9-3-4.4-4.4-7.2l0,0c0.3,3,0.3,5.5,0.3,7.2v11.6H52v-25.1h5L65.3-17.4z M90.6-3.9h-4.7v-21.5h-8.3v-3.9h21.2v3.9h-8.3V-3.9z
	 M121.1-21.6c0,1.7-0.6,3.3-1.4,4.4c-1.1,1.1-2.5,2.2-4.7,2.8l0,0l7.7,10.5h-5.5l-6.9-9.9h-3.3v9.9h-4.7v-25.3h7.7
	c1.4,0,2.5,0,3.6,0.3c1.1,0.3,1.9,0.3,2.8,0.6c1.4,0.6,2.8,1.4,3.6,2.5C120.9-24.9,121.1-23.5,121.1-21.6z M109.3-17.7
	c1.1,0,1.9,0,2.8-0.3c0.8,0,1.4-0.3,1.9-0.5c0.8-0.3,1.7-0.8,1.9-1.4c0.3-0.6,0.5-1.4,0.5-2.2c0-0.5-0.3-1.4-0.5-1.9
	c-0.3-0.6-0.8-0.8-1.4-1.4c-0.6-0.3-1.1-0.3-1.7-0.6c-0.6,0-1.4-0.3-2.5-0.3h-3.3v7.7L109.3-17.7L109.3-17.7z M131.6-7.8H144v3.9
	h-17.1v-25.3h16.5v3.9h-11.8v6.6h10.2v3.9h-10.2V-7.8z M164.9-13.6h-5.8v-3.9h10.5v12.9c-0.3,0.3-0.8,0.3-1.4,0.5
	c-0.6,0.3-1.4,0.3-1.9,0.3c-0.8,0-1.4,0.3-2.2,0.3s-1.7,0-2.2,0c-2.2,0-4.4-0.3-6.1-0.8c-1.7-0.5-3-1.4-4.1-2.5
	c-1.1-1.1-1.9-2.5-2.5-3.9c-0.6-1.7-0.8-3.3-0.8-5.2c0-1.4,0.3-2.5,0.6-3.9c0.3-1.4,0.8-2.2,1.4-3.3c0.6-1.1,1.4-1.9,2.2-2.8
	s1.7-1.7,2.8-2.2c1.1-0.6,2.2-1.1,3.6-1.4c1.4-0.3,2.8-0.6,4.1-0.6c1.4,0,2.5,0,3.6,0.3c1.1,0.3,2.2,0.3,2.8,0.5v3.9
	c-1.1-0.3-1.9-0.6-3-0.8c-1.1-0.3-1.9-0.3-3-0.3c-1.4,0-2.8,0.3-3.9,0.6c-1.1,0.6-2.2,1.1-3,1.9c-0.8,0.8-1.7,1.9-2.2,3
	c-0.5,1.1-0.8,2.5-0.8,4.1c0,3,0.8,5.2,2.5,6.9c1.7,1.4,3.9,2.2,6.6,2.2c0.6,0,1.1,0,1.7,0c0.6,0,1.1,0,1.4-0.3v-5.8H164.9z
	 M189.7-10.3h-9.6l-2.5,6.3h-5l10.2-25.3h4.1l10.2,25.3h-5L189.7-10.3z M185-23.2c-0.8,2.8-1.7,5-2.5,6.6l-0.8,2.2h6.6l-0.8-2.2
	C186.7-18.3,185.8-20.5,185-23.2L185-23.2z M216.7-3.9H212v-21.5h-8.3v-3.9h21.2v3.9h-8.3V-3.9L216.7-3.9z M232.9-7.8h12.4v3.9
	h-17.1v-25.3h16.5v3.9h-11.8v6.6h10.2v3.9h-10.2V-7.8L232.9-7.8z M269.3-21.6c0,1.7-0.6,3.3-1.4,4.4c-1.1,1.1-2.5,2.2-4.7,2.8l0,0
	l7.7,10.5h-5.5l-6.9-9.9h-3.3v9.9h-4.7v-25.3h7.7c1.4,0,2.5,0,3.6,0.3c1.1,0.3,1.9,0.3,2.8,0.6c1.4,0.6,2.8,1.4,3.6,2.5
	C268.7-24.9,269.3-23.5,269.3-21.6z M257.4-17.7c1.1,0,1.9,0,2.8-0.3c0.8,0,1.4-0.3,1.9-0.5c0.8-0.3,1.7-0.8,1.9-1.4
	c0.3-0.6,0.6-1.4,0.6-2.2c0-0.5-0.3-1.4-0.6-1.9c-0.3-0.6-0.8-0.8-1.4-1.4c-0.6-0.3-1.1-0.3-1.7-0.6c-0.6,0-1.4-0.3-2.5-0.3h-3.3
	v7.7L257.4-17.7L257.4-17.7z M287.4-26c-1.4,0-2.5,0.3-3.6,0.6c-1.1,0.3-1.9,1.1-2.8,1.9c-0.8,0.8-1.4,1.7-1.9,3
	c-0.6,1.1-0.6,2.5-0.6,4.1c0,1.4,0.3,2.8,0.6,3.9c0.3,1.1,0.8,2.2,1.7,2.8c0.8,0.8,1.7,1.4,2.8,1.7c1.1,0.3,2.2,0.6,3.6,0.6
	c1.1,0,1.9,0,3-0.3c1.1-0.3,1.9-0.3,2.8-0.6v3.9c-0.8,0.3-1.9,0.5-2.8,0.5c-1.1,0.3-2.2,0.3-3.3,0.3c-2.2,0-4.1-0.3-5.8-0.8
	c-1.7-0.6-3-1.4-4.1-2.5c-1.1-1.1-1.9-2.5-2.5-4.1c-0.6-1.4-0.8-3.3-0.8-5c0-1.9,0.3-3.9,0.8-5.5s1.4-3,2.5-4.4
	c1.1-1.1,2.5-2.2,4.1-2.8c1.7-0.8,3.6-1.1,5.8-1.1c1.1,0,2.2,0,3,0.3c0.8,0.3,1.9,0.3,2.5,0.5v3.9c-1.1-0.3-1.9-0.6-2.8-0.6
	C289.1-25.7,288.2-26,287.4-26z M302.3-7.8h12.4v3.9h-17.1v-25.3h16.5v3.9h-11.8v6.6h10.2v3.9h-10.2V-7.8L302.3-7.8z M338.6-21.6
	c0,1.7-0.5,3.3-1.4,4.4c-1.1,1.1-2.5,2.2-4.7,2.8l0,0l7.7,10.5h-5.5l-6.9-9.9h-3.3v9.9h-4.7v-25.3h7.7c1.4,0,2.5,0,3.6,0.3
	c1.1,0.3,1.9,0.3,2.8,0.6c1.4,0.6,2.8,1.4,3.6,2.5C338.1-24.9,338.6-23.5,338.6-21.6z M326.8-17.7c1.1,0,1.9,0,2.8-0.3
	c0.8-0.3,1.4-0.3,1.9-0.5c0.8-0.3,1.7-0.8,1.9-1.4c0.3-0.6,0.6-1.4,0.6-2.2c0-0.5-0.3-1.4-0.6-1.9c-0.3-0.6-0.8-0.8-1.4-1.4
	c-0.6-0.3-1.1-0.3-1.7-0.6c-0.5,0-1.4-0.3-2.5-0.3h-3.3v7.7L326.8-17.7L326.8-17.7z M344.1-3.9v-25.3h4.7v25.3H344.1z M373.3-29.3
	v2.5l-13.5,19h13.8v3.9h-20.1v-2.5l13.8-19H354v-3.9H373.3z M392.9-10.3h-9.6l-2.5,6.3h-5L386-29.3h4.1l10.2,25.3h-5L392.9-10.3z
	 M388.2-23.2c-0.8,2.8-1.7,5-2.5,6.6l-0.8,2.2h6.6l-0.8-2.2C389.8-18.3,389-20.5,388.2-23.2L388.2-23.2z M403.9-3.9v-25.3h6.6
	c0.6,0,1.1,0,1.9,0c0.5,0,1.1,0,1.9,0.3c0.6,0,1.1,0.3,1.7,0.3c0.6,0,1.1,0.3,1.4,0.3c1.4,0.6,2.5,1.1,3.6,1.7
	c1.1,0.8,1.9,1.7,2.5,2.5c0.8,1.1,1.4,2.2,1.7,3.3c0.3,1.1,0.6,2.5,0.6,4.1c0,1.4-0.3,2.8-0.6,3.9c-0.3,1.1-0.8,2.2-1.4,3.3
	c-0.6,1.1-1.4,1.9-2.5,2.5c-0.8,0.8-1.9,1.4-3.3,1.9c-1.1,0.3-2.2,0.8-3.6,0.8c-1.4,0.3-3,0.3-4.7,0.3L403.9-3.9L403.9-3.9z
	 M410.5-7.8c2.8,0,5-0.3,6.3-1.1c1.4-0.6,2.5-1.7,3-3c0.8-1.4,1.1-3,1.1-5c0-1.1,0-1.9-0.3-2.8c-0.3-0.8-0.6-1.7-1.1-2.2
	c-0.6-0.5-0.8-1.1-1.7-1.7c-0.6-0.5-1.4-0.8-2.2-1.1c-0.8-0.3-1.7-0.5-2.5-0.5c-0.8,0-1.9-0.3-3-0.3h-1.7v17.6H410.5L410.5-7.8z
	 M445.4-10.3h-9.6l-2.5,6.3h-5l10.2-25.3h4.1l10.2,25.3h-5L445.4-10.3z M440.5-23.2c-0.8,2.8-1.7,5-2.5,6.6l-0.8,2.2h6.6l-0.8-2.2
	C442.4-18.3,441.6-20.5,440.5-23.2L440.5-23.2z"/>
<path d="M-183.6,44.2c0,0.8-0.5,1.9-1.7,3.3c-0.3,0.3-0.5,0.8-1.1,1.1c-0.3,0.6-0.8,0.8-1.1,1.4c-0.6,0.3-0.8,0.8-1.4,1.4
	c-0.6,0.6-0.8,0.8-1.1,1.1c-1.1,1.1-2.5,2.2-3.9,3c-1.4,1.1-2.8,1.9-4.1,2.5c-1.4,0.8-2.8,1.4-4.1,1.7c-1.4,0.6-2.8,0.6-3.9,0.6
	c-1.4,0-2.5-0.3-3.6-0.6c-1.1-0.6-1.9-1.1-2.5-1.9c-0.6-0.8-1.1-1.9-1.4-3c0-1.4-0.3-2.5-0.3-4.1c0-1.4,0-2.8,0.3-4.1
	c0.3-1.4,0.5-2.8,1.1-4.1c0.6-1.4,1.1-2.5,1.7-3.9c0.5-1.1,1.4-2.5,1.9-3.3c0.6-0.3,1.1-1.1,1.7-1.7c0.6-0.6,1.1-1.4,1.7-1.9
	s1.1-1.1,1.9-1.7c0.5-0.6,1.4-1.1,1.9-1.4c0.3-0.3,0.8-0.6,1.4-0.8c0.6-0.3,1.4-0.8,1.9-1.1c0.5-0.3,1.4-0.6,1.9-0.8
	c0.6-0.3,1.1-0.3,1.7-0.3c0.8,0,1.4,0,1.9,0.3c0.5,0,0.8,0.3,1.1,0.6c0.3,0.3,0.3,0.3,0.6,0.5c0.3,0.3,0.5,0.6,0.5,1.1
	c0.3,0.3,0.3,0.8,0.6,1.1c0,0.3,0.3,0.5,0.3,0.8c0,0.3,0,0.6-0.3,1.1c-0.3,0.6-0.6,1.1-0.8,1.7c-0.3,0.6-0.5,1.1-0.8,1.4
	c-0.3,0.6-0.6,0.8-0.6,0.8c-0.5,0.6-1.1,1.1-1.7,1.1c-0.6,0-0.8-0.3-1.1-0.6c-0.3-0.3-0.5-0.8-0.5-1.4c0-0.3,0-0.6,0.3-0.8
	c0.3-0.3,0.5-0.8,0.8-1.4c0.6-0.6,0.8-1.1,1.1-1.4c0.3-0.6,0.3-0.8,0.6-0.8c-0.3-0.3-0.6-0.3-0.8-0.5c-0.3,0-0.8-0.3-1.1-0.3
	c-0.5,0-1.1,0-1.7,0.3c-0.5,0.3-1.4,0.5-1.9,0.8c-0.8,0.3-1.4,0.8-1.9,1.4c-0.5,0.6-1.1,0.8-1.7,1.4c-1.4,1.4-2.5,2.5-3.6,4.1
	c-1.1,1.4-1.9,3-2.8,4.7c-0.3,0.8-0.6,1.4-0.8,2.2c-0.3,0.8-0.6,1.7-0.6,2.5c-0.3,0.8-0.3,1.7-0.6,2.5c0,0.8-0.3,1.7-0.3,2.2
	c0,0.8,0,1.7,0.3,2.5c0.3,0.8,0.6,1.4,0.8,1.9c0.3,0.5,0.8,0.8,1.7,1.4c0.5,0.3,1.4,0.5,2.5,0.5c1.1,0,1.9-0.3,3-0.5
	c1.1-0.3,2.2-0.8,3.3-1.4c1.1-0.6,2.2-1.1,3-1.9c1.1-0.8,1.9-1.4,3-2.2c0.8-0.8,1.9-1.7,2.8-2.2c0.8-0.8,1.7-1.4,2.5-2.2
	c0.3-0.3,0.6-0.6,0.8-0.8c0.3-0.3,0.6-0.6,0.8-1.1c0.3-0.3,0.5-0.5,0.8-1.1c0.3-0.3,0.6-0.6,0.8-0.8
	C-183.9,43.1-183.6,43.4-183.6,44.2 M-157.7,39.8c0,0.3,0,0.6-0.3,0.8c0,0.3-0.3,0.6-0.3,0.8c-0.3,0.3-0.3,0.3-0.6,0.5
	c-0.3,0.3-0.3,0.3-0.5,0.6c-0.6,0.3-1.1,0.6-1.9,0.8c-0.8,0.3-1.9,0.3-3,0.3c-0.8,0-1.9-0.3-3-0.6c-1.1-0.3-1.9-0.8-2.8-1.4
	c0.3,0.6,0.6,1.1,0.6,1.4c0,0.6,0,1.1,0,1.7c0,1.1-0.3,2.5-0.8,3.6c-0.6,1.4-1.1,2.5-1.9,3.6c-0.8,1.1-1.7,2.2-2.5,2.8
	c-0.6,0.6-1.1,0.8-1.7,1.1c-0.6,0.3-1.1,0.6-1.9,0.8c-0.5,0.3-1.4,0.3-1.9,0.5c-0.8,0-1.4,0.3-2.2,0.3c-0.5,0-1.1-0.3-1.4-0.6
	c-0.5-0.3-0.8-0.8-1.4-1.4c-0.3-0.6-0.5-1.1-0.8-1.7c-0.3-0.6-0.3-1.1-0.3-1.7c0-1.1,0-2.2,0.3-3.3c0.3-1.1,0.6-2.2,1.1-3.3
	c0.6-1.1,1.1-1.9,1.7-3c0.6-1.1,1.4-1.9,1.9-3c0.3-0.6,0.8-1.1,1.4-1.7c0.5-0.5,1.1-1.1,1.7-1.4c0.6-0.5,1.1-0.8,1.7-1.1
	c0.6-0.3,1.1-0.3,1.7-0.3c0.3,0,0.8,0,1.1,0.3c0.3,0,0.6,0.3,0.8,0.6c0.3,0.3,0.5,0.5,0.8,0.8c0.3,0.3,0.6,0.8,0.8,1.1
	c0,0,0.6,0.3,0.8,0.6c0.5,0.3,1.1,0.6,1.9,0.8c0.8,0.3,1.4,0.6,2.2,0.6c0.8,0.3,1.4,0.3,2.2,0.3c0.6,0,1.1,0,1.7,0s1.1-0.3,1.7-0.3
	c0.5,0,1.1-0.3,1.4-0.6c0.5-0.3,1.1-0.5,1.7-0.8C-157.7,39.6-157.7,39.8-157.7,39.8z M-172,45.1c0-0.3,0-0.8,0-1.4
	c0-0.6-0.3-1.1-0.3-1.4c-0.3-0.6-0.3-0.8-0.6-1.1c-0.3-0.3-0.5-0.6-0.8-0.3c-0.6-0.3-1.1-0.6-1.4-0.8c-0.3-0.3-0.6-0.6-0.8-0.6
	c-0.3,0-0.3,0-0.6,0.3c-0.3,0-0.3,0.3-0.6,0.6c-0.3,0.3-0.3,0.3-0.5,0.6c-0.3,0.3-0.3,0.6-0.6,0.8c-0.3,0.6-0.8,1.1-1.1,1.7
	c-0.3,0.6-0.6,0.8-0.8,1.4c-0.3,0.6-0.6,0.8-0.8,1.4c-0.3,0.6-0.5,1.1-0.8,1.7c0,0.3-0.3,0.6-0.3,0.8c0,0.3-0.3,0.8-0.3,1.1
	c0,0.3,0,0.8-0.3,1.1c0,0.3,0,0.8,0,1.1c0,0.3,0,0.6,0.3,0.8c0,0.3,0.3,0.6,0.6,0.8c0.3,0.3,0.3,0.6,0.5,0.6
	c0.3,0.3,0.6,0.3,0.8,0.3c0.5,0,1.1,0,1.7,0c0.5,0,0.8-0.3,1.4-0.3c0.3-0.3,0.8-0.3,1.1-0.8c0.3-0.3,0.8-0.6,1.4-1.1
	c0.3-0.3,0.5-0.6,0.8-0.8c0.3-0.3,0.6-0.6,0.8-0.8c0.3-0.3,0.5-0.6,0.5-1.1c0.3-0.3,0.6-0.6,0.6-1.1c0-0.3,0.3-0.6,0.3-0.8
	c0-0.3,0.3-0.5,0.3-1.1c0-0.3,0-0.6,0-0.8C-172,45.6-172,45.3-172,45.1z M-119.7,43.1c0,0,0,0.3,0,0.6c0,0.3,0,0.6-0.3,0.6
	c0,0.3-0.3,0.5-0.3,0.8c0,0.3-0.3,0.6-0.3,0.6c-0.3,0.3-0.5,0.8-0.8,1.4c-0.3,0.5-0.8,1.1-1.1,1.7c-0.3,0.6-0.8,1.1-1.4,1.7
	c-0.6,0.6-0.8,1.1-1.4,1.4c-0.3,0.3-0.8,0.8-1.4,1.1c-0.6,0.6-1.1,0.8-1.4,1.1c-0.6,0.3-1.1,0.5-1.7,0.8c-0.6,0.3-1.1,0.3-1.7,0.3
	c-0.5,0-0.8,0-1.1-0.3c-0.3-0.3-0.8-0.6-1.1-0.8c-0.3-0.3-0.6-0.8-0.8-1.7c-0.3-0.8-0.5-1.7-0.5-2.8c0-0.6-0.3-1.1-0.3-1.4
	c0-0.6,0-1.1-0.3-1.7c0-0.6,0-1.1-0.3-1.7c0-0.5,0-0.8-0.3-1.4c0-0.3-0.3-0.5-0.3-0.8c0-0.3-0.3-0.3-0.3-0.3c-0.3,0-0.3,0.3-0.8,0.6
	c-0.3,0.3-0.6,0.8-1.1,1.4c-0.3,0.5-0.8,1.4-1.4,2.2c-0.5,0.8-1.1,1.9-1.4,2.8c-1.1,2.2-1.9,3.9-2.5,5c-0.8,1.1-1.4,1.7-1.9,1.7
	c-0.8,0-1.4-0.5-1.7-1.4c-0.3-1.1-0.6-2.5-0.6-5c0-2.2-0.3-3.9-0.3-5.2c-0.3-1.1-0.5-1.9-0.8-1.9c-0.3,0-0.6,0.3-1.1,0.8
	c-0.6,0.6-0.8,1.1-1.4,1.9c-0.6,0.8-1.1,1.9-1.9,3c-0.5,1.1-1.4,2.5-1.9,3.6c-0.3,0.3-0.3,0.8-0.6,1.1c-0.3,0.6-0.6,0.8-0.8,1.4
	c-0.3,0.6-0.6,0.8-0.6,1.4c-0.3,0.3-0.6,0.8-0.6,1.1c-0.3,0.5-0.8,0.8-1.4,0.8c-0.8,0-1.7-0.6-1.9-1.7c0-0.3,0-0.5-0.3-0.8
	c0-0.3,0-0.3,0-0.6c0-0.3,0-0.3,0-0.5c0-0.3,0-0.6,0-0.8c0-0.5,0-1.1,0-1.7c0-0.6,0-1.1,0-1.4c0-0.6,0-1.1,0.3-1.7
	c0-0.6,0.3-1.4,0.3-1.9c0-0.6,0-1.4,0.3-1.9c0-0.8,0-1.4,0.3-2.2c0-0.6,0-1.4,0-1.9c0-0.6,0-1.1,0.3-1.4c0-0.3,0-0.3,0.3-0.6
	c0.3-0.3,0.3-0.6,0.5-0.6c0.3-0.3,0.3-0.3,0.6-0.5c0.3-0.3,0.3-0.3,0.6-0.3c0.3,0,0.5,0,0.5,0.3c0.3,0,0.3,0.3,0.3,0.5
	c0,0.3,0.3,0.6,0.3,0.8c0,0.3,0,0.5,0,1.1c0,0.3,0,0.8,0,1.4c0,0.6,0,1.1-0.3,1.7c0,0.5-0.3,1.4-0.3,1.9c0,0.6-0.3,1.4-0.3,1.9
	c0,0.6-0.3,1.1-0.3,1.7c0,0.5-0.3,0.8-0.3,1.4c0,0.8-0.3,1.4-0.3,1.9c0,0.6,0,0.8,0,1.1c0.3-0.3,0.3-0.6,0.6-0.8
	c0.3-0.3,0.5-0.8,0.8-1.4c0.3-0.6,0.6-1.1,0.8-1.7c0.3-0.5,0.6-1.4,1.1-1.9c0.3-0.6,0.5-1.1,0.8-1.7s0.6-1.1,0.8-1.7
	c0.3-0.6,0.6-1.1,0.8-1.7c0.3-0.5,0.5-0.8,0.8-1.4c0.6-0.8,1.1-1.4,1.7-1.7s1.1-0.6,1.7-0.6c0.5,0,1.1,0.3,1.7,0.8
	c0.5,0.6,0.8,1.4,0.8,2.2c0,0.3,0,0.8,0.3,1.4c0,0.5,0,1.1,0,1.7s0,1.1,0,1.7c0,0.6,0,1.1,0,1.7c0,0.6,0,0.8,0.3,1.4
	c0,0.3,0.3,0.6,0.3,0.8s0.3,0.3,0.3,0.6c0,0,0,0,0.3,0c0.3,0,0.6-0.6,1.1-1.7c0.3-0.5,0.6-1.4,1.1-1.9c0.3-0.8,0.8-1.7,1.1-2.5
	c0.5-0.8,0.8-1.7,1.4-2.5c0.5-0.8,1.1-1.4,1.4-2.2c0.5-0.6,0.8-1.1,1.4-1.4c0.5-0.3,0.8-0.6,1.1-0.6s0.3,0,0.5,0
	c0.3,0,0.3,0,0.6,0.3c0.3,0,0.3,0.3,0.6,0.3c0.3,0,0.3,0.3,0.3,0.6c0.3,0.3,0.3,0.8,0.3,1.1c0,0.5,0.3,0.8,0.3,1.7
	c0,0.6,0,1.1,0,1.9s0,1.4,0.3,2.5c0.3,1.9,0.5,3.3,0.8,4.1c0.3,0.8,0.8,1.4,1.7,1.4c0.3,0,0.6,0,1.1-0.3c0.3-0.3,0.8-0.6,1.4-0.8
	c0.6-0.3,0.8-0.8,1.4-1.1c0.6-0.3,0.8-0.8,1.4-1.4c0.3-0.3,0.8-0.8,1.1-1.4c0.3-0.6,0.8-0.8,1.1-1.4c0.3-0.6,0.8-0.8,1.1-1.4
	c0.3-0.6,0.8-1.1,1.4-1.4c0.3-0.3,0.3-0.3,0.5-0.3C-119.7,42.6-119.7,42.6-119.7,43.1z M-92.8,41.5c0,0.5,0,1.1-0.3,1.7
	c0,0.3-0.3,0.3-0.3,0.6c-0.3,0.3-0.3,0.3-0.6,0.6c-0.3,0.3-0.3,0.3-0.6,0.5c-0.3,0.3-0.3,0.3-0.3,0.3c-0.6,0.3-0.8,0.8-1.7,1.4
	c-0.6,0.6-1.4,1.1-2.2,1.7c-0.8,0.6-1.7,1.1-2.5,1.7c-0.8,0.5-1.7,1.1-2.8,1.7c-0.8,0.6-1.7,1.1-2.5,1.7c-0.8,0.6-1.7,0.8-2.2,1.4
	c-0.6,0.3-1.1,0.6-1.4,0.8c-0.6,0.3-0.8,0.5-1.4,0.8c-0.6,0.3-0.8,0.6-1.4,0.8c-0.6,0.3-0.8,0.3-1.4,0.3c-0.3,0-0.6,0-0.8,0
	c-0.3,0-0.5-0.3-0.8-0.3c-0.3-0.3-0.3-0.3-0.6-0.6c0-0.3-0.3-0.6-0.3-1.1c0-0.3,0-0.3,0.3-0.6c0-0.3,0.3-0.3,0.6-0.6
	c0.3-0.3,0.3-0.3,0.5-0.3c0.3,0,0.6-0.3,0.6-0.3c0.3,0,0.6-0.3,0.8-0.3c0.3,0,0.6-0.3,0.8-0.3s0.5-0.3,0.8-0.3
	c0.3,0,0.6-0.3,0.8-0.3c0.3-0.3,0.8-0.6,1.1-0.8c0.3-0.3,0.5-0.8,1.1-1.4c0.3-0.5,0.6-0.8,0.8-1.4c0.3-0.5,0.6-1.1,0.8-1.4
	c0.3-0.3,0.3-0.5,0.5-1.1c0.3-0.3,0.3-0.8,0.3-1.1c0-0.3,0.3-0.8,0.3-1.1c0-0.3,0-0.6,0-0.8c0-1.1-0.3-1.9-0.6-2.5
	c-0.3-0.6-0.8-0.8-1.4-0.8c-0.3,0-0.8,0-1.1,0.3c-0.5,0.3-0.8,0.6-1.4,1.1c-0.5,0.3-0.8,0.8-1.4,1.1c-0.3,0.6-0.8,0.8-0.8,1.1
	c-0.6,0.8-1.1,1.4-1.7,2.5c-0.6,0.8-1.1,1.7-1.4,2.5c-0.6,0.8-0.8,1.7-1.4,2.8c-0.3,0.8-0.8,1.7-1.1,2.5c-0.3,0.8-0.3,1.4-0.6,2.2
	c-0.3,0.8-0.3,1.7-0.3,2.8c0,1.9-0.3,3.9-0.3,5.2c0,1.7-0.3,3-0.6,4.1c0,0.6-0.3,0.8-0.6,1.4c-0.3,0.3-0.5,0.6-1.1,0.6
	c0,0-0.3,0-0.5,0c-0.3,0-0.3-0.3-0.6-0.3c-0.3-0.3-0.3-0.3-0.6-0.6c0-0.3-0.3-0.3-0.3-0.6c0-0.6,0-1.1,0-1.9c0-0.8,0-1.4,0.3-2.2
	c0-0.8,0.3-1.4,0.3-1.9c0-0.5,0-1.1,0.3-1.1c0.3-1.4,0.3-3,0.6-5c0.3-1.7,0.3-3.6,0.3-5.8c0-0.6,0-1.1,0-1.7c0-0.8,0-1.4,0-2.2
	c0-0.8,0-1.4,0-2.2c0-0.5,0-1.1,0-1.4c0.3-2.8,0.8-4.1,1.9-4.1c0.3,0,0.6,0,0.6,0.3c0.3,0,0.3,0.3,0.5,0.6c0.3,0.3,0.3,0.5,0.3,0.5
	c0,0.3,0,0.6,0,0.8c0,0.5,0,1.1-0.3,1.7c0,0.6-0.3,1.1-0.3,1.9c0,0.6-0.3,1.1-0.3,1.9c0,0.5-0.3,1.1-0.3,1.7c0,0.6,0,0.6,0,0.6
	c0.8-1.9,1.7-3.6,2.5-5c0.8-1.4,1.7-2.5,2.5-3.6c0.6-0.5,1.1-1.1,1.7-1.7c0.6-0.6,1.1-0.8,1.7-1.4c0.5-0.3,1.1-0.6,1.7-0.8
	c0.5-0.3,1.1-0.3,1.9-0.3c0.6,0,0.8,0,1.4,0.3c0.6,0.3,0.8,0.6,1.4,1.1c0.3,0.6,0.8,1.1,0.8,1.9c0.3,0.8,0.3,1.7,0.3,2.5
	s0,1.4-0.3,2.2c-0.3,0.8-0.6,1.4-0.8,2.2c-0.3,0.8-0.8,1.4-1.1,1.9c-0.6,0.6-0.8,1.4-1.4,1.9c1.1-0.6,2.2-1.1,3.3-1.7
	c1.1-0.5,2.2-1.4,3.3-2.2c1.1-0.8,2.2-1.7,3.3-2.5c1.1-0.8,1.9-1.7,3-2.5c0.3-0.3,0.5-0.6,0.8-0.6c0.3-0.3,0.3-0.3,0.6-0.3
	c0.3,0,0.3,0,0.3,0.3C-92.8,40.9-92.8,41.2-92.8,41.5z M-78.2,40.7v0.3c0,0.3,0,0.3,0,0.6c0,0.3,0,0.3-0.3,0.5l-0.3,0.3H-79
	c-0.3,0-0.3,0-0.5,0c-0.3,0-0.3,0-0.6,0c-0.3,0-0.3,0-0.3,0c-2.5,0.3-4.4,1.1-6.1,3c-1.7,1.9-3,4.4-4.1,7.4
	c-0.3,0.6-0.6,1.4-0.6,1.9c-0.3,0.6-0.3,1.4-0.6,2.2c0,0.3-0.3,0.8-0.3,1.1c0,0.3,0,0.5-0.3,1.1c0,0,0,0.3-0.3,0.3
	c-0.3,0-0.3,0.3-0.6,0.3c-0.3,0-0.5,0.3-0.5,0.3c-0.3,0-0.3,0-0.6,0c-0.8,0-1.4-1.1-1.4-3c0-0.6,0-1.1,0-1.7c0-0.6,0-0.8,0-1.4
	c0-0.6,0-0.8,0-1.4c0-0.6,0-1.1,0.3-1.7c0-0.8,0-1.7,0.3-2.8c0-1.1,0.3-1.9,0.3-3c0-1.1,0.3-1.9,0.3-2.8s0.3-1.7,0.3-2.2
	c0-0.8,0.3-1.1,0.6-1.7c0.3-0.3,0.5-0.6,1.1-0.6h0.3c0.3,0,0.3,0.3,0.3,0.3s0.3,0.3,0.3,0.6c0,0.3,0,0.3,0.3,0.3c0,0.3,0,0.8,0,1.1
	c0,0.5,0,0.8,0,1.4c0,0.5-0.3,0.8-0.3,1.4c0,0.5-0.3,0.8-0.3,1.4c-0.3,0.8-0.3,1.7-0.3,2.2c0,0.6-0.3,1.1-0.3,1.7s0,1.1-0.3,1.9
	c0,0.6-0.3,1.4-0.3,2.5c0.3-0.6,0.3-1.1,0.6-1.4c0.3-0.3,0.3-0.8,0.6-1.1c0-0.3,0.3-0.6,0.3-0.8c0-0.3,0.3-0.6,0.3-0.8
	c0-0.3,0.3-0.6,0.6-0.8c0.3-0.3,0.3-0.5,0.5-1.1c0.8-1.7,1.9-3,2.8-4.1c1.1-1.1,1.9-1.9,3-2.2c1.1-0.6,1.9-0.8,2.8-0.8
	c0.3,0,0.8,0,1.1,0c0.6,0,0.8,0.3,1.4,0.3c0.6,0.3,0.8,0.3,1.1,0.6C-78.2,39.8-78.2,40.1-78.2,40.7z M-50.1,39.8
	c0,0.3,0,0.6-0.3,0.8c0,0.3-0.3,0.6-0.3,0.8c-0.3,0.3-0.3,0.5-0.6,0.5c-0.3,0.3-0.3,0.3-0.6,0.6c-0.5,0.3-1.1,0.6-1.9,0.8
	c-0.8,0.3-1.9,0.3-3,0.3c-0.8,0-1.9-0.3-3-0.6c-1.1-0.3-1.9-0.8-2.8-1.4c0.3,0.6,0.6,1.1,0.6,1.4c0,0.6,0,1.1,0,1.7
	c0,1.1-0.3,2.5-0.8,3.6c-0.5,1.4-1.1,2.5-1.9,3.6c-0.8,1.1-1.7,2.2-2.5,2.8c-0.6,0.6-1.1,0.8-1.7,1.1c-0.6,0.3-1.1,0.6-1.9,0.8
	c-0.5,0.3-1.4,0.3-1.9,0.5c-0.8,0-1.4,0.3-2.2,0.3c-0.5,0-1.1-0.3-1.4-0.6c-0.5-0.3-0.8-0.8-1.4-1.4c-0.3-0.6-0.5-1.1-0.8-1.7
	c-0.3-0.6-0.3-1.1-0.3-1.7c0-1.1,0-2.2,0.3-3.3c0.3-1.1,0.5-2.2,1.1-3.3c0.6-1.1,1.1-1.9,1.7-3c0.5-1.1,1.4-1.9,1.9-3
	c0.3-0.6,0.8-1.1,1.4-1.7c0.6-0.5,1.1-1.1,1.7-1.4c0.6-0.5,1.1-0.8,1.7-1.1c0.6-0.3,1.1-0.3,1.7-0.3c0.3,0,0.8,0,1.1,0.3
	c0.3,0,0.6,0.3,0.8,0.6c0.3,0.3,0.6,0.5,0.8,0.8c0.3,0.3,0.5,0.8,0.8,1.1c0,0,0.6,0.3,0.8,0.6c0.5,0.3,1.1,0.6,1.9,0.8
	c0.8,0.3,1.4,0.6,2.2,0.6c0.8,0.3,1.4,0.3,2.2,0.3c0.8,0,1.1,0,1.7,0c0.5,0,1.1-0.3,1.7-0.3c0.5,0,1.1-0.3,1.4-0.6
	c0.5-0.3,1.1-0.5,1.7-0.8C-50.1,39.6-50.1,39.8-50.1,39.8z M-64.1,45.1c0-0.3,0-0.8,0-1.4c0-0.6-0.3-1.1-0.3-1.4
	c-0.3-0.6-0.3-0.8-0.6-1.1c-0.3-0.3-0.6-0.6-0.8-0.3c-0.6-0.3-1.1-0.6-1.4-0.8c-0.3-0.3-0.6-0.6-0.8-0.6c-0.3,0-0.3,0-0.5,0.3
	c-0.3,0-0.3,0.3-0.6,0.6c-0.3,0.3-0.3,0.3-0.6,0.6c-0.3,0.3-0.3,0.6-0.5,0.8c-0.3,0.6-0.8,1.1-1.1,1.7c-0.3,0.6-0.6,0.8-0.8,1.4
	c-0.3,0.6-0.5,0.8-0.8,1.4c-0.3,0.6-0.6,1.1-0.8,1.7c0,0.3-0.3,0.6-0.3,0.8c0,0.3-0.3,0.8-0.3,1.1c0,0.3,0,0.8-0.3,1.1
	c0,0.3,0,0.8,0,1.1c0,0.3,0,0.6,0.3,0.8c0,0.3,0.3,0.6,0.5,0.8c0.3,0.3,0.3,0.6,0.6,0.6c0.3,0.3,0.6,0.3,0.8,0.3c0.6,0,1.1,0,1.7,0
	c0.6,0,0.8-0.3,1.4-0.3c0.3-0.3,0.8-0.3,1.1-0.8c0.3-0.3,0.8-0.6,1.4-1.1c0.3-0.3,0.6-0.6,0.8-0.8c0.3-0.3,0.5-0.6,0.8-0.8
	c0.3-0.3,0.6-0.6,0.6-1.1c0.3-0.3,0.5-0.6,0.5-1.1c0-0.3,0.3-0.6,0.3-0.8c0-0.3,0.3-0.5,0.3-1.1c0-0.3,0-0.6,0-0.8
	C-64.1,45.6-64.1,45.3-64.1,45.1z"/>
<path d="M-11.8,43.1c0,0,0,0.3,0,0.6c0,0.3,0,0.6-0.3,0.6c0,0.3-0.3,0.5-0.3,0.8c0,0.3-0.3,0.6-0.3,0.6c-0.3,0.3-0.6,0.8-0.8,1.4
	c-0.3,0.5-0.8,1.1-1.1,1.7c-0.3,0.6-0.8,1.1-1.4,1.7c-0.5,0.6-0.8,1.1-1.4,1.4c-0.3,0.3-0.8,0.8-1.4,1.1c-0.5,0.6-1.1,0.8-1.4,1.1
	c-0.5,0.3-1.1,0.5-1.7,0.8c-0.6,0.3-1.1,0.3-1.7,0.3c-0.6,0-0.8,0-1.1-0.3c-0.3-0.3-0.8-0.6-1.1-0.8c-0.3-0.3-0.5-0.8-0.8-1.7
	c-0.3-0.8-0.6-1.7-0.6-2.8c0-0.6-0.3-1.1-0.3-1.4c0-0.6,0-1.1-0.3-1.7c0-0.6,0-1.1-0.3-1.7c0-0.5,0-0.8-0.3-1.4
	c0-0.3-0.3-0.5-0.3-0.8c0-0.3-0.3-0.3-0.3-0.3c-0.3,0-0.3,0.3-0.8,0.6c-0.3,0.3-0.5,0.8-1.1,1.4c-0.3,0.5-0.8,1.4-1.4,2.2
	c-0.6,0.8-1.1,1.9-1.4,2.8c-1.1,2.2-1.9,3.9-2.5,5c-0.8,1.1-1.4,1.7-1.9,1.7c-0.8,0-1.4-0.5-1.7-1.4c-0.3-1.1-0.5-2.5-0.5-5
	c0-2.2-0.3-3.9-0.3-5.2c-0.3-1.1-0.6-1.9-0.8-1.9c-0.3,0-0.6,0.3-1.1,0.8c-0.5,0.6-0.8,1.1-1.4,1.9c-0.5,0.8-1.1,1.9-1.9,3
	c-0.6,1.1-1.4,2.5-1.9,3.6c-0.3,0.3-0.3,0.8-0.5,1.1c-0.3,0.6-0.6,0.8-0.8,1.4c-0.3,0.6-0.5,0.8-0.5,1.4c-0.3,0.3-0.6,0.8-0.6,1.1
	c-0.3,0.5-0.8,0.8-1.4,0.8c-1.1,0-1.7-0.6-1.9-1.7c0-0.3,0-0.5-0.3-0.8c0-0.3,0-0.3,0-0.6c0-0.3,0-0.3,0-0.5c0-0.3,0-0.6,0-0.8
	c0-0.5,0-1.1,0-1.7c0-0.6,0-1.1,0-1.4c0-0.6,0-1.1,0.3-1.7c0-0.6,0.3-1.4,0.3-1.9c0-0.6,0-1.4,0.3-1.9c0-0.8,0-1.4,0.3-2.2
	c0-0.6,0-1.4,0-1.9c0-0.6,0-1.1,0.3-1.4c0-0.3,0-0.3,0.3-0.6c0.3-0.3,0.3-0.6,0.6-0.6c0.3-0.3,0.3-0.3,0.6-0.5
	c0.3-0.3,0.3-0.3,0.5-0.3c0.3,0,0.6,0,0.6,0.3c0.3,0,0.3,0.3,0.5,0.5c0,0.3,0.3,0.6,0.3,0.8c0,0.3,0,0.5,0,1.1c0,0.3,0,0.8,0,1.4
	c0,0.6,0,1.1-0.3,1.7c0,0.5-0.3,1.4-0.3,1.9c0,0.6-0.3,1.4-0.3,1.9c0,0.6-0.3,1.1-0.3,1.7c0,0.5-0.3,0.8-0.3,1.4
	c0,0.8-0.3,1.4-0.3,1.9c0,0.6,0,0.8,0,1.1c0.3-0.3,0.3-0.6,0.6-0.8c0.3-0.3,0.6-0.8,0.8-1.4c0.3-0.6,0.6-1.1,0.8-1.7
	c0.3-0.5,0.5-1.4,1.1-1.9c0.3-0.6,0.6-1.1,0.8-1.7c0.3-0.6,0.6-1.1,0.8-1.7c0.3-0.6,0.5-1.1,0.8-1.7c0.3-0.5,0.6-0.8,0.8-1.4
	c0.5-0.8,1.1-1.4,1.7-1.7c0.6-0.3,1.1-0.6,1.7-0.6c0.6,0,1.1,0.3,1.7,0.8c0.6,0.6,0.8,1.4,0.8,2.2c0,0.3,0,0.8,0.3,1.4
	c0,0.5,0,1.1,0,1.7s0,1.1,0,1.7c0,0.6,0,1.1,0,1.7c0,0.6,0,0.8,0.3,1.4c0,0.3,0.3,0.6,0.3,0.8s0.3,0.3,0.3,0.6c0,0,0,0,0.3,0
	c0.3,0,0.6-0.6,1.1-1.7c0.3-0.5,0.5-1.4,0.8-1.9c0.3-0.8,0.8-1.7,1.1-2.5c0.6-0.8,0.8-1.7,1.4-2.5c0.6-0.8,1.1-1.4,1.4-2.2
	c0.6-0.6,0.8-1.1,1.4-1.4c0.6-0.3,0.8-0.6,1.1-0.6c0.3,0,0.3,0,0.6,0c0.3,0,0.3,0,0.6,0.3c0.3,0,0.3,0.3,0.5,0.3s0.3,0.3,0.3,0.6
	c0.3,0.3,0.3,0.8,0.3,1.1c0,0.5,0.3,0.8,0.3,1.7c0,0.6,0,1.1,0,1.9s0,1.4,0.3,2.5c0.3,1.9,0.6,3.3,0.8,4.1c0.3,0.8,0.8,1.4,1.7,1.4
	c0.3,0,0.5,0,1.1-0.3c0.3-0.3,0.8-0.6,1.4-0.8c0.5-0.3,0.8-0.8,1.4-1.1c0.5-0.3,0.8-0.8,1.4-1.4c0.3-0.3,0.8-0.8,1.1-1.4
	c0.3-0.6,0.8-0.8,1.1-1.4s0.8-0.8,1.1-1.4c0.3-0.6,0.8-1.1,1.4-1.4c0.3-0.3,0.3-0.3,0.6-0.3C-12.1,42.6-11.8,42.6-11.8,43.1
	 M-6.3,26.1c0,0.8-0.3,1.7-0.5,2.5c-0.3,0.6-1.1,1.1-1.9,1.1c-0.5,0-1.1,0-1.7-0.3c-0.5-0.3-0.8-0.6-0.8-0.8c0-0.8,0.3-1.4,0.6-1.9
	c0.3-0.6,0.8-1.1,1.4-1.7c0.5-0.3,0.8-0.6,0.8-0.6c0.8,0,1.4,0,1.7,0.3C-6.6,25-6.3,25.5-6.3,26.1z M6.1,44c0,0.3,0,0.8-0.3,1.4
	c-0.3,0.6-0.6,1.1-1.1,1.7c-0.5,0.5-0.8,1.4-1.4,2.2c-0.5,0.8-1.1,1.7-1.7,2.2c-0.8,0.8-1.4,1.7-2.2,2.5c-0.8,0.8-1.7,1.7-2.5,2.5
	c-1.7,1.7-3.3,2.2-4.7,2.2c-1.7,0-2.8-0.5-3.6-1.7c-0.8-1.1-1.4-2.8-1.7-4.4c-0.3-1.7-0.5-3.3-0.5-5.2c0-0.8,0-1.9,0.3-3.6
	c0-0.8,0.3-1.4,0.3-1.9s0.3-1.1,0.3-1.4c0.3-0.8,0.6-1.4,1.1-1.9c0.6-0.6,1.1-0.8,1.9-0.8c0.3,0,0.5,0.3,0.5,1.1c0,0.5,0,1.1,0,1.7
	c0,0.6-0.3,1.4-0.3,1.9c-0.3,1.1-0.3,2.2-0.3,3s0,1.7,0,2.5c0,1.4,0.3,3,0.5,4.4c0.3,1.7,1.1,2.2,1.9,2.2c0.8,0,1.9-0.3,3.3-1.1
	c0.5-0.3,1.1-0.8,1.9-1.4c0.6-0.6,1.4-1.1,1.9-1.7c0.5-0.5,1.4-1.4,1.9-1.9C2.5,47.8,3,47,3.6,46.4c0.6-0.6,1.1-1.4,1.4-1.9
	c0.6-0.6,0.8-1.1,1.1-1.7c0,0,0,0,0-0.3c0,0,0,0,0-0.3c0,0,0,0,0-0.3c0-0.3,0,0,0,0c0.3,0,0.3,0.3,0.3,0.6C6.1,43.7,6.1,44,6.1,44z
	 M23.1,42.6c0,0.3,0,0.6-0.3,0.8c0,0.3-0.3,0.6-0.5,0.8c-0.3,0.3-0.3,0.5-0.6,0.8c-0.3,0.3-0.6,0.6-0.8,0.8
	c-0.3,0.3-0.3,0.6-0.6,0.8c-0.3,0.3-0.6,0.6-0.8,0.8c-0.3,0.3-0.6,0.6-0.8,1.1c-0.3,0.6-0.8,0.8-1.4,1.4c-0.5,0.6-0.8,1.1-1.4,1.7
	c-0.5,0.6-1.1,1.1-1.7,1.7c-0.5,0.6-1.1,1.1-1.7,1.7c-0.6,0.6-0.8,0.8-1.4,1.4c-0.8,0.8-1.7,1.7-2.5,2.5C8,59.7,7.2,60.2,6.3,61
	C4.7,62.1,3.6,63,2.5,63c-0.3,0-0.6,0-1.1-0.3c-0.3-0.5-0.3-0.8-0.3-1.1c0-0.8,0.3-1.7,0.8-2.2c0.6-0.6,1.7-1.1,2.8-1.7
	c1.4-0.6,2.2-1.1,2.8-1.7c0.6-0.6,0.8-1.4,0.8-2.2c0-0.6-0.6-1.4-1.4-3c-0.6-0.8-0.8-1.4-1.1-1.9c-0.3-0.5-0.6-1.1-0.8-1.7
	c-0.5-1.1-0.8-2.2-0.8-3.3c0-1.1,0.3-1.9,0.5-3C5,40.4,5,39.6,5.5,39c0.3-0.6,0.8-1.1,1.1-1.7c0.3-0.6,0.8-0.8,1.1-1.1
	s0.8-0.6,1.1-0.6c1.1,0,1.7,0.8,1.7,2.2c0,0.6-0.3,1.1-0.5,1.7c-0.3,0.3-0.3,0.6-0.6,0.8c-0.3,0.3-0.6,0.6-0.8,0.8
	C8.3,41.5,8,41.8,7.7,42c-0.3,0.3-0.3,0.6-0.5,0.6c0,0.8,0.3,1.7,0.5,2.8C8,45.9,8.3,46.4,8.6,47c0.3,0.5,0.5,1.1,0.8,1.9
	c0.3,0.6,0.6,1.4,0.8,1.9c0.3,0.6,0.6,0.8,0.6,1.1c0,0,0,0,0.3,0c0.3,0,0.5-0.3,0.8-0.6c0.6-0.3,0.8-0.8,1.7-1.1
	c0.6-0.5,1.4-1.1,1.9-1.7c0.8-0.6,1.4-1.4,2.2-2.2c0.8-0.8,1.4-1.4,1.9-1.9c0.5-0.6,0.8-1.1,1.4-1.7c0.5-0.6,0.8-0.8,0.8-1.1
	c0.3-0.3,0.3-0.3,0.3-0.3h0.3l0.3,0.3c0,0.3,0,0.3,0.3,0.6C23.1,42,23.1,42.3,23.1,42.6z M46.3,39.8c0,0.3,0,0.6-0.3,0.8
	c0,0.3-0.3,0.6-0.3,0.8c-0.3,0.3-0.3,0.3-0.6,0.5c-0.3,0.3-0.3,0.3-0.6,0.6c-0.5,0.3-1.1,0.6-1.9,0.8c-0.8,0.3-1.9,0.3-3,0.3
	c-0.8,0-1.9-0.3-3-0.6c-1.1-0.3-1.9-0.8-2.8-1.4c0.3,0.6,0.6,1.1,0.6,1.4c0,0.6,0,1.1,0,1.7c0,1.1-0.3,2.5-0.8,3.6
	c-0.5,1.4-1.1,2.5-1.9,3.6c-0.8,1.1-1.7,2.2-2.5,2.8c-0.6,0.6-1.1,0.8-1.7,1.1c-0.6,0.3-1.1,0.6-1.9,0.8c-0.5,0.3-1.4,0.3-1.9,0.5
	c-0.8,0-1.4,0.3-2.2,0.3c-0.5,0-1.1-0.3-1.4-0.6c-0.5-0.3-0.8-0.8-1.4-1.4c-0.3-0.6-0.5-1.1-0.8-1.7c-0.3-0.6-0.3-1.1-0.3-1.7
	c0-1.1,0-2.2,0.3-3.3c0.3-1.1,0.5-2.2,1.1-3.3c0.6-1.1,1.1-1.9,1.7-3c0.5-1.1,1.4-1.9,1.9-3c0.3-0.6,0.8-1.1,1.4-1.7
	c0.6-0.5,1.1-1.1,1.7-1.4c0.6-0.5,1.1-0.8,1.7-1.1c0.6-0.3,1.1-0.3,1.7-0.3c0.3,0,0.8,0,1.1,0.3c0.3,0,0.6,0.3,0.8,0.6
	c0.3,0.3,0.6,0.5,0.8,0.8c0.3,0.3,0.5,0.8,0.8,1.1c0,0,0.6,0.3,0.8,0.6c0.5,0.3,1.1,0.6,1.9,0.8c0.8,0.3,1.4,0.6,2.2,0.6
	c0.8,0.3,1.4,0.3,2.2,0.3c0.6,0,1.1,0,1.7,0c0.5,0,1.1-0.3,1.7-0.3c0.5,0,1.1-0.3,1.4-0.6c0.5-0.3,1.1-0.5,1.7-0.8
	C46.3,39.6,46.3,39.8,46.3,39.8z M32,45.1c0-0.3,0-0.8,0-1.4c0-0.6-0.3-1.1-0.3-1.4c-0.3-0.6-0.3-0.8-0.6-1.1
	c-0.3-0.3-0.5-0.6-0.8-0.3c-0.6-0.3-1.1-0.6-1.4-0.8c-0.3-0.3-0.6-0.6-0.8-0.6c-0.3,0-0.3,0-0.5,0.3c-0.3,0-0.3,0.3-0.6,0.6
	c-0.3,0.3-0.3,0.3-0.5,0.6c-0.3,0.3-0.3,0.6-0.6,0.8c-0.3,0.6-0.8,1.1-1.1,1.7c-0.3,0.6-0.6,0.8-0.8,1.4c-0.3,0.6-0.5,0.8-0.8,1.4
	c-0.3,0.6-0.6,1.1-0.8,1.7c0,0.3-0.3,0.6-0.3,0.8c0,0.3-0.3,0.8-0.3,1.1c0,0.3,0,0.8-0.3,1.1c0,0.3,0,0.8,0,1.1c0,0.3,0,0.6,0.3,0.8
	c0,0.3,0.3,0.6,0.6,0.8c0.3,0.3,0.3,0.6,0.5,0.6c0.3,0.3,0.6,0.3,0.8,0.3c0.5,0,1.1,0,1.7,0c0.6,0,0.8-0.3,1.4-0.3
	c0.3-0.3,0.8-0.3,1.1-0.8c0.3-0.3,0.8-0.6,1.4-1.1c0.3-0.3,0.5-0.6,0.8-0.8c0.3-0.3,0.6-0.6,0.8-0.8c0.3-0.3,0.6-0.6,0.6-1.1
	c0.3-0.3,0.6-0.6,0.6-1.1c0-0.3,0.3-0.6,0.3-0.8c0-0.3,0.3-0.5,0.3-1.1c0-0.3,0-0.6,0-0.8C32,45.6,32,45.3,32,45.1z M50.4,56.4
	c0,0.3-0.3,1.1-0.5,2.2c-0.6,1.1-0.8,1.9-1.1,2.2c-0.5,0.8-1.4,1.4-2.5,2.2H46c0,0-0.3,0-0.5,0.3c-0.3,0-0.3,0-0.6,0h-0.3
	c-1.1,0.6-1.9,0.8-2.5,0.8c-0.3,0-0.5-0.3-0.5-1.1c0-0.3,0-0.6,0-0.6c1.9-0.6,3.3-1.4,4.4-2.5c0.3-0.3,0.6-0.8,0.8-1.4
	c0.3-0.8,0.5-1.1,0.5-1.7c0-0.6,0-1.4-0.3-2.5c0-0.3,0-0.5-0.3-0.8c-0.3-0.3-0.3-0.6-0.3-0.8s0-0.6,0.3-1.1c0.3-0.3,0.3-0.5,0.5-0.5
	c0.3,0,0.8,0,1.4,0.3c0.6,0.3,0.8,0.6,1.1,0.8C50.1,54.1,50.4,55.5,50.4,56.4z M102.2,57.5c0,0.6-0.3,1.1-0.8,1.4
	c-0.5,0.3-1.1,0.6-1.7,0.6c-0.8,0-1.4-0.3-2.2-0.6c-0.8-0.3-1.4-0.8-2.2-1.4c-0.6-0.3-1.1-0.8-1.7-1.4c-0.6-0.6-1.4-1.1-2.2-1.9
	c-0.3-0.3-0.5-0.6-1.4-1.1c-0.5-0.5-1.4-1.4-2.5-2.2c-1.9-1.9-3.3-2.8-3.6-3c-0.6-0.3-1.1-0.3-1.9-0.3c-0.3,0-0.5,0-0.8,0
	c-0.6,0-1.1,0-1.7,0c-0.6-0.3-0.8-1.1-0.8-1.9c0-0.8,0.3-1.4,0.8-1.4h0.3c0.3,0,0.3,0,0.5,0c0.3,0,0.3,0,0.6,0s0.6,0,0.6,0
	c1.7-0.3,3.3-0.8,4.4-1.7c0.6-0.3,0.8-0.6,1.4-0.8c0.6-0.3,0.8-0.6,1.4-1.1c0.8-0.8,1.7-1.7,2.5-2.5c0.8-0.8,1.1-1.7,1.1-2.5
	c0-0.6-0.3-1.1-0.6-1.7c-0.3-0.6-0.8-1.1-1.1-1.7c-0.6-0.5-1.1-0.8-1.7-1.1c-0.5-0.3-1.1-0.6-1.7-0.8c-0.8-0.3-1.9-0.6-2.8-0.6
	c-0.3,0-0.5,0-1.1,0c-0.3,0-0.8,0-1.4,0c-0.5,0-0.8,0-1.4,0.3c-0.5,0-0.8,0-1.1,0.3c-0.3,0-0.8,0.3-1.1,0.3c-0.6,0-0.8,0.3-1.4,0.3
	c0.3,0.6,0.5,1.4,0.8,2.5c0.3,1.1,0.3,2.2,0.3,2.8s0,0.8,0,1.4c0,0.3,0,0.8,0,1.1c0,0.3,0,0.8,0,1.1c0,0.3,0,0.8-0.3,1.1
	c0,0.8-0.3,1.9-0.5,3c-0.3,2.2-0.6,3.9-0.8,5.2c0,0.6,0,1.4-0.3,1.9c0,0.5,0,1.1,0,1.7c0,1.1,0,1.9,0.3,2.8c0.3,0.8,0.6,1.7,0.8,2.5
	c-0.3,0.3-0.6,0.5-0.8,0.8c-0.3,0.3-0.5,0.3-0.8,0.3c-0.8,0-1.4-0.3-1.9-0.6c-0.3-0.5-0.5-0.8-0.8-1.7c0-0.6,0-1.4,0-2.8
	c0-0.8,0-1.7,0-2.5c0-0.8,0.3-1.7,0.3-2.2c0-0.6,0.3-1.4,0.3-2.2c0-0.3,0-0.8,0.3-1.4c0-0.6,0.3-1.1,0.3-1.7
	c0.3-1.4,0.3-2.5,0.6-3.9c0-1.1,0.3-2.2,0.3-3.3c0-0.8,0-1.9,0-2.8s0-1.9-0.3-3c-1.4,0.6-2.2,0.8-2.2,0.8c-0.3,0-0.5-0.3-0.8-0.6
	c0-0.3-0.3-0.6-0.3-1.1c0-0.6,0.6-1.1,1.4-1.7c0.6-0.3,0.8-0.6,1.4-0.8s0.8-0.3,1.4-0.6c1.1-0.3,2.5-0.8,4.1-1.1
	c1.7-0.3,3-0.6,4.1-0.6c1.9,0,3.9,0.3,5.5,0.8c1.7,0.6,3.3,1.4,4.7,2.8c1.4,1.4,1.9,3,1.9,5.2c0,1.4-0.5,2.8-1.4,4.1
	c-0.8,1.4-1.9,2.5-3.3,3.3C90,43.1,88.7,44,87,44.8c0.8,0.6,1.9,1.7,3.3,2.8c0.8,0.6,1.4,1.1,1.9,1.7c0.5,0.6,1.1,1.1,1.7,1.4
	c0.5,0.6,1.1,0.8,1.9,1.4c0.8,0.6,1.4,1.1,2.2,1.7c0.8,0.6,1.7,1.1,2.2,1.7C101.3,56.9,101.9,57.2,102.2,57.5z M133,43.4
	c0,0.3,0,0.3,0,0.6c0,0.3,0,0.6-0.3,0.8c0,0.3-0.3,0.6-0.3,0.8c0,0.3-0.3,0.3-0.3,0.5c0,0-0.3,0.3-0.3,0.6c-0.3,0.3-0.3,0.6-0.6,0.6
	c-0.3,0.3-0.3,0.6-0.6,0.8c-0.3,0.3-0.5,0.6-0.5,0.8c-0.8,0.8-1.7,1.7-2.2,2.5c-0.8,0.8-1.7,1.4-2.2,2.2c-0.8,0.6-1.7,1.1-2.5,1.4
	c-0.8,0.3-1.9,0.6-2.8,0.6c-0.5,0-0.8,0-1.4-0.3c-0.5-0.3-0.8-0.6-1.4-0.8c-0.5-0.3-0.8-0.8-1.1-1.4c-0.3-0.5-0.6-1.1-0.6-1.7
	c-0.3,0.6-0.8,0.8-1.1,1.4c-0.3,0.6-0.8,0.8-1.4,1.4c-0.5,0.6-0.8,0.8-1.4,1.4c-0.5,0.6-0.8,0.8-1.4,1.4c-0.3,0.3-0.5,0.6-1.1,0.6
	c-0.3,0.3-0.8,0.6-1.1,0.6c-0.6,0.3-0.8,0.3-1.4,0.5c-0.6,0-0.8,0.3-1.1,0.3c-0.6,0-1.1-0.3-1.4-0.6c-0.3-0.3-0.6-0.8-0.8-1.4
	c-0.3-0.6-0.5-1.1-0.5-1.7c0-0.6-0.3-1.1-0.3-1.7c0-1.1,0-1.9,0.3-3c0.3-1.1,0.5-1.9,0.8-3c0.3-0.8,0.8-1.9,1.4-2.8
	c0.6-0.8,0.8-1.7,1.4-2.2c0.6-0.8,1.1-1.4,1.7-2.2c0.5-0.8,1.4-1.4,1.9-1.9c0.8-0.6,1.4-1.1,2.2-1.4c0.5-0.3,1.4-0.6,1.9-0.6
	c0.3,0,0.6,0,0.8,0c0.3,0,0.5,0,0.8,0c0.3,0,0.6,0,0.8,0.3c0.3,0,0.5,0.3,0.8,0.3c0,0,0.3,0.3,0.3,0.6c0.3,0.3,0.3,0.6,0.5,0.8
	c0,0.3,0.3,0.6,0.3,0.8c0,0.3,0,0.6,0,0.8c0,0.5,0,1.1-0.3,1.9c-0.3,1.1-0.3,1.9-0.5,2.8c-0.3,0.8-0.3,1.7-0.3,2.5
	c0,0.6,0,1.1,0.3,1.7c0.3,0.6,0.3,1.1,0.5,1.4c0.3,0.6,0.6,0.8,0.8,1.1c0.3,0.3,0.8,0.3,1.4,0.3c0.8,0,1.7-0.3,2.5-0.5
	c0.8-0.3,1.7-0.8,2.5-1.7c0.8-0.6,1.7-1.4,2.5-2.2s1.7-1.7,2.5-2.8c0,0,0.3-0.3,0.3-0.6c0.3-0.3,0.3-0.6,0.6-0.6
	c0.3-0.3,0.3-0.3,0.6-0.5c0.3-0.3,0.3-0.3,0.3-0.3S133,42.9,133,43.4z M116.2,41.5c0-0.3,0-0.6,0-0.8c0-0.3,0-0.5-0.3-0.8
	c-0.3-0.3-0.3-0.3-0.6-0.3s-0.3,0-0.6,0c-0.5,0-0.8,0-1.4,0.3c-0.3,0.3-0.8,0.3-1.1,0.6c-0.3,0.3-0.8,0.6-1.1,1.1
	c-0.3,0.3-0.8,0.8-1.1,1.1c-0.3,0.3-0.6,0.8-0.8,1.4c-0.3,0.6-0.5,1.1-0.8,1.7c-0.3,0.5-0.6,1.1-0.8,1.9c-0.3,0.6-0.6,1.4-0.8,1.9
	c-0.3,0.6-0.3,1.4-0.5,1.9c0,0.6-0.3,1.1-0.3,1.7c0,0.3,0,0.3,0,0.6c0,0.3,0,0.6,0.3,0.8c0,0.3,0.3,0.6,0.3,0.6
	c0,0.3,0.3,0.3,0.6,0.3c0.6,0,1.4-0.3,2.2-0.6c1.1-0.6,2.2-1.4,3.3-2.5c1.1-1.1,1.9-2.2,2.5-3.6C115.6,46.2,116.2,44,116.2,41.5z"/>
<path d="M160,41.5c0,0.5,0,1.1-0.3,1.7c0,0.3-0.3,0.3-0.3,0.6c-0.3,0.3-0.3,0.3-0.6,0.6c-0.3,0.3-0.3,0.3-0.6,0.5
	c-0.3,0.3-0.3,0.3-0.3,0.3c-0.6,0.3-0.8,0.8-1.7,1.4c-0.6,0.6-1.4,1.1-2.2,1.7c-0.8,0.6-1.7,1.1-2.5,1.7c-0.8,0.5-1.9,1.1-2.8,1.7
	c-0.8,0.6-1.7,1.1-2.5,1.7c-0.8,0.6-1.7,0.8-2.2,1.4c-0.6,0.3-1.1,0.6-1.4,0.8c-0.6,0.3-0.8,0.5-1.4,0.8c-0.6,0.3-0.8,0.6-1.4,0.8
	c-0.6,0.3-0.8,0.3-1.4,0.3c-0.3,0-0.6,0-0.8,0c-0.3,0-0.6-0.3-0.8-0.3c-0.3-0.3-0.3-0.3-0.6-0.6c0-0.3-0.3-0.6-0.3-1.1
	c0-0.3,0-0.3,0.3-0.6c0-0.3,0.3-0.3,0.6-0.6c0.3-0.3,0.3-0.3,0.5-0.3c0.3,0,0.6-0.3,0.6-0.3c0.3,0,0.6-0.3,0.8-0.3
	c0.3,0,0.6-0.3,0.8-0.3c0.3,0,0.5-0.3,0.8-0.3c0.3,0,0.6-0.3,0.8-0.3c0.3-0.3,0.8-0.6,1.1-0.8c0.3-0.3,0.8-0.8,1.1-1.4
	c0.3-0.5,0.6-0.8,0.8-1.4c0.3-0.5,0.6-1.1,0.8-1.4c0.3-0.3,0.3-0.5,0.5-1.1c0.3-0.3,0.3-0.8,0.3-1.1c0-0.3,0.3-0.8,0.3-1.1
	c0-0.3,0-0.6,0-0.8c0-1.1-0.3-1.9-0.6-2.5c-0.3-0.6-0.8-0.8-1.4-0.8c-0.3,0-0.8,0-1.1,0.3c-0.6,0.3-0.8,0.6-1.4,1.1
	c-0.6,0.3-0.8,0.8-1.4,1.1c-0.6,0.3-0.8,0.8-0.8,1.1c-0.6,0.8-1.1,1.4-1.7,2.5c-0.6,0.8-1.1,1.7-1.4,2.5c-0.6,0.8-0.8,1.7-1.4,2.8
	c-0.3,0.8-0.8,1.7-1.1,2.5c-0.3,0.8-0.3,1.4-0.6,2.2c-0.3,0.8-0.3,1.7-0.3,2.8c0,1.9-0.3,3.9-0.3,5.2c0,1.7-0.3,3-0.6,4.1
	c0,0.6-0.3,0.8-0.6,1.4c-0.3,0.3-0.5,0.6-1.1,0.6c0,0-0.3,0-0.6,0s-0.3-0.3-0.6-0.3c-0.3-0.3-0.3-0.3-0.6-0.6c0-0.3-0.3-0.3-0.3-0.6
	c0-0.6,0-1.1,0-1.9c0-0.8,0-1.4,0.3-2.2c0-0.8,0.3-1.4,0.3-1.9c0-0.5,0-1.1,0.3-1.1c0.3-1.4,0.3-3,0.6-5c0.3-1.7,0.3-3.6,0.3-5.8
	c0-0.6,0-1.1,0-1.7c0-0.8,0-1.4,0-2.2c0-0.8,0-1.4,0-2.2c0-0.5,0-1.1,0-1.4c0.3-2.8,0.8-4.1,1.9-4.1c0.3,0,0.6,0,0.6,0.3
	c0.3,0,0.3,0.3,0.6,0.6c0.3,0.3,0.3,0.5,0.3,0.5c0,0.3,0,0.6,0,0.8c0,0.5,0,1.1-0.3,1.7c0,0.6-0.3,1.1-0.3,1.9
	c0,0.6-0.3,1.1-0.3,1.9c0,0.5-0.3,1.1-0.3,1.7c0,0.6,0,0.6,0,0.6c0.8-1.9,1.7-3.6,2.5-5c0.8-1.4,1.7-2.5,2.5-3.6
	c0.6-0.5,1.1-1.1,1.7-1.7s1.1-0.8,1.7-1.4c0.5-0.3,1.1-0.6,1.7-0.8c0.6-0.3,1.1-0.3,1.9-0.3c0.6,0,0.8,0,1.4,0.3
	c0.6,0.3,0.8,0.6,1.4,1.1c0.3,0.6,0.8,1.1,0.8,1.9c0.3,0.8,0.3,1.7,0.3,2.5s0,1.4-0.3,2.2c-0.3,0.8-0.6,1.4-0.8,2.2
	c-0.3,0.8-0.8,1.4-1.1,1.9c-0.6,0.6-0.8,1.4-1.4,1.9c1.1-0.6,2.2-1.1,3.3-1.7c1.1-0.5,2.2-1.4,3.3-2.2c1.1-0.8,2.2-1.7,3.3-2.5
	c1.1-0.8,1.9-1.7,3-2.5c0.3-0.3,0.6-0.6,0.8-0.6c0.3-0.3,0.3-0.3,0.6-0.3c0.3,0,0.3,0,0.3,0.3C160,40.9,160,41.2,160,41.5
	 M164.6,26.1c0,0.8-0.3,1.7-0.6,2.5c-0.6,0.6-1.1,1.1-1.9,1.1c-0.6,0-1.1,0-1.7-0.3c-0.6-0.3-0.8-0.6-0.8-0.8c0-0.8,0.3-1.4,0.6-1.9
	c0.3-0.6,0.8-1.1,1.4-1.7c0.6-0.3,0.8-0.6,0.8-0.6c0.8,0,1.4,0,1.7,0.3C164.4,25,164.6,25.5,164.6,26.1z M177,44
	c0,0.3,0,0.8-0.3,1.4c-0.3,0.6-0.6,1.1-1.1,1.7c-0.6,0.5-0.8,1.4-1.4,2.2c-0.6,0.8-1.1,1.7-1.7,2.2c-0.8,0.8-1.4,1.7-2.2,2.5
	c-0.8,0.8-1.7,1.7-2.5,2.5c-1.7,1.7-3.3,2.2-4.7,2.2c-1.7,0-2.8-0.5-3.6-1.7c-0.8-1.1-1.4-2.8-1.7-4.4c-0.3-1.7-0.6-3.3-0.6-5.2
	c0-0.8,0-1.9,0.3-3.6c0-0.8,0.3-1.4,0.3-1.9s0.3-1.1,0.3-1.4c0.3-0.8,0.6-1.4,1.1-1.9c0.6-0.6,1.1-0.8,1.9-0.8
	c0.3,0,0.6,0.3,0.6,1.1c0,0.5,0,1.1,0,1.7c0,0.6-0.3,1.4-0.3,1.9c-0.3,1.1-0.3,2.2-0.3,3s0,1.7,0,2.5c0,1.4,0.3,3,0.6,4.4
	c0.3,1.7,1.1,2.2,1.9,2.2c0.8,0,1.9-0.3,3.3-1.1c0.6-0.3,1.1-0.8,1.9-1.4c0.6-0.6,1.4-1.1,1.9-1.7c0.6-0.5,1.4-1.4,1.9-1.9
	c0.5-0.6,1.1-1.4,1.7-1.9c0.6-0.6,1.1-1.4,1.4-1.9c0.6-0.6,0.8-1.1,1.1-1.7c0,0,0,0,0-0.3c0,0,0,0,0-0.3c0,0,0,0,0-0.3l0,0
	c0.3,0,0.3,0.3,0.3,0.6C177,43.7,177,44,177,44z M204.3,43.1c0,0.3,0,0.8-0.3,1.1c-0.3,0.5-0.8,1.7-1.9,3c-0.6,0.6-1.1,1.4-1.7,1.9
	c-0.6,0.6-1.1,1.4-1.7,1.9c-0.6,0.5-1.1,1.4-1.7,1.7c-0.6,0.6-1.1,1.1-1.7,1.4c-1.1,0.8-1.9,1.4-2.5,1.4c-0.3,0-0.6,0-1.1-0.3
	c-0.8-0.6-1.4-1.1-1.9-2.2c-0.5-1.1-0.8-2.2-0.8-3.6c-0.3-1.1-0.3-2.5-0.6-4.1c-1.7,3.3-3.6,6.3-6.1,9.1c-2.5,2.8-5.2,4.1-7.7,4.1
	c-0.8,0-1.4-0.5-1.7-1.4c-0.3-0.8-0.6-1.9-0.6-2.8c0-1.4,0-2.2,0.3-3c0.5-1.9,1.1-3.6,1.9-5.2c0.8-1.7,1.7-3.3,2.5-5
	c0.6-1.1,1.4-1.9,2.2-3c0.8-1.1,1.7-1.7,2.5-2.2c0.8-0.6,2.2-0.8,3.9-0.8c0.6,0,1.1,0.3,1.7,1.1c0.6,0.8,0.8,1.7,0.8,2.8
	c0.3,1.1,0.3,1.9,0.3,2.5c0.3-0.8,0.3-1.4,0.6-2.2c0.3-0.8,0.3-1.4,0.3-2.2s0.3-1.7,0.3-2.5c0-0.8,0.3-1.9,0.3-2.8
	c0-0.3,0-0.6,0-1.1s0-0.8,0-1.4c0-1.1,0.3-2.2,0.3-3c0-0.8,0.3-1.4,0.3-1.7c0.3-0.6,0.8-0.8,1.7-0.8c0.3,0,0.8,0,1.1,0.3
	c0.3,0.3,0.6,0.6,0.6,0.8c0,0.3,0,0.5,0,0.8c0,0.3,0,0.8-0.3,1.7c0,0.6-0.3,1.4-0.3,2.5c-0.3,0.8-0.3,1.9-0.6,3.3c0,0.3,0,0.5,0,0.8
	c0,0.6-0.3,0.8-0.3,1.4c0,0.6-0.3,0.8-0.3,1.4c0,0.6,0,0.6,0,0.8c-0.3,1.1-0.3,2.2-0.3,3.3c0,1.1-0.3,2.2-0.3,3.3c0,0.8,0,1.9,0,3
	s0,2.2,0.3,3.3c0.3,1.1,0.3,1.7,0.6,1.7c1.1,0,2.2-0.6,3.9-1.7c1.4-1.1,2.8-2.5,4.1-3.9c1.4-1.4,2.5-2.8,3.6-4.1h0.3
	c0.3,0,0.3,0,0.3,0.3C204.3,42.6,204.3,42.9,204.3,43.1z M186.7,44.5c-0.3,0-0.6-0.3-0.8-0.6c-0.3-0.3-0.3-0.6-0.3-1.1
	c0-0.3,0-0.8,0-1.4c0-0.6,0-1.1,0-1.4c0-0.3,0-0.6-0.3-0.8c0-0.3-0.3-0.5-0.6-0.8c-0.3-0.3-0.3-0.6-0.6-0.8
	c-0.3-0.3-0.6-0.3-0.8-0.3c-0.6,0-1.7,0.8-2.8,2.5c-0.6,0.8-1.1,1.7-1.7,2.5c-0.5,0.8-0.8,1.7-1.4,2.2c-0.5,0.8-0.8,1.7-1.1,2.2
	c-0.3,0.6-0.6,1.4-0.8,1.9c-0.8,1.9-1.1,3.3-1.1,4.4c0,1.4,0.3,1.9,1.1,1.9c0.8,0,1.7-0.6,3-1.4c1.4-1.1,2.2-1.9,3-2.8
	c0.8-0.8,1.4-1.7,1.9-2.2c0.6-0.6,0.8-1.1,1.1-1.4c0.3-0.3,0.6-0.8,0.8-1.4C186.4,45.6,186.7,45.1,186.7,44.5z M225.2,43.1
	c0,0.3-0.3,0.6-0.6,1.1c-0.6,1.1-1.4,2.2-2.2,3.3c-0.8,1.1-1.7,2.2-2.5,3c-0.8,1.1-1.9,1.9-2.8,2.8c-1.1,0.8-1.9,1.7-3,2.2
	c-1.1,0.6-1.9,1.1-3,1.4c-1.1,0.3-1.9,0.6-3,0.6c-1.9,0-3.6-0.6-4.7-1.9c-1.1-1.4-1.7-3.3-1.7-6.1c0-2.2,0.3-4.4,0.8-6.6
	c0.6-2.2,1.7-4.1,3-6.3c0.3-0.3,0.6-0.8,0.8-1.1c0.3-0.3,0.8-0.6,1.1-0.8c0.3-0.3,0.8-0.6,1.1-0.6c0.5-0.3,0.8-0.3,1.4-0.3
	c0,0,0.3,0,0.5,0c0.3,0,0.3,0,0.6,0.3c0.3,0,0.3,0.3,0.6,0.3c0.3,0,0.3,0.3,0.6,0.3c0.3,0.5,0.6,0.8,0.8,1.4
	c0.3,0.5,0.3,1.1,0.3,1.7c0,0.6,0,1.4-0.3,1.9c-0.3,0.6-0.6,1.4-0.8,1.9c-0.3,0.5-0.8,1.4-1.4,2.2c-0.6,0.8-1.4,1.4-2.2,2.5
	c-0.6,0.6-1.1,1.1-1.9,1.7c-0.6,0.6-1.4,1.4-2.5,1.9c0,1.4,0.3,2.5,1.1,3.3c0.8,0.8,1.7,1.1,3,1.1c0.8,0,1.4,0,2.2-0.3
	c0.8-0.3,1.4-0.6,2.2-0.8c0.8-0.3,1.4-0.8,1.9-1.1c0.6-0.6,1.4-0.8,1.9-1.4c1.1-0.8,1.9-1.9,3-2.8c0.8-0.8,1.7-1.9,2.5-2.8l1.1-1.1
	c0.6-0.6,1.1-0.8,1.4-0.8C224.9,42.9,225.2,42.9,225.2,43.1z M210.6,38.7c0-0.3,0-0.6,0-0.6s0-0.3-0.3-0.6c0-0.3-0.3-0.3-0.3-0.3
	l-0.3-0.3c-0.6,0-1.4,0.6-1.9,1.4c-0.5,0.8-1.4,2.2-1.9,3.6c-0.3,0.3-0.3,0.6-0.3,1.1c0,0.3-0.3,0.8-0.3,1.1c0,0.5-0.3,0.8-0.3,1.4
	c0,0.3,0,0.8-0.3,1.1c0.6-0.6,1.4-1.1,1.9-1.7c0.6-0.6,1.1-1.1,1.7-1.4c0.3-0.3,0.6-0.6,0.8-1.1c0.3-0.3,0.6-0.8,0.8-1.1
	c0.3-0.6,0.5-0.8,0.5-1.4C210.6,39.8,210.6,39.3,210.6,38.7z M241.7,53.9c0.3,0,0.5,0,0.5,0.3c0,0.3,0,0.6,0.3,0.8
	c0,0.3,0,0.8-0.6,1.4c-0.3,0.6-0.8,0.8-1.4,1.4c-0.6,0.6-1.1,0.8-1.9,1.1c-0.6,0.3-1.4,0.6-1.9,0.6c-0.3,0-0.5,0-0.8,0
	c-0.3,0-0.8-0.3-1.4-0.3c-0.6,0-1.1-0.3-1.7-0.3c-0.6-0.3-1.1-0.3-1.7-0.3c-0.5,0-1.1-0.3-1.4-0.3c-0.5,0-0.8,0-1.1,0
	c-0.6,0-1.1,0-1.7,0.3c-0.3,0-0.8,0.3-1.1,0.6c-0.3,0.3-0.6,0.3-0.8,0.6c-0.3,0.3-0.6,0.3-0.8,0.6c-0.3,0.3-0.5,0.3-0.8,0.6
	c-0.3,0-0.6,0.3-0.8,0.3c-0.3,0-0.3,0-0.6-0.3c0,0-0.3-0.3-0.3-0.6c0-0.3-0.3-0.3-0.3-0.6c0-0.3,0-0.6,0-0.6
	c0.8-1.1,1.4-1.9,2.2-2.8c0.8-0.8,1.4-1.7,2.2-2.5c0.8-0.8,1.4-1.7,2.2-2.5c0.8-0.8,1.4-1.7,2.2-2.8c0.8-1.1,1.7-2.2,2.2-3.3
	c0.6-1.1,1.1-1.9,1.7-3c-0.3-0.3-0.6-0.3-0.8-0.3c-0.3,0-0.6,0-1.1,0c-0.3,0-0.6,0-0.8,0c-0.3,0-0.6,0-0.8,0c-0.3,0-0.6,0-0.8,0
	c-0.3,0-0.5,0-1.1,0c-0.6,0-0.8,0-1.1,0.3c-0.3,0-0.6,0-0.8,0c-2.8,0-4.1-0.8-4.1-2.5c0-0.6,0.3-0.8,0.6-1.1
	c0.3-0.3,0.6-0.6,1.1-0.6h0.3c0,0,0.3,0,0.6,0c0.3,0,0.3,0,0.5,0.3c0.3,0,0.3,0,0.3,0c0.6,0.3,1.4,0.3,1.9,0.3c0.5,0,1.4,0,2.2-0.3
	c0.8,0,1.4-0.3,2.2-0.3s1.7-0.3,2.2-0.3c0.8,0,1.4,0,2.2,0c0.3,0,0.6,0,0.6,0c0.3,0,0.6,0,0.6,0.3c0.3,0,0.3,0.3,0.6,0.6
	c0,0.3,0.3,0.5,0.3,0.8l0,0c-0.3,0.8-0.8,1.7-1.1,2.2c-0.3,0.6-0.8,1.1-1.1,1.9c-0.3,0.6-0.8,1.1-1.1,1.7c-0.5,0.6-0.8,1.4-1.4,1.9
	c-0.5,0.6-0.8,1.4-1.4,1.9c-0.5,0.8-1.1,1.4-1.7,1.9c-0.6,0.8-1.1,1.4-1.4,1.9c-0.6,0.6-0.8,1.1-0.8,1.7c0,0,0,0,0.3,0
	c0.3,0,0.3,0,0.6,0s0.6,0,0.6,0c0.3,0,0.3,0,0.6,0c0.3,0,0.8,0,1.4,0c0.5,0,1.1,0.3,1.7,0.3c0.6,0,1.1,0.3,1.9,0.3s1.4,0,2.2,0
	c0.6,0,0.8,0,1.1-0.3c0.3-0.3,0.8-0.6,1.1-0.6c0.3-0.3,0.6-0.5,0.8-0.5C241.4,53.9,241.4,53.9,241.7,53.9z M254.1,56.4
	c0,0.3-0.3,1.1-0.6,2.2c-0.6,1.1-0.8,1.9-1.1,2.2c-0.6,0.8-1.4,1.4-2.5,2.2h-0.3c0,0-0.3,0-0.6,0.3c-0.3,0-0.3,0-0.5,0h-0.3
	c-1.1,0.6-1.9,0.8-2.5,0.8c-0.3,0-0.6-0.3-0.6-1.1c0-0.3,0-0.6,0-0.6c1.9-0.6,3.3-1.4,4.4-2.5c0.3-0.3,0.6-0.8,0.8-1.4
	c0.3-0.8,0.6-1.1,0.6-1.7c0-0.6,0-1.4-0.3-2.5c0-0.3,0-0.5-0.3-0.8c-0.3-0.3-0.3-0.6-0.3-0.8s0-0.6,0.3-1.1c0.3-0.3,0.3-0.5,0.6-0.5
	c0.3,0,0.8,0,1.4,0.3c0.6,0.3,0.8,0.6,1.1,0.8C253.8,54.1,254.1,55.5,254.1,56.4z M303.9,44.2c0,0.8-0.6,1.9-1.7,3.3
	c-0.3,0.3-0.6,0.8-1.1,1.1c-0.3,0.6-0.8,0.8-1.1,1.4c-0.5,0.3-0.8,0.8-1.4,1.4c-0.5,0.6-0.8,0.8-1.1,1.1c-1.1,1.1-2.5,2.2-3.9,3
	c-1.4,1.1-2.8,1.9-4.1,2.5c-1.4,0.8-2.8,1.4-4.1,1.7c-1.4,0.6-2.8,0.6-3.9,0.6c-1.4,0-2.5-0.3-3.6-0.6c-1.1-0.6-1.9-1.1-2.5-1.9
	c-0.6-0.8-1.1-1.9-1.4-3c-0.3-1.1-0.6-2.5-0.6-3.9c0-1.4,0-2.8,0.3-4.1c0.3-1.4,0.6-2.8,1.1-4.1c0.6-1.4,1.1-2.5,1.7-3.9
	c0.6-1.1,1.4-2.5,1.9-3.3c0.6-0.6,0.8-1.4,1.4-1.9s1.1-1.4,1.7-1.9c0.5-0.6,1.1-1.1,1.9-1.7c0.6-0.6,1.4-1.1,1.9-1.4
	c0.3-0.3,0.8-0.6,1.4-0.8c0.6-0.3,1.4-0.8,1.9-1.1c0.6-0.3,1.4-0.6,1.9-0.8c0.6-0.3,1.1-0.3,1.7-0.3c0.8,0,1.4,0,1.9,0.3
	c0.6,0,0.8,0.3,1.1,0.6c0.3,0.3,0.3,0.3,0.5,0.5c0.3,0.3,0.6,0.6,0.6,1.1c0.3,0.3,0.3,0.8,0.6,1.1c0,0.3,0.3,0.5,0.3,0.8
	c0,0.3,0,0.6-0.3,1.1c-0.3,0.6-0.6,1.1-0.8,1.7c-0.3,0.6-0.6,1.1-0.8,1.4c-0.3,0.6-0.6,0.8-0.6,0.8c-0.6,0.6-1.1,1.1-1.7,1.1
	c-0.5,0-0.8-0.3-1.1-0.6c-0.3-0.3-0.6-0.8-0.6-1.4c0-0.3,0-0.6,0.3-0.8c0.3-0.3,0.6-0.8,0.8-1.4c0.5-0.6,0.8-1.1,1.1-1.4
	c0.3-0.6,0.3-0.8,0.6-0.8c-0.3-0.3-0.6-0.3-0.8-0.5c-0.3,0-0.8-0.3-1.1-0.3c-0.6,0-1.1,0-1.7,0.3c-0.6,0.3-1.4,0.5-1.9,0.8
	c-0.6,0.3-1.4,0.8-1.9,1.4c-0.6,0.6-1.1,0.8-1.7,1.4c-1.4,1.4-2.5,2.5-3.6,4.1c-1.1,1.4-1.9,3-2.8,4.7c-0.3,0.8-0.6,1.4-0.8,2.2
	c-0.3,0.8-0.5,1.7-0.5,2.5c-0.3,0.8-0.3,1.7-0.6,2.5c0,0.8-0.3,1.7-0.3,2.2c0,0.8,0,1.7,0.3,2.5c0.3,0.8,0.6,1.4,0.8,1.9
	c0.3,0.5,0.8,0.8,1.7,1.4c0.6,0.3,1.4,0.5,2.5,0.5c1.1,0,1.9-0.3,3-0.5c1.1-0.3,2.2-0.8,3.3-1.4c1.1-0.6,2.2-1.1,3-1.9
	c1.1-0.8,1.9-1.4,3-2.2c0.8-0.8,1.9-1.7,2.8-2.2c0.8-0.8,1.7-1.4,2.5-2.2c0.3-0.3,0.5-0.6,0.8-0.8c0.3-0.3,0.6-0.6,0.8-1.1
	c0.3-0.3,0.6-0.5,0.8-1.1c0.3-0.3,0.6-0.6,0.8-0.8C303.7,43.1,303.9,43.4,303.9,44.2z"/>
<path d="M331.2,43.4c0,0.3,0,0.3,0,0.6c0,0.3,0,0.6-0.3,0.8c0,0.3-0.3,0.6-0.3,0.8c0,0.3-0.3,0.3-0.3,0.5c0,0-0.3,0.3-0.3,0.6
	c-0.3,0.3-0.3,0.6-0.6,0.6c-0.3,0.3-0.3,0.6-0.6,0.8c-0.3,0.3-0.5,0.6-0.5,0.8c-0.8,0.8-1.7,1.7-2.2,2.5c-0.8,0.8-1.7,1.4-2.2,2.2
	c-0.8,0.6-1.7,1.1-2.5,1.4c-0.8,0.3-1.9,0.6-2.8,0.6c-0.6,0-0.8,0-1.4-0.3c-0.6-0.3-0.8-0.6-1.4-0.8c-0.6-0.3-0.8-0.8-1.1-1.4
	c-0.3-0.5-0.6-1.1-0.6-1.7c-0.3,0.6-0.8,0.8-1.1,1.4c-0.3,0.6-0.8,0.8-1.4,1.4c-0.6,0.6-0.8,0.8-1.4,1.4c-0.6,0.6-0.8,0.8-1.4,1.4
	c-0.3,0.3-0.6,0.6-1.1,0.6c-0.3,0.3-0.8,0.6-1.1,0.6c-0.5,0.3-0.8,0.3-1.4,0.5c-0.5,0-0.8,0.3-1.1,0.3c-0.6,0-1.1-0.3-1.4-0.6
	c-0.3-0.3-0.6-0.8-0.8-1.4c-0.3-0.6-0.6-1.1-0.6-1.7c0-0.6-0.3-1.1-0.3-1.7c0-1.1,0-1.9,0.3-3c0.3-1.1,0.6-1.9,0.8-3
	c0.3-1.1,0.8-1.9,1.4-2.8c0.6-0.8,0.8-1.7,1.4-2.2c0.6-0.8,1.1-1.4,1.7-2.2c0.6-0.8,1.4-1.4,1.9-1.9c0.8-0.6,1.4-1.1,2.2-1.4
	c0.6-0.3,1.4-0.6,1.9-0.6c0.3,0,0.6,0,0.8,0c0.3,0,0.6,0,0.8,0c0.3,0,0.5,0,0.8,0.3c0.3,0,0.6,0.3,0.8,0.3c0,0,0.3,0.3,0.3,0.6
	c0.3,0.3,0.3,0.6,0.6,0.8c0.3,0.3,0.3,0.6,0.3,0.8c0,0.3,0,0.6,0,0.8c0,0.5,0,1.1-0.3,1.9c-0.3,1.1-0.3,1.9-0.6,2.8
	c-0.3,0.8-0.3,1.7-0.3,2.5c0,0.6,0,1.1,0.3,1.7c0.3,0.6,0.3,1.1,0.6,1.4c0.3,0.6,0.6,0.8,0.8,1.1c0.3,0.3,0.8,0.3,1.4,0.3
	c0.8,0,1.7-0.3,2.5-0.5c0.8-0.3,1.7-0.8,2.5-1.7c0.8-0.6,1.7-1.4,2.5-2.2s1.7-1.7,2.5-2.8c0,0,0.3-0.3,0.3-0.6
	c0.3-0.3,0.3-0.6,0.6-0.6c0.3-0.3,0.3-0.3,0.6-0.5c0.3-0.3,0.3-0.3,0.3-0.3S331.2,42.9,331.2,43.4 M314.4,41.5c0-0.3,0-0.6,0-0.8
	c0-0.3,0-0.5-0.3-0.8c-0.3-0.3-0.3-0.3-0.6-0.3s-0.3,0-0.6,0c-0.6,0-0.8,0-1.4,0.3c-0.3,0.3-0.8,0.3-1.1,0.6
	c-0.3,0.3-0.8,0.6-1.1,1.1c-0.3,0.3-0.8,0.8-1.1,1.1c-0.3,0.3-0.5,0.8-0.8,1.4c-0.3,0.6-0.6,1.1-0.8,1.7c-0.3,0.5-0.6,1.1-0.8,1.9
	c-0.3,0.6-0.6,1.4-0.8,1.9c-0.3,0.6-0.3,1.4-0.6,1.9c0,0.6-0.3,1.1-0.3,1.7c0,0.3,0,0.3,0,0.6c0,0.3,0,0.6,0.3,0.8
	c0,0.3,0.3,0.6,0.3,0.6c0,0.3,0.3,0.3,0.6,0.3c0.6,0,1.4-0.3,2.2-0.6c1.1-0.6,2.2-1.4,3.3-2.5c1.1-1.1,1.9-2.2,2.5-3.6
	C313.8,46.2,314.4,44,314.4,41.5z M347.4,45.1c0,0.8-0.3,1.7-1.1,3.3c0,0.3-0.3,0.5-0.6,1.1c-0.3,0.3-0.6,0.8-0.8,1.1
	c-0.3,0.6-0.6,0.8-0.8,1.4c-0.3,0.6-0.5,0.8-1.1,1.1c-0.6,0.6-1.1,1.1-1.7,1.7c-0.5,0.6-1.1,1.1-1.9,1.4c-0.6,0.6-1.4,0.8-1.9,1.1
	c-0.6,0.3-1.4,0.3-1.9,0.3c-0.8,0-1.7-0.3-2.5-0.6c-0.8-0.3-1.4-0.8-1.9-1.7c-0.6-0.8-1.1-1.7-1.4-2.8c-0.3-1.1-0.6-2.5-0.6-4.1
	c0-1.1,0-2.2,0-3.3c0-1.1,0.3-2.2,0.3-3.6c0-1.1,0.3-2.2,0.6-3.6c0.3-1.1,0.3-2.2,0.6-3.3c0-0.8,0.3-1.4,0.3-1.9
	c0-0.6,0.3-0.8,0.3-1.4c0-0.3,0-0.8,0.3-1.1c0-0.3,0-0.8,0.3-1.4c0-0.3,0-0.8,0.3-1.1c0-0.3,0-0.6,0-0.8c0-0.3,0-0.8,0.3-1.1
	c0-0.3,0.3-0.6,0.5-0.8c0.3-0.3,0.3-0.6,0.6-0.6c0.3-0.3,0.6-0.3,0.8-0.3c0.6,0,1.1,0.3,1.4,1.1c0,0.6-0.3,0.8-0.3,1.4
	c0,0.6-0.3,0.8-0.3,1.4c-0.3,1.9-0.6,3.3-0.8,4.4c-0.3,1.1-0.3,1.9-0.6,2.5c-0.3,0.8-0.3,1.9-0.6,3c-0.3,1.1-0.3,2.2-0.5,3.3
	c-0.3,1.1-0.3,2.2-0.3,3.3s0,2.2,0,3c0,1.1,0,1.9,0.3,2.8c0,0.8,0.3,1.7,0.5,2.2c0.3,0.5,0.8,1.1,1.1,1.4c0.6,0.3,1.1,0.5,1.7,0.5
	c0.8,0,1.4-0.3,2.2-0.5c0.8-0.3,1.4-0.8,2.2-1.4c0.6-0.6,1.4-1.4,1.9-1.9c0.5-0.8,1.1-1.4,1.7-2.2c0.3-0.6,0.8-1.1,1.1-1.4
	c0.3-0.3,0.5-0.8,0.8-1.1c0.3-0.3,0.3-0.6,0.6-0.6c0.3,0,0.3-0.3,0.5-0.3C347.2,44.5,347.4,44.5,347.4,45.1z M354,26.1
	c0,0.8-0.3,1.7-0.6,2.5c-0.6,0.6-1.1,1.1-1.9,1.1c-0.6,0-1.1,0-1.7-0.3c-0.6-0.3-0.8-0.6-0.8-0.8c0-0.8,0.3-1.4,0.5-1.9
	c0.3-0.6,0.8-1.1,1.4-1.7c0.6-0.3,0.8-0.6,0.8-0.6c0.8,0,1.4,0,1.7,0.3C353.8,25,354,25.5,354,26.1z M366.4,44c0,0.3,0,0.8-0.3,1.4
	c-0.3,0.6-0.5,1.1-1.1,1.7c-0.6,0.5-0.8,1.4-1.4,2.2c-0.6,0.8-1.1,1.7-1.7,2.2c-0.8,0.8-1.4,1.7-2.2,2.5c-0.8,0.8-1.7,1.7-2.5,2.5
	c-1.7,1.7-3.3,2.2-4.7,2.2c-1.7,0-2.8-0.5-3.6-1.7c-0.8-1.1-1.4-2.8-1.7-4.4c-0.3-1.7-0.6-3.3-0.6-5.2c0-0.8,0-1.9,0.3-3.6
	c0-0.8,0.3-1.4,0.3-1.9s0.3-1.1,0.3-1.4c0.3-0.8,0.5-1.4,1.1-1.9c0.6-0.6,1.1-0.8,1.9-0.8c0.3,0,0.6,0.3,0.6,1.1c0,0.5,0,1.1,0,1.7
	c0,0.6-0.3,1.4-0.3,1.9c-0.3,1.1-0.3,2.2-0.3,3s0,1.7,0,2.5c0,1.4,0.3,3,0.6,4.4c0.3,1.7,1.1,2.2,1.9,2.2c0.8,0,1.9-0.3,3.3-1.1
	c0.6-0.3,1.1-0.8,1.9-1.4c0.8-0.6,1.4-1.1,1.9-1.7c0.6-0.5,1.4-1.4,1.9-1.9c0.6-0.6,1.1-1.4,1.7-1.9c0.6-0.6,1.1-1.4,1.4-1.9
	c0.6-0.6,0.8-1.1,1.1-1.7c0,0,0,0,0-0.3c0,0,0,0,0-0.3c0,0,0,0,0-0.3l0,0c0.3,0,0.3,0.3,0.3,0.6C366.4,43.7,366.4,44,366.4,44z
	 M393.7,43.1c0,0.3,0,0.8-0.3,1.1c-0.3,0.5-0.8,1.7-1.9,3c-0.6,0.6-1.1,1.4-1.7,1.9c-0.6,0.6-1.1,1.4-1.7,1.9
	c-0.5,0.5-1.1,1.4-1.7,1.7c-0.6,0.6-1.1,1.1-1.7,1.4c-1.1,0.8-1.9,1.4-2.5,1.4c-0.3,0-0.6,0-1.1-0.3c-0.8-0.6-1.4-1.1-1.9-2.2
	c-0.6-1.1-0.8-2.2-1.1-3.6c-0.3-1.1-0.3-2.5-0.6-4.1c-1.7,3.3-3.6,6.3-6.1,9.1c-2.5,2.8-5.2,4.1-7.7,4.1c-0.8,0-1.4-0.5-1.7-1.4
	c-0.3-0.8-0.6-1.9-0.6-2.8c0-1.4,0-2.2,0.3-3c0.6-1.9,1.1-3.6,1.9-5.2c0.8-1.7,1.7-3.3,2.5-5c0.6-1.1,1.4-1.9,2.2-3
	c0.8-1.1,1.7-1.7,2.5-2.2c0.8-0.6,2.2-0.8,3.9-0.8c0.6,0,1.1,0.3,1.7,1.1c0.5,0.8,0.8,1.7,0.8,2.8c0.3,1.1,0.3,1.9,0.3,2.5
	c0.3-0.8,0.3-1.4,0.6-2.2c0.3-0.8,0.3-1.4,0.3-2.2s0.3-1.7,0.3-2.5c0-0.8,0.3-1.9,0.3-2.8c0-0.3,0-0.6,0-1.1s0-0.8,0-1.4
	c0-1.1,0.3-2.2,0.3-3c0-0.8,0.3-1.4,0.3-1.7c0.3-0.6,0.8-0.8,1.7-0.8c0.3,0,0.8,0,1.1,0.3c0.3,0.3,0.6,0.6,0.6,0.8
	c0,0.3,0,0.5,0,0.8c0,0.3,0,0.8-0.3,1.7c0,0.6-0.3,1.4-0.3,2.5c-0.3,0.8-0.3,1.9-0.6,3.3c0,0.3,0,0.5,0,0.8c0,0.6,0,0.8-0.3,1.4
	c0,0.6-0.3,0.8-0.3,1.4c0,0.6,0,0.6,0,0.8c-0.3,1.1-0.3,2.2-0.3,3.3c0,1.1-0.3,2.2-0.3,3.3c0,0.8,0,1.9,0,3s0,2.2,0.3,3.3
	c0.3,1.1,0.3,1.7,0.6,1.7c1.1,0,2.2-0.6,3.9-1.7c1.4-1.1,2.8-2.5,4.1-3.9c1.4-1.4,2.5-2.8,3.6-4.1h0.3c0.3,0,0.3,0,0.3,0.3
	C393.7,42.6,393.7,42.9,393.7,43.1z M376.1,44.5c-0.3,0-0.6-0.3-0.8-0.6c-0.3-0.3-0.3-0.6-0.3-1.1c0-0.3,0-0.8,0-1.4
	c0-0.6,0-1.1,0-1.4c0-0.3,0-0.6-0.3-0.8c0-0.3-0.3-0.5-0.6-0.8c-0.3-0.3-0.3-0.6-0.6-0.8c-0.3-0.3-0.6-0.3-0.8-0.3
	c-0.6,0-1.7,0.8-2.8,2.5c-0.6,0.8-1.1,1.7-1.7,2.5c-0.6,0.8-0.8,1.7-1.4,2.2c-0.6,0.8-0.8,1.7-1.1,2.2c-0.3,0.6-0.6,1.4-0.8,1.9
	c-0.8,1.9-1.1,3.3-1.1,4.4c0,1.4,0.3,1.9,1.1,1.9s1.7-0.6,3-1.4c1.4-1.1,2.2-1.9,3-2.8c0.8-0.8,1.4-1.7,1.9-2.2
	c0.6-0.6,0.8-1.1,1.1-1.4s0.6-0.8,0.8-1.4C375.8,45.6,375.8,45.1,376.1,44.5z M419.3,43.4c0,0.3,0,0.3,0,0.6c0,0.3,0,0.6-0.3,0.8
	c0,0.3-0.3,0.6-0.3,0.8c0,0.3-0.3,0.3-0.3,0.5c0,0-0.3,0.3-0.3,0.6c-0.3,0.3-0.3,0.6-0.6,0.6c-0.3,0-0.3,0.6-0.6,0.8
	c-0.3,0.3-0.5,0.6-0.5,0.8c-0.8,0.8-1.7,1.7-2.2,2.5c-0.8,0.8-1.7,1.4-2.2,2.2c-0.8,0.6-1.7,1.1-2.5,1.4c-0.8,0.3-1.9,0.6-2.8,0.6
	c-0.6,0-0.8,0-1.4-0.3c-0.6-0.3-0.8-0.6-1.4-0.8c-0.6-0.3-0.8-0.8-1.1-1.4c-0.3-0.5-0.6-1.1-0.6-1.7c-0.3,0.6-0.8,0.8-1.1,1.4
	c-0.3,0.6-0.8,0.8-1.4,1.4c-0.6,0.6-0.8,0.8-1.4,1.4c-0.6,0.6-0.8,0.8-1.4,1.4c-0.3,0.3-0.6,0.6-1.1,0.6c-0.3,0.3-0.8,0.6-1.1,0.6
	c-0.5,0.3-0.8,0.3-1.4,0.5c-0.5,0-0.8,0.3-1.1,0.3c-0.6,0-1.1-0.3-1.4-0.6c-0.3-0.3-0.8-0.8-0.8-1.4c-0.3-0.6-0.6-1.1-0.6-1.7
	c0-0.6-0.3-1.1-0.3-1.7c0-1.1,0-1.9,0.3-3c0.3-1.1,0.6-1.9,0.8-3c0.3-0.8,0.8-1.9,1.4-2.8c0.6-0.8,0.8-1.7,1.4-2.2
	c0.6-0.8,1.1-1.4,1.7-2.2c0.6-0.8,1.4-1.4,1.9-1.9c0.8-0.6,1.4-1.1,2.2-1.4c0.6-0.3,1.4-0.6,1.9-0.6c0.3,0,0.6,0,0.8,0
	c0.3,0,0.6,0,0.8,0c0.3,0,0.5,0,0.8,0.3c0.3,0,0.6,0.3,0.8,0.3c0,0,0.3,0.3,0.3,0.6c0.3,0.3,0.3,0.6,0.6,0.8c0,0.3,0.3,0.6,0.3,0.8
	c0,0.3,0,0.6,0,0.8c0,0.5,0,1.1-0.3,1.9c-0.3,1.1-0.3,1.9-0.6,2.8c-0.3,0.8-0.3,1.7-0.3,2.5c0,0.6,0,1.1,0.3,1.7
	c0.3,0.6,0.3,1.1,0.6,1.4c0.3,0.6,0.6,0.8,0.8,1.1c0.3,0.3,0.8,0.3,1.4,0.3c0.8,0,1.7-0.3,2.5-0.5c0.8-0.3,1.7-0.8,2.5-1.7
	c0.8-0.6,1.7-1.4,2.5-2.2s1.7-1.7,2.5-2.8c0,0,0.3-0.3,0.3-0.6c0.3-0.3,0.3-0.6,0.6-0.6c0.3-0.3,0.3-0.3,0.6-0.5
	c0.3-0.3,0.3-0.3,0.3-0.3C419.3,42.6,419.3,42.9,419.3,43.4z M402.5,41.5c0-0.3,0-0.6,0-0.8c0-0.3,0-0.5-0.3-0.8
	c-0.3-0.3-0.3-0.3-0.6-0.3s-0.3,0-0.6,0c-0.6,0-0.8,0-1.4,0.3c-0.3,0.3-0.8,0.3-1.1,0.6c-0.3,0.3-0.8,0.6-1.1,1.1
	c-0.3,0.3-0.8,0.8-1.1,1.1c-0.3,0.3-0.5,0.8-0.8,1.4c-0.3,0.6-0.6,1.1-0.8,1.7c-0.3,0.5-0.6,1.1-0.8,1.9c-0.3,0.6-0.6,1.4-0.8,1.9
	c-0.3,0.6-0.3,1.4-0.6,1.9c0,0.6-0.3,1.1-0.3,1.7c0,0.3,0,0.3,0,0.6c0,0.3,0,0.6,0.3,0.8c0,0.3,0.3,0.6,0.3,0.6
	c0,0.3,0.3,0.3,0.6,0.3c0.6,0,1.4-0.3,2.2-0.6c1.1-0.6,2.2-1.4,3.3-2.5c0.8-1.1,1.9-2.2,2.5-3.6C401.9,46.2,402.5,44,402.5,41.5z
	 M446.5,43.1c0,0.3,0,0.8-0.3,1.1c-0.3,0.5-0.8,1.7-1.9,3c-0.6,0.6-1.1,1.4-1.7,1.9c-0.6,0.6-1.1,1.4-1.7,1.9
	c-0.6,0.5-1.1,1.4-1.7,1.7c-0.6,0.6-1.1,1.1-1.7,1.4c-1.1,0.8-1.9,1.4-2.5,1.4c-0.3,0-0.6,0-1.1-0.3c-0.8-0.6-1.4-1.1-1.9-2.2
	c-0.5-1.1-0.8-2.2-1.1-3.6c-0.3-1.1-0.3-2.5-0.6-4.1c-1.7,3.3-3.6,6.3-6.1,9.1c-2.5,2.8-5.2,4.1-8,4.1c-0.8,0-1.4-0.5-1.7-1.4
	c-0.3-0.8-0.6-1.9-0.6-2.8c0-1.4,0-2.2,0.3-3c0.6-1.9,1.1-3.6,1.9-5.2c0.8-1.7,1.7-3.3,2.5-5c0.6-1.1,1.4-1.9,2.2-3
	c0.8-1.1,1.7-1.7,2.5-2.2c0.8-0.6,2.2-0.8,3.9-0.8c0.5,0,1.1,0.3,1.7,1.1s0.8,1.7,0.8,2.8c0.3,1.1,0.3,1.9,0.3,2.5
	c0.3-0.8,0.3-1.4,0.5-2.2c0.3-0.8,0.3-1.4,0.3-2.2s0.3-1.7,0.3-2.5c0-0.8,0.3-1.9,0.3-2.8c0-0.3,0-0.6,0-1.1s0-0.8,0-1.4
	c0-1.1,0.3-2.2,0.3-3c0-0.8,0.3-1.4,0.3-1.7c0.3-0.6,0.8-0.8,1.7-0.8c0.3,0,0.8,0,1.1,0.3c0.3,0.3,0.6,0.6,0.6,0.8
	c0,0.3,0,0.5,0,0.8c0,0.3,0,0.8-0.3,1.7c0,0.6-0.3,1.4-0.3,2.5c-0.3,0.8-0.3,1.9-0.5,3.3c0,0.3,0,0.5,0,0.8c0,0.6,0,0.8-0.3,1.4
	c0,0.6-0.3,0.8-0.3,1.4c0,0.6,0,0.6,0,0.8c-0.3,1.1-0.3,2.2-0.3,3.3c0,1.1-0.3,2.2-0.3,3.3c0,0.8,0,1.9,0,3s0,2.2,0.3,3.3
	c0.3,1.1,0.3,1.7,0.6,1.7c1.1,0,2.2-0.6,3.9-1.7c1.4-1.1,2.8-2.5,4.1-3.9c1.4-1.4,2.5-2.8,3.6-4.1h0.3c0.3,0,0.3,0,0.3,0.3
	C446.5,42.6,446.5,42.9,446.5,43.1z M428.9,44.5c-0.3,0-0.6-0.3-0.8-0.6c-0.3-0.3-0.3-0.6-0.3-1.1c0-0.3,0-0.8,0-1.4
	c0-0.6,0-1.1,0-1.4c0-0.3,0-0.6-0.3-0.8c0-0.3-0.3-0.5-0.6-0.8c-0.3-0.3-0.3-0.6-0.6-0.8c-0.3-0.3-0.6-0.3-0.8-0.3
	c-0.6,0-1.7,0.8-2.8,2.5c-0.6,0.8-1.1,1.7-1.7,2.5c-0.5,0.8-0.8,1.7-1.4,2.2c-0.5,0.8-0.8,1.7-1.1,2.2c-0.3,0.6-0.6,1.4-0.8,1.9
	c-0.8,1.9-1.1,3.3-1.1,4.4c0,1.4,0.3,1.9,1.1,1.9c0.8,0,1.7-0.6,3-1.4c1.4-1.1,2.2-1.9,3-2.8c0.8-0.8,1.4-1.7,1.9-2.2
	c0.6-0.6,0.8-1.1,1.1-1.4c0.3-0.3,0.6-0.8,0.8-1.4C428.6,45.6,428.9,45.1,428.9,44.5z M450.9,27.2c0,0.3,0,1.1-0.3,1.9
	c0,0.5-0.3,1.1-0.3,1.7s-0.3,1.1-0.3,1.7c-0.3,1.9-0.8,4.1-1.1,6.1c-0.3,1.9-0.6,3.9-0.8,5.8c0,0.3,0,0.5,0,1.1c0,0.3,0,0.6,0,0.8
	c0,0.3,0,0.6,0,0.8c0,0.3-0.3,0.5-0.3,0.8c-0.3,0-0.3,0-0.6,0c-0.3,0-0.5,0-0.8,0c-0.6,0-0.8-0.3-1.1-0.6c0,0,0-0.3,0-0.6
	c0-0.3,0-0.6,0-0.6c0-0.8,0-1.7,0-2.5s0.3-1.7,0.3-2.5c0-0.8,0.3-1.7,0.6-2.8c0.3-0.8,0.3-1.9,0.6-2.8c0.3-0.8,0.3-1.7,0.3-2.5
	c0-0.8,0-1.7,0-2.5c0-0.3,0-0.8,0.3-1.7c0-0.8,0.3-1.1,0.3-1.4c0-0.3,0.3-0.3,0.3-0.6c0.3-0.3,0.3-0.3,0.6-0.6
	c0.6-0.3,0.8-0.6,1.1-0.6c0.3,0,0.5,0.3,0.8,0.6C450.9,26.3,450.9,26.6,450.9,27.2z M447.6,53.9c0,0.3,0,0.8-0.3,1.9
	c0,0.3-0.3,0.8-0.8,1.4c-0.6,0.6-1.1,0.6-1.4,0.6c-0.8,0-1.4-0.8-1.4-2.2c0-0.6,0.3-1.1,0.6-1.9c0.6-0.8,0.8-1.1,1.4-1.1
	c0.3,0,0.3,0,0.6,0c0.3,0,0.6,0.3,0.6,0.3c0.3,0.3,0.3,0.3,0.5,0.6C447.6,53.6,447.6,53.9,447.6,53.9z M463.6,27.2
	c0,0.3,0,1.1-0.3,1.9c0,0.5-0.3,1.1-0.3,1.7s-0.3,1.1-0.3,1.7c-0.3,1.9-0.8,4.1-1.1,6.1c-0.3,1.9-0.6,3.9-0.8,5.8c0,0.3,0,0.5,0,1.1
	c0,0.3,0,0.6,0,0.8c0,0.3,0,0.6,0,0.8c0,0.3-0.3,0.5-0.3,0.8c-0.3,0-0.3,0-0.6,0c-0.3,0-0.6,0-0.8,0c-0.6,0-0.8-0.3-1.1-0.6
	c0,0,0-0.3,0-0.6c0-0.3,0-0.6,0-0.6c0-0.8,0-1.7,0-2.5s0.3-1.7,0.3-2.5c0.3-0.8,0.3-1.7,0.6-2.8c0.3-0.8,0.3-1.9,0.6-2.8
	c0.3-0.8,0.3-1.7,0.3-2.5c0-0.8,0-1.7,0-2.5c0-0.3,0-0.8,0.3-1.7c0-0.8,0.3-1.1,0.3-1.4c0-0.3,0.3-0.3,0.3-0.6
	c0.3-0.3,0.3-0.3,0.5-0.6c0.6-0.3,0.8-0.6,1.1-0.6s0.6,0.3,0.8,0.6C463.3,26.3,463.6,26.6,463.6,27.2z M460.3,53.9
	c0,0.3,0,0.8-0.3,1.9c0,0.3-0.3,0.8-0.8,1.4c-0.6,0.6-1.1,0.6-1.4,0.6c-0.8,0-1.4-0.8-1.4-2.2c0-0.6,0.3-1.1,0.5-1.9
	c0.6-0.8,0.8-1.1,1.4-1.1c0.3,0,0.3,0,0.6,0c0.3,0,0.6,0.3,0.6,0.3c0.3,0.3,0.3,0.3,0.6,0.6C460,53.6,460.3,53.9,460.3,53.9z"/>
</svg>
