<?xml version="1.0" encoding="utf-8"?>
<!-- Generator: Adobe Illustrator 16.0.0, SVG Export Plug-In . SVG Version: 6.00 Build 0)  -->
<!DOCTYPE svg PUBLIC "-//W3C//DTD SVG 1.1//EN" "http://www.w3.org/Graphics/SVG/1.1/DTD/svg11.dtd">
<svg version="1.1" id="Capa_1" xmlns="http://www.w3.org/2000/svg" xmlns:xlink="http://www.w3.org/1999/xlink" x="0px" y="0px"
	 width="406.1px" height="432px" viewBox="0 0 406.1 432" style="enable-background:new 0 0 406.1 432;" xml:space="preserve">
<style type="text/css">
<![CDATA[
	.st0{fill:#B7ADA9;}
	.st1{fill:#EBEEF0;}
	.st2{fill:none;stroke:#FFFFFF;stroke-width:2.0001;stroke-miterlimit:10;}
	.st3{fill:#F3EFEE;}
	.st4{fill:#FFAA00;}
	.st5{fill:#FFFFFF;}
	.st6{fill:#66BA6A;}
	.st7{fill:none;stroke:#9E8881;stroke-width:2.0001;stroke-linejoin:round;stroke-miterlimit:10;}
	.st8{fill:#37474F;}
	.st9{fill:#00AFFF;}
	.st10{fill:#D6CBC7;}
	.st11{fill-rule:evenodd;clip-rule:evenodd;fill:#D0D2D3;}
]]>
</style>
<path class="st10" d="M123.2,260c29.7-31.2,70.6-48.5,111-62.2c40.5-13.8,82.3-25.1,118.7-47.8c19.9-12.4,38.3-29,51.5-48.6v330.1
	H92c-0.3-0.9-0.6-1.8-1-2.7c-9.9-26.7-12.7-55.6-8.4-83.8C87.5,313.5,101.3,283,123.2,260"/>
<polygon class="st6" points="207.8,395.8 231.8,391.9 251.7,380.6 266.2,388.2 288.9,400.8 278.6,407.5 251.3,420.4 229.2,431.6 
	179.4,431.6 174.8,422.1 198.8,408 206.2,403.6 "/>
<polygon class="st9" points="168.2,324.4 240.4,290.2 266.2,315.4 277.3,337.7 281,354.7 281,360.3 219,353.2 187.7,340.6 "/>
<polygon class="st6" points="354.7,338.6 339.3,347.4 323.6,318.9 339,310 "/>
<polygon class="st0" points="315.9,270.6 291.1,282.8 286.6,273.1 311.4,261 "/>
<polygon class="st0" points="304.1,249.9 262.9,270.1 261.4,267 302.6,246.8 "/>
<path class="st1" d="M376.9,239.6c0.7,13.1,1.9,26.2,3.4,39.2H367l-13.8-26.7L376.9,239.6z M347,255.4l20.7,40.1L359,325l-32.9-58.5
	L347,255.4z M317.6,383.3c3.2,3.2,6.1,6.9,8.7,11.2c-15,6.2-31.2,5.6-48.2-2c-10.2-4.5-18-10.4-21.6-13.5c3-4.8,4.9-10.3,5.4-16.6
	C281.6,364.5,303.1,368.9,317.6,383.3z M285.6,356.2c0-16.8-8.2-32-17.6-43.9l40.7-20.4c1.4,13.1,3.9,49.4-9.5,68.4
	C294.8,358.6,290.2,357.3,285.6,356.2z M311.4,366.2c-1.8-1.1-3.7-2.1-5.6-3c14.9-23,10.9-63.7,9.5-74.5l11.8-5.9l32.9,58.5
	L311.4,366.2z M312.7,257l11,19.5l-60.3,30.3c-6.6-7.5-13.3-13.2-17.6-16.6L312.7,257z M238.6,293.6c7.5,5.7,38.9,31.1,40,61.1
	c-6.6-1.2-13.3-2-19.7-2.5c-3.1-0.3-6.2-0.5-9.3-0.8c-18.9-1.5-38.4-3-54.9-11.5c-7.4-3.8-13.9-8.9-20-14.6L238.6,293.6z
	 M254.9,361.9c-0.7,7.5-3.5,13.6-8.5,18.3c-13.2,12.6-37.9,12-44.1,11.6L182.1,365l21.2-10.8c14.7,4.8,30.3,6,45.5,7.2
	C250.9,361.5,252.9,361.7,254.9,361.9z M134.8,330.4l20.9-11.4c9.7,11.7,20.8,22.6,34.7,29.8c1.3,0.7,2.7,1.3,4.1,1.9l-33.3,17
	L134.8,330.4z M153.9,426.5L124,381l28.8-12.9l6.1,8.6l16.8-8.6l26.5,35.2L153.9,426.5z M218.3,431.4h-34.4l-5.2-8.8l34.5-16.5
	l-5.2-6.9c10.9,0,30.8-1.8,43.3-13.6c0.3-0.3,0.6-0.6,0.9-0.9c4,3.3,12.2,9.5,23.1,14.4c2.3,1,4.6,1.9,6.8,2.7L218.3,431.4z
	 M274.7,427.3l-8.5-10.4l26.4-12.3c4.3,0.8,8.5,1.2,12.7,1.2c8.4,0,16.6-1.7,24.4-5c1.9,3.9,3.5,8.2,4.9,12.9
	c0.7,2.3,1.3,4.7,1.9,7.1L274.7,427.3z M364.2,422.5c-4,4.6-9.3,7.4-15.8,8.4c-1.1-6.7-2.5-13.6-4.5-20.3
	c-4.3-14.4-10.9-26-19.5-34.5c-2-2-4.1-3.8-6.3-5.5l31.9-16.4l16.8,41l6.8-3.3C373.6,399.5,372.2,413.4,364.2,422.5z M301.7,431.6
	l36.3-3.9c0.2,1.3,0.5,2.6,0.7,3.9h26.2c1.6-1.3,3.1-2.7,4.5-4.3c10.9-12.6,11.4-31.8,11.2-38.6l18.6-9c1.6,6.1,3.3,12.1,5.1,18.1
	v-46.6c-15.5-68.9-20.5-140.2-14.3-210.7l-11.7-1.1c-2.7,30.7-3.3,61.6-1.9,92.3l-15.2,8.1l-5-69.4l-6.9,0.5l5.3,72.5l-32,16.9
	l-30.7-56.6l-6,3.5l23.3,43.5l-54.4,26.9l-27.3-51l-5.6,4.2l26.5,50l-28.2,14l-32.3-53.3l-5.8,4l31.8,52.4l-44.3,21.9
	c-8.1-8.7-24.2-31.8-30.8-41l-7.8,5.9c3.6,5,16.3,23.4,20.3,28.5l-20.5,11.2l-14.4-20.8l-5.7,4.2l38,54.3l-55.8,25l2.8,6.5l21.9-9.8
	l31.3,47.7h10.9l12.4-6l3.6,6h58.8l25-11.7l9.5,11.7H301.7z M370.5,385.6l-14.2-34.6l13.4-6.9l-6-10.7l11.5-38.6l-4.6-8.9h10.5
	c3.6,29.2,9.1,58.2,16.4,86.8L370.5,385.6z"/>
<path class="st7" d="M364.9,431.6c1.6-1.3,3.1-2.7,4.5-4.3c10.9-12.6,11.4-31.8,11.2-38.6l18.6-9c1.6,6.1,3.3,12.1,5.1,18.1
	 M301.7,431.6l36.3-3.9c0.2,1.3,0.5,2.6,0.7,3.9 M234.6,431.6l25-11.7l9.5,11.7 M159.8,431.6l12.4-6l3.6,6 M404.4,351.2
	c-15.5-68.9-20.5-140.2-14.3-210.7l-11.7-1.1c-2.7,30.7-3.3,61.6-1.9,92.3l-15.2,8.1l-5-69.4l-6.9,0.5l5.3,72.5l-32,16.9l-30.7-56.6
	l-6,3.5l23.3,43.5l-54.4,26.9l-27.3-51l-5.6,4.2l26.5,50l-28.2,14l-32.3-53.3l-5.8,4l31.8,52.4l-44.3,21.9
	c-8.1-8.7-24.2-31.8-30.8-41l-7.8,5.9c3.6,5,16.3,23.4,20.3,28.5l-20.5,11.2l-14.4-20.8l-5.7,4.2l38,54.3l-55.8,25l2.8,6.5l21.9-9.8
	l31.3,47.7 M376.9,239.6c0.7,13.1,1.9,26.2,3.4,39.2H367l-13.8-26.7L376.9,239.6z M347,255.4l20.7,40.1L359,325l-32.9-58.5
	L347,255.4z M317.6,383.3c3.2,3.2,6.1,6.9,8.7,11.2c-15,6.2-31.2,5.6-48.2-2c-10.2-4.5-18-10.4-21.6-13.5c3-4.8,4.9-10.3,5.4-16.6
	C281.6,364.5,303.1,368.9,317.6,383.3 M285.6,356.2c0-16.8-8.2-32-17.6-43.9l40.7-20.4c1.4,13.1,3.9,49.4-9.5,68.4
	C294.8,358.6,290.2,357.3,285.6,356.2 M311.4,366.2c-1.8-1.1-3.7-2.1-5.6-3c14.9-23,10.9-63.7,9.5-74.5l11.8-5.9l32.9,58.5
	L311.4,366.2z M312.7,257l11,19.5l-60.3,30.3c-6.6-7.5-13.3-13.2-17.6-16.6L312.7,257z M238.6,293.6c7.5,5.7,38.9,31.1,40,61.1
	c-6.6-1.2-13.3-2-19.7-2.5c-3.1-0.3-6.2-0.5-9.3-0.8c-18.9-1.5-38.4-3-54.9-11.5c-7.4-3.8-13.9-8.9-20-14.6L238.6,293.6z
	 M254.9,361.9c-0.7,7.5-3.5,13.6-8.5,18.3c-13.2,12.6-37.9,12-44.1,11.6L182.1,365l21.2-10.8c14.7,4.8,30.3,6,45.5,7.2
	C250.9,361.5,252.9,361.7,254.9,361.9 M134.8,330.4l20.9-11.4c9.7,11.7,20.8,22.6,34.7,29.8c1.3,0.7,2.7,1.3,4.1,1.9l-33.3,17
	L134.8,330.4z M153.9,426.5L124,381l28.8-12.9l6.1,8.6l16.8-8.6l26.5,35.2L153.9,426.5z M218.3,431.4h-34.4l-5.2-8.8l34.5-16.5
	l-5.2-6.9c10.9,0,30.8-1.8,43.3-13.6c0.3-0.3,0.6-0.6,0.9-0.9c4,3.3,12.2,9.5,23.1,14.4c2.3,1,4.6,1.9,6.8,2.7L218.3,431.4z
	 M274.7,427.3l-8.5-10.4l26.4-12.3c4.3,0.8,8.5,1.2,12.7,1.2c8.4,0,16.6-1.7,24.4-5c1.9,3.9,3.5,8.2,4.9,12.9
	c0.7,2.3,1.3,4.7,1.9,7.1L274.7,427.3z M364.2,422.5c-4,4.6-9.3,7.4-15.8,8.4c-1.1-6.7-2.5-13.6-4.5-20.3
	c-4.3-14.4-10.9-26-19.5-34.5c-2-2-4.1-3.8-6.3-5.5l31.9-16.4l16.8,41l6.8-3.3C373.6,399.5,372.2,413.4,364.2,422.5 M370.5,385.6
	l-14.2-34.6l13.4-6.9l-6-10.7l11.5-38.6l-4.6-8.9h10.5c3.6,29.2,9.1,58.2,16.4,86.8L370.5,385.6z"/>
<path class="st8" d="M4.3,431.6C-11.4,365.8,18.8,284.9,68,240.2c37.2-33.7,86.3-49.6,134.2-63.2c47.9-13.5,97.4-26.2,138.2-55.2
	C379.2,94.2,398.1,46.6,402.8,0h1.6v45.2v56.6v23.8c-4.1,6.6-8.6,13-13.6,19c-24.8,29.8-60.2,48-96,61.9
	c-35.7,13.9-73,24.3-107,42.2c-34,17.9-65.4,44.8-79.2,81.2c-12.2,32.2-9.2,68.5,1.3,101.6h-5.5H24.7H4.3z"/>
<path class="st2" d="M404.4,59.4c-7.2,22-18.7,42.4-34.6,59.1c-36.9,38.7-90.7,53-141.7,67.5c-50.9,14.5-103.3,31.7-143.3,67
	c-48.5,42.9-69,115.3-53.2,178.5"/>
<path class="st2" d="M103.4,431.6c-9.9-39-14.2-80.1,1.5-116.3c19.8-45.6,66.5-72.2,112.4-89.1c45.9-16.9,100-31.7,139.9-60.2
	c20.2-14.5,35.6-32.5,47.2-53.1"/>
<path class="st5" d="M65.2,432c-1.5-5.6-2.7-11.3-3.6-17c-1-5.7-1.6-11.5-2.1-17.3l3.4-0.3c0.4,5.7,1.1,11.3,2,17
	c0.9,5.6,2.1,11.2,3.6,16.7L65.2,432z"/>
<path class="st5" d="M61.8,370.3c-1-8.7-0.9-17.5,0.3-26.2c1.2-8.7,3.6-17.2,7-25.2l3.1,1.3c-3.3,7.8-5.6,16-6.7,24.3
	c-1.2,8.4-1.3,16.9-0.3,25.3L61.8,370.3z"/>
<path class="st5" d="M84.2,297.5c3.2-7.9,7.5-15.2,12.8-21.8c5.3-6.6,11.5-12.4,18.4-17.1l1.9,2.8c-6.6,4.5-12.6,10.1-17.6,16.4
	c-5.1,6.3-9.2,13.4-12.3,20.9L84.2,297.5z"/>
<path class="st5" d="M139.5,244.3c6-4.8,12.3-9.1,19-12.8c6.6-3.7,13.6-6.9,20.8-9.5l1.1,3.2c-7,2.5-13.7,5.6-20.2,9.3
	c-6.5,3.7-12.7,7.8-18.5,12.5L139.5,244.3z"/>
<polygon class="st5" points="204.3,211.3 244,196.6 245.2,199.8 205.4,214.5 "/>
<path class="st5" d="M268.1,188.7c6.2-1.9,12.4-4.1,18.6-6.4c6.1-2.4,12.1-4.9,18.1-7.8l1.4,3.1c-6,2.8-12.1,5.4-18.3,7.8
	c-6.2,2.4-12.5,4.6-18.8,6.5L268.1,188.7z"/>
<path class="st5" d="M323.2,166.4c5.6-2.6,11.1-5.5,16.3-8.7c5.3-3.2,10.4-6.7,15.3-10.5l2.1,2.7c-5,3.8-10.2,7.4-15.6,10.7
	c-5.4,3.3-11,6.2-16.6,8.9L323.2,166.4z"/>
<path class="st5" d="M369.1,135.1c3.9-3.3,7.5-6.9,10.7-10.8c3.2-3.9,6.2-8.1,8.7-12.5l3,1.7c-2.6,4.6-5.7,9-9,13
	c-3.4,4.1-7.1,7.8-11.1,11.2L369.1,135.1z"/>
<polygon class="st5" points="396.7,97.9 402.9,83.7 406,85 399.8,99.3 "/>
<polygon class="st0" points="349.9,241.1 324.4,254.4 318.1,241.8 343.6,228.5 "/>
<polygon class="st0" points="182.5,406.4 157.7,418.1 153.9,409.5 178.6,397.9 "/>
<polygon class="st6" points="404.4,430.2 400.1,431.6 387.8,431.6 382.3,414 403,407.2 404.4,411.5 "/>
<path class="st6" d="M339.2,209.7c0,6.3-5,11.3-11.1,11.3c-6.1,0-11.1-5.1-11.1-11.3c0-6.3,5-11.3,11.1-11.3
	C334.2,198.4,339.2,203.5,339.2,209.7"/>
<path class="st4" d="M314,314.9c-10.8-6.9-24.6-6.9-35.3,0c-7.1,4.6-13.7,12.6-13.7,26.6c0,30.6,31.4,50.6,31.4,50.6
	s31.4-20,31.4-50.6C327.7,327.5,321.1,319.5,314,314.9"/>
<path class="st3" d="M321.4,341.5c0,14.1-11.2,25.6-25,25.6c-13.8,0-25-11.5-25-25.6s11.2-25.6,25-25.6
	C310.2,315.9,321.4,327.3,321.4,341.5"/>
<path class="st11" d="M318.7,341.5c0,12.6-10,22.9-22.4,22.9c-12.4,0-22.4-10.2-22.4-22.9s10-22.9,22.4-22.9
	C308.7,318.6,318.7,328.8,318.7,341.5"/>
<polygon class="st4" points="296.3,327.2 282.8,338 287.6,338 287.6,352.8 293.7,352.8 293.7,343.7 298.9,343.7 298.9,352.8 
	305,352.8 305,338 309.9,338 "/>
</svg>
