<?xml version="1.0" encoding="utf-8"?>
<!-- Generator: Adobe Illustrator 16.0.0, SVG Export Plug-In . SVG Version: 6.00 Build 0)  -->
<!DOCTYPE svg PUBLIC "-//W3C//DTD SVG 1.1//EN" "http://www.w3.org/Graphics/SVG/1.1/DTD/svg11.dtd">
<svg version="1.1" id="Capa_1" xmlns="http://www.w3.org/2000/svg" xmlns:xlink="http://www.w3.org/1999/xlink" x="0px" y="0px"
	 width="331.2px" height="356.4px" viewBox="0 0 331.2 356.4" enable-background="new 0 0 331.2 356.4" xml:space="preserve">
<path fill-rule="evenodd" clip-rule="evenodd" fill="#E5E5E5" d="M157.274,335.112c13.021-11.197,19.594-24.848,20.933-40.49
	c7.035-14.104,14.096-25.641,21.215-31.758l-7.794-14.285c-33.372-12.027-62.648-28.227-87.293-49.144l-29.325-5.551
	c-29.327-19.73-53.272-42.458-70.688-68.383l13.782-49.986L17.966,56.82l12.821-19.527l7.046-18.271l67.54-14.625l35.304-0.526
	l35.611,22.314c11.202,27.872,19.064,56.744,6.785,91.662c25.894,7.485,48.849,10.137,56.453,1.798
	c1.057-1.157,3.128-2.831,4.786-0.567c4.171,5.691,10.563,8.595,18.223,9.16c5.397,1.311,6.532,10.329,11.274,13.443l3.739,39.368
	c5.637,31.891,31.5,11.067,35.721,8.758c10.958,6.054,15.295,12.616,13.021,22.575c1.557,11.537-4.966,22.035-6.236,34.61
	c-1.77,9.243-5.568,13.902-5.309,27.731l-3.794,19.816c0.22,10.706-5.307,20.94-18.177,30.567
	c-8.302-0.582-14.632,2.033-17.731,9.896c1.432,5.296,0.109,9.11-5.279,10.74c-13.663-6.554-19.11,0.922-25.546,6.785l0,0
	c-3.71-3.16-6.752-5.459-8.905-5.65c-1.873-0.166-2.876,1.458-5.566,2.991c-6.662-7.963-9.433-1.071-14.148-1.606
	c-9.061-5.813-11.374,0.213-15.76-2.745c-10.287-6.939-24.024-9.574-40.323-4.871L157.274,335.112z"/>
<path fill-rule="evenodd" clip-rule="evenodd" fill="#CED0D1" d="M277.479,180.315l0.07,0.734
	c5.637,31.891,31.5,11.067,35.721,8.758c10.958,6.054,15.295,12.616,13.021,22.575c0.81,5.937-0.531,11.589-2.193,17.392
	l-0.279-0.204l-5.306,0.108l-6.541-1.752l-0.842-1.646l-3.392-0.22l-1.674,1.273l-0.415-1.304l-3.011-0.564l-0.178-2.23
	l-4.389-1.305l-2.205,0.542l-1.246-0.713l-0.807-2.829l-4.471,1.412l-11.132,2.12l-9.227,9.646l-6.258-6.604l-4.423-8.646
	l-3.525-5.337l-0.036-7.483l4.86-3.698l-1.998-6.846l5.963-1.45l7.169-6.047l2.442-0.288l2.468-1.686L277.479,180.315z"/>
<path fill="none" stroke="#B9BBBC" stroke-width="0.216" stroke-miterlimit="22.9256" d="M277.479,180.315l0.07,0.734
	c5.637,31.891,31.5,11.067,35.721,8.758c10.958,6.054,15.295,12.616,13.021,22.575c0.81,5.937-0.531,11.589-2.193,17.392
	l-0.279-0.204l-5.306,0.108l-6.541-1.752l-0.842-1.646l-3.392-0.22l-1.674,1.273l-0.415-1.304l-3.011-0.564l-0.178-2.23
	l-4.389-1.305l-2.205,0.542l-1.246-0.713l-0.807-2.829l-4.471,1.412l-11.132,2.12l-9.227,9.646l-6.258-6.604l-4.423-8.646
	l-3.525-5.337l-0.036-7.483l4.86-3.698l-1.998-6.846l5.963-1.45l7.169-6.047l2.442-0.288l2.468-1.686L277.479,180.315z"/>
<path fill-rule="evenodd" clip-rule="evenodd" fill="#CED0D1" d="M286.146,287.557L286.146,287.557L286.146,287.557L286.146,287.557
	z M310.658,299.324l-0.011,0.075l0,0L310.658,299.324z M324.098,229.774c-1.569,5.488-3.426,11.108-4.043,17.219
	c-1.77,9.243-5.568,13.902-5.309,27.731l-3.773,19.713l-2.807-0.518l-0.537-1.726l-2.877-1.083l-2.027,1.146l-0.643-1.795
	l-4.029,2.713l-1.238,1.052l-4.053-1.712l-3.978-0.118l-2.583-4.874l2.959-1.867l-1.606-0.969l-1.204-0.993l-4.507,0.716
	l-3.25-1.306l-0.245-3.938l0.245-3.354l1.425-1.745l0.959-3.842l1.76-2.396l-0.917-2.488l-1.87-1.194l9.284-12.716l4.083,2.038
	l1.316-0.382l1.806,0.836l0.733,1.979l2.44,0.04l-0.209-2.902l-1.718-1.629l0.042-1.892l-6.538-5.526l-3.661-1.143l-2.144-3.522
	l0.146-4.518l-0.073-3.186l1.088-3.914l0.332-3.917l2.467-3.449l4.471-1.412l0.807,2.829l1.246,0.713l2.205-0.542l4.389,1.305
	l0.178,2.23l3.011,0.564l0.415,1.304l1.674-1.273l3.392,0.22l0.842,1.646l6.541,1.752l5.306-0.108L324.098,229.774z"/>
<path fill="none" stroke="#B9BBBC" stroke-width="0.216" stroke-miterlimit="22.9256" d="M286.146,287.557L286.146,287.557
	L286.146,287.557L286.146,287.557z M310.658,299.324l-0.011,0.075l0,0L310.658,299.324z M324.098,229.774
	c-1.569,5.488-3.426,11.108-4.043,17.219c-1.77,9.243-5.568,13.902-5.309,27.731l-3.773,19.713l-2.807-0.518l-0.537-1.726
	l-2.877-1.083l-2.027,1.146l-0.643-1.795l-4.029,2.713l-1.238,1.052l-4.053-1.712l-3.978-0.118l-2.583-4.874l2.959-1.867
	l-1.606-0.969l-1.204-0.993l-4.507,0.716l-3.25-1.306l-0.245-3.938l0.245-3.354l1.425-1.745l0.959-3.842l1.76-2.396l-0.917-2.488
	l-1.87-1.194l9.284-12.716l4.083,2.038l1.316-0.382l1.806,0.836l0.733,1.979l2.44,0.04l-0.209-2.902l-1.718-1.629l0.042-1.892
	l-6.538-5.526l-3.661-1.143l-2.144-3.522l0.146-4.518l-0.073-3.186l1.088-3.914l0.332-3.917l2.467-3.449l4.471-1.412l0.807,2.829
	l1.246,0.713l2.205-0.542l4.389,1.305l0.178,2.23l3.011,0.564l0.415,1.304l1.674-1.273l3.392,0.22l0.842,1.646l6.541,1.752
	l5.306-0.108L324.098,229.774z"/>
<path fill-rule="evenodd" clip-rule="evenodd" fill="#CED0D1" d="M310.973,294.437l-0.021,0.104
	c0.22,10.706-5.307,20.94-18.177,30.567c-8.302-0.582-14.632,2.033-17.731,9.896c1.432,5.296,0.109,9.11-5.279,10.74
	c-13.663-6.554-19.11,0.922-25.546,6.785l0,0c-3.71-3.16-6.752-5.459-8.905-5.65l-0.189-0.011l-0.078-0.166l0.236-4.079
	l-2.247-3.511l3.243-5.579l2.591-0.832l-1.29-17.571l5.224,2.236l12.863-4.704l3.981-6.755l5.847-1.873l3.721-4.134l6.324-1.905
	l6.254-2.857l3.76-3.599l0.607-4.09l2.624,4.947l3.978,0.118l4.053,1.712l1.238-1.052l4.029-2.713l0.643,1.795l2.027-1.146
	l2.877,1.083l0.537,1.726L310.973,294.437z"/>
<path fill="none" stroke="#B9BBBC" stroke-width="0.216" stroke-miterlimit="22.9256" d="M244.219,352.529
	c-3.71-3.16-6.752-5.459-8.905-5.65l-0.189-0.011l-0.078-0.166l0.236-4.079l-2.247-3.511l3.243-5.579l2.591-0.832l-1.29-17.571
	l5.224,2.236l12.863-4.704l3.981-6.755l5.847-1.873l3.721-4.134l6.324-1.905l6.254-2.857l3.76-3.599l0.607-4.09l2.624,4.947
	l3.978,0.118l4.053,1.712l1.238-1.052l4.029-2.713l0.643,1.795l2.027-1.146l2.877,1.083l0.537,1.726l2.807,0.518 M310.973,294.437
	l-0.021,0.104c0.22,10.706-5.307,20.94-18.177,30.567c-8.302-0.582-14.632,2.033-17.731,9.896c1.432,5.296,0.109,9.11-5.279,10.74
	c-13.663-6.554-19.11,0.922-25.546,6.785"/>
<path fill-rule="evenodd" clip-rule="evenodd" fill="#CED0D1" d="M189.496,274.671c3.3-4.922,6.606-8.954,9.926-11.807l-5.171-9.476
	l0.421,0.02l4.247-2.255l2.263-5.116l3.592,0.032l4.782,7.538l2.299,4.799l1.72-1.013l1.303,2.763l-4.561,4.325l-4.473,5.751
	c-1.743,2.302-1.374,5.516-0.323,9.022l-3.356,4.896l-7.582-7.814l-4.335,0.542L189.496,274.671z"/>
<path fill="none" stroke="#B9BBBC" stroke-width="0.216" stroke-miterlimit="22.9256" d="M189.496,274.671
	c3.3-4.922,6.606-8.954,9.926-11.807l-5.171-9.476l0.421,0.02l4.247-2.255l2.263-5.116l3.592,0.032l4.782,7.538l2.299,4.799
	l1.72-1.013l1.303,2.763l-4.561,4.325l-4.473,5.751c-1.743,2.302-1.374,5.516-0.323,9.022l-3.356,4.896l-7.582-7.814l-4.335,0.542
	L189.496,274.671z"/>
<path fill-rule="evenodd" clip-rule="evenodd" fill="#CED0D1" d="M194.25,253.388l-2.623-4.81
	c-33.372-12.027-62.648-28.227-87.293-49.144l-29.302-5.546l2.03-9.794l6.718-2.267l14.336-1.067l5.376-4.46l2.733-11.767
	l1.37-15.393l8.492-11.623l-0.222-3.93l4.449-0.989c-0.51-1.259-0.251-2.756,0.67-4.569c0.815-1.811,2.499-2.581,4.63-2.814
	l2.576,1.101l4.115-3.257l-1.355-4.115l4.317,2.405l38.206,2.649l15.104,8.314l2.535,9.918c-6.518,0.671-8.633,2.623-1.947,6.952
	l1.945,6.004l0.196,3.431l4.819,2.512l6.502,8.163l1.466,7.336l0.636,6.432l5.782,5.217l-0.767,5.459l-0.508,3.098l5.302,6.851
	l2.822,23.401l-0.953,3.834l-1.941,0.34l-2.926,5.573l1.71,3.074l-8.476,6.16l-3.592-0.032l-2.263,5.116l-4.247,2.255
	L194.25,253.388z"/>
<path fill="none" stroke="#B9BBBC" stroke-width="0.216" stroke-miterlimit="22.9256" d="M194.25,253.388l-2.623-4.81
	c-33.372-12.027-62.648-28.227-87.293-49.144l-29.302-5.546l2.03-9.794l6.718-2.267l14.336-1.067l5.376-4.46l2.733-11.767
	l1.37-15.393l8.492-11.623l-0.222-3.93l4.449-0.989c-0.51-1.259-0.251-2.756,0.67-4.569c0.815-1.811,2.499-2.581,4.63-2.814
	l2.576,1.101l4.115-3.257l-1.355-4.115l4.317,2.405l38.206,2.649l15.104,8.314l2.535,9.918c-6.518,0.671-8.633,2.623-1.947,6.952
	l1.945,6.004l0.196,3.431l4.819,2.512l6.502,8.163l1.466,7.336l0.636,6.432l5.782,5.217l-0.767,5.459l-0.508,3.098l5.302,6.851
	l2.822,23.401l-0.953,3.834l-1.941,0.34l-2.926,5.573l1.71,3.074l-8.476,6.16l-3.592-0.032l-2.263,5.116l-4.247,2.255
	L194.25,253.388z"/>
<polygon fill-rule="evenodd" clip-rule="evenodd" fill="#CED0D1" points="213.249,239.909 217.431,243.021 220.341,241.908 
	221.436,239.991 233.075,237.92 240.21,242.206 238.109,255.592 228.68,262.828 230.045,268.348 226.446,269.667 224.677,269.311 
	225.814,267.437 224.614,264.348 217.718,263.838 214.876,260.156 213.574,257.393 211.854,258.406 209.555,253.607 
	204.773,246.069 "/>
<polygon fill="none" stroke="#B9BBBC" stroke-width="0.216" stroke-miterlimit="22.9256" points="213.249,239.909 217.431,243.021 
	220.341,241.908 221.436,239.991 233.075,237.92 240.21,242.206 238.109,255.592 228.68,262.828 230.045,268.348 226.446,269.667 
	224.677,269.311 225.814,267.437 224.614,264.348 217.718,263.838 214.876,260.156 213.574,257.393 211.854,258.406 
	209.555,253.607 204.773,246.069 "/>
<polygon fill-rule="evenodd" clip-rule="evenodd" fill="#CED0D1" points="233.864,284.057 236.548,281.975 235.394,278.911 
	233.792,273.08 237.667,270.171 240.725,267.736 245.404,266.08 251.214,266.148 256.234,266.617 263.065,267.579 265.965,270.127 
	273.407,268.506 272.801,271.968 270.606,272.557 268.961,274.569 257.974,280.002 256.859,284.07 252.917,285.9 249.608,283.751 
	246.746,284.756 245.32,284.96 244.183,287.152 241.235,287.69 239.947,291.366 237.304,291.634 "/>
<polygon fill="none" stroke="#B9BBBC" stroke-width="0.216" stroke-miterlimit="22.9256" points="233.864,284.057 236.548,281.975 
	235.394,278.911 233.792,273.08 237.667,270.171 240.725,267.736 245.404,266.08 251.214,266.148 256.234,266.617 263.065,267.579 
	265.965,270.127 273.407,268.506 272.801,271.968 270.606,272.557 268.961,274.569 257.974,280.002 256.859,284.07 252.917,285.9 
	249.608,283.751 246.746,284.756 245.32,284.96 244.183,287.152 241.235,287.69 239.947,291.366 237.304,291.634 "/>
<path fill="none" stroke="#000000" stroke-miterlimit="22.9256" d="M157.274,335.112c13.021-11.197,19.594-24.848,20.933-40.49
	c7.035-14.104,14.096-25.641,21.215-31.758l-7.794-14.285c-33.372-12.027-62.648-28.227-87.293-49.144l-29.325-5.551
	c-29.327-19.73-53.272-42.458-70.688-68.383l13.782-49.986L17.966,56.82l12.821-19.527l7.046-18.271l67.54-14.625l35.304-0.526
	l35.611,22.314c11.202,27.872,19.064,56.744,6.785,91.662c25.894,7.485,48.849,10.137,56.453,1.798
	c1.057-1.157,3.128-2.831,4.786-0.567c4.171,5.691,10.563,8.595,18.223,9.16c5.397,1.311,6.532,10.329,11.274,13.443l3.739,39.368
	c5.637,31.891,31.5,11.067,35.721,8.758c10.958,6.054,15.295,12.616,13.021,22.575c1.557,11.537-4.966,22.035-6.236,34.61
	c-1.77,9.243-5.568,13.902-5.309,27.731l-3.794,19.816c0.22,10.706-5.307,20.94-18.177,30.567
	c-8.302-0.582-14.632,2.033-17.731,9.896c1.432,5.296,0.109,9.11-5.279,10.74c-13.663-6.554-19.11,0.922-25.546,6.785l0,0
	c-3.71-3.16-6.752-5.459-8.905-5.65c-1.873-0.166-2.876,1.458-5.566,2.991c-6.662-7.963-9.433-1.071-14.148-1.606
	c-9.061-5.813-11.374,0.213-15.76-2.745c-10.287-6.939-24.024-9.574-40.323-4.871L157.274,335.112z"/>
<g>
	<path fill-rule="evenodd" clip-rule="evenodd" fill="#0000FF" d="M189.207,232.567c0,0.748,0.355,1.602,0.359,1.613
		c0.112,0.266,0.342,0.694,0.501,0.938l3.261,4.938c0.063,0.099,0.085,0.099,0.149,0l3.26-4.938c0.16-0.243,0.39-0.671,0.501-0.938
		c0.003-0.009,0.358-0.865,0.358-1.613c0-2.313-1.882-4.196-4.193-4.196C191.088,228.371,189.207,230.254,189.207,232.567
		 M193.403,235.084c-1.39,0-2.519-1.129-2.519-2.517s1.129-2.518,2.519-2.518c1.387,0,2.517,1.13,2.517,2.518
		S194.79,235.084,193.403,235.084z"/>
	<path fill-rule="evenodd" clip-rule="evenodd" fill="#0000FF" d="M184.948,219.89c0,0.747,0.355,1.602,0.361,1.612
		c0.11,0.266,0.34,0.695,0.5,0.938l3.26,4.939c0.065,0.097,0.084,0.097,0.149,0l3.26-4.939c0.16-0.243,0.39-0.672,0.502-0.938
		c0.004-0.008,0.359-0.864,0.359-1.612c0-2.313-1.882-4.196-4.195-4.196C186.83,215.694,184.948,217.577,184.948,219.89
		 M189.144,222.408c-1.388,0-2.517-1.13-2.517-2.518s1.129-2.518,2.517-2.518c1.387,0,2.516,1.13,2.516,2.518
		S190.531,222.408,189.144,222.408z"/>
	<path fill-rule="evenodd" clip-rule="evenodd" fill="#0000FF" d="M207.873,240.659c0,0.748,0.355,1.602,0.359,1.613
		c0.112,0.266,0.342,0.695,0.502,0.938l3.26,4.939c0.065,0.098,0.084,0.098,0.149,0l3.259-4.939
		c0.161-0.242,0.391-0.671,0.503-0.938c0.002-0.009,0.359-0.864,0.359-1.613c0-2.313-1.882-4.195-4.196-4.195
		C209.754,236.464,207.873,238.345,207.873,240.659 M212.068,243.176c-1.389,0-2.518-1.129-2.518-2.516
		c0-1.389,1.129-2.519,2.518-2.519c1.39,0,2.517,1.13,2.517,2.519C214.584,242.047,213.458,243.176,212.068,243.176z"/>
	<path fill-rule="evenodd" clip-rule="evenodd" fill="#0000FF" d="M214.535,249.476c0,0.747,0.354,1.602,0.359,1.612
		c0.111,0.267,0.342,0.695,0.501,0.938l3.261,4.94c0.063,0.098,0.085,0.098,0.149,0l3.26-4.94c0.158-0.242,0.39-0.671,0.501-0.937
		c0.003-0.008,0.358-0.865,0.358-1.613c0-2.313-1.882-4.195-4.195-4.195C216.417,245.281,214.535,247.163,214.535,249.476
		 M218.729,251.994c-1.388,0-2.517-1.13-2.517-2.518s1.129-2.518,2.517-2.518c1.389,0,2.519,1.13,2.519,2.518
		S220.118,251.994,218.729,251.994z"/>
	<path fill-rule="evenodd" clip-rule="evenodd" fill="#0000FF" d="M242.945,268.09c0,0.747,0.354,1.602,0.359,1.613
		c0.11,0.266,0.34,0.694,0.501,0.938l3.259,4.939c0.065,0.098,0.087,0.098,0.149,0l3.262-4.939c0.158-0.243,0.388-0.672,0.501-0.938
		c0.003-0.009,0.358-0.865,0.358-1.613c0-2.313-1.882-4.196-4.195-4.196C244.827,263.893,242.945,265.776,242.945,268.09
		 M247.139,270.607c-1.388,0-2.517-1.13-2.517-2.518s1.129-2.517,2.517-2.517c1.389,0,2.519,1.129,2.519,2.517
		S248.528,270.607,247.139,270.607z"/>
	<path fill-rule="evenodd" clip-rule="evenodd" fill="#0000FF" d="M303.47,241.006c0,0.748,0.355,1.602,0.361,1.613
		c0.11,0.266,0.34,0.694,0.5,0.938l3.26,4.938c0.065,0.099,0.086,0.099,0.149,0l3.262-4.938c0.158-0.243,0.388-0.671,0.5-0.938
		c0.004-0.009,0.359-0.864,0.359-1.613c0-2.314-1.882-4.195-4.196-4.195C305.352,236.81,303.47,238.691,303.47,241.006
		 M307.666,243.523c-1.387,0-2.516-1.13-2.516-2.518s1.129-2.518,2.516-2.518c1.39,0,2.519,1.13,2.519,2.518
		S309.055,243.523,307.666,243.523z"/>
	<path fill-rule="evenodd" clip-rule="evenodd" fill="#0000FF" d="M307.435,253.169c0,0.748,0.355,1.603,0.358,1.613
		c0.113,0.267,0.343,0.695,0.503,0.938l3.26,4.94c0.064,0.098,0.084,0.098,0.149,0l3.259-4.94c0.161-0.242,0.391-0.671,0.503-0.938
		c0.002-0.008,0.359-0.864,0.359-1.613c0-2.313-1.882-4.194-4.196-4.194C309.317,248.974,307.435,250.856,307.435,253.169
		 M311.63,255.687c-1.389,0-2.519-1.13-2.519-2.518s1.13-2.518,2.519-2.518c1.39,0,2.517,1.13,2.517,2.518
		S313.02,255.687,311.63,255.687z"/>
	<path fill-rule="evenodd" clip-rule="evenodd" fill="#0000FF" d="M304.156,264.384c0,0.748,0.355,1.603,0.361,1.613
		c0.11,0.266,0.34,0.696,0.501,0.938l3.259,4.94c0.065,0.098,0.087,0.098,0.149,0l3.262-4.94c0.158-0.241,0.39-0.671,0.501-0.938
		c0.003-0.007,0.358-0.864,0.358-1.613c0-2.313-1.882-4.194-4.195-4.194C306.038,260.189,304.156,262.071,304.156,264.384
		 M308.352,266.901c-1.388,0-2.517-1.129-2.517-2.517s1.129-2.518,2.517-2.518c1.389,0,2.519,1.13,2.519,2.518
		S309.741,266.901,308.352,266.901z"/>
	<path fill-rule="evenodd" clip-rule="evenodd" fill="#0000FF" d="M315.496,195.524c0,0.747,0.354,1.603,0.359,1.613
		c0.111,0.266,0.34,0.695,0.501,0.937l3.26,4.94c0.064,0.098,0.086,0.098,0.148,0l3.262-4.94c0.158-0.241,0.39-0.671,0.501-0.937
		c0.004-0.008,0.359-0.865,0.359-1.613c0-2.313-1.883-4.196-4.196-4.196C317.378,191.328,315.496,193.211,315.496,195.524
		 M319.69,198.042c-1.387,0-2.517-1.13-2.517-2.518s1.13-2.518,2.517-2.518c1.389,0,2.519,1.13,2.519,2.518
		S321.079,198.042,319.69,198.042z"/>
	<path fill-rule="evenodd" clip-rule="evenodd" fill="#0000FF" d="M266.459,333.908c0,0.747,0.355,1.603,0.359,1.612
		c0.113,0.267,0.342,0.696,0.501,0.938l3.262,4.94c0.063,0.098,0.084,0.098,0.148,0l3.26-4.94c0.161-0.241,0.39-0.671,0.501-0.938
		c0.004-0.007,0.359-0.864,0.359-1.612c0-2.313-1.883-4.194-4.194-4.194C268.342,329.714,266.459,331.594,266.459,333.908
		 M270.656,336.426c-1.389,0-2.519-1.129-2.519-2.518c0-1.388,1.13-2.518,2.519-2.518c1.387,0,2.517,1.13,2.517,2.518
		C273.172,335.297,272.042,336.426,270.656,336.426z"/>
	
		<ellipse fill="none" stroke="#0000FF" stroke-width="0.5669" stroke-miterlimit="22.9256" cx="202.186" cy="265.094" rx="5.751" ry="6.848"/>
	
		<ellipse fill="none" stroke="#0000FF" stroke-width="0.5669" stroke-miterlimit="22.9256" cx="202.186" cy="265.093" rx="8.481" ry="10.1"/>
	
		<ellipse fill="none" stroke="#0000FF" stroke-width="0.5669" stroke-miterlimit="22.9256" cx="202.186" cy="265.093" rx="3.544" ry="4.219"/>
	
		<ellipse fill="none" stroke="#0000FF" stroke-width="0.5669" stroke-miterlimit="22.9256" cx="202.186" cy="265.093" rx="9.918" ry="11.809"/>
	
		<ellipse fill="none" stroke="#0000FF" stroke-width="0.5669" stroke-miterlimit="22.9256" cx="202.186" cy="265.093" rx="14.628" ry="17.419"/>
	
		<ellipse fill="none" stroke="#0000FF" stroke-width="0.5669" stroke-miterlimit="22.9256" cx="202.186" cy="265.094" rx="6.11" ry="7.276"/>
	<path fill-rule="evenodd" clip-rule="evenodd" fill="#0000FF" d="M194.432,251.12c0,1.342,0.639,2.876,0.648,2.897
		c0.198,0.478,0.611,1.249,0.897,1.684l5.858,8.874c0.114,0.175,0.151,0.175,0.268,0l5.854-8.874
		c0.288-0.435,0.701-1.205,0.901-1.684c0.006-0.015,0.646-1.554,0.646-2.897c0-4.156-3.383-7.536-7.538-7.536
		C197.814,243.584,194.432,246.964,194.432,251.12 M201.968,255.641c-2.493,0-4.521-2.028-4.521-4.521s2.027-4.521,4.521-4.521
		c2.495,0,4.522,2.028,4.522,4.521S204.463,255.641,201.968,255.641z"/>
</g>
</svg>
