<?xml version="1.0" encoding="utf-8"?>
<!-- Generator: Adobe Illustrator 16.0.0, SVG Export Plug-In . SVG Version: 6.00 Build 0)  -->
<!DOCTYPE svg PUBLIC "-//W3C//DTD SVG 1.1//EN" "http://www.w3.org/Graphics/SVG/1.1/DTD/svg11.dtd">
<svg version="1.1" id="Capa_1" xmlns="http://www.w3.org/2000/svg" xmlns:xlink="http://www.w3.org/1999/xlink" x="0px" y="0px"
	 width="331.2px" height="356.4px" viewBox="0 0 331.2 356.4" style="enable-background:new 0 0 331.2 356.4;" xml:space="preserve"
	>
<style type="text/css">
<![CDATA[
	.st0{fill:#E5E5E5;}
	.st1{fill:none;stroke:#B9BBBC;stroke-width:0.216;stroke-miterlimit:22.9256;}
	.st2{fill:#CED0D1;}
	.st3{fill:#0000FF;}
	.st4{fill:none;stroke:#FF0000;stroke-width:0.5669;stroke-miterlimit:22.9256;
		stroke-dasharray:100px;
		stroke-dashoffset:0;
		animation: appMapMov 1s infinite;
	}
	@keyframes appMapMov{
		0%{
			stroke-dashoffset:100px;
			stroke:#0000FF;
		}100%{
			stroke-dashoffset:0px;
			stroke:#FFFFFF;
	}}
	.st5{fill:none;stroke:#000000;stroke-miterlimit:22.9256;}
]]>
</style>
<path class="st0" d="M157.3,335.1c13-11.2,19.6-24.8,20.9-40.5c7-14.1,14.1-25.6,21.2-31.8l-7.8-14.3c-33.4-12-62.6-28.2-87.3-49.1
	L75,193.9c-29.3-19.7-53.3-42.5-70.7-68.4l13.8-50L18,56.8l12.8-19.5l7-18.3l67.5-14.6l35.3-0.5l35.6,22.3
	c11.2,27.9,19.1,56.7,6.8,91.7c25.9,7.5,48.8,10.1,56.5,1.8c1.1-1.2,3.1-2.8,4.8-0.6c4.2,5.7,10.6,8.6,18.2,9.2
	c5.4,1.3,6.5,10.3,11.3,13.4l3.7,39.4c5.6,31.9,31.5,11.1,35.7,8.8c11,6.1,15.3,12.6,13,22.6c1.6,11.5-5,22-6.2,34.6
	c-1.8,9.2-5.6,13.9-5.3,27.7l-3.8,19.8c0.2,10.7-5.3,20.9-18.2,30.6c-8.3-0.6-14.6,2-17.7,9.9c1.4,5.3,0.1,9.1-5.3,10.7
	c-13.7-6.6-19.1,0.9-25.5,6.8l0,0c-3.7-3.2-6.8-5.5-8.9-5.7c-1.9-0.2-2.9,1.5-5.6,3c-6.7-8-9.4-1.1-14.1-1.6
	c-9.1-5.8-11.4,0.2-15.8-2.7c-10.3-6.9-24-9.6-40.3-4.9L157.3,335.1z"/>
<path class="st2" d="M277.5,180.3l0.1,0.7c5.6,31.9,31.5,11.1,35.7,8.8c11,6.1,15.3,12.6,13,22.6c0.8,5.9-0.5,11.6-2.2,17.4
	l-0.3-0.2l-5.3,0.1l-6.5-1.8l-0.8-1.6l-3.4-0.2l-1.7,1.3l-0.4-1.3l-3-0.6l-0.2-2.2l-4.4-1.3l-2.2,0.5l-1.2-0.7l-0.8-2.8l-4.5,1.4
	l-11.1,2.1l-9.2,9.6l-6.3-6.6l-4.4-8.6l-3.5-5.3l0-7.5l4.9-3.7l-2-6.8l6-1.5l7.2-6l2.4-0.3l2.5-1.7L277.5,180.3z"/>
<path class="st1" d="M277.5,180.3l0.1,0.7c5.6,31.9,31.5,11.1,35.7,8.8c11,6.1,15.3,12.6,13,22.6c0.8,5.9-0.5,11.6-2.2,17.4
	l-0.3-0.2l-5.3,0.1l-6.5-1.8l-0.8-1.6l-3.4-0.2l-1.7,1.3l-0.4-1.3l-3-0.6l-0.2-2.2l-4.4-1.3l-2.2,0.5l-1.2-0.7l-0.8-2.8l-4.5,1.4
	l-11.1,2.1l-9.2,9.6l-6.3-6.6l-4.4-8.6l-3.5-5.3l0-7.5l4.9-3.7l-2-6.8l6-1.5l7.2-6l2.4-0.3l2.5-1.7L277.5,180.3z"/>
<path class="st2" d="M286.1,287.6L286.1,287.6L286.1,287.6L286.1,287.6z M310.7,299.3L310.7,299.3L310.7,299.3L310.7,299.3z
	 M324.1,229.8c-1.6,5.5-3.4,11.1-4,17.2c-1.8,9.2-5.6,13.9-5.3,27.7l-3.8,19.7l-2.8-0.5l-0.5-1.7l-2.9-1.1l-2,1.1l-0.6-1.8l-4,2.7
	l-1.2,1.1l-4.1-1.7l-4-0.1l-2.6-4.9l3-1.9l-1.6-1l-1.2-1l-4.5,0.7l-3.3-1.3l-0.2-3.9l0.2-3.4l1.4-1.7l1-3.8l1.8-2.4l-0.9-2.5
	l-1.9-1.2l9.3-12.7l4.1,2l1.3-0.4l1.8,0.8l0.7,2l2.4,0l-0.2-2.9l-1.7-1.6l0-1.9l-6.5-5.5l-3.7-1.1l-2.1-3.5l0.1-4.5l-0.1-3.2
	l1.1-3.9l0.3-3.9l2.5-3.4l4.5-1.4l0.8,2.8l1.2,0.7l2.2-0.5l4.4,1.3l0.2,2.2l3,0.6l0.4,1.3l1.7-1.3l3.4,0.2l0.8,1.6l6.5,1.8l5.3-0.1
	L324.1,229.8z"/>
<path class="st1" d="M286.1,287.6L286.1,287.6L286.1,287.6L286.1,287.6z M310.7,299.3L310.7,299.3L310.7,299.3L310.7,299.3z
	 M324.1,229.8c-1.6,5.5-3.4,11.1-4,17.2c-1.8,9.2-5.6,13.9-5.3,27.7l-3.8,19.7l-2.8-0.5l-0.5-1.7l-2.9-1.1l-2,1.1l-0.6-1.8l-4,2.7
	l-1.2,1.1l-4.1-1.7l-4-0.1l-2.6-4.9l3-1.9l-1.6-1l-1.2-1l-4.5,0.7l-3.3-1.3l-0.2-3.9l0.2-3.4l1.4-1.7l1-3.8l1.8-2.4l-0.9-2.5
	l-1.9-1.2l9.3-12.7l4.1,2l1.3-0.4l1.8,0.8l0.7,2l2.4,0l-0.2-2.9l-1.7-1.6l0-1.9l-6.5-5.5l-3.7-1.1l-2.1-3.5l0.1-4.5l-0.1-3.2
	l1.1-3.9l0.3-3.9l2.5-3.4l4.5-1.4l0.8,2.8l1.2,0.7l2.2-0.5l4.4,1.3l0.2,2.2l3,0.6l0.4,1.3l1.7-1.3l3.4,0.2l0.8,1.6l6.5,1.8l5.3-0.1
	L324.1,229.8z"/>
<path class="st2" d="M311,294.4l0,0.1c0.2,10.7-5.3,20.9-18.2,30.6c-8.3-0.6-14.6,2-17.7,9.9c1.4,5.3,0.1,9.1-5.3,10.7
	c-13.7-6.6-19.1,0.9-25.5,6.8l0,0c-3.7-3.2-6.8-5.5-8.9-5.7l-0.2,0l-0.1-0.2l0.2-4.1l-2.2-3.5l3.2-5.6l2.6-0.8l-1.3-17.6l5.2,2.2
	l12.9-4.7l4-6.8l5.8-1.9l3.7-4.1l6.3-1.9l6.3-2.9l3.8-3.6l0.6-4.1l2.6,4.9l4,0.1l4.1,1.7l1.2-1.1l4-2.7l0.6,1.8l2-1.1l2.9,1.1
	l0.5,1.7L311,294.4z"/>
<path class="st1" d="M244.2,352.5c-3.7-3.2-6.8-5.5-8.9-5.7l-0.2,0l-0.1-0.2l0.2-4.1l-2.2-3.5l3.2-5.6l2.6-0.8l-1.3-17.6l5.2,2.2
	l12.9-4.7l4-6.8l5.8-1.9l3.7-4.1l6.3-1.9l6.3-2.9l3.8-3.6l0.6-4.1l2.6,4.9l4,0.1l4.1,1.7l1.2-1.1l4-2.7l0.6,1.8l2-1.1l2.9,1.1
	l0.5,1.7l2.8,0.5 M311,294.4l0,0.1c0.2,10.7-5.3,20.9-18.2,30.6c-8.3-0.6-14.6,2-17.7,9.9c1.4,5.3,0.1,9.1-5.3,10.7
	c-13.7-6.6-19.1,0.9-25.5,6.8"/>
<path class="st2" d="M189.5,274.7c3.3-4.9,6.6-9,9.9-11.8l-5.2-9.5l0.4,0l4.2-2.3l2.3-5.1l3.6,0l4.8,7.5l2.3,4.8l1.7-1l1.3,2.8
	l-4.6,4.3l-4.5,5.8c-1.7,2.3-1.4,5.5-0.3,9l-3.4,4.9l-7.6-7.8l-4.3,0.5L189.5,274.7z"/>
<path class="st1" d="M189.5,274.7c3.3-4.9,6.6-9,9.9-11.8l-5.2-9.5l0.4,0l4.2-2.3l2.3-5.1l3.6,0l4.8,7.5l2.3,4.8l1.7-1l1.3,2.8
	l-4.6,4.3l-4.5,5.8c-1.7,2.3-1.4,5.5-0.3,9l-3.4,4.9l-7.6-7.8l-4.3,0.5L189.5,274.7z"/>
<path class="st2" d="M194.3,253.4l-2.6-4.8c-33.4-12-62.6-28.2-87.3-49.1L75,193.9l2-9.8l6.7-2.3l14.3-1.1l5.4-4.5l2.7-11.8
	l1.4-15.4l8.5-11.6l-0.2-3.9l4.4-1c-0.5-1.3-0.3-2.8,0.7-4.6c0.8-1.8,2.5-2.6,4.6-2.8l2.6,1.1l4.1-3.3l-1.4-4.1l4.3,2.4l38.2,2.6
	l15.1,8.3l2.5,9.9c-6.5,0.7-8.6,2.6-1.9,7l1.9,6l0.2,3.4l4.8,2.5l6.5,8.2l1.5,7.3l0.6,6.4l5.8,5.2l-0.8,5.5l-0.5,3.1l5.3,6.9
	l2.8,23.4l-1,3.8l-1.9,0.3l-2.9,5.6l1.7,3.1l-8.5,6.2l-3.6,0l-2.3,5.1l-4.2,2.3L194.3,253.4z"/>
<path class="st1" d="M194.3,253.4l-2.6-4.8c-33.4-12-62.6-28.2-87.3-49.1L75,193.9l2-9.8l6.7-2.3l14.3-1.1l5.4-4.5l2.7-11.8
	l1.4-15.4l8.5-11.6l-0.2-3.9l4.4-1c-0.5-1.3-0.3-2.8,0.7-4.6c0.8-1.8,2.5-2.6,4.6-2.8l2.6,1.1l4.1-3.3l-1.4-4.1l4.3,2.4l38.2,2.6
	l15.1,8.3l2.5,9.9c-6.5,0.7-8.6,2.6-1.9,7l1.9,6l0.2,3.4l4.8,2.5l6.5,8.2l1.5,7.3l0.6,6.4l5.8,5.2l-0.8,5.5l-0.5,3.1l5.3,6.9
	l2.8,23.4l-1,3.8l-1.9,0.3l-2.9,5.6l1.7,3.1l-8.5,6.2l-3.6,0l-2.3,5.1l-4.2,2.3L194.3,253.4z"/>
<polygon class="st2" points="213.2,239.9 217.4,243 220.3,241.9 221.4,240 233.1,237.9 240.2,242.2 238.1,255.6 228.7,262.8 
	230,268.3 226.4,269.7 224.7,269.3 225.8,267.4 224.6,264.3 217.7,263.8 214.9,260.2 213.6,257.4 211.9,258.4 209.6,253.6 
	204.8,246.1 "/>
<polygon class="st1" points="213.2,239.9 217.4,243 220.3,241.9 221.4,240 233.1,237.9 240.2,242.2 238.1,255.6 228.7,262.8 
	230,268.3 226.4,269.7 224.7,269.3 225.8,267.4 224.6,264.3 217.7,263.8 214.9,260.2 213.6,257.4 211.9,258.4 209.6,253.6 
	204.8,246.1 "/>
<polygon class="st2" points="233.9,284.1 236.5,282 235.4,278.9 233.8,273.1 237.7,270.2 240.7,267.7 245.4,266.1 251.2,266.1 
	256.2,266.6 263.1,267.6 266,270.1 273.4,268.5 272.8,272 270.6,272.6 269,274.6 258,280 256.9,284.1 252.9,285.9 249.6,283.8 
	246.7,284.8 245.3,285 244.2,287.2 241.2,287.7 239.9,291.4 237.3,291.6 "/>
<polygon class="st1" points="233.9,284.1 236.5,282 235.4,278.9 233.8,273.1 237.7,270.2 240.7,267.7 245.4,266.1 251.2,266.1 
	256.2,266.6 263.1,267.6 266,270.1 273.4,268.5 272.8,272 270.6,272.6 269,274.6 258,280 256.9,284.1 252.9,285.9 249.6,283.8 
	246.7,284.8 245.3,285 244.2,287.2 241.2,287.7 239.9,291.4 237.3,291.6 "/>
<path class="st5" d="M157.3,335.1c13-11.2,19.6-24.8,20.9-40.5c7-14.1,14.1-25.6,21.2-31.8l-7.8-14.3c-33.4-12-62.6-28.2-87.3-49.1
	L75,193.9c-29.3-19.7-53.3-42.5-70.7-68.4l13.8-50L18,56.8l12.8-19.5l7-18.3l67.5-14.6l35.3-0.5l35.6,22.3
	c11.2,27.9,19.1,56.7,6.8,91.7c25.9,7.5,48.8,10.1,56.5,1.8c1.1-1.2,3.1-2.8,4.8-0.6c4.2,5.7,10.6,8.6,18.2,9.2
	c5.4,1.3,6.5,10.3,11.3,13.4l3.7,39.4c5.6,31.9,31.5,11.1,35.7,8.8c11,6.1,15.3,12.6,13,22.6c1.6,11.5-5,22-6.2,34.6
	c-1.8,9.2-5.6,13.9-5.3,27.7l-3.8,19.8c0.2,10.7-5.3,20.9-18.2,30.6c-8.3-0.6-14.6,2-17.7,9.9c1.4,5.3,0.1,9.1-5.3,10.7
	c-13.7-6.6-19.1,0.9-25.5,6.8l0,0c-3.7-3.2-6.8-5.5-8.9-5.7c-1.9-0.2-2.9,1.5-5.6,3c-6.7-8-9.4-1.1-14.1-1.6
	c-9.1-5.8-11.4,0.2-15.8-2.7c-10.3-6.9-24-9.6-40.3-4.9L157.3,335.1z"/>
<g>
	<ellipse class="st4" cx="202.2" cy="265.1" rx="5.8" ry="6.8"/>
	<ellipse class="st4" cx="202.2" cy="265.1" rx="8.5" ry="10.1"/>
	<ellipse class="st4" cx="202.2" cy="265.1" rx="3.5" ry="4.2"/>
	<ellipse class="st4" cx="202.2" cy="265.1" rx="9.9" ry="11.8"/>
	<ellipse class="st4" cx="202.2" cy="265.1" rx="14.6" ry="17.4"/>
	<ellipse class="st4" cx="202.2" cy="265.1" rx="6.1" ry="7.3"/>
</g>
<g>
	<ellipse class="st4" cx="247.2" cy="273.1" rx="3.5" ry="4.2"/>
	<ellipse class="st4" cx="247.2" cy="273.1" rx="5.2" ry="6.2"/>
	<ellipse class="st4" cx="247.2" cy="273.1" rx="2.2" ry="2.6"/>
	<ellipse class="st4" cx="247.2" cy="273.1" rx="6.1" ry="7.3"/>
	<ellipse class="st4" cx="247.2" cy="273.1" rx="9" ry="10.7"/>
	<ellipse class="st4" cx="247.2" cy="273.1" rx="3.8" ry="4.5"/>
</g>
<g>
	<ellipse class="st4" cx="189.2" cy="226.1" rx="3.5" ry="4.2"/>
	<ellipse class="st4" cx="189.2" cy="226.1" rx="5.2" ry="6.2"/>
	<ellipse class="st4" cx="189.2" cy="226.1" rx="2.2" ry="2.6"/>
	<ellipse class="st4" cx="189.2" cy="226.1" rx="6.1" ry="7.3"/>
	<ellipse class="st4" cx="189.2" cy="226.1" rx="9" ry="10.7"/>
	<ellipse class="st4" cx="189.2" cy="226.1" rx="3.8" ry="4.5"/>
</g>
<g>
	<ellipse class="st4" cx="193.2" cy="239.1" rx="3.5" ry="4.2"/>
	<ellipse class="st4" cx="193.2" cy="239.1" rx="5.2" ry="6.2"/>
	<ellipse class="st4" cx="193.2" cy="239.1" rx="2.2" ry="2.6"/>
	<ellipse class="st4" cx="193.2" cy="239.1" rx="6.1" ry="7.3"/>
	<ellipse class="st4" cx="193.2" cy="239.1" rx="9" ry="10.7"/>
	<ellipse class="st4" cx="193.2" cy="239.1" rx="3.8" ry="4.5"/>
</g>
<g>
	<ellipse class="st4" cx="218.2" cy="256.1" rx="3.5" ry="4.2"/>
	<ellipse class="st4" cx="218.2" cy="256.1" rx="5.2" ry="6.2"/>
	<ellipse class="st4" cx="218.2" cy="256.1" rx="2.2" ry="2.6"/>
	<ellipse class="st4" cx="218.2" cy="256.1" rx="6.1" ry="7.3"/>
	<ellipse class="st4" cx="218.2" cy="256.1" rx="9" ry="10.7"/>
	<ellipse class="st4" cx="218.2" cy="256.1" rx="3.8" ry="4.5"/>
</g>
<g>
	<ellipse class="st4" cx="212.2" cy="246.1" rx="3.5" ry="4.2"/>
	<ellipse class="st4" cx="212.2" cy="246.1" rx="5.2" ry="6.2"/>
	<ellipse class="st4" cx="212.2" cy="246.1" rx="2.2" ry="2.6"/>
	<ellipse class="st4" cx="212.2" cy="246.1" rx="6.1" ry="7.3"/>
	<ellipse class="st4" cx="212.2" cy="246.1" rx="9" ry="10.7"/>
	<ellipse class="st4" cx="212.2" cy="246.1" rx="3.8" ry="4.5"/>
</g>
<g>
	<ellipse class="st4" cx="270.2" cy="340.1" rx="3.5" ry="4.2"/>
	<ellipse class="st4" cx="270.2" cy="340.1" rx="5.2" ry="6.2"/>
	<ellipse class="st4" cx="270.2" cy="340.1" rx="2.2" ry="2.6"/>
	<ellipse class="st4" cx="270.2" cy="340.1" rx="6.1" ry="7.3"/>
	<ellipse class="st4" cx="270.2" cy="340.1" rx="9" ry="10.7"/>
	<ellipse class="st4" cx="270.2" cy="340.1" rx="3.8" ry="4.5"/>
</g>
<g>
	<ellipse class="st4" cx="308.2" cy="271.1" rx="3.5" ry="4.2"/>
	<ellipse class="st4" cx="308.2" cy="271.1" rx="5.2" ry="6.2"/>
	<ellipse class="st4" cx="308.2" cy="271.1" rx="2.2" ry="2.6"/>
	<ellipse class="st4" cx="308.2" cy="271.1" rx="6.1" ry="7.3"/>
	<ellipse class="st4" cx="308.2" cy="271.1" rx="9" ry="10.7"/>
	<ellipse class="st4" cx="308.2" cy="271.1" rx="3.8" ry="4.5"/>
</g>
<g>
	<ellipse class="st4" cx="311.2" cy="260.1" rx="3.5" ry="4.2"/>
	<ellipse class="st4" cx="311.2" cy="260.1" rx="5.2" ry="6.2"/>
	<ellipse class="st4" cx="311.2" cy="260.1" rx="2.2" ry="2.6"/>
	<ellipse class="st4" cx="311.2" cy="260.1" rx="6.1" ry="7.3"/>
	<ellipse class="st4" cx="311.2" cy="260.1" rx="9" ry="10.7"/>
	<ellipse class="st4" cx="311.2" cy="260.1" rx="3.8" ry="4.5"/>
</g>
<g>
	<ellipse class="st4" cx="307.2" cy="247.1" rx="3.5" ry="4.2"/>
	<ellipse class="st4" cx="307.2" cy="247.1" rx="5.2" ry="6.2"/>
	<ellipse class="st4" cx="307.2" cy="247.1" rx="2.2" ry="2.6"/>
	<ellipse class="st4" cx="307.2" cy="247.1" rx="6.1" ry="7.3"/>
	<ellipse class="st4" cx="307.2" cy="247.1" rx="9" ry="10.7"/>
	<ellipse class="st4" cx="307.2" cy="247.1" rx="3.8" ry="4.5"/>
</g>
<g>
	<ellipse class="st4" cx="319.2" cy="202.1" rx="3.5" ry="4.2"/>
	<ellipse class="st4" cx="319.2" cy="202.1" rx="5.2" ry="6.2"/>
	<ellipse class="st4" cx="319.2" cy="202.1" rx="2.2" ry="2.6"/>
	<ellipse class="st4" cx="319.2" cy="202.1" rx="6.1" ry="7.3"/>
	<ellipse class="st4" cx="319.2" cy="202.1" rx="9" ry="10.7"/>
	<ellipse class="st4" cx="319.2" cy="202.1" rx="3.8" ry="4.5"/>
</g>
<g>
	<path class="st3" d="M189.2,232.6c0,0.7,0.4,1.6,0.4,1.6c0.1,0.3,0.3,0.7,0.5,0.9l3.3,4.9c0.1,0.1,0.1,0.1,0.1,0l3.3-4.9
		c0.2-0.2,0.4-0.7,0.5-0.9c0,0,0.4-0.9,0.4-1.6c0-2.3-1.9-4.2-4.2-4.2C191.1,228.4,189.2,230.3,189.2,232.6 M193.4,235.1
		c-1.4,0-2.5-1.1-2.5-2.5s1.1-2.5,2.5-2.5c1.4,0,2.5,1.1,2.5,2.5S194.8,235.1,193.4,235.1z"/>
	<path class="st3" d="M184.9,219.9c0,0.7,0.4,1.6,0.4,1.6c0.1,0.3,0.3,0.7,0.5,0.9l3.3,4.9c0.1,0.1,0.1,0.1,0.1,0l3.3-4.9
		c0.2-0.2,0.4-0.7,0.5-0.9c0,0,0.4-0.9,0.4-1.6c0-2.3-1.9-4.2-4.2-4.2S184.9,217.6,184.9,219.9 M189.1,222.4c-1.4,0-2.5-1.1-2.5-2.5
		c0-1.4,1.1-2.5,2.5-2.5c1.4,0,2.5,1.1,2.5,2.5C191.7,221.3,190.5,222.4,189.1,222.4z"/>
	<path class="st3" d="M207.9,240.7c0,0.7,0.4,1.6,0.4,1.6c0.1,0.3,0.3,0.7,0.5,0.9l3.3,4.9c0.1,0.1,0.1,0.1,0.1,0l3.3-4.9
		c0.2-0.2,0.4-0.7,0.5-0.9c0,0,0.4-0.9,0.4-1.6c0-2.3-1.9-4.2-4.2-4.2S207.9,238.3,207.9,240.7 M212.1,243.2c-1.4,0-2.5-1.1-2.5-2.5
		c0-1.4,1.1-2.5,2.5-2.5c1.4,0,2.5,1.1,2.5,2.5C214.6,242,213.5,243.2,212.1,243.2z"/>
	<path class="st3" d="M214.5,249.5c0,0.7,0.4,1.6,0.4,1.6c0.1,0.3,0.3,0.7,0.5,0.9l3.3,4.9c0.1,0.1,0.1,0.1,0.1,0l3.3-4.9
		c0.2-0.2,0.4-0.7,0.5-0.9c0,0,0.4-0.9,0.4-1.6c0-2.3-1.9-4.2-4.2-4.2S214.5,247.2,214.5,249.5 M218.7,252c-1.4,0-2.5-1.1-2.5-2.5
		c0-1.4,1.1-2.5,2.5-2.5s2.5,1.1,2.5,2.5C221.2,250.9,220.1,252,218.7,252z"/>
	<path class="st3" d="M242.9,268.1c0,0.7,0.4,1.6,0.4,1.6c0.1,0.3,0.3,0.7,0.5,0.9l3.3,4.9c0.1,0.1,0.1,0.1,0.1,0l3.3-4.9
		c0.2-0.2,0.4-0.7,0.5-0.9c0,0,0.4-0.9,0.4-1.6c0-2.3-1.9-4.2-4.2-4.2C244.8,263.9,242.9,265.8,242.9,268.1 M247.1,270.6
		c-1.4,0-2.5-1.1-2.5-2.5c0-1.4,1.1-2.5,2.5-2.5s2.5,1.1,2.5,2.5C249.7,269.5,248.5,270.6,247.1,270.6z"/>
	<path class="st3" d="M303.5,241c0,0.7,0.4,1.6,0.4,1.6c0.1,0.3,0.3,0.7,0.5,0.9l3.3,4.9c0.1,0.1,0.1,0.1,0.2,0l3.3-4.9
		c0.2-0.2,0.4-0.7,0.5-0.9c0,0,0.4-0.9,0.4-1.6c0-2.3-1.9-4.2-4.2-4.2C305.4,236.8,303.5,238.7,303.5,241 M307.7,243.5
		c-1.4,0-2.5-1.1-2.5-2.5c0-1.4,1.1-2.5,2.5-2.5c1.4,0,2.5,1.1,2.5,2.5C310.2,242.4,309.1,243.5,307.7,243.5z"/>
	<path class="st3" d="M307.4,253.2c0,0.7,0.4,1.6,0.4,1.6c0.1,0.3,0.3,0.7,0.5,0.9l3.3,4.9c0.1,0.1,0.1,0.1,0.2,0l3.3-4.9
		c0.2-0.2,0.4-0.7,0.5-0.9c0,0,0.4-0.9,0.4-1.6c0-2.3-1.9-4.2-4.2-4.2C309.3,249,307.4,250.9,307.4,253.2 M311.6,255.7
		c-1.4,0-2.5-1.1-2.5-2.5c0-1.4,1.1-2.5,2.5-2.5c1.4,0,2.5,1.1,2.5,2.5C314.1,254.6,313,255.7,311.6,255.7z"/>
	<path class="st3" d="M304.2,264.4c0,0.7,0.4,1.6,0.4,1.6c0.1,0.3,0.3,0.7,0.5,0.9l3.3,4.9c0.1,0.1,0.1,0.1,0.1,0l3.3-4.9
		c0.2-0.2,0.4-0.7,0.5-0.9c0,0,0.4-0.9,0.4-1.6c0-2.3-1.9-4.2-4.2-4.2C306,260.2,304.2,262.1,304.2,264.4 M308.4,266.9
		c-1.4,0-2.5-1.1-2.5-2.5c0-1.4,1.1-2.5,2.5-2.5s2.5,1.1,2.5,2.5C310.9,265.8,309.7,266.9,308.4,266.9z"/>
	<path class="st3" d="M315.5,195.5c0,0.7,0.4,1.6,0.4,1.6c0.1,0.3,0.3,0.7,0.5,0.9l3.3,4.9c0.1,0.1,0.1,0.1,0.1,0l3.3-4.9
		c0.2-0.2,0.4-0.7,0.5-0.9c0,0,0.4-0.9,0.4-1.6c0-2.3-1.9-4.2-4.2-4.2S315.5,193.2,315.5,195.5 M319.7,198c-1.4,0-2.5-1.1-2.5-2.5
		s1.1-2.5,2.5-2.5c1.4,0,2.5,1.1,2.5,2.5S321.1,198,319.7,198z"/>
	<path class="st3" d="M266.5,333.9c0,0.7,0.4,1.6,0.4,1.6c0.1,0.3,0.3,0.7,0.5,0.9l3.3,4.9c0.1,0.1,0.1,0.1,0.1,0l3.3-4.9
		c0.2-0.2,0.4-0.7,0.5-0.9c0,0,0.4-0.9,0.4-1.6c0-2.3-1.9-4.2-4.2-4.2C268.3,329.7,266.5,331.6,266.5,333.9 M270.7,336.4
		c-1.4,0-2.5-1.1-2.5-2.5c0-1.4,1.1-2.5,2.5-2.5c1.4,0,2.5,1.1,2.5,2.5C273.2,335.3,272,336.4,270.7,336.4z"/>
	<path class="st3" d="M194.4,251.1c0,1.3,0.6,2.9,0.6,2.9c0.2,0.5,0.6,1.2,0.9,1.7l5.9,8.9c0.1,0.2,0.2,0.2,0.3,0l5.9-8.9
		c0.3-0.4,0.7-1.2,0.9-1.7c0,0,0.6-1.6,0.6-2.9c0-4.2-3.4-7.5-7.5-7.5C197.8,243.6,194.4,247,194.4,251.1 M202,255.6
		c-2.5,0-4.5-2-4.5-4.5s2-4.5,4.5-4.5c2.5,0,4.5,2,4.5,4.5S204.5,255.6,202,255.6z"/>
</g>
</svg>
