<?xml version="1.0" encoding="utf-8"?>
<!-- Generator: Adobe Illustrator 16.0.0, SVG Export Plug-In . SVG Version: 6.00 Build 0)  -->
<!DOCTYPE svg PUBLIC "-//W3C//DTD SVG 1.1//EN" "http://www.w3.org/Graphics/SVG/1.1/DTD/svg11.dtd">
<svg version="1.1" id="Capa_1" xmlns="http://www.w3.org/2000/svg" xmlns:xlink="http://www.w3.org/1999/xlink" x="0px" y="0px"
	 width="216px" height="187.2px" viewBox="0 0 216 187.2" style="enable-background:new 0 0 216 187.2;" xml:space="preserve">
<style type="text/css">
<![CDATA[
	.st0{fill:#E0E0E0;}
	.st1{fill:#E8505B;}
	.st2{fill:#EB996E;}
	.st3{fill:#EBEBEB;}
	.st4{fill:#263238;}
	.st5{fill:#F5F5F5;}
	.st6{clip-path:url(#SVGID_2_);}
	.st7{clip-path:url(#SVGID_4_);}
	.st8{clip-path:url(#SVGID_6_);}
	.st9{clip-path:url(#SVGID_8_);}
	.st10{fill:#FAFAFA;}
	.st11{opacity:0.2;}
	.st12{opacity:0.3;}
	.st13{opacity:0.4;}
	.st14{opacity:0.6;}
	.st15{fill:#FFBE9D;}
	.st16{clip-path:url(#SVGID_10_);}
	.st17{clip-path:url(#SVGID_12_);}
	.st18{clip-path:url(#SVGID_14_);}
	.st19{fill:#455A64;}
]]>
</style>
<path class="st15" d="M135.8,60.4c0,0,9.7,1.6,10.5,1.8c0.8,0.2,3.9,1.7,4,2.6c0.2,0.9,0,3.7,0,3.7s-0.6,0.5-0.9-0.5
	c-0.3-0.9-0.3-2.7-0.3-2.7l-1.7-0.7l0.9,1.7l0.2,3.9c0,0-1.2-0.1-1.4-1c-0.2-0.9-0.2-2-0.2-2l-1.3-1.1l0.9,1.3l0.3,2.8
	c0,0-0.9,0.3-1.2-0.3c-0.3-0.6-0.3-2.5-0.3-2.5l-3.5-1.2l-2.3,1.3l-4.4-2.5L135.8,60.4z"/>
<path class="st1" d="M101.8,36.4c0,0.2,11.7,16.2,11.7,16.2l23.4,7.3l-1.1,8.8l-28.7-5.8L97,51.3L101.8,36.4z"/>
<g class="st11">
	<g>
		<defs>
			<rect id="SVGID_1_" x="97" y="36.4" width="39.9" height="32.3"/>
		</defs>
		<clipPath id="SVGID_2_">
			<use xlink:href="#SVGID_1_"  style="overflow:visible;"/>
		</clipPath>
		<path class="st6" d="M101.8,36.4c0,0.2,11.7,16.2,11.7,16.2l23.4,7.3l-1.1,8.8l-28.7-5.8L97,51.3L101.8,36.4z"/>
	</g>
</g>
<path class="st5" d="M61.1,67.8H13.3c-1,0-1.8-0.8-1.8-1.8v-5.6c0-1,0.8-1.8,1.8-1.8h47.8c1,0,1.8,0.8,1.8,1.8V66
	C62.9,67,62.1,67.8,61.1,67.8"/>
<path class="st4" d="M61.1,67.8c0,0,0.1,0,0.3,0c0.2,0,0.5-0.1,0.8-0.4c0.3-0.2,0.6-0.6,0.7-1.2c0-0.6,0-1.2,0-2c0-0.7,0-1.6,0-2.5
	c0-0.5,0-0.9,0-1.4c0-0.5-0.2-1-0.6-1.3c-0.2-0.2-0.4-0.3-0.7-0.4c-0.3-0.1-0.5-0.1-0.8-0.1c-0.6,0-1.2,0-1.8,0c-1.2,0-2.5,0-3.8,0
	c-10.7,0-25.5,0-41.8,0c-0.5,0-0.9,0.2-1.2,0.5c-0.3,0.3-0.5,0.8-0.4,1.3c0,1,0,2,0,3c0,0.5,0,1,0,1.5v0.7c0,0.3,0,0.5,0.1,0.7
	c0.1,0.4,0.4,0.8,0.8,1c0.2,0.1,0.4,0.2,0.6,0.2c0.2,0,0.5,0,0.7,0c3.9,0,7.6,0,11.1,0c7.1,0,13.5,0,18.8,0c5.3,0,9.7,0,12.7,0
	c1.5,0,2.6,0,3.4,0c0.4,0,0.7,0,0.9,0C61,67.8,61.1,67.8,61.1,67.8s-0.1,0-0.3,0c-0.2,0-0.5,0-0.9,0c-0.8,0-2,0-3.4,0
	c-3,0-7.3,0-12.7,0c-5.4,0-11.7,0-18.8,0c-3.5,0-7.3,0-11.1,0c-0.2,0-0.5,0-0.7,0c-0.3,0-0.5-0.1-0.7-0.2c-0.5-0.3-0.8-0.7-1-1.2
	c-0.1-0.3-0.1-0.5-0.1-0.8l0-0.7c0-0.5,0-1,0-1.5c0-1,0-2,0-3c0-0.5,0.1-1.1,0.5-1.5c0.4-0.4,0.9-0.7,1.5-0.7c16.3,0,31.1,0,41.8,0
	c1.3,0,2.6,0,3.8,0c0.6,0,1.2,0,1.8,0c0.3,0,0.6,0,0.9,0.1c0.3,0.1,0.5,0.2,0.7,0.4c0.4,0.4,0.7,0.9,0.7,1.4c0,0.5,0,1,0,1.4
	c0,0.9,0,1.7,0,2.5c0,0.8,0,1.4,0,2c-0.1,0.6-0.4,1-0.7,1.3c-0.3,0.2-0.6,0.3-0.8,0.3C61.2,67.8,61.1,67.8,61.1,67.8"/>
<path class="st4" d="M165.1,161.9c-0.2,13.6,10.6,24.7,24.2,24.9c13.6,0.2,24.7-10.6,24.9-24.2c0.2-13.6-10.6-24.7-24.2-24.9
	C176.4,137.5,165.2,148.3,165.1,161.9"/>
<path class="st4" d="M165.1,161.8C165.1,161.8,165.1,161.9,165.1,161.8c-0.2,13.6,10.6,24.8,24.2,25c13.6,0.2,24.7-10.6,24.9-24.2
	c0,0,0,0,0-0.1L165.1,161.8z"/>
<path class="st10" d="M172.4,162c-0.1,9.5,7.5,17.4,17,17.5c9.5,0.1,17.4-7.5,17.5-17c0.1-9.5-7.5-17.4-17-17.5
	C180.3,144.8,172.5,152.5,172.4,162"/>
<path class="st0" d="M189.9,145c-9.5-0.1-17.4,7.5-17.5,17l34.5,0.5C207,153,199.4,145.1,189.9,145"/>
<path class="st4" d="M179.1,162.1c-0.1,5.8,4.6,10.6,10.4,10.7c5.8,0.1,10.6-4.6,10.7-10.4c0.1-5.8-4.6-10.6-10.4-10.7
	C184,151.6,179.2,156.3,179.1,162.1"/>
<path class="st1" d="M178,126.2c0,0,25.2-7.6,35.6,19.7l-52.7,16.3L178,126.2z"/>
<path class="st4" d="M13.4,161.9c-0.2,13.6,10.6,24.7,24.2,24.9c13.6,0.2,24.7-10.6,24.9-24.2c0.2-13.6-10.6-24.7-24.2-24.9
	C24.8,137.5,13.6,148.3,13.4,161.9"/>
<path class="st4" d="M13.4,161.8C13.4,161.8,13.4,161.9,13.4,161.8c-0.2,13.6,10.6,24.8,24.2,25c13.6,0.2,24.7-10.6,24.9-24.2
	c0,0,0,0,0-0.1L13.4,161.8z"/>
<path class="st10" d="M20.7,162c-0.1,9.5,7.5,17.4,17,17.5c9.5,0.1,17.4-7.5,17.5-17c0.1-9.5-7.5-17.4-17-17.5
	C28.7,144.8,20.9,152.5,20.7,162"/>
<path class="st4" d="M27.5,162.1c-0.1,5.8,4.6,10.6,10.4,10.7c5.8,0.1,10.6-4.6,10.7-10.4c0.1-5.8-4.6-10.6-10.4-10.7
	C32.3,151.6,27.6,156.3,27.5,162.1"/>
<path class="st19" d="M72.9,152.4c-0.1,0.1-12.9-2-12.9-2c-1.4,1.8-3.5,2.9-5.8,3.1c-5.5,0.3-10.9,0.5-15.6,0.7
	c-4.4,0.2-7.7,3.9-7.6,8.3v0c0.2,4.1,3.5,7.4,7.6,7.6l27.2,1.1c4.5,0.2,10.4-2.5,13.2-6L72.9,152.4z"/>
<path class="st1" d="M6.1,141.5c0,0-1.2-24,21.3-28.9v-3.1h78.8v7.3c0,0-11.6,13.9-7.8,25.5c3.8,11.6,5,12.8,5,12.8h44.9
	c0,0,5.4-6.8,5.7-17c0.2-10.2-4-27.5-7.1-38.6c-2.9-10.1-4.7-18.5-4.7-18.5l13.5-4.5c0,0,24.9,32.6,25.9,34.4
	c1,1.8,4.5,6.1,3.7,15.5c-0.8,9.4-23.2,38.3-29.1,41.5c-5.9,3.3-11.2,3.5-16.5,4.3c-4.6,0.7-38.6,0.2-47.5,0.1
	c-3.1,0-6.1-0.8-8.8-2.4c-2.7-1.6-4.7-4.3-6.9-8.7l-4.7-9.2L6.1,141.5z"/>
<path class="st19" d="M12.1,139.8l-9.9,15.6c-1.3,2,0.8,4.5,3,3.6c1.1-0.5,2.2-1.2,3.3-2.3C13,152.4,21.1,141,21.1,141L12.1,139.8z"
	/>
<path class="st4" d="M83.3,142.6c0,0,0-0.1,0.1-0.2c0-0.2,0.1-0.4,0.2-0.7c0.2-0.6,0.4-1.4,0.5-2.6c0.3-2.2,0.1-5.7-1.5-9.4
	c-0.8-1.9-2-3.8-3.7-5.5c-1.6-1.7-3.7-3.3-6-4.6c-2.4-1.3-5-2.3-7.9-2.9s-5.9-0.9-9-0.9c-3.1,0-6.1,0.3-9,0.7
	c-2.9,0.4-5.7,0.9-8.3,1.5c-5.3,1.2-9.8,2.9-13.4,4.9c-3.6,2-6.1,4.2-7.6,5.8c-0.8,0.8-1.4,1.5-1.7,2c-0.2,0.2-0.3,0.4-0.4,0.5
	c-0.1,0.1-0.1,0.2-0.2,0.2c0,0,0.7-1.1,2.2-2.8c1.6-1.7,4.1-3.9,7.6-5.9c3.5-2.1,8.1-3.8,13.4-5c2.6-0.6,5.4-1.1,8.4-1.5
	c2.9-0.4,6-0.7,9.1-0.7c3.1,0,6.2,0.3,9.1,0.9c2.9,0.7,5.6,1.7,7.9,3c2.4,1.3,4.4,2.9,6.1,4.7c1.6,1.8,2.9,3.7,3.7,5.6
	c1.7,3.8,1.7,7.2,1.5,9.5c-0.2,1.1-0.4,2-0.6,2.6c-0.1,0.3-0.2,0.5-0.2,0.6C83.4,142.6,83.3,142.6,83.3,142.6"/>
<path class="st5" d="M78.8,137.2c0,0,0.1-0.4,0.3-1.1c0.2-0.7,0.3-1.7,0.1-3c-0.2-1.3-0.7-2.7-1.5-4.2c-0.4-0.7-0.9-1.5-1.5-2.2
	c-0.6-0.7-1.2-1.4-2-2c-1.5-1.2-3.1-2.1-4.7-2.7c-1.6-0.6-3-1-4.3-1.2c-1.3-0.2-2.3-0.3-3-0.3c-0.7,0-1.1-0.1-1.1-0.1
	c0,0,0.1,0,0.3,0c0.2,0,0.5,0,0.8,0c0.7,0,1.8,0.1,3,0.2c1.3,0.2,2.8,0.5,4.4,1.1c1.6,0.6,3.3,1.5,4.8,2.8c0.8,0.6,1.4,1.3,2,2.1
	c0.6,0.7,1.1,1.5,1.5,2.2c0.8,1.5,1.3,3,1.4,4.3c0.1,1.3,0,2.3-0.2,3c-0.1,0.4-0.2,0.6-0.3,0.8C78.9,137.2,78.8,137.3,78.8,137.2"/>
<g class="st13">
	<g>
		<defs>
			<rect id="SVGID_3_" x="63.4" y="116.3" width="25.8" height="27.9"/>
		</defs>
		<clipPath id="SVGID_4_">
			<use xlink:href="#SVGID_3_"  style="overflow:visible;"/>
		</clipPath>
		<path class="st7" d="M63.4,116.3c4.4,0.8,8.3,2.4,11.9,4.8c3.6,2.4,6.4,5.8,8,9.9c1.6,4.1,1.3,9.4-0.3,12.8l5.6,0.5
			c1.9-6.3-0.2-13.9-4.7-18.8C78.5,119.6,71.2,116.3,63.4,116.3"/>
	</g>
</g>
<path class="st19" d="M61.6,109.5H12.8c-2.8,0-5.2-2.3-5.2-5.2V72.5c0-2.8,2.3-5.2,5.2-5.2h48.7c2.8,0,5.2,2.3,5.2,5.2v31.8
	C66.7,107.2,64.4,109.5,61.6,109.5"/>
<path class="st4" d="M66.7,76.7c0,0.1-13.3,0.2-29.7,0.2c-16.4,0-29.7-0.1-29.7-0.2c0-0.1,13.3-0.2,29.7-0.2
	C53.5,76.6,66.7,76.7,66.7,76.7"/>
<path class="st4" d="M106.2,112.3c0,0.1-17.7,0.2-39.6,0.2c-21.9,0-39.6-0.1-39.6-0.2c0-0.1,17.7-0.2,39.6-0.2
	C88.5,112.1,106.2,112.2,106.2,112.3"/>
<path class="st19" d="M106.3,109.5c0,0,1.3-1.6,1.4-3.5c0.1-2-0.8-4.5-2.9-4.5H77.6c-4.4,0-8,3.6-8,8H106.3z"/>
<path class="st1" d="M142.2,80.9l-4.7-9.9c-1.3-2.8-0.3-6.1,2.4-7.7l14.2-8.4c0.7-0.4,1.6-0.7,2.4-0.7h3.1l1.2,20l-4.7,1.8l3,4.9
	L142.2,80.9z"/>
<path class="st3" d="M159.5,54.9c0,0,4.8,1.1,5.5,8.6c0.6,7.5-4.3,9.8-4.3,9.8L159.5,54.9z"/>
<path class="st4" d="M143.8,67.2c0,0-9.8,4.6-11,5.4c-0.8,0.5-1.5,1.5-0.9,3.1c1.1,2.8,5.7,0.2,5.7,0.2l9.1-4.6c0,0,3.5-1.7,2.2-3.7
	C147.5,65.2,143.8,67.2,143.8,67.2"/>
<path class="st15" d="M130,65.5c0,0,9.2,1.6,10,1.8c0.8,0.2,3.9,1.7,4,2.6c0.2,0.9,0,3.7,0,3.7s-0.6,0.5-0.9-0.5
	c-0.3-0.9-0.3-2.7-0.3-2.7l-1.7-0.7l0.9,1.7l0.2,3.9c0,0-1.2-0.1-1.4-1c-0.2-0.9-0.2-2-0.2-2l-1.3-1.1l0.9,1.3l0.3,2.8
	c0,0-0.9,0.3-1.2-0.3c-0.3-0.6-0.3-2.5-0.3-2.5l-3.5-1.2l-2.3,1.3l-3.7-2L130,65.5z"/>
<path class="st4" d="M144.3,52.7c0,3.7-1.7,6.7-3.8,6.7c-2.1,0-3.8-3-3.8-6.7c0-3.7,1.7-6.7,3.8-6.7
	C142.6,45.9,144.3,48.9,144.3,52.7"/>
<path class="st4" d="M141.1,57.3l2.1,7.3c0.9-0.5,1.1-1.4,1-2.1c-0.5-2.5-0.8-4.3-1.4-6.5C142.7,55.7,141.1,57.3,141.1,57.3"/>
<g class="st13">
	<g>
		<defs>
			<rect id="SVGID_5_" x="96.7" y="77.6" width="73.6" height="87.9"/>
		</defs>
		<clipPath id="SVGID_6_">
			<use xlink:href="#SVGID_5_"  style="overflow:visible;"/>
		</clipPath>
		<path class="st8" d="M99.5,145.4c-0.2-0.6-0.4-1.2-0.6-1.8c-0.2-0.6-0.4-1.2-0.6-1.8c-0.3-1-0.5-2.1-0.5-2.7
			c-3.5,14.4,1.9,24.6,11.2,25.3c13.6,1,30.1,1.8,36.8,0c12.2-3.2,16.7-13.4,17.8-15.1c1.1-1.7,10.8-19.4,4.8-36.5
			s-16.3-35.2-16.3-35.2l-9.9,3.3c0,0,1.8,8.4,4.7,18.5c3.2,11.1,7.4,28.5,7.1,38.6c-0.2,10.2-5.7,17-5.7,17h-44.9
			C103.4,155.1,102.5,154.1,99.5,145.4"/>
	</g>
</g>
<path class="st1" d="M4.3,137.7l0.3-3.4l81.9,9.4c4.6,0.5,7.8,4.9,7,9.4l-0.4,2.1L8.4,142.9C5.9,142.6,4.1,140.3,4.3,137.7"/>
<g class="st14">
	<g>
		<defs>
			<rect id="SVGID_7_" x="4.3" y="134.3" width="89.4" height="21"/>
		</defs>
		<clipPath id="SVGID_8_">
			<use xlink:href="#SVGID_7_"  style="overflow:visible;"/>
		</clipPath>
		<path class="st9" d="M4.3,137.7l0.3-3.4l81.9,9.4c4.6,0.5,7.8,4.9,7,9.4l-0.4,2.1L8.4,142.9C5.9,142.6,4.1,140.3,4.3,137.7"/>
	</g>
</g>
<g class="st12">
	<g>
		<defs>
			<rect id="SVGID_9_" x="163.6" y="125.2" width="27.3" height="35.4"/>
		</defs>
		<clipPath id="SVGID_10_">
			<use xlink:href="#SVGID_9_"  style="overflow:visible;"/>
		</clipPath>
		<path class="st16" d="M163.6,160.6c0,0,18-19.8,21.7-35.4c1.2,0,4.2,0.1,5.6,0.4C190.9,125.6,180.2,154.6,163.6,160.6"/>
	</g>
</g>
<path class="st4" d="M185,118.2c0,0,0,0.2,0.1,0.5c0,0.3,0.1,0.8,0.2,1.5c0.1,1.3,0.2,3.1-0.1,5.4c-0.3,2.3-1.1,4.9-2.4,7.6
	c-1.3,2.7-3,5.6-4.8,8.5c-3.6,5.9-7.6,10.8-10.6,14.3c-1.5,1.7-2.7,3.1-3.5,4.1c-0.4,0.5-0.7,0.8-1,1.1c-0.2,0.2-0.3,0.4-0.4,0.4
	s0.1-0.1,0.3-0.4c0.2-0.3,0.5-0.7,0.9-1.1c0.8-1,2-2.4,3.4-4.1c2.9-3.5,6.9-8.4,10.5-14.3c1.8-3,3.5-5.8,4.8-8.5
	c1.3-2.7,2.1-5.3,2.4-7.5c0.4-2.2,0.3-4.1,0.2-5.3c0-0.6-0.1-1.1-0.1-1.5C185,118.4,185,118.2,185,118.2"/>
<path class="st4" d="M153.9,160.5c-0.1,0.1-1.4-1.1-2.9-2.6c-1.5-1.5-2.7-2.8-2.7-2.8c0.1-0.1,1.4,1.1,2.9,2.6
	C152.7,159.2,153.9,160.4,153.9,160.5"/>
<path class="st4" d="M100.4,159.9c-0.1,0,0.4-1.2,1.3-2.6c0.9-1.3,1.8-2.2,1.9-2.2c0.1,0.1-0.8,1-1.6,2.4
	C101.1,158.8,100.4,159.9,100.4,159.9"/>
<path class="st4" d="M65.7,171.3c-0.1-0.1,1.3-0.9,2.5-3.1c0.6-1.1,1.1-2.5,1.2-4.1c0.1-1.6-0.1-3.4-0.9-5.1c-0.8-1.7-2.1-3-3.4-3.9
	c-1.3-0.9-2.7-1.4-4-1.7c-2.4-0.5-4,0-4-0.1c0,0,0.1,0,0.3-0.1c0.2,0,0.4-0.1,0.8-0.2c0.7-0.1,1.7-0.1,3,0.1
	c1.2,0.2,2.7,0.7,4.1,1.6c1.4,0.9,2.7,2.3,3.6,4c0.8,1.8,1,3.6,0.9,5.3c-0.2,1.7-0.7,3.1-1.3,4.2c-0.6,1.1-1.3,1.9-1.8,2.3
	c-0.2,0.3-0.5,0.4-0.6,0.5C65.8,171.3,65.7,171.4,65.7,171.3"/>
<path class="st4" d="M35.8,165.1c-0.1,0-0.2-1.3-0.3-2.9s-0.1-2.9,0-2.9c0.1,0,0.2,1.3,0.3,2.9S35.9,165.1,35.8,165.1"/>
<path class="st4" d="M38,165.1c-0.1,0-0.3-1.3-0.5-2.9c-0.2-1.6-0.3-2.9-0.2-2.9c0.1,0,0.3,1.3,0.5,2.9
	C38,163.7,38.1,165.1,38,165.1"/>
<path class="st4" d="M71.8,109.5c0,0.1-10,0.2-22.2,0.2c-12.3,0-22.2-0.1-22.2-0.2c0-0.1,10-0.2,22.2-0.2
	C61.8,109.3,71.8,109.4,71.8,109.5"/>
<path class="st4" d="M39.5,109.4c-0.1,0-0.2-11.4-0.2-25.5c0-14.1,0.1-25.5,0.2-25.5c0.1,0,0.2,11.4,0.2,25.5
	C39.7,98,39.6,109.4,39.5,109.4"/>
<path class="st4" d="M33.4,109.4c-0.1,0,0.3-11.4,1-25.5c0.6-14.1,1.2-25.5,1.3-25.4c0.1,0-0.3,11.4-1,25.5
	C34.1,98,33.5,109.4,33.4,109.4"/>
<path class="st19" d="M19.6,178.9c0,0-0.1-0.1-0.3-0.3c-0.2-0.2-0.4-0.4-0.7-0.8c-0.6-0.7-1.4-1.8-2.2-3.3
	c-1.7-2.9-3.3-7.3-3.3-12.5c0-5.1,1.7-9.6,3.4-12.5c0.8-1.4,1.6-2.5,2.2-3.2c0.3-0.4,0.5-0.6,0.7-0.8c0.2-0.2,0.3-0.3,0.3-0.3
	c0,0-0.1,0.1-0.2,0.3c-0.1,0.2-0.4,0.5-0.7,0.8c-0.6,0.7-1.3,1.8-2.1,3.3c-1.6,2.9-3.2,7.3-3.3,12.3c0,5.1,1.6,9.5,3.2,12.4
	c0.8,1.4,1.6,2.6,2.1,3.3c0.3,0.4,0.5,0.6,0.7,0.8C19.5,178.8,19.6,178.9,19.6,178.9"/>
<path class="st19" d="M105.7,133.1l-0.2,0.4l-3.6,6.8l-5.1,4.9l10.1,13.5l8.4-1.4c0,0-0.9-1.9-5.2-2.3l-1.6-8.1l6-9.2L105.7,133.1z"
	/>
<polygon class="st0" points="96.8,145.2 107,158.7 115.4,157.3 114.3,156.2 107.3,156.9 97.9,144.1 "/>
<path class="st4" d="M109.6,151.3c0,0.1-0.6-0.1-1.2,0c-0.7,0.1-1.1,0.5-1.2,0.4c-0.1-0.1,0.3-0.6,1.1-0.8
	C109.1,150.8,109.6,151.2,109.6,151.3"/>
<path class="st4" d="M109.1,149.3c-0.1,0.1-0.5-0.4-1.2-0.4c-0.7,0-1.2,0.4-1.3,0.3c0,0,0-0.2,0.3-0.4c0.2-0.2,0.6-0.3,1-0.3
	c0.4,0,0.8,0.2,1,0.4C109.1,149.1,109.1,149.2,109.1,149.3"/>
<path class="st4" d="M108.7,146.7c-0.1,0.1-0.5-0.4-1.1-0.5c-0.6-0.1-1.1,0.2-1.2,0.1c0,0,0.1-0.2,0.3-0.3c0.2-0.1,0.6-0.2,1-0.2
	c0.4,0.1,0.7,0.3,0.9,0.5C108.7,146.5,108.8,146.6,108.7,146.7"/>
<path class="st4" d="M110.6,144.3c-0.1,0.1-0.4-0.4-1-0.6c-0.6-0.3-1.1-0.2-1.1-0.3c0-0.1,0.6-0.3,1.3,0
	C110.5,143.6,110.7,144.3,110.6,144.3"/>
<path class="st4" d="M111.5,142.4c0,0-0.4-0.3-0.9-0.8c-0.3-0.3-0.6-0.6-0.9-0.9c-0.2-0.2-0.4-0.3-0.5-0.6c-0.1-0.2-0.1-0.3,0-0.5
	c0.1-0.2,0.3-0.3,0.5-0.4c0.4,0,0.6,0.1,0.9,0.3c0.2,0.1,0.4,0.3,0.6,0.5c0.3,0.4,0.5,0.8,0.6,1.1c0.2,0.7,0,1.2,0,1.2
	c-0.1,0,0-0.5-0.3-1.1c-0.1-0.3-0.3-0.7-0.6-1c-0.2-0.2-0.3-0.3-0.5-0.4c-0.2-0.1-0.5-0.2-0.6-0.2c-0.1,0-0.1,0-0.1,0.1
	c0,0.1,0,0.2,0,0.2c0.1,0.2,0.3,0.4,0.4,0.5c0.3,0.3,0.6,0.6,0.8,1C111.2,142,111.5,142.3,111.5,142.4"/>
<path class="st4" d="M111.8,142.6c0,0-0.1-0.4,0.3-1c0.4-0.6,1.3-1.2,2.4-0.9c0.1,0.1,0.2,0.2,0.2,0.3c0,0.1,0,0.2-0.1,0.3
	c-0.1,0.1-0.2,0.2-0.3,0.3c-0.2,0.2-0.4,0.3-0.5,0.4c-0.4,0.2-0.7,0.4-1.1,0.5C112.1,142.7,111.7,142.6,111.8,142.6
	c-0.1-0.1,0.3-0.1,0.9-0.3c0.3-0.1,0.6-0.3,0.9-0.5c0.2-0.1,0.3-0.3,0.5-0.4c0.1-0.1,0.2-0.2,0.2-0.2c0-0.1,0-0.1,0-0.1
	c0,0-0.2,0-0.3,0c-0.1,0-0.2,0-0.3,0c-0.2,0-0.4,0.1-0.6,0.1c-0.4,0.1-0.6,0.4-0.8,0.6C111.9,142.2,111.9,142.6,111.8,142.6"/>
<path class="st0" d="M103.5,143.8c0.1,0.6-0.3,1.1-0.8,1.2c-0.6,0.1-1.1-0.3-1.2-0.8c-0.1-0.6,0.3-1.1,0.8-1.2
	C102.9,142.9,103.4,143.2,103.5,143.8"/>
<path class="st19" d="M136.5,139.6l2.7,17.6l21.9-3.3c-0.4-2.1-12.4-4.6-12.4-4.6l-1.3-11.3L136.5,139.6z"/>
<path class="st0" d="M141.8,149.4c-0.4,0.2-0.6,0.7-0.5,1.1c0.2,0.4,0.7,0.6,1.1,0.5c0.4-0.2,0.7-0.8,0.5-1.2
	C142.7,149.4,142.1,149.2,141.8,149.4L141.8,149.4z"/>
<path class="st0" d="M139.2,157.2l-0.2-1.8l21.1-2.5c0,0,1,0.3,1,1L139.2,157.2z"/>
<path class="st4" d="M149.1,149.2c0,0.1-0.5,0.2-1,0.7c-0.5,0.4-0.7,0.9-0.8,0.9c-0.1,0,0-0.7,0.5-1.2
	C148.4,149.1,149.1,149.1,149.1,149.2"/>
<path class="st4" d="M151.5,149.8c0,0.1-0.4,0.4-0.7,0.9c-0.3,0.5-0.3,1-0.4,1c-0.1,0-0.3-0.6,0.1-1.2
	C150.9,149.8,151.5,149.7,151.5,149.8"/>
<path class="st4" d="M153.2,152.4c-0.1,0-0.3-0.5-0.1-1.1c0.2-0.6,0.7-0.9,0.7-0.9c0.1,0.1-0.2,0.4-0.4,1
	C153.3,151.9,153.3,152.3,153.2,152.4"/>
<path class="st4" d="M148.5,146.6c0,0.1-0.5,0-1.1,0.2c-0.6,0.1-1,0.4-1.1,0.3c-0.1-0.1,0.3-0.5,1-0.7
	C148,146.3,148.5,146.6,148.5,146.6"/>
<path class="st4" d="M147.6,144.1c0,0-0.4,0.2-1.1,0.2c-0.3,0-0.8-0.1-1.2-0.2c-0.2-0.1-0.5-0.1-0.7-0.2c-0.1,0-0.2-0.1-0.4-0.2
	c-0.1-0.1-0.2-0.4-0.1-0.6c0.1-0.2,0.3-0.3,0.4-0.3c0.2,0,0.3,0,0.4,0c0.3,0,0.5,0.1,0.7,0.1c0.4,0.1,0.8,0.3,1.1,0.5
	C147.3,143.8,147.6,144.2,147.6,144.1c-0.1,0.1-0.4-0.2-0.9-0.5c-0.3-0.2-0.6-0.3-1.1-0.4c-0.2,0-0.4-0.1-0.7-0.1
	c-0.2,0-0.4,0-0.5,0.1c0,0,0,0.1,0,0.1c0.1,0.1,0.2,0.1,0.3,0.2c0.2,0.1,0.4,0.2,0.6,0.2c0.4,0.1,0.8,0.2,1.1,0.2
	C147.1,144.1,147.6,144.1,147.6,144.1"/>
<path class="st4" d="M147.5,144.3c0,0-0.3-0.3-0.4-1c-0.1-0.3-0.1-0.8,0-1.2c0-0.2,0.1-0.5,0.2-0.7c0.1-0.2,0.2-0.5,0.6-0.7
	c0.2,0,0.4,0.1,0.5,0.2c0.1,0.1,0.1,0.3,0.2,0.4c0.1,0.3,0.1,0.5,0.1,0.7c0,0.5-0.1,0.9-0.3,1.2c-0.3,0.6-0.8,0.8-0.8,0.8
	c0,0,0.3-0.3,0.5-0.9c0.1-0.3,0.2-0.7,0.2-1.1c0-0.2,0-0.4-0.1-0.6c-0.1-0.2-0.2-0.4-0.3-0.4c-0.1,0-0.3,0.2-0.3,0.4
	c-0.1,0.2-0.1,0.4-0.2,0.6c-0.1,0.4-0.1,0.8,0,1.1C147.3,143.9,147.5,144.3,147.5,144.3"/>
<polygon class="st4" points="119.2,98.3 100.5,139.2 112.9,146.7 138.9,97.4 "/>
<path class="st4" d="M150.2,147.6l-13.5,2.2l-8.1-48.2l-39.9,2.9c-1.1,0.1-2.1,0-3.1-0.3c-11.2-3.1-9.7-17.3-8.6-19.6l55.2-1.6
	c6-0.2,11.1,4.2,12,10.1L150.2,147.6z"/>
<path class="st1" d="M76.5,86.8l0.2-20.4c0,0-2.6-13.2-3.4-18.4c-1.2-8.1-2.9-11.9,10.4-17.7l2.9-1.1l4.5,0.1
	c5.3,0.4,11,5.2,11.1,8.4l5.2,45.9L76.5,86.8z"/>
<path class="st1" d="M77.3,35.1c0,0-3.7,8-3,15.4l13.9,13.4c3.1,3.5,7,5,12,5.3l28.8,3.1l0.8-7.5l-27.4-7.8
	c-1.1-0.2-1.6-1.3-2.5-2.1L77.3,35.1z"/>
<path class="st4" d="M75.1,37.4c0,0,0.2-0.2,0.6-0.4c0.4-0.2,1-0.4,1.9-0.5c0.8-0.1,1.9-0.2,3.1,0c0.3,0.1,0.6,0.1,0.9,0.3
	c0.3,0.2,0.6,0.4,0.8,0.6c0.6,0.4,1.1,0.9,1.7,1.5c1.2,1.1,2.2,2.4,3.5,3.8c1.3,1.4,2.7,2.9,4.2,4.4c1.5,1.6,3.2,3.2,4.9,4.9
	c0.9,0.8,1.8,1.7,2.8,2.5c0.5,0.4,1,0.9,1.4,1.3c0.5,0.4,1,0.8,1.6,0.9l0,0l0,0c8.2,2.3,17.5,4.9,27.4,7.8l0.1,0l0,0.1
	c-0.1,0.5-0.1,1.1-0.2,1.7c-0.2,2-0.4,4-0.6,5.9l0,0.2l-0.2,0c-4.2-0.5-8.3-0.9-12.2-1.3c-2-0.2-3.9-0.4-5.8-0.6
	c-1.9-0.2-3.7-0.4-5.5-0.6c-1.8-0.2-3.5-0.4-5.2-0.7c-1.7-0.2-3.3-0.6-4.8-1.1c-1.5-0.6-2.9-1.3-4.1-2.2c-1.2-0.8-2.3-1.7-3.4-2.6
	c-4.1-3.5-7.1-6.7-9.2-8.8c-1-1.1-1.8-1.9-2.4-2.5c-0.3-0.3-0.5-0.5-0.6-0.7c-0.1-0.1-0.2-0.2-0.2-0.2s0.1,0.1,0.2,0.2
	c0.1,0.2,0.4,0.4,0.6,0.6c0.6,0.6,1.4,1.4,2.4,2.5c2.1,2.1,5.2,5.2,9.3,8.7c1,0.9,2.1,1.7,3.4,2.6c1.2,0.8,2.5,1.6,4,2.1
	c1.5,0.6,3.1,0.9,4.8,1.1c1.7,0.2,3.4,0.4,5.2,0.6c1.8,0.2,3.6,0.4,5.5,0.5c1.9,0.2,3.8,0.4,5.8,0.6c3.9,0.4,8,0.9,12.2,1.3
	l-0.2,0.1c0.2-1.9,0.4-3.8,0.6-5.9c0.1-0.6,0.1-1.2,0.2-1.7l0.1,0.2c-9.9-2.8-19.3-5.5-27.4-7.8l0,0c-0.7-0.1-1.3-0.6-1.8-1
	c-0.5-0.5-0.9-0.9-1.4-1.3c-1-0.8-1.9-1.7-2.8-2.5c-1.8-1.7-3.4-3.3-4.9-4.9c-1.5-1.6-2.9-3.1-4.2-4.5c-1.3-1.4-2.4-2.8-3.5-3.8
	c-0.6-0.5-1.1-1-1.7-1.5c-0.3-0.2-0.5-0.4-0.8-0.6c-0.3-0.2-0.6-0.2-0.9-0.3c-1.2-0.2-2.2-0.2-3.1,0c-0.8,0.1-1.5,0.3-1.9,0.5
	C75.3,37.3,75.1,37.4,75.1,37.4"/>
<path class="st15" d="M82.3,11.6l1.4,19.8c0.2,3.2,2.9,5.7,6.2,5.7c3.6,0,6.4-3,6.2-6.6c-0.1-1.9-0.2-3.4-0.2-3.4s4.8-0.7,4.9-5.5
	c0-2.8-0.4-9.1-0.9-13.9c-0.3-3.3-3-5.8-6.3-5.8h-2.9C85.6,2.2,81.9,6.6,82.3,11.6"/>
<path class="st2" d="M95.8,27.1c0,0-3,0.2-6.3-1.8c0,0,1.5,3.5,6.3,3L95.8,27.1z"/>
<path class="st4" d="M98.7,13.9c0,0.4-0.3,0.7-0.7,0.7c-0.4,0-0.7-0.3-0.7-0.6c0-0.4,0.3-0.7,0.7-0.7C98.4,13.2,98.7,13.5,98.7,13.9
	"/>
<path class="st4" d="M99,12.5c-0.1,0.1-0.6-0.3-1.3-0.3c-0.7,0-1.3,0.4-1.4,0.3c0,0,0-0.2,0.3-0.4c0.2-0.2,0.6-0.3,1.1-0.3
	c0.5,0,0.8,0.2,1.1,0.3C98.9,12.3,99,12.5,99,12.5"/>
<path class="st4" d="M91.8,13.9c0,0.4-0.3,0.7-0.7,0.7c-0.4,0-0.7-0.3-0.7-0.6c0-0.4,0.3-0.7,0.7-0.7C91.4,13.2,91.8,13.5,91.8,13.9
	"/>
<path class="st4" d="M91.7,12.7c-0.1,0.1-0.6-0.3-1.3-0.3c-0.7,0-1.3,0.4-1.4,0.3c0,0,0-0.2,0.3-0.4c0.2-0.2,0.6-0.3,1.1-0.3
	c0.5,0,0.8,0.2,1.1,0.3C91.7,12.5,91.7,12.6,91.7,12.7"/>
<path class="st4" d="M94.4,18.1c0,0,0.5-0.1,1.2-0.2c0.2,0,0.4-0.1,0.4-0.2c0-0.1,0-0.3-0.1-0.6c-0.2-0.5-0.4-0.9-0.6-1.4
	C94.5,13.7,94,12,94,12c0.1,0,0.8,1.6,1.5,3.6c0.2,0.5,0.4,1,0.5,1.4c0.1,0.2,0.2,0.5,0.1,0.7c-0.1,0.1-0.2,0.2-0.3,0.3
	c-0.1,0-0.2,0-0.3,0C94.8,18.2,94.4,18.2,94.4,18.1"/>
<path class="st4" d="M92.2,18.6c0.1,0,0.1,0.8,0.8,1.4c0.7,0.6,1.5,0.5,1.5,0.6c0,0.1-0.2,0.2-0.5,0.2c-0.4,0-0.9-0.1-1.3-0.4
	c-0.4-0.3-0.6-0.8-0.6-1.1C92.1,18.8,92.2,18.6,92.2,18.6"/>
<path class="st4" d="M91.9,9.8c-0.1,0.2-0.8,0.1-1.7,0.2c-0.9,0.1-1.6,0.3-1.7,0.2c-0.1-0.1,0.1-0.3,0.4-0.5
	c0.3-0.2,0.7-0.4,1.2-0.4c0.5-0.1,1,0,1.3,0.2C91.8,9.5,91.9,9.7,91.9,9.8"/>
<path class="st4" d="M98.7,10.4c-0.1,0.2-0.6,0-1.2,0c-0.6,0-1.1,0.1-1.2-0.1c-0.1-0.1,0-0.3,0.3-0.4c0.2-0.2,0.6-0.3,1-0.3
	c0.4,0,0.8,0.2,1,0.3C98.7,10.1,98.7,10.3,98.7,10.4"/>
<path class="st15" d="M83.9,15.2c-0.1,0-3.3-1-3.2,2.3c0.1,3.3,3.4,2.5,3.4,2.4C84.1,19.8,83.9,15.2,83.9,15.2"/>
<path class="st2" d="M83,18.7c0,0-0.1,0-0.2,0.1c-0.1,0-0.3,0.1-0.4,0c-0.4-0.1-0.7-0.7-0.7-1.2c0-0.3,0-0.6,0.1-0.8
	c0.1-0.2,0.2-0.4,0.4-0.5c0.2,0,0.3,0.1,0.3,0.1c0,0.1,0,0.2,0,0.2c0,0,0.1-0.1,0-0.2c0-0.1-0.1-0.1-0.1-0.2
	c-0.1-0.1-0.2-0.1-0.3-0.1c-0.3,0-0.5,0.3-0.6,0.5c-0.1,0.3-0.2,0.6-0.2,0.9c0,0.7,0.4,1.3,0.9,1.4c0.2,0.1,0.4,0,0.5-0.1
	C83,18.8,83.1,18.7,83,18.7"/>
<path class="st4" d="M82.1,15.1c0.5-0.1,1.4,0.3,1.6,0.8c0.2,0.5,0.3,1,0.5,1.5s0.7,0.9,1.2,0.8c0.3-0.1,0.6-0.4,0.7-0.7
	c0.1-0.3,0.1-0.7,0-1.1c-0.2-1.5-0.5-3.1-0.6-4.6c-0.1-1.5,0.2-3.1,1-4.5c0.8-1.3,2.3-2.3,3.8-2.2c1,0.1,2,0.6,3,0.8
	c1.2,0.2,2.5-0.3,3.3-1.1c0.1-0.1,0.6-0.4,0.6-0.4c0-0.1-0.1-0.8-0.3-1c-2-1.9-5.6-2.4-8.3-1.7c-2.7,0.7-5.1,2.5-6.3,5
	S81.4,12.6,82.1,15.1"/>
<path class="st1" d="M99.8,7c0,0-12.6-4-18,6.8c0,0-0.8-2.7-0.8-4.2c0-1,0.6-6.8,6.6-8.6C87.6,1,96.6-2.4,99.8,7"/>
<path class="st4" d="M89,7.2c0.4,0.7,1.2,1.2,2.1,1.3c0.8,0.1,1.7-0.3,2.3-0.9c0.2,0.6,0.9,1,1.6,1c0.7,0,1.3-0.5,1.5-1.2
	c0.4,0.4,0.7,0.7,1.2,0.9c0.5,0.2,1.1,0.1,1.4-0.3c0.3-0.4,0.2-1-0.1-1.4c-0.3-0.4-0.8-0.7-1.3-0.9c-1.5-0.6-3.1-0.9-4.8-0.7
	c-1.6,0.2-3.2,1-4.2,2.3L89,7.2z"/>
<g class="st13">
	<g>
		<defs>
			<rect id="SVGID_11_" x="81" y="0.4" width="18.8" height="13.4"/>
		</defs>
		<clipPath id="SVGID_12_">
			<use xlink:href="#SVGID_11_"  style="overflow:visible;"/>
		</clipPath>
		<path class="st17" d="M99.8,7c0,0-1.4-1.7-4-1.8c-3.7-0.2-10.7,1.9-14,8.7c0,0-0.8-2.7-0.8-4.2c0-1,0.6-6.8,6.6-8.6
			C87.6,1,96.6-2.4,99.8,7"/>
	</g>
</g>
<path class="st1" d="M82.3,12.5c1.9-2.9,4.4-5.2,7.3-7c2.9-1.8,7.7-3.6,11-4.5c1-0.3,2-0.5,3-0.3c1,0.2,2,0.8,2.2,1.8
	c0.3,1.2-1.9,3.2-2.9,3.9c-1,0.8-3.2,1.9-3.2,1.9s0-2.3-3.7-2.8C91.2,4.9,82.3,12.5,82.3,12.5"/>
<g class="st12">
	<g>
		<defs>
			<rect id="SVGID_13_" x="77.9" y="53.4" width="25.4" height="17.8"/>
		</defs>
		<clipPath id="SVGID_14_">
			<use xlink:href="#SVGID_13_"  style="overflow:visible;"/>
		</clipPath>
		<path class="st18" d="M77.9,53.4c1.3,3.1,2.6,7,4.5,9.8c1.9,2.8,4.4,5.3,7.5,6.6c3.9,1.6,8.6,1.9,12.5,0.2
			c0.3-0.1,0.9-0.3,0.9-0.7c0,0-1.3-0.1-1.7-0.2c-7.9-1.3-8.8-2.3-12.5-5.3C86.7,62.1,81.5,56.4,77.9,53.4"/>
	</g>
</g>
<path class="st4" d="M103,76.2c0,0-0.1,0.3-0.3,0.7c-0.2,0.5-0.7,1.1-1.3,1.8c-1.2,1.4-3.4,2.9-6.1,3.7c-2.7,0.8-5.3,1-7.1,1.1
	c-0.9,0-1.7,0-2.2,0s-0.8,0-0.8,0c0,0,0.3-0.1,0.8-0.1c0.6,0,1.3-0.1,2.2-0.1c1.8-0.1,4.4-0.3,7-1.1c2.7-0.8,4.8-2.3,6-3.6
	C102.5,77.3,102.9,76.2,103,76.2"/>
<path class="st19" d="M137,151.2c0,0,0-0.1,0-0.2c0-0.1-0.1-0.3-0.1-0.6c-0.1-0.5-0.2-1.2-0.4-2.1c-0.3-1.9-0.8-4.6-1.4-7.8
	c-1.1-6.6-2.7-15.8-4.4-25.9c-0.8-4.6-1.5-9-2.2-12.9l0.2,0.1c-7,0.5-13,1-17.3,1.3c-2.1,0.1-3.8,0.3-5,0.3c-0.6,0-1,0.1-1.3,0.1
	c-0.1,0-0.2,0-0.3,0c-0.1,0-0.1,0-0.1,0c0,0,0,0,0.1,0c0.1,0,0.2,0,0.3,0c0.3,0,0.8-0.1,1.3-0.1c1.2-0.1,2.8-0.2,4.9-0.4
	c4.3-0.3,10.2-0.8,17.2-1.4l0.1,0l0,0.1c0.7,4,1.4,8.4,2.2,12.9c1.7,10.1,3.2,19.3,4.3,25.9c0.5,3.3,1,6,1.3,7.9
	c0.1,0.9,0.3,1.6,0.3,2.1c0,0.2,0.1,0.4,0.1,0.6C137,151.2,137,151.2,137,151.2"/>
<path class="st19" d="M132.7,97.3c0.1,0.1-1,1-2.2,2.2c-1.2,1.2-2.1,2.3-2.2,2.2c-0.1,0,0.7-1.2,1.9-2.4
	C131.5,98.1,132.7,97.3,132.7,97.3"/>
<path class="st4" d="M95.9,31c0,0,0,0.1,0.1,0.2c0,0.1,0.1,0.3,0.1,0.6c0.1,0.5,0,1.3-0.3,2.2c-0.3,0.9-1,1.9-2,2.6
	c-1,0.7-2.4,1.1-3.9,1c-1.4-0.1-2.8-0.6-3.7-1.4c-1-0.8-1.7-1.7-2.1-2.5c-0.4-0.8-0.7-1.5-0.8-2c-0.1-0.3-0.1-0.4-0.1-0.6
	c0-0.1,0-0.2,0-0.2c0.1,0,0.2,1.1,1.1,2.7c0.5,0.8,1.1,1.6,2.1,2.4c1,0.7,2.2,1.2,3.6,1.3c1.4,0.1,2.7-0.3,3.7-1
	c1-0.7,1.6-1.6,1.9-2.4c0.3-0.8,0.4-1.6,0.4-2.1C95.9,31.3,95.9,31,95.9,31"/>
<path class="st4" d="M104.4,57.2c0,0-0.1-0.2-0.1-0.6c-0.1-0.5-0.1-1-0.2-1.7c-0.2-1.5-0.5-3.5-0.7-5.7c-0.3-2.2-0.5-4.2-0.6-5.7
	c-0.1-0.7-0.1-1.3-0.1-1.7c0-0.4,0-0.6,0-0.6c0,0,0.1,0.2,0.1,0.6c0.1,0.5,0.1,1,0.2,1.7c0.2,1.5,0.4,3.5,0.7,5.7
	c0.3,2.2,0.5,4.2,0.6,5.7c0.1,0.7,0.1,1.3,0.1,1.7C104.4,57,104.4,57.2,104.4,57.2"/>
</svg>
