<?xml version="1.0" encoding="utf-8"?>
<!-- Generator: Adobe Illustrator 16.0.0, SVG Export Plug-In . SVG Version: 6.00 Build 0)  -->
<!DOCTYPE svg PUBLIC "-//W3C//DTD SVG 1.1//EN" "http://www.w3.org/Graphics/SVG/1.1/DTD/svg11.dtd">
<svg version="1.1" id="Capa_1" xmlns="http://www.w3.org/2000/svg" xmlns:xlink="http://www.w3.org/1999/xlink" x="0px" y="0px"
	 width="144px" height="360px" viewBox="0 0 144 360" style="enable-background:new 0 0 144 360;" xml:space="preserve">
<style type="text/css">
<![CDATA[
	.st0{fill:#E7505B;}
	.st1{fill:#EAEAEA;}
	.st2{fill:#263238;}
	.st3{fill:#F4F4F4;}
	.st4{fill:#F9F9F9;}
	.st5{opacity:0.6;}
	.st6{fill-rule:evenodd;clip-rule:evenodd;fill:#221E1F;}
	.st7{fill:#FFFFFF;}
	.st8{clip-path:url(#SVGID_2_);fill:#FFFFFF;}
]]>
</style>
<path class="st2" d="M117.5,273.2H25.8c-11.1,0-20.4-9.5-20.4-20.6l1-230.9c0-11.1,9.1-20,20.2-20l92.1,0.4c11.1,0.1,20,9.1,20,20.1
	l-1,230.9C137.6,264.4,128.6,273.3,117.5,273.2"/>
<path class="st3" d="M118.5,11l-17.9-0.1c-2.4,0-4.3,2-4.4,4.5l0,3.2c0,2.5-2,4.5-4.4,4.5L57.1,23c-2.4,0-4.3-2-4.3-4.6l0-3.2
	c0-2.5-1.9-4.5-4.3-4.6l-6.3,0l-15.6-0.1c-7.8,0-14.1,6.2-14.1,14l-1,225.4c0,7.8,6.2,14.1,14,14.1l91.9,0.4c7.8,0,14.1-6.2,14.1-14
	l1-225.4C132.5,17.4,126.3,11,118.5,11"/>
<path class="st1" d="M25.5,264l91.9,0.4c7.8,0,14.1-6.2,14.1-14l0.1-21.2h-10.9h-3.3H93.1h-0.7H79.2h-1.3H25.9h-0.7H11.6l-0.1,16v5
	C11.7,257.9,17.9,264,25.5,264"/>
<path class="st7" d="M25.2,225.3l0.1,4h0.7l-0.1-4l52.3-3.3c-0.1,2.6-0.2,5.1-0.3,7.3h1.3c0.1-2.1,0.2-4.7,0.3-7.4l11.3-0.7l1.6,8.1
	h0.7l-1.6-8.2l25.7-1.6l0.3,9.8h3.3l-0.3-10l11.2-0.7l-0.1-1.3l-11.2,0.7l-0.6-20.1l11.9-0.7l0-0.7l-11.8,0.7l-0.5-16.8l1.5-6
	l11.2-1.1l0-0.7l-11,1.1l3.5-14.6l-0.4-3.7c1.6,0.3,4.5,1,7.9,1.9l0-2.1c-4.5-1.2-6.9-1.7-8.1-1.9l-3-30.6l11.2-1.1l0-1.3l-11.3,1.1
	l-1.8-18.5l13.2,0.9l0-2l-13.4-0.9l-0.7-7.7l3-10.8l11.2,3.5l0-3.4L117,77.7l0.3-7.7l15,3.9l0-2l-7.3-1.9l1.2-7.2
	c2.2,0.7,4.2,1.2,6.1,1.6l0-0.7c-1.9-0.4-3.9-0.9-6-1.5l1.2-7.2l4.8,0.4l0-1.3l-5.9-0.5l-1.4,8.2c-3.5-1.3-11.3-5.7-10.9-18.1
	l18.3-7.2l0-0.8l-0.2-0.5l-18.1,7.2l0-31.1l-0.7,0l0,31.4l-7.6,3l-11.5-23c-0.5,0.4-1.2,0.6-1.8,0.7l11.5,23l-17.6,7l0.4,1.6
	L73,55.3l-0.5-32.2l-0.7,0l0.5,32.2l-24.3,1c0-5-0.1-9.6-0.1-12.2l0-0.3l0,0l-1.5-33.2l-0.7,0l1.5,33.1l-24.9-3.6l5.9-29.6l-1.7,0
	c-0.1,0-0.2,0-0.3,0l-5.9,29.3l-7.9-1.1l-0.1,0.4l0,0.2l7.9,1.1L14,71.9l-1.7-0.1l0,3.3L24.6,76v16.3l-12.4,2.8l0,2l14.4-3.3V76.1
	l46.1,3.4v18.9H57.9l-1.9,8.8H44L12.1,113l0,2l32.1-5.8h36.5l1.3,16l-38,3.7l0.1,1.3l38-3.7l2.5,30.7l-38.4-5l-0.3,2l38.8,5.1
	l1.5,18.1l-40.6,4.1l-21.1,1.5v-27.6l20-11.6l-1-1.7l-19.5,11.4l-12.2-1.6l0,2l12,1.6v17.6l-12.1,1.3l0,2l12.1-1.3v8.8l0,0l0.7,24.9
	l0,0l-13,5.1l0,2.1l13.1-5.1l0.4,13.5l-13.5,0.9l0,0.4l0.1,0.9L25.2,225.3z M79.5,220.6c0-1.2,0.1-2.4,0.1-3.6l10.3,0l0.6,2.8
	L79.5,220.6z M91.2,219.8l-0.6-3.2L89,202.2l-0.9-10.5l28.1-2.1l0.9,28.7L91.2,219.8z M97.6,176.8l14.8-1.5l-0.4,5.8l-13.2,1.4
	L97.6,176.8z M96.9,176.8l2.5,12.7L88,190.3l-1-12.5L96.9,176.8z M116.2,188.2l-16.1,1.2l-1.1-5.6l14.2-1.5l0.5-7.1l3.6-0.4
	l-1.3,5.4L116.2,188.2z M97.1,142.7l2.9,12.9l-14.6,1.5l-1.1-12.9L97.1,142.7z M100.6,155.5l-2.9-12.9l21.5-2.6l1.3,13.5
	L100.6,155.5z M115.4,100.7L83,98.4l3.1-17.9l2.3,0.2l27.3,0l2.2,0.7l-3.2,11.5L115.4,100.7z M113.5,43.8c0,3.4,0.7,14.6,11.5,18.5
	l-1.2,7.3l-6.7-1.7l-10.6-21.2L113.5,43.8z M104.6,47.3l10.7,21.6l-0.3,8.5H93.7l-5.7-23.5L104.6,47.3z M86.9,55.4l5.4,22h-3.8
	l-15.2-1.1L73,55.9L86.9,55.4z M72.3,56l0.3,20.3L48,74.4c0.1-3.3,0.1-10.6,0-17.5L72.3,56z M22.2,40.8l25.1,3.6
	c0.1,10.4,0.2,25.2,0.1,30L15.9,72L22.2,40.8z M85.4,80.5l-4.6,26.7h-7.5V79.6L85.4,80.5z M59.5,100.4h13.2v6.8H58L59.5,100.4z
	 M81.3,108.2l1.3-7.8l33,2.3l1.8,19.1l-34.8,3.3L81.3,108.2z M117.6,123l1.4,15l-34.9,4.3l-1.3-15.9L117.6,123z M85.5,159.1
	l35.2-3.7l0.3,3.4l-3.7,15.2L87,177.2L85.5,159.1z M88.4,202.3l1.5,14.1H79.7c0.2-4.7,0.4-9.3,0.5-12.8c0.2-6.3,0.2-6.3-0.2-6.5
	l-0.3,0.6l-0.6,0c0,0.5-0.3,9.2-0.6,18.4L49,202l-1-20.2l38.4-3.9L88.4,202.3z M45.4,182l-0.2,26l-19.8,0.9l-0.7-25.5L45.4,182z
	 M25.4,210.2L25.4,210.2L25.4,210.2l0-0.6l20.5-1L46,182l1.3-0.1l1.1,20.6l30,14.4c0,1.3-0.1,2.6-0.1,3.8L25.8,224L25.4,210.2z"/>
<path class="st0" d="M64.7,58c0,2.1-1.7,3.8-3.8,3.8c-2.1,0-3.8-1.7-3.8-3.8s1.7-3.8,3.8-3.8C63,54.1,64.7,55.8,64.7,58"/>
<g class="st5">
	<g>
		<defs>
			<rect id="SVGID_1_" x="57" y="54.1" width="7.7" height="7.7"/>
		</defs>
		<clipPath id="SVGID_2_">
			<use xlink:href="#SVGID_1_"  style="overflow:visible;"/>
		</clipPath>
		<path class="st8" d="M64.7,57.8c0.1,2.1-1.6,3.9-3.7,4c-2.1,0.1-3.9-1.6-4-3.7c-0.1-2.1,1.6-3.9,3.7-4
			C62.8,54,64.6,55.7,64.7,57.8"/>
	</g>
</g>
<path class="st0" d="M63.4,57.8c0,1.4-1.1,2.6-2.6,2.6c-1.4,0-2.6-1.1-2.6-2.6c0-1.4,1.1-2.6,2.6-2.6C62.3,55.3,63.4,56.4,63.4,57.8
	"/>
<path class="st0" d="M120.3,211.6c0,0.9-0.7,1.6-1.6,1.6c-0.9,0-1.6-0.7-1.6-1.6c0-0.9,0.7-1.6,1.6-1.6
	C119.6,209.9,120.3,210.6,120.3,211.6"/>
<path class="st0" d="M117.7,211l-0.4-9.2l-27.8,1.3c-0.7,0-1.4-0.1-2.1-0.4l-39.4-19.9c-0.9-0.5-1.5-1.4-1.6-2.4L41.1,76.5
	c0-0.5,0.2-1,0.5-1.3c0.4-0.3,0.8-0.5,1.3-0.5L59.9,76V57.5h2v18.7c0,0.5-0.2,0.9-0.6,1.3c-0.4,0.3-0.8,0.5-1.3,0.5l-16.9-1.2
	l5.3,103.6c0,0.3,0.2,0.6,0.5,0.7L88.3,201c0.3,0.2,0.7,0.3,1.1,0.2l28-1.4c0.5,0,0.9,0.1,1.3,0.5c0.3,0.3,0.5,0.7,0.6,1.2l0.4,9.4
	L117.7,211z"/>
<path class="st0" d="M49.3,121.6c0,2.8-2.2,5-5,5s-5-2.2-5-5c0-2.8,2.2-5,5-5S49.3,118.9,49.3,121.6"/>
<path class="st4" d="M47.8,121.6c0,1.9-1.5,3.5-3.5,3.5s-3.5-1.5-3.5-3.5c0-1.9,1.5-3.5,3.5-3.5S47.8,119.7,47.8,121.6"/>
<path class="st0" d="M65.9,45.1c0-3-2.7-5.4-5.9-4.8c-2,0.4-3.6,2-3.9,4c-0.2,1.2,0,2.4,0.6,3.4h0l0,0c0.2,0.3,0.4,0.5,0.7,0.9
	l2.9,3.8c0.4,0.5,1.1,0.5,1.4,0l2.8-3.7c0,0,0.5-0.6,0.7-0.9l0,0h0C65.6,46.8,65.9,46,65.9,45.1 M60.9,47.2c-1.2,0-2.2-1-2.2-2.2
	c0-1.2,1-2.2,2.2-2.2s2.2,1,2.2,2.2C63.1,46.2,62.1,47.2,60.9,47.2z"/>
<path class="st6" d="M33.8,331.2h2c0.1,0,0.2-0.1,0.2-0.2c0-0.1-0.1-0.2-0.2-0.2h-2c-0.1,0-0.2,0.1-0.2,0.2
	C33.5,331.1,33.7,331.2,33.8,331.2 M34.8,348.5c-0.6,0-1,0.5-1,1c0,0.6,0.5,1,1,1c0.6,0,1-0.5,1-1C35.8,348.9,35.3,348.5,34.8,348.5
	z M29.7,347.6h10v-14.8h-10V347.6z M61.9,342.7c-0.5,0-0.9,0.2-1.3,0.5c-0.4,0.3-0.6,0.7-0.8,1.2c-0.1,0.2-0.1,0.4-0.1,0.6v1.4
	c0,0.6,0.2,1.2,0.6,1.6c0.4,0.4,0.9,0.6,1.5,0.6c0.7,0,1.3-0.3,1.7-0.8c0.4-0.6,0.6-1.3,0.6-2.2c0-0.8-0.2-1.5-0.6-2.1
	C63.2,343,62.6,342.7,61.9,342.7z M97.1,342.6c-0.8,0-1.4,0.3-1.8,1c-0.3,0.6-0.5,1.3-0.5,2.1c0,0.8,0.2,1.5,0.5,2
	c0.4,0.7,1,1,1.7,1c0.7,0,1.3-0.3,1.7-1.1c0.4-0.6,0.5-1.3,0.5-2.1c0-0.8-0.2-1.5-0.5-2C98.4,342.9,97.8,342.6,97.1,342.6z
	 M71.4,342.7c-0.5,0-0.9,0.2-1.3,0.5c-0.4,0.3-0.6,0.7-0.8,1.2c-0.1,0.2-0.1,0.4-0.1,0.6v1.4c0,0.6,0.2,1.2,0.6,1.6
	c0.4,0.4,0.9,0.6,1.5,0.6c0.7,0,1.3-0.3,1.7-0.8c0.4-0.6,0.6-1.3,0.6-2.2c0-0.8-0.2-1.5-0.6-2.1C72.7,343,72.1,342.7,71.4,342.7z
	 M51.5,339.6L51.5,339.6c-0.2,0.5-0.3,1.3-0.6,2.3l-1,3.1h3.2l-1-3.1C52,341.6,51.8,340.8,51.5,339.6z M111.7,342.5
	c-0.6,0-1.1,0.3-1.5,0.8c-0.3,0.4-0.5,0.9-0.6,1.5h4c0-0.6-0.1-1.1-0.4-1.5C112.9,342.8,112.4,342.5,111.7,342.5z M60,333.9
	c0-0.1,0-0.2,0-0.2v-0.6c-0.8,0-1.6,0.2-1.6,0.8c0,0.4,0.3,0.6,0.6,0.6C59.6,334.6,59.9,334.3,60,333.9z M49.5,331.1
	c-0.1-0.4-0.2-0.8-0.3-1.2h0c-0.1,0.4-0.2,0.8-0.3,1.2l-0.5,1.5H50L49.5,331.1z M119.5,322.1h-95c-2.4,0-4.4,2-4.4,4.4v27.3
	c0,2.4,2,4.4,4.4,4.4h95c2.4,0,4.4-2,4.4-4.4v-27.3C123.9,324.1,121.9,322.1,119.5,322.1z M113.5,330.7c1.5,0,1.9,1.2,1.9,2.2
	c0,0.2,0,0.4,0,0.5h-3c0,0.8,0.7,1.2,1.4,1.2c0.5,0,0.9-0.1,1.2-0.2l0.2,0.8c-0.4,0.2-0.9,0.3-1.6,0.3c-1.5,0-2.3-0.9-2.3-2.3
	C111.3,331.9,112.1,330.7,113.5,330.7z M95.6,330.8l0.1,0.7h0c0.2-0.3,0.7-0.8,1.4-0.8c0.8,0,1.6,0.5,1.6,1.9v2.7h-1.1v-2.5
	c0-0.6-0.2-1.1-0.9-1.1c-0.4,0-0.8,0.3-0.9,0.7c0,0.1-0.1,0.2-0.1,0.4v2.6h-1.1v-3.1c0-0.5,0-0.9,0-1.3H95.6z M83.7,330.7
	c1.5,0,1.9,1.2,1.9,2.2c0,0.2,0,0.4,0,0.5h-3c0,0.8,0.7,1.2,1.4,1.2c0.5,0,0.9-0.1,1.2-0.2l0.2,0.8c-0.4,0.2-0.9,0.3-1.6,0.3
	c-1.5,0-2.3-0.9-2.3-2.3C81.5,331.9,82.3,330.7,83.7,330.7z M79.1,328.7h1.1v6.5h-1.1V328.7z M70.1,331.5c-0.4,0-0.9,0.1-1.2,0.3
	l-0.2-0.7c0.3-0.2,0.9-0.4,1.6-0.4c1.4,0,1.8,0.9,1.8,1.9v1.6c0,0.4,0,0.8,0.1,1.1h-1l-0.1-0.5h0c-0.3,0.3-0.7,0.6-1.3,0.6
	c-0.9,0-1.4-0.7-1.4-1.3c0-1.1,1-1.7,2.7-1.7v-0.1C71,332,70.9,331.5,70.1,331.5z M63.5,328.9c0.4,0,0.6,0.3,0.6,0.6
	c0,0.3-0.2,0.6-0.6,0.6c-0.4,0-0.6-0.3-0.6-0.6C62.8,329.2,63.1,328.9,63.5,328.9z M64,330.8v4.5h-1.1v-4.5H64z M48.5,329.1h1.4
	l2,6.2h-1.2l-0.6-1.8h-2l-0.5,1.8h-1.2L48.5,329.1z M41,349.6c0,1.1-0.9,2-2,2h-8.5c-1.1,0-2-0.9-2-2v-18.8c0-1.1,0.9-2,2-2H39
	c1.1,0,2,0.9,2,2V349.6z M54.6,350l-1.1-3.5h-3.9l-1.1,3.5h-2l3.9-12h2.4l3.9,12H54.6z M55,335.3h-1.1l-1.7-4.5h1.2l0.7,2.3
	c0.1,0.4,0.2,0.8,0.3,1.1h0c0.1-0.4,0.2-0.7,0.3-1.1l0.7-2.3h1.2L55,335.3z M57.4,334c0-1.1,1-1.7,2.7-1.7v-0.1
	c0-0.3-0.1-0.8-0.9-0.8c-0.4,0-0.9,0.1-1.2,0.3l-0.2-0.7c0.3-0.2,0.9-0.4,1.6-0.4c1.4,0,1.8,0.9,1.8,1.9v1.6c0,0.4,0,0.8,0.1,1.1h-1
	l-0.1-0.5h0c-0.3,0.3-0.7,0.6-1.3,0.6C57.9,335.4,57.4,334.7,57.4,334z M64.9,349.1c-0.7,0.8-1.6,1.1-2.7,1.1c-1.2,0-2-0.4-2.5-1.2
	v4.6h-1.9v-9.3c0-0.9,0-1.9-0.1-2.9h1.7l0.1,1.4h0c0.6-1,1.6-1.5,2.9-1.5c1,0,1.9,0.4,2.6,1.2c0.7,0.8,1,1.9,1,3.2
	C66.1,347.1,65.7,348.2,64.9,349.1z M66.9,335.3h-1.1v-6.5h1.1V335.3z M74.5,349.1c-0.7,0.8-1.6,1.1-2.7,1.1c-1.1,0-2-0.4-2.5-1.2
	v4.6h-1.9v-9.3c0-0.9,0-1.9-0.1-2.9H69l0.1,1.4h0c0.6-1,1.6-1.5,2.9-1.5c1,0,1.9,0.4,2.6,1.2c0.7,0.8,1,1.9,1,3.2
	C75.7,347.1,75.3,348.2,74.5,349.1z M75.8,335.4c-0.6,0-1.1-0.2-1.4-0.8h0l-0.1,0.7h-1c0-0.3,0-0.8,0-1.3v-5.3h1.1v2.7h0
	c0.3-0.4,0.8-0.7,1.4-0.7c1.1,0,1.9,0.9,1.9,2.3C77.8,334.6,76.8,335.4,75.8,335.4z M85.5,349.2c-0.8,0.7-1.9,1.1-3.3,1.1
	c-1.3,0-2.3-0.3-3.1-0.7l0.4-1.6c0.8,0.5,1.8,0.8,2.8,0.8c0.7,0,1.3-0.2,1.7-0.5c0.4-0.3,0.6-0.8,0.6-1.3c0-0.5-0.2-0.9-0.5-1.2
	c-0.3-0.3-0.9-0.6-1.7-0.9c-2.1-0.8-3.2-1.9-3.2-3.4c0-1,0.4-1.8,1.1-2.4c0.7-0.6,1.7-0.9,3-0.9c1.1,0,2,0.2,2.7,0.6l-0.5,1.6
	c-0.7-0.4-1.4-0.6-2.3-0.6c-0.7,0-1.2,0.2-1.6,0.5c-0.3,0.3-0.5,0.7-0.5,1.1c0,0.5,0.2,0.9,0.6,1.2c0.3,0.3,0.9,0.6,1.7,0.9
	c1,0.4,1.8,0.9,2.3,1.5c0.5,0.6,0.7,1.3,0.7,2.1C86.5,347.7,86.2,348.5,85.5,349.2z M92.3,342.8h-2.1v4.2c0,1.1,0.4,1.6,1.1,1.6
	c0.3,0,0.6,0,0.9-0.1l0.1,1.5c-0.4,0.1-0.9,0.2-1.5,0.2c-0.8,0-1.4-0.2-1.8-0.7c-0.4-0.5-0.6-1.2-0.6-2.3v-4.4H87v-1.4h1.3v-1.6
	l1.9-0.6v2.2h2.1V342.8z M91.2,335.4c-1.3,0-2.2-0.9-2.2-2.3c0-1.5,1-2.4,2.3-2.4c1.3,0,2.2,0.9,2.2,2.3
	C93.5,334.6,92.3,335.4,91.2,335.4z M100.2,348.9c-0.8,0.9-1.9,1.3-3.2,1.3c-1.3,0-2.3-0.4-3-1.3c-0.8-0.8-1.1-1.9-1.1-3.2
	c0-1.3,0.4-2.4,1.2-3.3c0.8-0.9,1.8-1.3,3.1-1.3c1.3,0,2.3,0.4,3.1,1.3c0.7,0.8,1.1,1.9,1.1,3.2C101.3,347,101,348.1,100.2,348.9z
	 M102.2,330.8h0.6V330l1.1-0.3v1.1h1.1v0.8h-1.1v2c0,0.6,0.1,0.8,0.6,0.8c0.2,0,0.3,0,0.4,0l0,0.9c-0.2,0.1-0.5,0.1-0.8,0.1
	c-0.4,0-0.8-0.1-1-0.4c-0.2-0.3-0.4-0.7-0.4-1.3v-2.1h-0.6V330.8z M107.1,343.1c-0.2,0-0.4,0-0.6,0c-0.7,0-1.2,0.3-1.6,0.8
	c-0.3,0.5-0.5,1-0.5,1.7v4.6h-1.9v-5.9c0-1,0-1.9-0.1-2.7h1.7l0.1,1.7h0.1c0.2-0.6,0.5-1,1-1.4c0.4-0.3,0.9-0.5,1.4-0.5
	c0.2,0,0.3,0,0.5,0V343.1z M107.4,332.6v2.7h-1.1v-6.5h1.1v2.7h0c0.1-0.2,0.3-0.4,0.6-0.5c0.2-0.1,0.5-0.2,0.8-0.2
	c0.8,0,1.6,0.5,1.6,1.9v2.6h-1.1v-2.5c0-0.6-0.2-1.1-0.9-1.1c-0.4,0-0.8,0.3-0.9,0.6C107.4,332.3,107.4,332.5,107.4,332.6z
	 M115.4,346.2h-5.8c0,0.9,0.3,1.5,0.8,2c0.5,0.4,1.1,0.6,1.9,0.6c0.9,0,1.6-0.1,2.3-0.4l0.3,1.3c-0.8,0.4-1.8,0.5-2.9,0.5
	c-1.3,0-2.4-0.4-3.2-1.2s-1.2-1.9-1.2-3.2c0-1.3,0.4-2.4,1.1-3.3c0.8-0.9,1.8-1.4,3-1.4c1.3,0,2.2,0.5,2.8,1.4
	c0.5,0.7,0.8,1.7,0.8,2.7C115.5,345.6,115.4,345.9,115.4,346.2z M75.5,331.6c-0.5,0-0.9,0.3-1,0.8c0,0.1,0,0.2,0,0.3v0.7
	c0,0.1,0,0.2,0,0.3c0.1,0.5,0.5,0.8,1,0.8c0.7,0,1.1-0.6,1.1-1.5C76.7,332.2,76.3,331.6,75.5,331.6z M83.7,331.5c-0.7,0-1,0.6-1,1.1
	h2C84.6,332.1,84.4,331.5,83.7,331.5z M91.2,331.5c-0.8,0-1.1,0.8-1.1,1.5c0,0.9,0.4,1.5,1.1,1.5c0.6,0,1.1-0.6,1.1-1.5
	C92.3,332.3,92,331.5,91.2,331.5z M69.5,333.9c0,0.4,0.3,0.6,0.6,0.6c0.5,0,0.8-0.3,0.9-0.6c0-0.1,0-0.2,0-0.2v-0.6
	C70.3,333.1,69.5,333.2,69.5,333.9z M113.4,331.5c-0.7,0-1,0.6-1,1.1h2C114.4,332.1,114.2,331.5,113.4,331.5z"/>
<path class="st6" d="M65,291.5c-0.2,0-0.4,0.1-0.5,0.3c-0.1,0.2-0.2,0.4-0.2,0.7c0,0.3,0.1,0.5,0.2,0.7c0.2,0.2,0.3,0.3,0.6,0.3
	c0.2,0,0.4-0.1,0.5-0.3c0.1-0.2,0.2-0.4,0.2-0.7c0-0.3-0.1-0.5-0.2-0.7S65.2,291.5,65,291.5"/>
<path class="st6" d="M69.2,291.5c-0.1,0-0.1,0-0.3,0c0,0.3,0,0.6,0,0.9c0,0.3,0,0.7,0,1c0.1,0,0.2,0,0.3,0c0.3,0,0.5-0.1,0.7-0.3
	c0.1-0.2,0.2-0.4,0.2-0.7s-0.1-0.5-0.2-0.7C69.8,291.6,69.5,291.5,69.2,291.5"/>
<path class="st6" d="M76.3,291.5c-0.1,0-0.2,0-0.3,0c0,0.3,0,0.6,0,0.9c0,0,0.1,0,0.1,0c0.5,0,0.8-0.2,0.8-0.5
	C77,291.6,76.7,291.5,76.3,291.5"/>
<path class="st6" d="M73.6,291.5c0,0.1-0.1,0.5-0.4,1.2H74C73.7,291.9,73.6,291.5,73.6,291.5L73.6,291.5z"/>
<path class="st6" d="M53,291.5c0,0.1-0.1,0.5-0.4,1.2h0.8C53.2,291.9,53,291.5,53,291.5L53,291.5z"/>
<path class="st6" d="M61.9,291.5c-0.1,0-0.3,0-0.4,0c0,0.2,0,0.5,0,0.9c0.1,0,0.1,0,0.2,0c0.5,0,0.7-0.2,0.7-0.5
	C62.5,291.6,62.3,291.5,61.9,291.5"/>
<path class="st6" d="M58.8,291.5c-0.1,0-0.1,0-0.3,0c0,0.3,0,0.6,0,0.9c0,0.3,0,0.7,0,1c0.1,0,0.2,0,0.3,0c0.3,0,0.5-0.1,0.7-0.3
	c0.2-0.2,0.2-0.4,0.2-0.7s-0.1-0.5-0.2-0.7C59.4,291.6,59.1,291.5,58.8,291.5"/>
<path class="st6" d="M83,291.5c-0.2,0-0.4,0.1-0.5,0.3c-0.1,0.2-0.2,0.4-0.2,0.7c0,0.3,0.1,0.5,0.2,0.7c0.2,0.2,0.3,0.3,0.6,0.3
	c0.2,0,0.4-0.1,0.5-0.3c0.1-0.2,0.2-0.4,0.2-0.7c0-0.3-0.1-0.5-0.2-0.7S83.2,291.5,83,291.5"/>
<path class="st6" d="M78.9,291.5c-0.1,0-0.2,0-0.3,0c0,0.3,0,0.6,0,0.9c0,0,0.1,0,0.1,0c0.5,0,0.8-0.2,0.8-0.5
	C79.6,291.6,79.4,291.5,78.9,291.5"/>
<path class="st6" d="M73.3,301.7c-0.6,0-1.1,0.2-1.6,0.7c-0.4,0.5-0.7,1.1-0.7,1.8c0,0.8,0.2,1.4,0.7,1.8c0.4,0.5,1,0.7,1.6,0.7
	c0.6,0,1.1-0.2,1.6-0.7c0.4-0.5,0.7-1.1,0.7-1.8c0-0.8-0.2-1.4-0.7-1.8C74.4,301.9,73.9,301.7,73.3,301.7"/>
<path class="st6" d="M65.7,301.7c-0.6,0-1.1,0.2-1.6,0.7s-0.7,1.1-0.7,1.8c0,0.8,0.2,1.4,0.7,1.8c0.4,0.5,1,0.7,1.6,0.7
	s1.1-0.2,1.6-0.7c0.4-0.5,0.7-1.1,0.7-1.8c0-0.8-0.2-1.4-0.7-1.8C66.9,301.9,66.4,301.7,65.7,301.7"/>
<path class="st6" d="M101.5,298.8h-2.2v3.5h2.2c0.5,0,1-0.2,1.3-0.5c0.3-0.4,0.5-0.8,0.5-1.2s-0.2-0.8-0.5-1.2
	C102.4,299,102,298.8,101.5,298.8"/>
<path class="st6" d="M109.3,304.6c-0.3,0.3-0.5,0.6-0.5,1c0,0.3,0.1,0.6,0.4,0.8c0.3,0.2,0.6,0.3,1,0.3c0.5,0,1-0.2,1.5-0.6
	s0.7-0.9,0.7-1.4c-0.4-0.3-0.9-0.5-1.6-0.5C110.1,304.2,109.6,304.3,109.3,304.6"/>
<path class="st6" d="M90.8,301.7c-0.5,0-0.9,0.2-1.2,0.5s-0.6,0.7-0.7,1.2h4c0-0.4-0.2-0.8-0.5-1.1
	C91.9,301.9,91.4,301.7,90.8,301.7"/>
<path class="st6" d="M80.7,301.7c-0.6,0-1.1,0.2-1.5,0.7c-0.4,0.5-0.6,1.1-0.6,1.8c0,0.8,0.2,1.4,0.6,1.8c0.4,0.5,0.9,0.7,1.5,0.7
	c0.6,0,1.1-0.2,1.6-0.7c0.4-0.5,0.6-1.1,0.6-1.8c0-0.8-0.2-1.4-0.6-1.8C81.9,301.9,81.3,301.7,80.7,301.7"/>
<path class="st6" d="M119.2,284.3H24.8c-2.5,0-4.6,2.1-4.6,4.6v24.7c0,2.5,2.1,4.6,4.6,4.6h94.5c2.5,0,4.6-2.1,4.6-4.6v-24.7
	C123.8,286.3,121.8,284.3,119.2,284.3 M78.1,291.1h0.4c0.1,0,0.2,0,0.3,0c0.2,0,0.3,0,0.4,0c0.3,0,0.5,0.1,0.7,0.2
	c0.2,0.1,0.3,0.3,0.3,0.6c0,0.3-0.1,0.6-0.4,0.8c-0.3,0.2-0.6,0.2-0.9,0.2c-0.1,0-0.1,0-0.1,0c0,0.3,0,0.6,0,1.1h-0.6
	c0-0.4,0-0.9,0-1.5C78.1,291.9,78.1,291.4,78.1,291.1z M72.7,292.5c0.3-0.9,0.5-1.4,0.5-1.4h0.8c0,0.1,0.2,0.6,0.5,1.4
	c0.3,0.9,0.5,1.3,0.5,1.4h-0.7c0-0.1-0.1-0.4-0.2-0.8h-1c-0.1,0.4-0.2,0.7-0.2,0.8h-0.7C72.2,293.8,72.4,293.4,72.7,292.5z
	 M68.4,291.1h0.4c0.1,0,0.2,0,0.3,0c0.1,0,0.2,0,0.2,0c0.5,0,0.9,0.1,1.1,0.4c0.2,0.3,0.4,0.6,0.4,0.9c0,0.4-0.1,0.8-0.4,1.1
	s-0.6,0.5-1.1,0.5c-0.2,0-0.5,0-0.9,0c0-0.4,0-0.9,0-1.5C68.4,291.9,68.4,291.4,68.4,291.1z M67,291.1h0.6c0,0.4,0,0.8,0,1.4
	c0,0.5,0,1,0,1.5H67c0-0.4,0-0.9,0-1.5C67,291.9,67,291.4,67,291.1z M64,291.4c0.3-0.3,0.6-0.4,1-0.4c0.4,0,0.7,0.1,1,0.4
	s0.4,0.6,0.4,1c0,0.4-0.1,0.8-0.4,1.1s-0.6,0.4-1,0.4c-0.4,0-0.7-0.1-1-0.4c-0.3-0.3-0.4-0.6-0.4-1C63.6,292.1,63.8,291.7,64,291.4z
	 M58,291.1h0.4c0.1,0,0.2,0,0.3,0c0.1,0,0.2,0,0.2,0c0.5,0,0.9,0.1,1.1,0.4c0.2,0.3,0.4,0.6,0.4,0.9c0,0.4-0.1,0.8-0.4,1.1
	c-0.3,0.3-0.6,0.5-1.1,0.5c-0.2,0-0.5,0-0.9,0c0-0.4,0-0.9,0-1.5C58,291.9,58,291.4,58,291.1z M54.9,291.1h0.6
	c0,0.1,0.2,0.4,0.5,0.9c0.4,0.6,0.6,1,0.7,1.2h0c0-0.3-0.1-0.6-0.1-0.9c0-0.4,0-0.8,0-1.2h0.5c0,0.4,0,0.8,0,1.4c0,0.5,0,1,0,1.5
	h-0.5c0-0.1-0.2-0.4-0.6-0.9c-0.4-0.6-0.7-1-0.7-1.2h0c0,0.3,0.1,0.6,0.1,0.9c0,0.4,0,0.8,0,1.3h-0.5c0-0.4,0-0.9,0-1.5
	C54.9,291.9,54.9,291.4,54.9,291.1z M52.2,292.5c0.3-0.9,0.5-1.4,0.5-1.4h0.8c0,0.1,0.2,0.6,0.5,1.4c0.3,0.9,0.5,1.3,0.5,1.4h-0.7
	c0-0.1-0.1-0.4-0.2-0.8h-1c-0.1,0.4-0.2,0.7-0.2,0.8h-0.7C51.7,293.8,51.8,293.4,52.2,292.5z M29.2,291.5c4.4,2.5,8.8,4.9,13.2,7.4
	c0.2,0.1,0.2,0.2,0,0.3c-1,1-2,1.9-2.9,2.9c-0.1,0.1-0.2,0.2-0.3,0c-3.5-3.6-7-7.1-10.5-10.7c0,0-0.1-0.1-0.1-0.1
	C28.9,291.3,29,291.4,29.2,291.5z M27.9,313.3c-0.4-0.3-0.5-0.7-0.5-1.1c0-1.9,0-3.8,0-5.7c0-1.3,0-2.7,0-4c0,0,0,0,0,0
	c0-3.2,0-6.4,0-9.6c0-0.4,0.1-0.8,0.4-1.1c0.1-0.1,0.2-0.1,0.3,0c2.2,2.2,4.3,4.4,6.5,6.6c1.4,1.4,2.8,2.9,4.2,4.3
	c0.1,0.1,0.1,0.2,0,0.4c-3.4,3.4-6.9,6.9-10.3,10.3C28.2,313.4,28.1,313.4,27.9,313.3z M42.1,306.3c-4.1,2.2-8.2,4.5-12.3,6.8
	c-0.1,0-0.1,0.1-0.2,0.1c3.2-3.2,6.4-6.5,9.6-9.7c0.2-0.2,0.3-0.2,0.5,0c0.8,0.8,1.6,1.7,2.5,2.5C42.2,306.1,42.2,306.2,42.1,306.3z
	 M47.4,303.3c-0.2,0.1-0.4,0.3-0.6,0.4c-1.2,0.7-2.5,1.4-3.7,2.1c-0.2,0.1-0.3,0.1-0.4-0.1c-0.9-0.9-1.8-1.8-2.7-2.7
	c-0.1-0.1-0.1-0.2,0-0.3c1-1,2.1-2.1,3.1-3.1c0.1-0.1,0.2-0.1,0.4-0.1c1.2,0.7,2.5,1.4,3.7,2.1c0.4,0.2,0.7,0.5,0.7,0.9
	C47.8,302.9,47.7,303.1,47.4,303.3z M60.4,306.3c-0.9,1-2.2,1.5-3.7,1.5c-1.5,0-2.7-0.5-3.7-1.5c-1-1-1.5-2.3-1.5-3.7
	s0.5-2.7,1.5-3.7c1-1,2.3-1.5,3.7-1.5c0.7,0,1.4,0.1,2.1,0.4c0.7,0.3,1.2,0.7,1.6,1.1l-0.9,0.9c-0.7-0.8-1.6-1.2-2.8-1.2
	c-1.1,0-2,0.4-2.7,1.1c-0.8,0.7-1.2,1.7-1.2,2.9c0,1.2,0.4,2.2,1.2,2.9c0.8,0.7,1.7,1.1,2.7,1.1c1.1,0,2.1-0.4,2.8-1.1
	c0.5-0.5,0.8-1.2,0.8-2h-3.7v-1.2h4.9c0,0.3,0.1,0.5,0.1,0.8C61.7,304.4,61.3,305.5,60.4,306.3z M61.6,292.8c0,0.4,0,0.7,0,1.1H61
	c0-0.4,0-0.9,0-1.5c0-0.5,0-1,0-1.4h0.4c0,0,0.1,0,0.3,0c0.1,0,0.3,0,0.4,0c0.7,0,1,0.2,1,0.7c0,0.4-0.2,0.6-0.6,0.8v0
	c0.1,0,0.3,0.2,0.4,0.3c0.1,0.2,0.3,0.5,0.4,1h-0.6c-0.2-0.5-0.3-0.8-0.4-1c-0.1-0.1-0.2-0.2-0.4-0.2
	C61.7,292.8,61.7,292.8,61.6,292.8z M68.3,306.8c-0.7,0.7-1.5,1-2.5,1c-1,0-1.9-0.3-2.5-1s-1-1.6-1-2.6c0-1.1,0.3-1.9,1-2.6
	c0.7-0.7,1.5-1,2.5-1c1,0,1.9,0.3,2.5,1c0.7,0.7,1,1.6,1,2.6C69.3,305.2,69,306.1,68.3,306.8z M75.8,306.8c-0.7,0.7-1.5,1-2.5,1
	c-1,0-1.9-0.3-2.5-1s-1-1.6-1-2.6c0-1.1,0.3-1.9,1-2.6c0.7-0.7,1.5-1,2.5-1c1,0,1.9,0.3,2.5,1c0.7,0.7,1,1.6,1,2.6
	C76.8,305.2,76.5,306.1,75.8,306.8z M76.2,292.8c-0.1,0-0.1,0-0.1,0c0,0.3,0,0.6,0,1.1h-0.6c0-0.4,0-0.9,0-1.5c0-0.5,0-1,0-1.4h0.4
	c0.1,0,0.2,0,0.3,0c0.2,0,0.3,0,0.4,0c0.3,0,0.5,0.1,0.7,0.2c0.2,0.1,0.3,0.3,0.3,0.6c0,0.3-0.1,0.6-0.4,0.8
	C76.9,292.7,76.6,292.8,76.2,292.8z M84.2,307.3c0,1.2-0.3,2.1-1,2.7c-0.7,0.6-1.5,0.9-2.5,0.9c-0.8,0-1.5-0.2-2-0.6
	s-0.9-0.9-1.1-1.4l1.2-0.5c0.1,0.4,0.4,0.7,0.7,0.9s0.8,0.4,1.2,0.4c0.7,0,1.3-0.2,1.7-0.6c0.4-0.4,0.6-1,0.6-1.7v-0.7h-0.1
	c-0.2,0.3-0.5,0.6-1,0.8c-0.4,0.2-0.9,0.3-1.4,0.3c-0.9,0-1.7-0.4-2.3-1.1c-0.6-0.7-1-1.6-1-2.6c0-1,0.3-1.9,1-2.6
	c0.6-0.7,1.4-1.1,2.3-1.1c0.5,0,1,0.1,1.4,0.3c0.4,0.2,0.7,0.5,1,0.8h0.1v-1h1.2V307.3z M84,293.5c-0.3,0.3-0.6,0.4-1,0.4
	c-0.4,0-0.7-0.1-1-0.4c-0.3-0.3-0.4-0.6-0.4-1c0-0.4,0.1-0.8,0.4-1.1s0.6-0.4,1-0.4c0.4,0,0.7,0.1,1,0.4s0.4,0.6,0.4,1
	C84.4,292.9,84.3,293.2,84,293.5z M86.7,307.6h-1.3v-10.1h1.3V307.6z M87.3,293.9h-0.5c0-0.1-0.2-0.4-0.6-0.9
	c-0.4-0.6-0.7-1-0.7-1.2h0c0,0.3,0.1,0.6,0.1,0.9c0,0.4,0,0.8,0,1.3H85c0-0.4,0-0.9,0-1.5c0-0.5,0-1,0-1.4h0.6
	c0,0.1,0.2,0.4,0.5,0.9c0.4,0.6,0.6,1,0.7,1.2h0c0-0.3-0.1-0.6-0.1-0.9c0-0.4,0-0.8,0-1.2h0.5c0,0.4,0,0.8,0,1.4
	C87.3,293,87.3,293.5,87.3,293.9z M94.2,304.4h-5.4c0,0.7,0.3,1.2,0.7,1.6c0.4,0.4,0.9,0.6,1.5,0.6c0.9,0,1.6-0.4,1.9-1.2l1.2,0.5
	c-0.2,0.5-0.6,1-1.1,1.3c-0.5,0.4-1.1,0.5-1.9,0.5c-1,0-1.9-0.3-2.5-1c-0.7-0.7-1-1.6-1-2.6c0-1,0.3-1.9,0.9-2.6
	c0.6-0.7,1.4-1.1,2.4-1.1c1,0,1.8,0.3,2.5,1c0.6,0.7,0.9,1.6,0.9,2.7L94.2,304.4z M103.6,302.7c-0.6,0.6-1.4,0.9-2.2,0.9h-2.1v4.1
	H98v-10.1h3.4c0.9,0,1.6,0.3,2.2,0.9c0.6,0.6,0.9,1.3,0.9,2.1S104.3,302.1,103.6,302.7z M106.7,307.6h-1.3v-10.1h1.3V307.6z
	 M113.6,307.6h-1.2v-1h-0.1c-0.5,0.8-1.3,1.2-2.3,1.2c-0.7,0-1.3-0.2-1.8-0.6c-0.5-0.4-0.7-1-0.7-1.7c0-0.8,0.3-1.3,0.9-1.8
	c0.6-0.4,1.3-0.6,2.2-0.6c0.8,0,1.4,0.1,1.9,0.4v-0.2c0-0.5-0.2-0.9-0.5-1.2c-0.3-0.3-0.8-0.5-1.3-0.5c-0.4,0-0.7,0.1-1,0.3
	c-0.3,0.2-0.5,0.4-0.6,0.7l-1.2-0.5c0.2-0.4,0.5-0.8,0.9-1.1s1.1-0.5,1.9-0.5c0.9,0,1.6,0.3,2.2,0.8c0.6,0.5,0.9,1.2,0.9,2.2V307.6z
	 M116.4,310.6h-1.3l1.6-3.5l-2.8-6.5h1.4l2.1,5h0l2-5h1.4L116.4,310.6z"/>
</svg>
