<?xml version="1.0" encoding="utf-8"?>
<!-- Generator: Adobe Illustrator 16.0.0, SVG Export Plug-In . SVG Version: 6.00 Build 0)  -->
<!DOCTYPE svg PUBLIC "-//W3C//DTD SVG 1.1//EN" "http://www.w3.org/Graphics/SVG/1.1/DTD/svg11.dtd">
<svg version="1.1" id="Capa_1" xmlns="http://www.w3.org/2000/svg" xmlns:xlink="http://www.w3.org/1999/xlink" x="0px" y="0px"
	 width="400px" height="450px" viewBox="0 0 400 450" style="enable-background:new 0 0 400 450;" xml:space="preserve">
<style type="text/css">
<![CDATA[
	.fnd-l{fill-rule:evenodd;clip-rule:evenodd;fill:#ff0;opacity:1;animation: svgReset 1s forwards 9.5s;}

	.cuL-l{fill:none;stroke:#000000;stroke-width:0.7;stroke-dashoffset:0;opacity:0;
		stroke-dasharray:360px;
		animation: cuL-l 1s forwards linear, lre 1s forwards 5.5s, svgReset 1s forwards 9s;		
	}
	@keyframes cuL-l{0%{opacity:1;
			stroke-dashoffset:360px;
	}100%{stroke-dashoffset:0px;opacity:1;}}

	.mL-l{fill:none;stroke:#000000;stroke-width:0.7;opacity:1;stroke-dashoffset:0;opacity:0;
		stroke-dasharray:850px;
		animation: mL-l 1s forwards linear 1s, lre 1s forwards 5.5s, svgReset 1s forwards 9s;
	}
	@keyframes mL-l{0%{opacity:1;
			stroke-dashoffset:850px;
	}100%{stroke-dashoffset:0px;opacity:1;}}	

	.tL-l{fill:none;stroke:#000000;stroke-width:0.7;opacity:1;stroke-dashoffset:0;opacity:0;
		stroke-dasharray:650px;
		animation: tL-l 1s forwards linear 1s, lre 1s forwards 5.5s, svgReset 1s forwards 9s;		
	}
	@keyframes tL-l{0%{opacity:1;
			stroke-dashoffset:650px;
	}100%{stroke-dashoffset:0px;opacity:1;}}

	.pinL{fill:none;stroke:#000000;stroke-width:0.7;
		opacity:0;
		stroke-dasharray:40px;
		animation: pinL 2s forwards linear 2.5s, lre 1s forwards 5.5s, svgReset 1s forwards 9s;
	}
	@keyframes pinL{0%{opacity:1;
			stroke-dashoffset:40px;
	}100%{stroke-dashoffset:0px;opacity:1;}}

	.brL{fill:none;stroke:#000000;stroke-width:0.7;opacity:0;
		stroke-dasharray:500px;
		animation: brL 1s forwards linear 3.5s, lre 1s forwards 5.5s, svgReset 1s forwards 9s;
	}
	@keyframes brL{0%{opacity:1;
			stroke-dashoffset:500px;
	}100%{stroke-dashoffset:0px;opacity:1;}}
	
	.raAllL{fill:none;stroke:#000000;stroke-width:0.7;opacity:0;
		stroke-dasharray:360px;
		animation: cuL-l 1s forwards linear 4.5s, svgReset 1s forwards 9s;
	}

	.cuC-l{fill-rule:evenodd;clip-rule:evenodd;fill:#000000;opacity:0;animation: allC 1s forwards 5s, svgReset 1s forwards 9s;}
	.pinC-l{fill-rule:evenodd;clip-rule:evenodd;fill:#000000;opacity:0;animation: allC 1s forwards 5s, svgReset 1s forwards 9s;}
	.brC-l{fill-rule:evenodd;clip-rule:evenodd;fill:#FFFFFF;opacity:0;animation: allC 1s forwards 5s, svgReset 1s forwards 9s;}
	.mtC-l{fill-rule:evenodd;clip-rule:evenodd;fill:#000000;opacity:0;animation: allC 1s forwards 5s, svgReset 1s forwards 9s;}
	@keyframes allC{
		0%{opacity:0;					
		}100%{opacity:1;
	}}	
	@keyframes lre{0%{opacity:1;}100%{opacity:0;}}

	.sSetL{fill:none;stroke:#000000;stroke-width:0.7;opacity:1;stroke-dashoffset:0;opacity:0;
		stroke-dasharray:850px;
		animation: mL-l 1s forwards linear 5.5s, lre 1s forwards 6s, svgReset 1s forwards 9s;
	}
	.eSetL{fill:none;stroke:#000000;stroke-width:0.7;opacity:1;stroke-dashoffset:0;opacity:0;
		stroke-dasharray:850px;
		animation: mL-l 1s forwards linear 5.5s, lre 1s forwards 6s, svgReset 1s forwards 9s;
	}
	.tSetL{fill:none;stroke:#000000;stroke-width:0.7;opacity:1;stroke-dashoffset:0;opacity:0;
		stroke-dasharray:850px;
		animation: mL-l 1s forwards linear 5.5s, lre 1s forwards 6s, svgReset 1s forwards 9s;
	}

	.setC{fill-rule:evenodd;clip-rule:evenodd;fill:#000000;opacity:0;animation: allC 0.5s forwards 6.5s, svgReset 1s forwards 9s;}

	.txtRj{fill:#ff0000;transform: translateX(-1000px);
		animation: txtRj 0.5s forwards 7s, svgReset 1s forwards 9s;
	}
	@keyframes txtRj{
		0%{transform: translateX(-1000px);}
		75%{transform: translateX(200px);}
		100%{transform: translateX(0px);
	}}

	.txtNg{fill:#000000;transform: translateX(1000px);
		animation: txtNg 0.5s forwards 7s, svgReset 1s forwards 9s;
	}
	@keyframes txtNg{
		0%{transform: translateX(1000px);}
		75%{transform: translateX(-200px);}
		100%{transform: translateX(0px);
	}}

    .sombra{fill-rule:evenodd;clip-rule:evenodd;fill:#FFFFFF;opacity:0;
        animation: sombra 0.5s forwards 7s, svgReset 1s forwards 9s;
    }
    @keyframes sombra{
		0%{opacity:0;}		
		100%{opacity:0.7;
	}}
     
    @keyframes svgReset{
		0%{opacity:1;}
		100%{opacity:0;
	}}
]]>
</style>
<rect id="campo" x="0.2" y="0.1" class="fnd-l" width="399.8" height="449.9"/>
<g id="rLiz-l">
	<line id="rLiz-l_33_" class="raAllL" x1="180.9" y1="104.1" x2="175.5" y2="53.2"/>
	<line id="rLiz-l_32_" class="raAllL" x1="181.2" y1="103" x2="182" y2="53.8"/>
	<line id="rLiz-l_31_" class="raAllL" x1="187.8" y1="102.1" x2="187.9" y2="56.3"/>
	<line id="rLiz-l_30_" class="raAllL" x1="188.3" y1="104.1" x2="192.8" y2="60.1"/>
	<line id="rLiz-l_29_" class="raAllL" x1="182.6" y1="100.6" x2="197" y2="65"/>
	<line id="rLiz-l_28_" class="raAllL" x1="182.6" y1="102" x2="201.1" y2="71.7"/>
	<line id="rLiz-l_27_" class="raAllL" x1="188.7" y1="107.1" x2="204" y2="78.2"/>
	<line id="rLiz-l_26_" class="raAllL" x1="188.3" y1="109" x2="206.4" y2="85.8"/>
	<line id="rLiz-l_25_" class="raAllL" x1="185.4" y1="100.5" x2="207.9" y2="92.9"/>
	<line id="rLiz-l_24_" class="raAllL" x1="186" y1="101" x2="208.9" y2="101.6"/>
	<line id="rLiz-l_23_" class="raAllL" x1="185.6" y1="111.6" x2="209" y2="109.3"/>
	<line id="rLiz-l_22_" class="raAllL" x1="185.1" y1="112.3" x2="208.4" y2="117.7"/>
	<line id="rLiz-l_21_" class="raAllL" x1="207" y1="126" x2="187.3" y2="102.8"/>
	<line id="rLiz-l_20_" class="raAllL" x1="188.3" y1="104.1" x2="204.5" y2="134.7"/>
	<line id="rLiz-l_19_" class="raAllL" x1="201.7" y1="141.4" x2="184.6" y2="113"/>
	<line id="rLiz-l_18_" class="raAllL" x1="182.8" y1="111.4" x2="197.6" y2="148.4"/>
	<line id="rLiz-l_17_" class="raAllL" x1="193.3" y1="153.6" x2="187.8" y2="105.1"/>
	<line id="rLiz-l_16_" class="raAllL" x1="188.1" y1="108" x2="187.4" y2="158.2"/>
	<line id="rLiz-l_15_" class="raAllL" x1="180.9" y1="104.1" x2="181.9" y2="160.4"/>
	<line id="rLiz-l_14_" class="raAllL" x1="180.7" y1="107.7" x2="175.6" y2="161.1"/>
	<line id="rLiz-l_13_" class="raAllL" x1="187.1" y1="111.5" x2="168.7" y2="159.3"/>
	<line id="rLiz-l_12_" class="raAllL" x1="186.1" y1="111.6" x2="162.8" y2="155.4"/>
	<line id="rLiz-l_11_" class="raAllL" x1="182.1" y1="104.1" x2="156.7" y2="148.7"/>
	<line id="rLiz-l_10_" class="raAllL" x1="180.9" y1="104.2" x2="151.4" y2="139.3"/>
	<line id="rLiz-l_9_" class="raAllL" x1="185.1" y1="112.3" x2="147.3" y2="127.1"/>
	<line id="rLiz-l_8_" class="raAllL" x1="185.1" y1="112.3" x2="145.5" y2="115.4"/>
	<line id="rLiz-l_7_" class="raAllL" x1="183.7" y1="101.5" x2="145.3" y2="100.8"/>
	<line id="rLiz-l_6_" class="raAllL" x1="185.4" y1="100.5" x2="147.1" y2="88.4"/>
	<line id="rLiz-l_5_" class="raAllL" x1="182" y1="110" x2="150.7" y2="76.5"/>
	<line id="rLiz-l_4_" class="raAllL" x1="181" y1="108.7" x2="156" y2="66.5"/>
	<line id="rLiz-l_3_" class="raAllL" x1="186" y1="101" x2="162.1" y2="59.5"/>
	<line id="rLiz-l_2_" class="raAllL" x1="187.3" y1="102.8" x2="168.6" y2="55"/>
	<line id="rLiz-l_1_" class="raAllL" x1="184.5" y1="153" x2="184.6" y2="159.8"/>
</g>
<g id="rLdr-l">
	<line id="rLdr-l_33_" class="raAllL" x1="342.6" y1="104.1" x2="337.3" y2="53.2"/>
	<line id="rLdr-l_32_" class="raAllL" x1="342.9" y1="103" x2="343.8" y2="53.8"/>
	<line id="rLdr-l_31_" class="raAllL" x1="349.6" y1="102.1" x2="349.7" y2="56.3"/>
	<line id="rLdr-l_30_" class="raAllL" x1="350.1" y1="104.1" x2="354.5" y2="60.1"/>
	<line id="rLdr-l_29_" class="raAllL" x1="344.4" y1="100.6" x2="358.8" y2="65"/>
	<line id="rLdr-l_28_" class="raAllL" x1="344.4" y1="102" x2="362.9" y2="71.7"/>
	<line id="rLdr-l_27_" class="raAllL" x1="350.4" y1="107.1" x2="365.8" y2="78.2"/>
	<line id="rLdr-l_26_" class="raAllL" x1="350" y1="109" x2="368.2" y2="85.8"/>
	<line id="rLdr-l_25_" class="raAllL" x1="347.1" y1="100.5" x2="369.6" y2="92.9"/>
	<line id="rLdr-l_24_" class="raAllL" x1="347.7" y1="101" x2="370.6" y2="101.6"/>
	<line id="rLdr-l_23_" class="raAllL" x1="347.3" y1="111.6" x2="370.7" y2="109.3"/>
	<line id="rLdr-l_22_" class="raAllL" x1="346.8" y1="112.3" x2="370.1" y2="117.7"/>
	<line id="rLdr-l_21_" class="raAllL" x1="368.7" y1="126" x2="349" y2="102.8"/>
	<line id="rLdr-l_20_" class="raAllL" x1="350.1" y1="104.1" x2="366.3" y2="134.7"/>
	<line id="rLdr-l_19_" class="raAllL" x1="363.5" y1="141.4" x2="346.4" y2="113"/>
	<line id="rLdr-l_18_" class="raAllL" x1="344.5" y1="111.4" x2="359.4" y2="148.4"/>
	<line id="rLdr-l_17_" class="raAllL" x1="355" y1="153.6" x2="349.5" y2="105.1"/>
	<line id="rLdr-l_16_" class="raAllL" x1="349.9" y1="108" x2="349.1" y2="158.2"/>
	<line id="rLdr-l_15_" class="raAllL" x1="342.6" y1="104.1" x2="343.6" y2="160.4"/>
	<line id="rLdr-l_14_" class="raAllL" x1="342.5" y1="107.7" x2="337.3" y2="161.1"/>
	<line id="rLdr-l_13_" class="raAllL" x1="348.9" y1="111.5" x2="330.5" y2="159.3"/>
	<line id="rLdr-l_12_" class="raAllL" x1="347.8" y1="111.6" x2="324.5" y2="155.4"/>
	<line id="rLdr-l_11_" class="raAllL" x1="343.8" y1="104.1" x2="318.4" y2="148.7"/>
	<line id="rLdr-l_10_" class="raAllL" x1="342.6" y1="104.2" x2="313.1" y2="139.3"/>
	<line id="rLdr-l_9_" class="raAllL" x1="346.8" y1="112.3" x2="309.1" y2="127.1"/>
	<line id="rLdr-l_8_" class="raAllL" x1="346.8" y1="112.3" x2="307.2" y2="115.4"/>
	<line id="rLdr-l_7_" class="raAllL" x1="345.5" y1="101.5" x2="307.1" y2="100.8"/>
	<line id="rLdr-l_6_" class="raAllL" x1="347.1" y1="100.5" x2="308.8" y2="88.4"/>
	<line id="rLdr-l_5_" class="raAllL" x1="343.8" y1="110" x2="312.5" y2="76.5"/>
	<line id="rLdr-l_4_" class="raAllL" x1="342.7" y1="108.7" x2="317.7" y2="66.5"/>
	<line id="rLdr-l_3_" class="raAllL" x1="347.7" y1="101" x2="323.8" y2="59.5"/>
	<line id="rLdr-l_2_" class="raAllL" x1="349" y1="102.8" x2="330.4" y2="55"/>
	<line id="rLdr-l_1_" class="raAllL" x1="346.2" y1="153" x2="346.4" y2="159.8"/>
</g>
<g id="c-l">
	<path id="b2Ciz-l_1_" class="brC-l" d="M144.4,120.2c-1.4-10.1-1.1-20,0.7-29.7c0.3-1.6,0.7-3.5,1.1-5c0.1-0.3,3.4-10,1.9-7.5
		c-0.2,0.3-0.5,1.1-0.6,1.6l-1.7,6.2c-0.2,0.7-1.2,5.2-1.4,5.5c0.1-0.9,0.2-1.5,0.3-2.3c0.4-2.5,1.5-6.2,2.3-8.4l0.3-0.9l0.6-1.8
		c0.1-0.5,1-2.9,0.1-1.1c-0.5,1-0.4,0.5-1,2.4c-1.2,3.6-1.8,5.6-2.8,9.5l-0.2,1l-0.2,0.8l-0.1,0.2c0-0.5,0.2-1.1,0.2-1.5
		c0.3-1.6,1-4.9,1.4-6.3c0.2-0.8,0.4-1.5,0.7-2.3c1.1-3.3,1.8-4.9,2.7-7.4c0.9-2.7-0.6,0.8-0.8,1.4l-2.2,4.6
		c0.1-1.4,4.4-11.7,0.9-4.3l-0.5,1.1c-0.6,1.6-1.1,3.1-1.7,4.9c-0.9,2.9-2,7.2-2.6,10.5c-0.1,0.3-0.1,0.5-0.2,0.6
		c0.1-0.6,0.1-1.1,0.2-1.7c0.2-1.9,0.7-4.1,1.1-5.7l0.2-0.7c0.7-2.5,1.7-5.4,2.6-7.7l1.3-3.4c1.5-4.6-3.3,7-3.5,7.7
		c-0.4,1.4-1.1,4-1.4,5.5l-1,4.8c-0.7,4.1-1.6,10.9-1.7,15.2c0,1-0.1,2.1-0.1,3.1c0,6.3,0.5,11.5,1.6,17.2l1,4.7
		c0.5,2.2,1.8,6.6,2.5,8.4l1.1,2.8l3,6.4c0.1,0.2,0.1,0.2,0.2,0.4l0.4,0.8c1,1.8,2.1,3.5,3.3,4.9c0.6,0.8,1.1,1.2,1.5,1.8l2.1,2.3
		c2.3,2,3.5,3,5.9,4.5c4.2,2.6,9.3,4.2,14.2,3.4c0.5-0.1,1-0.1,1.5-0.2c2.3-0.5,14.7-6.7,6.1-2.7c-1.7,0.8-4.3,1.9-6.1,2.1l-2.2,0.2
		c-0.3,0-0.6,0-0.9,0c-0.3,0-0.5-0.1-0.9-0.1v-0.1c2.8,0,6.8-0.8,9.4-1.9c7.3-3.2-1.4,0.1-2.4,0.4c-0.4,0.1-0.9,0.3-1.3,0.4
		c-2,0.4-2.2,0.4-4.3,0.4l4.3-0.9c1.5-0.4,2.5-0.5,4.1-1.2c2.8-1.2,3.4-2,0-0.5c-0.8,0.3-1.6,0.6-2.4,0.9c-0.4,0.1-4.7,1.4-5.2,0.6
		c0.3,0,0.6-0.2,0.9-0.2l4.4-0.9l0.8-0.3c0.3-0.1,0.6-0.3,0.8-0.3v-0.1c-1,0-0.5-0.1-1.4,0.2c-1.1,0.3-1.9,0.4-2.7,0.6
		c-0.8,0.2-3.7,0.3-4.3,0.2l0.7-0.1c0.2,0,0.2-0.1,0.4-0.1c0.4,0,1,0.1,1.4,0c1.9-0.3,3-0.5,5-1.2c5.9-2.6,0.4-0.2-1.7,0.1
		c-0.8,0.1-1.7,0.4-2.5,0.4l-2,0.1l-3.2-0.4c-2.2-0.4-4.8-1.4-6.9-2.6c-1.5-0.9-2.8-1.8-4.1-3l-1.9-1.8c-0.6-0.5-2-2.2-2.7-3
		l-0.8-1.1c-1.1-1.4-2.2-3.2-3.2-4.8l-0.8-1.3l-1.1-2.1l-2.3-5.3c-1.6-4.3-2-6-3.1-10.7C145.1,124.8,144.6,122.2,144.4,120.2z"/>
	<path id="b2Cdr-l" class="brC-l" d="M306.1,120.2c-1.4-10.1-1.1-20,0.7-29.7c0.3-1.6,0.7-3.5,1.1-5c0.1-0.3,3.4-10,1.9-7.5
		c-0.2,0.3-0.5,1.1-0.6,1.6l-1.7,6.2c-0.2,0.7-1.2,5.2-1.4,5.5c0.1-0.9,0.2-1.5,0.3-2.3c0.4-2.5,1.5-6.2,2.3-8.4l0.3-0.9l0.6-1.8
		c0.1-0.5,1-2.9,0.1-1.1c-0.5,1-0.4,0.5-1,2.4c-1.2,3.6-1.8,5.6-2.8,9.5l-0.2,1l-0.2,0.8l-0.1,0.2c0-0.5,0.2-1.1,0.2-1.5
		c0.3-1.6,1-4.9,1.4-6.3c0.2-0.8,0.4-1.5,0.7-2.3c1.1-3.3,1.8-4.9,2.7-7.4c0.9-2.7-0.6,0.8-0.8,1.4l-2.2,4.6
		c0.1-1.4,4.4-11.7,0.9-4.3l-0.5,1.1c-0.6,1.6-1.1,3.1-1.7,4.9c-0.9,2.9-2,7.2-2.6,10.5c0,0.3-0.1,0.5-0.2,0.6
		c0.1-0.6,0.1-1.1,0.2-1.7c0.2-1.9,0.7-4.1,1.1-5.7l0.2-0.7c0.7-2.5,1.7-5.4,2.6-7.7l1.3-3.4c1.5-4.6-3.3,7-3.5,7.7
		c-0.4,1.4-1.1,4-1.4,5.5l-1,4.8c-0.7,4.1-1.6,10.9-1.7,15.2c0,1-0.1,2.1-0.1,3.1c0,6.3,0.5,11.5,1.6,17.2l1,4.7
		c0.5,2.2,1.8,6.6,2.5,8.4l1.1,2.8l3,6.4c0.1,0.2,0.1,0.2,0.2,0.4l0.4,0.8c1,1.8,2.1,3.5,3.3,4.9c0.6,0.8,1.1,1.2,1.5,1.8l2.1,2.3
		c2.3,2,3.5,3,5.9,4.5c4.2,2.6,9.3,4.2,14.2,3.4c0.5-0.1,1-0.1,1.5-0.2c2.3-0.5,14.7-6.7,6.1-2.7c-1.7,0.8-4.3,1.9-6.1,2.1l-2.2,0.2
		c-0.3,0-0.6,0-0.9,0c-0.3,0-0.5-0.1-0.9-0.1v-0.1c2.8,0,6.8-0.8,9.4-1.9c7.3-3.2-1.4,0.1-2.4,0.4c-0.4,0.1-0.9,0.3-1.3,0.4
		c-2,0.4-2.2,0.4-4.3,0.4l4.3-0.9c1.5-0.4,2.5-0.5,4.1-1.2c2.8-1.2,3.4-2,0-0.5c-0.8,0.3-1.6,0.6-2.4,0.9c-0.4,0.1-4.7,1.4-5.2,0.6
		c0.3,0,0.6-0.2,0.9-0.2l4.4-0.9l0.8-0.3c0.3-0.1,0.6-0.3,0.8-0.3v-0.1c-1,0-0.5-0.1-1.4,0.2c-1.1,0.3-1.9,0.4-2.7,0.6
		c-0.8,0.2-3.7,0.3-4.3,0.2l0.7-0.1c0.2,0,0.2-0.1,0.4-0.1c0.4,0,1,0.1,1.4,0c1.9-0.3,3-0.5,5-1.2c5.9-2.6,0.4-0.2-1.7,0.1
		c-0.8,0.1-1.7,0.4-2.5,0.4l-2,0.1l-3.2-0.4c-2.2-0.4-4.8-1.4-6.9-2.6c-1.5-0.9-2.8-1.8-4.1-3l-1.9-1.8c-0.6-0.5-2-2.2-2.7-3
		l-0.8-1.1c-1.1-1.4-2.2-3.2-3.2-4.8l-0.8-1.3l-1.1-2.1l-2.3-5.3c-1.6-4.3-2-6-3.1-10.7C306.8,124.8,306.4,122.2,306.1,120.2z"/>
	<path id="b1Ciz-l" class="brC-l" d="M202.1,70.2l2.5,5.5c0.6,1.7,1.2,3.1,1.8,4.9l1.2,4.1c0.8,3.4,1.6,7.3,2,11
		c0.8,6.7,0.9,15.6,0.1,22.5c-0.2,1.9-0.4,2.9-0.7,4.7c-0.1,0.5-0.5,2.4-0.1,0.6c0.5-2.5,0.6-3.9,0.9-5.5l0.2-0.8
		c0,1.1-0.3,2.9-0.4,3.8c-0.1,0.6-0.2,1.2-0.3,1.7c-0.3,1.6-0.4,2.2,0,0.2c0.6-3.4,1.1-6,1.3-9.9l0.1-1.8c0.1,2.5-0.8,9.3-1.2,11.6
		c-0.6,3.5-0.8,4.6,0,0.2c0.5-3,0.9-5.3,1.2-8.6c0-0.4,0.1-1.4,0.1-1.9l0,0c0,1.6-0.4,5.5-0.6,7c-0.1,1.1-0.3,2.1-0.5,3.2
		c-0.6,3.5-0.7,3.8,0.1,0.1c0.4-1.8,1.3-8.5,1.3-10.1l0,0c0,0.8-0.2,3-0.3,3.9c-0.2,2-0.4,3.4-0.7,5.2c-1.2,8.7-0.4,4,0.4-1.7
		c1.8-12.9,1.2-26.9-2.1-38.9c-0.9-3.3-1.4-4.6-2.5-7.7l-1.6-3.8l-1.7-3.4c-0.1-0.2-0.2-0.3-0.3-0.6c-0.3-0.7-1.8-2.9-2.2-3.6
		l-3-4.1c-1.7-1.8-2-2.3-4-4.2c-1.4-1.3-3.4-2.7-4.8-3.5c-1.5-0.8-3.8-2-5.4-2.3c-0.6-0.1-1.3-0.4-2-0.3l0,0.1
		c0.4,0,0.9,0.2,1.3,0.3c2,0.7,3.9,1.3,5.8,2.5c0.5,0.3,1.5,0.9,2,1.4l0.1,0.1c-0.8,0-5.1-3.5-8.2-3.4l0,0.1c0.3,0,0.8,0.2,1,0.3
		l3,1.2c0.4,0.2,3.3,1.7,3.7,2.3l-1-0.5c-0.3-0.2-0.6-0.3-1-0.6c-1.6-1-4.7-2.3-6.3-2.2l0,0.1c0.2,0,0.5,0.1,0.8,0.2l0.7,0.3
		c0.5,0.1,1,0.3,1.5,0.5c0.6,0.2,2.1,0.7,2.6,1.3c0.1,0.1,0,0,0.1,0.2c-0.2,0-0.3-0.1-0.4-0.2c-1.5-0.6-4.8-1.7-6.1-1.7
		c0.1,0.1,1.6,0.4,1.7,0.4c2.9,0.7,4.9,1.8,7.5,3.6l2,1.6c0.1,0.1,0.2,0.2,0.3,0.3l0.2,0.2l0.1,0.2c-0.2,0-0.5-0.3-0.6-0.5
		c-1.5-1.2-4.1-3-5.6-3.6c-1.6-0.7-2.3-1.2-4.2-1.2l0,0.1c0.2,0,0.6,0.2,0.9,0.3c2.3,0.9,3.3,1.4,5.7,2.7c3.5,2,7.2,5.6,10.2,10.2
		C199.5,65.8,201.4,68.8,202.1,70.2z"/>
	<path id="b1Cdr-l" class="brC-l" d="M363.8,70.2l2.5,5.5c0.6,1.7,1.2,3.1,1.8,4.9l1.2,4.1c0.8,3.4,1.6,7.3,2,11
		c0.8,6.7,0.9,15.6,0.1,22.5c-0.3,1.9-0.4,2.9-0.7,4.7c-0.1,0.5-0.5,2.4-0.1,0.6c0.5-2.5,0.6-3.9,0.9-5.5l0.2-0.8
		c0,1.1-0.3,2.9-0.4,3.8c-0.1,0.6-0.2,1.2-0.3,1.7c-0.3,1.6-0.4,2.2,0,0.2c0.6-3.4,1.1-6,1.3-9.9l0.1-1.8c0.1,2.5-0.8,9.3-1.2,11.6
		c-0.6,3.5-0.8,4.6,0,0.2c0.5-3,0.9-5.3,1.2-8.6c0-0.4,0.1-1.4,0.1-1.9l0,0c0,1.6-0.4,5.5-0.6,7c-0.1,1.1-0.3,2.1-0.5,3.2
		c-0.6,3.5-0.7,3.8,0.1,0.1c0.4-1.8,1.3-8.5,1.3-10.1l0,0c0,0.8-0.2,3-0.3,3.9c-0.2,2-0.4,3.4-0.7,5.2c-1.2,8.7-0.4,4,0.4-1.7
		c1.8-12.9,1.2-26.9-2.1-38.9c-0.9-3.3-1.4-4.6-2.5-7.7l-1.6-3.8l-1.7-3.4c-0.1-0.2-0.2-0.3-0.3-0.6c-0.3-0.7-1.8-2.9-2.2-3.6
		l-3-4.1c-1.7-1.8-2-2.3-4-4.2c-1.4-1.3-3.4-2.7-4.8-3.5c-1.5-0.8-3.8-2-5.4-2.3c-0.6-0.1-1.3-0.4-2-0.3l0,0.1
		c0.4,0,0.9,0.2,1.3,0.3c2,0.7,3.9,1.3,5.8,2.5c0.5,0.3,1.5,0.9,2,1.4l0.1,0.1c-0.8,0-5.1-3.5-8.2-3.4l0,0.1c0.3,0,0.8,0.2,1,0.3
		l3,1.2c0.4,0.2,3.3,1.7,3.7,2.3l-1-0.5c-0.3-0.2-0.6-0.3-1-0.6c-1.6-1-4.7-2.3-6.3-2.2l0,0.1c0.2,0,0.5,0.1,0.8,0.2l0.7,0.3
		c0.5,0.1,1,0.3,1.5,0.5c0.6,0.2,2.1,0.7,2.6,1.3c0.1,0.1,0,0,0.1,0.2c-0.2,0-0.3-0.1-0.4-0.2c-1.5-0.6-4.8-1.7-6.1-1.7
		c0.1,0.1,1.6,0.4,1.7,0.4c2.9,0.7,4.9,1.8,7.5,3.6l2,1.6c0.1,0.1,0.2,0.2,0.3,0.3l0.2,0.2l0.1,0.2c-0.2,0-0.5-0.3-0.6-0.5
		c-1.5-1.2-4.1-3-5.6-3.6c-1.6-0.7-2.3-1.2-4.2-1.2l0,0.1c0.2,0,0.6,0.2,0.9,0.3c2.3,0.9,3.3,1.4,5.7,2.7c3.5,2,7.2,5.6,10.2,10.2
		C361.2,65.8,363.1,68.8,363.8,70.2z"/>
	<path id="cCiz-l" class="cuC-l" d="M172.2,37.9c-22.9,0-41.4,31-41.4,69.3s18.6,69.3,41.4,69.3c22.9,0,41.4-31,41.4-69.3
		S195.1,37.9,172.2,37.9z M145,90.5c-1.8,9.7-2.1,19.6-0.7,29.7c0.3,2,0.7,4.6,1.1,6.3c1.1,4.7,1.6,6.3,3.1,10.7l2.3,5.3l1.1,2.1
		l0.8,1.3c1,1.7,2.1,3.4,3.2,4.8l0.8,1.1c0.7,0.9,2.1,2.5,2.7,3l1.9,1.8c1.3,1.1,2.6,2.1,4.1,3c2.1,1.3,4.6,2.2,6.9,2.6l3.2,0.4
		l2-0.1c0.8,0,1.7-0.3,2.5-0.4c2.1-0.3,7.6-2.7,1.7-0.1c-2,0.7-3,0.8-5,1.2c-0.4,0.1-1,0-1.4,0c-0.2,0-0.2,0.1-0.4,0.1l-0.7,0.1
		c0.6,0.1,3.6,0.1,4.3-0.2c0.8-0.2,1.6-0.3,2.7-0.6c0.9-0.3,0.5-0.2,1.4-0.2v0.1c-0.3,0-0.6,0.2-0.8,0.3l-0.8,0.3l-4.4,0.9
		c-0.3,0-0.6,0.2-0.9,0.2c0.5,0.7,4.8-0.5,5.2-0.6c0.8-0.3,1.6-0.6,2.4-0.9c3.5-1.5,2.8-0.7,0,0.5c-1.6,0.7-2.6,0.8-4.1,1.2
		l-4.3,0.9c2.1,0,2.3,0,4.3-0.4c0.4-0.1,0.9-0.2,1.3-0.4c1-0.3,9.7-3.5,2.4-0.4c-2.6,1.1-6.6,1.9-9.4,1.9v0.1c0.4,0,0.5,0.1,0.9,0.1
		c0.3,0,0.6,0,0.9,0l2.2-0.2c1.8-0.2,4.4-1.3,6.1-2.1c8.6-4-3.8,2.2-6.1,2.7c-0.5,0.1-1,0.1-1.5,0.2c-4.9,0.8-10-0.7-14.2-3.4
		c-2.4-1.5-3.6-2.5-5.9-4.5l-2.1-2.3c-0.5-0.6-0.9-1-1.5-1.8c-1.1-1.5-2.3-3.1-3.3-4.9l-0.4-0.8c-0.1-0.2-0.1-0.2-0.2-0.4l-3-6.4
		l-1.1-2.8c-0.7-1.8-1.9-6.2-2.5-8.4l-1-4.7c-1.1-5.7-1.6-10.9-1.6-17.2c0-1.1,0.1-2.1,0.1-3.1c0.1-4.3,1-11.2,1.7-15.2l1-4.8
		c0.3-1.5,1-4.1,1.4-5.5c0.2-0.6,5-12.2,3.5-7.7l-1.3,3.4c-0.8,2.2-1.9,5.2-2.6,7.7l-0.2,0.7c-0.5,1.6-0.9,3.9-1.1,5.7
		c-0.1,0.6-0.1,1.1-0.2,1.7c0.1-0.2,0.1-0.3,0.2-0.6c0.6-3.4,1.7-7.6,2.6-10.5c0.5-1.7,1.1-3.3,1.7-4.9l0.5-1.1
		c3.5-7.4-0.9,2.9-0.9,4.3l2.2-4.6c0.2-0.6,1.7-4,0.8-1.4c-0.9,2.5-1.6,4.2-2.7,7.4c-0.2,0.8-0.5,1.5-0.7,2.3
		c-0.4,1.4-1.2,4.7-1.4,6.3c-0.1,0.4-0.2,1-0.2,1.5l0.1-0.2l0.2-0.8l0.2-1c0.9-4,1.6-5.9,2.8-9.5c0.6-1.9,0.5-1.4,1-2.4
		c0.8-1.8,0,0.6-0.1,1.1l-0.6,1.8l-0.3,0.9c-0.8,2.2-1.9,5.9-2.3,8.4c-0.1,0.8-0.2,1.5-0.3,2.3c0.2-0.4,1.2-4.8,1.4-5.5l1.7-6.2
		c0.2-0.5,0.4-1.2,0.6-1.6c1.5-2.5-1.8,7.2-1.9,7.5C145.7,87,145.3,88.9,145,90.5z M209.5,118.2c0.9-6.9,0.8-15.7-0.1-22.5
		c-0.4-3.7-1.2-7.7-2-11l-1.2-4.1c-0.6-1.8-1.1-3.3-1.8-4.9l-2.5-5.5c-0.7-1.4-2.6-4.5-3.4-5.7c-3-4.6-6.6-8.2-10.2-10.2
		c-2.3-1.3-3.4-1.8-5.7-2.7c-0.2-0.1-0.6-0.3-0.9-0.3l0-0.1c1.9-0.1,2.6,0.5,4.2,1.2c1.5,0.6,4.1,2.4,5.6,3.6
		c0.1,0.1,0.5,0.4,0.6,0.5l-0.1-0.2l-0.2-0.2c-0.1-0.1-0.2-0.2-0.3-0.3l-2-1.6c-2.7-1.8-4.7-2.9-7.5-3.6c-0.1,0-1.6-0.3-1.7-0.4
		c1.3,0,4.6,1.1,6.1,1.7c0.1,0.1,0.3,0.2,0.4,0.2c-0.1-0.1,0,0-0.1-0.2c-0.5-0.6-2.1-1.1-2.6-1.3c-0.5-0.2-1-0.4-1.5-0.5l-0.7-0.3
		c-0.2-0.1-0.5-0.2-0.8-0.2l0-0.1c1.7,0,4.7,1.3,6.3,2.2c0.4,0.2,0.6,0.4,1,0.6l1,0.5c-0.3-0.6-3.3-2.1-3.7-2.3l-3-1.2
		c-0.2-0.1-0.8-0.3-1-0.3l0-0.1c3.1-0.1,7.4,3.4,8.2,3.4l-0.1-0.1c-0.4-0.4-1.5-1.1-2-1.4c-1.9-1.1-3.8-1.8-5.8-2.5
		c-0.4-0.1-0.9-0.3-1.3-0.3l0-0.1c0.6,0,1.4,0.2,2,0.3c1.6,0.3,3.9,1.5,5.4,2.3c1.5,0.8,3.4,2.2,4.8,3.5c2.1,1.9,2.3,2.3,4,4.2
		l3,4.1c0.4,0.6,1.8,2.9,2.2,3.6c0.1,0.2,0.2,0.4,0.3,0.6l1.7,3.4l1.6,3.8c1.1,3,1.6,4.4,2.5,7.7c3.3,12,4,26,2.1,38.9
		c-0.8,5.7-1.6,10.3-0.4,1.7c0.3-1.8,0.5-3.2,0.7-5.2c0.1-0.8,0.3-3.1,0.3-3.9l0,0c0,1.6-0.9,8.3-1.3,10.1c-0.8,3.8-0.6,3.5-0.1-0.1
		c0.2-1.1,0.3-2,0.5-3.2c0.2-1.6,0.7-5.5,0.6-7l0,0c0,0.5-0.1,1.5-0.1,1.9c-0.3,3.3-0.7,5.6-1.2,8.6c-0.8,4.4-0.6,3.3,0-0.2
		c0.4-2.3,1.3-9.1,1.2-11.6l-0.1,1.8c-0.3,3.8-0.8,6.4-1.3,9.9c-0.4,2-0.3,1.4,0-0.2c0.1-0.6,0.2-1.1,0.3-1.7
		c0.1-0.9,0.4-2.7,0.4-3.8l-0.2,0.8c-0.3,1.6-0.4,3-0.9,5.5c-0.4,1.7,0-0.1,0.1-0.6C209.1,121.1,209.3,120.2,209.5,118.2z M156,66.5
		c3.6-5.3,7.9-9.3,12.7-11.5c2.2-1,4.5-1.6,6.9-1.8c0.5,0,1-0.1,1.5-0.1c1.7,0,3.4,0.2,5,0.7c2,0.5,4,1.4,5.9,2.5
		c1.7,1,3.3,2.3,4.9,3.8c1.5,1.4,2.9,3.1,4.3,4.9c1.5,2,2.8,4.2,4.1,6.6c1.1,2,2,4.2,2.9,6.5c0.9,2.4,1.7,5,2.4,7.6
		c0.6,2.3,1.1,4.6,1.5,7.1c0.5,2.8,0.8,5.8,1,8.8c0.1,1.8,0.2,3.6,0.2,5.5l0,2.2c-0.1,2.9-0.3,5.6-0.6,8.4c-0.3,2.8-0.8,5.6-1.4,8.3
		c-0.7,3-1.5,6-2.5,8.7c-0.8,2.4-1.8,4.6-2.8,6.7c-1.2,2.5-2.6,4.9-4.1,7c-1.4,1.9-2.8,3.7-4.4,5.2c-1.9,1.8-3.8,3.4-5.9,4.6
		c-0.9,0.5-1.8,1-2.8,1.4c-2.4,1-5,1.5-7.6,1.5c-0.5,0-1,0-1.4-0.1c-2.4-0.2-4.7-0.8-6.9-1.8c-2.1-0.9-4.1-2.2-6-3.8
		c-2.2-1.9-4.2-4.1-6.1-6.7c-2-2.8-3.7-5.9-5.3-9.4c-1.6-3.7-3-7.8-4-12.2c-0.9-3.7-1.5-7.6-1.9-11.7c-0.2-2.7-0.4-5.5-0.4-8.3
		c0-2.1,0.1-4.2,0.2-6.3c0.3-4.3,0.9-8.5,1.8-12.4c0.9-4.2,2.2-8.2,3.7-11.9C152.2,72.8,154,69.5,156,66.5z"/>
	<path id="cCdr-l" class="cuC-l" d="M334,37.9c-22.9,0-41.4,31-41.4,69.3s18.6,69.3,41.4,69.3c22.9,0,41.4-31,41.4-69.3
		S356.9,37.9,334,37.9z M306.8,90.5c-1.8,9.7-2.1,19.6-0.7,29.7c0.3,2,0.7,4.6,1.1,6.3c1.1,4.7,1.6,6.3,3.1,10.7l2.3,5.3l1.1,2.1
		l0.8,1.3c1,1.7,2.1,3.4,3.2,4.8l0.8,1.1c0.7,0.9,2.1,2.5,2.7,3l1.9,1.8c1.3,1.1,2.6,2.1,4.1,3c2.1,1.3,4.6,2.2,6.9,2.6l3.2,0.4
		l2-0.1c0.8,0,1.7-0.3,2.5-0.4c2.1-0.3,7.6-2.7,1.7-0.1c-2,0.7-3,0.8-5,1.2c-0.4,0.1-1,0-1.4,0c-0.2,0-0.2,0.1-0.4,0.1l-0.7,0.1
		c0.6,0.1,3.6,0.1,4.3-0.2c0.8-0.2,1.6-0.3,2.7-0.6c0.9-0.3,0.5-0.2,1.4-0.2v0.1c-0.3,0-0.6,0.2-0.8,0.3l-0.8,0.3l-4.4,0.9
		c-0.3,0-0.6,0.2-0.9,0.2c0.5,0.7,4.8-0.5,5.2-0.6c0.8-0.3,1.6-0.6,2.4-0.9c3.5-1.5,2.8-0.7,0,0.5c-1.6,0.7-2.6,0.8-4.1,1.2
		l-4.3,0.9c2.1,0,2.3,0,4.3-0.4c0.4-0.1,0.9-0.2,1.3-0.4c1-0.3,9.7-3.5,2.4-0.4c-2.6,1.1-6.6,1.9-9.4,1.9v0.1c0.4,0,0.5,0.1,0.9,0.1
		c0.3,0,0.6,0,0.9,0l2.2-0.2c1.8-0.2,4.4-1.3,6.1-2.1c8.6-4-3.8,2.2-6.1,2.7c-0.5,0.1-1,0.1-1.5,0.2c-4.9,0.8-10-0.7-14.2-3.4
		c-2.4-1.5-3.6-2.5-5.9-4.5l-2.1-2.3c-0.5-0.6-0.9-1-1.5-1.8c-1.1-1.5-2.3-3.1-3.3-4.9l-0.4-0.8c-0.1-0.2-0.1-0.2-0.2-0.4l-3-6.4
		l-1.1-2.8c-0.7-1.8-1.9-6.2-2.5-8.4l-1-4.7c-1.1-5.7-1.6-10.9-1.6-17.2c0-1.1,0.1-2.1,0.1-3.1c0.1-4.3,1-11.2,1.7-15.2l1-4.8
		c0.3-1.5,1-4.1,1.4-5.5c0.2-0.6,5-12.2,3.5-7.7l-1.3,3.4c-0.8,2.2-1.9,5.2-2.6,7.7l-0.2,0.7c-0.5,1.6-0.9,3.9-1.1,5.7
		c-0.1,0.6-0.1,1.1-0.2,1.7c0.1-0.2,0.1-0.3,0.2-0.6c0.6-3.4,1.7-7.6,2.6-10.5c0.5-1.7,1.1-3.3,1.7-4.9l0.5-1.1
		c3.5-7.4-0.9,2.9-0.9,4.3l2.2-4.6c0.2-0.6,1.7-4,0.8-1.4c-0.9,2.5-1.6,4.2-2.7,7.4c-0.2,0.8-0.5,1.5-0.7,2.3
		c-0.4,1.4-1.2,4.7-1.4,6.3c-0.1,0.4-0.2,1-0.2,1.5l0.1-0.2l0.2-0.8l0.2-1c0.9-4,1.6-5.9,2.8-9.5c0.6-1.9,0.5-1.4,1-2.4
		c0.8-1.8,0,0.6-0.1,1.1l-0.6,1.8l-0.3,0.9c-0.8,2.2-1.9,5.9-2.3,8.4c-0.1,0.8-0.2,1.5-0.3,2.3c0.2-0.4,1.2-4.8,1.4-5.5l1.7-6.2
		c0.2-0.5,0.4-1.2,0.6-1.6c1.5-2.5-1.8,7.2-1.9,7.5C307.4,87,307.1,88.9,306.8,90.5z M371.3,118.2c0.9-6.9,0.7-15.7-0.1-22.5
		c-0.4-3.7-1.2-7.7-2-11l-1.2-4.1c-0.6-1.8-1.1-3.3-1.8-4.9l-2.5-5.5c-0.7-1.4-2.6-4.5-3.4-5.7c-3-4.6-6.6-8.2-10.2-10.2
		c-2.3-1.3-3.4-1.8-5.7-2.7c-0.2-0.1-0.6-0.3-0.9-0.3l0-0.1c1.9-0.1,2.6,0.5,4.2,1.2c1.5,0.6,4.1,2.4,5.6,3.6
		c0.1,0.1,0.5,0.4,0.6,0.5l-0.1-0.2l-0.2-0.2c-0.1-0.1-0.2-0.2-0.3-0.3l-2-1.6c-2.7-1.8-4.7-2.9-7.5-3.6c-0.1,0-1.6-0.3-1.7-0.4
		c1.3,0,4.6,1.1,6.1,1.7c0.1,0.1,0.3,0.2,0.4,0.2c-0.1-0.1,0,0-0.1-0.2c-0.5-0.6-2.1-1.1-2.6-1.3c-0.5-0.2-1-0.4-1.5-0.5l-0.7-0.3
		c-0.2-0.1-0.5-0.2-0.8-0.2l0-0.1c1.7,0,4.7,1.3,6.3,2.2c0.3,0.2,0.6,0.4,1,0.6l1,0.5c-0.3-0.6-3.3-2.1-3.7-2.3l-3-1.2
		c-0.2-0.1-0.8-0.3-1-0.3l0-0.1c3.1-0.1,7.4,3.4,8.2,3.4l-0.1-0.1c-0.4-0.4-1.5-1.1-2-1.4c-1.9-1.1-3.8-1.8-5.8-2.5
		c-0.4-0.1-0.9-0.3-1.3-0.3l0-0.1c0.6,0,1.4,0.2,2,0.3c1.6,0.3,3.9,1.5,5.4,2.3c1.5,0.8,3.4,2.2,4.8,3.5c2.1,1.9,2.3,2.3,4,4.2
		l3,4.1c0.4,0.6,1.8,2.9,2.2,3.6c0.1,0.2,0.2,0.4,0.3,0.6l1.7,3.4l1.6,3.8c1.1,3,1.6,4.4,2.5,7.7c3.3,12,4,26,2.1,38.9
		c-0.8,5.7-1.6,10.3-0.4,1.7c0.3-1.8,0.5-3.2,0.7-5.2c0.1-0.8,0.3-3.1,0.3-3.9l0,0c0,1.6-0.9,8.3-1.3,10.1c-0.8,3.8-0.6,3.5-0.1-0.1
		c0.2-1.1,0.3-2,0.5-3.2c0.2-1.6,0.7-5.5,0.6-7l0,0c0,0.5-0.1,1.5-0.1,1.9c-0.3,3.3-0.7,5.6-1.2,8.6c-0.8,4.4-0.6,3.3,0-0.2
		c0.4-2.3,1.3-9.1,1.2-11.6l-0.1,1.8c-0.3,3.8-0.8,6.4-1.3,9.9c-0.4,2-0.3,1.4,0-0.2c0.1-0.6,0.2-1.1,0.3-1.7
		c0.1-0.9,0.4-2.7,0.4-3.8l-0.2,0.8c-0.3,1.6-0.4,3-0.9,5.5c-0.4,1.7,0-0.1,0.1-0.6C370.9,121.1,371,120.2,371.3,118.2z M317.7,66.5
		c3.6-5.3,7.9-9.3,12.7-11.5c2.2-1,4.5-1.6,6.9-1.8c0.5,0,1-0.1,1.5-0.1c1.7,0,3.4,0.2,5,0.7c2,0.5,4,1.4,5.9,2.5
		c1.7,1,3.3,2.3,4.9,3.8c1.5,1.4,2.9,3.1,4.3,4.9c1.5,2,2.8,4.2,4.1,6.6c1.1,2,2,4.2,2.9,6.5c0.9,2.4,1.7,5,2.4,7.6
		c0.6,2.3,1.1,4.6,1.5,7.1c0.5,2.8,0.8,5.8,1,8.8c0.1,1.8,0.2,3.6,0.2,5.5l0,2.2c-0.1,2.9-0.3,5.6-0.6,8.4c-0.3,2.8-0.8,5.6-1.4,8.3
		c-0.7,3-1.5,6-2.5,8.7c-0.8,2.4-1.8,4.6-2.8,6.7c-1.2,2.5-2.6,4.9-4.1,7c-1.4,1.9-2.8,3.7-4.4,5.2c-1.9,1.8-3.8,3.4-5.9,4.6
		c-0.9,0.5-1.8,1-2.8,1.4c-2.4,1-5,1.5-7.6,1.5c-0.5,0-1,0-1.4-0.1c-2.4-0.2-4.7-0.8-6.9-1.8c-2.1-0.9-4.1-2.2-6-3.8
		c-2.2-1.9-4.2-4.1-6.1-6.7c-2-2.8-3.7-5.9-5.3-9.4c-1.6-3.7-3-7.8-4-12.2c-0.9-3.7-1.5-7.6-1.9-11.7c-0.2-2.7-0.4-5.5-0.4-8.3
		c0-2.1,0.1-4.2,0.2-6.3c0.3-4.3,0.9-8.5,1.8-12.4c0.9-4.2,2.2-8.2,3.7-11.9C314,72.8,315.7,69.5,317.7,66.5z"/>
	<path id="pCiz-l" class="pinC-l" d="M184.6,103.9c0.8,0,1.4,1.1,1.4,2.4c0,1.3-0.6,2.4-1.4,2.4c-0.8,0-1.4-1.1-1.4-2.4
		C183.2,104.9,183.9,103.9,184.6,103.9z M184.6,99.5c-0.2,0-0.3,0-0.5,0c-0.3,0.1-0.6,0.2-0.9,0.3c-0.2,0.1-0.4,0.2-0.5,0.4
		c-0.3,0.3-0.6,0.7-0.9,1.1c-0.3,0.5-0.5,1-0.7,1.6c-0.1,0.4-0.2,0.8-0.3,1.2c-0.1,0.6-0.2,1.3-0.2,2.1c0,0.1,0,0.2,0,0.3
		c0,0.8,0.1,1.5,0.3,2.2c0,0.1,0,0.1,0.1,0.2c0.4,1.6,1.1,2.9,2,3.6c0.1,0.1,0.2,0.1,0.2,0.2c0.1,0.1,0.3,0.2,0.4,0.2
		c0.3,0.1,0.6,0.2,0.9,0.2c0.3,0,0.5,0,0.7-0.1c0.2-0.1,0.5-0.2,0.7-0.4c0.4-0.3,0.8-0.6,1.1-1.1c0.4-0.6,0.7-1.3,1-2.1
		c0-0.2,0.1-0.3,0.1-0.5c0.2-0.8,0.3-1.7,0.3-2.6c0-0.8-0.1-1.5-0.2-2.2c0,0,0-0.1,0-0.1c-0.2-1.1-0.6-2.1-1.2-2.9
		c-0.2-0.3-0.5-0.6-0.8-0.9c0,0-0.1-0.1-0.1-0.1c-0.3-0.3-0.7-0.5-1.1-0.5C185,99.5,184.8,99.5,184.6,99.5z"/>
	<path id="pCdr-l" class="pinC-l" d="M346.4,103.9c0.8,0,1.4,1.1,1.4,2.4c0,1.3-0.6,2.4-1.4,2.4s-1.4-1.1-1.4-2.4
		C345,104.9,345.6,103.9,346.4,103.9z M346.4,99.5c-0.2,0-0.3,0-0.5,0c-0.3,0.1-0.6,0.2-0.9,0.3c-0.2,0.1-0.4,0.2-0.5,0.4
		c-0.3,0.3-0.6,0.7-0.9,1.1c-0.3,0.5-0.5,1-0.7,1.6c-0.1,0.4-0.2,0.8-0.3,1.2c-0.1,0.6-0.2,1.3-0.2,2.1c0,0.1,0,0.2,0,0.3
		c0,0.8,0.1,1.5,0.3,2.2c0,0.1,0,0.1,0.1,0.2c0.4,1.6,1.1,2.9,2,3.6c0.1,0.1,0.2,0.1,0.2,0.2c0.1,0.1,0.3,0.2,0.4,0.2
		c0.3,0.1,0.6,0.2,0.9,0.2c0.3,0,0.5,0,0.7-0.1c0.2-0.1,0.5-0.2,0.7-0.4c0.4-0.3,0.8-0.6,1.1-1.1c0.4-0.6,0.7-1.3,1-2.1
		c0-0.2,0.1-0.3,0.1-0.5c0.2-0.8,0.3-1.7,0.3-2.6c0-0.8-0.1-1.5-0.2-2.2c0,0,0-0.1,0-0.1c-0.2-1.1-0.6-2.1-1.2-2.9
		c-0.2-0.3-0.5-0.6-0.8-0.9c0,0-0.1-0.1-0.1-0.1c-0.3-0.3-0.7-0.5-1.1-0.5C346.7,99.5,346.5,99.5,346.4,99.5z"/>
	<path id="tC-l" class="mtC-l" d="M218.8,25.1h26v31.8h38.8v15h-39.3V151c0,0-0.7,9.2,6,9.2c6.7,0,5.6-9.8,5.6-9.8V88.7h25.3v64.8
		c0,0-1.1,26.8-30.7,26.8c-29.6,0-32.4-33.1-32.4-33.1L218.8,25.1z"/>
	<path id="mC-l" class="mtC-l" d="M25.2,174.4V50.1h83.1c0,0,16.3,0.9,16.3,20.7s0,104.3,0,104.3h-21.7V90.2c0,0,1.1-12.2-6-12.2
		s-6.1,10.9-6.1,10.9v85.9H68.5V88c0,0,0.2-12-8.2-12c-8.3,0-6.3,11.2-6.3,11.2v87.3L25.2,174.4z"/>
</g>


<path id="cLiz-l" class="cuL-l" d="M172.2,37.9c-22.9,0-41.4,31-41.4,69.3s18.6,69.3,41.4,69.3c22.9,0,41.4-31,41.4-69.3
	S195.1,37.9,172.2,37.9z M156,66.5c3.6-5.3,7.9-9.3,12.7-11.5c2.2-1,4.5-1.6,6.9-1.8c0.5,0,1-0.1,1.5-0.1c1.7,0,3.4,0.2,5,0.7
	c2,0.5,4,1.4,5.9,2.5c1.7,1,3.3,2.3,4.9,3.8c1.5,1.4,2.9,3.1,4.3,4.9c1.5,2,2.8,4.2,4.1,6.6c1.1,2,2,4.2,2.9,6.5
	c0.9,2.4,1.7,5,2.4,7.6c0.6,2.3,1.1,4.6,1.5,7.1c0.5,2.8,0.8,5.8,1,8.8c0.1,1.8,0.2,3.6,0.2,5.5l0,2.2c-0.1,2.9-0.3,5.6-0.6,8.4
	c-0.3,2.8-0.8,5.6-1.4,8.3c-0.7,3-1.5,6-2.5,8.7c-0.8,2.4-1.8,4.6-2.8,6.7c-1.2,2.5-2.6,4.9-4.1,7c-1.4,1.9-2.8,3.7-4.4,5.2
	c-1.9,1.8-3.8,3.4-5.9,4.6c-0.9,0.5-1.8,1-2.8,1.4c-2.4,1-5,1.5-7.6,1.5c-0.5,0-1,0-1.4-0.1c-2.4-0.2-4.7-0.8-6.9-1.8
	c-2.1-0.9-4.1-2.2-6-3.8c-2.2-1.9-4.2-4.1-6.1-6.7c-2-2.8-3.7-5.9-5.3-9.4c-1.6-3.7-3-7.8-4-12.2c-0.9-3.7-1.5-7.6-1.9-11.7
	c-0.2-2.7-0.4-5.5-0.4-8.3c0-2.1,0.1-4.2,0.2-6.3c0.3-4.3,0.9-8.5,1.8-12.4c0.9-4.2,2.2-8.2,3.7-11.9C152.2,72.8,154,69.5,156,66.5z
	"/>
<path id="cLdr-l" class="cuL-l" d="M334,37.9c-22.9,0-41.4,31-41.4,69.3s18.6,69.3,41.4,69.3c22.9,0,41.4-31,41.4-69.3
	S356.9,37.9,334,37.9z M317.7,66.5c3.6-5.3,7.9-9.3,12.7-11.5c2.2-1,4.5-1.6,6.9-1.8c0.5,0,1-0.1,1.5-0.1c1.7,0,3.4,0.2,5,0.7
	c2,0.5,4,1.4,5.9,2.5c1.7,1,3.3,2.3,4.9,3.8c1.5,1.4,2.9,3.1,4.3,4.9c1.5,2,2.8,4.2,4.1,6.6c1.1,2,2,4.2,2.9,6.5
	c0.9,2.4,1.7,5,2.4,7.6c0.6,2.3,1.1,4.6,1.5,7.1c0.5,2.8,0.8,5.8,1,8.8c0.1,1.8,0.2,3.6,0.2,5.5l0,2.2c-0.1,2.9-0.3,5.6-0.6,8.4
	c-0.3,2.8-0.8,5.6-1.4,8.3c-0.7,3-1.5,6-2.5,8.7c-0.8,2.4-1.8,4.6-2.8,6.7c-1.2,2.5-2.6,4.9-4.1,7c-1.4,1.9-2.8,3.7-4.4,5.2
	c-1.9,1.8-3.8,3.4-5.9,4.6c-0.9,0.5-1.8,1-2.8,1.4c-2.4,1-5,1.5-7.6,1.5c-0.5,0-1,0-1.4-0.1c-2.4-0.2-4.7-0.8-6.9-1.8
	c-2.1-0.9-4.1-2.2-6-3.8c-2.2-1.9-4.2-4.1-6.1-6.7c-2-2.8-3.7-5.9-5.3-9.4c-1.6-3.7-3-7.8-4-12.2c-0.9-3.7-1.5-7.6-1.9-11.7
	c-0.2-2.7-0.4-5.5-0.4-8.3c0-2.1,0.1-4.2,0.2-6.3c0.3-4.3,0.9-8.5,1.8-12.4c0.9-4.2,2.2-8.2,3.7-11.9
	C314,72.8,315.7,69.5,317.7,66.5z"/>



<path id="b2Liz-l" class="brL" d="M144.4,120.2c-1.4-10.1-1.1-20,0.7-29.7c0.3-1.6,0.7-3.5,1.1-5c0.1-0.3,3.4-10,1.9-7.5
	c-0.2,0.3-0.5,1.1-0.6,1.6l-1.7,6.2c-0.2,0.7-1.2,5.2-1.4,5.5c0.1-0.9,0.2-1.5,0.3-2.3c0.4-2.5,1.5-6.2,2.3-8.4l0.3-0.9l0.6-1.8
	c0.1-0.5,1-2.9,0.1-1.1c-0.5,1-0.4,0.5-1,2.4c-1.2,3.6-1.8,5.6-2.8,9.5l-0.2,1l-0.2,0.8l-0.1,0.2c0-0.5,0.2-1.1,0.2-1.5
	c0.3-1.6,1-4.9,1.4-6.3c0.2-0.8,0.4-1.5,0.7-2.3c1.1-3.3,1.8-4.9,2.7-7.4c0.9-2.7-0.6,0.8-0.8,1.4l-2.2,4.6
	c0.1-1.4,4.4-11.7,0.9-4.3l-0.5,1.1c-0.6,1.6-1.1,3.1-1.7,4.9c-0.9,2.9-2,7.2-2.6,10.5c-0.1,0.3-0.1,0.5-0.2,0.6
	c0.1-0.6,0.1-1.1,0.2-1.7c0.2-1.9,0.7-4.1,1.1-5.7l0.2-0.7c0.7-2.5,1.7-5.4,2.6-7.7l1.3-3.4c1.5-4.6-3.3,7-3.5,7.7
	c-0.4,1.4-1.1,4-1.4,5.5l-1,4.8c-0.7,4.1-1.6,10.9-1.7,15.2c0,1-0.1,2.1-0.1,3.1c0,6.3,0.5,11.5,1.6,17.2l1,4.7
	c0.5,2.2,1.8,6.6,2.5,8.4l1.1,2.8l3,6.4c0.1,0.2,0.1,0.2,0.2,0.4l0.4,0.8c1,1.8,2.1,3.5,3.3,4.9c0.6,0.8,1.1,1.2,1.5,1.8l2.1,2.3
	c2.3,2,3.5,3,5.9,4.5c4.2,2.6,9.3,4.2,14.2,3.4c0.5-0.1,1-0.1,1.5-0.2c2.3-0.5,14.7-6.7,6.1-2.7c-1.7,0.8-4.3,1.9-6.1,2.1l-2.2,0.2
	c-0.3,0-0.6,0-0.9,0c-0.3,0-0.5-0.1-0.9-0.1v-0.1c2.8,0,6.8-0.8,9.4-1.9c7.3-3.2-1.4,0.1-2.4,0.4c-0.4,0.1-0.9,0.3-1.3,0.4
	c-2,0.4-2.2,0.4-4.3,0.4l4.3-0.9c1.5-0.4,2.5-0.5,4.1-1.2c2.8-1.2,3.4-2,0-0.5c-0.8,0.3-1.6,0.6-2.4,0.9c-0.4,0.1-4.7,1.4-5.2,0.6
	c0.3,0,0.6-0.2,0.9-0.2l4.4-0.9l0.8-0.3c0.3-0.1,0.6-0.3,0.8-0.3v-0.1c-1,0-0.5-0.1-1.4,0.2c-1.1,0.3-1.9,0.4-2.7,0.6
	c-0.8,0.2-3.7,0.3-4.3,0.2l0.7-0.1c0.2,0,0.2-0.1,0.4-0.1c0.4,0,1,0.1,1.4,0c1.9-0.3,3-0.5,5-1.2c5.9-2.6,0.4-0.2-1.7,0.1
	c-0.8,0.1-1.7,0.4-2.5,0.4l-2,0.1l-3.2-0.4c-2.2-0.4-4.8-1.4-6.9-2.6c-1.5-0.9-2.8-1.8-4.1-3l-1.9-1.8c-0.6-0.5-2-2.2-2.7-3
	l-0.8-1.1c-1.1-1.4-2.2-3.2-3.2-4.8l-0.8-1.3l-1.1-2.1l-2.3-5.3c-1.6-4.3-2-6-3.1-10.7C145.1,124.8,144.6,122.2,144.4,120.2z"/>
<path id="b2Ldr-l_1_" class="brL" d="M306.1,120.2c-1.4-10.1-1.1-20,0.7-29.7c0.3-1.6,0.7-3.5,1.1-5c0.1-0.3,3.4-10,1.9-7.5
	c-0.2,0.3-0.5,1.1-0.6,1.6l-1.7,6.2c-0.2,0.7-1.2,5.2-1.4,5.5c0.1-0.9,0.2-1.5,0.3-2.3c0.4-2.5,1.5-6.2,2.3-8.4l0.3-0.9l0.6-1.8
	c0.1-0.5,1-2.9,0.1-1.1c-0.5,1-0.4,0.5-1,2.4c-1.2,3.6-1.8,5.6-2.8,9.5l-0.2,1l-0.2,0.8l-0.1,0.2c0-0.5,0.2-1.1,0.2-1.5
	c0.3-1.6,1-4.9,1.4-6.3c0.2-0.8,0.4-1.5,0.7-2.3c1.1-3.3,1.8-4.9,2.7-7.4c0.9-2.7-0.6,0.8-0.8,1.4l-2.2,4.6
	c0.1-1.4,4.4-11.7,0.9-4.3l-0.5,1.1c-0.6,1.6-1.1,3.1-1.7,4.9c-0.9,2.9-2,7.2-2.6,10.5c0,0.3-0.1,0.5-0.2,0.6
	c0.1-0.6,0.1-1.1,0.2-1.7c0.2-1.9,0.7-4.1,1.1-5.7l0.2-0.7c0.7-2.5,1.7-5.4,2.6-7.7l1.3-3.4c1.5-4.6-3.3,7-3.5,7.7
	c-0.4,1.4-1.1,4-1.4,5.5l-1,4.8c-0.7,4.1-1.6,10.9-1.7,15.2c0,1-0.1,2.1-0.1,3.1c0,6.3,0.5,11.5,1.6,17.2l1,4.7
	c0.5,2.2,1.8,6.6,2.5,8.4l1.1,2.8l3,6.4c0.1,0.2,0.1,0.2,0.2,0.4l0.4,0.8c1,1.8,2.1,3.5,3.3,4.9c0.6,0.8,1.1,1.2,1.5,1.8l2.1,2.3
	c2.3,2,3.5,3,5.9,4.5c4.2,2.6,9.3,4.2,14.2,3.4c0.5-0.1,1-0.1,1.5-0.2c2.3-0.5,14.7-6.7,6.1-2.7c-1.7,0.8-4.3,1.9-6.1,2.1l-2.2,0.2
	c-0.3,0-0.6,0-0.9,0c-0.3,0-0.5-0.1-0.9-0.1v-0.1c2.8,0,6.8-0.8,9.4-1.9c7.3-3.2-1.4,0.1-2.4,0.4c-0.4,0.1-0.9,0.3-1.3,0.4
	c-2,0.4-2.2,0.4-4.3,0.4l4.3-0.9c1.5-0.4,2.5-0.5,4.1-1.2c2.8-1.2,3.4-2,0-0.5c-0.8,0.3-1.6,0.6-2.4,0.9c-0.4,0.1-4.7,1.4-5.2,0.6
	c0.3,0,0.6-0.2,0.9-0.2l4.4-0.9l0.8-0.3c0.3-0.1,0.6-0.3,0.8-0.3v-0.1c-1,0-0.5-0.1-1.4,0.2c-1.1,0.3-1.9,0.4-2.7,0.6
	c-0.8,0.2-3.7,0.3-4.3,0.2l0.7-0.1c0.2,0,0.2-0.1,0.4-0.1c0.4,0,1,0.1,1.4,0c1.9-0.3,3-0.5,5-1.2c5.9-2.6,0.4-0.2-1.7,0.1
	c-0.8,0.1-1.7,0.4-2.5,0.4l-2,0.1l-3.2-0.4c-2.2-0.4-4.8-1.4-6.9-2.6c-1.5-0.9-2.8-1.8-4.1-3l-1.9-1.8c-0.6-0.5-2-2.2-2.7-3
	l-0.8-1.1c-1.1-1.4-2.2-3.2-3.2-4.8l-0.8-1.3l-1.1-2.1l-2.3-5.3c-1.6-4.3-2-6-3.1-10.7C306.8,124.8,306.4,122.2,306.1,120.2z"/>
<path id="b1Ldr-l" class="brL" d="M363.8,70.2l2.5,5.5c0.6,1.7,1.2,3.1,1.8,4.9l1.2,4.1c0.8,3.4,1.6,7.3,2,11
	c0.8,6.7,0.9,15.6,0.1,22.5c-0.3,1.9-0.4,2.9-0.7,4.7c-0.1,0.5-0.5,2.4-0.1,0.6c0.5-2.5,0.6-3.9,0.9-5.5l0.2-0.8
	c0,1.1-0.3,2.9-0.4,3.8c-0.1,0.6-0.2,1.2-0.3,1.7c-0.3,1.6-0.4,2.2,0,0.2c0.6-3.4,1.1-6,1.3-9.9l0.1-1.8c0.1,2.5-0.8,9.3-1.2,11.6
	c-0.6,3.5-0.8,4.6,0,0.2c0.5-3,0.9-5.3,1.2-8.6c0-0.4,0.1-1.4,0.1-1.9l0,0c0,1.6-0.4,5.5-0.6,7c-0.1,1.1-0.3,2.1-0.5,3.2
	c-0.6,3.5-0.7,3.8,0.1,0.1c0.4-1.8,1.3-8.5,1.3-10.1l0,0c0,0.8-0.2,3-0.3,3.9c-0.2,2-0.4,3.4-0.7,5.2c-1.2,8.7-0.4,4,0.4-1.7
	c1.8-12.9,1.2-26.9-2.1-38.9c-0.9-3.3-1.4-4.6-2.5-7.7l-1.6-3.8l-1.7-3.4c-0.1-0.2-0.2-0.3-0.3-0.6c-0.3-0.7-1.8-2.9-2.2-3.6l-3-4.1
	c-1.7-1.8-2-2.3-4-4.2c-1.4-1.3-3.4-2.7-4.8-3.5c-1.5-0.8-3.8-2-5.4-2.3c-0.6-0.1-1.3-0.4-2-0.3l0,0.1c0.4,0,0.9,0.2,1.3,0.3
	c2,0.7,3.9,1.3,5.8,2.5c0.5,0.3,1.5,0.9,2,1.4l0.1,0.1c-0.8,0-5.1-3.5-8.2-3.4l0,0.1c0.3,0,0.8,0.2,1,0.3l3,1.2
	c0.4,0.2,3.3,1.7,3.7,2.3l-1-0.5c-0.3-0.2-0.6-0.3-1-0.6c-1.6-1-4.7-2.3-6.3-2.2l0,0.1c0.2,0,0.5,0.1,0.8,0.2l0.7,0.3
	c0.5,0.1,1,0.3,1.5,0.5c0.6,0.2,2.1,0.7,2.6,1.3c0.1,0.1,0,0,0.1,0.2c-0.2,0-0.3-0.1-0.4-0.2c-1.5-0.6-4.8-1.7-6.1-1.7
	c0.1,0.1,1.6,0.4,1.7,0.4c2.9,0.7,4.9,1.8,7.5,3.6l2,1.6c0.1,0.1,0.2,0.2,0.3,0.3l0.2,0.2l0.1,0.2c-0.2,0-0.5-0.3-0.6-0.5
	c-1.5-1.2-4.1-3-5.6-3.6c-1.6-0.7-2.3-1.2-4.2-1.2l0,0.1c0.2,0,0.6,0.2,0.9,0.3c2.3,0.9,3.3,1.4,5.7,2.7c3.5,2,7.2,5.6,10.2,10.2
	C361.2,65.8,363.1,68.8,363.8,70.2z"/>
<path id="b1Liz-l" class="brL" d="M202.1,70.2l2.5,5.5c0.6,1.7,1.2,3.1,1.8,4.9l1.2,4.1c0.8,3.4,1.6,7.3,2,11
	c0.8,6.7,0.9,15.6,0.1,22.5c-0.2,1.9-0.4,2.9-0.7,4.7c-0.1,0.5-0.5,2.4-0.1,0.6c0.5-2.5,0.6-3.9,0.9-5.5l0.2-0.8
	c0,1.1-0.3,2.9-0.4,3.8c-0.1,0.6-0.2,1.2-0.3,1.7c-0.3,1.6-0.4,2.2,0,0.2c0.6-3.4,1.1-6,1.3-9.9l0.1-1.8c0.1,2.5-0.8,9.3-1.2,11.6
	c-0.6,3.5-0.8,4.6,0,0.2c0.5-3,0.9-5.3,1.2-8.6c0-0.4,0.1-1.4,0.1-1.9l0,0c0,1.6-0.4,5.5-0.6,7c-0.1,1.1-0.3,2.1-0.5,3.2
	c-0.6,3.5-0.7,3.8,0.1,0.1c0.4-1.8,1.3-8.5,1.3-10.1l0,0c0,0.8-0.2,3-0.3,3.9c-0.2,2-0.4,3.4-0.7,5.2c-1.2,8.7-0.4,4,0.4-1.7
	c1.8-12.9,1.2-26.9-2.1-38.9c-0.9-3.3-1.4-4.6-2.5-7.7l-1.6-3.8l-1.7-3.4c-0.1-0.2-0.2-0.3-0.3-0.6c-0.3-0.7-1.8-2.9-2.2-3.6l-3-4.1
	c-1.7-1.8-2-2.3-4-4.2c-1.4-1.3-3.4-2.7-4.8-3.5c-1.5-0.8-3.8-2-5.4-2.3c-0.6-0.1-1.3-0.4-2-0.3l0,0.1c0.4,0,0.9,0.2,1.3,0.3
	c2,0.7,3.9,1.3,5.8,2.5c0.5,0.3,1.5,0.9,2,1.4l0.1,0.1c-0.8,0-5.1-3.5-8.2-3.4l0,0.1c0.3,0,0.8,0.2,1,0.3l3,1.2
	c0.4,0.2,3.3,1.7,3.7,2.3l-1-0.5c-0.3-0.2-0.6-0.3-1-0.6c-1.6-1-4.7-2.3-6.3-2.2l0,0.1c0.2,0,0.5,0.1,0.8,0.2l0.7,0.3
	c0.5,0.1,1,0.3,1.5,0.5c0.6,0.2,2.1,0.7,2.6,1.3c0.1,0.1,0,0,0.1,0.2c-0.2,0-0.3-0.1-0.4-0.2c-1.5-0.6-4.8-1.7-6.1-1.7
	c0.1,0.1,1.6,0.4,1.7,0.4c2.9,0.7,4.9,1.8,7.5,3.6l2,1.6c0.1,0.1,0.2,0.2,0.3,0.3l0.2,0.2l0.1,0.2c-0.2,0-0.5-0.3-0.6-0.5
	c-1.5-1.2-4.1-3-5.6-3.6c-1.6-0.7-2.3-1.2-4.2-1.2l0,0.1c0.2,0,0.6,0.2,0.9,0.3c2.3,0.9,3.3,1.4,5.7,2.7c3.5,2,7.2,5.6,10.2,10.2
	C199.5,65.8,201.4,68.8,202.1,70.2z"/>
<path id="pLiz-l" class="pinL" d="M184.6,103.9c0.8,0,1.4,1.1,1.4,2.4c0,1.3-0.6,2.4-1.4,2.4c-0.8,0-1.4-1.1-1.4-2.4
	C183.2,104.9,183.9,103.9,184.6,103.9z M184.6,99.5c-0.2,0-0.3,0-0.5,0c-0.3,0.1-0.6,0.2-0.9,0.3c-0.2,0.1-0.4,0.2-0.5,0.4
	c-0.3,0.3-0.6,0.7-0.9,1.1c-0.3,0.5-0.5,1-0.7,1.6c-0.1,0.4-0.2,0.8-0.3,1.2c-0.1,0.6-0.2,1.3-0.2,2.1c0,0.1,0,0.2,0,0.3
	c0,0.8,0.1,1.5,0.3,2.2c0,0.1,0,0.1,0.1,0.2c0.4,1.6,1.1,2.9,2,3.6c0.1,0.1,0.2,0.1,0.2,0.2c0.1,0.1,0.3,0.2,0.4,0.2
	c0.3,0.1,0.6,0.2,0.9,0.2c0.3,0,0.5,0,0.7-0.1c0.2-0.1,0.5-0.2,0.7-0.4c0.4-0.3,0.8-0.6,1.1-1.1c0.4-0.6,0.7-1.3,1-2.1
	c0-0.2,0.1-0.3,0.1-0.5c0.2-0.8,0.3-1.7,0.3-2.6c0-0.8-0.1-1.5-0.2-2.2c0,0,0-0.1,0-0.1c-0.2-1.1-0.6-2.1-1.2-2.9
	c-0.2-0.3-0.5-0.6-0.8-0.9c0,0-0.1-0.1-0.1-0.1c-0.3-0.3-0.7-0.5-1.1-0.5C185,99.5,184.8,99.5,184.6,99.5z"/>
<path id="pLdr-l" class="pinL" d="M346.4,103.9c0.8,0,1.4,1.1,1.4,2.4c0,1.3-0.6,2.4-1.4,2.4s-1.4-1.1-1.4-2.4
	C345,104.9,345.6,103.9,346.4,103.9z M346.4,99.5c-0.2,0-0.3,0-0.5,0c-0.3,0.1-0.6,0.2-0.9,0.3c-0.2,0.1-0.4,0.2-0.5,0.4
	c-0.3,0.3-0.6,0.7-0.9,1.1c-0.3,0.5-0.5,1-0.7,1.6c-0.1,0.4-0.2,0.8-0.3,1.2c-0.1,0.6-0.2,1.3-0.2,2.1c0,0.1,0,0.2,0,0.3
	c0,0.8,0.1,1.5,0.3,2.2c0,0.1,0,0.1,0.1,0.2c0.4,1.6,1.1,2.9,2,3.6c0.1,0.1,0.2,0.1,0.2,0.2c0.1,0.1,0.3,0.2,0.4,0.2
	c0.3,0.1,0.6,0.2,0.9,0.2c0.3,0,0.5,0,0.7-0.1c0.2-0.1,0.5-0.2,0.7-0.4c0.4-0.3,0.8-0.6,1.1-1.1c0.4-0.6,0.7-1.3,1-2.1
	c0-0.2,0.1-0.3,0.1-0.5c0.2-0.8,0.3-1.7,0.3-2.6c0-0.8-0.1-1.5-0.2-2.2c0,0,0-0.1,0-0.1c-0.2-1.1-0.6-2.1-1.2-2.9
	c-0.2-0.3-0.5-0.6-0.8-0.9c0,0-0.1-0.1-0.1-0.1c-0.3-0.3-0.7-0.5-1.1-0.5C346.7,99.5,346.5,99.5,346.4,99.5z"/>
<path id="tL-l" class="tL-l" d="M218.8,25.1h26v31.8h38.8v15h-39.3V151c0,0-0.7,9.2,6,9.2c6.7,0,5.6-9.8,5.6-9.8V88.7h25.3v64.8
	c0,0-1.1,26.8-30.7,26.8c-29.6,0-32.4-33.1-32.4-33.1L218.8,25.1z"/>
<path id="mL-l" class="mL-l" d="M25.2,174.4V50.1h83.1c0,0,16.3,0.9,16.3,20.7s0,104.3,0,104.3h-21.7V90.2c0,0,1.1-12.2-6-12.2
	s-6.1,10.9-6.1,10.9v85.9H68.5V88c0,0,0.2-12-8.2-12c-8.3,0-6.3,11.2-6.3,11.2v87.3L25.2,174.4z"/>
<polygon id="t2C-l" class="setC" points="249,196.7 352.9,196.7 352.9,219.2 325.1,219.2 325.1,371.8 278,371.8 278,221.1 249,221.1 
	"/>
<polygon id="t2L-l" class="tSetL" points="249,196.7 352.9,196.7 352.9,219.2 325.1,219.2 325.1,371.8 278,371.8 278,221.1 249,221.1 
	"/>
<path id="e2C-l" class="setC" d="M247.3,372.3h-97.9V253.6c0,0-5.4-57.3,47.7-57.3s51.7,58.9,51.7,58.9v29h-41.4v-41.6
	c0,0,0.9-15-8.6-15c-9.5,0-8.1,14.3-8.1,14.3v58.5h56.9v21.3h-56.5v19h55.3L247.3,372.3z"/>
<path id="e2L-l" class="eSetL" d="M247.3,372.3h-97.9V253.6c0,0-5.4-57.3,47.7-57.3s51.7,58.9,51.7,58.9v29h-41.4v-41.6
	c0,0,0.9-15-8.6-15c-9.5,0-8.1,14.3-8.1,14.3v58.5h56.9v21.3h-56.5v19h55.3L247.3,372.3z"/>
<path id="s2C-l" class="setC" d="M81.1,300.1H42.4c0,0-9.4,74.9,49,74.9s50.2-44.1,50.2-48.7s-4.5-35.5-27.8-40.2
	c-23.3-4.8-31.4-3.1-33.5-19.3c-2.1-16.2-6.5-39.5,5.9-39.5c12.4,0,12.7,44.7,12.7,44.7l38.8,2.3c0,0,1.1-33-5.4-49.5
	c-6.5-16.5-31-43-66.6-29.4C29.9,209,38.9,252,43.2,267.9c4.2,15.9,19.8,22.7,31.9,25.6s24.6,4,26.4,22.7
	c1.8,18.7,0.2,28.4-8.3,28.4C84.7,344.5,77.9,327.6,81.1,300.1z"/>
<path id="s2L-l" class="sSetL" d="M81.1,300.1H42.4c0,0-9.4,74.9,49,74.9s50.2-44.1,50.2-48.7s-4.5-35.5-27.8-40.2
	c-23.3-4.8-31.4-3.1-33.5-19.3c-2.1-16.2-6.5-39.5,5.9-39.5c12.4,0,12.7,44.7,12.7,44.7l38.8,2.3c0,0,1.1-33-5.4-49.5
	c-6.5-16.5-31-43-66.6-29.4C29.9,209,38.9,252,43.2,267.9c4.2,15.9,19.8,22.7,31.9,25.6s24.6,4,26.4,22.7
	c1.8,18.7,0.2,28.4-8.3,28.4C84.7,344.5,77.9,327.6,81.1,300.1z"/>
<path class="txtRj" d="M345.7,388.8c-0.4,1.2-0.8,2.3-1.1,3.1l-0.4,1.1h3.1l-0.4-1.1C346.5,391.1,346.2,390,345.7,388.8L345.7,388.8z
	 M347.9,394.8h-4.4l-1.1,3h-2.3l4.7-11.8h2l4.7,11.8h-2.3L347.9,394.8z M331.9,395.9c1.3,0,2.2-0.2,2.9-0.5c0.6-0.3,1.1-0.8,1.4-1.4
	c0.3-0.6,0.5-1.3,0.5-2.3c0-0.5-0.1-0.9-0.2-1.3c-0.1-0.4-0.3-0.7-0.5-1c-0.2-0.3-0.4-0.6-0.7-0.8c-0.3-0.2-0.6-0.4-1-0.5
	c-0.3-0.1-0.7-0.2-1.1-0.3c-0.4-0.1-0.9-0.1-1.4-0.1H331v8.2H331.9z M328.8,397.8V386h3.1c0.3,0,0.6,0,0.8,0c0.3,0,0.6,0,0.8,0.1
	c0.3,0,0.5,0.1,0.8,0.1c0.3,0,0.5,0.1,0.7,0.2c0.6,0.2,1.2,0.5,1.7,0.8c0.5,0.3,0.9,0.7,1.2,1.2c0.3,0.5,0.6,1,0.7,1.6
	c0.2,0.6,0.2,1.2,0.2,1.9c0,0.6-0.1,1.2-0.2,1.8c-0.1,0.6-0.4,1.1-0.6,1.5c-0.3,0.5-0.6,0.9-1.1,1.2c-0.4,0.3-1,0.6-1.5,0.9
	c-0.5,0.2-1.1,0.3-1.7,0.4c-0.6,0.1-1.3,0.1-2.1,0.1H328.8z M321.5,388.8c-0.4,1.2-0.8,2.3-1.1,3.1L320,393h3.1l-0.4-1.1
	C322.3,391.1,322,390,321.5,388.8L321.5,388.8z M323.8,394.8h-4.4l-1.1,3h-2.3l4.7-11.8h2l4.7,11.8h-2.3L323.8,394.8z M314.8,386
	v1.2l-6.3,8.8h6.4v1.8h-9.2v-1.2l6.3-8.8h-6.1V386H314.8z M301.3,397.8V386h2.2v11.8H301.3z M293.2,391.4c0.5,0,0.9,0,1.2-0.1
	c0.3,0,0.6-0.1,0.9-0.2c0.4-0.2,0.7-0.4,0.9-0.7c0.2-0.3,0.2-0.6,0.2-1c0-0.3-0.1-0.6-0.2-0.8c-0.1-0.2-0.4-0.4-0.7-0.6
	c-0.2-0.1-0.5-0.2-0.8-0.2c-0.3,0-0.7-0.1-1.1-0.1h-1.5v3.6H293.2z M298.7,389.5c0,0.8-0.2,1.5-0.7,2.1c-0.5,0.6-1.2,1-2.1,1.3v0
	l3.5,4.8h-2.6l-3.2-4.6h-1.5v4.6H290V386h3.6c0.6,0,1.1,0,1.7,0.1c0.5,0.1,0.9,0.2,1.3,0.3c0.7,0.3,1.2,0.7,1.6,1.2
	C298.5,388.1,298.7,388.7,298.7,389.5z M281.9,395.9h5.8v1.8h-7.9V386h7.6v1.8h-5.5v3.1h4.7v1.8h-4.7V395.9z M275,387.6
	c-0.6,0-1.1,0.1-1.6,0.3c-0.5,0.2-0.9,0.5-1.3,0.8c-0.4,0.4-0.6,0.8-0.8,1.4c-0.2,0.5-0.3,1.2-0.3,1.9c0,0.7,0.1,1.3,0.3,1.8
	c0.2,0.5,0.4,1,0.8,1.3c0.3,0.4,0.8,0.6,1.2,0.8c0.5,0.2,1,0.3,1.7,0.3c0.4,0,0.9,0,1.4-0.1c0.5-0.1,0.9-0.2,1.3-0.3v1.8
	c-0.4,0.1-0.9,0.2-1.3,0.3c-0.5,0.1-1,0.1-1.5,0.1c-1,0-1.9-0.1-2.6-0.4c-0.8-0.3-1.4-0.7-1.9-1.2c-0.5-0.5-0.9-1.1-1.1-1.9
	c-0.3-0.7-0.4-1.5-0.4-2.4c0-0.9,0.1-1.7,0.4-2.5c0.3-0.8,0.7-1.4,1.2-2c0.5-0.6,1.2-1,1.9-1.3c0.8-0.3,1.6-0.5,2.6-0.5
	c0.5,0,1,0,1.4,0.1c0.4,0.1,0.8,0.2,1.2,0.3v1.8c-0.5-0.1-0.9-0.2-1.3-0.3C275.8,387.6,275.4,387.6,275,387.6z M261.2,391.4
	c0.5,0,0.9,0,1.2-0.1c0.3,0,0.6-0.1,0.9-0.2c0.4-0.2,0.7-0.4,0.9-0.7c0.2-0.3,0.2-0.6,0.2-1c0-0.3-0.1-0.6-0.2-0.8
	c-0.1-0.2-0.4-0.4-0.7-0.6c-0.2-0.1-0.5-0.2-0.8-0.2c-0.3,0-0.7-0.1-1.1-0.1h-1.5v3.6H261.2z M266.7,389.5c0,0.8-0.2,1.5-0.7,2.1
	c-0.5,0.6-1.2,1-2.1,1.3v0l3.5,4.8h-2.6l-3.2-4.6h-1.5v4.6H258V386h3.6c0.6,0,1.1,0,1.7,0.1c0.5,0.1,0.9,0.2,1.3,0.3
	c0.7,0.3,1.2,0.7,1.6,1.2C266.5,388.1,266.7,388.7,266.7,389.5z M250,395.9h5.8v1.8h-7.9V386h7.6v1.8H250v3.1h4.7v1.8H250V395.9z
	 M242.4,397.8h-2.2v-10h-3.8V386h9.7v1.8h-3.8V397.8z M227.8,388.8c-0.4,1.2-0.8,2.3-1.1,3.1l-0.4,1.1h3.1l-0.4-1.1
	C228.6,391.1,228.2,390,227.8,388.8L227.8,388.8z M230,394.8h-4.4l-1.1,3h-2.3l4.7-11.8h2l4.7,11.8h-2.3L230,394.8z M218.5,393.2
	h-2.6v-1.8h4.8v5.9c-0.2,0.1-0.4,0.1-0.7,0.2c-0.3,0.1-0.6,0.1-0.9,0.2c-0.3,0.1-0.7,0.1-1,0.1c-0.4,0-0.7,0.1-1.1,0.1
	c-1.1,0-2-0.1-2.8-0.4c-0.8-0.3-1.4-0.7-2-1.2c-0.5-0.5-0.9-1.1-1.2-1.8c-0.3-0.7-0.4-1.5-0.4-2.4c0-0.6,0.1-1.2,0.2-1.7
	c0.1-0.6,0.3-1.1,0.6-1.5s0.6-0.9,1-1.3c0.4-0.4,0.8-0.7,1.3-1c0.5-0.3,1-0.5,1.6-0.6c0.6-0.1,1.2-0.2,1.9-0.2c0.6,0,1.2,0,1.7,0.1
	c0.5,0.1,1,0.2,1.3,0.3v1.8c-0.5-0.1-0.9-0.2-1.4-0.3c-0.5-0.1-0.9-0.1-1.4-0.1c-0.6,0-1.2,0.1-1.8,0.3c-0.6,0.2-1,0.5-1.4,0.8
	c-0.4,0.4-0.7,0.8-1,1.4c-0.2,0.5-0.3,1.2-0.3,1.9c0,1.4,0.4,2.4,1.1,3.1c0.7,0.7,1.7,1,3.1,1c0.2,0,0.5,0,0.8,0
	c0.3,0,0.5-0.1,0.7-0.1V393.2z M203.1,395.9h5.8v1.8H201V386h7.6v1.8h-5.5v3.1h4.7v1.8h-4.7V395.9z M192.9,391.4
	c0.5,0,0.9,0,1.2-0.1c0.3,0,0.6-0.1,0.9-0.2c0.4-0.2,0.7-0.4,0.9-0.7c0.2-0.3,0.2-0.6,0.2-1c0-0.3-0.1-0.6-0.2-0.8
	c-0.1-0.2-0.4-0.4-0.7-0.6c-0.2-0.1-0.5-0.2-0.8-0.2c-0.3,0-0.7-0.1-1.1-0.1h-1.5v3.6H192.9z M198.4,389.5c0,0.8-0.2,1.5-0.7,2.1
	c-0.5,0.6-1.2,1-2.1,1.3v0l3.5,4.8h-2.6l-3.2-4.6h-1.5v4.6h-2.2V386h3.6c0.6,0,1.1,0,1.6,0.1c0.5,0.1,0.9,0.2,1.3,0.3
	c0.7,0.3,1.2,0.7,1.6,1.2C198.2,388.1,198.4,388.7,198.4,389.5z M184.3,397.8h-2.2v-10h-3.8V386h9.7v1.8h-3.8V397.8z M172.5,391.4
	c0.8,1.2,1.5,2.3,2.1,3.2h0.1c-0.1-1.5-0.1-2.6-0.1-3.3V386h2.2v11.8h-2.3l-3.8-5.4c-0.7-0.9-1.4-2-2.1-3.3h-0.1
	c0.1,1.4,0.1,2.6,0.1,3.4v5.3h-2.2V386h2.3L172.5,391.4z M158.3,395.9h5.8v1.8h-7.9V386h7.6v1.8h-5.5v3.1h4.7v1.8h-4.7V395.9z
	 M144.4,395.9h5.8v1.8h-7.9V386h7.6v1.8h-5.5v3.1h4.7v1.8h-4.7V395.9z M132.9,395.9c1.3,0,2.2-0.2,2.9-0.5c0.6-0.3,1.1-0.8,1.4-1.4
	c0.3-0.6,0.5-1.3,0.5-2.3c0-0.5-0.1-0.9-0.2-1.3c-0.1-0.4-0.3-0.7-0.5-1c-0.2-0.3-0.4-0.6-0.7-0.8c-0.3-0.2-0.6-0.4-1-0.5
	c-0.3-0.1-0.7-0.2-1.1-0.3c-0.4-0.1-0.9-0.1-1.4-0.1h-0.9v8.2H132.9z M129.9,397.8V386h3.1c0.3,0,0.6,0,0.8,0c0.3,0,0.6,0,0.8,0.1
	c0.3,0,0.5,0.1,0.8,0.1c0.3,0,0.5,0.1,0.7,0.2c0.6,0.2,1.2,0.5,1.7,0.8c0.5,0.3,0.9,0.7,1.2,1.2c0.3,0.5,0.6,1,0.7,1.6
	c0.2,0.6,0.2,1.2,0.2,1.9c0,0.6-0.1,1.2-0.2,1.8c-0.1,0.6-0.4,1.1-0.6,1.5c-0.3,0.5-0.6,0.9-1.1,1.2c-0.4,0.3-1,0.6-1.5,0.9
	c-0.5,0.2-1.1,0.3-1.7,0.4c-0.6,0.1-1.3,0.1-2.1,0.1H129.9z M123.9,391.9c0,0.9-0.1,1.7-0.4,2.5c-0.3,0.7-0.6,1.4-1.1,1.9
	c-0.5,0.5-1.1,1-1.8,1.3c-0.7,0.3-1.5,0.4-2.4,0.4s-1.7-0.1-2.4-0.4c-0.7-0.3-1.3-0.7-1.8-1.3c-0.5-0.5-0.9-1.2-1.1-1.9
	c-0.3-0.8-0.4-1.6-0.4-2.5c0-0.9,0.1-1.7,0.4-2.5c0.3-0.7,0.6-1.4,1.1-1.9c0.5-0.5,1.1-1,1.8-1.3c0.7-0.3,1.5-0.4,2.4-0.4
	s1.7,0.1,2.4,0.4c0.7,0.3,1.3,0.7,1.8,1.3c0.5,0.5,0.9,1.2,1.1,1.9C123.8,390.1,123.9,391,123.9,391.9z M121.7,391.9
	c0-0.7-0.1-1.3-0.3-1.9c-0.2-0.5-0.4-1-0.7-1.3c-0.3-0.4-0.7-0.6-1.1-0.8c-0.4-0.2-0.9-0.3-1.4-0.3c-0.5,0-1,0.1-1.4,0.3
	c-0.4,0.2-0.8,0.4-1.1,0.8c-0.3,0.4-0.6,0.8-0.7,1.3c-0.2,0.5-0.3,1.2-0.3,1.9c0,0.7,0.1,1.3,0.3,1.9c0.2,0.5,0.4,1,0.7,1.3
	c0.3,0.4,0.7,0.6,1.1,0.8c0.4,0.2,0.9,0.3,1.4,0.3c0.5,0,1-0.1,1.4-0.3c0.4-0.2,0.8-0.4,1.1-0.8c0.3-0.4,0.6-0.8,0.7-1.3
	C121.6,393.2,121.7,392.6,121.7,391.9z M108,397.8V386h2.2v11.8H108z M103.3,387.6c-0.6,0-1.1,0.1-1.6,0.3c-0.5,0.2-0.9,0.5-1.3,0.8
	c-0.4,0.4-0.6,0.8-0.8,1.4c-0.2,0.5-0.3,1.2-0.3,1.9c0,0.7,0.1,1.3,0.3,1.8c0.2,0.5,0.4,1,0.8,1.3c0.3,0.4,0.8,0.6,1.2,0.8
	c0.5,0.2,1,0.3,1.7,0.3c0.4,0,0.9,0,1.4-0.1c0.5-0.1,0.9-0.2,1.3-0.3v1.8c-0.4,0.1-0.9,0.2-1.3,0.3c-0.5,0.1-1,0.1-1.5,0.1
	c-1,0-1.9-0.1-2.6-0.4c-0.8-0.3-1.4-0.7-1.9-1.2c-0.5-0.5-0.9-1.1-1.1-1.9c-0.3-0.7-0.4-1.5-0.4-2.4c0-0.9,0.1-1.7,0.4-2.5
	c0.3-0.8,0.7-1.4,1.2-2c0.5-0.6,1.2-1,1.9-1.3c0.8-0.3,1.6-0.5,2.6-0.5c0.5,0,1,0,1.4,0.1c0.4,0.1,0.8,0.2,1.2,0.3v1.8
	c-0.5-0.1-0.9-0.2-1.3-0.3C104.1,387.6,103.7,387.6,103.3,387.6z M92.6,397.8V386h2.2v11.8H92.6z M85.5,394.9
	c0.2-0.6,0.4-1.1,0.5-1.4c0.1-0.3,0.3-0.8,0.6-1.7l2.2-5.9H91l-4.6,11.8h-1.9L79.9,386h2.3l2.2,5.9c0.3,0.8,0.5,1.4,0.6,1.7
	C85.1,393.8,85.2,394.2,85.5,394.9L85.5,394.9z M73.1,391.4c0.5,0,0.9,0,1.2-0.1c0.3,0,0.6-0.1,0.9-0.2c0.4-0.2,0.7-0.4,0.9-0.7
	c0.2-0.3,0.2-0.6,0.2-1c0-0.3-0.1-0.6-0.2-0.8c-0.1-0.2-0.4-0.4-0.7-0.6c-0.2-0.1-0.5-0.2-0.8-0.2c-0.3,0-0.7-0.1-1.1-0.1H72v3.6
	H73.1z M78.5,389.5c0,0.8-0.2,1.5-0.7,2.1c-0.5,0.6-1.2,1-2.1,1.3v0l3.5,4.8h-2.6l-3.2-4.6H72v4.6h-2.2V386h3.6c0.6,0,1.1,0,1.6,0.1
	c0.5,0.1,0.9,0.2,1.3,0.3c0.7,0.3,1.2,0.7,1.6,1.2C78.3,388.1,78.5,388.7,78.5,389.5z M61.8,395.9h5.8v1.8h-7.9V386h7.6v1.8h-5.5
	v3.1h4.7v1.8h-4.7V395.9z M55,394.4c0-0.3-0.1-0.5-0.2-0.7c-0.1-0.2-0.3-0.3-0.6-0.5c-0.3-0.1-0.5-0.2-0.8-0.3
	c-0.3-0.1-0.6-0.1-1-0.2c-0.5-0.1-0.9-0.2-1.3-0.4c-0.4-0.1-0.8-0.3-1.1-0.6c-0.3-0.2-0.6-0.6-0.8-0.9c-0.2-0.4-0.3-0.8-0.3-1.4
	c0-0.6,0.1-1.2,0.3-1.6c0.2-0.5,0.5-0.8,0.9-1.1c0.4-0.3,0.8-0.5,1.3-0.7c0.5-0.1,1.1-0.2,1.7-0.2s1.3,0.1,1.9,0.2
	c0.6,0.1,1.2,0.3,1.6,0.5v1.8c-0.6-0.2-1.2-0.4-1.8-0.5c-0.6-0.1-1.1-0.2-1.6-0.2c-0.7,0-1.3,0.1-1.6,0.4c-0.4,0.3-0.6,0.6-0.6,1.2
	c0,0.3,0.1,0.5,0.2,0.7c0.1,0.2,0.3,0.4,0.5,0.5c0.2,0.1,0.5,0.2,0.7,0.3c0.3,0.1,0.6,0.1,0.9,0.2c0.5,0.1,1,0.2,1.4,0.4
	c0.5,0.1,0.9,0.3,1.2,0.6c0.3,0.2,0.6,0.6,0.8,1c0.2,0.4,0.3,0.9,0.3,1.5c0,0.6-0.1,1.2-0.4,1.6c-0.2,0.5-0.6,0.8-1,1.2
	c-0.4,0.3-0.9,0.5-1.6,0.7c-0.6,0.1-1.3,0.2-2,0.2c-0.6,0-1.3-0.1-1.9-0.2c-0.6-0.1-1.1-0.3-1.5-0.5v-1.8c0.6,0.3,1.1,0.4,1.7,0.6
	c0.5,0.1,1.1,0.2,1.7,0.2c0.3,0,0.7,0,1-0.1c0.3-0.1,0.6-0.1,0.9-0.3c0.3-0.1,0.5-0.3,0.6-0.6C55,395,55,394.7,55,394.4z"/>
<path class="txtNg" d="M112.9,413.8c0-0.2,0-0.4,0-0.6c0-0.2-0.1-0.5-0.2-0.7c-0.1-0.2-0.2-0.4-0.3-0.5c-0.1-0.1-0.3-0.2-0.4-0.2
	c-0.3-0.1-0.5-0.2-0.7-0.4c-0.2-0.1-0.3-0.2-0.4-0.2c-0.1,0-0.1,0-0.2,0.1c-0.1,0.1-0.2,0.1-0.3,0.2c-0.1,0.1-0.2,0.2-0.3,0.3
	c-0.1,0.1-0.2,0.2-0.3,0.4c-0.2,0.3-0.3,0.5-0.5,0.7c-0.1,0.2-0.3,0.4-0.4,0.6c-0.1,0.2-0.3,0.4-0.4,0.7c-0.1,0.2-0.2,0.5-0.4,0.8
	c-0.1,0.1-0.1,0.3-0.1,0.4c0,0.2-0.1,0.3-0.1,0.5c0,0.2-0.1,0.4-0.1,0.5c0,0.2,0,0.3,0,0.5c0,0.1,0,0.2,0.1,0.3
	c0.1,0.1,0.1,0.3,0.2,0.4c0.1,0.1,0.2,0.2,0.3,0.3c0.1,0.1,0.2,0.1,0.3,0.1c0.3,0,0.6,0,0.8,0c0.2,0,0.4-0.1,0.6-0.2
	c0.2-0.1,0.4-0.2,0.5-0.3c0.2-0.1,0.4-0.3,0.6-0.5c0.1-0.1,0.2-0.2,0.3-0.4c0.1-0.1,0.2-0.3,0.3-0.4c0.1-0.2,0.2-0.3,0.3-0.5
	c0.1-0.2,0.2-0.3,0.3-0.5c0.1-0.1,0.1-0.2,0.1-0.4c0-0.1,0.1-0.3,0.1-0.5c0-0.1,0-0.3,0-0.4C112.9,414,112.9,413.9,112.9,413.8z
	 M106.4,411.7c0,0,0,0.1,0,0.2c0,0.1,0,0.2,0,0.2c0,0.1-0.1,0.1-0.1,0.2c0,0.1-0.1,0.1-0.1,0.1c0,0-0.1,0-0.2,0c-0.1,0-0.2,0-0.3,0
	c-0.1,0-0.2,0-0.3,0c-0.1,0-0.1,0-0.2,0c-1.1,0.1-2,0.6-2.8,1.4c-0.7,0.8-1.4,2-1.9,3.4c-0.1,0.3-0.2,0.6-0.3,0.9
	c-0.1,0.3-0.2,0.6-0.3,1c0,0.2-0.1,0.4-0.1,0.5c0,0.1-0.1,0.3-0.1,0.5c0,0.1-0.1,0.1-0.1,0.2c-0.1,0.1-0.2,0.1-0.3,0.1
	c-0.1,0-0.2,0.1-0.3,0.1c-0.1,0-0.2,0-0.2,0c-0.4,0-0.6-0.5-0.7-1.5c0-0.3,0-0.5,0-0.7c0-0.2,0-0.4,0-0.6c0-0.2,0-0.4,0-0.7
	c0-0.2,0-0.5,0.1-0.8c0-0.3,0.1-0.8,0.1-1.2c0-0.5,0.1-0.9,0.1-1.4c0.1-0.5,0.1-0.9,0.2-1.3c0.1-0.4,0.1-0.8,0.2-1.1
	c0.1-0.3,0.2-0.6,0.3-0.7c0.1-0.2,0.3-0.2,0.5-0.3c0.1,0,0.1,0,0.2,0.1c0.1,0,0.1,0.1,0.2,0.1c0.1,0.1,0.1,0.1,0.1,0.2
	c0,0.1,0.1,0.1,0.1,0.2c0,0.2,0,0.4,0,0.6c0,0.2,0,0.4-0.1,0.6c0,0.2-0.1,0.4-0.1,0.6c0,0.2-0.1,0.4-0.1,0.6c-0.1,0.4-0.1,0.7-0.2,1
	c0,0.3-0.1,0.5-0.1,0.8c0,0.3-0.1,0.5-0.1,0.8c0,0.3-0.1,0.7-0.1,1.1c0.1-0.3,0.2-0.5,0.3-0.7c0.1-0.2,0.1-0.3,0.2-0.5
	c0.1-0.1,0.1-0.3,0.2-0.4c0.1-0.1,0.1-0.2,0.2-0.3c0.1-0.1,0.1-0.2,0.2-0.4c0.1-0.1,0.2-0.3,0.3-0.5c0.4-0.8,0.8-1.4,1.3-1.9
	c0.5-0.5,0.9-0.9,1.3-1.1c0.5-0.3,0.9-0.4,1.2-0.4c0.1,0,0.3,0,0.5,0c0.2,0,0.4,0.1,0.6,0.2c0.2,0.1,0.4,0.2,0.5,0.3
	C106.3,411.4,106.4,411.5,106.4,411.7z M99.7,412.1c0,0.2-0.1,0.5-0.2,0.8c0,0.1-0.1,0.2-0.2,0.2c-0.1,0.1-0.1,0.2-0.2,0.2
	c-0.1,0.1-0.2,0.2-0.2,0.2c-0.1,0.1-0.1,0.1-0.2,0.1c-0.2,0.2-0.4,0.4-0.7,0.6c-0.3,0.2-0.6,0.5-1,0.7c-0.4,0.3-0.8,0.5-1.2,0.8
	c-0.4,0.3-0.8,0.5-1.2,0.8c-0.4,0.3-0.8,0.5-1.2,0.7c-0.4,0.2-0.7,0.4-1.1,0.6c-0.2,0.1-0.5,0.3-0.7,0.4c-0.2,0.2-0.4,0.3-0.6,0.4
	c-0.2,0.1-0.4,0.2-0.6,0.3c-0.2,0.1-0.4,0.1-0.6,0.1c-0.1,0-0.3,0-0.4-0.1s-0.2-0.1-0.3-0.2c-0.1-0.1-0.2-0.2-0.2-0.3
	c-0.1-0.1-0.1-0.3-0.1-0.5c0-0.1,0-0.2,0.1-0.3c0.1-0.1,0.1-0.2,0.2-0.2c0.1-0.1,0.2-0.1,0.3-0.2c0.1-0.1,0.2-0.1,0.3-0.1
	c0.1,0,0.2-0.1,0.4-0.1c0.1-0.1,0.3-0.1,0.4-0.2c0.1-0.1,0.3-0.1,0.4-0.2c0.1-0.1,0.3-0.1,0.4-0.2c0.2-0.1,0.4-0.3,0.5-0.4
	c0.2-0.2,0.3-0.4,0.5-0.6c0.1-0.2,0.3-0.4,0.4-0.7c0.1-0.2,0.2-0.4,0.3-0.7c0.1-0.1,0.1-0.3,0.2-0.5c0.1-0.2,0.1-0.3,0.2-0.5
	c0.1-0.2,0.1-0.3,0.1-0.5c0-0.2,0-0.3,0-0.4c0-0.5-0.1-0.8-0.3-1.1c-0.2-0.3-0.4-0.4-0.7-0.4c-0.2,0-0.4,0.1-0.6,0.2
	c-0.2,0.1-0.4,0.3-0.6,0.5c-0.2,0.2-0.4,0.4-0.6,0.6c-0.2,0.2-0.3,0.4-0.4,0.5c-0.3,0.3-0.5,0.7-0.8,1.1c-0.2,0.4-0.5,0.8-0.7,1.2
	c-0.2,0.4-0.4,0.8-0.6,1.2c-0.2,0.4-0.4,0.8-0.5,1.2c-0.1,0.3-0.1,0.7-0.2,1.1c-0.1,0.4-0.1,0.8-0.2,1.3c-0.1,0.9-0.1,1.7-0.1,2.5
	c0,0.7-0.1,1.4-0.2,2c0,0.2-0.1,0.4-0.3,0.6c-0.1,0.2-0.3,0.3-0.5,0.3c-0.1,0-0.1,0-0.2-0.1c-0.1,0-0.2-0.1-0.2-0.2
	c-0.1-0.1-0.1-0.1-0.2-0.2c-0.1-0.1-0.1-0.2-0.1-0.3c0-0.2,0-0.5,0-0.8c0-0.3,0.1-0.7,0.1-1c0-0.3,0.1-0.6,0.1-0.9
	c0-0.3,0.1-0.5,0.1-0.6c0.1-0.7,0.2-1.5,0.2-2.3c0.1-0.8,0.1-1.7,0.2-2.7c0-0.2,0-0.5,0-0.8c0-0.3,0-0.7,0-1c0-0.3,0-0.7,0-1
	c0-0.3,0-0.5,0-0.6c0.1-1.3,0.4-1.9,0.9-1.9c0.1,0,0.2,0,0.3,0.1c0.1,0.1,0.2,0.1,0.2,0.2c0.1,0.1,0.1,0.2,0.2,0.3
	c0,0.1,0.1,0.2,0.1,0.3c0,0.2,0,0.5-0.1,0.8c0,0.3-0.1,0.6-0.1,0.8c-0.1,0.3-0.1,0.6-0.1,0.8c0,0.3-0.1,0.5-0.1,0.8
	c0,0.2,0,0.3,0.1,0.3c0.4-0.9,0.8-1.6,1.2-2.3c0.4-0.7,0.8-1.2,1.2-1.6c0.3-0.3,0.5-0.5,0.7-0.8c0.2-0.2,0.5-0.4,0.7-0.6
	c0.2-0.2,0.5-0.3,0.8-0.4c0.3-0.1,0.5-0.1,0.8-0.2c0.2,0,0.4,0.1,0.6,0.2c0.2,0.1,0.4,0.3,0.6,0.6c0.2,0.2,0.3,0.5,0.4,0.9
	c0.1,0.3,0.2,0.7,0.2,1.2c0,0.3,0,0.7-0.1,1c-0.1,0.3-0.2,0.7-0.4,1c-0.2,0.3-0.3,0.6-0.6,1c-0.2,0.3-0.4,0.6-0.7,0.8
	c0.5-0.2,1-0.5,1.5-0.8c0.5-0.3,1-0.6,1.5-1c0.5-0.4,1-0.7,1.5-1.1c0.5-0.4,1-0.7,1.4-1.1c0.1-0.1,0.2-0.2,0.3-0.3
	c0.1-0.1,0.2-0.1,0.3-0.1c0.1,0,0.1,0,0.1,0.1C99.7,411.9,99.7,412,99.7,412.1z M87.2,412.8c0,0.1,0,0.1,0,0.2c0,0.1,0,0.2-0.1,0.3
	c0,0.1-0.1,0.2-0.1,0.3c0,0.1-0.1,0.2-0.1,0.3c-0.1,0.2-0.2,0.4-0.4,0.6c-0.2,0.2-0.3,0.5-0.5,0.7c-0.2,0.2-0.4,0.5-0.6,0.7
	c-0.2,0.2-0.4,0.5-0.6,0.7c-0.2,0.2-0.4,0.3-0.6,0.5c-0.2,0.2-0.5,0.4-0.7,0.5c-0.2,0.2-0.5,0.3-0.8,0.4c-0.3,0.1-0.5,0.2-0.7,0.2
	c-0.2,0-0.4,0-0.6-0.1c-0.2-0.1-0.3-0.2-0.5-0.4c-0.1-0.2-0.3-0.4-0.4-0.8c-0.1-0.3-0.2-0.7-0.3-1.3c0-0.2-0.1-0.5-0.1-0.7
	c0-0.2-0.1-0.5-0.1-0.7c0-0.2-0.1-0.5-0.1-0.7c0-0.2-0.1-0.4-0.1-0.6c0-0.2-0.1-0.3-0.1-0.4c0-0.1-0.1-0.2-0.1-0.2
	c-0.1,0-0.2,0.1-0.3,0.2c-0.1,0.1-0.3,0.4-0.5,0.6c-0.2,0.3-0.4,0.6-0.6,1c-0.2,0.4-0.4,0.8-0.7,1.3c-0.5,1-0.9,1.7-1.2,2.2
	c-0.3,0.5-0.6,0.8-0.9,0.8c-0.4,0-0.7-0.2-0.8-0.7c-0.1-0.5-0.2-1.2-0.2-2.3c0-1-0.1-1.8-0.2-2.4c-0.1-0.6-0.2-0.8-0.4-0.8
	c-0.1,0-0.3,0.1-0.5,0.3c-0.2,0.2-0.4,0.5-0.7,0.9c-0.3,0.4-0.5,0.8-0.8,1.4c-0.3,0.5-0.6,1.1-0.9,1.7c-0.1,0.2-0.2,0.4-0.3,0.6
	c-0.1,0.2-0.2,0.4-0.3,0.6c-0.1,0.2-0.2,0.4-0.3,0.6c-0.1,0.2-0.2,0.3-0.3,0.5c-0.2,0.3-0.4,0.4-0.6,0.4c-0.4,0-0.7-0.3-0.9-0.8
	c0-0.1-0.1-0.2-0.1-0.3c0-0.1,0-0.2,0-0.3c0-0.1,0-0.2,0-0.3c0-0.1,0-0.2,0-0.4c0-0.3,0-0.5,0-0.8c0-0.2,0-0.5,0.1-0.7
	c0-0.2,0.1-0.5,0.1-0.7c0-0.3,0.1-0.6,0.1-0.9c0-0.3,0.1-0.6,0.1-0.9c0-0.3,0-0.7,0.1-1s0-0.6,0.1-0.9c0-0.3,0-0.5,0.1-0.6
	c0-0.1,0.1-0.2,0.1-0.3c0.1-0.1,0.1-0.2,0.2-0.3c0.1-0.1,0.2-0.2,0.3-0.3c0.1-0.1,0.2-0.1,0.2-0.1c0.1,0,0.2,0,0.3,0.1
	c0.1,0.1,0.1,0.2,0.2,0.3c0.1,0.1,0.1,0.2,0.1,0.4c0,0.1,0,0.3,0,0.5c0,0.2,0,0.4,0,0.6c0,0.2-0.1,0.5-0.1,0.8
	c0,0.3-0.1,0.6-0.1,0.9c0,0.3-0.1,0.6-0.1,0.9c0,0.3-0.1,0.5-0.1,0.8c0,0.2-0.1,0.4-0.1,0.6c-0.1,0.4-0.1,0.7-0.1,0.9
	c0,0.2,0,0.4,0,0.5c0.1-0.1,0.2-0.2,0.3-0.4c0.1-0.2,0.2-0.4,0.4-0.6c0.1-0.2,0.3-0.5,0.4-0.8c0.2-0.3,0.3-0.6,0.5-0.9
	c0.1-0.2,0.2-0.4,0.4-0.7c0.1-0.3,0.3-0.5,0.4-0.8c0.1-0.3,0.3-0.5,0.4-0.8c0.1-0.2,0.3-0.4,0.4-0.6c0.2-0.3,0.5-0.6,0.8-0.7
	c0.3-0.2,0.5-0.3,0.8-0.3c0.3,0,0.5,0.1,0.7,0.4c0.2,0.3,0.3,0.6,0.4,1c0,0.2,0.1,0.4,0.1,0.7c0,0.2,0,0.5,0.1,0.8
	c0,0.3,0,0.5,0,0.8c0,0.3,0,0.5,0,0.8c0,0.2,0,0.4,0.1,0.6c0,0.2,0.1,0.3,0.1,0.4c0,0.1,0.1,0.2,0.1,0.2c0,0,0.1,0.1,0.1,0.1
	c0.1,0,0.3-0.3,0.6-0.8c0.1-0.3,0.3-0.6,0.4-0.9c0.2-0.3,0.3-0.7,0.5-1.1c0.2-0.4,0.4-0.8,0.6-1.1c0.2-0.4,0.4-0.7,0.7-1
	c0.2-0.3,0.4-0.5,0.6-0.7c0.2-0.2,0.4-0.2,0.5-0.2c0.1,0,0.2,0,0.3,0c0.1,0,0.2,0.1,0.3,0.1c0.1,0,0.2,0.1,0.2,0.1
	c0.1,0.1,0.1,0.1,0.2,0.2c0.1,0.2,0.1,0.3,0.2,0.6c0,0.2,0.1,0.4,0.1,0.7c0,0.3,0,0.6,0,0.9c0,0.3,0,0.7,0.1,1.1
	c0.1,0.8,0.2,1.5,0.4,1.9c0.2,0.4,0.4,0.6,0.7,0.6c0.1,0,0.3,0,0.5-0.1c0.2-0.1,0.4-0.2,0.6-0.4c0.2-0.2,0.4-0.3,0.6-0.5
	c0.2-0.2,0.4-0.4,0.6-0.6c0.2-0.2,0.4-0.4,0.5-0.6c0.2-0.2,0.3-0.4,0.5-0.6c0.2-0.2,0.4-0.4,0.5-0.6c0.2-0.2,0.4-0.4,0.6-0.7
	c0.1-0.1,0.1-0.1,0.2-0.1C87.2,412.6,87.2,412.6,87.2,412.8z M63.1,413.8c0-0.2,0-0.4,0-0.6c0-0.2-0.1-0.5-0.2-0.7
	c-0.1-0.2-0.2-0.4-0.3-0.5c-0.1-0.1-0.3-0.2-0.4-0.2c-0.3-0.1-0.5-0.2-0.7-0.4c-0.2-0.1-0.3-0.2-0.4-0.2c-0.1,0-0.1,0-0.2,0.1
	c-0.1,0.1-0.2,0.1-0.3,0.2c-0.1,0.1-0.2,0.2-0.3,0.3c-0.1,0.1-0.2,0.2-0.3,0.4c-0.2,0.3-0.3,0.5-0.5,0.7c-0.1,0.2-0.3,0.4-0.4,0.6
	c-0.1,0.2-0.3,0.4-0.4,0.7c-0.1,0.2-0.2,0.5-0.4,0.8c-0.1,0.1-0.1,0.3-0.1,0.4c0,0.2-0.1,0.3-0.1,0.5c0,0.2-0.1,0.4-0.1,0.5
	c0,0.2,0,0.3,0,0.5c0,0.1,0,0.2,0.1,0.3c0.1,0.1,0.1,0.3,0.2,0.4c0.1,0.1,0.2,0.2,0.3,0.3c0.1,0.1,0.2,0.1,0.3,0.1
	c0.3,0,0.6,0,0.8,0c0.2,0,0.4-0.1,0.6-0.2c0.2-0.1,0.4-0.2,0.5-0.3c0.2-0.1,0.4-0.3,0.6-0.5c0.1-0.1,0.2-0.2,0.3-0.4
	c0.1-0.1,0.2-0.3,0.3-0.4c0.1-0.2,0.2-0.3,0.3-0.5c0.1-0.2,0.2-0.3,0.3-0.5c0.1-0.1,0.1-0.2,0.1-0.4c0-0.1,0.1-0.3,0.1-0.5
	c0-0.1,0-0.3,0-0.4C63.1,414,63.1,413.9,63.1,413.8z M69.6,411.4c0,0.1,0,0.2-0.1,0.4c0,0.1-0.1,0.2-0.2,0.3
	c-0.1,0.1-0.1,0.2-0.2,0.3c-0.1,0.1-0.2,0.2-0.3,0.2c-0.2,0.2-0.5,0.3-0.9,0.4c-0.4,0.1-0.8,0.2-1.4,0.2c-0.4,0-0.9-0.1-1.3-0.2
	c-0.5-0.1-0.9-0.4-1.3-0.7c0.1,0.2,0.2,0.5,0.3,0.7c0,0.2,0.1,0.5,0.1,0.8c0,0.5-0.1,1.1-0.3,1.7c-0.2,0.6-0.5,1.2-0.9,1.7
	c-0.4,0.5-0.7,1-1.1,1.3c-0.2,0.2-0.5,0.4-0.7,0.5c-0.3,0.1-0.6,0.3-0.9,0.4c-0.3,0.1-0.6,0.2-0.9,0.2c-0.3,0-0.6,0.1-1,0.1
	c-0.2,0-0.4-0.1-0.7-0.3c-0.2-0.2-0.4-0.4-0.6-0.6c-0.2-0.2-0.3-0.5-0.4-0.8c-0.1-0.3-0.2-0.5-0.2-0.8c0-0.6,0.1-1.1,0.2-1.6
	c0.1-0.5,0.3-1,0.5-1.5c0.2-0.5,0.5-0.9,0.7-1.4c0.3-0.5,0.6-0.9,0.9-1.4c0.2-0.3,0.4-0.5,0.6-0.7c0.2-0.2,0.5-0.5,0.7-0.6
	c0.2-0.2,0.5-0.3,0.7-0.5c0.3-0.1,0.5-0.2,0.7-0.2c0.2,0,0.3,0,0.5,0.1c0.1,0.1,0.3,0.1,0.4,0.3c0.1,0.1,0.2,0.3,0.4,0.4
	c0.1,0.2,0.3,0.4,0.4,0.6c0.1,0.1,0.2,0.2,0.4,0.3c0.2,0.1,0.5,0.2,0.8,0.3c0.3,0.1,0.7,0.2,1,0.3c0.4,0.1,0.7,0.1,1,0.1
	c0.3,0,0.6,0,0.8,0c0.2,0,0.5-0.1,0.7-0.1c0.2-0.1,0.5-0.1,0.7-0.2c0.2-0.1,0.5-0.2,0.7-0.3C69.6,411.2,69.6,411.3,69.6,411.4z
	 M196,412.1c0-0.1,0-0.3,0-0.4s-0.1-0.3-0.1-0.4c-0.1-0.1-0.1-0.2-0.2-0.2c-0.1,0-0.2,0-0.3,0c-0.2,0-0.4,0-0.6,0.1
	c-0.2,0.1-0.4,0.2-0.6,0.3s-0.4,0.3-0.5,0.5c-0.2,0.2-0.3,0.4-0.5,0.5c-0.1,0.2-0.3,0.3-0.4,0.6c-0.1,0.2-0.3,0.5-0.4,0.8
	c-0.1,0.3-0.3,0.6-0.4,0.9c-0.1,0.3-0.3,0.6-0.3,0.9s-0.2,0.6-0.2,0.9c-0.1,0.3-0.1,0.5-0.1,0.7c0,0.1,0,0.2,0,0.3
	c0,0.1,0,0.2,0.1,0.3c0,0.1,0.1,0.2,0.1,0.3c0.1,0.1,0.1,0.1,0.2,0.1c0.3,0,0.6-0.1,1-0.3c0.5-0.3,1-0.6,1.5-1.1
	c0.4-0.5,0.8-1,1.1-1.6C195.8,414.3,196,413.2,196,412.1z M189.6,419.6c0,0.3-0.1,0.5-0.4,0.6c-0.2,0.1-0.5,0.2-0.7,0.2
	c-0.3,0-0.6-0.1-1-0.3c-0.3-0.2-0.7-0.4-1.1-0.7c-0.2-0.2-0.5-0.4-0.8-0.6c-0.3-0.3-0.6-0.6-1.1-0.9c-0.1-0.1-0.3-0.3-0.6-0.5
	c-0.3-0.3-0.7-0.6-1.1-1c-0.9-0.9-1.5-1.3-1.6-1.4c-0.2-0.1-0.5-0.1-0.9-0.1c-0.1,0-0.2,0-0.4,0c-0.2,0-0.4,0-0.8,0.1
	c-0.2-0.2-0.3-0.5-0.3-0.9c0-0.4,0.1-0.6,0.3-0.7c0,0,0.1,0,0.1,0c0.1,0,0.1,0,0.2,0c0.1,0,0.2,0,0.3,0c0.1,0,0.2,0,0.3,0
	c0.8-0.1,1.5-0.4,2.1-0.8c0.2-0.1,0.4-0.3,0.6-0.4s0.4-0.3,0.6-0.5c0.4-0.3,0.8-0.7,1.1-1.1c0.3-0.4,0.5-0.8,0.5-1.2
	c0-0.3-0.1-0.6-0.2-0.8c-0.1-0.3-0.3-0.5-0.6-0.7c-0.2-0.2-0.5-0.4-0.8-0.5c-0.3-0.2-0.5-0.3-0.8-0.4c-0.4-0.1-0.9-0.2-1.3-0.2
	c-0.1,0-0.3,0-0.5,0c-0.2,0-0.4,0-0.6,0.1c-0.2,0-0.4,0.1-0.6,0.1c-0.2,0-0.4,0.1-0.6,0.1c-0.2,0-0.3,0.1-0.5,0.1
	c-0.2,0-0.4,0.1-0.6,0.1c0.1,0.3,0.3,0.6,0.3,1.2c0.1,0.5,0.1,1,0.1,1.3c0,0.2,0,0.4,0,0.6c0,0.2,0,0.4,0,0.5c0,0.2,0,0.4,0,0.5
	c0,0.2,0,0.4-0.1,0.6c-0.1,0.4-0.1,0.9-0.2,1.4c-0.2,1-0.3,1.8-0.3,2.4c0,0.3-0.1,0.6-0.1,0.8s0,0.5,0,0.8c0,0.5,0,0.9,0.1,1.2
	c0.1,0.4,0.2,0.7,0.4,1.1c-0.1,0.1-0.2,0.3-0.3,0.4c-0.2,0.1-0.3,0.2-0.4,0.2c-0.4,0-0.7-0.1-0.9-0.3c-0.2-0.2-0.3-0.4-0.3-0.7
	c0-0.3-0.1-0.7-0.1-1.2c0-0.3,0-0.7,0.1-1.1s0.1-0.7,0.1-1c0-0.3,0.1-0.6,0.1-1c0-0.2,0.1-0.3,0.1-0.6c0-0.2,0.1-0.5,0.1-0.8
	c0.1-0.6,0.1-1.2,0.2-1.7c0.1-0.5,0.1-1,0.1-1.5c0-0.4,0-0.8,0-1.3c0-0.4-0.1-0.9-0.1-1.4c-0.6,0.2-1,0.3-1.1,0.3
	c-0.2,0-0.3-0.1-0.4-0.2c-0.1-0.1-0.1-0.3-0.1-0.5c0-0.3,0.2-0.5,0.6-0.7c0.2-0.1,0.4-0.2,0.6-0.3c0.2-0.1,0.4-0.2,0.6-0.3
	c0.5-0.2,1.1-0.3,1.9-0.5c0.8-0.1,1.4-0.2,1.9-0.2c0.9,0,1.7,0.1,2.6,0.4c0.8,0.2,1.5,0.7,2.1,1.3c0.6,0.6,0.9,1.4,0.9,2.5
	c0,0.7-0.2,1.3-0.6,1.9c-0.4,0.6-0.9,1.1-1.5,1.6c-0.6,0.4-1.2,0.9-1.8,1.3c0.4,0.3,0.9,0.7,1.6,1.3c0.3,0.3,0.6,0.5,0.9,0.8
	c0.3,0.2,0.6,0.5,0.8,0.7c0.3,0.2,0.5,0.4,0.9,0.7c0.3,0.3,0.6,0.5,1,0.8s0.7,0.5,1,0.8C189.2,419.3,189.4,419.4,189.6,419.6z
	 M165.7,419c0,0.2-0.1,0.5-0.3,1c-0.2,0.5-0.4,0.8-0.5,1c-0.3,0.4-0.7,0.7-1.1,1c0,0-0.1,0-0.1,0c-0.1,0-0.1,0-0.2,0.1
	c-0.1,0-0.2,0-0.2,0.1c-0.1,0-0.1,0-0.1,0.1c-0.5,0.2-0.8,0.4-1.1,0.4c-0.2,0-0.3-0.2-0.3-0.5c0-0.1,0-0.2,0.1-0.3
	c0.9-0.2,1.5-0.6,2-1.2c0.1-0.1,0.2-0.4,0.4-0.7c0.1-0.3,0.2-0.6,0.2-0.7c0-0.3,0-0.6-0.1-1.1c0-0.1-0.1-0.2-0.1-0.4
	c-0.1-0.1-0.1-0.3-0.1-0.4c0-0.1,0-0.3,0.1-0.5c0.1-0.2,0.2-0.3,0.2-0.3c0.1,0,0.3,0.1,0.6,0.2c0.3,0.1,0.4,0.2,0.5,0.3
	C165.6,418,165.7,418.6,165.7,419z M157.2,413.8c0-0.2,0-0.4,0-0.6c0-0.2-0.1-0.5-0.2-0.7c-0.1-0.2-0.2-0.4-0.3-0.5
	c-0.1-0.1-0.3-0.2-0.4-0.2c-0.3-0.1-0.5-0.2-0.7-0.4c-0.2-0.1-0.3-0.2-0.4-0.2c-0.1,0-0.1,0-0.2,0.1c-0.1,0.1-0.2,0.1-0.3,0.2
	c-0.1,0.1-0.2,0.2-0.3,0.3c-0.1,0.1-0.2,0.2-0.3,0.4c-0.2,0.3-0.3,0.5-0.5,0.7c-0.1,0.2-0.3,0.4-0.4,0.6c-0.1,0.2-0.3,0.4-0.4,0.7
	c-0.1,0.2-0.2,0.5-0.4,0.8c-0.1,0.1-0.1,0.3-0.1,0.4c0,0.2-0.1,0.3-0.1,0.5c0,0.2-0.1,0.4-0.1,0.5c0,0.2,0,0.3,0,0.5
	c0,0.1,0,0.2,0.1,0.3c0.1,0.1,0.1,0.3,0.2,0.4c0.1,0.1,0.2,0.2,0.3,0.3c0.1,0.1,0.2,0.1,0.3,0.1c0.3,0,0.6,0,0.8,0
	c0.2,0,0.4-0.1,0.6-0.2c0.2-0.1,0.4-0.2,0.5-0.3c0.2-0.1,0.4-0.3,0.6-0.5c0.1-0.1,0.2-0.2,0.3-0.4c0.1-0.1,0.2-0.3,0.3-0.4
	c0.1-0.2,0.2-0.3,0.3-0.5c0.1-0.2,0.2-0.3,0.3-0.5c0.1-0.1,0.1-0.2,0.1-0.4c0-0.1,0.1-0.3,0.1-0.5c0-0.1,0-0.3,0-0.4
	S157.2,413.9,157.2,413.8z M163.8,411.4c0,0.1,0,0.2-0.1,0.4c0,0.1-0.1,0.2-0.2,0.3c-0.1,0.1-0.1,0.2-0.2,0.3
	c-0.1,0.1-0.2,0.2-0.3,0.2c-0.2,0.2-0.5,0.3-0.9,0.4c-0.4,0.1-0.8,0.2-1.4,0.2c-0.4,0-0.9-0.1-1.3-0.2c-0.5-0.1-0.9-0.4-1.3-0.7
	c0.1,0.2,0.2,0.5,0.3,0.7c0,0.2,0.1,0.5,0.1,0.8c0,0.5-0.1,1.1-0.3,1.7c-0.2,0.6-0.5,1.2-0.9,1.7c-0.4,0.5-0.7,1-1.1,1.3
	c-0.2,0.2-0.5,0.4-0.7,0.5c-0.3,0.1-0.6,0.3-0.8,0.4c-0.3,0.1-0.6,0.2-0.9,0.2c-0.3,0-0.6,0.1-1,0.1c-0.2,0-0.4-0.1-0.7-0.3
	c-0.2-0.2-0.4-0.4-0.6-0.6c-0.2-0.2-0.3-0.5-0.4-0.8c-0.1-0.3-0.2-0.5-0.2-0.8c0-0.6,0.1-1.1,0.2-1.6c0.1-0.5,0.3-1,0.5-1.5
	c0.2-0.5,0.5-0.9,0.7-1.4c0.3-0.5,0.6-0.9,0.9-1.4c0.2-0.3,0.4-0.5,0.6-0.7c0.2-0.2,0.5-0.5,0.7-0.6c0.2-0.2,0.5-0.3,0.7-0.5
	c0.3-0.1,0.5-0.2,0.7-0.2c0.2,0,0.3,0,0.5,0.1c0.1,0.1,0.3,0.1,0.4,0.3c0.1,0.1,0.2,0.3,0.4,0.4c0.1,0.2,0.3,0.4,0.4,0.6
	c0.1,0.1,0.2,0.2,0.4,0.3c0.2,0.1,0.5,0.2,0.8,0.3c0.3,0.1,0.7,0.2,1,0.3c0.4,0.1,0.7,0.1,1,0.1c0.3,0,0.6,0,0.8,0
	c0.2,0,0.5-0.1,0.7-0.1c0.2-0.1,0.5-0.1,0.7-0.2c0.2-0.1,0.5-0.2,0.7-0.3C163.7,411.2,163.8,411.3,163.8,411.4z M153.1,412.6
	c0,0.1,0,0.2-0.1,0.4c-0.1,0.1-0.1,0.3-0.2,0.4c-0.1,0.1-0.2,0.3-0.3,0.4s-0.2,0.3-0.3,0.4c-0.1,0.1-0.2,0.2-0.3,0.4
	c-0.1,0.1-0.2,0.3-0.3,0.4c-0.1,0.1-0.3,0.3-0.4,0.5c-0.2,0.2-0.4,0.4-0.6,0.7c-0.2,0.2-0.4,0.5-0.7,0.7c-0.2,0.3-0.5,0.5-0.8,0.7
	c-0.3,0.2-0.5,0.5-0.7,0.7c-0.2,0.2-0.4,0.4-0.6,0.6c-0.4,0.4-0.8,0.8-1.2,1.1c-0.4,0.4-0.8,0.7-1.1,1c-0.7,0.6-1.3,0.9-1.7,0.9
	c-0.1,0-0.3,0-0.5-0.1c-0.2-0.1-0.3-0.2-0.3-0.4c0-0.4,0.1-0.8,0.4-1c0.3-0.2,0.7-0.5,1.3-0.8c0.6-0.3,1-0.5,1.3-0.8
	c0.3-0.3,0.4-0.6,0.4-1.1c0-0.2-0.2-0.7-0.6-1.4c-0.2-0.3-0.4-0.7-0.5-1c-0.2-0.3-0.3-0.5-0.4-0.8c-0.2-0.5-0.3-1-0.3-1.5
	c0-0.5,0.1-0.9,0.2-1.4c0.1-0.3,0.2-0.6,0.3-0.9c0.2-0.3,0.3-0.5,0.5-0.8c0.2-0.2,0.4-0.4,0.5-0.5c0.2-0.1,0.4-0.2,0.5-0.2
	c0.5,0,0.8,0.4,0.8,1.1c0,0.3-0.1,0.5-0.3,0.8c-0.1,0.1-0.2,0.2-0.3,0.4c-0.1,0.1-0.3,0.3-0.4,0.4c-0.1,0.1-0.3,0.3-0.4,0.4
	c-0.1,0.1-0.2,0.2-0.2,0.3c0,0.4,0.1,0.8,0.3,1.2c0.1,0.2,0.2,0.5,0.3,0.8c0.1,0.3,0.3,0.6,0.4,0.9c0.2,0.3,0.3,0.6,0.4,0.8
	c0.1,0.3,0.2,0.4,0.3,0.5c0,0,0,0,0.1,0c0.1,0,0.2-0.1,0.4-0.2c0.2-0.1,0.4-0.3,0.7-0.6c0.3-0.2,0.6-0.5,0.9-0.8
	c0.3-0.3,0.7-0.6,1-1c0.3-0.4,0.6-0.7,0.8-0.9c0.2-0.3,0.4-0.5,0.6-0.7c0.2-0.2,0.3-0.4,0.4-0.5c0.1-0.1,0.1-0.2,0.2-0.2
	c0,0,0.1,0,0.1,0.1c0,0,0.1,0.1,0.1,0.2c0,0.1,0.1,0.1,0.1,0.2C153.1,412.4,153.1,412.5,153.1,412.6z M145.2,413.3
	c0,0.1,0,0.3-0.2,0.6c-0.1,0.2-0.3,0.5-0.5,0.8c-0.2,0.3-0.4,0.6-0.7,1c-0.3,0.4-0.5,0.7-0.8,1.1c-0.3,0.4-0.7,0.8-1,1.2
	c-0.4,0.4-0.8,0.7-1.2,1.1c-0.8,0.7-1.5,1.1-2.2,1.1c-0.7,0-1.3-0.3-1.6-0.8c-0.4-0.6-0.7-1.2-0.8-2c-0.1-0.8-0.2-1.6-0.2-2.4
	c0-0.3,0-0.9,0.1-1.6c0-0.4,0.1-0.7,0.1-0.9c0-0.3,0.1-0.5,0.1-0.6c0.1-0.3,0.3-0.6,0.5-0.8c0.3-0.3,0.5-0.4,0.8-0.4
	c0.2,0,0.2,0.2,0.2,0.5c0,0.2,0,0.5-0.1,0.8c0,0.3-0.1,0.6-0.1,0.9c-0.1,0.5-0.1,1-0.2,1.4c0,0.4-0.1,0.8-0.1,1.1
	c0,0.7,0.1,1.4,0.2,2.1c0.2,0.7,0.5,1.1,0.9,1.1c0.4,0,0.9-0.2,1.5-0.6c0.3-0.2,0.6-0.4,0.9-0.6c0.3-0.2,0.6-0.5,0.9-0.8
	c0.3-0.3,0.6-0.6,0.8-0.9c0.3-0.3,0.5-0.6,0.8-0.9c0.3-0.3,0.5-0.6,0.7-0.9c0.2-0.3,0.4-0.5,0.5-0.7c0,0,0,0,0-0.1c0,0,0-0.1,0-0.1
	c0,0,0-0.1,0.1-0.1c0,0,0,0,0.1,0c0.1,0,0.1,0.1,0.2,0.2C145.2,413.1,145.2,413.2,145.2,413.3z M139.5,405c0,0.4-0.1,0.8-0.3,1.1
	c-0.2,0.3-0.5,0.5-0.8,0.5c-0.2,0-0.5,0-0.8-0.1c-0.3-0.1-0.4-0.2-0.4-0.4c0-0.3,0.1-0.7,0.3-0.9c0.2-0.3,0.4-0.6,0.6-0.7
	c0.2-0.1,0.3-0.2,0.4-0.2c0.3,0,0.6,0.1,0.8,0.2C139.4,404.4,139.5,404.7,139.5,405z M136.9,412.8c0,0.1,0,0.1,0,0.2
	c0,0.1,0,0.2-0.1,0.3c0,0.1-0.1,0.2-0.1,0.3c0,0.1-0.1,0.2-0.1,0.3c-0.1,0.2-0.2,0.4-0.4,0.6c-0.2,0.2-0.3,0.5-0.5,0.7
	c-0.2,0.2-0.4,0.5-0.6,0.7c-0.2,0.2-0.4,0.5-0.6,0.7c-0.2,0.2-0.4,0.3-0.6,0.5c-0.2,0.2-0.5,0.4-0.7,0.5c-0.2,0.2-0.5,0.3-0.8,0.4
	s-0.5,0.2-0.7,0.2c-0.2,0-0.4,0-0.6-0.1c-0.2-0.1-0.3-0.2-0.5-0.4c-0.1-0.2-0.3-0.4-0.4-0.8c-0.1-0.3-0.2-0.7-0.3-1.3
	c0-0.2-0.1-0.5-0.1-0.7c0-0.2-0.1-0.5-0.1-0.7c0-0.2-0.1-0.5-0.1-0.7c0-0.2-0.1-0.4-0.1-0.6c0-0.2-0.1-0.3-0.1-0.4
	c0-0.1-0.1-0.2-0.1-0.2c-0.1,0-0.2,0.1-0.3,0.2c-0.1,0.1-0.3,0.4-0.5,0.6c-0.2,0.3-0.4,0.6-0.6,1c-0.2,0.4-0.4,0.8-0.7,1.3
	c-0.5,1-0.9,1.7-1.2,2.2c-0.3,0.5-0.6,0.8-0.9,0.8c-0.4,0-0.7-0.2-0.8-0.7c-0.1-0.5-0.2-1.2-0.2-2.3c0-1-0.1-1.8-0.2-2.4
	c-0.1-0.6-0.2-0.8-0.4-0.8c-0.1,0-0.3,0.1-0.5,0.3c-0.2,0.2-0.4,0.5-0.7,0.9c-0.3,0.4-0.5,0.8-0.8,1.4c-0.3,0.5-0.6,1.1-0.9,1.7
	c-0.1,0.2-0.2,0.4-0.3,0.6c-0.1,0.2-0.2,0.4-0.3,0.6c-0.1,0.2-0.2,0.4-0.3,0.6c-0.1,0.2-0.2,0.3-0.3,0.5c-0.2,0.3-0.4,0.4-0.6,0.4
	c-0.4,0-0.7-0.3-0.9-0.8c0-0.1-0.1-0.2-0.1-0.3c0-0.1,0-0.2,0-0.3c0-0.1,0-0.2,0-0.3c0-0.1,0-0.2,0-0.4c0-0.3,0-0.5,0-0.8
	c0-0.2,0-0.5,0.1-0.7c0-0.2,0.1-0.5,0.1-0.7c0-0.3,0.1-0.6,0.1-0.9c0-0.3,0.1-0.6,0.1-0.9l0.1-0.8c-0.2,0.1-0.3,0.1-0.5,0.2
	c-0.4,0.1-0.8,0.2-1.4,0.2c-0.4,0-0.9-0.1-1.3-0.2c-0.5-0.1-0.9-0.4-1.3-0.7c0.1,0.2,0.2,0.5,0.3,0.7c0,0.2,0.1,0.5,0.1,0.8
	c0,0.5-0.1,1.1-0.3,1.7c-0.2,0.6-0.5,1.2-0.9,1.7c-0.4,0.5-0.7,1-1.1,1.3c-0.2,0.2-0.5,0.4-0.7,0.5c-0.3,0.1-0.6,0.3-0.8,0.4
	c-0.3,0.1-0.6,0.2-0.9,0.2c-0.3,0-0.6,0.1-1,0.1c-0.2,0-0.4-0.1-0.7-0.3c-0.2-0.2-0.4-0.4-0.6-0.6c-0.2-0.2-0.3-0.5-0.4-0.8
	c-0.1-0.3-0.2-0.5-0.2-0.8c0-0.6,0.1-1.1,0.2-1.6c0.1-0.5,0.3-1,0.5-1.5c0.2-0.5,0.5-0.9,0.7-1.4c0.3-0.5,0.6-0.9,0.9-1.4
	c0.2-0.3,0.4-0.5,0.6-0.7c0.2-0.2,0.5-0.5,0.7-0.6c0.2-0.2,0.5-0.3,0.7-0.5c0.3-0.1,0.5-0.2,0.7-0.2c0.2,0,0.3,0,0.5,0.1
	c0.1,0.1,0.3,0.1,0.4,0.3c0.1,0.1,0.2,0.3,0.4,0.4s0.3,0.4,0.4,0.6c0.1,0.1,0.2,0.2,0.4,0.3c0.2,0.1,0.5,0.2,0.8,0.3
	c0.3,0.1,0.7,0.2,1,0.3c0.4,0.1,0.7,0.1,1,0.1c0.3,0,0.6,0,0.8,0c0.2,0,0.5-0.1,0.7-0.1c0.2,0,0.3-0.1,0.5-0.1c0-0.2,0-0.3,0.1-0.4
	c0-0.1,0.1-0.2,0.1-0.3c0.1-0.1,0.1-0.2,0.2-0.3c0.1-0.1,0.2-0.2,0.3-0.3c0.1-0.1,0.2-0.1,0.2-0.1c0.1,0,0.2,0,0.3,0.1
	c0.1,0.1,0.1,0.2,0.2,0.3c0.1,0.1,0.1,0.2,0.1,0.4c0,0.1,0,0.3,0,0.5c0,0.2,0,0.4,0,0.6c0,0.2-0.1,0.5-0.1,0.8
	c0,0.3-0.1,0.6-0.1,0.9c0,0.3-0.1,0.6-0.1,0.9c0,0.3-0.1,0.5-0.1,0.8c0,0.2-0.1,0.4-0.1,0.6c-0.1,0.4-0.1,0.7-0.1,0.9
	c0,0.2,0,0.4,0,0.5c0.1-0.1,0.2-0.2,0.3-0.4c0.1-0.2,0.2-0.4,0.4-0.6c0.1-0.2,0.3-0.5,0.4-0.8c0.2-0.3,0.3-0.6,0.5-0.9
	c0.1-0.2,0.2-0.4,0.4-0.7c0.1-0.3,0.3-0.5,0.4-0.8c0.1-0.3,0.3-0.5,0.4-0.8c0.1-0.2,0.3-0.4,0.4-0.6c0.2-0.3,0.5-0.6,0.8-0.7
	c0.3-0.2,0.5-0.3,0.8-0.3c0.3,0,0.5,0.1,0.7,0.4c0.2,0.3,0.3,0.6,0.4,1c0,0.2,0.1,0.4,0.1,0.7c0,0.2,0,0.5,0.1,0.8
	c0,0.3,0,0.5,0,0.8s0,0.5,0,0.8c0,0.2,0,0.4,0.1,0.6c0,0.2,0.1,0.3,0.1,0.4c0,0.1,0.1,0.2,0.1,0.2c0,0,0.1,0.1,0.1,0.1
	c0.1,0,0.3-0.3,0.6-0.8c0.1-0.3,0.3-0.6,0.4-0.9c0.2-0.3,0.3-0.7,0.5-1.1c0.2-0.4,0.4-0.8,0.6-1.1c0.2-0.4,0.4-0.7,0.7-1
	c0.2-0.3,0.4-0.5,0.6-0.7c0.2-0.2,0.4-0.2,0.5-0.2c0.1,0,0.2,0,0.3,0c0.1,0,0.2,0.1,0.3,0.1c0.1,0,0.2,0.1,0.2,0.1
	c0.1,0.1,0.1,0.1,0.2,0.2c0.1,0.2,0.1,0.3,0.2,0.6c0,0.2,0.1,0.4,0.1,0.7c0,0.3,0,0.6,0,0.9c0,0.3,0,0.7,0.1,1.1
	c0.1,0.8,0.2,1.5,0.4,1.9c0.2,0.4,0.4,0.6,0.7,0.6c0.1,0,0.3,0,0.5-0.1c0.2-0.1,0.4-0.2,0.6-0.4c0.2-0.2,0.4-0.3,0.6-0.5
	c0.2-0.2,0.4-0.4,0.6-0.6c0.2-0.2,0.4-0.4,0.5-0.6c0.2-0.2,0.3-0.4,0.5-0.6c0.2-0.2,0.4-0.4,0.5-0.6c0.2-0.2,0.4-0.4,0.6-0.7
	c0.1-0.1,0.1-0.1,0.2-0.1C136.9,412.6,136.9,412.6,136.9,412.8z M259.7,419c0,0.2-0.1,0.5-0.3,1c-0.2,0.5-0.4,0.8-0.5,1
	c-0.3,0.4-0.7,0.7-1.1,1c0,0-0.1,0-0.1,0c-0.1,0-0.1,0-0.2,0.1c-0.1,0-0.2,0-0.2,0.1c-0.1,0-0.1,0-0.1,0.1c-0.5,0.2-0.8,0.4-1.1,0.4
	c-0.2,0-0.3-0.2-0.3-0.5c0-0.1,0-0.2,0.1-0.3c0.9-0.2,1.5-0.6,2-1.2c0.1-0.1,0.2-0.4,0.4-0.7c0.1-0.3,0.2-0.6,0.2-0.7
	c0-0.3,0-0.6-0.1-1.1c0-0.1-0.1-0.2-0.1-0.4c-0.1-0.1-0.1-0.3-0.1-0.4c0-0.1,0-0.3,0.1-0.5c0.1-0.2,0.2-0.3,0.2-0.3
	c0.1,0,0.3,0.1,0.6,0.2c0.3,0.1,0.4,0.2,0.5,0.3C259.6,418,259.7,418.6,259.7,419z M253.9,417.9c0.1,0,0.2,0.1,0.3,0.2
	c0,0.1,0.1,0.2,0.1,0.4c0,0.2-0.1,0.3-0.2,0.6c-0.2,0.2-0.4,0.4-0.6,0.7c-0.3,0.2-0.5,0.4-0.9,0.5c-0.3,0.1-0.6,0.2-0.9,0.2
	c-0.1,0-0.2,0-0.4-0.1c-0.2,0-0.4-0.1-0.6-0.1c-0.2-0.1-0.5-0.1-0.7-0.2c-0.3-0.1-0.5-0.1-0.8-0.2c-0.2-0.1-0.5-0.1-0.7-0.1
	c-0.2,0-0.4-0.1-0.5-0.1c-0.3,0-0.5,0-0.7,0.1c-0.2,0.1-0.4,0.1-0.5,0.2c-0.1,0.1-0.3,0.2-0.4,0.3c-0.1,0.1-0.2,0.2-0.3,0.3
	c-0.1,0.1-0.2,0.1-0.3,0.2c-0.1,0.1-0.2,0.1-0.4,0.1c-0.1,0-0.1,0-0.2-0.1c-0.1-0.1-0.1-0.1-0.2-0.2c0-0.1-0.1-0.2-0.1-0.3
	c0-0.1,0-0.2-0.1-0.3c0.3-0.4,0.6-0.9,1-1.2c0.3-0.4,0.7-0.7,1-1.1c0.3-0.4,0.7-0.7,1-1.1c0.3-0.4,0.6-0.8,1-1.2
	c0.4-0.5,0.7-1,1-1.5c0.3-0.5,0.6-0.9,0.8-1.4c-0.1-0.1-0.2-0.1-0.4-0.1s-0.3,0-0.5,0c-0.2,0-0.3,0-0.4,0c-0.1,0-0.2,0-0.3,0
	c-0.1,0-0.2,0-0.3,0c-0.1,0-0.3,0-0.5,0.1c-0.2,0-0.4,0.1-0.5,0.1c-0.2,0-0.3,0-0.4,0c-1.3,0-1.9-0.4-1.9-1.2c0-0.2,0.1-0.4,0.2-0.5
	c0.1-0.1,0.3-0.2,0.5-0.2c0.1,0,0.1,0,0.2,0c0.1,0,0.1,0,0.2,0.1c0.1,0,0.1,0,0.2,0.1c0.1,0,0.1,0,0.2,0.1c0.3,0.1,0.6,0.1,0.9,0.1
	c0.3,0,0.6,0,1-0.1c0.3,0,0.7-0.1,1-0.1c0.3-0.1,0.7-0.1,1.1-0.1c0.4,0,0.7-0.1,1-0.1c0.1,0,0.2,0,0.3,0c0.1,0,0.2,0.1,0.3,0.1
	c0.1,0.1,0.2,0.1,0.2,0.2c0.1,0.1,0.1,0.2,0.1,0.3v0c-0.2,0.4-0.3,0.7-0.5,1c-0.2,0.3-0.3,0.6-0.5,0.8c-0.2,0.3-0.4,0.5-0.5,0.8
	c-0.2,0.3-0.4,0.6-0.7,0.9c-0.2,0.3-0.4,0.6-0.7,0.9c-0.3,0.3-0.5,0.6-0.8,1c-0.3,0.3-0.5,0.6-0.7,0.9c-0.2,0.3-0.3,0.5-0.4,0.8
	c0,0,0.1,0,0.1,0c0.1,0,0.2,0,0.3,0c0.1,0,0.2,0,0.3,0c0.1,0,0.2,0,0.2,0c0.2,0,0.4,0,0.6,0.1c0.2,0,0.5,0.1,0.8,0.1
	c0.3,0,0.6,0.1,0.9,0.1c0.3,0,0.7,0,1,0c0.2,0,0.4,0,0.6-0.1c0.2-0.1,0.3-0.2,0.5-0.3c0.1-0.1,0.3-0.2,0.4-0.3
	C253.8,417.9,253.9,417.9,253.9,417.9z M239.7,410.9c0-0.1,0-0.2,0-0.3c0-0.1,0-0.2-0.1-0.3c0-0.1-0.1-0.1-0.1-0.2
	c-0.1,0-0.1-0.1-0.2-0.1c-0.3,0-0.6,0.2-0.9,0.7c-0.3,0.4-0.6,1-0.9,1.7c-0.1,0.1-0.1,0.3-0.2,0.5c0,0.2-0.1,0.4-0.1,0.6
	c0,0.2-0.1,0.4-0.1,0.6c0,0.2-0.1,0.4-0.1,0.5c0.3-0.3,0.6-0.5,0.8-0.7c0.3-0.2,0.5-0.5,0.7-0.7c0.1-0.2,0.3-0.3,0.4-0.5
	c0.1-0.2,0.3-0.4,0.4-0.5c0.1-0.2,0.2-0.4,0.3-0.6C239.6,411.3,239.7,411.1,239.7,410.9z M246.3,412.9c0,0.1-0.1,0.3-0.2,0.5
	c-0.3,0.5-0.6,1-1,1.5s-0.8,1-1.2,1.5c-0.4,0.5-0.9,0.9-1.3,1.3c-0.5,0.4-0.9,0.7-1.4,1c-0.5,0.3-0.9,0.5-1.4,0.7
	c-0.5,0.2-0.9,0.2-1.3,0.2c-0.9,0-1.7-0.3-2.2-0.9c-0.5-0.6-0.8-1.6-0.8-2.9c0-1.1,0.1-2.1,0.4-3.1c0.3-1,0.8-2,1.4-2.9
	c0.1-0.2,0.3-0.3,0.4-0.5c0.2-0.1,0.3-0.3,0.5-0.4c0.2-0.1,0.4-0.2,0.5-0.3c0.2-0.1,0.4-0.1,0.6-0.1c0,0,0.1,0,0.2,0
	c0.1,0,0.2,0,0.3,0.1c0.1,0,0.2,0.1,0.3,0.1c0.1,0,0.2,0.1,0.2,0.2c0.2,0.2,0.3,0.4,0.4,0.7c0.1,0.2,0.1,0.5,0.2,0.8
	c0,0.3,0,0.6-0.1,0.9c-0.1,0.3-0.2,0.6-0.4,0.9c-0.2,0.3-0.4,0.6-0.7,1c-0.3,0.3-0.6,0.7-1,1.1c-0.3,0.2-0.5,0.5-0.8,0.8
	c-0.3,0.3-0.7,0.6-1.1,0.9c0,0.7,0.2,1.2,0.5,1.5c0.3,0.3,0.8,0.5,1.4,0.5c0.3,0,0.7-0.1,1-0.2c0.3-0.1,0.7-0.2,1-0.4
	c0.3-0.2,0.6-0.4,0.9-0.6c0.3-0.2,0.6-0.4,0.9-0.7c0.5-0.4,0.9-0.8,1.3-1.3c0.4-0.4,0.8-0.9,1.2-1.3l0.5-0.6
	c0.3-0.3,0.5-0.4,0.6-0.4C246.3,412.7,246.3,412.8,246.3,412.9z M228.6,413.5c-0.2,0-0.3-0.1-0.3-0.3c-0.1-0.1-0.1-0.3-0.1-0.5
	c0-0.1,0-0.3,0.1-0.6c0-0.3,0-0.5,0-0.6c0-0.1,0-0.3-0.1-0.4c-0.1-0.2-0.1-0.3-0.2-0.4c-0.1-0.1-0.2-0.2-0.3-0.3
	c-0.1-0.1-0.2-0.1-0.3-0.1c-0.3,0-0.7,0.4-1.3,1.1c-0.3,0.4-0.5,0.8-0.7,1.1c-0.2,0.4-0.4,0.7-0.6,1.1c-0.2,0.4-0.4,0.7-0.5,1
	c-0.1,0.3-0.3,0.6-0.4,0.8c-0.3,0.9-0.5,1.5-0.5,2c0,0.6,0.2,0.9,0.6,0.9c0.3,0,0.8-0.2,1.3-0.7c0.6-0.5,1-0.9,1.4-1.3
	c0.3-0.4,0.6-0.8,0.8-1c0.2-0.3,0.4-0.5,0.5-0.7c0.1-0.2,0.2-0.4,0.4-0.6C228.4,414,228.5,413.8,228.6,413.5z M236.8,412.9
	c0,0.2,0,0.3-0.1,0.5c-0.1,0.3-0.4,0.8-0.9,1.4c-0.2,0.3-0.5,0.6-0.7,0.9c-0.3,0.3-0.5,0.6-0.8,0.9c-0.3,0.3-0.5,0.6-0.8,0.8
	c-0.3,0.2-0.5,0.5-0.8,0.7c-0.5,0.4-0.9,0.6-1.2,0.6c-0.1,0-0.3,0-0.4-0.1c-0.4-0.2-0.7-0.6-0.9-1.1c-0.2-0.5-0.4-1.1-0.4-1.6
	c-0.1-0.6-0.2-1.2-0.2-1.9c-0.7,1.6-1.7,3-2.8,4.2c-1.2,1.2-2.4,1.9-3.6,1.9c-0.3,0-0.6-0.2-0.8-0.6c-0.2-0.4-0.3-0.9-0.3-1.3
	c0-0.6,0-1.1,0.1-1.4c0.2-0.9,0.5-1.7,0.8-2.4c0.3-0.8,0.7-1.5,1.2-2.2c0.3-0.5,0.6-0.9,1-1.4c0.4-0.5,0.7-0.8,1.1-1
	c0.4-0.3,1-0.4,1.8-0.4c0.3,0,0.5,0.2,0.7,0.5c0.2,0.4,0.3,0.8,0.4,1.2c0.1,0.5,0.1,0.9,0.1,1.2c0.1-0.3,0.2-0.7,0.2-1
	c0.1-0.3,0.1-0.7,0.2-1.1c0.1-0.4,0.1-0.8,0.1-1.2c0-0.4,0.1-0.8,0.1-1.3c0-0.1,0-0.3,0-0.5c0-0.2,0-0.4,0-0.7c0-0.5,0.1-1,0.1-1.3
	c0-0.4,0.1-0.6,0.1-0.7c0.1-0.3,0.4-0.4,0.7-0.4c0.2,0,0.3,0,0.5,0.1c0.2,0.1,0.3,0.2,0.3,0.3c0,0.1,0,0.2,0,0.4
	c0,0.2-0.1,0.4-0.1,0.7c0,0.3-0.1,0.7-0.2,1.1c-0.1,0.4-0.2,0.9-0.3,1.5c0,0.1,0,0.2,0,0.4c0,0.2-0.1,0.4-0.1,0.6
	c0,0.2-0.1,0.4-0.1,0.6c0,0.2,0,0.3-0.1,0.4c-0.1,0.6-0.1,1.1-0.2,1.6c0,0.5-0.1,1-0.1,1.5c0,0.4,0,0.9,0,1.4c0,0.5,0.1,1.1,0.1,1.6
	c0.1,0.5,0.2,0.8,0.3,0.8c0.5,0,1.1-0.3,1.7-0.8c0.7-0.5,1.3-1.1,1.9-1.8c0.6-0.7,1.2-1.3,1.7-1.9c0,0,0.1-0.1,0.1-0.1
	c0.1,0,0.1,0.1,0.1,0.2C236.8,412.7,236.8,412.8,236.8,412.9z M224.1,413.3c0,0.1,0,0.3-0.2,0.6c-0.1,0.2-0.3,0.5-0.5,0.8
	c-0.2,0.3-0.4,0.6-0.7,1c-0.3,0.4-0.5,0.7-0.8,1.1c-0.3,0.4-0.7,0.8-1,1.2c-0.4,0.4-0.8,0.7-1.2,1.1c-0.8,0.7-1.5,1.1-2.2,1.1
	c-0.7,0-1.3-0.3-1.6-0.8c-0.4-0.6-0.7-1.2-0.8-2c-0.1-0.8-0.2-1.6-0.2-2.4c0-0.3,0-0.9,0.1-1.6c0-0.4,0.1-0.7,0.1-0.9
	c0-0.3,0.1-0.5,0.1-0.6c0.1-0.3,0.3-0.6,0.5-0.8c0.3-0.3,0.5-0.4,0.8-0.4c0.2,0,0.2,0.2,0.2,0.5c0,0.2,0,0.5-0.1,0.8
	c0,0.3-0.1,0.6-0.1,0.9c-0.1,0.5-0.1,1-0.2,1.4c0,0.4-0.1,0.8-0.1,1.1c0,0.7,0.1,1.4,0.2,2.1c0.2,0.7,0.5,1.1,0.9,1.1
	c0.4,0,0.9-0.2,1.5-0.6c0.3-0.2,0.6-0.4,0.9-0.6c0.3-0.2,0.6-0.5,0.9-0.8c0.3-0.3,0.6-0.6,0.8-0.9c0.3-0.3,0.5-0.6,0.8-0.9
	c0.3-0.3,0.5-0.6,0.7-0.9c0.2-0.3,0.4-0.5,0.5-0.7c0,0,0,0,0-0.1c0,0,0-0.1,0-0.1c0,0,0-0.1,0.1-0.1c0,0,0,0,0.1,0
	c0.1,0,0.1,0.1,0.2,0.2C224.1,413.1,224.1,413.2,224.1,413.3z M218.4,405c0,0.4-0.1,0.8-0.3,1.1c-0.2,0.3-0.5,0.5-0.8,0.5
	c-0.2,0-0.5,0-0.8-0.1c-0.3-0.1-0.4-0.2-0.4-0.4c0-0.3,0.1-0.7,0.3-0.9c0.2-0.3,0.4-0.6,0.6-0.7c0.2-0.1,0.3-0.2,0.4-0.2
	c0.3,0,0.6,0.1,0.8,0.2C218.3,404.4,218.4,404.7,218.4,405z M216.3,412.1c0,0.2-0.1,0.5-0.2,0.8c0,0.1-0.1,0.2-0.2,0.2
	c-0.1,0.1-0.1,0.2-0.2,0.2s-0.2,0.2-0.2,0.2c-0.1,0.1-0.1,0.1-0.2,0.1c-0.2,0.2-0.4,0.4-0.7,0.6c-0.3,0.2-0.6,0.5-1,0.7
	c-0.4,0.3-0.8,0.5-1.2,0.8c-0.4,0.3-0.8,0.5-1.2,0.8c-0.4,0.3-0.8,0.5-1.2,0.7c-0.4,0.2-0.7,0.4-1.1,0.6c-0.2,0.1-0.5,0.3-0.7,0.4
	c-0.2,0.2-0.4,0.3-0.6,0.4c-0.2,0.1-0.4,0.2-0.6,0.3c-0.2,0.1-0.4,0.1-0.6,0.1c-0.1,0-0.3,0-0.4-0.1c-0.1,0-0.2-0.1-0.3-0.2
	c-0.1-0.1-0.2-0.2-0.2-0.3c-0.1-0.1-0.1-0.3-0.1-0.5c0-0.1,0-0.2,0.1-0.3c0.1-0.1,0.1-0.2,0.2-0.2c0.1-0.1,0.2-0.1,0.3-0.2
	c0.1-0.1,0.2-0.1,0.3-0.1c0.1,0,0.2-0.1,0.4-0.1c0.1-0.1,0.3-0.1,0.4-0.2c0.1-0.1,0.3-0.1,0.4-0.2c0.1-0.1,0.3-0.1,0.4-0.2
	c0.2-0.1,0.4-0.3,0.5-0.4c0.2-0.2,0.3-0.4,0.5-0.6c0.1-0.2,0.3-0.4,0.4-0.7c0.1-0.2,0.2-0.4,0.3-0.7c0.1-0.1,0.1-0.3,0.2-0.5
	c0.1-0.2,0.1-0.3,0.2-0.5c0.1-0.2,0.1-0.3,0.1-0.5c0-0.2,0-0.3,0-0.4c0-0.5-0.1-0.8-0.3-1.1c-0.2-0.3-0.4-0.4-0.7-0.4
	c-0.2,0-0.4,0.1-0.6,0.2c-0.2,0.1-0.4,0.3-0.6,0.5c-0.2,0.2-0.4,0.4-0.6,0.6c-0.2,0.2-0.3,0.4-0.4,0.5c-0.3,0.3-0.5,0.7-0.8,1.1
	c-0.2,0.4-0.5,0.8-0.7,1.2c-0.2,0.4-0.4,0.8-0.6,1.2c-0.2,0.4-0.4,0.8-0.5,1.2c-0.1,0.3-0.1,0.7-0.2,1.1c-0.1,0.4-0.1,0.8-0.2,1.3
	c-0.1,0.9-0.1,1.7-0.1,2.5c0,0.7-0.1,1.4-0.2,2c0,0.2-0.1,0.4-0.3,0.6c-0.1,0.2-0.3,0.3-0.5,0.3c-0.1,0-0.1,0-0.2-0.1
	c-0.1,0-0.2-0.1-0.2-0.2c-0.1-0.1-0.1-0.1-0.2-0.2c-0.1-0.1-0.1-0.2-0.1-0.3c0-0.2,0-0.5,0-0.8c0-0.3,0.1-0.7,0.1-1
	c0-0.3,0.1-0.6,0.1-0.9c0-0.3,0.1-0.5,0.1-0.6c0.1-0.7,0.2-1.5,0.2-2.3c0.1-0.8,0.1-1.7,0.2-2.7c0-0.2,0-0.5,0-0.8l0-0.1
	c-0.1,0.1-0.2,0.2-0.2,0.3c-0.4,0.4-0.7,0.8-1.1,1.1c-0.3,0.4-0.7,0.7-1.1,1c-0.4,0.3-0.7,0.5-1.1,0.7c-0.4,0.2-0.8,0.2-1.3,0.2
	c-0.2,0-0.4,0-0.7-0.1c-0.2-0.1-0.4-0.2-0.6-0.4c-0.2-0.2-0.4-0.4-0.5-0.6c-0.1-0.2-0.2-0.5-0.3-0.8c-0.2,0.2-0.3,0.4-0.5,0.6
	c-0.2,0.2-0.4,0.4-0.6,0.7c-0.2,0.2-0.4,0.4-0.6,0.7c-0.2,0.2-0.4,0.4-0.7,0.6c-0.1,0.1-0.3,0.2-0.5,0.3c-0.2,0.1-0.4,0.2-0.6,0.3
	c-0.2,0.1-0.4,0.2-0.6,0.2c-0.2,0.1-0.4,0.1-0.5,0.1c-0.2,0-0.4-0.1-0.6-0.3c-0.2-0.2-0.3-0.4-0.4-0.6c-0.1-0.2-0.2-0.5-0.3-0.8
	c-0.1-0.3-0.1-0.5-0.1-0.8c0-0.5,0.1-0.9,0.2-1.4c0.1-0.5,0.3-0.9,0.4-1.4c0.2-0.4,0.4-0.9,0.6-1.3c0.2-0.4,0.4-0.8,0.6-1.1
	c0.2-0.3,0.5-0.7,0.8-1c0.3-0.3,0.6-0.6,0.9-0.9c0.3-0.3,0.6-0.5,1-0.6c0.3-0.2,0.6-0.2,0.8-0.2c0.1,0,0.3,0,0.4,0
	c0.1,0,0.3,0,0.4,0c0.1,0,0.3,0,0.4,0.1c0.1,0,0.2,0.1,0.4,0.2c0.1,0,0.1,0.1,0.2,0.2c0.1,0.1,0.1,0.2,0.2,0.4
	c0.1,0.1,0.1,0.3,0.2,0.4c0,0.1,0.1,0.3,0.1,0.3c0,0.2,0,0.5-0.1,0.9c-0.1,0.5-0.2,0.9-0.3,1.3c-0.1,0.4-0.1,0.8-0.1,1.2
	c0,0.2,0,0.5,0.1,0.7c0.1,0.2,0.2,0.5,0.3,0.7c0.1,0.2,0.3,0.4,0.4,0.5c0.2,0.1,0.4,0.2,0.6,0.2c0.4,0,0.7-0.1,1.1-0.3
	c0.4-0.2,0.7-0.4,1.1-0.7c0.4-0.3,0.8-0.7,1.1-1.1c0.4-0.4,0.7-0.8,1.1-1.2l0-0.2c0-0.3,0-0.5,0-0.6c0.1-1.3,0.4-1.9,0.9-1.9
	c0.1,0,0.2,0,0.3,0.1c0.1,0.1,0.2,0.1,0.2,0.2c0.1,0.1,0.1,0.2,0.2,0.3c0,0.1,0.1,0.2,0.1,0.3c0,0.2,0,0.5-0.1,0.8
	c0,0.3-0.1,0.6-0.1,0.8c-0.1,0.3-0.1,0.6-0.1,0.8c0,0.3-0.1,0.5-0.1,0.8c0,0.2,0,0.3,0.1,0.3c0.4-0.9,0.8-1.6,1.2-2.3
	c0.4-0.7,0.8-1.2,1.2-1.6c0.3-0.3,0.5-0.5,0.7-0.8c0.2-0.2,0.5-0.4,0.7-0.6c0.2-0.2,0.5-0.3,0.8-0.4c0.3-0.1,0.5-0.1,0.8-0.2
	c0.2,0,0.4,0.1,0.6,0.2c0.2,0.1,0.4,0.3,0.6,0.6c0.2,0.2,0.3,0.5,0.4,0.9c0.1,0.3,0.2,0.7,0.2,1.2c0,0.3,0,0.7-0.1,1
	c-0.1,0.3-0.2,0.7-0.4,1c-0.2,0.3-0.3,0.6-0.6,1c-0.2,0.3-0.4,0.6-0.7,0.8c0.5-0.2,1-0.5,1.5-0.8c0.5-0.3,1-0.6,1.5-1
	c0.5-0.4,1-0.7,1.5-1.1c0.5-0.4,1-0.7,1.4-1.1c0.1-0.1,0.2-0.2,0.3-0.3c0.1-0.1,0.2-0.1,0.3-0.1c0.1,0,0.1,0,0.1,0.1
	C216.3,411.9,216.3,412,216.3,412.1z M354.8,417.9c0,0.1,0,0.4-0.1,0.9c0,0.2-0.2,0.4-0.4,0.6c-0.3,0.2-0.5,0.3-0.6,0.3
	c-0.4,0-0.6-0.3-0.6-1c0-0.3,0.1-0.6,0.3-0.9c0.2-0.4,0.4-0.5,0.6-0.5c0.1,0,0.1,0,0.3,0.1c0.1,0,0.2,0.1,0.3,0.2
	c0.1,0.1,0.2,0.1,0.2,0.2C354.8,417.8,354.8,417.8,354.8,417.9z M356.4,405.4c0,0.1,0,0.5-0.1,0.9c0,0.2-0.1,0.5-0.1,0.7
	c0,0.3-0.1,0.5-0.2,0.8c-0.2,0.9-0.4,1.9-0.5,2.8c-0.2,0.9-0.3,1.8-0.4,2.7c0,0.2,0,0.3,0,0.4s0,0.3,0,0.4c0,0.1,0,0.2,0,0.4
	s-0.1,0.2-0.1,0.3c-0.1,0-0.2,0-0.3,0c-0.1,0-0.2,0-0.4-0.1c-0.3-0.1-0.4-0.1-0.5-0.2c0-0.1,0-0.1,0-0.2c0-0.1,0-0.2,0-0.3
	c0-0.3,0-0.7,0.1-1.1c0-0.4,0.1-0.8,0.2-1.2c0.1-0.4,0.1-0.8,0.2-1.2c0.1-0.4,0.2-0.8,0.2-1.3c0.1-0.4,0.1-0.8,0.2-1.2
	c0-0.4,0.1-0.8,0.1-1.1c0-0.2,0-0.4,0.1-0.7c0.1-0.3,0.1-0.6,0.2-0.7c0-0.1,0.1-0.2,0.2-0.2c0.1-0.1,0.2-0.2,0.3-0.2
	c0.2-0.2,0.4-0.3,0.5-0.3c0.1,0,0.3,0.1,0.4,0.2C356.3,405.1,356.4,405.3,356.4,405.4z M349,417.9c0,0.1,0,0.4-0.1,0.9
	c0,0.2-0.2,0.4-0.4,0.6c-0.2,0.2-0.5,0.3-0.6,0.3c-0.4,0-0.6-0.3-0.6-1c0-0.3,0.1-0.6,0.3-0.9c0.2-0.4,0.4-0.5,0.6-0.5
	c0.1,0,0.1,0,0.3,0.1c0.1,0,0.2,0.1,0.3,0.2c0.1,0.1,0.2,0.1,0.2,0.2C349,417.8,349,417.8,349,417.9z M350.6,405.4
	c0,0.1,0,0.5-0.1,0.9c0,0.2-0.1,0.5-0.1,0.7c0,0.3-0.1,0.5-0.2,0.8c-0.2,0.9-0.4,1.9-0.5,2.8c-0.2,0.9-0.3,1.8-0.4,2.7
	c0,0.2,0,0.3,0,0.4s0,0.3,0,0.4c0,0.1,0,0.2,0,0.4c0,0.1-0.1,0.2-0.1,0.3c-0.1,0-0.2,0-0.3,0c-0.1,0-0.2,0-0.4-0.1
	c-0.3-0.1-0.4-0.1-0.5-0.2c0-0.1,0-0.1,0-0.2c0-0.1,0-0.2,0-0.3c0-0.3,0-0.7,0.1-1.1c0-0.4,0.1-0.8,0.2-1.2c0.1-0.4,0.1-0.8,0.2-1.2
	c0.1-0.4,0.2-0.8,0.2-1.3c0.1-0.4,0.1-0.8,0.2-1.2c0-0.4,0.1-0.8,0.1-1.1c0-0.2,0-0.4,0.1-0.7c0.1-0.3,0.1-0.6,0.2-0.7
	c0-0.1,0.1-0.2,0.2-0.2c0.1-0.1,0.2-0.2,0.3-0.2c0.2-0.2,0.4-0.3,0.5-0.3c0.1,0,0.3,0.1,0.4,0.2
	C350.5,405.1,350.6,405.3,350.6,405.4z M340.4,413.5c-0.2,0-0.3-0.1-0.3-0.3c-0.1-0.1-0.1-0.3-0.1-0.5c0-0.1,0-0.3,0.1-0.6
	c0-0.3,0.1-0.5,0.1-0.6c0-0.1,0-0.3-0.1-0.4c-0.1-0.2-0.1-0.3-0.2-0.4c-0.1-0.1-0.2-0.2-0.3-0.3c-0.1-0.1-0.2-0.1-0.3-0.1
	c-0.3,0-0.7,0.4-1.3,1.1c-0.3,0.4-0.5,0.8-0.7,1.1c-0.2,0.4-0.4,0.7-0.6,1.1c-0.2,0.4-0.4,0.7-0.5,1c-0.1,0.3-0.3,0.6-0.4,0.8
	c-0.3,0.9-0.5,1.5-0.5,2c0,0.6,0.2,0.9,0.6,0.9c0.3,0,0.8-0.2,1.3-0.7c0.6-0.5,1-0.9,1.4-1.3c0.3-0.4,0.6-0.8,0.8-1
	c0.2-0.3,0.4-0.5,0.5-0.7c0.1-0.2,0.2-0.4,0.4-0.6C340.2,414,340.3,413.8,340.4,413.5z M348.5,412.9c0,0.2,0,0.3-0.1,0.5
	c-0.1,0.3-0.4,0.8-0.9,1.4c-0.2,0.3-0.5,0.6-0.7,0.9c-0.2,0.3-0.5,0.6-0.8,0.9c-0.3,0.3-0.6,0.6-0.8,0.8c-0.3,0.2-0.5,0.5-0.8,0.7
	c-0.5,0.4-0.9,0.6-1.2,0.6c-0.1,0-0.3,0-0.4-0.1c-0.4-0.2-0.7-0.6-0.9-1.1c-0.2-0.5-0.4-1.1-0.4-1.6c-0.1-0.6-0.2-1.2-0.2-1.9
	c-0.7,1.6-1.7,3-2.8,4.2c-1.2,1.2-2.4,1.9-3.6,1.9c-0.3,0-0.6-0.2-0.8-0.6c-0.2-0.4-0.3-0.9-0.3-1.3c0-0.6,0-1.1,0.1-1.4
	c0.2-0.9,0.5-1.7,0.8-2.4c0.3-0.8,0.7-1.5,1.2-2.2c0.3-0.5,0.6-0.9,1-1.4c0.4-0.5,0.7-0.8,1.1-1c0.4-0.3,1-0.4,1.8-0.4
	c0.3,0,0.5,0.2,0.7,0.5c0.2,0.4,0.3,0.8,0.4,1.2c0.1,0.5,0.1,0.9,0.1,1.2c0.1-0.3,0.2-0.7,0.2-1c0.1-0.3,0.1-0.7,0.2-1.1
	c0.1-0.4,0.1-0.8,0.1-1.2c0-0.4,0.1-0.8,0.1-1.3c0-0.1,0-0.3,0-0.5c0-0.2,0-0.4,0-0.7c0-0.5,0.1-1,0.1-1.3c0-0.4,0.1-0.6,0.1-0.7
	c0.1-0.3,0.4-0.4,0.7-0.4c0.2,0,0.3,0,0.5,0.1c0.2,0.1,0.3,0.2,0.3,0.3c0,0.1,0,0.2,0,0.4c0,0.2-0.1,0.4-0.1,0.7
	c0,0.3-0.1,0.7-0.2,1.1c-0.1,0.4-0.2,0.9-0.3,1.5c0,0.1,0,0.2-0.1,0.4c0,0.2-0.1,0.4-0.1,0.6c0,0.2-0.1,0.4-0.1,0.6
	c0,0.2,0,0.3-0.1,0.4c-0.1,0.6-0.1,1.1-0.2,1.6c0,0.5-0.1,1-0.1,1.5c0,0.4,0,0.9,0,1.4c0,0.5,0.1,1.1,0.1,1.6
	c0.1,0.5,0.2,0.8,0.3,0.8c0.5,0,1.1-0.3,1.7-0.8c0.7-0.5,1.3-1.1,1.9-1.8c0.6-0.7,1.2-1.3,1.7-1.9c0,0,0.1-0.1,0.1-0.1
	c0.1,0,0.1,0.1,0.1,0.2S348.5,412.8,348.5,412.9z M328.1,412.1c0-0.1,0-0.3,0-0.4s-0.1-0.3-0.1-0.4c-0.1-0.1-0.1-0.2-0.2-0.2
	c-0.1,0-0.2,0-0.3,0c-0.2,0-0.4,0-0.6,0.1c-0.2,0.1-0.4,0.2-0.6,0.3c-0.2,0.1-0.4,0.3-0.5,0.5c-0.2,0.2-0.3,0.4-0.5,0.5
	c-0.1,0.2-0.3,0.3-0.4,0.6c-0.1,0.2-0.3,0.5-0.4,0.8c-0.1,0.3-0.3,0.6-0.4,0.9c-0.1,0.3-0.2,0.6-0.3,0.9c-0.1,0.3-0.2,0.6-0.2,0.9
	c-0.1,0.3-0.1,0.5-0.1,0.7c0,0.1,0,0.2,0,0.3c0,0.1,0,0.2,0.1,0.3c0,0.1,0.1,0.2,0.1,0.3c0.1,0.1,0.1,0.1,0.2,0.1
	c0.3,0,0.6-0.1,1-0.3c0.5-0.3,1-0.6,1.5-1.1c0.4-0.5,0.8-1,1.1-1.6C327.9,414.3,328.1,413.2,328.1,412.1z M335.9,413
	c0,0.1,0,0.2,0,0.3c0,0.1,0,0.2-0.1,0.3c0,0.1-0.1,0.2-0.1,0.3c0,0.1-0.1,0.2-0.1,0.2c0,0.1-0.1,0.1-0.2,0.2
	c-0.1,0.1-0.1,0.2-0.2,0.3c-0.1,0.1-0.2,0.2-0.3,0.3c-0.1,0.1-0.2,0.2-0.3,0.3c-0.4,0.4-0.7,0.8-1.1,1.1c-0.3,0.4-0.7,0.7-1.1,1
	c-0.4,0.3-0.7,0.5-1.2,0.7c-0.4,0.2-0.8,0.2-1.3,0.2c-0.2,0-0.4,0-0.7-0.1c-0.2-0.1-0.4-0.2-0.6-0.4s-0.4-0.4-0.5-0.6
	c-0.1-0.2-0.2-0.5-0.3-0.8c-0.2,0.2-0.3,0.4-0.5,0.6c-0.2,0.2-0.4,0.4-0.6,0.7c-0.2,0.2-0.4,0.4-0.6,0.7c-0.2,0.2-0.4,0.4-0.7,0.6
	c-0.1,0.1-0.3,0.2-0.5,0.3c-0.2,0.1-0.4,0.2-0.6,0.3c-0.2,0.1-0.4,0.2-0.6,0.2c-0.2,0.1-0.4,0.1-0.5,0.1c-0.2,0-0.4-0.1-0.6-0.3
	c-0.2-0.2-0.3-0.4-0.4-0.6c-0.1-0.2-0.2-0.5-0.3-0.8c-0.1-0.3-0.1-0.5-0.1-0.8c0-0.5,0.1-0.9,0.2-1.4c0.1-0.5,0.3-0.9,0.4-1.4
	c0.2-0.4,0.4-0.9,0.6-1.3c0.2-0.4,0.4-0.8,0.6-1.1c0.2-0.3,0.5-0.7,0.8-1c0.3-0.3,0.6-0.6,0.9-0.9c0.3-0.3,0.6-0.5,1-0.6
	c0.3-0.2,0.6-0.2,0.8-0.2c0.1,0,0.3,0,0.4,0s0.3,0,0.4,0c0.1,0,0.3,0,0.4,0.1c0.1,0,0.3,0.1,0.4,0.2c0.1,0,0.1,0.1,0.2,0.2
	c0.1,0.1,0.1,0.2,0.2,0.4c0.1,0.1,0.1,0.3,0.2,0.4c0,0.1,0.1,0.3,0.1,0.3c0,0.2,0,0.5-0.1,0.9c-0.1,0.5-0.2,0.9-0.3,1.3
	c-0.1,0.4-0.1,0.8-0.1,1.2c0,0.2,0,0.5,0.1,0.7c0.1,0.2,0.2,0.5,0.3,0.7c0.1,0.2,0.3,0.4,0.4,0.5c0.2,0.1,0.4,0.2,0.6,0.2
	c0.4,0,0.7-0.1,1.1-0.3c0.4-0.2,0.7-0.4,1.1-0.7c0.4-0.3,0.8-0.7,1.1-1.1c0.4-0.4,0.8-0.8,1.1-1.3c0,0,0.1-0.1,0.2-0.2
	c0.1-0.1,0.1-0.2,0.2-0.3c0.1-0.1,0.2-0.2,0.2-0.3c0.1-0.1,0.1-0.1,0.2-0.1C335.9,412.6,335.9,412.7,335.9,413z M316,413.5
	c-0.2,0-0.3-0.1-0.3-0.3c-0.1-0.1-0.1-0.3-0.1-0.5c0-0.1,0-0.3,0.1-0.6c0-0.3,0.1-0.5,0.1-0.6c0-0.1,0-0.3-0.1-0.4
	c-0.1-0.2-0.1-0.3-0.2-0.4c-0.1-0.1-0.2-0.2-0.3-0.3c-0.1-0.1-0.2-0.1-0.3-0.1c-0.3,0-0.7,0.4-1.3,1.1c-0.3,0.4-0.5,0.8-0.7,1.1
	c-0.2,0.4-0.4,0.7-0.6,1.1c-0.2,0.4-0.4,0.7-0.5,1c-0.1,0.3-0.3,0.6-0.4,0.8c-0.3,0.9-0.5,1.5-0.5,2c0,0.6,0.2,0.9,0.5,0.9
	c0.3,0,0.8-0.2,1.3-0.7c0.6-0.5,1-0.9,1.4-1.3c0.3-0.4,0.6-0.8,0.8-1c0.2-0.3,0.4-0.5,0.5-0.7c0.1-0.2,0.2-0.4,0.4-0.6
	C315.8,414,315.9,413.8,316,413.5z M324.1,412.9c0,0.2,0,0.3-0.1,0.5c-0.1,0.3-0.4,0.8-0.9,1.4c-0.2,0.3-0.5,0.6-0.7,0.9
	c-0.3,0.3-0.5,0.6-0.8,0.9s-0.5,0.6-0.8,0.8c-0.3,0.2-0.5,0.5-0.8,0.7c-0.5,0.4-0.9,0.6-1.2,0.6c-0.1,0-0.3,0-0.4-0.1
	c-0.4-0.2-0.7-0.6-0.9-1.1c-0.2-0.5-0.4-1.1-0.4-1.6c-0.1-0.6-0.2-1.2-0.2-1.9c-0.7,1.6-1.7,3-2.8,4.2c-1.2,1.2-2.4,1.9-3.6,1.9
	c-0.3,0-0.6-0.2-0.8-0.6c-0.2-0.4-0.3-0.9-0.3-1.3c0-0.6,0-1.1,0.1-1.4c0.2-0.9,0.5-1.7,0.8-2.4c0.3-0.8,0.7-1.5,1.2-2.2
	c0.3-0.5,0.6-0.9,1-1.4c0.4-0.5,0.7-0.8,1.1-1c0.4-0.3,1-0.4,1.8-0.4c0.3,0,0.5,0.2,0.7,0.5c0.2,0.4,0.3,0.8,0.4,1.2
	c0.1,0.5,0.1,0.9,0.1,1.2c0.1-0.3,0.2-0.7,0.2-1c0.1-0.3,0.1-0.7,0.2-1.1c0.1-0.4,0.1-0.8,0.1-1.2c0-0.4,0.1-0.8,0.1-1.3
	c0-0.1,0-0.3,0-0.5c0-0.2,0-0.4,0-0.7c0-0.5,0.1-1,0.1-1.3c0-0.4,0.1-0.6,0.1-0.7c0.1-0.3,0.4-0.4,0.7-0.4c0.2,0,0.3,0,0.5,0.1
	c0.2,0.1,0.3,0.2,0.3,0.3c0,0.1,0,0.2,0,0.4c0,0.2-0.1,0.4-0.1,0.7c0,0.3-0.1,0.7-0.2,1.1c-0.1,0.4-0.2,0.9-0.3,1.5
	c0,0.1,0,0.2-0.1,0.4c0,0.2-0.1,0.4-0.1,0.6c0,0.2-0.1,0.4-0.1,0.6c0,0.2,0,0.3,0,0.4c-0.1,0.6-0.1,1.1-0.2,1.6c0,0.5-0.1,1-0.1,1.5
	c0,0.4,0,0.9,0,1.4c0,0.5,0.1,1.1,0.1,1.6c0.1,0.5,0.2,0.8,0.3,0.8c0.5,0,1.1-0.3,1.7-0.8c0.7-0.5,1.3-1.1,1.9-1.8
	c0.6-0.7,1.2-1.3,1.7-1.9c0,0,0.1-0.1,0.1-0.1c0.1,0,0.1,0.1,0.1,0.2C324.1,412.7,324.1,412.8,324.1,412.9z M311.5,413.3
	c0,0.1,0,0.3-0.2,0.6c-0.1,0.2-0.3,0.5-0.5,0.8c-0.2,0.3-0.4,0.6-0.7,1c-0.3,0.4-0.5,0.7-0.8,1.1c-0.3,0.4-0.7,0.8-1,1.2
	c-0.4,0.4-0.8,0.7-1.2,1.1c-0.8,0.7-1.5,1.1-2.2,1.1c-0.7,0-1.3-0.3-1.6-0.8c-0.4-0.6-0.7-1.2-0.8-2c-0.1-0.8-0.2-1.6-0.2-2.4
	c0-0.3,0-0.9,0.1-1.6c0-0.4,0.1-0.7,0.1-0.9c0-0.3,0.1-0.5,0.1-0.6c0.1-0.3,0.3-0.6,0.5-0.8c0.3-0.3,0.5-0.4,0.8-0.4
	c0.2,0,0.2,0.2,0.2,0.5c0,0.2,0,0.5-0.1,0.8c0,0.3-0.1,0.6-0.1,0.9c-0.1,0.5-0.1,1-0.2,1.4c0,0.4-0.1,0.8-0.1,1.1
	c0,0.7,0.1,1.4,0.2,2.1c0.2,0.7,0.5,1.1,0.9,1.1c0.4,0,0.9-0.2,1.5-0.6c0.3-0.2,0.6-0.4,0.9-0.6c0.3-0.2,0.6-0.5,0.9-0.8
	c0.3-0.3,0.6-0.6,0.8-0.9c0.3-0.3,0.5-0.6,0.8-0.9c0.3-0.3,0.5-0.6,0.7-0.9c0.2-0.3,0.4-0.5,0.5-0.7c0,0,0,0,0-0.1c0,0,0-0.1,0-0.1
	c0,0,0-0.1,0.1-0.1c0,0,0,0,0.1,0c0.1,0,0.1,0.1,0.2,0.2C311.5,413.1,311.5,413.2,311.5,413.3z M305.8,405c0,0.4-0.1,0.8-0.3,1.1
	c-0.2,0.3-0.5,0.5-0.8,0.5c-0.2,0-0.5,0-0.8-0.1c-0.3-0.1-0.4-0.2-0.4-0.4c0-0.3,0.1-0.7,0.3-0.9c0.2-0.3,0.4-0.6,0.6-0.7
	c0.2-0.1,0.3-0.2,0.4-0.2c0.3,0,0.6,0.1,0.8,0.2C305.7,404.4,305.8,404.7,305.8,405z M302.7,413.8c0,0.3-0.2,0.8-0.5,1.5
	c-0.1,0.1-0.2,0.3-0.3,0.5c-0.1,0.2-0.2,0.4-0.4,0.6c-0.1,0.2-0.3,0.4-0.4,0.6c-0.2,0.2-0.3,0.4-0.4,0.6c-0.2,0.3-0.5,0.5-0.7,0.8
	c-0.3,0.2-0.5,0.5-0.8,0.7c-0.3,0.2-0.6,0.4-0.9,0.5c-0.3,0.1-0.6,0.2-0.9,0.2c-0.4,0-0.8-0.1-1.1-0.3c-0.3-0.2-0.7-0.4-0.9-0.8
	c-0.3-0.4-0.5-0.8-0.6-1.3c-0.1-0.5-0.2-1.2-0.2-1.9c0-0.5,0-1,0.1-1.6c0-0.5,0.1-1.1,0.2-1.6c0.1-0.5,0.1-1.1,0.2-1.6
	c0.1-0.5,0.2-1,0.2-1.5c0.1-0.3,0.1-0.6,0.1-0.8c0-0.2,0.1-0.4,0.1-0.6c0-0.2,0.1-0.4,0.1-0.6c0-0.2,0.1-0.4,0.1-0.7
	c0-0.2,0-0.4,0.1-0.5c0-0.1,0-0.3,0-0.4c0-0.2,0.1-0.3,0.1-0.5c0.1-0.2,0.1-0.3,0.2-0.4c0.1-0.1,0.2-0.2,0.3-0.3
	c0.1-0.1,0.2-0.1,0.4-0.1c0.3,0,0.5,0.2,0.6,0.5c0,0.2-0.1,0.4-0.1,0.6c0,0.2-0.1,0.4-0.1,0.6c-0.1,0.9-0.3,1.5-0.4,2.1
	c-0.1,0.5-0.2,0.9-0.2,1.1c-0.1,0.4-0.1,0.9-0.2,1.4c-0.1,0.5-0.2,1-0.2,1.5c-0.1,0.5-0.1,1-0.2,1.5c0,0.5-0.1,1-0.1,1.4
	c0,0.5,0,0.9,0.1,1.3c0.1,0.4,0.2,0.7,0.3,1c0.1,0.3,0.3,0.5,0.6,0.6c0.2,0.1,0.5,0.2,0.8,0.2c0.3,0,0.7-0.1,1-0.3
	c0.3-0.2,0.7-0.4,1-0.7c0.3-0.3,0.6-0.6,0.9-0.9c0.3-0.3,0.5-0.7,0.8-1c0.2-0.3,0.4-0.5,0.5-0.7c0.1-0.2,0.3-0.3,0.4-0.5
	c0.1-0.1,0.2-0.2,0.3-0.3c0.1-0.1,0.2-0.2,0.3-0.2C302.7,413.5,302.7,413.6,302.7,413.8z M287.5,412.1c0-0.1,0-0.3,0-0.4
	s0-0.3-0.1-0.4c-0.1-0.1-0.1-0.2-0.2-0.2c-0.1,0-0.2,0-0.3,0c-0.2,0-0.4,0-0.6,0.1c-0.2,0.1-0.4,0.2-0.6,0.3s-0.4,0.3-0.5,0.5
	c-0.2,0.2-0.3,0.4-0.5,0.5c-0.1,0.2-0.3,0.3-0.4,0.6c-0.1,0.2-0.3,0.5-0.4,0.8c-0.1,0.3-0.3,0.6-0.4,0.9c-0.1,0.3-0.3,0.6-0.3,0.9
	s-0.2,0.6-0.2,0.9c-0.1,0.3-0.1,0.5-0.1,0.7c0,0.1,0,0.2,0,0.3c0,0.1,0,0.2,0.1,0.3c0,0.1,0.1,0.2,0.1,0.3c0.1,0.1,0.1,0.1,0.2,0.1
	c0.3,0,0.6-0.1,1-0.3c0.5-0.3,1-0.6,1.5-1.1c0.4-0.5,0.8-1,1.1-1.6C287.2,414.3,287.5,413.2,287.5,412.1z M295.3,413
	c0,0.1,0,0.2,0,0.3c0,0.1,0,0.2-0.1,0.3c0,0.1-0.1,0.2-0.1,0.3c0,0.1-0.1,0.2-0.1,0.2c0,0.1-0.1,0.1-0.2,0.2
	c-0.1,0.1-0.1,0.2-0.2,0.3c-0.1,0.1-0.2,0.2-0.3,0.3c-0.1,0.1-0.2,0.2-0.3,0.3c-0.4,0.4-0.7,0.8-1.1,1.1c-0.3,0.4-0.7,0.7-1.1,1
	c-0.4,0.3-0.7,0.5-1.1,0.7c-0.4,0.2-0.8,0.2-1.3,0.2c-0.2,0-0.4,0-0.7-0.1c-0.2-0.1-0.4-0.2-0.6-0.4s-0.4-0.4-0.5-0.6
	c-0.1-0.2-0.2-0.5-0.3-0.8c-0.2,0.2-0.3,0.4-0.5,0.6c-0.2,0.2-0.4,0.4-0.6,0.7c-0.2,0.2-0.4,0.4-0.6,0.7c-0.2,0.2-0.4,0.4-0.7,0.6
	c-0.1,0.1-0.3,0.2-0.5,0.3c-0.2,0.1-0.4,0.2-0.6,0.3c-0.2,0.1-0.4,0.2-0.6,0.2c-0.2,0.1-0.4,0.1-0.5,0.1c-0.2,0-0.4-0.1-0.6-0.3
	c-0.2-0.2-0.3-0.4-0.4-0.6c-0.1-0.2-0.2-0.5-0.3-0.8c-0.1-0.3-0.1-0.5-0.1-0.8c0-0.5,0.1-0.9,0.2-1.4c0.1-0.4,0.2-0.8,0.4-1.2l0,0
	c-0.1,0.2-0.3,0.3-0.5,0.5c-0.2,0.2-0.4,0.4-0.6,0.6c-0.2,0.2-0.4,0.4-0.6,0.6c-0.2,0.2-0.4,0.4-0.6,0.5c-0.6,0.5-1.1,1-1.8,1.4
	s-1.2,0.8-1.9,1.2c-0.6,0.3-1.2,0.6-1.9,0.8c-0.6,0.2-1.2,0.3-1.8,0.3c-0.6,0-1.2-0.1-1.6-0.3c-0.5-0.2-0.9-0.5-1.2-0.9
	c-0.3-0.4-0.5-0.9-0.7-1.4c-0.2-0.5-0.2-1.2-0.2-1.8c0-0.6,0-1.2,0.2-1.9c0.1-0.6,0.3-1.3,0.5-1.9c0.2-0.6,0.4-1.2,0.7-1.8
	c0.3-0.6,0.6-1.1,0.9-1.6c0.2-0.3,0.4-0.6,0.7-0.9c0.3-0.3,0.5-0.6,0.8-0.9c0.3-0.3,0.6-0.6,0.9-0.8c0.3-0.3,0.6-0.5,0.9-0.7
	c0.2-0.1,0.4-0.3,0.7-0.4c0.3-0.2,0.6-0.3,0.9-0.5c0.3-0.1,0.6-0.3,0.9-0.4c0.3-0.1,0.6-0.1,0.8-0.1c0.4,0,0.6,0,0.9,0.1
	c0.2,0.1,0.4,0.2,0.6,0.3c0.1,0.1,0.2,0.2,0.3,0.3c0.1,0.1,0.2,0.3,0.3,0.5c0.1,0.2,0.2,0.3,0.2,0.5c0.1,0.2,0.1,0.3,0.1,0.4
	c0,0.1,0,0.3-0.1,0.5c-0.1,0.2-0.2,0.5-0.3,0.7s-0.2,0.5-0.4,0.7c-0.1,0.2-0.2,0.4-0.3,0.4c-0.2,0.3-0.5,0.5-0.8,0.5
	c-0.2,0-0.4-0.1-0.5-0.2c-0.1-0.2-0.2-0.4-0.2-0.6c0-0.1,0-0.2,0.1-0.4c0.1-0.2,0.2-0.4,0.4-0.6c0.2-0.2,0.4-0.5,0.5-0.7
	c0.1-0.2,0.2-0.3,0.2-0.4c-0.1-0.1-0.3-0.2-0.4-0.2c-0.2-0.1-0.3-0.1-0.5-0.1c-0.2,0-0.5,0.1-0.8,0.2c-0.3,0.1-0.6,0.3-0.9,0.4
	c-0.3,0.2-0.6,0.4-0.9,0.6c-0.3,0.2-0.6,0.4-0.8,0.6c-0.6,0.6-1.2,1.2-1.7,1.9c-0.5,0.7-0.9,1.4-1.3,2.2c-0.1,0.3-0.3,0.7-0.4,1
	c-0.1,0.4-0.2,0.7-0.3,1.1c-0.1,0.4-0.2,0.7-0.2,1.1c-0.1,0.4-0.1,0.7-0.1,1.1c0,0.4,0,0.8,0.1,1.1c0.1,0.3,0.2,0.6,0.4,0.9
	c0.2,0.3,0.4,0.5,0.7,0.6c0.3,0.1,0.7,0.2,1.1,0.2c0.5,0,0.9-0.1,1.4-0.2c0.5-0.1,1-0.4,1.5-0.6c0.5-0.3,1-0.5,1.4-0.9
	c0.5-0.3,0.9-0.7,1.4-1c0.4-0.4,0.9-0.7,1.3-1.1c0.4-0.4,0.8-0.7,1.1-1c0.1-0.1,0.3-0.3,0.4-0.4c0.1-0.2,0.3-0.3,0.4-0.5
	c0.1-0.2,0.3-0.3,0.4-0.5c0.1-0.2,0.3-0.3,0.4-0.4c0.3,0.2,0.4,0.4,0.4,0.7c0.2-0.4,0.4-0.7,0.6-1c0.2-0.3,0.5-0.7,0.8-1
	c0.3-0.3,0.6-0.6,0.9-0.9c0.3-0.3,0.6-0.5,1-0.6c0.3-0.2,0.6-0.2,0.8-0.2c0.1,0,0.3,0,0.4,0c0.1,0,0.3,0,0.4,0c0.1,0,0.3,0,0.4,0.1
	c0.1,0,0.2,0.1,0.3,0.2c0.1,0,0.1,0.1,0.2,0.2c0.1,0.1,0.1,0.2,0.2,0.4c0.1,0.1,0.1,0.3,0.2,0.4c0,0.1,0.1,0.3,0.1,0.3
	c0,0.2,0,0.5-0.1,0.9c-0.1,0.5-0.2,0.9-0.3,1.3c-0.1,0.4-0.1,0.8-0.1,1.2c0,0.2,0,0.5,0.1,0.7c0.1,0.2,0.2,0.5,0.3,0.7
	c0.1,0.2,0.3,0.4,0.4,0.5c0.2,0.1,0.4,0.2,0.6,0.2c0.4,0,0.7-0.1,1.1-0.3c0.4-0.2,0.7-0.4,1.1-0.7c0.4-0.3,0.8-0.7,1.1-1.1
	c0.4-0.4,0.8-0.8,1.1-1.3c0,0,0.1-0.1,0.2-0.2c0.1-0.1,0.1-0.2,0.2-0.3c0.1-0.1,0.2-0.2,0.2-0.3c0.1-0.1,0.1-0.1,0.2-0.1
	C295.2,412.6,295.3,412.7,295.3,413z M57.8,413.4c0,0.4-0.2,0.9-0.7,1.6c-0.1,0.2-0.3,0.3-0.5,0.5c-0.2,0.2-0.4,0.4-0.6,0.6
	c-0.2,0.2-0.4,0.4-0.6,0.6c-0.2,0.2-0.4,0.4-0.6,0.5c-0.6,0.5-1.1,1-1.8,1.4c-0.6,0.5-1.2,0.8-1.9,1.2c-0.6,0.3-1.2,0.6-1.9,0.8
	c-0.6,0.2-1.2,0.3-1.8,0.3c-0.6,0-1.2-0.1-1.6-0.3c-0.5-0.2-0.9-0.5-1.2-0.9c-0.3-0.4-0.5-0.9-0.7-1.4c-0.2-0.5-0.2-1.2-0.2-1.8
	c0-0.6,0-1.2,0.2-1.9c0.1-0.6,0.3-1.3,0.5-1.9c0.2-0.6,0.4-1.2,0.7-1.8c0.3-0.6,0.6-1.1,0.9-1.6c0.2-0.3,0.4-0.6,0.7-0.9
	c0.3-0.3,0.5-0.6,0.8-0.9c0.3-0.3,0.6-0.6,0.9-0.8c0.3-0.3,0.6-0.5,0.9-0.7c0.2-0.1,0.4-0.3,0.7-0.4c0.3-0.2,0.6-0.3,0.9-0.5
	c0.3-0.1,0.6-0.3,0.9-0.4c0.3-0.1,0.6-0.1,0.8-0.1c0.4,0,0.6,0,0.9,0.1c0.2,0.1,0.4,0.2,0.6,0.3c0.1,0.1,0.2,0.2,0.3,0.3
	c0.1,0.1,0.2,0.3,0.3,0.5c0.1,0.2,0.2,0.3,0.2,0.5c0.1,0.2,0.1,0.3,0.1,0.4c0,0.1,0,0.3-0.1,0.5c-0.1,0.2-0.2,0.5-0.3,0.7
	c-0.1,0.2-0.2,0.5-0.4,0.7c-0.1,0.2-0.2,0.4-0.3,0.4c-0.2,0.3-0.5,0.5-0.8,0.5c-0.2,0-0.4-0.1-0.5-0.2c-0.1-0.2-0.2-0.4-0.2-0.6
	c0-0.1,0-0.2,0.1-0.4c0.1-0.2,0.2-0.4,0.4-0.6c0.2-0.2,0.4-0.5,0.5-0.7c0.1-0.2,0.2-0.3,0.2-0.4c-0.1-0.1-0.3-0.2-0.4-0.2
	c-0.2-0.1-0.3-0.1-0.5-0.1c-0.2,0-0.5,0.1-0.8,0.2c-0.3,0.1-0.6,0.3-0.9,0.4c-0.3,0.2-0.6,0.4-0.9,0.6c-0.3,0.2-0.6,0.4-0.8,0.6
	c-0.6,0.6-1.2,1.2-1.7,1.9c-0.5,0.7-0.9,1.4-1.3,2.2c-0.1,0.3-0.3,0.7-0.4,1c-0.1,0.4-0.2,0.7-0.3,1.1c-0.1,0.4-0.2,0.7-0.2,1.1
	c-0.1,0.4-0.1,0.7-0.1,1.1c0,0.4,0,0.8,0.1,1.1c0.1,0.3,0.2,0.6,0.4,0.9c0.2,0.3,0.4,0.5,0.7,0.6c0.3,0.1,0.7,0.2,1.1,0.2
	c0.5,0,0.9-0.1,1.4-0.2c0.5-0.1,1-0.4,1.5-0.6c0.5-0.3,1-0.5,1.4-0.9c0.5-0.3,0.9-0.7,1.4-1c0.4-0.4,0.9-0.7,1.3-1.1
	c0.4-0.4,0.8-0.7,1.1-1c0.1-0.1,0.3-0.3,0.4-0.4c0.1-0.2,0.3-0.3,0.4-0.5c0.1-0.2,0.3-0.3,0.4-0.5c0.1-0.2,0.3-0.3,0.4-0.4
	C57.7,412.8,57.8,413.1,57.8,413.4z"/>
<path class="sombra" d="M121.4,72.1c0-19.8-16.4-20.7-16.4-20.7H29.2h-2.3v2.2h2.3h72.9c0,0,16.4,0.9,16.4,20.7v96.7v1.5h2.9v-1.5V72.1
	z"/>
<path class="sombra" d="M87.4,171.1V90.3c0,0-0.5-5.2,1.6-8.4c-5.4,1.5-4.5,10.7-4.5,10.7v78.6v1.5h2.9V171.1z"/>
<path class="sombra" d="M50.7,171.1V88.6c0,0-0.9-5.3,1.2-8.6c-5.7,1.8-4.1,10.9-4.1,10.9v80.3v1.5l2.9,0V171.1z"/>
<polygon class="sombra" points="239,28.7 239,60.5 277.9,60.5 277.9,68.4 277.9,69.9 280.9,69.9 280.9,68.4 280.9,58.3 241.9,58.3 
	241.9,26.5 222.7,26.5 220.4,26.5 220.4,28.7 222.7,28.7 "/>
<path class="sombra" d="M278.5,90.1h-18.9h-2.3v2.2h2.3h16v60.8c0,0-0.5,11.5-9.1,19.5c0.2-0.1,0.3-0.2,0.5-0.3
	c11-7.8,11.5-21.4,11.5-21.4V90.1z"/>
<path class="sombra" d="M241.5,152.4V75.5h-2.9v79.2c0,0-0.7,9.2,6.1,9.2c2.2,0,3.5-1,4.4-2.4c-0.4,0.1-0.9,0.2-1.4,0.2
	C240.8,161.6,241.5,152.4,241.5,152.4"/>
<path class="sombra" d="M246.1,256.4c0,0,4.1-57.5-49.2-57.5c-10.9,0-19.4,2.4-26,6.3c-2,1.2-3.8,2.4-5.4,3.8c0.8-0.5,1.6-1,2.4-1.5
	c6.6-3.9,15.1-6.3,26-6.3c53.3,0,49.2,57.5,49.2,57.5v21.3v1.5h2.9v-1.5V256.4z"/>
<path class="sombra" d="M129.2,226.2c-6.5-16.5-27.7-42.4-63.5-28.8c-2.5,1-4.8,2.1-6.9,3.3c-2,1.2-3.8,2.5-5.4,3.8
	c0.8-0.5,1.6-1,2.4-1.5c2.1-1.3,4.5-2.4,7-3.4c35.8-13.6,56.9,12.3,63.5,28.8c5.1,13,5.1,32.7,5.1,42c0,0.6,0,1.1,0,1.6l2.9,0.2
	c0,0,0-0.6,0-1.6C134.4,263.8,134.8,240.5,129.2,226.2"/>
<path class="sombra" d="M77.1,268.1c-1.7-12.8-4.8-30.2,0.2-36.8c-8.9,3.4-5.1,24.2-3.1,39c2.1,16.2,10.3,14.5,33.6,19.3
	c23.3,4.8,27.9,35.6,27.9,40.3c0,3.1,3.7,24.4-11.9,37.7c19.1-13.1,14.9-36.7,14.9-40c0-4.6-4.5-35.5-27.9-40.3
	S79.2,284.3,77.1,268.1"/>
<path class="sombra" d="M78,301.5H45.7h-2.2c0,0-0.1,0.8-0.2,2.2h2.2H75c-3.2,27.5,3.6,44.4,12.1,44.4c2.6,0,4.6-0.9,6-2.8
	c-0.9,0.4-1.9,0.5-3.1,0.5C81.6,345.9,74.8,328.9,78,301.5"/>
<path class="sombra" d="M242,303.9v14.4v1.5h2.9v-1.5v-16.6h-57v-58.6c0,0-0.8-7.4,2.4-11.5c-6.5,2.5-5.3,13.8-5.3,13.8v58.6H242z"/>
<polygon class="sombra" points="243.7,341.9 188.2,341.9 188.2,325.2 185.3,325.2 185.3,344.2 240.8,344.2 241.6,368.4 241.6,369.9 
	244.6,369.9 244.6,368.4 "/>
<polygon class="sombra" points="347.6,200.2 347.6,215.4 347.6,216.8 350.5,216.8 350.5,215.4 350.5,197.9 253.2,197.9 250.9,197.9 
	250.9,200.2 253.2,200.2 "/>
<polygon class="sombra" points="322.6,366.4 322.6,222.7 319.7,222.7 319.7,366.4 319.7,367.9 322.6,367.9 "/>
</svg>
