<?xml version="1.0" encoding="utf-8"?>
<!-- Generator: Adobe Illustrator 16.0.0, SVG Export Plug-In . SVG Version: 6.00 Build 0)  -->
<!DOCTYPE svg PUBLIC "-//W3C//DTD SVG 1.1//EN" "http://www.w3.org/Graphics/SVG/1.1/DTD/svg11.dtd">
<svg version="1.1" id="Capa_1" xmlns="http://www.w3.org/2000/svg" xmlns:xlink="http://www.w3.org/1999/xlink" x="0px" y="0px"
	 width="250px" height="250px" viewBox="0 0 250 250" enable-background="new 0 0 250 250" xml:space="preserve">
<radialGradient id="SVGID_1_" cx="125.2524" cy="125.3286" r="126.6758" gradientUnits="userSpaceOnUse">
	<stop  offset="0" style="stop-color:#FFFF00"/>
	<stop  offset="0.985" style="stop-color:#000000"/>
</radialGradient>
<rect x="-1.284" y="-1.487" fill-rule="evenodd" clip-rule="evenodd" fill="url(#SVGID_1_)" width="253.072" height="253.631"/>
<g>
	<path fill-rule="evenodd" clip-rule="evenodd" d="M147.331,124.116h45.396v9.634h-12.14v65.324H160v-64.533h-12.669
		L147.331,124.116L147.331,124.116z M74.02,168.394H57.127c0,0-4.09,32.069,21.38,32.069c25.469,0,21.906-18.873,21.906-20.853
		s-1.979-15.176-12.141-17.222c-10.162-2.047-13.725-1.321-14.648-8.248c-0.924-6.928-2.837-16.893,2.574-16.893
		c5.411,0,5.542,19.136,5.542,19.136l16.958,0.989c0,0,0.463-14.121-2.375-21.182c-2.838-7.06-13.526-18.409-29.1-12.603
		c-15.573,5.807-11.614,24.216-9.766,31.013c1.847,6.796,8.644,9.701,13.922,10.954c5.279,1.252,10.756,1.716,11.547,9.699
		c0.791,7.984,0.067,12.142-3.628,12.142C75.602,187.397,72.633,180.138,74.02,168.394z M49.527,114.677V61.494h36.291
		c0,0,7.126,0.397,7.126,8.842c0,8.446,0,44.604,0,44.604h-9.502V78.649c0,0,0.462-5.214-2.64-5.214c-3.1,0-2.685,4.652-2.685,4.652
		v36.721h-9.654V77.725c0,0,0.065-5.147-3.563-5.147s-2.763,4.786-2.763,4.786v37.345L49.527,114.677z M146.602,199.274h-42.757
		v-50.81c0,0-2.376-24.545,20.852-24.545c23.226,0,22.566,25.206,22.566,25.206v12.403h-18.08v-17.815c0,0,0.396-6.4-3.761-6.4
		s-3.522,6.102-3.522,6.102v25.043h24.834v9.106h-24.678v8.115h24.15L146.602,199.274z M134.093,50.811h11.35v13.593h16.958v6.401
		h-17.155v33.848c0,0-0.299,3.927,2.639,3.927s2.427-4.202,2.427-4.202V77.995h11.07v27.714c0,0-0.46,11.481-13.396,11.481
		c-12.933,0-14.153-14.154-14.153-14.154L134.093,50.811z"/>
	<path fill-rule="evenodd" clip-rule="evenodd" fill="#040404" d="M114.681,115.029h-0.261l0.296-0.643
		C114.718,114.621,114.681,114.79,114.681,115.029 M118.847,56.951l0.161,0.078c0.018,0.011,0.036,0.022,0.053,0.035
		c0.394,0.277,0.574,0.298,0.722,0.334l0.223,0.107c0.107,0.088,0.197,0.228,0.338,0.316c0.228,0.142,0.438,0.098,0.669,0.32
		c0.193,0.185,0.421,0.319,0.626,0.41c0.245,0.108,0.198,0.151,0.369,0.363c0.242,0.298,0.546,0.35,0.789,0.616
		c0.116,0.127,0.224,0.276,0.354,0.393c0.136,0.122,0.291,0.116,0.421,0.252c0.064,0.069,0.11,0.151,0.17,0.231
		c0.107,0.145,0.234,0.269,0.333,0.439c0.045,0.077,0.103,0.185,0.143,0.241l0.022-0.167c0.166,0,0.12,0.044,0.22,0.211
		c0.154,0.254,0.393,0.503,0.501,0.842c0.175-0.269,0.02-0.333,0.564,0.583c0.066,0.113,0.081,0.285,0.178,0.301
		c0.032-0.252,0.125-0.093,0.176,0.008c0.051,0.104,0.088,0.189,0.139,0.298c0.189,0.401,0.428,0.476,0.682,1.01
		c0.098,0.208,0.162,0.422,0.314,0.521c0.28,0.187,0.182,0.559,0.619,1.097c0.113,0.139,0.502,1.024,0.533,1.277l0.018-0.048
		c0.003-0.005,0.008-0.016,0.011-0.021c0.032-0.054-0.003-0.019,0.038-0.046c0.03-0.019,0.064-0.011,0.095-0.011
		c0.108,0.973,0.272,0.507,0.36,1.305l0.016-0.05c0.002-0.006,0.006-0.019,0.009-0.025c0.036-0.1,0.053-0.124,0.116-0.135
		c0.058,0.526,0.111,0.633,0.275,0.937c0.048,0.088,0.08,0.124,0.12,0.208c0.061,0.123,0.327,1.079,0.347,1.254h0.141
		c0.097,0.391,0.164,0.902,0.28,1.264c0.122-0.022,0.109-0.19,0.147,0.061c0.071,0.456,0.07,0.628,0.26,0.978
		c0.054,0.101,0.023,0.013,0.059,0.127c0.063,0.191,0.191,1.106,0.215,1.319c0.063-0.031,0.058-0.054,0.119-0.084
		c0.048,0.426,0.144,0.812,0.161,1.263c0.062-0.003,0.073-0.019,0.12-0.042c0,0.246,0.056,0.602,0.084,0.834
		c0.087,0.713-0.005,0.563,0.156,0.472c0.006,0.521,0.056,0.84,0.175,1.232c0.054,0.176,0.086,1.159,0.086,1.421
		c0.146-0.082,0.106-0.249,0.118,0.422c0.011,0.5,0.142,0.834,0.143,1.387l-0.022,0.698c0-0.005,0,0.013,0.002,0.019
		c0.04,0.085,0.117-0.12,0.114,0.147l-0.054,1.285c0.032-0.079,0.048-0.14,0.101-0.169c0,0.544-0.031,0.803,0.009,1.285
		c0.001,0.02,0.003,0.039,0.005,0.058l-0.004,0.399c-0.016,0.224-0.041,0.435-0.019,0.759c0.037,0.505-0.072,0.741-0.051,1.243
		c0.033,0.772-0.042,0.596-0.04,1.181c0,0.532-0.007,0.479-0.083,0.881c-0.07,0.372-0.01,0.852-0.089,1.16
		c-0.106,0.417-0.107,0.854-0.162,1.346c-0.04,0.368-0.114,0.614-0.208,0.91c0.075,0.083,0.124,0.099,0.047,0.305
		c-0.058,0.157-0.112,0.342-0.143,0.546c-0.056,0.378-0.064,0.221-0.146,0.454l0.048,0.036c0.036,0.042,0.029,0.037,0.052,0.091
		c-0.025,0.211-0.1,0.375-0.152,0.561c-0.055,0.194-0.11,0.357-0.167,0.534c0.137,0.431-0.017,0.27-0.108,0.658
		c-0.156,0.662-0.121,0.775-0.36,1.472c-0.196,0.567-0.162,0.3-0.113,0.692c-0.029,0.042-0.215,0.47-0.24,0.546
		c-0.081,0.235-0.084,0.441-0.152,0.69c-0.047,0.171-0.157,0.356-0.226,0.538c-0.068,0.186-0.161,0.351-0.223,0.542
		c0.093,0.052,0.039,0.03,0.081,0.21c-0.057,0.077-0.109,0.125-0.164,0.203c-0.108,0.153-0.135,0.395-0.236,0.557l-0.143,0.209
		h0.062c0.014,0.13,0.025,0.121,0.039,0.252c-0.192,0.108-0.325,0.457-0.422,0.798c-0.178,0.627-0.104,0.331-0.385,0.831
		c-0.477,0.847-0.07,0.408-0.35,0.869c-0.241,0.401-0.261,0.371-0.467,0.66c0.018,0.148,0.02,0.139,0.02,0.337
		c-0.15,0.168-0.224,0.174-0.355,0.431c-0.048,0.094-0.096,0.194-0.141,0.295c-0.053,0.118-0.07,0.196-0.128,0.317
		c-0.087,0.178-0.222,0.338-0.33,0.489c-0.056,0.079-0.118,0.178-0.169,0.234c-0.039,0.042-0.156,0.149-0.199,0.17l0.081,0.042
		c0,0.277,0.004,0.18-0.281,0.505c-0.047,0.052-0.345,0.32-0.337,0.409l0.004,0.06c-0.002,0.125-0.055,0.202-0.134,0.319
		c-0.077,0.116-0.184,0.139-0.269,0.236c-0.086,0.099-0.149,0.206-0.239,0.297c-0.03,0.029-0.128,0.103-0.141,0.126
		c-0.059,0.116,0.003-0.022,0.013,0.238c-0.133,0.147-0.285,0.237-0.421,0.378c-0.239,0.25-0.257,0.396-0.338,0.552l-0.863,0.67
		c0.02,0.154,0.021,0.088,0.061,0.211c-0.128,0.179-0.184,0.175-0.35,0.276c-0.295,0.18-0.421,0.499-0.626,0.663
		c-0.166,0.132-0.309,0.161-0.523,0.374c-0.05,0.05-0.096,0.117-0.152,0.186c-0.229,0.288-0.813,0.607-1.053,0.607
		c0.035,0.276,0.068,0.046,0.1,0.295c-0.102,0.004-0.137,0.074-0.24,0.083c-0.476,0.042-0.528,0.362-0.849,0.55l-0.034,0.019
		c-0.056,0.029-0.119,0.055-0.194,0.075c-0.393,0.106-0.516,0.305-0.741,0.448l-0.096,0.054c-0.007,0.004-0.015,0.007-0.022,0.011
		c-0.131,0.059-0.127-0.031-0.241-0.004c-0.25,0.06-0.39,0.205-0.621,0.381c-0.126,0.095-0.332,0.076-0.483,0.121
		c-0.136,0.04-0.317,0.132-0.458,0.217c-0.459,0.276-0.417-0.131-0.979,0.174c-0.573,0.314-0.451,0.01-0.988,0.155
		c-0.496,0.134-0.147,0.3-0.95,0.122c-0.463-0.102-0.168-0.033-0.458-0.174c-0.129,0.512-0.191,0.39-0.376,0.286
		c-0.331-0.185-0.567-0.076-0.807-0.412c-0.022,0.205-0.073,0.443-0.195,0.412c-0.101-0.026-0.058-0.196-0.628-0.323
		c-0.256-0.057-0.16-0.147-0.278-0.215l-0.023,0.034c-0.051,0.092-0.03,0.092-0.072,0.188c-0.178,0.411-0.258-0.267-1.106-0.263
		c-0.444,0-0.597-0.178-0.957-0.476c-0.108-0.089-0.162-0.189-0.266-0.24c-0.113,0.157-0.107,0.372-0.27,0.232
		c-0.417-0.36-0.152-0.491-0.972-0.614c-0.26-0.04-0.389-0.279-0.616-0.517c-0.126-0.133-0.456-0.521-0.567-0.576
		c-0.006,0.168-0.008,0.138-0.061,0.211c0.043,0.273-0.002-0.146,0.041,0.126c-0.106,0-0.152,0.051-0.22,0.126
		c-0.031-0.096-0.047-0.139-0.072-0.271c-0.099-0.508-0.089-0.29-0.347-0.493c-0.571-0.451-0.171-0.343-0.463-0.668
		c0.007,0.173,0.049,0.354-0.261,0.505c-0.134-0.418-0.164-0.691-0.415-0.897c-0.208-0.17-0.438-0.195-0.635-0.393
		c-0.273-0.277-0.575-0.907-0.799-1.352c-0.041-0.082-0.071-0.117-0.115-0.179c0,0.259,0.012,0.362-0.281,0.506
		c-0.133-0.529-0.492-1.626-0.781-1.768l-0.121,0.21c-0.045,0.052-0.09,0.081-0.16,0.084c-0.006-0.177-0.087-0.472-0.131-0.608
		c-0.061-0.185-0.127-0.315-0.213-0.437c-0.183-0.261-0.371-0.333-0.549-0.614c-0.362-0.571-0.541-1.698-0.73-1.962l-0.048,0.193
		c-0.002,0.007-0.005,0.019-0.008,0.025c-0.04,0.116-0.12,0.142-0.224,0.16c-0.125-0.497-0.002-0.371-0.24-1.011
		c-0.146-0.389-0.144-0.282-0.217-0.685c-0.014-0.084-0.021-0.065-0.021-0.159c0-0.236-0.009-0.039,0.017-0.125
		c-0.021-0.038-0.038-0.079-0.076-0.104c-0.121-0.08-0.064,0.221-0.064,0.441c-0.11-0.019-0.237-0.244-0.291-0.442
		c-0.056-0.205-0.083-0.497-0.137-0.724c-0.066-0.277-0.121-0.369-0.171-0.693c-0.038-0.24-0.053-0.563-0.184-0.627
		c-0.12,0.17-0.02,0.302-0.22,0.336c-0.018-0.137-0.037-0.129-0.063-0.288c-0.048-0.288-0.065-0.68-0.135-0.937
		c-0.225-0.811-0.45-0.673-0.508-0.957l-0.236-2.282c-0.063,0.012-0.249,0.159-0.301,0.211c-0.184-0.575,0.046-0.967-0.24-1.81
		c-0.262-0.775-0.219-0.705-0.286-1.672c-0.076-1.098-0.219-0.788-0.264-1.173c-0.078-0.669,0.009-1.934,0.009-2.67
		c-0.096,0.105-0.256,0.328-0.361,0.378c0-0.936,0.123-1.604-0.046-2.47c-0.019-0.094-0.029-0.18-0.033-0.262v-0.226
		c0.012-0.222,0.059-0.42,0.085-0.652c0.119-1.067-0.242-1.383,0.031-2.25c0.106-0.337,0.115-0.646,0.083-1.127
		c-0.038-0.564-0.13-0.496-0.006-1.069c0.249-1.15,0.069-1.975,0.224-2.351c0.138-0.338,0.151-0.092,0.271-0.818
		c0.1-0.597,0.052-0.93,0.1-1.18c0.068-0.355,0.156-0.57,0.246-0.875c0.098-0.336,0.134-0.579,0.191-0.988
		c0.052-0.372,0.085-0.716,0.158-1.058c0.227-1.067,0.569-1.125,0.661-1.39c-0.167-0.029-0.286-0.107-0.321-0.422
		c0.118-0.066,0.293-0.451,0.376-0.642c0.201-0.455,0.313-0.795,0.646-0.958c-0.041-0.374-0.063-0.093-0.189-0.188
		c-0.064-0.047-0.125-0.237-0.132-0.401c0.087-0.042,0.203-0.205,0.277-0.303c0.213-0.286,0.487-1.034,0.725-1.044
		c0-0.363-0.001-0.181-0.111-0.23c-0.074-0.033-0.093-0.135-0.109-0.276c0.103-0.321,0.391-0.514,0.536-0.77
		c0.12-0.212,0.208-0.505,0.287-0.786c0.181-0.638,0.342-0.616,0.611-1.03c0.123-0.188,0.464-0.534,0.529-0.739
		c-0.018-0.166-0.043-0.252-0.119-0.295v-0.126l0.64-0.591c0.021-0.027,0.113-0.179,0.133-0.223
		c0.111-0.232,0.158-0.606,0.284-0.794c0.113-0.17,0.802-0.745,0.948-0.87l0.238-0.216c0.034-0.036,0.036-0.04,0.061-0.084
		c-0.209,0-0.222-0.113-0.261-0.463c0.761,0,0.512-0.386,1.018-0.641c0.104-0.053,0.234-0.046,0.339-0.131
		c0.002-0.003,0.011-0.001,0.013-0.014c0.002-0.013,0.01-0.009,0.014-0.014c-0.177,0-0.268-0.128-0.28-0.462
		c0.172-0.031,0.546-0.145,0.675-0.266c0.206-0.194,0.558-0.927,0.728-0.956c0.168-0.028,0.197-0.012,0.34-0.084
		c0.179-0.09,0.461-0.264,0.641-0.294c0-0.778,0.087-0.471,0.914-0.818c0.071-0.029,0.114-0.045,0.183-0.077
		c0.048-0.022,0.106-0.063,0.166-0.074c-0.003-0.327-0.066-0.129-0.08-0.463c0.572,0,0.676,0.063,1.192-0.525
		c0.088-0.101,0.053-0.05,0.166-0.073c0.047-0.01,0.094-0.024,0.161-0.042c0.459-0.117,0.504-0.203,1.006-0.203
		c-0.039-0.111-0.034-0.052-0.078-0.174c-0.028-0.081-0.038-0.119-0.042-0.247c0.169,0.008,0.394,0.095,0.659,0.038
		c0.435-0.096,0.272-0.441,1.166-0.418c0.12,0.004,0.178,0.046,0.319,0.044c0.138-0.002,0.213,0.024,0.321,0.042
		c-0.038-0.151-0.073-0.157-0.08-0.336c0.121,0,0.236-0.011,0.349,0.024c0.619,0.187,0.718-0.156,0.873-0.194
		c0.079-0.019,0.228,0.038,0.312,0.062l0.608,0.154c0.088,0.018,0.214,0.077,0.303,0.08c-0.045-0.129-0.082-0.169-0.101-0.337
		c0.338,0,0.541,0.304,0.914,0.194c0.189-0.056,0.211-0.13,0.423-0.057c0.126,0.044,0.268,0.151,0.41,0.194
		c0.218,0.065,0.248,0.048,0.442-0.027c0.198-0.075,0.791,0.355,1.025,0.479c0.078,0.041,0.121,0.089,0.192,0.103l-0.046-0.074
		c-0.063-0.097-0.077-0.143-0.094-0.305c0.114,0.021,0.331,0.165,0.448,0.238C118.46,56.887,118.647,56.879,118.847,56.951z
		 M115.502,114.86c0.024-0.078,0.247-0.585,0.28-0.632c0,0.147-0.007,0.424-0.038,0.51
		C115.711,114.832,115.584,114.86,115.502,114.86z M112.157,115.029l0.292-0.607c0.049-0.081,0.062-0.126,0.108-0.193
		c-0.074,0.671-0.088,0.701-0.225,0.749C112.264,115.001,112.217,115.026,112.157,115.029z M111.014,114.777v-0.084
		c0.061-0.034,0.322-0.48,0.4-0.59c-0.006,0.143-0.07,0.499-0.104,0.581C111.227,114.885,111.145,114.777,111.014,114.777z
		 M117.827,113.809c0,0.211,0.002,0.218,0.021,0.378c-0.107,0-0.112,0.038-0.2,0.042
		C117.668,114.053,117.762,113.898,117.827,113.809z M109.371,114.06h0.321c-0.012,0.104-0.014,0.082-0.027,0.196
		c-0.003,0.037-0.004,0.05-0.007,0.079c-0.003,0.032,0,0.033-0.006,0.062C109.481,114.397,109.458,114.333,109.371,114.06z
		 M118.627,113.809l-9.256,0.251L118.627,113.809z M117.827,113.809h0.802H117.827z M118.627,113.809
		c0.046-0.183,0.141-0.57,0.201-0.716v0.589C118.782,113.729,118.692,113.797,118.627,113.809z M106.206,113.007l12.421,0.801
		L106.206,113.007z M119.75,109.597l0.04-0.049 M120.211,109.555c0.027-0.042-0.042-0.042,0.06-0.042
		C120.247,109.551,120.293,109.541,120.211,109.555z M120.311,109.471c0.001-0.004,0.006,0.007,0.006,0.013
		C120.316,109.482,120.309,109.475,120.311,109.471z M119.81,109.176c0.002-0.003,0.006,0.007,0.006,0.012L119.81,109.176z
		 M120.611,93.596c0.091,0.051,0.188,0.333,0.255,0.474c0.046,0.094,0.076,0.149,0.117,0.26l0.344,0.835
		c0.05,0.109,0.063,0.168,0.109,0.273c0.054,0.119,0.077,0.165,0.114,0.306c0.285,1.042,0.623,5.451,0.74,6.698
		c0.083,0.879,0.231,2.532,0.403,3.28l-0.407,0.409c-0.622,0.564-0.913,0.755-1.549,1.208c-0.303,0.215-0.229,0.076-0.229-1.196
		c0-0.848,0.021-1.638,0.021-2.527c0-0.463,0.021-0.794,0.021-1.221c0-0.42,0-0.842,0-1.263c0-0.467,0.02-0.771,0.02-1.222
		c0-0.435,0-0.87,0-1.304c0-0.451,0.021-0.755,0.021-1.222c0-0.421,0.001-0.842,0-1.264c-0.001-0.271,0.018-0.363,0.021-0.588
		L120.611,93.596z M115.222,109.092c0-0.303,0.06-0.772,0.088-1.077l0.317-3.208c0.127-1.255,0.635-5.891,0.865-7.15
		c0.072-0.397,0.093-0.556,0.216-0.851l1.118-2.788c0,1.74,0,3.481,0,5.221c0,1.643,0.042,3.634-0.019,5.181
		c-0.015,0.379-0.002,0.91-0.001,1.303c0.001,0.424-0.021,0.79-0.02,1.264c0.002,0.499-0.063,0.721,0.024,1.173
		c0.028,0.145,0.043,0.302-0.005,0.465c-0.039,0.128-0.008,0.073-0.109,0.109l-0.694,0.183c-0.095,0.022-0.202-0.005-0.298,0.005
		c-0.103,0.012-0.168,0.043-0.301,0.042c-0.197,0-0.701,0.001-0.894,0.06C115.436,109.048,115.283,109.088,115.222,109.092z
		 M128.986,101.134l-29.833,2.399L128.986,101.134z M114.961,109.007c-0.644,0-1.991-0.237-2.625-0.547
		c0-0.264-0.022-0.308,0.044-0.457c0.273-0.623,0.103-0.157,0.394-0.939l2.957-7.682c0.045-0.123,0.081-0.194,0.129-0.318
		c0.04-0.104,0.084-0.216,0.128-0.319l0.256-0.643l-1.201,10.612C115.027,108.856,115.032,109.007,114.961,109.007z M121.894,96.502
		c0.603,1.456,1.276,3.186,1.877,4.687c0.208,0.521,0.565,1.468,0.771,1.916c0.051,0.111,0.041,0.13,0.136,0.134
		c-0.196,0.618-0.773,1.155-1.103,1.556c-0.257,0.314-0.542,0.559-0.761,0.802c-0.176-0.7-0.085-0.123-0.154-1.022
		c-0.118-1.519-0.431-4.068-0.599-5.648c-0.043-0.409-0.072-0.752-0.11-1.158C121.912,97.339,121.894,97.034,121.894,96.502z
		 M130.229,96.67c0.027-0.248-0.007-0.289,0.12-0.294C130.332,96.54,130.306,96.627,130.229,96.67z M120.411,107.323
		c0,0.057-0.006,0.089-0.017,0.132c-0.061,0.262-0.871,0.626-0.985,0.626c-0.16,0-0.127,0.023-0.26-0.043l0.04-1.684
		c0.012-0.495,0.083-0.373-0.08-0.884c-0.068,0.012-0.198,0.052-0.261,0.084l-0.021,1.559c0.001,0.201,0.044,0.69,0.02,0.964
		c-0.017,0.192-0.027,0.055-0.099,0.34c-0.12,0-0.287,0.074-0.386,0.115c-0.122,0.05-0.275,0.116-0.396,0.137
		c-0.018-0.164-0.06-0.379-0.06-0.547v-6.274c0-0.726,0.02-1.327,0.02-2.021c0-0.688,0-1.375,0-2.063l0.023-2.015
		c0.016-0.304,0.005-0.638,0.018-0.973c0.011-0.281,0.029-0.687,0.038-0.973c0.015-0.48,0.022-0.435,0.135-0.728l0.661-1.727
		c0.08-0.207,0.143-0.382,0.223-0.586c0.039-0.099,0.072-0.183,0.107-0.279c0.045-0.121,0.058-0.214,0.138-0.258
		c0.025,0.199,0.113,0.28,0.171,0.438l0.916,2.119c0.22,0.517,0.114,2.9,0.116,3.591c0.001,0.299-0.021,0.436-0.021,0.756
		c0.003,1.199-0.04,2.716-0.04,3.917l-0.02,3.958c0,0.299-0.021,0.436-0.021,0.757c0.001,0.266,0,0.534,0,0.8
		C120.372,107.237,120.411,107.218,120.411,107.323z M129.488,94.564l0.007,0.013C129.493,94.577,129.486,94.569,129.488,94.564z
		 M130.549,94.523c0.269,0.047,0.181,0.192,0.16,0.378c-0.063-0.036-0.052-0.054-0.086-0.158
		C130.593,94.646,130.576,94.605,130.549,94.523z M129.528,94.48l1.021,0.042L129.528,94.48z M129.387,94.48h0.141H129.387z
		 M129.248,94.48h0.14H129.248z M129.547,94.396l-0.02,0.084 M129.407,94.396l-0.02,0.084 M129.267,94.396l-0.02,0.084
		 M129.427,94.312l-0.021,0.084 M129.287,94.312l-0.02,0.084 M129.448,94.228l-0.021,0.084 M129.307,94.228l-0.02,0.084
		 M129.147,94.269c0.003-0.004,0.006,0.007,0.006,0.013L129.147,94.269z M129.467,94.144l-0.02,0.084 M129.167,94.186l0.006,0.013
		C129.172,94.198,129.166,94.19,129.167,94.186z M129.027,94.186c0.001-0.005,0.006,0.006,0.006,0.013
		C129.033,94.198,129.025,94.19,129.027,94.186z M129.488,94.06l-0.021,0.084 M129.187,94.102l0.006,0.012
		C129.193,94.113,129.185,94.106,129.187,94.102z M129.047,94.102l0.005,0.012C129.052,94.113,129.044,94.106,129.047,94.102z
		 M129.228,93.976l-0.012,0.09 M129.067,94.017c0.001-0.004,0.007,0.007,0.007,0.013L129.067,94.017z M129.248,93.891l-0.02,0.084
		 M129.087,93.933c0.002-0.004,0.006,0.006,0.006,0.013C129.093,93.945,129.083,93.938,129.087,93.933z M129.106,93.849l0.007,0.012
		C129.113,93.86,129.105,93.854,129.106,93.849z M129.147,93.765l-0.041,0.084L129.147,93.765z M129.167,93.68l-0.021,0.084
		 M129.187,93.596l-0.02,0.084 M112.176,108.334c-0.221,0-1.141-0.518-1.386-0.669c-0.258-0.16-0.709-0.441-0.945-0.665
		l-0.294-0.309c0.02-0.154,0.033-0.138,0.092-0.229l1.888-3.571l3.437-6.04c0.157-0.279,0.308-0.516,0.461-0.802l0.46-0.801
		c0.143-0.264,0.284-0.595,0.421-0.884c0.074-0.155,0.135-0.303,0.215-0.433c0.085-0.136,0.163-0.227,0.261-0.336
		c-0.193,1.742-0.231,3.113-0.744,4.542c-0.055,0.152-0.104,0.283-0.158,0.427c-0.053,0.143-0.108,0.271-0.164,0.415l-0.493,1.237
		c-0.292,0.689-0.545,1.399-0.818,2.109c-0.208,0.536-0.711,1.943-0.884,2.314c-0.047,0.101-0.051,0.106-0.093,0.223
		c-0.035,0.096-0.051,0.115-0.087,0.196c-0.04,0.092-0.042,0.121-0.08,0.211c-0.176,0.416-0.513,1.241-0.65,1.666
		c-0.052,0.162-0.096,0.271-0.148,0.447c-0.052,0.179-0.088,0.284-0.121,0.504c-0.01,0.067-0.006,0.064-0.019,0.128
		C112.269,108.289,112.209,108.074,112.176,108.334z M129.248,93.891c0.012-0.109,0.02-0.127,0.039-0.212
		c0.005-0.024,0.019-0.08,0.027-0.11c0.023-0.084,0.01-0.042,0.034-0.099C129.34,93.641,129.297,93.813,129.248,93.891z
		 M129.207,93.512l-0.02,0.084 M129.228,93.428l-0.021,0.084 M116.624,96.586c0-0.431,0.223-2.532,0.321-3.032
		c0.175-0.887,0.518-1.385,0.901-1.811c0,0.498,0.032,1.419-0.046,1.757c-0.037,0.162-0.144,0.371-0.198,0.511
		c-0.067,0.174-0.131,0.338-0.194,0.518l-0.757,1.988C116.624,96.592,116.64,96.545,116.624,96.586z M121.493,92.627l0.275,0.516
		c0.185,0.346,1.23,1.984,1.508,2.431c0.2,0.321,0.389,0.659,0.595,0.981c0.556,0.867,1.224,2.03,1.789,2.936
		c0.101,0.162,0.205,0.319,0.306,0.496c0.096,0.166,0.208,0.352,0.316,0.472c0,0.199,0.004,0.188,0.02,0.337
		c-0.123,0.06-0.354,0.546-0.465,0.748l-0.279,0.467c-0.06,0.103-0.113,0.203-0.174,0.306c-0.066,0.112-0.122,0.199-0.192,0.313
		c-0.116,0.191-0.277,0.448-0.434,0.523l-0.229-0.572c-0.075-0.203-0.166-0.375-0.243-0.583c-0.281-0.76-0.92-2.155-1.199-2.912
		l-0.838-2.028c-0.051-0.112-0.068-0.18-0.121-0.295l-0.239-0.593C121.748,95.724,121.493,93.443,121.493,92.627z M117.085,92.627
		h4.409H117.085z M120.651,91.281c0.211,0.296,0.437,0.6,0.594,1.027c0.051,0.141,0.089,0.327,0.113,0.521l0.127,1.247
		c0.042,0.389,0.108,0.856,0.108,1.289c-0.07-0.099-0.13-0.239-0.18-0.379c-0.061-0.165-0.12-0.255-0.185-0.411
		c-0.038-0.09-0.04-0.119-0.08-0.21l-0.268-0.66C120.486,92.646,120.609,92.348,120.651,91.281z M104.623,99.66
		c-0.149-0.073-0.434-0.661-0.537-0.894c-0.321-0.729-1.053-3.074-1.126-3.738c0.264-0.267,0.688-0.368,1.02-0.508l3.206-1.305
		c0.352-0.147,0.699-0.275,1.059-0.428l3.211-1.295c-0.048,0.138-2.257,2.625-2.578,3.003l-1.736,1.994
		c-0.31,0.322-0.746,0.876-1.075,1.235c-0.291,0.316-0.572,0.701-0.875,0.983C104.822,99.05,104.646,99.074,104.623,99.66z
		 M111.475,91.449l0.006,0.013C111.481,91.46,111.473,91.453,111.475,91.449z M117.085,92.627l-5.61-1.178L117.085,92.627z
		 M104.623,99.702c0.184-0.09,1.267-1.419,1.616-1.782l1.598-1.864c0.104-0.129,0.193-0.218,0.299-0.34
		c0.198-0.232,0.387-0.456,0.576-0.686l0.865-1.004c0.101-0.129,0.196-0.226,0.296-0.347l1.296-1.527
		c0.056-0.066,0.089-0.095,0.143-0.164l0.298-0.342c0.655-0.695,1.415-0.927,2.142-1.183c0.161-0.057,0.657-0.235,0.791-0.235
		l-7.624,12.908c-0.079,0.124-0.073,0.187-0.168,0.235c-0.046,0.024-0.187,0.092-0.233,0.058c-0.035-0.027-0.127-0.208-0.157-0.264
		l-0.63-1.033c-0.22-0.345-0.411-0.685-0.621-1.054C104.902,100.715,104.685,100.269,104.623,99.702z M120.651,88.501
		c0.376,0.183,0.273-0.011,0.41,1.414c0.063,0.662,0.122,1.284,0.192,1.912C120.447,91.015,120.651,90.675,120.651,88.501z
		 M117.987,92.964c0-1.863-0.105-1.362,0.675-2.75c0.036-0.062,0.048-0.102,0.083-0.161c0.084-0.145,0.231-0.399,0.325-0.415
		c0.042,0.34,0.145,0.168-0.055,0.729C118.89,90.715,118.111,92.789,117.987,92.964z M119.37,89.891
		c0.057-0.18,0.071-0.297,0.159-0.421c0.06,0.033,0.094,0.096,0.136,0.178c0.138,0.277,0.482,0.801,0.649,1.079
		c0.222,0.37,0.197,0.376,0.197,0.932c0,0.383-0.02,0.593-0.02,0.969c-0.082-0.114-0.082-0.182-0.145-0.326
		c-0.056-0.127-0.084-0.214-0.14-0.337l-0.691-1.705C119.47,90.16,119.403,89.996,119.37,89.891z M125.42,89.849l2.002,0.382
		c0.315,0.052,0.664,0.16,0.983,0.206l1.001,0.212c-0.008,0.812-0.576,3.027-0.601,3.242l-0.213-0.224
		c-0.078-0.09-0.14-0.167-0.216-0.263c-0.147-0.183-0.274-0.323-0.421-0.505c-0.286-0.355-0.559-0.649-0.844-1.004l-1.48-1.775
		c-0.042-0.052-0.061-0.066-0.104-0.119c-0.019-0.022-0.037-0.046-0.05-0.064l-0.023-0.033
		C125.415,89.845,125.444,89.891,125.42,89.849z M131.367,89.479c0.087-0.01,0.164-0.062,0.164,0.117v0.042
		c0,0.161,0.007,0.015-0.02,0.127L131.367,89.479z M118.007,90.986c0-0.773-0.021-1.407-0.021-2.19
		c0.199-0.097,0.442-0.159,0.602-0.336c0.146,0.457,0.267,0.738,0.34,0.969c-0.081,0.112-0.146,0.244-0.223,0.374
		c-0.082,0.136-0.147,0.254-0.231,0.397c-0.084,0.142-0.149,0.256-0.232,0.398C118.158,90.742,118.095,90.861,118.007,90.986z
		 M119.27,89.68c-0.052-0.094-0.076-0.113-0.12-0.252c0.06-0.236,0.081-0.269,0.22-0.337
		C119.381,89.182,119.496,89.361,119.27,89.68z M123.316,89.175c0.172,0,0.662,0.142,0.883,0.167
		c0.299,0.034,0.59,0.101,0.812,0.313l3.694,4.488c-0.024,0.662-0.843,2.854-0.86,2.99c-0.246-0.011-0.441-0.625-0.597-0.891
		l-0.453-0.691c-0.066-0.101-0.08-0.155-0.141-0.253l-2.51-4.578c-0.097-0.173-0.176-0.345-0.278-0.511L123.316,89.175z
		 M109.271,106.481c-0.217,0-1.442-1.32-1.812-1.792c-0.1-0.126-0.18-0.22-0.276-0.346c-0.104-0.136-0.154-0.303-0.316-0.303
		c0.151-0.602-0.006-0.134,0.225-0.663c0.33-0.752,1.082-1.966,1.489-2.639c0.109-0.18,0.189-0.332,0.298-0.512
		c1.199-1.979,2.433-4.157,3.636-6.171l2.118-3.634c0.37-0.54,1.261-0.774,1.74-0.975l0.933-0.354
		c-0.008,0.222-0.07,0.638-0.096,0.85c-0.035,0.292-0.06,0.549-0.096,0.851c-0.067,0.563-0.205,2.083-0.354,2.457l-0.688,1.25
		c-0.059,0.096-0.079,0.164-0.137,0.26l-0.553,0.986c-0.05,0.082-0.076,0.136-0.132,0.228c-0.051,0.085-0.092,0.158-0.143,0.248
		l-2.914,5.118c-0.046,0.079-0.096,0.165-0.142,0.25l-0.554,0.984c-0.38,0.646-0.735,1.295-1.111,1.959l-0.557,0.976
		C109.771,105.605,109.285,106.481,109.271,106.481z M120.511,90.607c-0.252-0.281-0.226-0.253-0.452-0.607
		c-0.06-0.094-0.39-0.64-0.39-0.739c0-0.218,0.198-0.739,0.265-0.834c0.096-0.138,0.455,0.076,0.596,0.076
		C120.531,89.203,120.511,89.861,120.511,90.607z M118.828,88.754c0.026-0.112,0.019-0.044,0.021-0.21
		c0.124,0,0.225-0.006,0.321,0.294c-0.018,0.161-0.042,0.177-0.06,0.338C118.989,89.117,118.927,89.064,118.828,88.754z
		 M121.072,88.627l0.596,0.14c0.278,0.079,1.331,0.241,1.489,0.45c0.042,0.055,0.046,0.085,0.085,0.156l0.811,1.498
		c0.041,0.084,0.048,0.083,0.088,0.151c0.039,0.066,0.055,0.116,0.093,0.185c0.04,0.076,0.049,0.074,0.089,0.148
		c0.037,0.069,0.053,0.119,0.092,0.185l1.076,1.99c0.122,0.198,0.231,0.473,0.358,0.681c0.134,0.219,0.242,0.424,0.378,0.638
		c0.562,0.879,0.467,0.652,1.021,1.728c0.106,0.208,0.334,0.578,0.436,0.895c-0.019,0.147-0.341,0.981-0.409,1.162l-0.297,0.723
		c-0.159,0.331-0.331,0.719-0.516,0.979c-0.024-0.038-0.032-0.063-0.042-0.08c-0.105-0.177-0.231-0.147-0.394-0.438
		c-0.355-0.645-0.59-1.003-0.939-1.601l-0.955-1.574c-0.068-0.116-0.125-0.202-0.192-0.314c-0.066-0.112-0.122-0.198-0.191-0.313
		l-0.776-1.275c-0.348-0.546-0.837-1.421-1.159-1.9c-0.405-0.601-0.382-0.591-0.505-1.801
		C121.23,90.274,121.124,89.461,121.072,88.627z M117.546,88.711l3.526-0.084L117.546,88.711z M102.739,94.48
		c-0.066-0.268-0.739-4.87-0.74-5.053c0.163,0,0.294-0.06,0.449-0.108c0.14-0.043,0.566-0.207,0.67-0.142
		c0.083,0.051,0.109,0.062,0.217,0.095c0.457,0.142,0.701,0.024,1.108,0.03l4.428-0.422c0.761,0.001,1.78-0.169,2.544-0.168
		c0.772,0.001,1.784-0.168,2.564-0.168c-0.092,0.169-0.428,0.517-0.545,0.666c-0.095,0.12-0.184,0.215-0.283,0.331l-0.848,1
		c-0.219,0.275-0.362,0.371-0.627,0.535c-0.513,0.317-2.346,0.934-2.959,1.191c-1.464,0.615-2.94,1.272-4.416,1.793l-1.162,0.338
		C103.031,94.418,102.836,94.433,102.739,94.48z M115.142,89.68c0.401-1.258,0.895-1.353,1.583-1.347
		c0.288,0.002,0.437-0.123,0.661,0.126c-0.052,0.471-0.21,0.448-0.449,0.529l-1.185,0.457
		C115.547,89.53,115.334,89.586,115.142,89.68z M112.457,90.733c0.115-0.21,1.18-1.424,1.342-1.6
		c0.788-0.855,0.688-0.62,1.523-0.673c0.104-0.006,0.137-0.043,0.26-0.043c-0.426,1.338-1.479,1.813-2.205,2.019L112.457,90.733z
		 M117.546,88.711v-0.379c0.119-0.006,0.171-0.084,0.321-0.084c-0.028,0.118-0.042,0.233-0.021,0.336
		C117.737,88.605,117.662,88.707,117.546,88.711z M131.492,88.207h0.141v0.252C131.58,88.387,131.538,88.292,131.492,88.207z
		 M120.451,87.743c0.031,0.179,0.081,0.134,0.081,0.504c-0.07-0.07-0.286-0.122-0.381-0.167
		C120.242,87.819,120.347,87.891,120.451,87.743z M120.993,87.786l1.302-0.126c0.071,0.28,0.115,0.37,0.234,0.56
		c0.08,0.126,0.225,0.316,0.327,0.367c-0.128,0.404-0.608,0.004-1.122-0.042c-0.119-0.01-0.635-0.084-0.698-0.26
		C121.001,88.186,120.993,87.951,120.993,87.786z M120.832,87.786c0.019,0.169,0.053,0.313,0.06,0.506c-0.06-0.03-0.158-0.038-0.2,0
		c-0.004-0.105-0.04-0.333-0.034-0.377C120.679,87.75,120.741,87.877,120.832,87.786z M117.586,88.038
		c0.005-0.123,0.061-0.587,0.08-0.674l0.22,0.548C117.743,87.992,117.942,88.038,117.586,88.038z M122.456,87.659
		c0.931,0,0.646-0.311,1.463,0.672l0.741,0.886c-0.317,0-1.035-0.165-1.329-0.283C122.93,88.774,122.643,88.25,122.456,87.659z
		 M120.472,87.575l-0.012,0.09 M123.597,87.533c0.287,0,0.503-0.044,0.782-0.042l0.761-0.086c0.277-0.018,0.502-0.021,0.781-0.04
		l1.162-0.127c0.131-0.015,0.267,0.025,0.396-0.011c0.207-0.06,1.241-0.082,1.53-0.151c0.149-0.036,0.681-0.054,0.779-0.006
		c-0.02,0.174-0.018,0.322-0.032,0.524l-0.127,1.542c-0.025,0.273-0.075,1.227-0.237,1.235l-1.307-0.27
		c-0.157-0.021-0.36-0.076-0.507-0.115c-0.188-0.05-0.344-0.062-0.532-0.103c-0.334-0.073-0.686-0.168-1.022-0.249
		c-0.229-0.056-0.774-0.224-0.98-0.342c-0.286-0.161-0.82-0.932-1.094-1.279C123.866,87.908,123.639,87.653,123.597,87.533z
		 M117.446,88.038c-0.476,0-0.906,0.084-1.383,0.084c0.127-0.4,0.475-0.907,0.678-1.228c0.028-0.042,0.242-0.415,0.243-0.415
		c0.15,0,0.401,0.301,0.562,0.379C117.542,87.23,117.45,87.667,117.446,88.038z M131.607,86.953
		c0.066-0.013,0.077-0.028,0.124-0.052c-0.011,0.099-0.018,0.125-0.021,0.252L131.607,86.953z M120.472,87.575
		c0.007-0.179,0.093-0.344,0.156-0.474c0.151-0.318,0.065-0.388,0.412-0.776c0.097-0.109,0.17-0.191,0.253-0.309
		c0.018,0.029,0.022,0.04,0.044,0.075c0.022,0.033,0.039,0.053,0.06,0.083l0.717,1.314c-0.205,0-0.333,0.042-0.541,0.042
		l-0.562,0.042c-0.053-0.168-0.068-0.221-0.096-0.43c-0.022-0.164-0.044-0.351-0.125-0.412c0,0.291,0.021,0.501,0.021,0.842
		C120.682,87.575,120.56,87.486,120.472,87.575z M114.661,88.207c0.089-0.164,1.422-1.745,1.609-1.967
		c0.267-0.316,0.306-0.291,0.594,0.029l-0.617,1.143c-0.075,0.129-0.15,0.235-0.229,0.361c-0.041,0.063-0.063,0.097-0.103,0.163
		c-0.2,0.317-0.131,0.229-0.493,0.229C115.165,88.164,114.938,88.207,114.661,88.207z M120.912,86.185l-6.251,2.021L120.912,86.185z
		 M121.473,85.806c0.258-0.126,0.027-0.394,0.569,0.235l1.027,1.253c0.038,0.053,0.017,0.016,0.046,0.07l-0.575,0.054
		c-0.351,0.102-0.258,0.032-0.431-0.339c-0.146-0.31-0.351-0.565-0.501-0.883C121.465,85.895,121.53,86.075,121.473,85.806z
		 M120.912,86.185c0.006-0.168,0.051-0.464,0.08-0.589c0.126,0.022,0.135,0.121,0.22,0.168
		C121.19,85.942,121.001,86.142,120.912,86.185z M116.764,85.765l0.258-0.267c0.033,0.106,0.18,0.478,0.043,0.478
		C116.95,85.975,116.848,86.003,116.764,85.765z M102.439,89.091c-0.278,0-0.416,0.078-0.49-0.908
		c-0.033-0.445-0.08-1.878-0.042-2.4l0.052-1.407c0.008-0.215,0.038-0.512,0.04-0.717c0.195,0,0.346-0.086,0.561-0.084h1.202
		c0.22,0,0.363-0.042,0.581-0.042l6.031,0.001c0.124,0,0.156-0.043,0.28-0.045c0.123-0.001,0.187,0.024,0.282,0.041
		c0.218,0.038,0.823-0.086,1.323,0c0.594,0.104,1.692-0.217,2.166,0.123c0.136,0.097,1.228,1.3,1.487,1.593
		c0.102,0.114,0.423,0.475,0.514,0.52l-0.46,0.549c-0.055,0.066-0.087,0.11-0.154,0.181c-0.621,0.646-1.379,1.848-2.05,1.84
		c-0.405-0.005-0.791-0.028-1.184,0.039l-0.721,0.043c-0.167,0.011-0.193,0.045-0.461,0.042c-0.157-0.001-0.28,0.044-0.46,0.043
		c-0.184,0-0.288,0.044-0.461,0.042c-0.08,0-0.161,0-0.241,0c-0.117-0.001-0.146,0.033-0.24,0.043
		c-0.287,0.032-0.687-0.067-0.954,0.017c-0.275,0.087-0.655,0.033-0.949,0.066l-0.462,0.041c-0.133,0.004-0.206,0.045-0.461,0.042
		c-0.157-0.001-0.279,0.044-0.46,0.043l-0.941,0.085c-0.14-0.001-0.346-0.026-0.479,0.005c-0.147,0.035-0.29,0.03-0.464,0.034
		c-0.14,0.004-0.217,0.047-0.48,0.043l-0.941,0.086C103.069,89.045,102.785,89.091,102.439,89.091z M131.551,85.638h0.2
		c0,0.333-0.009,0.132,0.021,0.252c-0.054-0.03-0.059-0.056-0.108-0.112L131.551,85.638z M121.272,85.722
		c-0.108-0.432-0.047-0.294-0.021-0.505c0.186,0,0.194-0.013,0.261,0.252C121.448,85.562,121.36,85.68,121.272,85.722z
		 M117.045,85.259c0.383-0.188,0.221-0.301,0.361-0.379c0.022,0.18,0.05,0.103,0.06,0.337c0.006,0.14-0.004,0.318,0,0.463
		l0.02,0.927c-0.002,0.003-0.008-0.003-0.01,0.004c-0.014,0.093-0.005,0.005-0.021,0.01c-0.214,0.064-0.018-0.134-0.29-0.267
		c0.052-0.207,0.16-0.347,0.2-0.716c-0.056-0.063-0.099-0.104-0.157-0.176c-0.031-0.04-0.041-0.051-0.077-0.09L117.045,85.259z
		 M119.169,84.164c0.356,0,0.261-0.054,0.455,0.182c0.253,0.309,0.347,0.705,0.347,1.376c0,0.23-0.053,0.376-0.089,0.571
		c-0.074,0.403-0.019,0.228-0.186,0.411c-0.135,0.147-0.068,0.188-0.267,0.198c-0.354,0.017-0.392,0.171-0.646-0.16
		c-0.287-0.375-0.209-0.885-0.24-1.395c-0.022-0.377,0-0.35,0.199-0.773C118.846,84.355,118.969,84.164,119.169,84.164z
		 M120.933,84.669c0.075,0.042,0.162,0.312,0.2,0.463c-0.101,0-0.104-0.004-0.181-0.042
		C120.936,84.941,120.899,84.798,120.933,84.669z M129.829,86.817c-0.272,0.133-0.515,0.124-0.782,0.125
		c-0.124,0-0.155,0.044-0.279,0.044c-0.093,0-0.187-0.003-0.282-0.002c-0.122,0-0.154,0.045-0.278,0.045
		c-0.093,0-0.188-0.006-0.281-0.003c-0.116,0.003-0.15,0.046-0.278,0.045c-0.095-0.001-0.188-0.005-0.281-0.003
		c-0.117,0.003-0.151,0.046-0.279,0.045l-1.965,0.124c-0.129,0-0.163,0.042-0.279,0.045c-0.094,0.002-0.188-0.003-0.282-0.003
		c-0.124,0-0.155,0.045-0.279,0.045c-0.198,0-0.355,0.026-0.563,0.04c-0.565,0.035-0.318,0.092-0.837-0.596l-0.731-0.906
		c-0.071-0.088-0.321-0.382-0.354-0.476c0.055-0.031,0.127-0.147,0.18-0.212c0.281-0.354,1.212-1.688,1.464-1.723l0.84-0.044
		c0.18,0,0.38,0.028,0.549-0.026l3.378,0.067c0.213,0,0.348,0.042,0.561,0.042c0.115,0,0.91-0.055,1,0.047
		c0.003,0.005,0.008,0.013,0.012,0.018c0.042,0.05-0.012,0.047,0.071,0.062c0,0.576-0.021,1.008-0.021,1.557
		C129.829,85.722,129.829,86.27,129.829,86.817z M116.024,83.532h1.402c0,0.307,0.087,0.757,0.121,1.053
		c-0.055,0.061-0.074,0.089-0.123,0.163c-0.073,0.109-0.05,0.072-0.14,0.126c-0.094,0.058-0.206,0.167-0.278,0.299
		c-0.224-0.315-0.638-1.027-0.879-1.395C116.063,83.685,116.06,83.679,116.024,83.532z M114.741,83.532
		c0.129,0,1.028-0.052,1.105,0.035l0.403,0.711c0.16,0.25,0.556,0.837,0.596,1.149c-0.056,0.027-0.104,0.055-0.158,0.089
		c-0.198,0.124-0.164,0.15-0.284-0.002c-0.35-0.441-0.807-0.914-1.158-1.358c-0.088-0.112-0.163-0.194-0.257-0.3
		c-0.054-0.06-0.077-0.097-0.126-0.154L114.741,83.532z M121.633,85.259c-0.077,0-0.169-0.162-0.2-0.253
		c0.021-0.16,0.554-1.206,0.626-1.336c0.273-0.486,0.642-0.306,1.097-0.306c-0.068,0.214-0.581,0.806-0.729,0.993
		c-0.147,0.186-0.196,0.206-0.38,0.464C121.946,84.962,121.774,85.259,121.633,85.259z M120.832,84.291
		c0.018-0.159,0.033-0.298,0.053-0.48c0.019-0.178,0.046-0.304,0.048-0.489c0.389,0,0.737,0.042,1.142,0.042
		c-0.059,0.237-0.159,0.422-0.255,0.6c-0.108,0.2-0.342,0.606-0.452,0.737c-0.085,0.102-0.094,0.093-0.187-0.001
		C121.043,84.56,120.948,84.454,120.832,84.291z M120.692,83.997l-0.221-0.548c0.121-0.06,0.085-0.126,0.32-0.126
		C120.754,83.663,120.764,83.71,120.692,83.997z M102.879,77.932c0.282,0,0.486,0.137,0.736,0.223l2.251,0.701
		c1.428,0.417,3.052,0.927,4.469,1.429c0.521,0.184,1.595,0.527,2.062,1.098c0.242,0.297,1.6,1.661,1.682,1.896l-11.28-0.042
		c-0.262,0-0.468-0.042-0.742-0.042c0.008-0.195,0.04-0.541,0.055-0.728c0.021-0.27,0.038-0.508,0.065-0.746
		c0.137-1.179,0.238-1.599,0.403-2.648c0.036-0.224,0.08-0.408,0.121-0.63C102.736,78.268,102.767,77.932,102.879,77.932z
		 M129.528,79.954c0.009,0.195,0.073,0.569,0.096,0.766c0.083,0.708,0.184,1.786,0.184,2.518c-0.301,0-0.547,0.044-0.861,0.041
		c-0.149-0.001-0.25,0.044-0.42,0.043c-0.415,0-1.285,0.051-1.568-0.03c-0.188-0.055-1.34-0.057-1.657-0.053
		c-0.188,0.002-0.334-0.042-0.541-0.042c-0.396,0-0.725-0.042-1.123-0.042c0.086-0.271,0.934-1.22,1.138-1.481
		c0.38-0.489,2.557-1.04,3.131-1.211l1.223-0.338c0.076-0.027,0.12-0.046,0.191-0.104C129.417,79.938,129.399,79.954,129.528,79.954
		z M118.107,83.28h-0.241c0-0.475-0.025-0.421,0.16-0.421c0.106,0,0.236,0.124,0.28,0.252
		C118.17,83.135,118.164,83.28,118.107,83.28z M117.466,82.69c0.179,0.181,0.26-0.226,0.26,0.632
		c-0.1-0.101-0.159,0.047-0.212-0.143C117.495,83.116,117.467,82.792,117.466,82.69z M120.832,83.069
		c-0.122,0-0.19,0.038-0.28,0.042c0-0.38-0.031-0.421,0.28-0.421l0.014,0.141C120.848,82.98,120.838,82.908,120.832,83.069z
		 M118.948,82.69c-0.094,0-0.09-0.007-0.16-0.042c0.03-0.278,0.048-0.395,0.201-0.421c0.007,0.198,0.024,0.076,0.005,0.226
		C118.981,82.549,118.963,82.556,118.948,82.69z M119.289,82.312c0.04-0.122,0.041-0.057,0.061-0.211
		c0.212,0.01,0.26,0.369,0.301,0.547c-0.147,0.072-0.07,0.111-0.208-0.025c-0.034-0.034-0.076-0.061-0.097-0.093
		C119.288,82.44,119.313,82.425,119.289,82.312z M122.775,82.101c-0.069,0.219-0.18,0.356-0.285,0.579
		c-0.049,0.103-0.091,0.206-0.138,0.298c-0.072,0.14-0.127,0.092-0.256,0.092c-0.395-0.004-0.724,0.042-1.122,0.042
		c0.007-0.746,0.463-0.636,0.792-0.734C121.996,82.31,122.591,82.101,122.775,82.101z M115.001,82.017
		c0.205-0.206,0.57,0.016,0.773,0.102l1.222,0.422c0.356,0.121,0.312-0.038,0.344,0.415c0.011,0.146,0.021,0.204,0.025,0.325
		c-0.427,0-1.43,0.18-1.763-0.252c-0.112-0.145-0.169-0.392-0.265-0.581C115.194,82.167,115.054,82.167,115.001,82.017z
		 M118.548,82.775c-0.157,0-0.497-0.182-0.661-0.211v-2.189c0.208,0.293,0.667,1.229,0.901,1.558
		C118.765,82.14,118.604,82.549,118.548,82.775z M119.009,82.017c0.047-0.187,0.119-0.348,0.2-0.462
		c0.085,0.12,0.101,0.128,0.101,0.421C119.186,82.036,119.141,82.15,119.009,82.017z M119.57,81.806
		c0.297-0.418,0.564-0.928,0.861-1.347c0,0.504-0.002,1.012,0,1.516c0.002,0.541-0.024,0.532-0.228,0.658l-0.132,0.142
		c0.056,0,0.124-0.007,0.179,0.002c0.078,0.014,0.068,0.04,0.162,0.04c-0.002,0.196-0.033,0.281-0.04,0.463l-0.481-0.547
		c-0.119-0.191-0.181-0.38-0.256-0.639L119.57,81.806z M123.176,83.154h-0.381c-0.145,0-0.2-0.042-0.34-0.042
		c0.067-0.616,0.565-1.13,0.899-1.224c0.217-0.061,0.422-0.138,0.64-0.214c0.203-0.071,0.424-0.162,0.664-0.162l-0.348,0.446
		c-0.121,0.167-0.221,0.298-0.344,0.457C123.766,82.669,123.471,83.154,123.176,83.154z M112.476,81.09
		c0.224,0,0.456,0.084,0.67,0.15c0.409,0.125,1.17,0.361,1.543,0.634c0.104,0.076,0.168,0.185,0.292,0.185
		c0.05,0.449,0.221,0.69,0.409,0.951c0.06,0.083,0.136,0.166,0.173,0.27c-0.343,0-0.694,0.012-0.986-0.076
		c-0.341-0.103-0.512-0.298-0.771-0.569c-0.237-0.249-0.435-0.489-0.662-0.756c-0.117-0.138-0.216-0.263-0.333-0.395
		c-0.066-0.076-0.107-0.11-0.17-0.19c-0.031-0.04-0.041-0.05-0.078-0.09L112.476,81.09z M125.28,81.006l0.006,0.013
		C125.286,81.018,125.278,81.01,125.28,81.006z M96.648,80.585l0.46,0.504l-0.481-0.042C96.628,80.815,96.648,80.798,96.648,80.585z
		 M119.429,81.596c-0.174-0.544-0.027-0.557,0.174-1.065c0.093-0.235,0.17-0.436,0.262-0.671l0.263-0.671
		c0.051-0.133,0.233-0.543,0.303-0.583c0,1.75,0.1,1.432-0.806,2.729C119.564,81.424,119.499,81.557,119.429,81.596z
		 M117.887,79.364l0.021-1.137c0.08,0.046,0.264,0.562,0.32,0.715l0.604,1.51c0.083,0.216,0.247,0.571,0.278,0.849
		c-0.055,0.175-0.118,0.264-0.2,0.379c-0.155-0.076-0.629-0.925-0.757-1.189C118.004,80.185,117.887,80.015,117.887,79.364z
		 M120.632,82.48h-0.08l-0.021-1.643c0-1.026,0.339-1.235,0.61-1.623c0.056-0.08,0.063-0.119,0.111-0.188
		c0,0.62-0.212,2.056-0.292,2.924C120.925,82.332,120.926,82.48,120.632,82.48z M117.085,78.984
		c0.055,0.078,0.176,0.367,0.364,0.626c0.081,0.111,0.075,0.09,0.198,0.09c0.011,0.291,0.101,0.347,0.101,1.306
		c0,0.252,0,0.505,0,0.759c0,0.297-0.021,0.437-0.021,0.756c-0.39-0.067-0.333-0.272-0.449-1.498
		C117.222,80.435,117.085,79.531,117.085,78.984z M96.949,78.648c0-0.228,0.037-0.227,0.04-0.463c0.09,0.1,0.174,0.214,0.265,0.329
		c0.063,0.08,0.223,0.249,0.257,0.345c-0.134,0-0.183-0.04-0.3-0.042C97.124,78.815,96.949,78.801,96.949,78.648z M111.435,80.417
		l-5.298-1.751c-0.361-0.117-0.712-0.247-1.057-0.347c-0.361-0.106-0.702-0.246-1.058-0.347l-1.063-0.376
		c0.005-0.463,0.494-2.063,0.618-2.45c0.131-0.412,0.722-2.217,0.931-2.287c0.053-0.018,0.957,1.012,1.029,1.088l5.029,5.431
		C110.708,79.543,111.38,80.261,111.435,80.417z M123.236,81.638l1.714-3.134c0.059-0.096,0.078-0.15,0.141-0.252l1.665-2.984
		c0.031-0.055,0.04-0.088,0.071-0.143l0.578-1.018c0.293-0.488,0.419-0.461,0.419-0.847c0.166,0.028,0.233,0.353,0.305,0.582
		c0.308,1.001,0.354,1.081,0.656,2.365c0.184,0.783,0.169,0.425,0.4,1.642c0.06,0.31,0.11,0.584,0.164,0.921
		c0.034,0.22,0.128,0.734,0.137,0.973l-3.111,0.957c-0.204,0.062-0.909,0.307-1.056,0.307c0.036-0.104,0.771-0.992,0.845-1.087
		c0.147-0.187,0.278-0.342,0.429-0.53l1.738-2.159c0.184-0.215,0.354-0.319,0.395-0.646c-0.295,0.052-3.548,4.409-3.751,4.54
		c-0.175,0.114-0.628,0.244-0.832,0.316C123.942,81.511,123.45,81.638,123.236,81.638z M120.551,79.785
		c0.096-0.862-0.115-1.248,0.158-1.943l0.944-2.267c-0.023,0.209-0.032,0.455-0.049,0.698c-0.018,0.256-0.031,0.457-0.053,0.688
		c-0.073,0.78-0.209,1.704-0.504,2.223C120.924,79.399,120.723,79.701,120.551,79.785z M117.646,79.701
		c-0.269-1.066-0.476-0.25-0.708-1.921l-0.235-2.075c-0.02-0.206-0.058-0.527-0.058-0.762c0.036,0.056,0.066,0.154,0.105,0.242
		c0.046,0.102,0.057,0.15,0.101,0.253c0.073,0.172,0.129,0.326,0.201,0.503l0.409,0.993c0.146,0.359,0.248,0.695,0.303,1.218
		C117.816,78.672,117.807,79.475,117.646,79.701z M121.052,82.354c0-0.314,0.083-0.958,0.116-1.229
		c0.049-0.41,0.098-0.773,0.144-1.17c0.043-0.373,0.08-0.839,0.143-1.175c0.065-0.35,0.224-0.52,0.369-0.739
		c0.436-0.655,1.167-1.888,1.6-2.575l0.59-0.951c0.545-0.854,1.015-1.805,1.565-2.688c0.069-0.11,0.136-0.206,0.206-0.327
		c0.149-0.258,0.686-1.105,0.857-1.189l0.943,2.015c0.101,0.263,0.218,0.426,0.218,0.891c-0.156,0.027-0.259,0.466-0.372,0.65
		c-0.072,0.119-0.108,0.225-0.174,0.351l-1.871,3.349c-0.384,0.681-1.589,2.743-1.885,3.324l-0.19,0.358
		c-0.299,0.633-0.542,0.588-1.033,0.733c-0.199,0.059-0.41,0.137-0.609,0.196C121.583,82.204,121.083,82.323,121.052,82.354z
		 M103.521,73.174l17.531,9.179L103.521,73.174z M103.38,72.584l0.14,0.59L103.38,72.584z M104.703,72.332
		c0-0.268,0.133-0.428,0.256-0.684c0.296-0.622,0.507-1.081,0.833-1.661c0.143-0.254,0.824-1.4,0.983-1.29l2.737,4.604
		c0.241,0.396,0.669,1.163,0.91,1.5l0.645,0.961c0.11,0.167,0.206,0.325,0.309,0.487l2.582,4.302c0.059,0.1,0.093,0.175,0.151,0.271
		c0.071,0.115,0.248,0.426,0.292,0.564l-0.772-0.187c-0.549-0.168-0.933-0.274-1.471-0.57c-0.103-0.056-0.231-0.143-0.332-0.228
		c-0.281-0.236-2.318-2.516-2.606-2.819l-4.041-4.393C105.036,73.04,104.703,72.707,104.703,72.332z M103.36,70.816l1.343,1.516
		 M103.36,70.816c-0.065,0.52-1.072,2.41-1.102,3.158l0.943-1.977c0.119-0.286,0.387-0.897,0.5-1.055
		c-0.018,0.137-0.11,0.349-0.155,0.475c-0.381,1.077-0.715,1.776-1.176,3.171c-0.108,0.327-0.197,0.649-0.293,0.984
		c-0.171,0.597-0.505,2.014-0.622,2.692c-0.03,0.17-0.091,0.439-0.099,0.636c0.014-0.033,0.01-0.018,0.024-0.074l0.076-0.346
		c0.036-0.153,0.067-0.285,0.106-0.45c0.402-1.693,0.694-2.53,1.204-4.082c0.265-0.808,0.238-0.591,0.448-1.038
		c0.056-0.121,0.101-0.237,0.165-0.327c-0.022,0.175-0.17,0.641-0.22,0.799l-0.241,0.758c-0.041,0.131-0.077,0.243-0.123,0.373
		c-0.33,0.934-0.819,2.533-0.991,3.601c-0.057,0.353-0.086,0.623-0.128,0.996c0.107-0.152,0.526-2.051,0.617-2.366l0.763-2.651
		c0.071-0.2,0.195-0.524,0.283-0.667c0.059-0.093,0.086-0.236,0.181-0.252c-0.063,0.57-0.784,2.729-0.993,3.471
		c-0.177,0.627-0.343,1.461-0.469,2.129c-0.778,4.151-0.902,8.401-0.294,12.702c0.119,0.842,0.315,1.969,0.494,2.709
		c0.483,2.013,0.682,2.716,1.374,4.566l0.995,2.288l0.462,0.882c0.115,0.204,0.21,0.373,0.329,0.573
		c0.422,0.715,0.915,1.469,1.38,2.067c0.127,0.165,0.231,0.3,0.36,0.464c0.291,0.369,0.912,1.072,1.166,1.299l0.825,0.751
		c0.573,0.481,1.143,0.889,1.782,1.267c0.905,0.534,2.026,0.957,3.008,1.131l1.383,0.166l0.882-0.042
		c0.37,0.003,0.755-0.118,1.103-0.167c0.549-0.078,1.649-0.632,2.083-0.632l-1.342,0.588c-0.857,0.299-1.322,0.356-2.165,0.503
		c-0.177,0.031-0.428-0.018-0.601,0.002c-0.078,0.009-0.098,0.042-0.18,0.045l-0.317,0.033c0.263,0.063,1.555,0.028,1.885-0.066
		c0.336-0.096,0.695-0.11,1.163-0.251c0.39-0.118,0.2-0.097,0.615-0.097v0.042c-0.111,0-0.24,0.091-0.358,0.131
		c-0.115,0.04-0.229,0.087-0.357,0.133l-1.929,0.368c-0.132,0.015-0.257,0.083-0.401,0.083c0.214,0.313,2.092-0.208,2.279-0.265
		c0.353-0.107,0.704-0.245,1.059-0.384l1.05-0.445l-0.227,0.198c-0.206,0.163-0.593,0.362-0.807,0.451
		c-0.691,0.288-1.134,0.34-1.797,0.518l-1.878,0.391c0.902,0,0.989,0.002,1.862-0.172c0.183-0.036,0.406-0.104,0.586-0.157
		c0.598-0.179,1.334-0.453,1.932-0.739c0.093-0.045,0.194-0.11,0.289-0.11c-0.173,0.254-0.992,0.606-1.177,0.685
		c-1.152,0.487-2.887,0.832-4.113,0.832v0.042c0.158,0,0.236,0.045,0.38,0.043c0.134-0.001,0.268-0.001,0.401-0.001l0.981-0.084
		c0.788-0.082,1.925-0.567,2.656-0.902c0.138-0.063,1.238-0.652,1.331-0.656c-0.004,0.005-0.011,0.002-0.013,0.016
		c-0.001,0.013-0.01,0.013-0.013,0.015c-0.003,0.004-0.021,0.022-0.026,0.027c-0.027,0.022-0.029,0.023-0.06,0.042l-0.396,0.263
		c-1.048,0.741-2.367,1.193-3.482,1.44c-0.227,0.05-0.421,0.054-0.656,0.094c-2.13,0.358-4.35-0.313-6.189-1.439
		c-1.044-0.639-1.574-1.087-2.564-1.938l-0.917-0.981c-0.198-0.249-0.406-0.43-0.676-0.769c-0.501-0.628-0.987-1.338-1.439-2.112
		c-0.063-0.109-0.119-0.215-0.184-0.33c-0.043-0.078-0.055-0.08-0.099-0.17l-1.296-2.748l-0.466-1.211
		c-0.303-0.768-0.846-2.656-1.078-3.589l-0.429-2.003c-0.464-2.438-0.688-4.65-0.692-7.345c-0.001-0.466,0.031-0.905,0.04-1.347
		c0.038-1.844,0.422-4.777,0.724-6.522l0.416-2.074c0.122-0.631,0.445-1.772,0.621-2.36c0.357-1.2,0.926-2.627,1.469-3.48
		c0.06-0.094,0.146-0.26,0.218-0.301c-0.047,0.187-0.105,0.337-0.16,0.504l-0.548,1.462c-0.37,0.96-0.823,2.208-1.127,3.272
		c-0.032,0.112-0.048,0.182-0.08,0.295c-0.197,0.699-0.401,1.65-0.498,2.448c-0.031,0.254-0.045,0.491-0.073,0.734
		c0.043-0.066,0.05-0.144,0.073-0.27c0.25-1.437,0.728-3.263,1.122-4.505c0.234-0.737,0.469-1.41,0.735-2.076l0.199-0.465
		C102.888,71.665,103.096,71.188,103.36,70.816 M99.313,70.143c0.021-0.187,0.076-0.288,0.141-0.379
		c0.076,0.043,0.382,0.682,0.421,0.8C99.729,70.538,99.391,70.389,99.313,70.143z M121.513,78.185l0.179-1.857
		c0.059-0.614,0.137-1.191,0.291-1.621c0.069-0.193,0.17-0.388,0.246-0.578l0.492-1.197c0.055-0.118,0.07-0.183,0.12-0.295
		c0.292-0.655,0.584-1.439,0.872-2.084c0.05-0.112,0.064-0.177,0.121-0.294l0.25-0.611c0.053-0.12,0.071-0.167,0.122-0.292
		c0.171-0.426,0.333-0.778,0.495-1.234c0.29-0.819,0.393-0.425,0.695,0.055c0.212,0.335,0.297,0.419,0.533,0.817l0.347,0.621
		c0.044,0.074,0.144,0.242,0.169,0.319c-0.066,0.578-0.925,1.6-1.188,2.136l-0.759,1.311c-0.055,0.088-0.105,0.162-0.16,0.252
		l-2.026,3.278C122.078,77.271,121.73,77.879,121.513,78.185z M109.332,65.511c0.042,0,0.464,0.835,0.525,0.958l0.542,0.968
		c0.317,0.618,1.001,1.697,1.361,2.36l4.119,7.093c0.185,0.316,0.352,0.633,0.545,0.917c0.389,0.57,0.461,0.967,0.569,1.963
		l0.191,1.704c0.017,0.176,0.057,0.775,0.082,0.882c-0.252,0-1.348-0.438-1.68-0.554c-0.99-0.347-0.728-0.101-1.382-1.221
		l-1.089-1.836c-0.697-1.198-1.483-2.495-2.203-3.625c-0.065-0.104-0.115-0.192-0.18-0.295c-0.643-1.009-1.41-2.267-1.996-3.341
		c-0.059-0.106-0.113-0.2-0.176-0.304c-0.434-0.711-0.84-1.47-1.299-2.112c-0.428-0.598-0.615-0.45-0.088-1.188
		c0.521-0.729,0.585-0.901,1.218-1.566C108.547,66.146,109.149,65.511,109.332,65.511z M121.934,74.353
		c0.28-2.528,0.567-5.408,0.866-7.909c0.021-0.172,0.038-0.381,0.065-0.58c0.022-0.168,0.065-0.404,0.071-0.565
		c0.285,0.139,1.167,1.094,1.455,1.449c0.131,0.162,0.333,0.418,0.408,0.657c-0.016,0.125-0.095,0.28-0.162,0.458l-2.592,6.302
		C122.015,74.235,121.967,74.307,121.934,74.353z M100.696,67.742c-0.098-0.048-0.177-0.126-0.301-0.126
		c0.076-0.301,0.189-0.369,0.421-0.379C100.772,67.375,100.715,67.56,100.696,67.742z M112.356,63.7
		c0.019,0.145,0.577,1.556,0.616,1.651l2.275,5.873c0.036,0.09,0.046,0.105,0.083,0.206c0.035,0.094,0.052,0.114,0.086,0.199
		c0.897,2.225,1.079,2.59,1.326,5.678c0.016,0.198,0.042,0.467,0.042,0.668c-0.433-0.609-1.752-2.953-2.287-3.867l-4.16-7.303
		c-0.181-0.369-0.638-1.077-0.746-1.504c0.271-0.382,0.271-0.374,0.612-0.65c0.309-0.25,1.003-0.685,1.388-0.957
		c0.104-0.073,0.241-0.161,0.384-0.166C112.204,63.522,112.226,63.636,112.356,63.7z M126.46,64.374
		c0.103,0.112,0.113,0.115,0.142,0.379l-0.159-0.17C126.465,64.483,126.46,64.53,126.46,64.374z M120.591,63.869
		c0-0.109,0.014-0.043,0.021-0.211c0.552,0,1.386,0.838,1.926,1.257c0.293,0.228,0.257,0.074,0.294,0.694
		c0.018,0.3-0.011,0.2-0.063,0.392c-0.033,0.118-0.09,0.708-0.108,0.866l-0.605,5.213c-0.15,1.255-0.163,2.323-0.495,3.255
		c-0.144,0.405-0.833,2.113-0.967,2.304c0-1.151,0-2.302,0-3.453c0-2.329,0.026-4.581,0.019-6.949c0-0.32,0.021-0.467,0.021-0.799
		v-2.19C120.628,64.055,120.591,63.965,120.591,63.869z M112.356,63.7c0-0.382,0.014-0.41,0.174-0.476
		c0.652-0.265,1.531-0.262,2.207-0.415l0.383-0.078l0.333,2.585c0.146,1.218,0.331,2.77,0.45,3.979
		c0.043,0.44,0.097,0.895,0.141,1.348c0.06,0.622,0.238,2.29,0.238,2.825c-0.436-1.054-1.276-3.275-1.68-4.343
		c-0.618-1.631-1.323-3.353-1.909-4.999C112.494,63.564,112.557,63.901,112.356,63.7z M125.441,63.531
		c0.075-0.685,0.219-0.372,0.239-0.21C125.628,63.347,125.487,63.479,125.441,63.531z M118.027,62.605
		c0.475,0,2.039,0.686,2.445,0.884c0,0.535,0.04,1.17,0.04,1.895v2.231c0,0.302-0.017,0.472-0.02,0.714c-0.008,0.495,0,1.02,0,1.518
		c0,0.542-0.021,0.977-0.02,1.473c0.001,1.046-0.018,1.978-0.021,2.99c0,0.309,0.021,0.439,0.021,0.714
		c0,0.254-0.001,0.508-0.001,0.761c0,0.275,0.021,0.406,0.021,0.713c-0.002,0.838,0.04,1.184-0.2,1.896l-0.879,2.154
		c-0.059,0.155-0.119,0.279-0.204,0.373c-0.085-0.12-0.788-1.95-0.855-2.118c-0.422-1.056-0.41-0.878-0.427-2.052
		c-0.003-0.212-0.02-0.233-0.021-0.46c-0.006-1.183,0.021-2.37,0.021-3.54c0-0.947,0.039-1.965,0.04-2.991
		c0-0.275,0.021-0.405,0.021-0.714c-0.001-0.541,0.006-1.811,0.035-2.243c0.031-0.482-0.017-1.014,0.017-1.48
		C118.069,64.903,118.06,63.146,118.027,62.605z M115.182,62.605c0.265-0.13,0.276-0.21,0.661-0.21c0.426,0,1.252-0.029,1.675,0.102
		c0.081,0.025,0.258,0.066,0.329,0.066l0.021,3.032c0,1.988-0.041,3.84-0.041,5.811c0,0.951,0.03,2.032-0.017,2.912
		c-0.024,0.448,0.018,1.012-0.006,1.461l-0.036,1.438c-0.056-0.078-0.1-0.173-0.146-0.285c-0.238-0.57-0.682-1.807-0.928-2.471
		c-0.298-0.802-0.242-0.648-0.332-1.786c-0.163-2.047-0.461-4.188-0.645-6.185c-0.083-0.916-0.225-2.642-0.415-3.506
		C115.266,62.822,115.225,62.739,115.182,62.605z M117.767,61.384l-0.044-0.034C117.766,61.369,117.743,61.352,117.767,61.384z
		 M117.446,61.3l0.321,0.084L117.446,61.3z M123.176,61.09c0.021-0.196,0.04-0.434,0.04-0.674c0.098,0.049,0.144,0.164,0.24,0.211
		L123.176,61.09z M129.547,94.396c0.005-0.142,0.358-1.674,0.419-2.026c0.131-0.771,0.246-1.365,0.348-2.218
		c0.041-0.36,0.155-1.302,0.155-1.651h-0.021c0,0.673-0.481,3.521-0.66,4.294c-0.04,0.172-0.239,1.115-0.302,1.264
		c0.007-0.152,0.218-1.01,0.27-1.287c0.087-0.459,0.165-0.872,0.24-1.35c0.106-0.671,0.353-2.333,0.353-3.006l-0.021,0
		c0,0.224-0.054,0.621-0.075,0.809c-0.168,1.406-0.353,2.372-0.625,3.655c-0.031,0.146-0.261,1.203-0.321,1.347
		c0.007-0.172,0.248-1.134,0.307-1.419c0.2-0.975,0.655-3.885,0.655-4.939l-0.079,0.762c-0.155,1.641-0.404,2.746-0.685,4.201
		l-0.157,0.637c0.007-0.2,0.104-0.507,0.143-0.71c0.046-0.237,0.102-0.471,0.151-0.733c0.076-0.395,0.208-1.169,0.227-1.631
		l-0.094,0.352c-0.148,0.675-0.206,1.286-0.454,2.33l-0.093,0.351c0.008-0.19,0.086-0.438,0.123-0.625
		c0.152-0.786,0.215-1.188,0.346-2.011c0.462-2.926,0.505-6.718,0.23-9.613c-0.151-1.588-0.423-3.289-0.753-4.734l-0.461-1.767
		c-0.223-0.781-0.458-1.41-0.711-2.128l-1.014-2.375c-0.294-0.614-1.083-1.938-1.413-2.462c-1.271-2.005-2.812-3.592-4.338-4.484
		c-1.007-0.589-1.472-0.798-2.451-1.209c-0.102-0.042-0.277-0.13-0.379-0.13v-0.042c0.822,0,1.125,0.255,1.818,0.558
		c0.649,0.284,1.754,1.062,2.386,1.597c0.06,0.05,0.198,0.192,0.264,0.204l-0.06-0.085c-0.018-0.022-0.042-0.047-0.067-0.07
		c-0.055-0.053-0.086-0.071-0.14-0.126l-0.868-0.703c-1.143-0.793-2.004-1.295-3.247-1.639c-0.039-0.011-0.685-0.142-0.727-0.198
		c0.573,0,2.003,0.523,2.643,0.803c0.062,0.027,0.117,0.069,0.183,0.082c-0.026-0.048-0.007-0.021-0.047-0.07
		c-0.224-0.283-0.886-0.502-1.133-0.606c-0.199-0.084-0.432-0.169-0.628-0.237c-0.12-0.042-0.207-0.077-0.324-0.121
		c-0.102-0.039-0.233-0.103-0.332-0.103v-0.042c0.727,0,2.04,0.597,2.738,1.025c0.15,0.092,0.276,0.16,0.423,0.248l0.425,0.244
		c-0.145-0.266-1.43-0.932-1.583-1.01l-1.277-0.559c-0.104-0.042-0.335-0.158-0.446-0.158v-0.042c1.339,0,3.209,1.542,3.546,1.557
		c-0.021-0.032-0.002-0.008-0.038-0.045c-0.187-0.194-0.641-0.485-0.851-0.614c-0.838-0.51-1.646-0.823-2.509-1.126
		c-0.167-0.059-0.377-0.151-0.55-0.151v-0.042c0.277,0,0.596,0.111,0.86,0.172c0.687,0.16,1.692,0.679,2.326,1.05
		c0.632,0.371,1.464,1,2.077,1.572c0.875,0.819,0.991,1.029,1.709,1.839l1.273,1.786c0.175,0.274,0.771,1.266,0.906,1.55
		c0.05,0.104,0.071,0.157,0.124,0.242l0.707,1.464l0.65,1.622c0.465,1.312,0.651,1.888,1.014,3.301
		c1.327,5.177,1.436,11.165,0.498,16.651c-0.098,0.569-0.405,2.087-0.579,2.659C129.55,94.399,129.566,94.353,129.547,94.396z
		 M117.326,60.29c0.021-0.045,0.076,0.066,0.022,0.022C117.347,60.311,117.292,60.36,117.326,60.29z M116.985,60.247h0.181v0.042
		h-0.181V60.247z M116.724,60.205h0.161v0.042h-0.161V60.205z M122.395,60.247c0-0.224,0.001-0.249,0.02-0.421
		c0.098,0,0.137,0.02,0.2,0.084C122.578,60.017,122.453,60.166,122.395,60.247z M120.632,58.9v-0.421
		c0.058,0.058,0.132,0.092,0.2,0.126L120.632,58.9z M119.67,58.605c0-0.213,0.021-0.359,0.021-0.632
		c0.086,0.015,0.127,0.079,0.22,0.084C119.771,58.311,119.756,58.483,119.67,58.605z M112.217,56.458h0.06v0.085l-0.06,0V56.458z"/>
	<path fill-rule="evenodd" clip-rule="evenodd" fill="#040404" d="M185.168,115.029h-0.261l0.297-0.643
		C185.206,114.621,185.168,114.79,185.168,115.029 M189.334,56.951l0.162,0.078c0.017,0.011,0.034,0.022,0.052,0.035
		c0.394,0.277,0.574,0.298,0.723,0.334l0.224,0.107c0.106,0.088,0.196,0.228,0.338,0.316c0.227,0.142,0.437,0.098,0.669,0.32
		c0.192,0.185,0.42,0.319,0.626,0.41c0.244,0.108,0.196,0.151,0.368,0.363c0.242,0.298,0.545,0.35,0.788,0.616
		c0.115,0.127,0.225,0.276,0.354,0.393c0.137,0.122,0.291,0.116,0.422,0.252c0.064,0.069,0.11,0.151,0.169,0.231
		c0.108,0.145,0.234,0.269,0.333,0.439c0.045,0.077,0.103,0.185,0.143,0.241l0.023-0.167c0.165,0,0.117,0.044,0.219,0.211
		c0.153,0.254,0.394,0.503,0.502,0.842c0.174-0.269,0.019-0.333,0.564,0.583c0.067,0.113,0.081,0.285,0.178,0.301
		c0.031-0.252,0.125-0.093,0.176,0.008c0.051,0.104,0.088,0.189,0.139,0.298c0.19,0.401,0.429,0.476,0.682,1.01
		c0.098,0.208,0.162,0.422,0.313,0.521c0.282,0.187,0.184,0.559,0.621,1.097c0.112,0.139,0.502,1.024,0.534,1.277l0.017-0.048
		c0.002-0.005,0.007-0.016,0.01-0.021c0.032-0.054-0.003-0.019,0.039-0.046c0.03-0.019,0.063-0.011,0.095-0.011
		c0.107,0.973,0.272,0.507,0.36,1.305l0.016-0.05c0.002-0.006,0.006-0.019,0.009-0.025c0.035-0.1,0.053-0.124,0.115-0.135
		c0.06,0.526,0.112,0.633,0.276,0.937c0.047,0.088,0.08,0.124,0.12,0.208c0.06,0.123,0.327,1.079,0.346,1.254h0.14
		c0.098,0.391,0.165,0.902,0.281,1.264c0.123-0.022,0.108-0.19,0.148,0.061c0.07,0.456,0.068,0.628,0.258,0.978
		c0.055,0.101,0.023,0.013,0.061,0.127c0.062,0.191,0.19,1.106,0.214,1.319c0.063-0.031,0.058-0.054,0.119-0.084
		c0.048,0.426,0.144,0.812,0.161,1.263c0.061-0.003,0.073-0.019,0.12-0.042c0,0.246,0.056,0.602,0.085,0.834
		c0.086,0.713-0.006,0.563,0.155,0.472c0.006,0.521,0.056,0.84,0.175,1.232c0.054,0.176,0.086,1.159,0.086,1.421
		c0.146-0.082,0.107-0.249,0.118,0.422c0.01,0.5,0.142,0.834,0.142,1.387l-0.021,0.698c0-0.005,0,0.013,0.002,0.019
		c0.04,0.085,0.117-0.12,0.114,0.147l-0.054,1.285c0.032-0.079,0.048-0.14,0.1-0.169c0,0.544-0.029,0.803,0.01,1.285
		c0.001,0.02,0.002,0.039,0.004,0.058l-0.004,0.399c-0.014,0.224-0.041,0.435-0.018,0.759c0.036,0.505-0.072,0.741-0.052,1.243
		c0.033,0.772-0.042,0.596-0.04,1.181c0.001,0.532-0.007,0.479-0.082,0.881c-0.071,0.372-0.011,0.852-0.09,1.16
		c-0.105,0.417-0.105,0.854-0.161,1.346c-0.04,0.368-0.114,0.614-0.208,0.91c0.075,0.083,0.124,0.099,0.047,0.305
		c-0.058,0.157-0.113,0.342-0.144,0.546c-0.055,0.378-0.063,0.221-0.145,0.454l0.048,0.036c0.036,0.042,0.028,0.037,0.053,0.091
		c-0.027,0.211-0.102,0.375-0.153,0.561c-0.056,0.194-0.111,0.357-0.167,0.534c0.137,0.431-0.017,0.27-0.108,0.658
		c-0.156,0.662-0.122,0.775-0.361,1.472c-0.195,0.567-0.161,0.3-0.112,0.692c-0.03,0.042-0.215,0.47-0.241,0.546
		c-0.08,0.235-0.084,0.441-0.151,0.69c-0.048,0.171-0.158,0.356-0.225,0.538c-0.07,0.186-0.163,0.351-0.225,0.542
		c0.093,0.052,0.04,0.03,0.081,0.21c-0.056,0.077-0.108,0.125-0.164,0.203c-0.108,0.153-0.135,0.395-0.236,0.557l-0.142,0.209h0.062
		c0.014,0.13,0.024,0.121,0.04,0.252c-0.192,0.108-0.326,0.457-0.422,0.798c-0.179,0.627-0.105,0.331-0.386,0.831
		c-0.477,0.847-0.069,0.408-0.348,0.869c-0.243,0.401-0.263,0.371-0.468,0.66c0.016,0.148,0.02,0.139,0.02,0.337
		c-0.15,0.168-0.225,0.174-0.356,0.431c-0.047,0.094-0.095,0.194-0.14,0.295c-0.054,0.118-0.07,0.196-0.13,0.317
		c-0.086,0.178-0.22,0.338-0.329,0.489c-0.055,0.079-0.117,0.178-0.169,0.234c-0.039,0.042-0.156,0.149-0.198,0.17l0.08,0.042
		c0,0.277,0.006,0.18-0.28,0.505c-0.047,0.052-0.346,0.32-0.337,0.409l0.004,0.06c-0.002,0.125-0.055,0.202-0.133,0.319
		c-0.077,0.116-0.184,0.139-0.27,0.236c-0.088,0.099-0.148,0.206-0.239,0.297c-0.029,0.029-0.128,0.103-0.141,0.126
		c-0.06,0.116,0.002-0.022,0.013,0.238c-0.133,0.147-0.285,0.237-0.421,0.378c-0.238,0.25-0.258,0.396-0.338,0.552l-0.864,0.67
		c0.02,0.154,0.021,0.088,0.06,0.211c-0.126,0.179-0.183,0.175-0.349,0.276c-0.296,0.18-0.422,0.499-0.627,0.663
		c-0.165,0.132-0.308,0.161-0.522,0.374c-0.05,0.05-0.097,0.117-0.151,0.186c-0.229,0.288-0.813,0.607-1.054,0.607
		c0.035,0.276,0.068,0.046,0.1,0.295c-0.102,0.004-0.137,0.074-0.241,0.083c-0.476,0.042-0.528,0.362-0.849,0.55l-0.034,0.019
		c-0.056,0.029-0.119,0.055-0.192,0.075c-0.394,0.106-0.517,0.305-0.743,0.448l-0.095,0.054c-0.007,0.004-0.014,0.007-0.021,0.011
		c-0.131,0.059-0.127-0.031-0.241-0.004c-0.25,0.06-0.389,0.205-0.619,0.381c-0.127,0.095-0.334,0.076-0.485,0.121
		c-0.136,0.04-0.317,0.132-0.458,0.217c-0.459,0.276-0.417-0.131-0.979,0.174c-0.573,0.314-0.451,0.01-0.988,0.155
		c-0.497,0.134-0.148,0.3-0.951,0.122c-0.462-0.102-0.166-0.033-0.456-0.174c-0.13,0.512-0.193,0.39-0.378,0.286
		c-0.33-0.185-0.566-0.076-0.806-0.412c-0.022,0.205-0.073,0.443-0.195,0.412c-0.101-0.026-0.058-0.196-0.629-0.323
		c-0.255-0.057-0.157-0.147-0.277-0.215l-0.023,0.034c-0.052,0.092-0.03,0.092-0.072,0.188c-0.179,0.411-0.257-0.267-1.106-0.264
		c-0.444,0.001-0.597-0.177-0.956-0.475c-0.108-0.089-0.163-0.189-0.266-0.241c-0.113,0.158-0.108,0.373-0.27,0.233
		c-0.418-0.36-0.152-0.491-0.973-0.615c-0.259-0.039-0.389-0.279-0.615-0.517c-0.128-0.134-0.457-0.521-0.567-0.576
		c-0.007,0.167-0.009,0.137-0.061,0.211c0.043,0.272-0.003-0.146,0.04,0.126c-0.107,0-0.153,0.051-0.221,0.126
		c-0.03-0.096-0.046-0.14-0.071-0.271c-0.098-0.508-0.089-0.29-0.347-0.494c-0.571-0.45-0.171-0.343-0.463-0.668
		c0.007,0.172,0.048,0.354-0.261,0.505c-0.133-0.418-0.163-0.691-0.415-0.897c-0.207-0.17-0.437-0.195-0.634-0.393
		c-0.273-0.277-0.575-0.907-0.799-1.352c-0.041-0.082-0.072-0.117-0.115-0.179c0,0.258,0.012,0.362-0.281,0.506
		c-0.133-0.53-0.491-1.627-0.781-1.769l-0.119,0.211c-0.047,0.052-0.091,0.081-0.162,0.084c-0.006-0.177-0.086-0.473-0.13-0.608
		c-0.06-0.185-0.127-0.316-0.213-0.438c-0.184-0.26-0.371-0.332-0.55-0.614c-0.362-0.571-0.542-1.698-0.729-1.962l-0.049,0.193
		c-0.002,0.007-0.004,0.019-0.008,0.025c-0.04,0.116-0.119,0.142-0.225,0.16c-0.123-0.498-0.002-0.372-0.239-1.011
		c-0.145-0.388-0.145-0.282-0.217-0.686c-0.015-0.083-0.02-0.065-0.02-0.158c-0.002-0.236-0.011-0.039,0.016-0.125
		c-0.021-0.038-0.038-0.079-0.075-0.104c-0.122-0.08-0.065,0.222-0.065,0.441c-0.109-0.019-0.237-0.243-0.291-0.441
		c-0.056-0.206-0.082-0.498-0.136-0.725c-0.065-0.276-0.121-0.369-0.172-0.692c-0.038-0.24-0.053-0.564-0.183-0.627
		c-0.12,0.17-0.021,0.302-0.221,0.337c-0.018-0.137-0.036-0.129-0.063-0.288c-0.049-0.288-0.065-0.681-0.137-0.938
		c-0.225-0.81-0.45-0.672-0.507-0.956l-0.235-2.283c-0.063,0.012-0.25,0.159-0.303,0.211c-0.182-0.575,0.047-0.967-0.238-1.811
		c-0.263-0.774-0.221-0.705-0.287-1.671c-0.076-1.098-0.219-0.788-0.263-1.173c-0.079-0.669,0.009-1.934,0.009-2.67
		c-0.096,0.105-0.257,0.328-0.36,0.378c0-0.936,0.122-1.605-0.046-2.471c-0.019-0.094-0.031-0.18-0.035-0.263v-0.225
		c0.014-0.222,0.06-0.42,0.086-0.652c0.118-1.067-0.242-1.384,0.031-2.25c0.105-0.337,0.115-0.645,0.083-1.127
		c-0.037-0.564-0.13-0.496-0.007-1.069c0.25-1.15,0.07-1.975,0.225-2.351c0.139-0.339,0.15-0.093,0.271-0.818
		c0.1-0.598,0.052-0.93,0.1-1.18c0.068-0.356,0.154-0.57,0.245-0.875c0.099-0.336,0.134-0.58,0.19-0.989
		c0.052-0.372,0.087-0.715,0.158-1.057c0.227-1.067,0.568-1.125,0.661-1.39c-0.166-0.029-0.285-0.107-0.321-0.421
		c0.119-0.066,0.293-0.451,0.377-0.642c0.2-0.456,0.313-0.795,0.646-0.958c-0.04-0.375-0.062-0.093-0.189-0.188
		c-0.064-0.048-0.125-0.237-0.132-0.401c0.087-0.042,0.204-0.204,0.278-0.303c0.213-0.286,0.488-1.034,0.726-1.045
		c0-0.362-0.002-0.18-0.111-0.229c-0.073-0.034-0.094-0.136-0.11-0.276c0.103-0.321,0.391-0.514,0.536-0.771
		c0.119-0.212,0.208-0.505,0.287-0.786c0.18-0.639,0.342-0.617,0.612-1.031c0.122-0.188,0.463-0.534,0.528-0.74
		c-0.018-0.165-0.043-0.251-0.12-0.294v-0.127l0.642-0.59c0.021-0.027,0.112-0.179,0.134-0.223c0.111-0.232,0.158-0.605,0.283-0.794
		c0.114-0.17,0.803-0.745,0.948-0.87l0.238-0.216c0.033-0.036,0.035-0.04,0.061-0.085c-0.21,0-0.223-0.112-0.262-0.463
		c0.762,0,0.514-0.386,1.018-0.641c0.105-0.053,0.233-0.045,0.338-0.131c0.005-0.003,0.012-0.001,0.014-0.014
		c0.003-0.012,0.01-0.009,0.014-0.014c-0.178,0-0.268-0.128-0.28-0.462c0.172-0.031,0.546-0.145,0.676-0.266
		c0.204-0.194,0.558-0.927,0.727-0.956c0.168-0.027,0.196-0.012,0.341-0.084c0.179-0.09,0.461-0.264,0.641-0.295
		c0-0.778,0.088-0.471,0.913-0.817c0.071-0.029,0.114-0.046,0.185-0.077c0.046-0.021,0.105-0.063,0.165-0.074
		c-0.005-0.328-0.066-0.129-0.08-0.463c0.571,0,0.676,0.063,1.192-0.526c0.088-0.1,0.053-0.049,0.166-0.072
		c0.047-0.01,0.095-0.024,0.161-0.042c0.459-0.117,0.503-0.203,1.005-0.203c-0.039-0.112-0.033-0.053-0.077-0.175
		c-0.029-0.081-0.038-0.118-0.043-0.247c0.17,0.008,0.395,0.095,0.659,0.038c0.435-0.096,0.273-0.441,1.165-0.418
		c0.12,0.003,0.18,0.046,0.32,0.044c0.138-0.002,0.214,0.023,0.32,0.042c-0.038-0.151-0.072-0.157-0.08-0.337
		c0.12,0,0.235-0.011,0.35,0.024c0.619,0.188,0.718-0.155,0.874-0.193c0.079-0.019,0.227,0.038,0.311,0.061l0.609,0.154
		c0.087,0.018,0.214,0.077,0.302,0.08c-0.045-0.129-0.081-0.169-0.1-0.337c0.338,0,0.54,0.305,0.913,0.194
		c0.188-0.056,0.211-0.13,0.424-0.056c0.126,0.044,0.268,0.151,0.408,0.193c0.219,0.065,0.248,0.048,0.443-0.027
		c0.197-0.075,0.791,0.354,1.025,0.479c0.076,0.04,0.119,0.089,0.191,0.102l-0.046-0.074c-0.063-0.097-0.077-0.143-0.095-0.306
		c0.116,0.021,0.332,0.164,0.449,0.238C188.948,56.887,189.135,56.879,189.334,56.951z M185.99,114.86
		c0.024-0.078,0.247-0.585,0.28-0.632c0,0.147-0.008,0.424-0.039,0.51C186.199,114.832,186.072,114.86,185.99,114.86z
		 M182.643,115.029l0.292-0.607c0.049-0.081,0.063-0.126,0.109-0.193c-0.075,0.671-0.089,0.701-0.225,0.749
		C182.75,115.001,182.705,115.026,182.643,115.029z M181.502,114.777v-0.084c0.062-0.034,0.322-0.48,0.4-0.59
		c-0.007,0.143-0.07,0.499-0.104,0.581C181.714,114.885,181.633,114.777,181.502,114.777z M188.313,113.809
		c0,0.211,0.003,0.218,0.021,0.378c-0.105,0-0.112,0.038-0.2,0.042C188.156,114.053,188.25,113.898,188.313,113.809z
		 M179.858,114.06h0.321c-0.012,0.104-0.014,0.082-0.025,0.196c-0.004,0.037-0.005,0.05-0.009,0.079
		c-0.003,0.032,0,0.033-0.005,0.062C179.968,114.397,179.946,114.333,179.858,114.06z M189.115,113.809l-9.257,0.251
		L189.115,113.809z M188.313,113.809h0.802H188.313z M189.115,113.809c0.047-0.183,0.141-0.57,0.201-0.716v0.589
		C189.268,113.729,189.18,113.797,189.115,113.809z M176.693,113.007l12.422,0.801L176.693,113.007z M190.237,109.597l0.039-0.049
		 M190.699,109.555c0.026-0.042-0.042-0.042,0.06-0.042C190.734,109.551,190.782,109.541,190.699,109.555z M190.798,109.471
		c0.002-0.004,0.006,0.007,0.006,0.013C190.804,109.482,190.797,109.475,190.798,109.471z M190.297,109.176
		c0.003-0.003,0.006,0.007,0.006,0.012L190.297,109.176z M191.099,93.596c0.091,0.051,0.188,0.333,0.255,0.474
		c0.046,0.094,0.076,0.149,0.117,0.26l0.344,0.835c0.051,0.109,0.065,0.168,0.111,0.273c0.053,0.119,0.076,0.165,0.115,0.306
		c0.283,1.042,0.621,5.451,0.739,6.698c0.084,0.879,0.231,2.532,0.402,3.28l-0.406,0.409c-0.621,0.564-0.913,0.755-1.549,1.208
		c-0.304,0.215-0.229,0.076-0.229-1.196c0-0.848,0.021-1.638,0.021-2.527c-0.001-0.463,0.02-0.794,0.02-1.221
		c-0.001-0.42,0-0.842,0-1.263c0-0.467,0.02-0.771,0.02-1.222c0-0.435,0-0.87,0-1.304c0-0.451,0.021-0.755,0.021-1.222
		c0-0.421,0.001-0.842-0.001-1.264c-0.001-0.271,0.019-0.363,0.021-0.588V93.596z M185.709,109.092c0-0.303,0.06-0.772,0.089-1.077
		l0.316-3.208c0.128-1.255,0.636-5.891,0.865-7.15c0.072-0.397,0.094-0.556,0.217-0.851l1.117-2.788c0,1.74,0,3.481,0,5.221
		c0,1.643,0.043,3.634-0.018,5.181c-0.016,0.379-0.002,0.91-0.002,1.303c0.002,0.424-0.021,0.79-0.02,1.264
		c0.002,0.499-0.064,0.721,0.022,1.173c0.029,0.145,0.045,0.302-0.004,0.465c-0.039,0.128-0.008,0.073-0.109,0.109l-0.693,0.183
		c-0.095,0.022-0.202-0.005-0.298,0.005c-0.104,0.012-0.169,0.043-0.301,0.042c-0.199,0-0.703,0.001-0.895,0.06
		C185.923,109.048,185.771,109.088,185.709,109.092z M199.474,101.134l-29.834,2.399L199.474,101.134z M185.45,109.007
		c-0.646,0-1.991-0.237-2.625-0.547c0-0.264-0.022-0.308,0.042-0.457c0.276-0.623,0.104-0.157,0.396-0.939l2.956-7.682
		c0.046-0.123,0.081-0.194,0.129-0.318c0.041-0.104,0.084-0.216,0.127-0.319l0.256-0.643l-1.201,10.612
		C185.515,108.856,185.52,109.007,185.45,109.007z M192.381,96.502c0.603,1.456,1.277,3.186,1.878,4.687
		c0.208,0.521,0.565,1.468,0.771,1.916c0.051,0.111,0.04,0.13,0.136,0.134c-0.197,0.618-0.773,1.155-1.104,1.556
		c-0.256,0.314-0.541,0.559-0.759,0.802c-0.177-0.7-0.086-0.123-0.155-1.022c-0.118-1.519-0.432-4.068-0.598-5.648
		c-0.044-0.409-0.071-0.752-0.11-1.158C192.399,97.339,192.381,97.034,192.381,96.502z M200.716,96.67
		c0.028-0.248-0.006-0.289,0.121-0.294C200.818,96.54,200.793,96.627,200.716,96.67z M190.899,107.323
		c0,0.057-0.008,0.089-0.017,0.132c-0.062,0.262-0.871,0.626-0.985,0.626c-0.161,0-0.128,0.023-0.261-0.043l0.04-1.684
		c0.012-0.495,0.084-0.373-0.08-0.884c-0.067,0.012-0.198,0.052-0.261,0.084l-0.021,1.559c0.002,0.201,0.045,0.69,0.02,0.964
		c-0.017,0.192-0.026,0.055-0.098,0.34c-0.12,0-0.287,0.074-0.386,0.115c-0.122,0.05-0.276,0.116-0.396,0.137
		c-0.019-0.164-0.061-0.379-0.061-0.547v-6.274c0-0.726,0.02-1.327,0.02-2.021c0-0.688,0.001-1.375,0-2.063l0.022-2.015
		c0.016-0.304,0.006-0.638,0.02-0.973c0.011-0.281,0.029-0.687,0.038-0.973c0.015-0.48,0.021-0.435,0.135-0.728l0.661-1.727
		c0.079-0.207,0.143-0.382,0.223-0.586c0.038-0.099,0.07-0.183,0.107-0.279c0.045-0.121,0.059-0.214,0.139-0.258
		c0.024,0.199,0.113,0.28,0.171,0.438l0.914,2.119c0.221,0.517,0.114,2.9,0.116,3.591c0.001,0.299-0.021,0.436-0.021,0.756
		c0.003,1.199-0.04,2.716-0.04,3.917l-0.019,3.958c0.001,0.299-0.021,0.436-0.021,0.757c0,0.266,0,0.534,0,0.8
		C190.859,107.237,190.899,107.218,190.899,107.323z M199.976,94.564l0.005,0.013C199.981,94.577,199.973,94.569,199.976,94.564z
		 M201.038,94.523c0.269,0.047,0.18,0.192,0.159,0.378c-0.063-0.036-0.051-0.054-0.084-0.158
		C201.081,94.646,201.064,94.605,201.038,94.523z M200.015,94.48l1.021,0.042L200.015,94.48z M199.875,94.48h0.14H199.875z
		 M199.734,94.48h0.142H199.734z M200.036,94.396l-0.021,0.084 M199.894,94.396l-0.019,0.084 M199.754,94.396l-0.021,0.084
		 M199.915,94.312l-0.021,0.084 M199.775,94.312l-0.02,0.084 M199.935,94.228l-0.021,0.084 M199.794,94.228l-0.02,0.084
		 M199.634,94.269c0.002-0.004,0.007,0.007,0.007,0.013L199.634,94.269z M199.956,94.144l-0.021,0.084 M199.655,94.186l0.006,0.013
		C199.661,94.198,199.653,94.19,199.655,94.186z M199.514,94.186c0.002-0.005,0.006,0.006,0.006,0.013
		C199.52,94.198,199.512,94.19,199.514,94.186z M199.976,94.06l-0.021,0.084 M199.675,94.102l0.005,0.012
		C199.68,94.113,199.672,94.106,199.675,94.102z M199.535,94.102l0.006,0.012C199.541,94.113,199.532,94.106,199.535,94.102z
		 M199.715,93.976l-0.012,0.09 M199.554,94.017c0.003-0.004,0.006,0.007,0.006,0.013L199.554,94.017z M199.734,93.891l-0.019,0.084
		 M199.575,93.933c0.002-0.004,0.005,0.006,0.006,0.013C199.58,93.945,199.573,93.938,199.575,93.933z M199.593,93.849l0.006,0.012
		C199.599,93.86,199.593,93.854,199.593,93.849z M199.634,93.765l-0.04,0.084L199.634,93.765z M199.655,93.68l-0.021,0.084
		 M199.675,93.596l-0.021,0.084 M182.665,108.334c-0.221,0-1.141-0.518-1.386-0.669c-0.258-0.16-0.709-0.441-0.945-0.665
		l-0.293-0.309c0.017-0.154,0.031-0.138,0.091-0.229l1.887-3.571l3.437-6.04c0.157-0.279,0.308-0.516,0.461-0.802l0.46-0.801
		c0.145-0.264,0.283-0.595,0.421-0.884c0.075-0.155,0.135-0.303,0.216-0.433c0.085-0.136,0.163-0.227,0.262-0.336
		c-0.194,1.742-0.231,3.113-0.746,4.542c-0.054,0.152-0.104,0.283-0.155,0.427c-0.054,0.143-0.108,0.271-0.164,0.415l-0.494,1.237
		c-0.292,0.689-0.545,1.399-0.819,2.109c-0.207,0.536-0.71,1.943-0.883,2.314c-0.046,0.101-0.051,0.106-0.094,0.223
		c-0.036,0.096-0.052,0.115-0.087,0.196c-0.041,0.092-0.043,0.121-0.082,0.211c-0.174,0.416-0.511,1.241-0.648,1.666
		c-0.053,0.162-0.097,0.271-0.147,0.447c-0.052,0.179-0.088,0.284-0.12,0.504c-0.011,0.067-0.006,0.064-0.02,0.128
		C182.757,108.289,182.697,108.074,182.665,108.334z M199.734,93.891c0.013-0.109,0.02-0.127,0.041-0.212
		c0.005-0.024,0.018-0.08,0.027-0.11c0.023-0.084,0.01-0.042,0.033-0.099C199.829,93.641,199.786,93.813,199.734,93.891z
		 M199.695,93.512l-0.02,0.084 M199.715,93.428l-0.021,0.084 M187.112,96.586c0-0.431,0.223-2.532,0.32-3.032
		c0.176-0.887,0.519-1.385,0.902-1.811c0,0.498,0.032,1.419-0.045,1.757c-0.038,0.162-0.146,0.371-0.199,0.511
		c-0.067,0.174-0.131,0.338-0.195,0.518l-0.756,1.988C187.112,96.592,187.128,96.545,187.112,96.586z M191.981,92.627l0.276,0.516
		c0.184,0.346,1.229,1.984,1.508,2.431c0.199,0.321,0.388,0.659,0.596,0.981c0.554,0.867,1.223,2.03,1.788,2.936
		c0.101,0.162,0.203,0.319,0.304,0.496c0.097,0.166,0.208,0.352,0.316,0.472c0,0.199,0.004,0.188,0.02,0.337
		c-0.122,0.06-0.355,0.546-0.465,0.748l-0.278,0.467c-0.062,0.103-0.112,0.203-0.175,0.306c-0.065,0.112-0.121,0.199-0.191,0.313
		c-0.117,0.191-0.278,0.448-0.433,0.523l-0.229-0.572c-0.073-0.203-0.167-0.375-0.243-0.583c-0.281-0.76-0.919-2.155-1.198-2.912
		l-0.839-2.028c-0.051-0.112-0.068-0.18-0.12-0.295l-0.239-0.593C192.236,95.724,191.981,93.443,191.981,92.627z M187.573,92.627
		h4.408H187.573z M191.138,91.281c0.212,0.296,0.438,0.6,0.595,1.027c0.051,0.141,0.089,0.327,0.112,0.521l0.128,1.247
		c0.042,0.389,0.108,0.856,0.108,1.289c-0.069-0.099-0.129-0.239-0.181-0.379c-0.06-0.165-0.119-0.255-0.185-0.411
		c-0.039-0.09-0.041-0.119-0.08-0.21l-0.268-0.66C190.973,92.646,191.098,92.348,191.138,91.281z M175.111,99.66
		c-0.149-0.073-0.435-0.661-0.537-0.894c-0.32-0.729-1.054-3.074-1.127-3.738c0.264-0.267,0.688-0.368,1.021-0.508l3.205-1.305
		c0.351-0.147,0.698-0.275,1.06-0.428l3.21-1.295c-0.048,0.138-2.256,2.625-2.578,3.003l-1.736,1.995
		c-0.31,0.322-0.745,0.876-1.075,1.234c-0.291,0.316-0.572,0.701-0.875,0.983C175.31,99.05,175.132,99.074,175.111,99.66z
		 M181.962,91.449l0.006,0.013C181.968,91.46,181.96,91.453,181.962,91.449z M187.573,92.627l-5.61-1.178L187.573,92.627z
		 M175.111,99.702c0.182-0.09,1.267-1.419,1.616-1.782l1.598-1.864c0.103-0.129,0.192-0.218,0.299-0.34
		c0.196-0.232,0.386-0.456,0.575-0.686l0.864-1.004c0.101-0.129,0.195-0.226,0.295-0.347l1.299-1.527
		c0.055-0.066,0.089-0.095,0.142-0.164l0.298-0.342c0.655-0.695,1.416-0.927,2.143-1.183c0.161-0.057,0.657-0.235,0.79-0.235
		l-7.622,12.909c-0.079,0.124-0.073,0.187-0.169,0.235c-0.046,0.023-0.188,0.092-0.233,0.057c-0.034-0.026-0.126-0.208-0.156-0.264
		l-0.631-1.033c-0.22-0.346-0.409-0.686-0.619-1.054C175.391,100.715,175.173,100.269,175.111,99.702z M191.138,88.501
		c0.376,0.183,0.275-0.011,0.409,1.414c0.063,0.662,0.122,1.284,0.192,1.912C190.935,91.015,191.138,90.675,191.138,88.501z
		 M188.474,92.964c0-1.863-0.105-1.362,0.675-2.75c0.035-0.062,0.048-0.102,0.083-0.161c0.084-0.145,0.23-0.399,0.323-0.415
		c0.044,0.34,0.145,0.168-0.055,0.729C189.378,90.715,188.598,92.789,188.474,92.964z M189.857,89.891
		c0.058-0.18,0.071-0.297,0.16-0.421c0.059,0.033,0.095,0.096,0.135,0.178c0.138,0.277,0.484,0.801,0.648,1.079
		c0.223,0.37,0.198,0.376,0.198,0.932c0,0.383-0.02,0.593-0.02,0.969c-0.081-0.114-0.081-0.182-0.145-0.326
		c-0.057-0.127-0.084-0.214-0.141-0.337l-0.691-1.705C189.958,90.16,189.89,89.996,189.857,89.891z M195.907,89.849l2.002,0.382
		c0.316,0.052,0.665,0.16,0.983,0.206l1.002,0.212c-0.009,0.812-0.576,3.027-0.602,3.242l-0.213-0.224
		c-0.077-0.09-0.139-0.167-0.216-0.263c-0.146-0.183-0.274-0.323-0.421-0.505c-0.285-0.355-0.558-0.649-0.844-1.004l-1.48-1.775
		c-0.042-0.052-0.06-0.066-0.104-0.119c-0.018-0.022-0.035-0.046-0.049-0.064l-0.024-0.033
		C195.902,89.845,195.931,89.891,195.907,89.849z M201.854,89.479c0.087-0.01,0.165-0.062,0.165,0.117v0.042
		c0,0.161,0.006,0.015-0.02,0.127L201.854,89.479z M188.495,90.986c0-0.773-0.021-1.407-0.021-2.19
		c0.199-0.097,0.44-0.159,0.601-0.336c0.146,0.457,0.268,0.738,0.341,0.969c-0.08,0.112-0.146,0.244-0.223,0.374
		c-0.082,0.136-0.147,0.254-0.231,0.397c-0.084,0.142-0.147,0.256-0.231,0.398C188.645,90.742,188.583,90.861,188.495,90.986z
		 M189.757,89.68c-0.052-0.094-0.076-0.113-0.121-0.252c0.061-0.236,0.082-0.269,0.222-0.337
		C189.868,89.182,189.984,89.361,189.757,89.68z M193.804,89.175c0.172,0,0.662,0.142,0.882,0.167
		c0.299,0.034,0.591,0.101,0.813,0.313l3.695,4.488c-0.025,0.662-0.845,2.854-0.861,2.99c-0.245-0.011-0.442-0.625-0.598-0.891
		l-0.452-0.691c-0.065-0.101-0.08-0.155-0.142-0.253l-2.51-4.578c-0.097-0.173-0.176-0.345-0.278-0.511L193.804,89.175z
		 M179.758,106.481c-0.217,0-1.44-1.32-1.811-1.792c-0.099-0.126-0.183-0.22-0.277-0.346c-0.104-0.136-0.153-0.303-0.316-0.303
		c0.151-0.602-0.005-0.134,0.226-0.663c0.329-0.752,1.081-1.966,1.489-2.639c0.107-0.18,0.188-0.332,0.298-0.512
		c1.199-1.979,2.433-4.157,3.635-6.171l2.117-3.634c0.369-0.54,1.262-0.774,1.74-0.975l0.936-0.354
		c-0.011,0.222-0.071,0.638-0.098,0.85c-0.035,0.292-0.06,0.549-0.095,0.851c-0.067,0.563-0.206,2.083-0.355,2.457l-0.688,1.25
		c-0.06,0.096-0.078,0.164-0.137,0.26l-0.553,0.986c-0.049,0.082-0.076,0.136-0.132,0.228c-0.051,0.085-0.092,0.158-0.143,0.248
		l-2.914,5.118c-0.047,0.079-0.095,0.165-0.142,0.25l-0.554,0.984c-0.381,0.646-0.736,1.295-1.111,1.959l-0.558,0.976
		C180.258,105.605,179.773,106.481,179.758,106.481z M190.999,90.607c-0.252-0.281-0.227-0.253-0.453-0.607
		c-0.06-0.094-0.389-0.64-0.389-0.739c0-0.218,0.197-0.739,0.265-0.834c0.098-0.138,0.456,0.076,0.598,0.076
		C191.019,89.203,190.999,89.861,190.999,90.607z M189.316,88.754c0.025-0.112,0.018-0.044,0.02-0.21
		c0.124,0,0.225-0.006,0.321,0.294c-0.019,0.161-0.043,0.177-0.061,0.338C189.478,89.117,189.416,89.064,189.316,88.754z
		 M191.559,88.627l0.596,0.14c0.279,0.079,1.33,0.241,1.489,0.45c0.041,0.055,0.047,0.085,0.085,0.156l0.811,1.498
		c0.041,0.084,0.049,0.083,0.089,0.151c0.039,0.066,0.055,0.116,0.093,0.185c0.04,0.076,0.049,0.074,0.09,0.148
		c0.036,0.069,0.053,0.119,0.092,0.185l1.076,1.99c0.122,0.198,0.229,0.473,0.356,0.681c0.135,0.219,0.242,0.424,0.38,0.638
		c0.561,0.879,0.466,0.652,1.02,1.728c0.106,0.208,0.335,0.578,0.437,0.895c-0.019,0.147-0.342,0.981-0.409,1.162l-0.298,0.723
		c-0.159,0.331-0.331,0.719-0.515,0.979c-0.025-0.038-0.032-0.063-0.043-0.08c-0.104-0.177-0.232-0.147-0.393-0.438
		c-0.356-0.645-0.591-1.003-0.94-1.601l-0.954-1.574c-0.067-0.116-0.126-0.202-0.192-0.314s-0.121-0.198-0.191-0.313l-0.775-1.275
		c-0.349-0.546-0.838-1.421-1.16-1.9c-0.405-0.601-0.382-0.591-0.506-1.801C191.718,90.274,191.611,89.461,191.559,88.627z
		 M188.034,88.711l3.525-0.084L188.034,88.711z M173.227,94.48c-0.066-0.268-0.74-4.87-0.741-5.053c0.163,0,0.295-0.06,0.449-0.108
		c0.14-0.043,0.566-0.207,0.67-0.142c0.084,0.051,0.11,0.062,0.217,0.095c0.457,0.142,0.701,0.024,1.11,0.03l4.426-0.422
		c0.761,0.001,1.781-0.169,2.545-0.168c0.772,0.001,1.783-0.168,2.565-0.168c-0.093,0.169-0.429,0.517-0.545,0.666
		c-0.095,0.12-0.184,0.215-0.283,0.331l-0.847,1c-0.219,0.275-0.362,0.371-0.627,0.535c-0.513,0.317-2.346,0.934-2.96,1.191
		c-1.464,0.615-2.939,1.272-4.416,1.793l-1.161,0.338C173.519,94.418,173.324,94.433,173.227,94.48z M185.628,89.68
		c0.401-1.258,0.895-1.353,1.583-1.347c0.289,0.002,0.438-0.123,0.662,0.126c-0.053,0.471-0.21,0.448-0.45,0.529l-1.185,0.457
		C186.036,89.53,185.822,89.586,185.628,89.68z M182.945,90.733c0.114-0.21,1.179-1.424,1.342-1.6
		c0.787-0.855,0.688-0.62,1.523-0.673c0.104-0.006,0.137-0.043,0.26-0.043c-0.427,1.338-1.479,1.813-2.204,2.019L182.945,90.733z
		 M188.034,88.711v-0.379c0.118-0.006,0.171-0.084,0.32-0.084c-0.026,0.118-0.042,0.233-0.02,0.336
		C188.225,88.605,188.149,88.707,188.034,88.711z M201.979,88.207h0.14v0.252C202.068,88.387,202.025,88.292,201.979,88.207z
		 M190.938,87.743c0.032,0.179,0.081,0.134,0.081,0.504c-0.069-0.07-0.286-0.122-0.382-0.167
		C190.729,87.819,190.834,87.891,190.938,87.743z M191.479,87.786l1.304-0.126c0.07,0.28,0.114,0.37,0.234,0.56
		c0.079,0.126,0.224,0.316,0.326,0.367c-0.129,0.404-0.607,0.004-1.121-0.042c-0.119-0.01-0.635-0.084-0.698-0.26
		C191.489,88.186,191.479,87.951,191.479,87.786z M191.32,87.786c0.018,0.169,0.052,0.313,0.06,0.506c-0.06-0.03-0.157-0.038-0.2,0
		c-0.004-0.105-0.04-0.333-0.035-0.377C191.167,87.75,191.229,87.877,191.32,87.786z M188.074,88.038
		c0.004-0.123,0.06-0.587,0.079-0.674l0.222,0.548C188.23,87.992,188.429,88.038,188.074,88.038z M192.943,87.659
		c0.933,0,0.646-0.311,1.464,0.672l0.741,0.886c-0.318,0-1.036-0.165-1.329-0.283C193.417,88.774,193.13,88.25,192.943,87.659z
		 M190.958,87.575l-0.012,0.09 M194.083,87.533c0.288,0,0.504-0.044,0.782-0.042l0.761-0.086c0.278-0.018,0.503-0.021,0.781-0.04
		l1.162-0.127c0.131-0.015,0.268,0.025,0.396-0.011c0.208-0.06,1.241-0.082,1.531-0.151c0.148-0.036,0.681-0.054,0.779-0.006
		c-0.021,0.174-0.018,0.322-0.032,0.524l-0.128,1.542c-0.025,0.273-0.075,1.227-0.237,1.235l-1.307-0.27
		c-0.157-0.021-0.36-0.076-0.506-0.115c-0.189-0.05-0.344-0.062-0.532-0.103c-0.335-0.073-0.687-0.168-1.024-0.249
		c-0.227-0.056-0.773-0.224-0.979-0.342c-0.286-0.161-0.82-0.932-1.095-1.279C194.353,87.908,194.126,87.653,194.083,87.533z
		 M187.934,88.038c-0.477,0-0.907,0.084-1.383,0.084c0.127-0.4,0.474-0.907,0.677-1.228c0.028-0.042,0.243-0.415,0.245-0.415
		c0.149,0,0.4,0.301,0.561,0.379C188.029,87.23,187.937,87.667,187.934,88.038z M202.094,86.953
		c0.066-0.013,0.077-0.028,0.124-0.052c-0.011,0.099-0.018,0.125-0.018,0.252L202.094,86.953z M190.958,87.575
		c0.008-0.179,0.094-0.344,0.155-0.474c0.152-0.318,0.065-0.388,0.412-0.776c0.097-0.109,0.171-0.191,0.254-0.309
		c0.016,0.029,0.021,0.04,0.044,0.075c0.021,0.033,0.038,0.053,0.06,0.083l0.718,1.314c-0.205,0-0.333,0.042-0.541,0.042
		l-0.561,0.042c-0.055-0.168-0.068-0.221-0.096-0.43c-0.021-0.164-0.045-0.351-0.125-0.412c0,0.291,0.02,0.501,0.02,0.842
		C191.169,87.575,191.048,87.486,190.958,87.575z M185.148,88.207c0.09-0.164,1.423-1.745,1.609-1.967
		c0.266-0.316,0.306-0.291,0.595,0.029l-0.618,1.143c-0.076,0.129-0.149,0.235-0.229,0.361c-0.041,0.063-0.063,0.097-0.104,0.163
		c-0.199,0.317-0.131,0.229-0.492,0.229C185.653,88.164,185.426,88.207,185.148,88.207z M191.4,86.185l-6.252,2.021L191.4,86.185z
		 M191.96,85.806c0.258-0.126,0.027-0.394,0.569,0.235l1.027,1.253c0.037,0.053,0.017,0.016,0.047,0.07l-0.576,0.054
		c-0.353,0.102-0.258,0.032-0.431-0.339c-0.145-0.31-0.353-0.565-0.502-0.883C191.953,85.895,192.018,86.075,191.96,85.806z
		 M191.4,86.185c0.006-0.168,0.052-0.464,0.079-0.589c0.127,0.022,0.136,0.121,0.221,0.168
		C191.678,85.942,191.489,86.142,191.4,86.185z M187.252,85.765l0.257-0.267c0.033,0.106,0.181,0.478,0.043,0.478
		C187.438,85.975,187.335,86.003,187.252,85.765z M172.925,89.091c-0.277,0-0.415,0.078-0.488-0.908
		c-0.034-0.445-0.082-1.878-0.043-2.4l0.053-1.407c0.008-0.215,0.037-0.512,0.039-0.717c0.195,0,0.346-0.086,0.562-0.084h1.201
		c0.222,0,0.363-0.042,0.582-0.042l6.031,0.001c0.124,0,0.156-0.043,0.279-0.045s0.188,0.024,0.282,0.041
		c0.218,0.038,0.822-0.086,1.322,0c0.594,0.104,1.691-0.217,2.166,0.123c0.136,0.097,1.227,1.3,1.486,1.593
		c0.102,0.114,0.424,0.475,0.515,0.52l-0.46,0.549c-0.056,0.066-0.088,0.11-0.155,0.181c-0.621,0.646-1.378,1.848-2.049,1.84
		c-0.405-0.005-0.791-0.028-1.184,0.039l-0.722,0.043c-0.166,0.011-0.193,0.045-0.461,0.042c-0.156-0.001-0.279,0.044-0.46,0.043
		c-0.184,0-0.289,0.044-0.462,0.042c-0.08,0-0.16,0-0.241,0c-0.115-0.001-0.146,0.033-0.239,0.043
		c-0.287,0.032-0.688-0.067-0.954,0.017c-0.275,0.087-0.655,0.033-0.95,0.066l-0.461,0.041c-0.135,0.004-0.207,0.045-0.462,0.042
		c-0.155-0.001-0.279,0.044-0.46,0.043l-0.941,0.085c-0.141-0.001-0.347-0.026-0.478,0.005c-0.148,0.035-0.291,0.03-0.464,0.034
		c-0.141,0.004-0.219,0.047-0.482,0.043l-0.94,0.086C173.556,89.045,173.271,89.091,172.925,89.091z M202.039,85.638h0.201
		c0,0.333-0.009,0.132,0.02,0.252c-0.053-0.03-0.059-0.056-0.108-0.112L202.039,85.638z M191.76,85.722
		c-0.108-0.432-0.046-0.294-0.02-0.505c0.186,0,0.194-0.013,0.261,0.252C191.936,85.562,191.846,85.68,191.76,85.722z
		 M187.532,85.259c0.384-0.188,0.221-0.301,0.361-0.379c0.022,0.18,0.05,0.103,0.061,0.337c0.007,0.14-0.005,0.318-0.001,0.463
		l0.021,0.927c-0.004,0.003-0.01-0.003-0.011,0.004c-0.015,0.093-0.004,0.005-0.021,0.01c-0.214,0.064-0.018-0.134-0.29-0.267
		c0.053-0.207,0.16-0.347,0.2-0.716c-0.056-0.063-0.1-0.104-0.156-0.176c-0.031-0.04-0.041-0.051-0.077-0.09L187.532,85.259z
		 M189.657,84.164c0.356,0,0.259-0.054,0.454,0.182c0.253,0.309,0.348,0.705,0.348,1.376c0,0.23-0.053,0.376-0.09,0.571
		c-0.073,0.403-0.018,0.228-0.186,0.411c-0.135,0.147-0.067,0.188-0.266,0.198c-0.354,0.017-0.393,0.171-0.646-0.16
		c-0.288-0.375-0.21-0.885-0.24-1.395c-0.021-0.377,0-0.35,0.198-0.773C189.333,84.355,189.456,84.164,189.657,84.164z
		 M191.419,84.669c0.075,0.042,0.163,0.312,0.201,0.463c-0.102,0-0.104-0.004-0.181-0.042
		C191.422,84.941,191.386,84.798,191.419,84.669z M200.315,86.817c-0.272,0.133-0.514,0.124-0.781,0.125
		c-0.124,0-0.155,0.044-0.279,0.044c-0.093,0-0.188-0.003-0.28-0.002c-0.125,0-0.155,0.045-0.28,0.045
		c-0.093,0-0.188-0.006-0.281-0.003c-0.115,0.003-0.151,0.046-0.278,0.045c-0.094-0.001-0.189-0.005-0.281-0.003
		c-0.117,0.003-0.151,0.046-0.28,0.045l-1.964,0.124c-0.129,0-0.163,0.042-0.279,0.045c-0.093,0.002-0.188-0.003-0.282-0.003
		c-0.124,0-0.154,0.045-0.278,0.045c-0.197,0-0.355,0.026-0.562,0.04c-0.565,0.035-0.319,0.092-0.838-0.596l-0.73-0.906
		c-0.071-0.088-0.322-0.382-0.355-0.476c0.056-0.031,0.127-0.147,0.18-0.212c0.28-0.354,1.212-1.688,1.464-1.723l0.841-0.044
		c0.18,0,0.38,0.028,0.55-0.026l3.377,0.067c0.213,0,0.348,0.042,0.562,0.042c0.114,0,0.909-0.055,0.999,0.047
		c0.004,0.005,0.008,0.013,0.012,0.018c0.043,0.05-0.012,0.047,0.071,0.062c0,0.576-0.021,1.008-0.021,1.557
		C200.315,85.722,200.315,86.27,200.315,86.817z M186.511,83.532h1.401c0,0.307,0.089,0.757,0.121,1.053
		c-0.055,0.061-0.073,0.089-0.122,0.163c-0.073,0.109-0.051,0.072-0.141,0.126c-0.094,0.058-0.205,0.167-0.277,0.299
		c-0.226-0.315-0.639-1.027-0.881-1.395C186.551,83.685,186.547,83.679,186.511,83.532z M185.228,83.532
		c0.129,0,1.029-0.052,1.106,0.035l0.402,0.711c0.159,0.25,0.556,0.837,0.595,1.149c-0.057,0.027-0.104,0.055-0.156,0.089
		c-0.199,0.124-0.165,0.15-0.285-0.002c-0.35-0.441-0.807-0.914-1.157-1.358c-0.089-0.112-0.163-0.194-0.258-0.3
		c-0.054-0.06-0.076-0.097-0.126-0.154L185.228,83.532z M192.121,85.259c-0.076,0-0.168-0.162-0.199-0.253
		c0.02-0.16,0.553-1.206,0.626-1.336c0.273-0.486,0.643-0.306,1.097-0.306c-0.068,0.214-0.582,0.806-0.73,0.993
		c-0.147,0.186-0.197,0.206-0.38,0.464C192.434,84.962,192.261,85.259,192.121,85.259z M191.32,84.291
		c0.018-0.159,0.033-0.298,0.051-0.48c0.02-0.178,0.047-0.304,0.049-0.489c0.389,0,0.736,0.042,1.142,0.042
		c-0.06,0.237-0.159,0.422-0.255,0.6c-0.108,0.2-0.342,0.606-0.452,0.737c-0.085,0.102-0.094,0.093-0.187-0.001
		C191.531,84.56,191.436,84.454,191.32,84.291z M191.179,83.997l-0.221-0.548c0.122-0.06,0.086-0.126,0.321-0.126
		C191.242,83.663,191.251,83.71,191.179,83.997z M173.367,77.932c0.28,0,0.486,0.137,0.735,0.223l2.251,0.701
		c1.43,0.417,3.053,0.927,4.47,1.429c0.521,0.184,1.595,0.527,2.062,1.098c0.243,0.297,1.602,1.661,1.683,1.896l-11.28-0.042
		c-0.262,0-0.467-0.042-0.741-0.042c0.007-0.195,0.04-0.541,0.055-0.728c0.021-0.27,0.037-0.508,0.065-0.746
		c0.137-1.179,0.238-1.599,0.404-2.648c0.035-0.224,0.077-0.408,0.119-0.63C173.223,78.268,173.255,77.932,173.367,77.932z
		 M200.015,79.954c0.009,0.195,0.072,0.569,0.096,0.766c0.084,0.708,0.184,1.786,0.184,2.518c-0.301,0-0.548,0.044-0.861,0.041
		c-0.149-0.001-0.25,0.044-0.42,0.043c-0.415,0-1.285,0.051-1.568-0.03c-0.188-0.055-1.341-0.057-1.658-0.053
		c-0.188,0.002-0.334-0.042-0.54-0.042c-0.396,0-0.726-0.042-1.122-0.042c0.086-0.271,0.935-1.22,1.139-1.481
		c0.379-0.489,2.556-1.04,3.13-1.211l1.222-0.338c0.077-0.027,0.12-0.046,0.191-0.104C199.905,79.938,199.887,79.954,200.015,79.954
		z M188.595,83.28h-0.241c0-0.475-0.024-0.421,0.159-0.421c0.107,0,0.237,0.124,0.281,0.252
		C188.658,83.135,188.651,83.28,188.595,83.28z M187.953,82.69c0.18,0.181,0.261-0.226,0.261,0.632
		c-0.101-0.101-0.158,0.047-0.213-0.143C187.981,83.116,187.955,82.792,187.953,82.69z M191.32,83.069
		c-0.123,0-0.19,0.038-0.281,0.042c0-0.38-0.031-0.421,0.281-0.421l0.014,0.141C191.335,82.98,191.326,82.908,191.32,83.069z
		 M189.436,82.69c-0.094,0-0.09-0.007-0.161-0.042c0.031-0.278,0.049-0.395,0.201-0.421c0.008,0.198,0.024,0.076,0.006,0.226
		C189.468,82.549,189.451,82.556,189.436,82.69z M189.777,82.312c0.039-0.122,0.04-0.057,0.06-0.211
		c0.214,0.01,0.261,0.369,0.301,0.547c-0.146,0.072-0.069,0.111-0.207-0.025c-0.033-0.034-0.075-0.061-0.096-0.093
		C189.775,82.44,189.8,82.425,189.777,82.312z M193.263,82.101c-0.069,0.219-0.18,0.356-0.286,0.579
		c-0.048,0.103-0.091,0.206-0.138,0.298c-0.071,0.14-0.128,0.092-0.257,0.092c-0.394-0.004-0.724,0.042-1.123,0.042
		c0.009-0.746,0.464-0.636,0.794-0.734C192.484,82.31,193.079,82.101,193.263,82.101z M185.488,82.017
		c0.204-0.206,0.57,0.016,0.773,0.102l1.222,0.422c0.357,0.121,0.313-0.038,0.345,0.415c0.011,0.146,0.021,0.204,0.025,0.325
		c-0.428,0-1.43,0.18-1.764-0.252c-0.111-0.145-0.168-0.392-0.265-0.581C185.682,82.167,185.542,82.167,185.488,82.017z
		 M189.035,82.775c-0.156,0-0.496-0.182-0.66-0.211v-2.189c0.208,0.293,0.667,1.229,0.9,1.558
		C189.252,82.14,189.092,82.549,189.035,82.775z M189.497,82.017c0.047-0.187,0.118-0.348,0.199-0.462
		c0.087,0.12,0.101,0.128,0.101,0.421C189.674,82.036,189.628,82.15,189.497,82.017z M190.057,81.806
		c0.297-0.418,0.564-0.928,0.86-1.347c0,0.504,0,1.012,0.002,1.516c0.001,0.541-0.024,0.532-0.229,0.658l-0.132,0.142
		c0.056,0,0.125-0.007,0.178,0.002c0.078,0.014,0.069,0.04,0.163,0.04c-0.002,0.196-0.033,0.281-0.04,0.463l-0.481-0.547
		c-0.119-0.191-0.18-0.38-0.258-0.639L190.057,81.806z M193.663,83.154h-0.38c-0.146,0-0.2-0.042-0.341-0.042
		c0.067-0.616,0.565-1.13,0.901-1.224c0.217-0.061,0.422-0.138,0.64-0.214c0.202-0.071,0.424-0.162,0.663-0.162l-0.349,0.446
		c-0.119,0.167-0.221,0.298-0.345,0.457C194.253,82.669,193.958,83.154,193.663,83.154z M182.964,81.09
		c0.224,0,0.455,0.084,0.67,0.15c0.409,0.125,1.169,0.361,1.542,0.634c0.105,0.076,0.169,0.185,0.293,0.185
		c0.051,0.449,0.221,0.69,0.408,0.951c0.06,0.083,0.136,0.166,0.173,0.27c-0.343,0-0.694,0.012-0.985-0.076
		c-0.342-0.103-0.515-0.298-0.772-0.569c-0.237-0.249-0.435-0.489-0.661-0.756c-0.117-0.138-0.217-0.263-0.333-0.395
		c-0.066-0.076-0.108-0.11-0.171-0.19c-0.03-0.04-0.041-0.05-0.077-0.09L182.964,81.09z M195.768,81.006l0.006,0.013
		C195.773,81.018,195.766,81.01,195.768,81.006z M167.136,80.585l0.461,0.504l-0.481-0.042
		C167.115,80.815,167.136,80.798,167.136,80.585z M189.917,81.596c-0.174-0.544-0.028-0.557,0.173-1.065
		c0.095-0.235,0.171-0.436,0.262-0.671l0.263-0.671c0.052-0.133,0.233-0.543,0.303-0.583c0,1.75,0.101,1.432-0.805,2.729
		C190.05,81.424,189.986,81.557,189.917,81.596z M188.375,79.364l0.02-1.137c0.081,0.046,0.265,0.562,0.32,0.715l0.604,1.51
		c0.083,0.216,0.248,0.571,0.278,0.849c-0.057,0.175-0.119,0.264-0.2,0.379c-0.154-0.076-0.629-0.925-0.757-1.189
		C188.492,80.185,188.375,80.015,188.375,79.364z M191.119,82.48h-0.08l-0.02-1.643c0-1.026,0.339-1.235,0.61-1.623
		c0.055-0.08,0.063-0.119,0.111-0.188c0,0.62-0.213,2.056-0.292,2.924C191.414,82.332,191.414,82.48,191.119,82.48z M187.573,78.984
		c0.054,0.078,0.176,0.367,0.362,0.626c0.081,0.111,0.075,0.09,0.198,0.09c0.013,0.291,0.102,0.347,0.101,1.306
		c0,0.252,0,0.505,0,0.759c0.001,0.297-0.021,0.437-0.021,0.756c-0.389-0.067-0.333-0.272-0.449-1.498
		C187.709,80.435,187.573,79.531,187.573,78.984z M167.436,78.648c0-0.228,0.037-0.227,0.04-0.463c0.09,0.1,0.174,0.214,0.264,0.329
		c0.064,0.08,0.224,0.249,0.257,0.345c-0.135,0-0.182-0.04-0.301-0.042C167.611,78.815,167.436,78.801,167.436,78.648z
		 M181.922,80.417l-5.298-1.751c-0.361-0.117-0.713-0.247-1.057-0.347c-0.36-0.106-0.702-0.246-1.059-0.347l-1.063-0.376
		c0.005-0.463,0.494-2.063,0.617-2.45c0.13-0.412,0.723-2.217,0.933-2.287c0.052-0.018,0.956,1.012,1.029,1.088l5.029,5.431
		C181.195,79.543,181.869,80.261,181.922,80.417z M193.724,81.638l1.714-3.134c0.06-0.096,0.077-0.15,0.141-0.252l1.666-2.984
		c0.031-0.055,0.04-0.088,0.071-0.143l0.577-1.018c0.293-0.488,0.419-0.461,0.419-0.847c0.166,0.028,0.233,0.353,0.304,0.582
		c0.31,1.001,0.354,1.081,0.658,2.365c0.185,0.783,0.169,0.425,0.4,1.642c0.059,0.31,0.109,0.584,0.163,0.921
		c0.035,0.22,0.128,0.734,0.139,0.973l-3.113,0.957c-0.204,0.062-0.91,0.307-1.056,0.307c0.037-0.104,0.771-0.992,0.845-1.087
		c0.148-0.187,0.279-0.342,0.43-0.53l1.738-2.159c0.183-0.215,0.354-0.319,0.394-0.646c-0.295,0.052-3.547,4.409-3.751,4.54
		c-0.175,0.114-0.628,0.244-0.832,0.316C194.429,81.511,193.938,81.638,193.724,81.638z M191.039,79.785
		c0.097-0.862-0.114-1.248,0.158-1.943l0.944-2.267c-0.023,0.209-0.032,0.455-0.049,0.698c-0.018,0.256-0.031,0.457-0.054,0.688
		c-0.073,0.78-0.21,1.704-0.504,2.223C191.413,79.399,191.209,79.701,191.039,79.785z M188.133,79.701
		c-0.269-1.066-0.476-0.25-0.708-1.921l-0.235-2.075c-0.02-0.206-0.059-0.527-0.059-0.762c0.036,0.056,0.065,0.154,0.105,0.242
		c0.046,0.102,0.057,0.15,0.1,0.253c0.073,0.172,0.13,0.326,0.202,0.503l0.408,0.993c0.146,0.359,0.248,0.695,0.302,1.218
		C188.303,78.672,188.294,79.475,188.133,79.701z M191.54,82.354c0-0.314,0.083-0.958,0.116-1.229c0.049-0.41,0.1-0.773,0.146-1.17
		c0.044-0.373,0.079-0.839,0.143-1.175c0.065-0.35,0.225-0.52,0.37-0.739c0.435-0.655,1.167-1.888,1.6-2.575l0.59-0.951
		c0.544-0.854,1.015-1.805,1.565-2.688c0.068-0.11,0.136-0.206,0.205-0.327c0.148-0.258,0.686-1.105,0.856-1.189l0.945,2.015
		c0.099,0.263,0.217,0.426,0.217,0.891c-0.156,0.027-0.259,0.466-0.371,0.65c-0.073,0.119-0.11,0.225-0.175,0.351l-1.872,3.349
		c-0.384,0.681-1.591,2.743-1.885,3.324l-0.191,0.358c-0.3,0.633-0.542,0.588-1.033,0.733c-0.198,0.059-0.41,0.137-0.608,0.196
		C192.072,82.204,191.572,82.323,191.54,82.354z M174.008,73.174l17.531,9.179L174.008,73.174z M173.868,72.584l0.14,0.59
		L173.868,72.584z M175.19,72.332c0-0.268,0.134-0.428,0.256-0.684c0.296-0.622,0.507-1.081,0.832-1.661
		c0.143-0.254,0.823-1.4,0.983-1.29l2.737,4.604c0.241,0.396,0.668,1.163,0.911,1.5l0.645,0.961c0.11,0.167,0.205,0.325,0.308,0.487
		l2.583,4.302c0.059,0.1,0.092,0.175,0.151,0.271c0.069,0.115,0.247,0.426,0.292,0.564l-0.772-0.187
		c-0.55-0.168-0.935-0.274-1.472-0.57c-0.103-0.056-0.23-0.143-0.333-0.228c-0.281-0.236-2.317-2.516-2.606-2.819l-4.04-4.393
		C175.523,73.04,175.19,72.707,175.19,72.332z M173.848,70.816l1.342,1.516 M173.848,70.816c-0.066,0.52-1.073,2.41-1.103,3.158
		l0.943-1.977c0.119-0.286,0.388-0.897,0.499-1.055c-0.017,0.137-0.109,0.349-0.154,0.475c-0.381,1.077-0.717,1.776-1.176,3.171
		c-0.107,0.327-0.198,0.649-0.294,0.984c-0.171,0.597-0.506,2.014-0.623,2.692c-0.028,0.17-0.09,0.439-0.097,0.636
		c0.014-0.033,0.01-0.018,0.024-0.074l0.076-0.346c0.036-0.153,0.067-0.285,0.105-0.45c0.403-1.693,0.695-2.53,1.205-4.082
		c0.265-0.808,0.237-0.591,0.447-1.038c0.057-0.121,0.101-0.237,0.165-0.327c-0.022,0.175-0.171,0.641-0.221,0.799l-0.24,0.758
		c-0.041,0.131-0.077,0.243-0.122,0.373c-0.33,0.934-0.819,2.533-0.992,3.601c-0.057,0.353-0.086,0.623-0.127,0.996
		c0.106-0.152,0.525-2.051,0.617-2.366l0.763-2.651c0.071-0.2,0.194-0.524,0.282-0.667c0.06-0.093,0.087-0.236,0.181-0.252
		c-0.063,0.57-0.784,2.729-0.993,3.471c-0.177,0.627-0.345,1.461-0.469,2.129c-0.778,4.151-0.901,8.401-0.294,12.702
		c0.118,0.842,0.315,1.969,0.494,2.709c0.482,2.013,0.682,2.716,1.374,4.566l0.994,2.288l0.462,0.882
		c0.116,0.204,0.21,0.373,0.328,0.573c0.424,0.715,0.916,1.469,1.381,2.067c0.128,0.165,0.231,0.3,0.36,0.464
		c0.289,0.369,0.911,1.072,1.164,1.299l0.825,0.751c0.573,0.481,1.144,0.889,1.782,1.267c0.904,0.534,2.026,0.957,3.008,1.131
		l1.384,0.166l0.883-0.042c0.37,0.003,0.755-0.118,1.103-0.167c0.549-0.078,1.648-0.632,2.083-0.632l-1.343,0.588
		c-0.857,0.299-1.321,0.356-2.164,0.503c-0.178,0.031-0.429-0.018-0.6,0.002c-0.078,0.009-0.1,0.042-0.182,0.045l-0.316,0.033
		c0.263,0.063,1.554,0.028,1.885-0.066c0.337-0.096,0.695-0.11,1.163-0.251c0.391-0.118,0.199-0.097,0.614-0.097v0.042
		c-0.109,0-0.238,0.091-0.357,0.131c-0.115,0.04-0.228,0.087-0.356,0.133l-1.929,0.368c-0.134,0.015-0.257,0.083-0.402,0.083
		c0.215,0.313,2.092-0.208,2.279-0.265c0.354-0.107,0.704-0.245,1.06-0.384l1.051-0.445l-0.228,0.198
		c-0.205,0.163-0.593,0.362-0.806,0.451c-0.693,0.288-1.134,0.34-1.798,0.518l-1.877,0.391c0.902,0,0.987,0.002,1.86-0.172
		c0.184-0.036,0.406-0.104,0.587-0.157c0.598-0.179,1.333-0.453,1.932-0.739c0.094-0.045,0.194-0.11,0.288-0.11
		c-0.173,0.254-0.992,0.606-1.176,0.685c-1.153,0.487-2.888,0.832-4.113,0.832v0.042c0.159,0,0.237,0.045,0.381,0.043
		c0.134-0.001,0.268-0.001,0.401-0.001l0.981-0.084c0.788-0.082,1.924-0.567,2.656-0.902c0.139-0.063,1.238-0.652,1.331-0.656
		c-0.004,0.005-0.011,0.002-0.013,0.016c-0.003,0.013-0.011,0.013-0.013,0.015c-0.005,0.004-0.022,0.022-0.027,0.027
		c-0.026,0.022-0.029,0.023-0.061,0.042l-0.396,0.263c-1.048,0.741-2.366,1.193-3.483,1.44c-0.227,0.05-0.421,0.054-0.655,0.094
		c-2.131,0.358-4.35-0.313-6.189-1.439c-1.046-0.639-1.575-1.087-2.565-1.938l-0.916-0.981c-0.198-0.249-0.405-0.43-0.676-0.769
		c-0.501-0.628-0.987-1.338-1.438-2.112c-0.064-0.109-0.119-0.215-0.184-0.33c-0.044-0.078-0.056-0.08-0.099-0.17l-1.299-2.748
		l-0.464-1.211c-0.304-0.768-0.847-2.656-1.077-3.589l-0.431-2.003c-0.463-2.438-0.687-4.65-0.692-7.345
		c-0.001-0.466,0.031-0.905,0.039-1.347c0.038-1.844,0.424-4.777,0.724-6.522l0.416-2.074c0.122-0.631,0.445-1.772,0.62-2.36
		c0.356-1.2,0.927-2.627,1.469-3.48c0.061-0.094,0.146-0.26,0.218-0.301c-0.046,0.187-0.104,0.337-0.16,0.504l-0.546,1.462
		c-0.371,0.96-0.824,2.208-1.128,3.272c-0.032,0.112-0.048,0.182-0.081,0.295c-0.195,0.699-0.4,1.65-0.496,2.448
		c-0.031,0.254-0.046,0.491-0.072,0.734c0.043-0.066,0.05-0.144,0.072-0.27c0.249-1.437,0.727-3.263,1.121-4.505
		c0.234-0.737,0.469-1.41,0.736-2.076l0.198-0.465C173.375,71.665,173.583,71.188,173.848,70.816 M169.8,70.143
		c0.021-0.187,0.077-0.288,0.141-0.379c0.076,0.043,0.383,0.682,0.422,0.8C170.216,70.538,169.878,70.389,169.8,70.143z M192,78.185
		l0.178-1.857c0.059-0.614,0.137-1.191,0.29-1.621c0.069-0.193,0.172-0.388,0.247-0.578l0.492-1.197
		c0.055-0.118,0.068-0.183,0.119-0.295c0.293-0.655,0.585-1.439,0.872-2.084c0.051-0.112,0.064-0.177,0.12-0.294l0.25-0.611
		c0.055-0.12,0.071-0.167,0.122-0.292c0.171-0.426,0.333-0.778,0.493-1.234c0.293-0.819,0.393-0.425,0.697,0.055
		c0.211,0.335,0.298,0.419,0.533,0.817l0.346,0.621c0.045,0.074,0.145,0.242,0.169,0.319c-0.064,0.578-0.925,1.6-1.188,2.136
		l-0.759,1.311c-0.056,0.088-0.106,0.162-0.161,0.252l-2.026,3.278C192.566,77.271,192.218,77.879,192,78.185z M179.819,65.511
		c0.042,0,0.463,0.835,0.525,0.958l0.542,0.968c0.315,0.618,1.001,1.697,1.361,2.36l4.118,7.093
		c0.186,0.316,0.353,0.633,0.546,0.917c0.388,0.57,0.462,0.967,0.568,1.963l0.191,1.704c0.018,0.176,0.057,0.775,0.081,0.882
		c-0.251,0-1.349-0.438-1.679-0.554c-0.989-0.347-0.729-0.101-1.385-1.221l-1.089-1.836c-0.697-1.198-1.482-2.495-2.202-3.625
		c-0.065-0.104-0.115-0.192-0.18-0.295c-0.643-1.009-1.41-2.267-1.997-3.341c-0.057-0.106-0.112-0.2-0.175-0.304
		c-0.434-0.711-0.84-1.47-1.299-2.112c-0.429-0.598-0.615-0.45-0.09-1.188c0.521-0.729,0.586-0.901,1.219-1.566
		C179.034,66.146,179.636,65.511,179.819,65.511z M192.421,74.353c0.28-2.528,0.567-5.408,0.866-7.909
		c0.021-0.172,0.038-0.381,0.065-0.58c0.021-0.168,0.065-0.404,0.071-0.565c0.284,0.139,1.166,1.094,1.454,1.449
		c0.131,0.162,0.333,0.418,0.409,0.657c-0.017,0.125-0.096,0.28-0.164,0.458l-2.591,6.302
		C192.501,74.235,192.455,74.307,192.421,74.353z M171.183,67.742c-0.098-0.048-0.176-0.126-0.301-0.126
		c0.075-0.301,0.188-0.369,0.42-0.379C171.259,67.375,171.203,67.56,171.183,67.742z M182.844,63.7
		c0.019,0.145,0.576,1.556,0.617,1.651l2.274,5.873c0.037,0.09,0.046,0.105,0.083,0.206c0.035,0.094,0.052,0.114,0.087,0.199
		c0.896,2.225,1.077,2.59,1.324,5.678c0.016,0.198,0.044,0.467,0.044,0.668c-0.434-0.609-1.754-2.953-2.288-3.867l-4.159-7.303
		c-0.181-0.369-0.639-1.077-0.747-1.504c0.272-0.382,0.271-0.374,0.613-0.65c0.309-0.25,1.003-0.685,1.388-0.957
		c0.104-0.073,0.24-0.161,0.383-0.166C182.693,63.522,182.712,63.636,182.844,63.7z M196.951,64.374
		c0.101,0.112,0.109,0.115,0.14,0.379l-0.159-0.17C196.953,64.483,196.951,64.53,196.951,64.374z M191.079,63.869
		c0-0.109,0.013-0.043,0.02-0.211c0.553,0,1.387,0.838,1.927,1.257c0.293,0.228,0.256,0.074,0.294,0.694
		c0.018,0.3-0.011,0.2-0.063,0.392c-0.033,0.118-0.09,0.708-0.109,0.866l-0.605,5.213c-0.149,1.255-0.163,2.323-0.494,3.255
		c-0.145,0.405-0.832,2.113-0.967,2.304c0-1.151,0-2.302,0-3.453c0-2.329,0.025-4.581,0.019-6.949c0-0.32,0.021-0.467,0.021-0.799
		l0.002-2.19C191.116,64.055,191.079,63.965,191.079,63.869z M182.844,63.7c0-0.382,0.014-0.41,0.175-0.476
		c0.651-0.265,1.53-0.262,2.207-0.415l0.382-0.078l0.332,2.585c0.146,1.218,0.332,2.77,0.451,3.979
		c0.044,0.44,0.098,0.895,0.141,1.348c0.06,0.622,0.239,2.29,0.239,2.825c-0.436-1.054-1.276-3.275-1.681-4.343
		c-0.619-1.631-1.325-3.353-1.909-4.999C182.982,63.564,183.044,63.901,182.844,63.7z M195.928,63.531
		c0.076-0.685,0.22-0.372,0.24-0.21C196.115,63.347,195.975,63.479,195.928,63.531z M188.514,62.605c0.475,0,2.04,0.686,2.444,0.884
		c0,0.535,0.04,1.17,0.04,1.895v2.231c0.001,0.302-0.017,0.472-0.021,0.714c-0.008,0.495,0.001,1.02,0.001,1.518
		c0,0.542-0.021,0.977-0.021,1.473c0.001,1.046-0.017,1.978-0.02,2.99c-0.001,0.309,0.021,0.439,0.021,0.714
		c0,0.254-0.001,0.508-0.001,0.761c0.001,0.275,0.021,0.406,0.021,0.713c-0.003,0.838,0.04,1.184-0.2,1.896l-0.879,2.154
		c-0.059,0.155-0.118,0.279-0.203,0.373c-0.085-0.12-0.788-1.95-0.855-2.118c-0.423-1.056-0.411-0.878-0.427-2.052
		c-0.003-0.212-0.019-0.233-0.021-0.46c-0.007-1.183,0.021-2.37,0.021-3.54c0-0.947,0.039-1.965,0.04-2.991
		c0-0.275,0.021-0.405,0.021-0.714c-0.001-0.541,0.007-1.811,0.035-2.243c0.031-0.482-0.017-1.014,0.017-1.48
		C188.556,64.903,188.546,63.146,188.514,62.605z M185.67,62.605c0.265-0.13,0.275-0.21,0.66-0.21c0.427,0,1.252-0.029,1.675,0.102
		c0.081,0.025,0.258,0.066,0.329,0.066l0.02,3.032c0,1.988-0.04,3.84-0.04,5.811c0,0.951,0.03,2.032-0.018,2.912
		c-0.021,0.448,0.02,1.012-0.005,1.461l-0.037,1.438c-0.056-0.078-0.099-0.173-0.145-0.285c-0.238-0.57-0.683-1.807-0.928-2.471
		c-0.3-0.802-0.242-0.648-0.332-1.786c-0.162-2.047-0.461-4.188-0.646-6.185c-0.083-0.916-0.224-2.642-0.415-3.506
		C185.753,62.822,185.711,62.739,185.67,62.605z M188.254,61.384l-0.044-0.034C188.252,61.369,188.229,61.352,188.254,61.384z
		 M187.934,61.3l0.32,0.084L187.934,61.3z M193.663,61.09c0.021-0.196,0.041-0.434,0.041-0.674c0.096,0.049,0.142,0.164,0.239,0.211
		L193.663,61.09z M200.036,94.396c0.006-0.142,0.358-1.674,0.418-2.026c0.131-0.771,0.247-1.365,0.347-2.218
		c0.043-0.36,0.157-1.302,0.157-1.651h-0.02c0,0.673-0.484,3.521-0.661,4.294c-0.041,0.172-0.239,1.115-0.301,1.264
		c0.005-0.152,0.216-1.01,0.268-1.287c0.087-0.459,0.164-0.872,0.239-1.35c0.107-0.671,0.354-2.333,0.354-3.006l-0.021,0
		c0,0.224-0.054,0.621-0.076,0.809c-0.167,1.406-0.353,2.372-0.625,3.655c-0.031,0.146-0.261,1.203-0.32,1.347
		c0.007-0.172,0.249-1.134,0.306-1.419c0.2-0.975,0.656-3.885,0.656-4.939l-0.08,0.762c-0.155,1.641-0.403,2.746-0.685,4.201
		l-0.157,0.637c0.008-0.2,0.104-0.507,0.143-0.71c0.047-0.237,0.103-0.471,0.152-0.733c0.075-0.395,0.208-1.169,0.226-1.631
		l-0.094,0.352c-0.148,0.675-0.206,1.286-0.454,2.33l-0.093,0.351c0.008-0.19,0.087-0.438,0.123-0.625
		c0.153-0.786,0.215-1.188,0.346-2.011c0.463-2.926,0.505-6.718,0.23-9.613c-0.151-1.588-0.422-3.289-0.753-4.734l-0.461-1.767
		c-0.222-0.781-0.457-1.41-0.71-2.128l-1.014-2.375c-0.294-0.614-1.083-1.938-1.414-2.462c-1.271-2.005-2.812-3.592-4.337-4.484
		c-1.007-0.589-1.472-0.798-2.451-1.209c-0.101-0.042-0.277-0.13-0.379-0.13v-0.042c0.822,0,1.124,0.255,1.818,0.558
		c0.649,0.284,1.753,1.062,2.385,1.597c0.061,0.05,0.198,0.192,0.265,0.204l-0.06-0.085c-0.019-0.022-0.044-0.047-0.067-0.07
		c-0.055-0.053-0.087-0.071-0.141-0.126l-0.867-0.703c-1.144-0.793-2.005-1.295-3.248-1.639c-0.038-0.011-0.685-0.142-0.727-0.198
		c0.573,0,2.003,0.523,2.645,0.803c0.06,0.027,0.115,0.069,0.181,0.082c-0.026-0.048-0.007-0.021-0.047-0.07
		c-0.226-0.283-0.887-0.502-1.135-0.606c-0.198-0.084-0.432-0.169-0.628-0.237c-0.119-0.042-0.206-0.077-0.323-0.121
		c-0.102-0.039-0.234-0.103-0.332-0.103v-0.042c0.726,0,2.041,0.597,2.738,1.025c0.15,0.092,0.276,0.16,0.424,0.248l0.426,0.244
		c-0.146-0.266-1.432-0.932-1.584-1.01l-1.276-0.559c-0.105-0.042-0.336-0.158-0.446-0.158v-0.042c1.339,0,3.209,1.542,3.546,1.557
		c-0.021-0.032-0.003-0.008-0.038-0.045c-0.188-0.194-0.641-0.485-0.851-0.614c-0.838-0.51-1.646-0.823-2.509-1.126
		c-0.168-0.059-0.378-0.151-0.55-0.151v-0.042c0.277,0,0.596,0.111,0.859,0.172c0.688,0.16,1.694,0.679,2.327,1.05
		c0.631,0.371,1.463,1,2.076,1.572c0.876,0.819,0.991,1.029,1.709,1.839l1.274,1.786c0.175,0.274,0.77,1.266,0.905,1.55
		c0.051,0.104,0.071,0.157,0.125,0.242l0.706,1.464l0.65,1.622c0.466,1.312,0.651,1.888,1.015,3.301
		c1.326,5.177,1.436,11.165,0.496,16.651c-0.097,0.569-0.403,2.087-0.577,2.659C200.039,94.399,200.053,94.353,200.036,94.396z
		 M187.813,60.29c0.021-0.045,0.076,0.066,0.022,0.022C187.835,60.311,187.78,60.36,187.813,60.29z M187.473,60.247h0.179v0.042
		h-0.179V60.247z M187.211,60.205h0.161v0.042h-0.161V60.205z M192.882,60.247c0-0.224,0.001-0.249,0.021-0.421
		c0.098,0,0.136,0.02,0.199,0.084C193.066,60.017,192.941,60.166,192.882,60.247z M191.119,58.9v-0.421
		c0.058,0.058,0.133,0.092,0.201,0.126L191.119,58.9z M190.157,58.605c0-0.213,0.021-0.359,0.021-0.632
		c0.086,0.015,0.127,0.079,0.222,0.084C190.258,58.311,190.244,58.483,190.157,58.605z M182.704,56.458h0.061v0.085l-0.061,0V56.458
		z"/>
</g>
</svg>
