<?xml version="1.0" encoding="utf-8"?>
<!-- Generator: Adobe Illustrator 16.0.0, SVG Export Plug-In . SVG Version: 6.00 Build 0)  -->
<!DOCTYPE svg PUBLIC "-//W3C//DTD SVG 1.1//EN" "http://www.w3.org/Graphics/SVG/1.1/DTD/svg11.dtd">
<svg version="1.1" id="Capa_1" xmlns="http://www.w3.org/2000/svg" xmlns:xlink="http://www.w3.org/1999/xlink" x="0px" y="0px"
	 width="400px" height="200px" viewBox="0 0 400 200" style="enable-background:new 0 0 400 200;" xml:space="preserve">
<style type="text/css">
<![CDATA[
	.med-negro{fill:#000000;
		animation: svgReset 1s forwards 8s;
	}
	.med-negro2{fill-rule:evenodd;clip-rule:evenodd;fill:#000000;
		animation: svgReset 1s forwards 8s;
	}

	.med-fnd{fill-rule:evenodd;clip-rule:evenodd;fill:#FFFF00;
		animation: svgReset 1s forwards 8s;
	}
	.med-comRojo{fill-rule:evenodd;clip-rule:evenodd;fill:#FF0000;
		animation: svgReset 1s forwards 8s;
	}
	.med-aguja{fill-rule:evenodd;clip-rule:evenodd;fill:#000000;		
		transform-origin: 200px 173px;
		animation: aguja 7s forwards linear 1s, svgReset 1s forwards 7.8s;
	}
	@keyframes aguja{
		0%{
			transform: rotate(0deg)
		}100%{
			transform: rotate(120deg)
		}
	}
	.med-verde{fill-rule:evenodd;clip-rule:evenodd;fill:#ffFFff;
		transform-origin: 200px 208px;
		transform: rotate(-140deg);
		animation: verde 7s forwards linear 1s, svgReset 1s forwards 7.8s;
	}
	@keyframes verde{
		0%{
			transform: rotate(-140deg)
		}100%{
			transform: rotate(-44deg)
		}
	}
	@keyframes svgReset{
		0%{opacity:1;}
		100%{opacity:0;
	}}
]]>
</style>
<path class="med-verde" d="M2.2,208.3C2.2,99,90.8,10.4,200.1,10.4S398,99,398,208.3h-13.9c0-101.6-82.4-184-184-184
	c-101.6,0-184,82.4-184,184H2.2z"/>




<path class="med-fnd" d="M245.3,15.6l-3.1,13.5l0,0c10.7,2.5,21.1,6,31,10.3l0,0l5.9-12.6C268.3,22.1,257,18.3,245.3,15.6 M120,27.3
	l6,12.5l0,0c10.9-4.8,22.4-8.6,34.2-11.2l-2.9-13.6C144.3,17.9,131.8,22.1,120,27.3z M84.3,47.8L92.6,59l0,0
	c7.6-5.4,15.5-10.3,23.9-14.6l0,0l-6-12.5C101.4,36.5,92.6,41.8,84.3,47.8z M81.5,49.9c-8.7,6.6-16.9,13.8-24.5,21.7l10.3,9.3l0,0
	C74.3,73.7,81.8,67,89.8,61l0,0L81.5,49.9z M194.9,24.4V10.5c-11.7,0.3-23.2,1.6-34.3,3.9l2.9,13.6
	C173.7,25.9,184.2,24.7,194.9,24.4z M318.1,49.5l-8.2,11.2l0,0c8,6,15.5,12.6,22.5,19.8l0,0l10.3-9.4
	C335.1,63.2,326.9,56,318.1,49.5z M288.6,31.3l-5.9,12.6l0,0c8.6,4.3,16.7,9.3,24.4,14.8l0,0l8.2-11.2
	C306.9,41.4,297.9,36,288.6,31.3z M205.3,10.5v13.9c11.5,0.3,22.6,1.7,33.5,4l0,0l3-13.5C230.1,12.3,217.8,10.8,205.3,10.5z M0,0
	l400,0v172.7H0V0z"/>

<path class="med-negro2" d="M118,47.5l7.1,14.9c1.2,2.6,4.4,3.7,6.9,2.5c2.6-1.2,3.7-4.4,2.5-6.9L127.4,43c20.8-9.1,43.6-14.5,67.5-15.2
	v16.4c0,2.9,2.3,5.2,5.2,5.2c2.9,0,5.2-2.3,5.2-5.2V27.9c23.6,0.7,46,5.9,66.4,14.7l-7,14.9c-1.2,2.6-0.1,5.7,2.5,6.9
	c2.6,1.2,5.7,0.1,6.9-2.5l7-14.9c18.2,9.2,34.6,21.3,48.6,35.8l-12.1,11.1c-2.1,1.9-2.3,5.2-0.3,7.4c1.9,2.1,5.2,2.3,7.4,0.3
	c3.8-3.4,31-30.7,31.6-31C316.7,25.7,260.2,0,200.2,0l0,0l0,0l0,0c-45.6-0.6-88.7,15.3-123.5,41l16.6,21.8
	C101.1,57,109.3,51.9,118,47.5 M84.3,47.8c8.3-6,17-11.3,26.2-16l6,12.6c-8.4,4.3-16.3,9.2-23.9,14.6L84.3,47.8z M160.1,28.7
	l-2.9-13.6c-13,2.9-25.4,7-37.3,12.3l6,12.5C136.8,35.1,148.3,31.3,160.1,28.7z M160.7,14.4l2.9,13.6c10.2-2.1,20.7-3.3,31.4-3.6
	V10.5C183.2,10.8,171.8,12.1,160.7,14.4z M238.8,28.4l3-13.6c-11.8-2.5-24-4-36.5-4.4v13.9C216.8,24.7,228,26.1,238.8,28.4z
	 M245.3,15.6l-3.1,13.6c10.7,2.5,21.1,6,31,10.3l5.9-12.6C268.3,22.1,257,18.3,245.3,15.6z M307.1,58.6l8.2-11.2
	c-8.4-6.1-17.4-11.5-26.8-16.2l-5.9,12.6C291.2,48.2,299.4,53.1,307.1,58.6z M318.1,49.5l-8.2,11.2c8,6,15.5,12.6,22.5,19.8
	l10.3-9.4C335.1,63.2,326.9,56,318.1,49.5z"/>
<path class="med-negro" d="M218.1,96.9L218.1,96.9c-0.2,0.3-0.8,0.7-2.9,0.7c-0.9,0-1.6-0.2-2-0.7c-0.6-0.7-0.5-1.7-0.5-1.7l0-9.7
	c0-0.6-0.2-1.2-0.7-1.6c-0.6-0.5-1.5-0.7-2.1-0.7v-9.5c0.5,0.2,1,0.5,1.6,0.8c2.3,1.1,2.7,2.3,2.7,2.5v9c0,3.8,1.4,5.4,2.6,6.7
	c0.6,0.7,1.1,1.3,1.3,2.2C218.4,95.9,218.4,96.6,218.1,96.9 M194.1,75.5L194.1,75.5c0-1,0.8-1.7,1.7-1.7h8.7c1,0,1.7,0.8,1.7,1.7
	v2.6c0,1-0.8,1.7-1.7,1.7h-8.7c-1,0-1.7-0.8-1.7-1.7V75.5z M220.4,94.4c-0.3-1.5-1.1-2.4-1.9-3.2c-1-1.2-2-2.3-2-5.2v-9.1l0-0.1
	c0-0.3,0.1-1.9-4-4.4c-1.1-0.7-2-1-2.6-1.3c0-1.3-1-2.3-2.3-2.3h-14.9c-1.3,0-2.3,1-2.3,2.3v29.4h-0.1c-1.3,0-2.3,1-2.3,2.3v1.5
	h24.2v-1.5c0-1.3-1-2.3-2.3-2.3h-0.1v-15c0.2,0,0.5,0,0.6,0.1V95c0,0.4-0.1,2.1,1,3.4c0.8,1,2.1,1.5,3.7,1.5c2.3,0,3.8-0.5,4.6-1.5
	C220.8,97.1,220.6,95.6,220.4,94.4z"/>
<path class="med-negro2" d="M200.5,151c11.8,0.2,21.2,10.1,21,22c-0.2,11.9-9.9,21.5-21.8,21.3c-11.8-0.2-21.2-10.1-21-22
	C178.9,160.3,188.7,150.8,200.5,151"/>



<path class="med-comRojo" d="M76.6,41l16.6,21.8c-8.4,6.1-16.2,13-23.3,20.5l12.2,11c2.1,1.9,2.3,5.2,0.4,7.4c-1.9,2.1-5.2,2.3-7.4,0.4
	L42.4,72.3C52.5,60.8,64.1,50.3,76.6,41 M57.1,71.6c7.5-7.9,15.7-15.1,24.5-21.7L89.8,61c-8,6-15.5,12.7-22.4,19.9L57.1,71.6z"/>
<path class="med-aguja" d="M105,118.9c-2.9-1.9-4.7-4.6-3.7-6.2l0,0c1-1.6,4.1-1.2,7.2,0.4l96.1,52.1l90.7,61.1c2.9,1.9,4.7,4.6,3.7,6.2
	c-1,1.6-4.1,1.2-7.2-0.4L195.6,180L105,118.9z"/>


<rect y="172.7" class="med-fnd" width="400" height="237.7"/>
<path class="med-negro" d="M200.5,151c11.8,0.2,21.2,10.1,21,22c-0.2,11.9-9.9,21.5-21.8,21.3c-11.8-0.2-21.2-10.1-21-22
	C178.9,160.3,188.7,150.8,200.5,151"/>
</svg>
