<?xml version="1.0" encoding="utf-8"?>
<!-- Generator: Adobe Illustrator 16.0.0, SVG Export Plug-In . SVG Version: 6.00 Build 0)  -->
<!DOCTYPE svg PUBLIC "-//W3C//DTD SVG 1.1//EN" "http://www.w3.org/Graphics/SVG/1.1/DTD/svg11.dtd">
<svg version="1.1" id="Capa_1" xmlns="http://www.w3.org/2000/svg" xmlns:xlink="http://www.w3.org/1999/xlink" x="0px" y="0px"
	 width="200px" height="250px" viewBox="-25 -25 200 250" enable-background="new -25 -25 200 250" xml:space="preserve">
<g>
	<g>
		<g>
			<path fill="#FFFFFF" d="M-5.8,81.676c10.072,0,18.209,8.143,18.209,18.222c0,9.553-7.339,17.398-16.658,18.154
				c-0.515,0.095-1.037,0.095-1.551,0.095c-1.364,0-2.686-0.137-3.952-0.425c-8.189-1.828-14.309-9.129-14.309-17.824
				C-24.061,89.818-15.868,81.676-5.8,81.676 M-5.8,80.741c-10.586,0-19.2,8.602-19.2,19.157c0,8.89,6.328,16.777,15.039,18.741
				c1.317,0.289,2.715,0.434,4.161,0.434c0.569,0,1.147,0,1.712-0.085c9.736-0.791,17.436-9.171,17.436-19.089
				C13.348,89.342,4.755,80.741-5.8,80.741L-5.8,80.741z"/>
		</g>
		<g>
			<path fill="#FFFFFF" d="M-3.73,96.074c0.28-0.332,0.846-0.57,1.648-0.57c0.748,0,1.645,0.111,2.49,0.349l0.709-3.825
				c-1.458-0.51-2.961-0.654-4.517-0.654c-1.555,0-2.779,0.237-3.765,0.808c-0.99,0.543-1.649,1.164-2.023,2.064
				c-0.378,0.808-0.565,2.159-0.565,3.859v1.504h-3.018v4.369h3.018v13.744c1.266,0.288,2.588,0.425,3.952,0.425
				c0.514,0,1.037,0,1.551-0.095v-14.074h3.999v-4.369h-3.999v-1.411C-4.249,97.119-4.104,96.456-3.73,96.074z"/>
		</g>
	</g>
	<g>
		<g>
			<path fill="#FFFFFF" d="M48.053,81.642c10.071,0,18.243,8.159,18.243,18.239s-8.172,18.239-18.243,18.239
				c-10.072,0-18.231-8.159-18.231-18.239S37.981,81.642,48.053,81.642 M48.053,80.707c-10.569,0-19.17,8.601-19.17,19.174
				c0,10.573,8.601,19.175,19.17,19.175c10.577,0,19.183-8.602,19.183-19.175C67.236,89.308,58.63,80.707,48.053,80.707
				L48.053,80.707z"/>
		</g>
		<g>
			<path fill-rule="evenodd" clip-rule="evenodd" fill="#FFFFFF" d="M58.868,97.263c-1.207-5.048-5.563-8.491-10.815-8.559
				c-0.693,0.034-1.441,0.085-2.121,0.212c-7.365,1.487-11.155,9.613-7.594,16.157c0.127,0.187,0.127,0.348,0.102,0.553
				c-0.519,1.699-0.995,3.441-1.454,5.158c-0.076,0.298-0.076,0.298,0.208,0.221c1.798-0.492,3.578-0.952,5.372-1.393
				c0.157-0.052,0.268-0.052,0.4,0.016c2.303,1.173,4.734,1.505,7.283,1.029C56.331,109.485,60.322,103.281,58.868,97.263z
				 M49.613,108.882c-0.531,0.094-1.028,0.145-1.279,0.11c-1.959,0-3.536-0.441-5.002-1.283c-0.208-0.128-0.365-0.162-0.565-0.085
				c-1.003,0.237-1.98,0.51-2.975,0.765c-0.204,0.06-0.226,0.017-0.179-0.179c0.264-0.917,0.51-1.853,0.799-2.804
				c0.064-0.256,0.047-0.46-0.115-0.655c-2.01-3.28-1.92-7.301,0.328-10.344c2.342-3.127,5.558-4.428,9.379-3.604
				c3.769,0.791,6.183,3.238,7.042,6.995C58.265,102.94,54.797,108.041,49.613,108.882z"/>
			<path fill-rule="evenodd" clip-rule="evenodd" fill="#FFFFFF" d="M50.956,105.074c-0.387,0.042-0.778-0.034-1.151-0.145
				c-2.537-0.748-4.458-2.304-6-4.411c-0.574-0.782-1.122-1.624-1.288-2.618c-0.233-1.147,0.128-2.176,0.999-2.958
				c0.289-0.281,1.135-0.408,1.479-0.221c0.111,0.094,0.175,0.179,0.247,0.29c0.314,0.79,0.65,1.521,0.969,2.269
				c0.046,0.17,0.038,0.314-0.047,0.476c-0.17,0.348-0.429,0.62-0.68,0.917c-0.213,0.179-0.213,0.383-0.068,0.604
				c0.91,1.521,2.137,2.618,3.787,3.255c0.238,0.093,0.42,0.059,0.569-0.128c0.285-0.332,0.565-0.696,0.828-1.046
				c0.162-0.212,0.378-0.254,0.617-0.145c0.543,0.238,1.079,0.494,1.598,0.732c0.145,0.076,0.247,0.126,0.374,0.187
				c0.548,0.271,0.548,0.306,0.484,0.892c-0.072,1.156-0.96,1.743-1.976,2.031C51.419,105.116,51.198,105.116,50.956,105.074z"/>
		</g>
	</g>
	<g>
		<g>
			<path fill="#FFFFFF" d="M101.951,81.879c10.063,0,18.23,8.159,18.23,18.24c0,10.063-8.168,18.239-18.23,18.239
				c-10.08,0-18.239-8.177-18.239-18.239C83.712,90.039,91.871,81.879,101.951,81.879 M101.951,80.945
				c-10.573,0-19.179,8.601-19.179,19.174c0,10.572,8.605,19.175,19.179,19.175c10.565,0,19.166-8.603,19.166-19.175
				C121.117,89.546,112.517,80.945,101.951,80.945L101.951,80.945z"/>
		</g>
		<g>
			<path fill-rule="evenodd" clip-rule="evenodd" fill="#FFFFFF" d="M90.911,107.547c1.733,0.11,3.416-0.144,4.998-0.858
				c0.712-0.314,1.358-0.696,2.005-1.206c-0.756-0.018-1.445-0.204-2.074-0.519c-1.07-0.544-1.826-1.403-2.285-2.559
				c-0.104-0.255-0.104-0.255,0.178-0.238c0.764,0.077,1.326,0.06,1.759-0.11c-0.416-0.145-0.807-0.221-1.13-0.433
				c-1.598-0.885-2.448-2.253-2.593-4.089c-0.017-0.212,0.043-0.238,0.238-0.144c0.562,0.314,1.173,0.441,1.878,0.51
				c-0.305-0.272-0.568-0.493-0.807-0.731c-1.326-1.428-1.641-3.689-0.756-5.431c0.118-0.238,0.161-0.238,0.322-0.051
				c2.235,2.575,5.014,4.131,8.363,4.666c0.34,0.068,0.714,0.068,1.062,0.145c0.238,0.034,0.264-0.077,0.229-0.255
				c-0.348-2.014,0.596-4.011,2.381-5.014c1.817-1.063,4.181-0.731,5.643,0.697c0.17,0.145,0.333,0.178,0.528,0.127
				c0.899-0.204,1.741-0.536,2.533-0.994c0.066-0.018,0.117-0.051,0.203-0.128c-0.341,1.139-1.021,1.98-2.023,2.652
				c0.927-0.084,1.76-0.365,2.584-0.671c0.018,0.111-0.068,0.178-0.118,0.272c-0.563,0.765-1.217,1.444-1.989,2.031
				c-0.145,0.111-0.179,0.204-0.179,0.383c0.061,3.519-1.063,6.646-3.307,9.366c-2.107,2.473-4.803,3.978-8.006,4.487
				c-3.399,0.526-6.596-0.034-9.536-1.853C90.979,107.564,90.936,107.547,90.911,107.547z"/>
		</g>
	</g>
	<g>
		<g>
			<path fill="#FFFFFF" d="M155.825,81.77c10.08,0,18.241,8.176,18.241,18.239c0,10.08-8.161,18.239-18.241,18.239
				c-10.063,0-18.229-8.159-18.229-18.239C137.596,89.945,145.763,81.77,155.825,81.77 M155.825,80.834
				c-10.571,0-19.165,8.602-19.165,19.175c0,10.572,8.594,19.174,19.165,19.174c10.574,0,19.175-8.602,19.175-19.174
				C175,89.436,166.399,80.834,155.825,80.834L155.825,80.834z"/>
		</g>
		<g>
			<path fill-rule="evenodd" clip-rule="evenodd" fill="#FFFFFF" d="M163.085,90.167c-4.827,0-9.672,0-14.499,0
				c-1.727,0-2.619,0.918-2.619,2.635c0,2.396,0,4.793,0,7.208c0,2.396,0,4.853,0,7.267c0,1.666,0.919,2.575,2.533,2.575
				c4.879,0,9.723,0,14.585,0c1.683,0,2.607-0.909,2.607-2.593c0-4.853,0-9.663,0-14.516
				C165.692,91.084,164.768,90.167,163.085,90.167z M161.485,92.401c1.956,0,1.956,0,1.956,1.955c0,1.904,0,1.904-1.921,1.904
				c-1.937,0-1.937,0-1.937-1.938C159.584,92.401,159.584,92.401,161.485,92.401z M155.843,96.184c2.059,0,3.825,1.776,3.791,3.825
				c-0.018,2.107-1.767,3.841-3.857,3.808c-2.076-0.034-3.825-1.793-3.773-3.842C152.052,97.901,153.786,96.184,155.843,96.184z
				 M163.441,106.451c-0.018,0.918-0.256,1.173-1.172,1.173c-2.151,0-4.302,0-6.452,0c-2.132,0-4.282,0-6.434,0
				c-0.901,0-1.157-0.255-1.157-1.173c0-2.381,0.009-4.794-0.032-7.19c0-0.68,0.188-0.825,0.816-0.808
				c0.899,0.077,0.916,0.034,0.815,0.918c-0.348,3.034,1.76,6,4.759,6.586c3.095,0.588,6.188-1.266,7.038-4.231
				c0.256-0.927,0.331-1.921,0.136-2.831c-0.067-0.348,0.017-0.408,0.323-0.408c1.359-0.111,1.359-0.128,1.359,1.283
				C163.441,101.963,163.441,104.216,163.441,106.451z"/>
		</g>
	</g>
</g>
</svg>
