<?xml version="1.0" encoding="utf-8"?>
<!-- Generator: Adobe Illustrator 16.0.0, SVG Export Plug-In . SVG Version: 6.00 Build 0)  -->
<!DOCTYPE svg PUBLIC "-//W3C//DTD SVG 1.1//EN" "http://www.w3.org/Graphics/SVG/1.1/DTD/svg11.dtd">
<svg version="1.1" id="Capa_1" xmlns="http://www.w3.org/2000/svg" xmlns:xlink="http://www.w3.org/1999/xlink" x="0px" y="0px"
	 width="512px" height="512px" viewBox="0 0 512 512" enable-background="new 0 0 512 512" xml:space="preserve">

<filter id="shadow" height="150%">
	<feDropShadow dx="9" dy="5" stdDeviation="10" flood-color="#000000" flood-opacity="0.5" />
</filter>

<path id="sombra" filter="url(#shadow)" fill="#E5E5E5" d="M42,479.4c-2.5,0-4.9-1-6.8-2.8c-2.4-2.4-3.3-5.9-2.4-9.2l29-106
	c-18.1-32.7-27.6-69.7-27.6-107.2C34.3,132,133.7,32.6,255.8,32.6c59.2,0,114.9,23.1,156.7,64.9c41.8,41.9,64.8,97.5,64.8,156.7
	c-0.1,122.1-99.4,221.4-221.5,221.4c0,0-0.1,0-0.1,0c-35.7,0-71-8.7-102.5-25.2L44.4,479C43.6,479.3,42.8,479.4,42,479.4z"/>
<path fill="#64B161" d="M49.4,462.5l29-106c-17.9-31-27.3-66.2-27.3-102.3c0-112.8,91.9-204.6,204.7-204.6
	c54.7,0,106.1,21.3,144.8,60c38.6,38.7,59.9,90.1,59.9,144.7c0,112.8-91.9,204.6-204.6,204.6c0,0,0,0,0,0h-0.1
	c-34.2,0-67.9-8.6-97.8-24.9L49.4,462.5z"/>
<g>
	<path fill="#FFFFFF" d="M42,469.9L72.1,360c-18.6-32.1-28.3-68.6-28.3-106c0-116.9,95.1-211.9,212-211.9
		c56.7,0,109.9,22.1,150,62.2c40,40.1,62.1,93.3,62,149.9c-0.1,116.9-95.2,211.9-212,211.9c0,0,0,0,0,0h-0.1
		c-35.5,0-70.3-8.9-101.3-25.8L42,469.9z M159.6,402l6.4,3.8c27,16.1,58.1,24.5,89.7,24.6h0.1c97.1,0,176.2-79,176.2-176.2
		c0-47.1-18.3-91.3-51.6-124.6C347.1,96.3,302.9,78,255.8,77.9c-97.2,0-176.2,79-176.3,176.1c0,33.3,9.3,65.7,26.9,93.7l4.2,6.7
		l-17.8,65L159.6,402z"/>
	<path fill="#FFFFFF" d="M202.8,165.5c-4-8.8-8.1-9-11.9-9.2c-3.1-0.1-6.6-0.1-10.1-0.1c-3.5,0-9.3,1.3-14.1,6.6
		c-4.9,5.3-18.5,18.1-18.5,44.2c0,26.1,19,51.2,21.6,54.8c2.6,3.5,36.6,58.7,90.5,80c44.7,17.6,53.8,14.1,63.6,13.3
		c9.7-0.9,31.3-12.8,35.8-25.2c4.4-12.4,4.4-23,3.1-25.2c-1.3-2.2-4.9-3.5-10.2-6.2c-5.3-2.6-31.3-15.5-36.2-17.2
		c-4.9-1.8-8.4-2.6-11.9,2.7c-3.5,5.3-13.7,17.2-16.8,20.8c-3.1,3.5-6.2,4-11.5,1.3c-5.3-2.7-22.4-8.2-42.6-26.3
		c-15.7-14-26.4-31.4-29.5-36.7c-3.1-5.3-0.1-7.9,2.3-10.8c4.3-5.2,11.5-14.6,13.2-18.1c1.8-3.5,0.9-6.6-0.4-9.3
		C217.8,202.1,207.5,176,202.8,165.5z"/>
</g>
</svg>
